M48
;GenerationSoftware,Autodesk,EAGLE,9.6.0*%
;CreationDate,2020-09-23T13:31:30Z*%
FMAT,2
ICI,OFF
METRIC,TZ,000.000
T10C0.300
T9C0.400
T8C0.508
T7C0.650
T6C0.800
T5C1.016
T4C1.100
T3C1.600
T2C3.302
T1C3.800
%
G90
M71
T1
X51820Y27730
X128528Y114598
X51820Y114598
X128528Y27730
T2
X79248Y160528
X150368Y160528
X73660Y73660
X2540Y73660
X73660Y2540
X2540Y2540
X150368Y89408
X79248Y89408
X150368Y73660
X79248Y73660
X150368Y2540
X79248Y2540
X73660Y160528
X2540Y160528
X73660Y89408
X2540Y89408
T3
X31750Y128618
X31750Y41750
X108458Y41750
X108458Y128618
T4
X31750Y21750
X108458Y21750
X108458Y108618
X31750Y108618
T5
X77978Y155448
X77978Y130048
X77978Y127508
X77978Y124968
X77978Y122428
X77978Y119888
X149098Y114808
X149098Y117348
X149098Y119888
X149098Y122428
X149098Y124968
X149098Y127508
X74930Y27940
X151638Y114808
X151638Y117348
X151638Y119888
X151638Y122428
X22352Y14351
X24892Y14351
X151638Y124968
X151638Y127508
X151638Y137668
X151638Y135128
X151638Y132588
X151638Y130048
X77978Y94488
X151638Y112268
X151638Y109728
X151638Y107188
X1270Y43180
X1270Y40640
X1270Y38100
X1270Y35560
X1270Y33020
X72390Y27940
X72390Y30480
X72390Y33020
X72390Y35560
X72390Y38100
X72390Y40640
X151638Y104648
X74930Y30480
X74930Y33020
X74930Y35560
X74930Y38100
X74930Y40640
X74930Y50800
X74930Y48260
X74930Y45720
X74930Y43180
X1270Y7620
X74930Y25400
X74930Y22860
X74930Y20320
X74930Y17780
X36830Y2540
X39370Y2540
X1270Y63500
X1270Y60960
X1270Y58420
X1270Y55880
X1270Y20320
X1270Y17780
X1270Y15240
X1270Y12700
X1270Y10160
X1270Y66040
X1270Y68580
X113538Y89408
X116078Y89408
X77978Y150368
X77978Y147828
X99060Y14351
X77978Y145288
X77978Y142748
X77978Y107188
X77978Y104648
X77978Y102108
X77978Y99568
X77978Y97028
X77978Y152908
X77978Y43180
X77978Y40640
X77978Y38100
X77978Y35560
X77978Y33020
X149098Y27940
X149098Y30480
X149098Y33020
X149098Y35560
X149098Y38100
X149098Y40640
X151638Y27940
X151638Y30480
X151638Y33020
X151638Y35560
X151638Y38100
X151638Y40640
X151638Y50800
X151638Y48260
X151638Y45720
X151638Y43180
X101600Y14351
X77978Y7620
X151638Y25400
X151638Y22860
X151638Y20320
X151638Y17780
X113538Y2540
X116078Y2540
X77978Y63500
X77978Y60960
X77978Y58420
X77978Y55880
X77978Y20320
X77978Y17780
X77978Y15240
X77978Y12700
X77978Y10160
X77978Y66040
X77978Y68580
X22352Y101219
X24892Y101219
X1270Y130048
X1270Y127508
X1270Y124968
X1270Y122428
X1270Y119888
X72390Y114808
X72390Y117348
X72390Y119888
X72390Y122428
X72390Y124968
X72390Y127508
X74930Y114808
X74930Y117348
X74930Y119888
X74930Y122428
X74930Y124968
X74930Y127508
X74930Y137668
X74930Y135128
X74930Y132588
X74930Y130048
X1270Y94488
X74930Y112268
X74930Y109728
X74930Y107188
X74930Y104648
X36830Y89408
X39370Y89408
X1270Y150368
X1270Y147828
X1270Y145288
X1270Y142748
X1270Y107188
X1270Y104648
X1270Y102108
X1270Y99568
X1270Y97028
X1270Y152908
X1270Y155448
X99060Y101219
X101600Y101219
T6
X59690Y125238
X59690Y38370
X136398Y38370
X136398Y125238
T7
X21940Y4905
X92868Y4905
X98648Y4905
X16160Y91773
X21940Y91773
X16160Y4905
X92868Y91773
X98648Y91773
T8
X105918Y104013
X104648Y104013
X109728Y104013
X33020Y104013
X31750Y18415
X30480Y18415
X29210Y18415
X27940Y18415
X33020Y18415
X31750Y17145
X30480Y17145
X29210Y17145
X27940Y17145
X33020Y17145
X109728Y18415
X31750Y105283
X30480Y105283
X29210Y105283
X108458Y18415
X107188Y18415
X105918Y18415
X104648Y18415
X27940Y104013
X108458Y17145
X107188Y17145
X105918Y17145
X109728Y17145
X27940Y105283
X33020Y105283
X31750Y104013
X30480Y104013
X29210Y104013
X108458Y105283
X107188Y105283
X104648Y17145
X105918Y105283
X104648Y105283
X109728Y105283
X108458Y104013
X107188Y104013
T9
X14732Y1255
X23368Y1255
X23368Y5435
X14732Y5435
X100076Y1255
X100076Y5435
X91440Y5435
X91440Y1255
X100076Y88123
X23368Y92303
X14732Y92303
X14732Y88123
X23368Y88123
X100076Y92303
X91440Y92303
X91440Y88123
T10
X40640Y12192
X58674Y47625
X22479Y24511
X14351Y16129
X24130Y34925
X21971Y23112
X18288Y22352
X57912Y40640
X61468Y39624
X61087Y41656
X67310Y26670
X42164Y31369
X35941Y27178
X35560Y20955
X10922Y47752
X19685Y22479
X32639Y24765
X57150Y24003
X57150Y20447
X10922Y45720
X18542Y15501
X29591Y28956
X30480Y20320
X34544Y20320
X70358Y16002
X65532Y16129
X54102Y54610
X53467Y54610
X29083Y33020
X38354Y31623
X40767Y35306
X31750Y38100
X30099Y38100
X38354Y26670
X29083Y35941
X61595Y60706
X40005Y67818
X64516Y55245
X42860Y70673
X65151Y56515
X43815Y70612
X61595Y59690
X40960Y70673
X53975Y60960
X24892Y52197
X21590Y54229
X54864Y60960
X25527Y51562
X19050Y53721
X45212Y53340
X24638Y50165
X17907Y50165
X18161Y38481
X18161Y35306
X50038Y71882
X39243Y45720
X27813Y22479
X43688Y44958
X40259Y43815
X28141Y22971
X42926Y45085
X58420Y59690
X20955Y43180
X53340Y58674
X54610Y57150
X32639Y53340
X33655Y53340
X34798Y53340
X35814Y53340
X50046Y73144
X54872Y59682
X27313Y52951
X28710Y51681
X27313Y51681
X17915Y53586
X31369Y44704
X36068Y51681
X42291Y51681
X44831Y49657
X37592Y44704
X10160Y15240
X36957Y50800
X39878Y48768
X40894Y48768
X41910Y48768
X33020Y45720
X20574Y45720
X25400Y45720
X34036Y43815
X35052Y45720
X31750Y39624
X35560Y43688
X32639Y39624
X23495Y47879
X24511Y47117
X8890Y12700
X36703Y27559
X41402Y34417
X42291Y42291
X42291Y38989
X36576Y40386
X38862Y40386
X52197Y73279
X29718Y29972
X32131Y25273
X39370Y23622
X55880Y8890
X48006Y42291
X46990Y53340
X24130Y49530
X9525Y55245
X10886Y49530
X10541Y55245
X10795Y51435
X44450Y53340
X24130Y50800
X25146Y35560
X24765Y35052
X33655Y28956
X32893Y28956
X32258Y33020
X32385Y33782
X32258Y35052
X23495Y41021
X23495Y40005
X23495Y38989
X26416Y46228
X11220Y53296
X35941Y34798
X54864Y35052
X42164Y32766
X35941Y34036
X55372Y34546
X42164Y32004
X24892Y38006
X24257Y38989
X130810Y40132
X129286Y8636
X108204Y38862
X119888Y40132
X80518Y36494
X115824Y26670
X105283Y36480
X117348Y23116
X79883Y36957
X116713Y26670
X104775Y36960
X116713Y23622
X103378Y74930
X104902Y74930
X106426Y74930
X109728Y74168
X109728Y71882
X105410Y66421
X108458Y66040
X108458Y63246
X108458Y61214
X109728Y58420
X114808Y62230
X121158Y66040
X121158Y58420
X112268Y58420
X117348Y58420
X114808Y58420
X114808Y67310
X116078Y67310
X110998Y62230
X117348Y62230
X100457Y64262
X98298Y64262
X94869Y64262
X92837Y65151
X91948Y66675
X91948Y68199
X94488Y68199
X94488Y66548
X97028Y67310
X99568Y67310
X93599Y58166
X97790Y60452
X102743Y55245
X126873Y55245
X130048Y69088
X126746Y69088
X131953Y67691
X133223Y68580
X128778Y65278
X131318Y65278
X133223Y65659
X134874Y66802
X138049Y68199
X137668Y65405
X135128Y60452
X133223Y55753
X141478Y61595
X142113Y74295
X142113Y71755
X142113Y69215
X122047Y74676
X118618Y73025
X137287Y50673
X135128Y45720
X134620Y38481
X119888Y36068
X123063Y38227
X125222Y34036
X114173Y34290
X113157Y35941
X128778Y5080
X121539Y15240
X122428Y8001
X128778Y15240
X135128Y15240
X138938Y5080
X147828Y8890
X117348Y8890
X117348Y6350
X110109Y10287
X112268Y13970
X116078Y19939
X101219Y6477
X95758Y8128
X91059Y7620
X88138Y11938
X105918Y3810
X86487Y17399
X91948Y16129
X90424Y12192
X97536Y16129
X78613Y26670
X86868Y26670
X91313Y26670
X101981Y21590
X101854Y41656
X101473Y30988
X112776Y31242
X101727Y33401
X103124Y44577
X103124Y47879
X77597Y46736
X90424Y55753
X91440Y52070
X91440Y49276
X130683Y71755
X130683Y74295
X98933Y74930
X98933Y72390
X98933Y69850
X87503Y69850
X87503Y72390
X87503Y74930
X89408Y67945
X95758Y11938
X96139Y14351
X102108Y10160
X102108Y11557
X119126Y10541
X122428Y3810
X113538Y74676
X115189Y74676
X117983Y36068
X122428Y52324
X126365Y52324
X113919Y49530
X107315Y50927
X124841Y44704
X81788Y67310
X81788Y59690
X84963Y59690
X146050Y18288
X122809Y48006
X101092Y23876
X116840Y42291
X98933Y32385
X98933Y28575
X126873Y38735
X126238Y36830
X83058Y34290
X86868Y33020
X89408Y33020
X86868Y41910
X89408Y40640
X91313Y46355
X138938Y22860
X141478Y24130
X141478Y20320
X119761Y31242
X93218Y19050
X97028Y19050
X86487Y22225
X121158Y30480
X120650Y42418
X105156Y40894
X110109Y42291
X132588Y11430
X116713Y28956
X87503Y73660
X87503Y71120
X98933Y73660
X98933Y71120
X98425Y68453
X88011Y68453
X102743Y69215
X105410Y64389
X100965Y67310
X130683Y73025
X130683Y70485
X130048Y65278
X128651Y68072
X142113Y73025
X142113Y70485
X139319Y68199
X140589Y68199
X138049Y66929
X124079Y66421
X121158Y64135
X119634Y67564
X124079Y64262
X138938Y19050
X137541Y63627
X137668Y60198
X137668Y58039
X137668Y55753
X137668Y53340
X135128Y53340
X135128Y50800
X140208Y50800
X135128Y58039
X134874Y65405
X134874Y63627
X132588Y63627
X130048Y63627
X97790Y62738
X99822Y60452
X94869Y62738
X93980Y60960
X97028Y57658
X99822Y57658
X78359Y54356
X85598Y67310
X102108Y71120
X107823Y71120
X112268Y16891
X121539Y13716
X126238Y74930
X84963Y17526
X90170Y17399
X112014Y40767
X110617Y22225
X121158Y35560
X121158Y34036
X127889Y41275
X94615Y56896
X141097Y46990
X146558Y11430
X148971Y10922
X134366Y42545
X131572Y50673
X129159Y45847
X118872Y27051
X113157Y43688
X119380Y43815
X96774Y5103
X97663Y35941
X108204Y8001
X99441Y20574
X99441Y21844
X96041Y7591
X96647Y35941
X107569Y8001
X85217Y2286
X85979Y2286
X93218Y44450
X93218Y43180
X102108Y3810
X142748Y17780
X140716Y43180
X140716Y45720
X118110Y45720
X105213Y23425
X118491Y43686
X105560Y23899
X104775Y39370
X106553Y25273
X108585Y11049
X105798Y10915
X97028Y16637
X128524Y49530
X106551Y19304
X85217Y5334
X85979Y5334
X93218Y9144
X93218Y9906
X93218Y10668
X117348Y11430
X117348Y10668
X117348Y12192
X135382Y47625
X99187Y24511
X91059Y16129
X100838Y34925
X98679Y23112
X94996Y22352
X134620Y40640
X138176Y39624
X137795Y41656
X144018Y26670
X118872Y31369
X112649Y27178
X112268Y20955
X87630Y47752
X96393Y22479
X109347Y24765
X133858Y24003
X133858Y20447
X87630Y45720
X95250Y15501
X106299Y28956
X107188Y20320
X111252Y20320
X147066Y16002
X142240Y16129
X130810Y54610
X130175Y54610
X105791Y33020
X115062Y31623
X117475Y35306
X108458Y38100
X106807Y38100
X115062Y26670
X105791Y35941
X138303Y60706
X116713Y67818
X141224Y55245
X119568Y70673
X141859Y56515
X120523Y70612
X138303Y59690
X117668Y70673
X130683Y60960
X101600Y52197
X98298Y54229
X131572Y60960
X102235Y51562
X95758Y53721
X121920Y53340
X101346Y50165
X94615Y50165
X94869Y38481
X94869Y35306
X126746Y71882
X115951Y45720
X104521Y22479
X120396Y44958
X116967Y43815
X104849Y22971
X119634Y45085
X135128Y59690
X97663Y43180
X130048Y58674
X131318Y57150
X109347Y53340
X110363Y53340
X111506Y53340
X112522Y53340
X126754Y73144
X131580Y59682
X104021Y52951
X105418Y51681
X104021Y51681
X94623Y53586
X108077Y44704
X112776Y51681
X118999Y51681
X121539Y49657
X114300Y44704
X86868Y15240
X113665Y50800
X116586Y48768
X117602Y48768
X118618Y48768
X109728Y45720
X97282Y45720
X102108Y45720
X110744Y43815
X111760Y45720
X108458Y39624
X112268Y43688
X109347Y39624
X100203Y47879
X101219Y47117
X85598Y12700
X113411Y27559
X118110Y34417
X118999Y42291
X118999Y38989
X113284Y40386
X115570Y40386
X128905Y73279
X106426Y29972
X108839Y25273
X116078Y23622
X132588Y8890
X124714Y42291
X123698Y53340
X100838Y49530
X86233Y55245
X87594Y49530
X87249Y55245
X87503Y51435
X121158Y53340
X100838Y50800
X101854Y35560
X101473Y35052
X110363Y28956
X109601Y28956
X108966Y33020
X109093Y33782
X108966Y35052
X100203Y41021
X100203Y40005
X100203Y38989
X103124Y46228
X87928Y53296
X112649Y34798
X131572Y35052
X118872Y32766
X112649Y34036
X132080Y34546
X118872Y32004
X101600Y38006
X100965Y38989
X54102Y127000
X52578Y95504
X31496Y125730
X43180Y127000
X3810Y123362
X39116Y113538
X28575Y123348
X40640Y109984
X3175Y123825
X40005Y113538
X28067Y123828
X40005Y110490
X26670Y161798
X28194Y161798
X29718Y161798
X33020Y161036
X33020Y158750
X28702Y153289
X31750Y152908
X31750Y150114
X31750Y148082
X33020Y145288
X38100Y149098
X44450Y152908
X44450Y145288
X35560Y145288
X40640Y145288
X38100Y145288
X38100Y154178
X39370Y154178
X34290Y149098
X40640Y149098
X23749Y151130
X21590Y151130
X18161Y151130
X16129Y152019
X15240Y153543
X15240Y155067
X17780Y155067
X17780Y153416
X20320Y154178
X22860Y154178
X16891Y145034
X21082Y147320
X26035Y142113
X50165Y142113
X53340Y155956
X50038Y155956
X55245Y154559
X56515Y155448
X52070Y152146
X54610Y152146
X56515Y152527
X58166Y153670
X61341Y155067
X60960Y152273
X58420Y147320
X56515Y142621
X64770Y148463
X65405Y161163
X65405Y158623
X65405Y156083
X45339Y161544
X41910Y159893
X60579Y137541
X58420Y132588
X57912Y125349
X43180Y122936
X46355Y125095
X48514Y120904
X37465Y121158
X36449Y122809
X52070Y91948
X44831Y102108
X45720Y94869
X52070Y102108
X58420Y102108
X62230Y91948
X71120Y95758
X40640Y95758
X40640Y93218
X33401Y97155
X35560Y100838
X39370Y106807
X24511Y93345
X19050Y94996
X14351Y94488
X11430Y98806
X29210Y90678
X9779Y104267
X15240Y102997
X13716Y99060
X20828Y102997
X1905Y113538
X10160Y113538
X14605Y113538
X25273Y108458
X25146Y128524
X24765Y117856
X36068Y118110
X25019Y120269
X26416Y131445
X26416Y134747
X889Y133604
X13716Y142621
X14732Y138938
X14732Y136144
X53975Y158623
X53975Y161163
X22225Y161798
X22225Y159258
X22225Y156718
X10795Y156718
X10795Y159258
X10795Y161798
X12700Y154813
X19050Y98806
X19431Y101219
X25400Y97028
X25400Y98425
X42418Y97409
X45720Y90678
X36830Y161544
X38481Y161544
X41275Y122936
X45720Y139192
X49657Y139192
X37211Y136398
X30607Y137795
X48133Y131572
X22733Y21844
X5080Y146558
X8255Y146558
X69342Y105156
X46101Y134874
X24384Y110744
X40132Y129159
X22225Y119253
X22225Y115443
X50165Y125603
X49530Y123698
X6350Y121158
X10160Y119888
X12700Y119888
X10160Y128778
X12700Y127508
X14605Y133223
X62230Y109728
X64770Y110998
X64770Y107188
X43053Y118110
X16510Y105918
X20320Y105918
X9779Y109093
X44450Y117348
X43942Y129286
X28448Y127762
X33401Y129159
X55880Y98298
X40005Y115824
X10795Y160528
X10795Y157988
X22225Y160528
X22225Y157988
X21717Y155321
X11303Y155321
X26035Y156083
X28702Y151257
X24257Y154178
X53975Y159893
X53975Y157353
X53340Y152146
X51943Y154940
X65405Y159893
X65405Y157353
X62611Y155067
X63881Y155067
X61341Y153797
X47371Y153289
X44450Y151003
X42926Y154432
X47371Y151130
X62230Y105918
X60833Y150495
X60960Y147066
X60960Y144907
X60960Y142621
X60960Y140208
X58420Y140208
X58420Y137668
X63500Y137668
X58420Y144907
X58166Y152273
X58166Y150495
X55880Y150495
X53340Y150495
X21082Y149606
X23114Y147320
X18161Y149606
X17272Y147828
X20320Y144526
X23114Y144526
X1651Y141224
X8890Y154178
X25400Y157988
X31115Y157988
X35560Y103759
X44831Y100584
X49530Y161798
X8255Y104394
X13462Y104267
X35306Y127635
X33909Y109093
X44450Y122428
X44450Y120904
X51181Y128143
X17907Y143764
X64389Y133858
X69850Y98298
X72263Y97790
X57658Y129413
X54864Y137541
X52451Y132715
X42164Y113919
X36449Y130556
X42672Y130683
X20066Y91971
X20955Y122809
X31496Y94869
X22733Y107442
X22733Y108712
X19333Y94459
X19939Y122809
X30861Y94869
X8509Y89154
X9271Y89154
X16510Y131318
X16510Y130048
X25400Y90678
X66040Y104648
X64008Y130048
X64008Y132588
X41402Y132588
X28505Y110293
X41783Y130554
X28852Y110767
X28067Y126238
X29845Y112141
X31877Y97917
X29090Y97783
X20320Y103505
X51816Y136398
X29843Y106172
X8509Y92202
X9271Y92202
X16510Y96012
X16510Y96774
X16510Y97536
X40640Y98298
X40640Y97536
X40640Y99060
X58674Y134493
X22479Y111379
X14351Y102997
X24130Y121793
X21971Y109980
X18288Y109220
X57912Y127508
X61468Y126492
X61087Y128524
X67310Y113538
X42164Y118237
X35941Y114046
X35560Y107823
X10922Y134620
X19685Y109347
X32639Y111633
X57150Y110871
X57150Y107315
X10922Y132588
X18542Y102369
X29591Y115824
X30480Y107188
X34544Y107188
X70358Y102870
X65532Y102997
X54102Y141478
X53467Y141478
X29083Y119888
X38354Y118491
X40767Y122174
X31750Y124968
X30099Y124968
X38354Y113538
X29083Y122809
X61595Y147574
X40005Y154686
X64516Y142113
X42860Y157541
X65151Y143383
X43815Y157480
X61595Y146558
X40960Y157541
X53975Y147828
X24892Y139065
X21590Y141097
X54864Y147828
X25527Y138430
X19050Y140589
X45212Y140208
X24638Y137033
X17907Y137033
X18161Y125349
X18161Y122174
X50038Y158750
X39243Y132588
X27813Y109347
X43688Y131826
X40259Y130683
X28141Y109839
X42926Y131953
X58420Y146558
X20955Y130048
X53340Y145542
X54610Y144018
X32639Y140208
X33655Y140208
X34798Y140208
X35814Y140208
X50046Y160012
X54872Y146550
X27313Y139819
X28710Y138549
X27313Y138549
X17915Y140454
X31369Y131572
X36068Y138549
X42291Y138549
X44831Y136525
X37592Y131572
X10160Y102108
X36957Y137668
X39878Y135636
X40894Y135636
X41910Y135636
X33020Y132588
X20574Y132588
X25400Y132588
X34036Y130683
X35052Y132588
X31750Y126492
X35560Y130556
X32639Y126492
X23495Y134747
X24511Y133985
X8890Y99568
X36703Y114427
X41402Y121285
X42291Y129159
X42291Y125857
X36576Y127254
X38862Y127254
X52197Y160147
X29718Y116840
X32131Y112141
X39370Y110490
X55880Y95758
X48006Y129159
X46990Y140208
X24130Y136398
X9525Y142113
X10886Y136398
X10541Y142113
X10795Y138303
X44450Y140208
X24130Y137668
X25146Y122428
X24765Y121920
X33655Y115824
X32893Y115824
X32258Y119888
X32385Y120650
X32258Y121920
X23495Y127889
X23495Y126873
X23495Y125857
X26416Y133096
X11220Y140164
X35941Y121666
X54864Y121920
X42164Y119634
X35941Y120904
X55372Y121414
X42164Y118872
X24892Y124874
X24257Y125857
X130810Y127000
X129286Y95504
X108204Y125730
X119888Y127000
X80518Y123362
X115824Y113538
X105283Y123348
X117348Y109984
X79883Y123825
X116713Y113538
X104775Y123828
X116713Y110490
X103378Y161798
X104902Y161798
X106426Y161798
X109728Y161036
X109728Y158750
X105410Y153289
X108458Y152908
X108458Y150114
X108458Y148082
X109728Y145288
X114808Y149098
X121158Y152908
X121158Y145288
X112268Y145288
X117348Y145288
X114808Y145288
X114808Y154178
X116078Y154178
X110998Y149098
X117348Y149098
X100457Y151130
X98298Y151130
X94869Y151130
X92837Y152019
X91948Y153543
X91948Y155067
X94488Y155067
X94488Y153416
X97028Y154178
X99568Y154178
X93599Y145034
X97790Y147320
X102743Y142113
X126873Y142113
X130048Y155956
X126746Y155956
X131953Y154559
X133223Y155448
X128778Y152146
X131318Y152146
X133223Y152527
X134874Y153670
X138049Y155067
X137668Y152273
X135128Y147320
X133223Y142621
X141478Y148463
X142113Y161163
X142113Y158623
X142113Y156083
X122047Y161544
X118618Y159893
X137287Y137541
X135128Y132588
X134620Y125349
X119888Y122936
X123063Y125095
X125222Y120904
X114173Y121158
X113157Y122809
X128778Y91948
X121539Y102108
X122428Y94869
X128778Y102108
X135128Y102108
X138938Y91948
X147828Y95758
X117348Y95758
X117348Y93218
X110109Y97155
X112268Y100838
X116078Y106807
X101219Y93345
X95758Y94996
X91059Y94488
X88138Y98806
X105918Y90678
X86487Y104267
X91948Y102997
X90424Y99060
X97536Y102997
X78613Y113538
X86868Y113538
X91313Y113538
X101981Y108458
X101854Y128524
X101473Y117856
X112776Y118110
X101727Y120269
X103124Y131445
X103124Y134747
X77597Y133604
X90424Y142621
X91440Y138938
X91440Y136144
X130683Y158623
X130683Y161163
X98933Y161798
X98933Y159258
X98933Y156718
X87503Y156718
X87503Y159258
X87503Y161798
X89408Y154813
X95758Y98806
X96139Y101219
X102108Y97028
X102108Y98425
X119126Y97409
X122428Y90678
X113538Y161544
X115189Y161544
X117983Y122936
X122428Y139192
X126365Y139192
X113919Y136398
X107315Y137795
X124841Y131572
X81788Y154178
X81788Y146558
X84963Y146558
X146050Y105156
X122809Y134874
X101092Y110744
X116840Y129159
X98933Y119253
X98933Y115443
X126873Y125603
X126238Y123698
X83058Y121158
X86868Y119888
X89408Y119888
X86868Y128778
X89408Y127508
X91313Y133223
X138938Y109728
X141478Y110998
X141478Y107188
X119761Y118110
X93218Y105918
X97028Y105918
X86487Y109093
X121158Y117348
X120650Y129286
X105156Y127762
X110109Y129159
X132588Y98298
X116713Y115824
X87503Y160528
X87503Y157988
X98933Y160528
X98933Y157988
X98425Y155321
X88011Y155321
X102743Y156083
X105410Y151257
X100965Y154178
X130683Y159893
X130683Y157353
X130048Y152146
X128651Y154940
X142113Y159893
X142113Y157353
X139319Y155067
X140589Y155067
X138049Y153797
X124079Y153289
X121158Y151003
X119634Y154432
X124079Y151130
X138938Y105918
X137541Y150495
X137668Y147066
X137668Y144907
X137668Y142621
X137668Y140208
X135128Y140208
X135128Y137668
X140208Y137668
X135128Y144907
X134874Y152273
X134874Y150495
X132588Y150495
X54102Y40132
X97790Y149606
X99822Y147320
X94869Y149606
X93980Y147828
X97028Y144526
X99822Y144526
X78359Y141224
X85598Y154178
X102108Y157988
X107823Y157988
X112268Y103759
X121539Y100584
X126238Y161798
X84963Y104394
X90170Y104267
X112014Y127635
X110617Y109093
X121158Y122428
X121158Y120904
X127889Y128143
X94615Y143764
X141097Y133858
X146558Y98298
X148971Y97790
X134366Y129413
X131572Y137541
X129159Y132715
X118872Y113919
X113157Y130556
X119380Y130683
X96774Y91971
X97663Y122809
X108204Y94869
X99441Y107442
X99441Y108712
X96041Y94459
X96647Y122809
X107569Y94869
X85217Y89154
X85979Y89154
X93218Y131318
X93218Y130048
X102108Y90678
X142748Y104648
X140716Y130048
X140716Y132588
X118110Y132588
X105213Y110293
X118491Y130554
X105560Y110767
X104775Y126238
X106553Y112141
X108585Y97917
X105798Y97783
X97028Y103505
X128524Y136398
X106551Y106172
X85217Y92202
X85979Y92202
X93218Y96012
X93218Y96774
X93218Y97536
X117348Y98298
X117348Y97536
X117348Y99060
X135382Y134493
X99187Y111379
X91059Y102997
X100838Y121793
X98679Y109980
X94996Y109220
X134620Y127508
X138176Y126492
X137795Y128524
X144018Y113538
X118872Y118237
X112649Y114046
X112268Y107823
X87630Y134620
X96393Y109347
X109347Y111633
X133858Y110871
X133858Y107315
X87630Y132588
X95250Y102369
X106299Y115824
X107188Y107188
X111252Y107188
X147066Y102870
X142240Y102997
X130810Y141478
X130175Y141478
X105791Y119888
X115062Y118491
X117475Y122174
X108458Y124968
X106807Y124968
X115062Y113538
X105791Y122809
X138303Y147574
X116713Y154686
X141224Y142113
X119568Y157541
X141859Y143383
X120523Y157480
X138303Y146558
X117668Y157541
X130683Y147828
X101600Y139065
X98298Y141097
X131572Y147828
X102235Y138430
X95758Y140589
X121920Y140208
X101346Y137033
X94615Y137033
X94869Y125349
X94869Y122174
X126746Y158750
X115951Y132588
X104521Y109347
X120396Y131826
X116967Y130683
X104849Y109839
X119634Y131953
X135128Y146558
X97663Y130048
X130048Y145542
X131318Y144018
X109347Y140208
X110363Y140208
X111506Y140208
X112522Y140208
X126754Y160012
X131580Y146550
X104021Y139819
X105418Y138549
X104021Y138549
X94623Y140454
X108077Y131572
X112776Y138549
X118999Y138549
X121539Y136525
X114300Y131572
X86868Y102108
X113665Y137668
X116586Y135636
X117602Y135636
X118618Y135636
X109728Y132588
X97282Y132588
X102108Y132588
X110744Y130683
X111760Y132588
X108458Y126492
X112268Y130556
X109347Y126492
X100203Y134747
X101219Y133985
X85598Y99568
X113411Y114427
X118110Y121285
X118999Y129159
X118999Y125857
X113284Y127254
X115570Y127254
X128905Y160147
X106426Y116840
X108839Y112141
X116078Y110490
X132588Y95758
X124714Y129159
X123698Y140208
X100838Y136398
X86233Y142113
X87594Y136398
X87249Y142113
X87503Y138303
X121158Y140208
X100838Y137668
X101854Y122428
X101473Y121920
X110363Y115824
X109601Y115824
X108966Y119888
X109093Y120650
X108966Y121920
X100203Y127889
X100203Y126873
X100203Y125857
X103124Y133096
X87928Y140164
X112649Y121666
X131572Y121920
X118872Y119634
X112649Y120904
X132080Y121414
X118872Y118872
X101600Y124874
X100965Y125857
X52578Y8636
X31496Y38862
X43180Y40132
X3810Y36494
X39116Y26670
X28575Y36480
X40640Y23116
X3175Y36957
X40005Y26670
X28067Y36960
X40005Y23622
X26670Y74930
X28194Y74930
X29718Y74930
X33020Y74168
X33020Y71882
X28702Y66421
X31750Y66040
X31750Y63246
X31750Y61214
X33020Y58420
X38100Y62230
X44450Y66040
X44450Y58420
X35560Y58420
X40640Y58420
X38100Y58420
X38100Y67310
X39370Y67310
X5080Y154178
X34290Y62230
X40640Y62230
X23749Y64262
X21590Y64262
X18161Y64262
X16129Y65151
X15240Y66675
X15240Y68199
X17780Y68199
X17780Y66548
X20320Y67310
X22860Y67310
X16891Y58166
X21082Y60452
X26035Y55245
X50165Y55245
X53340Y69088
X50038Y69088
X55245Y67691
X56515Y68580
X52070Y65278
X54610Y65278
X56515Y65659
X58166Y66802
X61341Y68199
X60960Y65405
X58420Y60452
X56515Y55753
X64770Y61595
X65405Y74295
X65405Y71755
X65405Y69215
X45339Y74676
X41910Y73025
X60579Y50673
X58420Y45720
X57912Y38481
X43180Y36068
X46355Y38227
X48514Y34036
X37465Y34290
X36449Y35941
X52070Y5080
X44831Y15240
X45720Y8001
X52070Y15240
X58420Y15240
X62230Y5080
X71120Y8890
X40640Y8890
X40640Y6350
X33401Y10287
X35560Y13970
X39370Y19939
X24511Y6477
X19050Y8128
X14351Y7620
X11430Y11938
X29210Y3810
X9779Y17399
X15240Y16129
X13716Y12192
X20828Y16129
X1905Y26670
X10160Y26670
X14605Y26670
X25273Y21590
X25146Y41656
X24765Y30988
X36068Y31242
X25019Y33401
X26416Y44577
X26416Y47879
X889Y46736
X13716Y55753
X14732Y52070
X14732Y49276
X53975Y71755
X53975Y74295
X22225Y74930
X22225Y72390
X22225Y69850
X10795Y69850
X10795Y72390
X10795Y74930
X12700Y67945
X19050Y11938
X19431Y14351
X25400Y10160
X25400Y11557
X42418Y10541
X45720Y3810
X36830Y74676
X38481Y74676
X41275Y36068
X45720Y52324
X49657Y52324
X37211Y49530
X30607Y50927
X48133Y44704
X5080Y67310
X5080Y59690
X8255Y59690
X69342Y18288
X46101Y48006
X24384Y23876
X40132Y42291
X22225Y32385
X22225Y28575
X50165Y38735
X49530Y36830
X6350Y34290
X10160Y33020
X12700Y33020
X10160Y41910
X12700Y40640
X14605Y46355
X62230Y22860
X64770Y24130
X64770Y20320
X43053Y31242
X16510Y19050
X20320Y19050
X9779Y22225
X44450Y30480
X43942Y42418
X28448Y40894
X33401Y42291
X55880Y11430
X40005Y28956
X10795Y73660
X10795Y71120
X22225Y73660
X22225Y71120
X21717Y68453
X11303Y68453
X26035Y69215
X28702Y64389
X24257Y67310
X53975Y73025
X53975Y70485
X53340Y65278
X51943Y68072
X65405Y73025
X65405Y70485
X62611Y68199
X63881Y68199
X61341Y66929
X47371Y66421
X44450Y64135
X42926Y67564
X47371Y64262
X62230Y19050
X60833Y63627
X60960Y60198
X60960Y58039
X60960Y55753
X60960Y53340
X58420Y53340
X58420Y50800
X63500Y50800
X58420Y58039
X58166Y65405
X58166Y63627
X55880Y63627
X53340Y63627
X21082Y62738
X23114Y60452
X18161Y62738
X17272Y60960
X20320Y57658
X23114Y57658
X1651Y54356
X8890Y67310
X25400Y71120
X31115Y71120
X35560Y16891
X44831Y13716
X49530Y74930
X8255Y17526
X13462Y17399
X35306Y40767
X33909Y22225
X44450Y35560
X44450Y34036
X51181Y41275
X17907Y56896
X64389Y46990
X69850Y11430
X72263Y10922
X57658Y42545
X54864Y50673
X52451Y45847
X42164Y27051
X36449Y43688
X42672Y43815
X20066Y5103
X20955Y35941
X31496Y8001
X22733Y20574
X19333Y7591
X19939Y35941
X30861Y8001
X8509Y2286
X9271Y2286
X16510Y44450
X16510Y43180
X25400Y3810
X66040Y17780
X64008Y43180
X64008Y45720
X41402Y45720
X28505Y23425
X41783Y43686
X28852Y23899
X28067Y39370
X29845Y25273
X31877Y11049
X29090Y10915
X20320Y16637
X51816Y49530
X29843Y19304
X8509Y5334
X9271Y5334
X16510Y9144
X16510Y9906
X16510Y10668
X40640Y11430
X40640Y10668
X130048Y150495
M30