M48
;GenerationSoftware,Autodesk,EAGLE,9.6.2*%
;CreationDate,2020-11-20T15:15:28Z*%
FMAT,2
ICI,OFF
METRIC,TZ,000.000
T10C0.300
T9C0.400
T8C0.508
T7C0.650
T6C0.800
T5C1.016
T4C1.100
T3C1.600
T2C3.302
T1C3.800
%
G90
M71
T1
X128528Y27730
X51820Y27730
X128528Y113328
X51820Y113328
T2
X79248Y159258
X73660Y159258
X73660Y73660
X2540Y73660
X73660Y2540
X2540Y2540
X150368Y159258
X150368Y88138
X150368Y73660
X79248Y73660
X150368Y2540
X79248Y2540
X79248Y88138
X2540Y159258
X73660Y88138
X2540Y88138
T3
X31750Y41750
X108458Y41750
X108458Y127348
X31750Y127348
T4
X31750Y21750
X108458Y21750
X108458Y107348
X31750Y107348
T5
X77978Y128778
X77978Y126238
X77978Y123698
X77978Y121158
X77978Y118618
X149098Y113538
X149098Y116078
X149098Y118618
X149098Y121158
X149098Y123698
X149098Y126238
X151638Y113538
X77978Y154178
X151638Y116078
X151638Y118618
X151638Y121158
X151638Y123698
X22352Y14351
X24892Y14351
X151638Y126238
X151638Y136398
X151638Y133858
X151638Y131318
X151638Y128778
X77978Y93218
X151638Y110998
X151638Y108458
X151638Y105918
X151638Y103378
X1270Y43180
X1270Y40640
X1270Y38100
X1270Y35560
X1270Y33020
X72390Y27940
X72390Y30480
X72390Y33020
X72390Y35560
X72390Y38100
X72390Y40640
X74930Y27940
X74930Y30480
X74930Y33020
X74930Y35560
X74930Y38100
X74930Y40640
X74930Y50800
X74930Y48260
X74930Y45720
X74930Y43180
X1270Y7620
X74930Y25400
X74930Y22860
X74930Y20320
X74930Y17780
X36830Y2540
X39370Y2540
X1270Y63500
X1270Y60960
X1270Y58420
X1270Y55880
X1270Y20320
X1270Y17780
X1270Y15240
X1270Y12700
X1270Y10160
X1270Y66040
X1270Y68580
X113538Y88138
X116078Y88138
X77978Y149098
X77978Y146558
X99060Y14351
X77978Y144018
X77978Y141478
X77978Y105918
X77978Y103378
X77978Y100838
X77978Y98298
X77978Y95758
X77978Y151638
X77978Y43180
X77978Y40640
X77978Y38100
X77978Y35560
X77978Y33020
X149098Y27940
X149098Y30480
X149098Y33020
X149098Y35560
X149098Y38100
X149098Y40640
X151638Y27940
X151638Y30480
X151638Y33020
X151638Y35560
X151638Y38100
X151638Y40640
X151638Y50800
X151638Y48260
X151638Y45720
X151638Y43180
X101600Y14351
X77978Y7620
X151638Y25400
X151638Y22860
X151638Y20320
X151638Y17780
X113538Y2540
X116078Y2540
X77978Y63500
X77978Y60960
X77978Y58420
X77978Y55880
X77978Y20320
X77978Y17780
X77978Y15240
X77978Y12700
X77978Y10160
X77978Y66040
X77978Y68580
X22352Y99949
X24892Y99949
X1270Y128778
X1270Y126238
X1270Y123698
X1270Y121158
X1270Y118618
X72390Y113538
X72390Y116078
X72390Y118618
X72390Y121158
X72390Y123698
X72390Y126238
X74930Y113538
X74930Y116078
X74930Y118618
X74930Y121158
X74930Y123698
X74930Y126238
X74930Y136398
X74930Y133858
X74930Y131318
X74930Y128778
X1270Y93218
X74930Y110998
X74930Y108458
X74930Y105918
X74930Y103378
X36830Y88138
X39370Y88138
X1270Y149098
X1270Y146558
X1270Y144018
X1270Y141478
X1270Y105918
X1270Y103378
X1270Y100838
X1270Y98298
X1270Y95758
X1270Y151638
X1270Y154178
X99060Y99949
X101600Y99949
T6
X59690Y123968
X59690Y38370
X136398Y38370
X136398Y123968
T7
X21940Y4905
X92868Y4905
X98648Y4905
X16160Y90503
X21940Y90503
X16160Y4905
X92868Y90503
X98648Y90503
T8
X105918Y102743
X104648Y102743
X109728Y102743
X33020Y102743
X31750Y18415
X30480Y18415
X29210Y18415
X27940Y18415
X33020Y18415
X31750Y17145
X30480Y17145
X29210Y17145
X27940Y17145
X33020Y17145
X109728Y18415
X31750Y104013
X30480Y104013
X29210Y104013
X108458Y18415
X107188Y18415
X105918Y18415
X104648Y18415
X27940Y102743
X108458Y17145
X107188Y17145
X105918Y17145
X109728Y17145
X27940Y104013
X33020Y104013
X31750Y102743
X30480Y102743
X29210Y102743
X108458Y104013
X107188Y104013
X104648Y17145
X105918Y104013
X104648Y104013
X109728Y104013
X108458Y102743
X107188Y102743
T9
X14732Y1255
X23368Y1255
X23368Y5435
X14732Y5435
X100076Y1255
X100076Y5435
X91440Y5435
X91440Y1255
X100076Y86853
X23368Y91033
X14732Y91033
X14732Y86853
X23368Y86853
X100076Y91033
X91440Y91033
X91440Y86853
T10
X51816Y49530
X29843Y19304
X8509Y5334
X9271Y5334
X16510Y9144
X16510Y9906
X16510Y10668
X42545Y12700
X42545Y11938
X42545Y13462
X58420Y49530
X22479Y24511
X14351Y16129
X24130Y34925
X21971Y23112
X18288Y22352
X57912Y40640
X61468Y39624
X61087Y41656
X67310Y26670
X43053Y30861
X35370Y27051
X35306Y20955
X10922Y47752
X19685Y22479
X32639Y24765
X57150Y24003
X57150Y20447
X10922Y45720
X18542Y15501
X29591Y28956
X30480Y20320
X34544Y20320
X70358Y16002
X65532Y16129
X54102Y54610
X53467Y54610
X29083Y33020
X38354Y32385
X41275Y35306
X31750Y38100
X30099Y38100
X40005Y35306
X35306Y36068
X39942Y29591
X37973Y26670
X29083Y35941
X61595Y60706
X40005Y67818
X64516Y55245
X42860Y70673
X65151Y56515
X43815Y70612
X61595Y59690
X40960Y70673
X53975Y60960
X24892Y52197
X21590Y54229
X54864Y60960
X25527Y51562
X19050Y53721
X45212Y53340
X24638Y50165
X17907Y50165
X18161Y38735
X18161Y35306
X50038Y71882
X27813Y22479
X39497Y43307
X45212Y43688
X28141Y22971
X40259Y43307
X58420Y59690
X53340Y58674
X54610Y57150
X32639Y53340
X33655Y53340
X34798Y53340
X35814Y53340
X50046Y73144
X54872Y59682
X27313Y52951
X28710Y51681
X27313Y51681
X17915Y53586
X30607Y44704
X35433Y51681
X42799Y51681
X44831Y49657
X43688Y44831
X10160Y15240
X36957Y44704
X32131Y51681
X39497Y49149
X37211Y51023
X40132Y49149
X40894Y49149
X41529Y49149
X20193Y45720
X25400Y45720
X30607Y46228
X33401Y43307
X31750Y39624
X34036Y43307
X32639Y39624
X34901Y43307
X23495Y47879
X24257Y47117
X8890Y12700
X41656Y26670
X42291Y34036
X42418Y42672
X42291Y38989
X36576Y40386
X38862Y40386
X52197Y73279
X29718Y29972
X32131Y25273
X39370Y23622
X55880Y8890
X48006Y42291
X46990Y53340
X24130Y49530
X9525Y55245
X10886Y49530
X10541Y55245
X10795Y51435
X44450Y53340
X24130Y50800
X25146Y35560
X24765Y35052
X33655Y28956
X32893Y28956
X32258Y33020
X32385Y33782
X32258Y35052
X23495Y41021
X23495Y40005
X23495Y38989
X11220Y53296
X20828Y40005
X14605Y38735
X35941Y34798
X54864Y35052
X43053Y32385
X35941Y34036
X55372Y34546
X43053Y31623
X31750Y53340
X16478Y16097
X37338Y29591
X130810Y40132
X129286Y8636
X108204Y38862
X119888Y40132
X80518Y36494
X115443Y26670
X105283Y36480
X117348Y23116
X79883Y36957
X116205Y26670
X104775Y36960
X116713Y23622
X103378Y74930
X104902Y74930
X106426Y74930
X109728Y74168
X109728Y71882
X105410Y66421
X108458Y66040
X108458Y63246
X108458Y61214
X109728Y58420
X114808Y62230
X121158Y66040
X121158Y58420
X112268Y58420
X117348Y58420
X114808Y58420
X114808Y67310
X116078Y67310
X110998Y62230
X117348Y62230
X100457Y64262
X98298Y64262
X94869Y64262
X92837Y65151
X91948Y66675
X91948Y68199
X94488Y68199
X94488Y66548
X97028Y67310
X99568Y67310
X93599Y58166
X97790Y60452
X102743Y55245
X126873Y55245
X130048Y69088
X126746Y69088
X131953Y67691
X133477Y67437
X128778Y65278
X131318Y65278
X133096Y65151
X135128Y67818
X137668Y67818
X137541Y65024
X135128Y60452
X133223Y55753
X141478Y61595
X142113Y74295
X142113Y71755
X142113Y69215
X122047Y74676
X118618Y73025
X137287Y50673
X131318Y42863
X134620Y38481
X119888Y36068
X123063Y38227
X125222Y34036
X113157Y35941
X128778Y5080
X121539Y15240
X122428Y8001
X128778Y15240
X135128Y15240
X138938Y5080
X147828Y8890
X117348Y8890
X117348Y6350
X109474Y9779
X112268Y16510
X117348Y20574
X101219Y6477
X95758Y8128
X91059Y7620
X88138Y11938
X105918Y3810
X86487Y17399
X91948Y16129
X90424Y12192
X97536Y16129
X78613Y26670
X86868Y26670
X91313Y26670
X101981Y21590
X101854Y41656
X101473Y30988
X112649Y31369
X101727Y33401
X103124Y44704
X103124Y46990
X77597Y46736
X90424Y55753
X91440Y52070
X91440Y49276
X130683Y71755
X130683Y74295
X98933Y74930
X98933Y72390
X98933Y69850
X87503Y69850
X87503Y72390
X87503Y74930
X89408Y67945
X95758Y11938
X96139Y14351
X102108Y10160
X102108Y11557
X120142Y5207
X122428Y3810
X113538Y74676
X115189Y74676
X117983Y36068
X122428Y52324
X126365Y52324
X113919Y49911
X124841Y44704
X81788Y67310
X81788Y59690
X84963Y59690
X146050Y18288
X122809Y48006
X101092Y23876
X115316Y43307
X98933Y32385
X98933Y28575
X126873Y38735
X126238Y36830
X83058Y34290
X86868Y33020
X89408Y33020
X86868Y43180
X86868Y39370
X91313Y46355
X138938Y22860
X141478Y24130
X141478Y20320
X123571Y31242
X93218Y19050
X97028Y19050
X86487Y22225
X105156Y40894
X110109Y42291
X132588Y11430
X113792Y27051
X87503Y73660
X87503Y71120
X98933Y73660
X98933Y71120
X98425Y68453
X88011Y68453
X102743Y69215
X105410Y64389
X100965Y67310
X130683Y73025
X130683Y70485
X130048Y65278
X128651Y68072
X142113Y73025
X142113Y70485
X139319Y67437
X140589Y68199
X137668Y66294
X124079Y66421
X121158Y64135
X119634Y67564
X124079Y64262
X138938Y19050
X137541Y63627
X137668Y60198
X137668Y58039
X137668Y55753
X137668Y53340
X135128Y53340
X135128Y50800
X140208Y50800
X135128Y58039
X135128Y66294
X134874Y63627
X132588Y63627
X130048Y63627
X97790Y62738
X99822Y60452
X94869Y62738
X93980Y60960
X97028Y57658
X99822Y57658
X118872Y49149
X101854Y74930
X104394Y53848
X123444Y22860
X94361Y16065
X119697Y26543
X111252Y29591
X112268Y33020
X138938Y44450
X78359Y54356
X85598Y67310
X100457Y71120
X107823Y71120
X112268Y19050
X121539Y13716
X126238Y74930
X84963Y17526
X112014Y40767
X110617Y22225
X121158Y35560
X121158Y34036
X127889Y41275
X94615Y56896
X141097Y46990
X146558Y11430
X148971Y10922
X133223Y41656
X131572Y50673
X129159Y45847
X118872Y45720
X112268Y43307
X117348Y29337
X134747Y47625
X96774Y5103
X97663Y35941
X107315Y8001
X99441Y20574
X99441Y21844
X96041Y7591
X96647Y35941
X106680Y8001
X85217Y2286
X85979Y2286
X93218Y44450
X93218Y43180
X102108Y3810
X142748Y17780
X108712Y13589
X122428Y22733
X108712Y12827
X122428Y21717
X140716Y43180
X140716Y45720
X105213Y23425
X117729Y43307
X105560Y23899
X118491Y43307
X104775Y39370
X106553Y25273
X107950Y11049
X105798Y10915
X97028Y16637
X128524Y49530
X106551Y19304
X85217Y5334
X85979Y5334
X93218Y9144
X93218Y9906
X93218Y10668
X119253Y12700
X119253Y11938
X119253Y13462
X135128Y49530
X99187Y24511
X91059Y16129
X100838Y34925
X98679Y23112
X94996Y22352
X134620Y40640
X138176Y39624
X137795Y41656
X144018Y26670
X119761Y30861
X112077Y27051
X112014Y20955
X87630Y47752
X96393Y22479
X109347Y24765
X133858Y24003
X133858Y20447
X87630Y45720
X95250Y15501
X106299Y28956
X107188Y20320
X111252Y20320
X147066Y16002
X142240Y16129
X130810Y54610
X130175Y54610
X105791Y33020
X115062Y32385
X117983Y35306
X108458Y38100
X106807Y38100
X116713Y35306
X112014Y36068
X116649Y29591
X114681Y26670
X105791Y35941
X138303Y60706
X116713Y67818
X141224Y55245
X119568Y70673
X141859Y56515
X120523Y70612
X138303Y59690
X117668Y70673
X130683Y60960
X101600Y52197
X98298Y54229
X131572Y60960
X102235Y51562
X95758Y53721
X121920Y53340
X101346Y50165
X94615Y50165
X94869Y38735
X94869Y35306
X126746Y71882
X104521Y22479
X116205Y43307
X121920Y43688
X104849Y22971
X116967Y43307
X135128Y59690
X130048Y58674
X131318Y57150
X109347Y53340
X110363Y53340
X111506Y53340
X112522Y53340
X126754Y73144
X131580Y59682
X104021Y52951
X105418Y51681
X104021Y51681
X94623Y53586
X107315Y44704
X112141Y51681
X119507Y51681
X121539Y49657
X120396Y44831
X86868Y15240
X113665Y44704
X108839Y51681
X116205Y49149
X113919Y51023
X116840Y49149
X117602Y49149
X118237Y49149
X96901Y45720
X102108Y45720
X107315Y46228
X110109Y43307
X108458Y39624
X110744Y43307
X109347Y39624
X111609Y43307
X100203Y47879
X100965Y47117
X85598Y12700
X118364Y26670
X118999Y34036
X119126Y42672
X118999Y38989
X113284Y40386
X115570Y40386
X128905Y73279
X106426Y29972
X108839Y25273
X116078Y23622
X132588Y8890
X124714Y42291
X123698Y53340
X100838Y49530
X86233Y55245
X87594Y49530
X87249Y55245
X87503Y51435
X121158Y53340
X100838Y50800
X101854Y35560
X101473Y35052
X110363Y28956
X109601Y28956
X108966Y33020
X109093Y33782
X108966Y35052
X100203Y41021
X100203Y40005
X100203Y38989
X87928Y53296
X97536Y40005
X91313Y38735
X112649Y34798
X131572Y35052
X119761Y32385
X112649Y34036
X132080Y34546
X119761Y31623
X108458Y53340
X93186Y16097
X114046Y29591
X54102Y125730
X52578Y94234
X31496Y124460
X43180Y125730
X3810Y122092
X38735Y112268
X28575Y122078
X40640Y108714
X3175Y122555
X39497Y112268
X28067Y122558
X40005Y109220
X26670Y160528
X28194Y160528
X29718Y160528
X33020Y159766
X33020Y157480
X28702Y152019
X31750Y151638
X31750Y148844
X31750Y146812
X33020Y144018
X38100Y147828
X44450Y151638
X44450Y144018
X35560Y144018
X40640Y144018
X38100Y144018
X38100Y152908
X39370Y152908
X34290Y147828
X40640Y147828
X23749Y149860
X21590Y149860
X18161Y149860
X16129Y150749
X15240Y152273
X15240Y153797
X17780Y153797
X17780Y152146
X20320Y152908
X22860Y152908
X16891Y143764
X21082Y146050
X26035Y140843
X50165Y140843
X53340Y154686
X50038Y154686
X55245Y153289
X56769Y153035
X52070Y150876
X54610Y150876
X56388Y150749
X58420Y153416
X60960Y153416
X60833Y150622
X58420Y146050
X56515Y141351
X64770Y147193
X65405Y159893
X65405Y157353
X65405Y154813
X45339Y160274
X41910Y158623
X60579Y136271
X54610Y128460
X57912Y124079
X43180Y121666
X46355Y123825
X48514Y119634
X36449Y121539
X52070Y90678
X44831Y100838
X45720Y93599
X52070Y100838
X58420Y100838
X62230Y90678
X71120Y94488
X40640Y94488
X40640Y91948
X32766Y95377
X35560Y102108
X40640Y106172
X24511Y92075
X19050Y93726
X14351Y93218
X11430Y97536
X29210Y89408
X9779Y102997
X15240Y101727
X13716Y97790
X20828Y101727
X1905Y112268
X10160Y112268
X14605Y112268
X25273Y107188
X25146Y127254
X24765Y116586
X35941Y116967
X25019Y118999
X26416Y130302
X26416Y132588
X889Y132334
X13716Y141351
X14732Y137668
X14732Y134874
X53975Y157353
X53975Y159893
X22225Y160528
X22225Y157988
X22225Y155448
X10795Y155448
X10795Y157988
X10795Y160528
X12700Y153543
X19050Y97536
X19431Y99949
X25400Y95758
X25400Y97155
X43434Y90805
X45720Y89408
X36830Y160274
X38481Y160274
X41275Y121666
X45720Y137922
X49657Y137922
X37211Y135509
X48133Y130302
X5080Y152908
X5080Y145288
X29972Y8001
X69342Y103886
X46101Y133604
X24384Y109474
X38608Y128905
X22225Y117983
X22225Y114173
X50165Y124333
X49530Y122428
X6350Y119888
X10160Y118618
X12700Y118618
X10160Y128778
X10160Y124968
X14605Y131953
X62230Y108458
X64770Y109728
X64770Y105918
X46863Y116840
X16510Y104648
X20320Y104648
X9779Y107823
X28448Y126492
X33401Y127889
X55880Y97028
X37084Y112649
X10795Y159258
X10795Y156718
X22225Y159258
X22225Y156718
X21717Y154051
X11303Y154051
X26035Y154813
X28702Y149987
X24257Y152908
X53975Y158623
X53975Y156083
X53340Y150876
X51943Y153670
X65405Y158623
X65405Y156083
X62611Y153035
X63881Y153797
X60960Y151892
X47371Y152019
X44450Y149733
X42926Y153162
X47371Y149860
X62230Y104648
X60833Y149225
X60960Y145796
X60960Y143637
X60960Y141351
X60960Y138938
X58420Y138938
X58420Y136398
X63500Y136398
X58420Y143637
X58420Y151892
X58166Y149225
X55880Y149225
X53340Y149225
X21082Y148336
X23114Y146050
X18161Y148336
X17272Y146558
X20320Y143256
X23114Y143256
X42164Y134747
X25146Y160528
X27686Y139446
X46736Y108458
X17653Y101663
X42990Y112141
X34544Y115189
X35560Y118618
X62230Y130048
X1651Y139954
X8890Y152908
X23749Y156718
X31115Y156718
X35560Y104648
X44831Y99314
X49530Y160528
X8255Y103124
X35306Y126365
X33909Y107823
X44450Y121158
X44450Y119634
X51181Y126873
X17907Y142494
X64389Y132588
X69850Y97028
X72263Y96520
X56515Y127254
X54864Y136271
X52451Y131445
X42164Y131318
X35560Y128905
X40640Y114935
X58039Y133223
X20066Y90701
X20955Y121539
X30607Y93599
X22733Y106172
X22733Y107442
X19333Y93189
X19939Y121539
X29972Y93599
X8509Y87884
X9271Y87884
X16510Y130048
X16510Y128778
X25400Y89408
X66040Y103378
X32004Y99187
X45720Y108331
X32004Y98425
X45720Y107315
X64008Y128778
X64008Y131318
X28505Y109023
X41021Y128905
X28852Y109497
X41783Y128905
X28067Y124968
X29845Y110871
X31242Y96647
X29090Y96513
X20320Y102235
X51816Y135128
X29843Y104902
X8509Y90932
X9271Y90932
X16510Y94742
X16510Y95504
X16510Y96266
X42545Y98298
X42545Y97536
X42545Y99060
X58420Y135128
X22479Y110109
X14351Y101727
X24130Y120523
X21971Y108710
X18288Y107950
X57912Y126238
X61468Y125222
X61087Y127254
X67310Y112268
X43053Y116459
X35370Y112649
X35306Y106553
X10922Y133350
X19685Y108077
X32639Y110363
X57150Y109601
X57150Y106045
X10922Y131318
X18542Y101099
X29591Y114554
X30480Y105918
X34544Y105918
X70358Y101600
X65532Y101727
X54102Y140208
X53467Y140208
X29083Y118618
X38354Y117983
X41275Y120904
X31750Y123698
X30099Y123698
X40005Y120904
X35306Y121666
X39942Y115189
X37973Y112268
X29083Y121539
X61595Y146304
X40005Y153416
X64516Y140843
X42860Y156271
X65151Y142113
X43815Y156210
X61595Y145288
X40960Y156271
X53975Y146558
X24892Y137795
X21590Y139827
X54864Y146558
X25527Y137160
X19050Y139319
X45212Y138938
X24638Y135763
X17907Y135763
X18161Y124333
X18161Y120904
X50038Y157480
X27813Y108077
X39497Y128905
X45212Y129286
X28141Y108569
X40259Y128905
X58420Y145288
X53340Y144272
X54610Y142748
X32639Y138938
X33655Y138938
X34798Y138938
X35814Y138938
X50046Y158742
X54872Y145280
X27313Y138549
X28710Y137279
X27313Y137279
X17915Y139184
X30607Y130302
X35433Y137279
X42799Y137279
X44831Y135255
X43688Y130429
X10160Y100838
X36957Y130302
X32131Y137279
X39497Y134747
X37211Y136621
X40132Y134747
X40894Y134747
X41529Y134747
X20193Y131318
X25400Y131318
X30607Y131826
X33401Y128905
X31750Y125222
X34036Y128905
X32639Y125222
X34901Y128905
X23495Y133477
X24257Y132715
X8890Y98298
X41656Y112268
X42291Y119634
X42418Y128270
X42291Y124587
X36576Y125984
X38862Y125984
X52197Y158877
X29718Y115570
X32131Y110871
X39370Y109220
X55880Y94488
X48006Y127889
X46990Y138938
X24130Y135128
X9525Y140843
X10886Y135128
X10541Y140843
X10795Y137033
X44450Y138938
X24130Y136398
X25146Y121158
X24765Y120650
X33655Y114554
X32893Y114554
X32258Y118618
X32385Y119380
X32258Y120650
X23495Y126619
X23495Y125603
X23495Y124587
X11220Y138894
X20828Y125603
X14605Y124333
X35941Y120396
X54864Y120650
X43053Y117983
X35941Y119634
X55372Y120144
X43053Y117221
X31750Y138938
X16478Y101695
X37338Y115189
X130810Y125730
X129286Y94234
X108204Y124460
X119888Y125730
X80518Y122092
X115443Y112268
X105283Y122078
X117348Y108714
X79883Y122555
X116205Y112268
X104775Y122558
X116713Y109220
X103378Y160528
X104902Y160528
X106426Y160528
X109728Y159766
X109728Y157480
X105410Y152019
X108458Y151638
X108458Y148844
X108458Y146812
X109728Y144018
X114808Y147828
X121158Y151638
X121158Y144018
X112268Y144018
X117348Y144018
X114808Y144018
X114808Y152908
X116078Y152908
X110998Y147828
X117348Y147828
X100457Y149860
X98298Y149860
X94869Y149860
X92837Y150749
X91948Y152273
X91948Y153797
X94488Y153797
X94488Y152146
X97028Y152908
X99568Y152908
X93599Y143764
X97790Y146050
X102743Y140843
X126873Y140843
X130048Y154686
X126746Y154686
X131953Y153289
X133477Y153035
X128778Y150876
X131318Y150876
X133096Y150749
X135128Y153416
X137668Y153416
X137541Y150622
X135128Y146050
X133223Y141351
X141478Y147193
X142113Y159893
X142113Y157353
X142113Y154813
X122047Y160274
X118618Y158623
X137287Y136271
X131318Y128460
X134620Y124079
X119888Y121666
X123063Y123825
X125222Y119634
X113157Y121539
X128778Y90678
X121539Y100838
X122428Y93599
X128778Y100838
X135128Y100838
X138938Y90678
X147828Y94488
X117348Y94488
X117348Y91948
X109474Y95377
X112268Y102108
X117348Y106172
X101219Y92075
X95758Y93726
X91059Y93218
X88138Y97536
X105918Y89408
X86487Y102997
X91948Y101727
X90424Y97790
X97536Y101727
X78613Y112268
X86868Y112268
X91313Y112268
X101981Y107188
X101854Y127254
X101473Y116586
X112649Y116967
X101727Y118999
X103124Y130302
X103124Y132588
X77597Y132334
X90424Y141351
X91440Y137668
X91440Y134874
X130683Y157353
X130683Y159893
X98933Y160528
X98933Y157988
X98933Y155448
X87503Y155448
X87503Y157988
X87503Y160528
X89408Y153543
X95758Y97536
X96139Y99949
X102108Y95758
X102108Y97155
X120142Y90805
X122428Y89408
X113538Y160274
X115189Y160274
X117983Y121666
X122428Y137922
X126365Y137922
X113919Y135509
X124841Y130302
X81788Y152908
X81788Y145288
X84963Y145288
X146050Y103886
X122809Y133604
X101092Y109474
X115316Y128905
X98933Y117983
X98933Y114173
X126873Y124333
X126238Y122428
X83058Y119888
X86868Y118618
X89408Y118618
X86868Y128778
X86868Y124968
X91313Y131953
X138938Y108458
X141478Y109728
X141478Y105918
X123571Y116840
X93218Y104648
X97028Y104648
X86487Y107823
X105156Y126492
X110109Y127889
X132588Y97028
X113792Y112649
X87503Y159258
X87503Y156718
X98933Y159258
X98933Y156718
X98425Y154051
X88011Y154051
X102743Y154813
X105410Y149987
X100965Y152908
X130683Y158623
X130683Y156083
X130048Y150876
X128651Y153670
X142113Y158623
X142113Y156083
X139319Y153035
X140589Y153797
X137668Y151892
X124079Y152019
X121158Y149733
X119634Y153162
X124079Y149860
X138938Y104648
X137541Y149225
X137668Y145796
X137668Y143637
X137668Y141351
X137668Y138938
X135128Y138938
X135128Y136398
X140208Y136398
X135128Y143637
X135128Y151892
X134874Y149225
X132588Y149225
X130048Y149225
X97790Y148336
X99822Y146050
X54102Y40132
X93980Y146558
X97028Y143256
X99822Y143256
X118872Y134747
X101854Y160528
X104394Y139446
X123444Y108458
X94361Y101663
X119697Y112141
X111252Y115189
X112268Y118618
X138938Y130048
X78359Y139954
X85598Y152908
X100457Y156718
X107823Y156718
X112268Y104648
X121539Y99314
X126238Y160528
X84963Y103124
X112014Y126365
X110617Y107823
X121158Y121158
X121158Y119634
X127889Y126873
X94615Y142494
X141097Y132588
X146558Y97028
X148971Y96520
X133223Y127254
X131572Y136271
X129159Y131445
X118872Y131318
X112268Y128905
X117348Y114935
X134747Y133223
X96774Y90701
X97663Y121539
X107315Y93599
X99441Y106172
X99441Y107442
X96041Y93189
X96647Y121539
X106680Y93599
X85217Y87884
X85979Y87884
X93218Y130048
X93218Y128778
X102108Y89408
X142748Y103378
X108712Y99187
X122428Y108331
X108712Y98425
X122428Y107315
X140716Y128778
X140716Y131318
X105213Y109023
X117729Y128905
X105560Y109497
X118491Y128905
X104775Y124968
X106553Y110871
X107950Y96647
X105798Y96513
X97028Y102235
X128524Y135128
X106551Y104902
X85217Y90932
X85979Y90932
X93218Y94742
X93218Y95504
X93218Y96266
X119253Y98298
X119253Y97536
X119253Y99060
X135128Y135128
X99187Y110109
X91059Y101727
X100838Y120523
X98679Y108710
X94996Y107950
X134620Y126238
X138176Y125222
X137795Y127254
X144018Y112268
X119761Y116459
X112077Y112649
X112014Y106553
X87630Y133350
X96393Y108077
X109347Y110363
X133858Y109601
X133858Y106045
X87630Y131318
X95250Y101099
X106299Y114554
X107188Y105918
X111252Y105918
X147066Y101600
X142240Y101727
X130810Y140208
X130175Y140208
X105791Y118618
X115062Y117983
X117983Y120904
X108458Y123698
X106807Y123698
X116713Y120904
X112014Y121666
X116649Y115189
X114681Y112268
X105791Y121539
X138303Y146304
X116713Y153416
X141224Y140843
X119568Y156271
X141859Y142113
X120523Y156210
X138303Y145288
X117668Y156271
X130683Y146558
X101600Y137795
X98298Y139827
X131572Y146558
X102235Y137160
X95758Y139319
X121920Y138938
X101346Y135763
X94615Y135763
X94869Y124333
X94869Y120904
X126746Y157480
X104521Y108077
X116205Y128905
X121920Y129286
X104849Y108569
X116967Y128905
X135128Y145288
X130048Y144272
X131318Y142748
X109347Y138938
X110363Y138938
X111506Y138938
X112522Y138938
X126754Y158742
X131580Y145280
X104021Y138549
X105418Y137279
X104021Y137279
X94623Y139184
X107315Y130302
X112141Y137279
X119507Y137279
X121539Y135255
X120396Y130429
X86868Y100838
X113665Y130302
X108839Y137279
X116205Y134747
X113919Y136621
X116840Y134747
X117602Y134747
X118237Y134747
X96901Y131318
X102108Y131318
X107315Y131826
X110109Y128905
X108458Y125222
X110744Y128905
X109347Y125222
X111609Y128905
X100203Y133477
X100965Y132715
X85598Y98298
X118364Y112268
X118999Y119634
X119126Y128270
X118999Y124587
X113284Y125984
X115570Y125984
X128905Y158877
X106426Y115570
X108839Y110871
X116078Y109220
X132588Y94488
X124714Y127889
X123698Y138938
X100838Y135128
X86233Y140843
X87594Y135128
X87249Y140843
X87503Y137033
X121158Y138938
X100838Y136398
X101854Y121158
X101473Y120650
X110363Y114554
X109601Y114554
X108966Y118618
X109093Y119380
X108966Y120650
X100203Y126619
X100203Y125603
X100203Y124587
X87928Y138894
X97536Y125603
X91313Y124333
X112649Y120396
X131572Y120650
X119761Y117983
X112649Y119634
X132080Y120144
X119761Y117221
X108458Y138938
X93186Y101695
X114046Y115189
X52578Y8636
X31496Y38862
X43180Y40132
X3810Y36494
X38735Y26670
X28575Y36480
X40640Y23116
X3175Y36957
X39497Y26670
X28067Y36960
X40005Y23622
X26670Y74930
X28194Y74930
X29718Y74930
X33020Y74168
X33020Y71882
X28702Y66421
X31750Y66040
X31750Y63246
X31750Y61214
X33020Y58420
X8255Y145288
X38100Y62230
X44450Y66040
X44450Y58420
X35560Y58420
X40640Y58420
X38100Y58420
X38100Y67310
X39370Y67310
X34290Y62230
X40640Y62230
X23749Y64262
X21590Y64262
X18161Y64262
X16129Y65151
X15240Y66675
X15240Y68199
X17780Y68199
X17780Y66548
X20320Y67310
X22860Y67310
X16891Y58166
X21082Y60452
X26035Y55245
X50165Y55245
X53340Y69088
X50038Y69088
X55245Y67691
X56769Y67437
X52070Y65278
X54610Y65278
X56388Y65151
X58420Y67818
X60960Y67818
X60833Y65024
X58420Y60452
X56515Y55753
X64770Y61595
X65405Y74295
X65405Y71755
X65405Y69215
X45339Y74676
X41910Y73025
X60579Y50673
X54610Y42863
X57912Y38481
X43180Y36068
X46355Y38227
X48514Y34036
X36449Y35941
X52070Y5080
X44831Y15240
X45720Y8001
X52070Y15240
X58420Y15240
X62230Y5080
X71120Y8890
X40640Y8890
X40640Y6350
X32766Y9779
X35560Y16510
X40640Y20574
X24511Y6477
X19050Y8128
X14351Y7620
X11430Y11938
X29210Y3810
X9779Y17399
X15240Y16129
X13716Y12192
X20828Y16129
X1905Y26670
X10160Y26670
X14605Y26670
X25273Y21590
X25146Y41656
X24765Y30988
X35941Y31369
X25019Y33401
X26416Y44704
X26416Y46990
X889Y46736
X13716Y55753
X14732Y52070
X14732Y49276
X53975Y71755
X53975Y74295
X22225Y74930
X22225Y72390
X22225Y69850
X10795Y69850
X10795Y72390
X10795Y74930
X12700Y67945
X19050Y11938
X19431Y14351
X25400Y10160
X25400Y11557
X43434Y5207
X45720Y3810
X36830Y74676
X38481Y74676
X41275Y36068
X45720Y52324
X49657Y52324
X37211Y49911
X48133Y44704
X5080Y67310
X5080Y59690
X8255Y59690
X69342Y18288
X46101Y48006
X24384Y23876
X38608Y43307
X22225Y32385
X22225Y28575
X50165Y38735
X49530Y36830
X6350Y34290
X10160Y33020
X12700Y33020
X10160Y43180
X10160Y39370
X14605Y46355
X62230Y22860
X64770Y24130
X64770Y20320
X46863Y31242
X16510Y19050
X20320Y19050
X9779Y22225
X28448Y40894
X33401Y42291
X55880Y11430
X37084Y27051
X10795Y73660
X10795Y71120
X22225Y73660
X22225Y71120
X21717Y68453
X11303Y68453
X26035Y69215
X28702Y64389
X24257Y67310
X53975Y73025
X53975Y70485
X53340Y65278
X51943Y68072
X65405Y73025
X65405Y70485
X62611Y67437
X63881Y68199
X60960Y66294
X47371Y66421
X44450Y64135
X42926Y67564
X47371Y64262
X62230Y19050
X60833Y63627
X60960Y60198
X60960Y58039
X60960Y55753
X60960Y53340
X58420Y53340
X58420Y50800
X63500Y50800
X58420Y58039
X58420Y66294
X58166Y63627
X55880Y63627
X53340Y63627
X21082Y62738
X23114Y60452
X18161Y62738
X17272Y60960
X20320Y57658
X23114Y57658
X42164Y49149
X25146Y74930
X27686Y53848
X46736Y22860
X17653Y16065
X42990Y26543
X34544Y29591
X35560Y33020
X62230Y44450
X1651Y54356
X8890Y67310
X23749Y71120
X31115Y71120
X35560Y19050
X44831Y13716
X49530Y74930
X8255Y17526
X35306Y40767
X33909Y22225
X44450Y35560
X44450Y34036
X51181Y41275
X17907Y56896
X64389Y46990
X69850Y11430
X72263Y10922
X56515Y41656
X54864Y50673
X52451Y45847
X42164Y45720
X35560Y43307
X40640Y29337
X58039Y47625
X20066Y5103
X20955Y35941
X30607Y8001
X22733Y20574
X22733Y21844
X19333Y7591
X19939Y35941
X8509Y2286
X9271Y2286
X16510Y44450
X16510Y43180
X25400Y3810
X66040Y17780
X32004Y13589
X45720Y22733
X32004Y12827
X45720Y21717
X64008Y43180
X64008Y45720
X28505Y23425
X41021Y43307
X28852Y23899
X41783Y43307
X28067Y39370
X29845Y25273
X31242Y11049
X29090Y10915
X20320Y16637
X94869Y148336
M30