G04 EAGLE Gerber RS-274X export*
G75*
%MOMM*%
%FSLAX34Y34*%
%LPD*%
%INSoldermask Top*%
%IPPOS*%
%AMOC8*
5,1,8,0,0,1.08239X$1,22.5*%
G01*
%ADD10R,0.503200X1.203200*%
%ADD11R,0.803200X1.203200*%
%ADD12C,0.853200*%
%ADD13R,1.303200X1.203200*%
%ADD14R,0.853200X0.503200*%
%ADD15R,1.803200X2.553200*%
%ADD16R,1.203200X1.303200*%
%ADD17C,0.838200*%
%ADD18R,0.928200X0.725200*%
%ADD19C,1.003200*%
%ADD20C,0.600000*%
%ADD21R,0.703200X0.403200*%
%ADD22R,0.403200X0.703200*%
%ADD23C,3.505200*%
%ADD24R,1.700000X4.200000*%
%ADD25R,0.833200X1.033200*%
%ADD26R,0.965200X1.727200*%
%ADD27R,3.003200X1.203200*%
%ADD28R,1.803200X1.603200*%
%ADD29C,2.082800*%
%ADD30C,1.203200*%
%ADD31R,2.003200X1.603200*%
%ADD32R,1.603200X2.103200*%
%ADD33R,1.003200X1.703200*%
%ADD34C,6.203200*%
%ADD35R,1.033200X0.833200*%
%ADD36C,0.505344*%
%ADD37C,1.303200*%
%ADD38C,1.803200*%
%ADD39R,1.753200X0.503200*%
%ADD40R,2.953200X1.403200*%
%ADD41R,1.003200X1.103200*%
%ADD42R,2.203200X1.403200*%
%ADD43R,1.553200X0.803200*%
%ADD44R,1.703200X1.003200*%
%ADD45R,1.303200X1.303200*%
%ADD46R,0.698200X0.453200*%
%ADD47R,0.803200X0.453200*%
%ADD48R,0.453200X0.698200*%
%ADD49R,0.453200X0.803200*%
%ADD50R,0.104000X0.453000*%
%ADD51R,0.453000X0.104000*%
%ADD52R,0.603200X0.953200*%
%ADD53R,0.853200X0.663200*%
%ADD54R,1.353200X7.203200*%
%ADD55R,1.103200X2.403200*%
%ADD56R,1.403200X0.753200*%
%ADD57R,1.203200X4.803200*%
%ADD58R,1.803200X3.603200*%
%ADD59R,1.503200X0.853200*%
%ADD60R,2.003200X0.683200*%
%ADD61R,1.203200X1.233200*%
%ADD62R,0.803200X1.403200*%
%ADD63R,0.863600X0.558800*%
%ADD64R,1.053200X1.103200*%
%ADD65R,0.753200X1.403200*%
%ADD66R,1.103200X1.053200*%
%ADD67R,0.400000X0.900000*%
%ADD68R,0.903200X0.903200*%
%ADD69R,0.623200X0.903200*%
%ADD70R,1.723200X2.413200*%
%ADD71R,0.653200X1.703200*%
%ADD72R,0.840000X0.440000*%
%ADD73R,0.940000X1.520000*%
%ADD74C,1.270000*%
%ADD75C,1.703200*%

G36*
X265306Y896637D02*
X265306Y896637D01*
X265333Y896633D01*
X265374Y896651D01*
X265416Y896660D01*
X265452Y896686D01*
X265461Y896690D01*
X265465Y896695D01*
X265476Y896704D01*
X289476Y920704D01*
X289497Y920742D01*
X289526Y920775D01*
X289530Y920802D01*
X289543Y920826D01*
X289540Y920870D01*
X289547Y920913D01*
X289536Y920939D01*
X289534Y920966D01*
X289508Y921001D01*
X289490Y921041D01*
X289467Y921056D01*
X289451Y921078D01*
X289410Y921094D01*
X289374Y921118D01*
X289330Y921125D01*
X289321Y921128D01*
X289314Y921127D01*
X289300Y921129D01*
X265300Y921129D01*
X265284Y921124D01*
X265267Y921127D01*
X265217Y921105D01*
X265166Y921090D01*
X265155Y921077D01*
X265139Y921070D01*
X265109Y921025D01*
X265074Y920985D01*
X265071Y920968D01*
X265062Y920954D01*
X265051Y920880D01*
X265051Y896880D01*
X265063Y896838D01*
X265066Y896794D01*
X265082Y896772D01*
X265090Y896746D01*
X265123Y896717D01*
X265149Y896682D01*
X265175Y896672D01*
X265195Y896654D01*
X265239Y896647D01*
X265279Y896632D01*
X265306Y896637D01*
G37*
G36*
X1032386Y896637D02*
X1032386Y896637D01*
X1032413Y896633D01*
X1032454Y896651D01*
X1032496Y896660D01*
X1032532Y896686D01*
X1032541Y896690D01*
X1032545Y896695D01*
X1032556Y896704D01*
X1056556Y920704D01*
X1056577Y920742D01*
X1056606Y920775D01*
X1056610Y920802D01*
X1056623Y920826D01*
X1056620Y920870D01*
X1056627Y920913D01*
X1056616Y920939D01*
X1056614Y920966D01*
X1056588Y921001D01*
X1056570Y921041D01*
X1056547Y921056D01*
X1056531Y921078D01*
X1056490Y921094D01*
X1056454Y921118D01*
X1056410Y921125D01*
X1056401Y921128D01*
X1056394Y921127D01*
X1056380Y921129D01*
X1032380Y921129D01*
X1032364Y921124D01*
X1032347Y921127D01*
X1032297Y921105D01*
X1032246Y921090D01*
X1032235Y921077D01*
X1032219Y921070D01*
X1032189Y921025D01*
X1032154Y920985D01*
X1032151Y920968D01*
X1032142Y920954D01*
X1032131Y920880D01*
X1032131Y896880D01*
X1032143Y896838D01*
X1032146Y896794D01*
X1032162Y896772D01*
X1032170Y896746D01*
X1032203Y896717D01*
X1032229Y896682D01*
X1032255Y896672D01*
X1032275Y896654D01*
X1032319Y896647D01*
X1032359Y896632D01*
X1032386Y896637D01*
G37*
G36*
X1032386Y40657D02*
X1032386Y40657D01*
X1032413Y40653D01*
X1032454Y40671D01*
X1032496Y40680D01*
X1032532Y40706D01*
X1032541Y40710D01*
X1032545Y40715D01*
X1032556Y40724D01*
X1056556Y64724D01*
X1056577Y64762D01*
X1056606Y64795D01*
X1056610Y64822D01*
X1056623Y64846D01*
X1056620Y64890D01*
X1056627Y64933D01*
X1056616Y64959D01*
X1056614Y64986D01*
X1056588Y65021D01*
X1056570Y65061D01*
X1056547Y65076D01*
X1056531Y65098D01*
X1056490Y65114D01*
X1056454Y65138D01*
X1056410Y65145D01*
X1056401Y65148D01*
X1056394Y65147D01*
X1056380Y65149D01*
X1032380Y65149D01*
X1032364Y65144D01*
X1032347Y65147D01*
X1032297Y65125D01*
X1032246Y65110D01*
X1032235Y65097D01*
X1032219Y65090D01*
X1032189Y65045D01*
X1032154Y65005D01*
X1032151Y64988D01*
X1032142Y64974D01*
X1032131Y64900D01*
X1032131Y40900D01*
X1032143Y40858D01*
X1032146Y40814D01*
X1032162Y40792D01*
X1032170Y40766D01*
X1032203Y40737D01*
X1032229Y40702D01*
X1032255Y40692D01*
X1032275Y40674D01*
X1032319Y40667D01*
X1032359Y40652D01*
X1032386Y40657D01*
G37*
G36*
X265306Y40657D02*
X265306Y40657D01*
X265333Y40653D01*
X265374Y40671D01*
X265416Y40680D01*
X265452Y40706D01*
X265461Y40710D01*
X265465Y40715D01*
X265476Y40724D01*
X289476Y64724D01*
X289497Y64762D01*
X289526Y64795D01*
X289530Y64822D01*
X289543Y64846D01*
X289540Y64890D01*
X289547Y64933D01*
X289536Y64959D01*
X289534Y64986D01*
X289508Y65021D01*
X289490Y65061D01*
X289467Y65076D01*
X289451Y65098D01*
X289410Y65114D01*
X289374Y65138D01*
X289330Y65145D01*
X289321Y65148D01*
X289314Y65147D01*
X289300Y65149D01*
X265300Y65149D01*
X265284Y65144D01*
X265267Y65147D01*
X265217Y65125D01*
X265166Y65110D01*
X265155Y65097D01*
X265139Y65090D01*
X265109Y65045D01*
X265074Y65005D01*
X265071Y64988D01*
X265062Y64974D01*
X265051Y64900D01*
X265051Y40900D01*
X265063Y40858D01*
X265066Y40814D01*
X265082Y40792D01*
X265090Y40766D01*
X265123Y40737D01*
X265149Y40702D01*
X265175Y40692D01*
X265195Y40674D01*
X265239Y40667D01*
X265279Y40652D01*
X265306Y40657D01*
G37*
G36*
X234984Y898863D02*
X234984Y898863D01*
X234990Y898869D01*
X234995Y898865D01*
X236225Y899230D01*
X236230Y899237D01*
X236235Y899235D01*
X237354Y899865D01*
X237357Y899872D01*
X237363Y899871D01*
X238313Y900734D01*
X238314Y900742D01*
X238320Y900742D01*
X239054Y901795D01*
X239054Y901803D01*
X239059Y901805D01*
X239541Y902995D01*
X239539Y903000D01*
X239543Y903003D01*
X239542Y903004D01*
X239544Y903005D01*
X239749Y904272D01*
X239746Y904277D01*
X239749Y904280D01*
X239749Y916280D01*
X239746Y916284D01*
X239749Y916287D01*
X239594Y917409D01*
X239589Y917414D01*
X239592Y917418D01*
X239221Y918489D01*
X239215Y918493D01*
X239217Y918498D01*
X238644Y919475D01*
X238638Y919478D01*
X238639Y919483D01*
X237886Y920330D01*
X237879Y920332D01*
X237879Y920337D01*
X236976Y921021D01*
X236969Y921021D01*
X236968Y921026D01*
X235949Y921521D01*
X235942Y921519D01*
X235940Y921524D01*
X234843Y921811D01*
X234837Y921808D01*
X234834Y921812D01*
X233703Y921879D01*
X233697Y921879D01*
X232566Y921812D01*
X232561Y921807D01*
X232557Y921811D01*
X231460Y921524D01*
X231456Y921518D01*
X231451Y921521D01*
X230432Y921026D01*
X230429Y921020D01*
X230424Y921021D01*
X229521Y920337D01*
X229519Y920330D01*
X229514Y920330D01*
X228761Y919483D01*
X228761Y919476D01*
X228756Y919475D01*
X228183Y918498D01*
X228184Y918495D01*
X228183Y918494D01*
X228184Y918493D01*
X228184Y918491D01*
X228179Y918489D01*
X227808Y917418D01*
X227810Y917413D01*
X227807Y917411D01*
X227807Y917410D01*
X227806Y917409D01*
X227651Y916287D01*
X227654Y916282D01*
X227651Y916280D01*
X227651Y904280D01*
X227654Y904275D01*
X227651Y904272D01*
X227856Y903005D01*
X227862Y902999D01*
X227859Y902995D01*
X228341Y901805D01*
X228348Y901801D01*
X228346Y901795D01*
X229080Y900742D01*
X229088Y900740D01*
X229087Y900734D01*
X230037Y899871D01*
X230046Y899870D01*
X230046Y899865D01*
X231165Y899235D01*
X231173Y899236D01*
X231175Y899230D01*
X232405Y898865D01*
X232413Y898868D01*
X232416Y898863D01*
X233697Y898781D01*
X233701Y898784D01*
X233703Y898781D01*
X234984Y898863D01*
G37*
G36*
X915664Y898863D02*
X915664Y898863D01*
X915670Y898869D01*
X915675Y898865D01*
X916905Y899230D01*
X916910Y899237D01*
X916915Y899235D01*
X918034Y899865D01*
X918037Y899872D01*
X918043Y899871D01*
X918993Y900734D01*
X918994Y900742D01*
X919000Y900742D01*
X919734Y901795D01*
X919734Y901803D01*
X919739Y901805D01*
X920221Y902995D01*
X920219Y903000D01*
X920223Y903003D01*
X920222Y903004D01*
X920224Y903005D01*
X920429Y904272D01*
X920426Y904277D01*
X920429Y904280D01*
X920429Y916280D01*
X920426Y916284D01*
X920429Y916287D01*
X920274Y917409D01*
X920269Y917414D01*
X920272Y917418D01*
X919901Y918489D01*
X919895Y918493D01*
X919897Y918498D01*
X919324Y919475D01*
X919318Y919478D01*
X919319Y919483D01*
X918566Y920330D01*
X918559Y920332D01*
X918559Y920337D01*
X917656Y921021D01*
X917649Y921021D01*
X917648Y921026D01*
X916629Y921521D01*
X916622Y921519D01*
X916620Y921524D01*
X915523Y921811D01*
X915517Y921808D01*
X915514Y921812D01*
X914383Y921879D01*
X914377Y921879D01*
X913246Y921812D01*
X913241Y921807D01*
X913237Y921811D01*
X912140Y921524D01*
X912136Y921518D01*
X912131Y921521D01*
X911112Y921026D01*
X911109Y921020D01*
X911104Y921021D01*
X910201Y920337D01*
X910199Y920330D01*
X910194Y920330D01*
X909441Y919483D01*
X909441Y919476D01*
X909436Y919475D01*
X908863Y918498D01*
X908864Y918495D01*
X908863Y918494D01*
X908864Y918493D01*
X908864Y918491D01*
X908859Y918489D01*
X908488Y917418D01*
X908490Y917413D01*
X908487Y917411D01*
X908487Y917410D01*
X908486Y917409D01*
X908331Y916287D01*
X908334Y916282D01*
X908331Y916280D01*
X908331Y904280D01*
X908334Y904275D01*
X908331Y904272D01*
X908536Y903005D01*
X908542Y902999D01*
X908539Y902995D01*
X909021Y901805D01*
X909028Y901801D01*
X909026Y901795D01*
X909760Y900742D01*
X909768Y900740D01*
X909767Y900734D01*
X910717Y899871D01*
X910726Y899870D01*
X910726Y899865D01*
X911845Y899235D01*
X911853Y899236D01*
X911855Y899230D01*
X913085Y898865D01*
X913093Y898868D01*
X913096Y898863D01*
X914377Y898781D01*
X914381Y898784D01*
X914383Y898781D01*
X915664Y898863D01*
G37*
G36*
X148584Y898863D02*
X148584Y898863D01*
X148590Y898869D01*
X148595Y898865D01*
X149825Y899230D01*
X149830Y899237D01*
X149835Y899235D01*
X150954Y899865D01*
X150957Y899872D01*
X150963Y899871D01*
X151913Y900734D01*
X151914Y900742D01*
X151920Y900742D01*
X152654Y901795D01*
X152654Y901803D01*
X152659Y901805D01*
X153141Y902995D01*
X153139Y903000D01*
X153143Y903003D01*
X153142Y903004D01*
X153144Y903005D01*
X153349Y904272D01*
X153346Y904277D01*
X153349Y904280D01*
X153349Y916280D01*
X153346Y916284D01*
X153349Y916287D01*
X153194Y917409D01*
X153189Y917414D01*
X153192Y917418D01*
X152821Y918489D01*
X152815Y918493D01*
X152817Y918498D01*
X152244Y919475D01*
X152238Y919478D01*
X152239Y919483D01*
X151486Y920330D01*
X151479Y920332D01*
X151479Y920337D01*
X150576Y921021D01*
X150569Y921021D01*
X150568Y921026D01*
X149549Y921521D01*
X149542Y921519D01*
X149540Y921524D01*
X148443Y921811D01*
X148437Y921808D01*
X148434Y921812D01*
X147303Y921879D01*
X147297Y921879D01*
X146166Y921812D01*
X146161Y921807D01*
X146157Y921811D01*
X145060Y921524D01*
X145056Y921518D01*
X145051Y921521D01*
X144032Y921026D01*
X144029Y921020D01*
X144024Y921021D01*
X143121Y920337D01*
X143119Y920330D01*
X143114Y920330D01*
X142361Y919483D01*
X142361Y919476D01*
X142356Y919475D01*
X141783Y918498D01*
X141784Y918495D01*
X141783Y918494D01*
X141784Y918493D01*
X141784Y918491D01*
X141779Y918489D01*
X141408Y917418D01*
X141410Y917413D01*
X141407Y917411D01*
X141407Y917410D01*
X141406Y917409D01*
X141251Y916287D01*
X141254Y916282D01*
X141251Y916280D01*
X141251Y904280D01*
X141254Y904275D01*
X141251Y904272D01*
X141456Y903005D01*
X141462Y902999D01*
X141459Y902995D01*
X141941Y901805D01*
X141948Y901801D01*
X141946Y901795D01*
X142680Y900742D01*
X142688Y900740D01*
X142687Y900734D01*
X143637Y899871D01*
X143646Y899870D01*
X143646Y899865D01*
X144765Y899235D01*
X144773Y899236D01*
X144775Y899230D01*
X146005Y898865D01*
X146013Y898868D01*
X146016Y898863D01*
X147297Y898781D01*
X147301Y898784D01*
X147303Y898781D01*
X148584Y898863D01*
G37*
G36*
X1002064Y898863D02*
X1002064Y898863D01*
X1002070Y898869D01*
X1002075Y898865D01*
X1003305Y899230D01*
X1003310Y899237D01*
X1003315Y899235D01*
X1004434Y899865D01*
X1004437Y899872D01*
X1004443Y899871D01*
X1005393Y900734D01*
X1005394Y900742D01*
X1005400Y900742D01*
X1006134Y901795D01*
X1006134Y901803D01*
X1006139Y901805D01*
X1006621Y902995D01*
X1006619Y903000D01*
X1006623Y903003D01*
X1006622Y903004D01*
X1006624Y903005D01*
X1006829Y904272D01*
X1006826Y904277D01*
X1006829Y904280D01*
X1006829Y916280D01*
X1006826Y916284D01*
X1006829Y916287D01*
X1006674Y917409D01*
X1006669Y917414D01*
X1006672Y917418D01*
X1006301Y918489D01*
X1006295Y918493D01*
X1006297Y918498D01*
X1005724Y919475D01*
X1005718Y919478D01*
X1005719Y919483D01*
X1004966Y920330D01*
X1004959Y920332D01*
X1004959Y920337D01*
X1004056Y921021D01*
X1004049Y921021D01*
X1004048Y921026D01*
X1003029Y921521D01*
X1003022Y921519D01*
X1003020Y921524D01*
X1001923Y921811D01*
X1001917Y921808D01*
X1001914Y921812D01*
X1000783Y921879D01*
X1000777Y921879D01*
X999646Y921812D01*
X999641Y921807D01*
X999637Y921811D01*
X998540Y921524D01*
X998536Y921518D01*
X998531Y921521D01*
X997512Y921026D01*
X997509Y921020D01*
X997504Y921021D01*
X996601Y920337D01*
X996599Y920330D01*
X996594Y920330D01*
X995841Y919483D01*
X995841Y919476D01*
X995836Y919475D01*
X995263Y918498D01*
X995264Y918495D01*
X995263Y918494D01*
X995264Y918493D01*
X995264Y918491D01*
X995259Y918489D01*
X994888Y917418D01*
X994890Y917413D01*
X994887Y917411D01*
X994887Y917410D01*
X994886Y917409D01*
X994731Y916287D01*
X994734Y916282D01*
X994731Y916280D01*
X994731Y904280D01*
X994734Y904275D01*
X994731Y904272D01*
X994936Y903005D01*
X994942Y902999D01*
X994939Y902995D01*
X995421Y901805D01*
X995428Y901801D01*
X995426Y901795D01*
X996160Y900742D01*
X996168Y900740D01*
X996167Y900734D01*
X997117Y899871D01*
X997126Y899870D01*
X997126Y899865D01*
X998245Y899235D01*
X998253Y899236D01*
X998255Y899230D01*
X999485Y898865D01*
X999493Y898868D01*
X999496Y898863D01*
X1000777Y898781D01*
X1000781Y898784D01*
X1000783Y898781D01*
X1002064Y898863D01*
G37*
G36*
X1002064Y42883D02*
X1002064Y42883D01*
X1002070Y42889D01*
X1002075Y42885D01*
X1003305Y43250D01*
X1003310Y43257D01*
X1003315Y43255D01*
X1004434Y43885D01*
X1004437Y43892D01*
X1004443Y43891D01*
X1005393Y44754D01*
X1005394Y44762D01*
X1005400Y44762D01*
X1006134Y45815D01*
X1006134Y45823D01*
X1006139Y45825D01*
X1006621Y47015D01*
X1006619Y47020D01*
X1006623Y47023D01*
X1006622Y47024D01*
X1006624Y47025D01*
X1006829Y48292D01*
X1006826Y48297D01*
X1006829Y48300D01*
X1006829Y60300D01*
X1006826Y60304D01*
X1006829Y60307D01*
X1006674Y61429D01*
X1006669Y61434D01*
X1006672Y61438D01*
X1006301Y62509D01*
X1006295Y62513D01*
X1006297Y62518D01*
X1005724Y63495D01*
X1005718Y63498D01*
X1005719Y63503D01*
X1004966Y64350D01*
X1004959Y64352D01*
X1004959Y64357D01*
X1004056Y65041D01*
X1004049Y65041D01*
X1004048Y65046D01*
X1003029Y65541D01*
X1003022Y65539D01*
X1003020Y65544D01*
X1001923Y65831D01*
X1001917Y65828D01*
X1001914Y65832D01*
X1000783Y65899D01*
X1000777Y65899D01*
X999646Y65832D01*
X999641Y65827D01*
X999637Y65831D01*
X998540Y65544D01*
X998536Y65538D01*
X998531Y65541D01*
X997512Y65046D01*
X997509Y65040D01*
X997504Y65041D01*
X996601Y64357D01*
X996599Y64350D01*
X996594Y64350D01*
X995841Y63503D01*
X995841Y63496D01*
X995836Y63495D01*
X995263Y62518D01*
X995264Y62515D01*
X995263Y62514D01*
X995264Y62513D01*
X995264Y62511D01*
X995259Y62509D01*
X994888Y61438D01*
X994890Y61433D01*
X994887Y61431D01*
X994887Y61430D01*
X994886Y61429D01*
X994731Y60307D01*
X994734Y60302D01*
X994731Y60300D01*
X994731Y48300D01*
X994734Y48295D01*
X994731Y48292D01*
X994936Y47025D01*
X994942Y47019D01*
X994939Y47015D01*
X995421Y45825D01*
X995428Y45821D01*
X995426Y45815D01*
X996160Y44762D01*
X996168Y44760D01*
X996167Y44754D01*
X997117Y43891D01*
X997126Y43890D01*
X997126Y43885D01*
X998245Y43255D01*
X998253Y43256D01*
X998255Y43250D01*
X999485Y42885D01*
X999493Y42888D01*
X999496Y42883D01*
X1000777Y42801D01*
X1000781Y42804D01*
X1000783Y42801D01*
X1002064Y42883D01*
G37*
G36*
X234984Y42883D02*
X234984Y42883D01*
X234990Y42889D01*
X234995Y42885D01*
X236225Y43250D01*
X236230Y43257D01*
X236235Y43255D01*
X237354Y43885D01*
X237357Y43892D01*
X237363Y43891D01*
X238313Y44754D01*
X238314Y44762D01*
X238320Y44762D01*
X239054Y45815D01*
X239054Y45823D01*
X239059Y45825D01*
X239541Y47015D01*
X239539Y47020D01*
X239543Y47023D01*
X239542Y47024D01*
X239544Y47025D01*
X239749Y48292D01*
X239746Y48297D01*
X239749Y48300D01*
X239749Y60300D01*
X239746Y60304D01*
X239749Y60307D01*
X239594Y61429D01*
X239589Y61434D01*
X239592Y61438D01*
X239221Y62509D01*
X239215Y62513D01*
X239217Y62518D01*
X238644Y63495D01*
X238638Y63498D01*
X238639Y63503D01*
X237886Y64350D01*
X237879Y64352D01*
X237879Y64357D01*
X236976Y65041D01*
X236969Y65041D01*
X236968Y65046D01*
X235949Y65541D01*
X235942Y65539D01*
X235940Y65544D01*
X234843Y65831D01*
X234837Y65828D01*
X234834Y65832D01*
X233703Y65899D01*
X233697Y65899D01*
X232566Y65832D01*
X232561Y65827D01*
X232557Y65831D01*
X231460Y65544D01*
X231456Y65538D01*
X231451Y65541D01*
X230432Y65046D01*
X230429Y65040D01*
X230424Y65041D01*
X229521Y64357D01*
X229519Y64350D01*
X229514Y64350D01*
X228761Y63503D01*
X228761Y63496D01*
X228756Y63495D01*
X228183Y62518D01*
X228184Y62515D01*
X228183Y62514D01*
X228184Y62513D01*
X228184Y62511D01*
X228179Y62509D01*
X227808Y61438D01*
X227810Y61433D01*
X227807Y61431D01*
X227807Y61430D01*
X227806Y61429D01*
X227651Y60307D01*
X227654Y60302D01*
X227651Y60300D01*
X227651Y48300D01*
X227654Y48295D01*
X227651Y48292D01*
X227856Y47025D01*
X227862Y47019D01*
X227859Y47015D01*
X228341Y45825D01*
X228348Y45821D01*
X228346Y45815D01*
X229080Y44762D01*
X229088Y44760D01*
X229087Y44754D01*
X230037Y43891D01*
X230046Y43890D01*
X230046Y43885D01*
X231165Y43255D01*
X231173Y43256D01*
X231175Y43250D01*
X232405Y42885D01*
X232413Y42888D01*
X232416Y42883D01*
X233697Y42801D01*
X233701Y42804D01*
X233703Y42801D01*
X234984Y42883D01*
G37*
G36*
X148584Y42883D02*
X148584Y42883D01*
X148590Y42889D01*
X148595Y42885D01*
X149825Y43250D01*
X149830Y43257D01*
X149835Y43255D01*
X150954Y43885D01*
X150957Y43892D01*
X150963Y43891D01*
X151913Y44754D01*
X151914Y44762D01*
X151920Y44762D01*
X152654Y45815D01*
X152654Y45823D01*
X152659Y45825D01*
X153141Y47015D01*
X153139Y47020D01*
X153143Y47023D01*
X153142Y47024D01*
X153144Y47025D01*
X153349Y48292D01*
X153346Y48297D01*
X153349Y48300D01*
X153349Y60300D01*
X153346Y60304D01*
X153349Y60307D01*
X153194Y61429D01*
X153189Y61434D01*
X153192Y61438D01*
X152821Y62509D01*
X152815Y62513D01*
X152817Y62518D01*
X152244Y63495D01*
X152238Y63498D01*
X152239Y63503D01*
X151486Y64350D01*
X151479Y64352D01*
X151479Y64357D01*
X150576Y65041D01*
X150569Y65041D01*
X150568Y65046D01*
X149549Y65541D01*
X149542Y65539D01*
X149540Y65544D01*
X148443Y65831D01*
X148437Y65828D01*
X148434Y65832D01*
X147303Y65899D01*
X147297Y65899D01*
X146166Y65832D01*
X146161Y65827D01*
X146157Y65831D01*
X145060Y65544D01*
X145056Y65538D01*
X145051Y65541D01*
X144032Y65046D01*
X144029Y65040D01*
X144024Y65041D01*
X143121Y64357D01*
X143119Y64350D01*
X143114Y64350D01*
X142361Y63503D01*
X142361Y63496D01*
X142356Y63495D01*
X141783Y62518D01*
X141784Y62515D01*
X141783Y62514D01*
X141784Y62513D01*
X141784Y62511D01*
X141779Y62509D01*
X141408Y61438D01*
X141410Y61433D01*
X141407Y61431D01*
X141407Y61430D01*
X141406Y61429D01*
X141251Y60307D01*
X141254Y60302D01*
X141251Y60300D01*
X141251Y48300D01*
X141254Y48295D01*
X141251Y48292D01*
X141456Y47025D01*
X141462Y47019D01*
X141459Y47015D01*
X141941Y45825D01*
X141948Y45821D01*
X141946Y45815D01*
X142680Y44762D01*
X142688Y44760D01*
X142687Y44754D01*
X143637Y43891D01*
X143646Y43890D01*
X143646Y43885D01*
X144765Y43255D01*
X144773Y43256D01*
X144775Y43250D01*
X146005Y42885D01*
X146013Y42888D01*
X146016Y42883D01*
X147297Y42801D01*
X147301Y42804D01*
X147303Y42801D01*
X148584Y42883D01*
G37*
G36*
X915664Y42883D02*
X915664Y42883D01*
X915670Y42889D01*
X915675Y42885D01*
X916905Y43250D01*
X916910Y43257D01*
X916915Y43255D01*
X918034Y43885D01*
X918037Y43892D01*
X918043Y43891D01*
X918993Y44754D01*
X918994Y44762D01*
X919000Y44762D01*
X919734Y45815D01*
X919734Y45823D01*
X919739Y45825D01*
X920221Y47015D01*
X920219Y47020D01*
X920223Y47023D01*
X920222Y47024D01*
X920224Y47025D01*
X920429Y48292D01*
X920426Y48297D01*
X920429Y48300D01*
X920429Y60300D01*
X920426Y60304D01*
X920429Y60307D01*
X920274Y61429D01*
X920269Y61434D01*
X920272Y61438D01*
X919901Y62509D01*
X919895Y62513D01*
X919897Y62518D01*
X919324Y63495D01*
X919318Y63498D01*
X919319Y63503D01*
X918566Y64350D01*
X918559Y64352D01*
X918559Y64357D01*
X917656Y65041D01*
X917649Y65041D01*
X917648Y65046D01*
X916629Y65541D01*
X916622Y65539D01*
X916620Y65544D01*
X915523Y65831D01*
X915517Y65828D01*
X915514Y65832D01*
X914383Y65899D01*
X914377Y65899D01*
X913246Y65832D01*
X913241Y65827D01*
X913237Y65831D01*
X912140Y65544D01*
X912136Y65538D01*
X912131Y65541D01*
X911112Y65046D01*
X911109Y65040D01*
X911104Y65041D01*
X910201Y64357D01*
X910199Y64350D01*
X910194Y64350D01*
X909441Y63503D01*
X909441Y63496D01*
X909436Y63495D01*
X908863Y62518D01*
X908864Y62515D01*
X908863Y62514D01*
X908864Y62513D01*
X908864Y62511D01*
X908859Y62509D01*
X908488Y61438D01*
X908490Y61433D01*
X908487Y61431D01*
X908487Y61430D01*
X908486Y61429D01*
X908331Y60307D01*
X908334Y60302D01*
X908331Y60300D01*
X908331Y48300D01*
X908334Y48295D01*
X908331Y48292D01*
X908536Y47025D01*
X908542Y47019D01*
X908539Y47015D01*
X909021Y45825D01*
X909028Y45821D01*
X909026Y45815D01*
X909760Y44762D01*
X909768Y44760D01*
X909767Y44754D01*
X910717Y43891D01*
X910726Y43890D01*
X910726Y43885D01*
X911845Y43255D01*
X911853Y43256D01*
X911855Y43250D01*
X913085Y42885D01*
X913093Y42888D01*
X913096Y42883D01*
X914377Y42801D01*
X914381Y42804D01*
X914383Y42801D01*
X915664Y42883D01*
G37*
G36*
X148471Y859591D02*
X148471Y859591D01*
X148476Y859596D01*
X148480Y859593D01*
X149603Y859928D01*
X149607Y859934D01*
X149611Y859932D01*
X150647Y860480D01*
X150650Y860486D01*
X150655Y860485D01*
X151563Y861224D01*
X151565Y861231D01*
X151570Y861231D01*
X152317Y862133D01*
X152317Y862141D01*
X152323Y862141D01*
X152879Y863172D01*
X152878Y863179D01*
X152883Y863181D01*
X153227Y864300D01*
X153225Y864307D01*
X153229Y864310D01*
X153349Y865475D01*
X153347Y865478D01*
X153349Y865480D01*
X153349Y871480D01*
X153347Y871483D01*
X153349Y871485D01*
X153238Y872661D01*
X153233Y872666D01*
X153236Y872670D01*
X152898Y873802D01*
X152892Y873806D01*
X152894Y873811D01*
X152342Y874855D01*
X152335Y874858D01*
X152337Y874863D01*
X151591Y875779D01*
X151584Y875780D01*
X151584Y875786D01*
X150675Y876539D01*
X150667Y876539D01*
X150667Y876544D01*
X149627Y877105D01*
X149620Y877104D01*
X149618Y877109D01*
X148489Y877456D01*
X148483Y877454D01*
X148480Y877458D01*
X147305Y877579D01*
X147298Y877575D01*
X147294Y877579D01*
X145954Y877422D01*
X145948Y877417D01*
X145943Y877420D01*
X144672Y876969D01*
X144667Y876962D01*
X144662Y876964D01*
X143523Y876242D01*
X143520Y876234D01*
X143514Y876235D01*
X142564Y875277D01*
X142563Y875269D01*
X142557Y875268D01*
X141844Y874123D01*
X141845Y874115D01*
X141839Y874113D01*
X141399Y872837D01*
X141401Y872830D01*
X141397Y872827D01*
X141251Y871485D01*
X141253Y871482D01*
X141251Y871480D01*
X141251Y865480D01*
X141253Y865477D01*
X141251Y865474D01*
X141406Y864145D01*
X141412Y864139D01*
X141409Y864135D01*
X141856Y862874D01*
X141863Y862869D01*
X141861Y862864D01*
X142578Y861734D01*
X142585Y861731D01*
X142584Y861725D01*
X143535Y860783D01*
X143543Y860782D01*
X143543Y860776D01*
X144679Y860069D01*
X144687Y860070D01*
X144689Y860064D01*
X145954Y859628D01*
X145959Y859629D01*
X145960Y859629D01*
X145963Y859629D01*
X145965Y859625D01*
X147295Y859481D01*
X147301Y859485D01*
X147305Y859481D01*
X148471Y859591D01*
G37*
G36*
X1001951Y859591D02*
X1001951Y859591D01*
X1001956Y859596D01*
X1001960Y859593D01*
X1003083Y859928D01*
X1003087Y859934D01*
X1003091Y859932D01*
X1004127Y860480D01*
X1004130Y860486D01*
X1004135Y860485D01*
X1005043Y861224D01*
X1005045Y861231D01*
X1005050Y861231D01*
X1005797Y862133D01*
X1005797Y862141D01*
X1005803Y862141D01*
X1006359Y863172D01*
X1006358Y863179D01*
X1006363Y863181D01*
X1006707Y864300D01*
X1006705Y864307D01*
X1006709Y864310D01*
X1006829Y865475D01*
X1006827Y865478D01*
X1006829Y865480D01*
X1006829Y871480D01*
X1006827Y871483D01*
X1006829Y871485D01*
X1006718Y872661D01*
X1006713Y872666D01*
X1006716Y872670D01*
X1006378Y873802D01*
X1006372Y873806D01*
X1006374Y873811D01*
X1005822Y874855D01*
X1005815Y874858D01*
X1005817Y874863D01*
X1005071Y875779D01*
X1005064Y875780D01*
X1005064Y875786D01*
X1004155Y876539D01*
X1004147Y876539D01*
X1004147Y876544D01*
X1003107Y877105D01*
X1003100Y877104D01*
X1003098Y877109D01*
X1001969Y877456D01*
X1001963Y877454D01*
X1001960Y877458D01*
X1000785Y877579D01*
X1000778Y877575D01*
X1000774Y877579D01*
X999434Y877422D01*
X999428Y877417D01*
X999423Y877420D01*
X998152Y876969D01*
X998147Y876962D01*
X998142Y876964D01*
X997003Y876242D01*
X997000Y876234D01*
X996994Y876235D01*
X996044Y875277D01*
X996043Y875269D01*
X996037Y875268D01*
X995324Y874123D01*
X995325Y874115D01*
X995319Y874113D01*
X994879Y872837D01*
X994881Y872830D01*
X994877Y872827D01*
X994731Y871485D01*
X994733Y871482D01*
X994731Y871480D01*
X994731Y865480D01*
X994733Y865477D01*
X994731Y865474D01*
X994886Y864145D01*
X994892Y864139D01*
X994889Y864135D01*
X995336Y862874D01*
X995343Y862869D01*
X995341Y862864D01*
X996058Y861734D01*
X996065Y861731D01*
X996064Y861725D01*
X997015Y860783D01*
X997023Y860782D01*
X997023Y860776D01*
X998159Y860069D01*
X998167Y860070D01*
X998169Y860064D01*
X999434Y859628D01*
X999439Y859629D01*
X999440Y859629D01*
X999443Y859629D01*
X999445Y859625D01*
X1000775Y859481D01*
X1000781Y859485D01*
X1000785Y859481D01*
X1001951Y859591D01*
G37*
G36*
X915551Y859591D02*
X915551Y859591D01*
X915556Y859596D01*
X915560Y859593D01*
X916683Y859928D01*
X916687Y859934D01*
X916691Y859932D01*
X917727Y860480D01*
X917730Y860486D01*
X917735Y860485D01*
X918643Y861224D01*
X918645Y861231D01*
X918650Y861231D01*
X919397Y862133D01*
X919397Y862141D01*
X919403Y862141D01*
X919959Y863172D01*
X919958Y863179D01*
X919963Y863181D01*
X920307Y864300D01*
X920305Y864307D01*
X920309Y864310D01*
X920429Y865475D01*
X920427Y865478D01*
X920429Y865480D01*
X920429Y871480D01*
X920427Y871483D01*
X920429Y871485D01*
X920318Y872661D01*
X920313Y872666D01*
X920316Y872670D01*
X919978Y873802D01*
X919972Y873806D01*
X919974Y873811D01*
X919422Y874855D01*
X919415Y874858D01*
X919417Y874863D01*
X918671Y875779D01*
X918664Y875780D01*
X918664Y875786D01*
X917755Y876539D01*
X917747Y876539D01*
X917747Y876544D01*
X916707Y877105D01*
X916700Y877104D01*
X916698Y877109D01*
X915569Y877456D01*
X915563Y877454D01*
X915560Y877458D01*
X914385Y877579D01*
X914378Y877575D01*
X914374Y877579D01*
X913034Y877422D01*
X913028Y877417D01*
X913023Y877420D01*
X911752Y876969D01*
X911747Y876962D01*
X911742Y876964D01*
X910603Y876242D01*
X910600Y876234D01*
X910594Y876235D01*
X909644Y875277D01*
X909643Y875269D01*
X909637Y875268D01*
X908924Y874123D01*
X908925Y874115D01*
X908919Y874113D01*
X908479Y872837D01*
X908481Y872830D01*
X908477Y872827D01*
X908331Y871485D01*
X908333Y871482D01*
X908331Y871480D01*
X908331Y865480D01*
X908333Y865477D01*
X908331Y865474D01*
X908486Y864145D01*
X908492Y864139D01*
X908489Y864135D01*
X908936Y862874D01*
X908943Y862869D01*
X908941Y862864D01*
X909658Y861734D01*
X909665Y861731D01*
X909664Y861725D01*
X910615Y860783D01*
X910623Y860782D01*
X910623Y860776D01*
X911759Y860069D01*
X911767Y860070D01*
X911769Y860064D01*
X913034Y859628D01*
X913039Y859629D01*
X913040Y859629D01*
X913043Y859629D01*
X913045Y859625D01*
X914375Y859481D01*
X914381Y859485D01*
X914385Y859481D01*
X915551Y859591D01*
G37*
G36*
X234871Y859591D02*
X234871Y859591D01*
X234876Y859596D01*
X234880Y859593D01*
X236003Y859928D01*
X236007Y859934D01*
X236011Y859932D01*
X237047Y860480D01*
X237050Y860486D01*
X237055Y860485D01*
X237963Y861224D01*
X237965Y861231D01*
X237970Y861231D01*
X238717Y862133D01*
X238717Y862141D01*
X238723Y862141D01*
X239279Y863172D01*
X239278Y863179D01*
X239283Y863181D01*
X239627Y864300D01*
X239625Y864307D01*
X239629Y864310D01*
X239749Y865475D01*
X239747Y865478D01*
X239749Y865480D01*
X239749Y871480D01*
X239747Y871483D01*
X239749Y871485D01*
X239638Y872661D01*
X239633Y872666D01*
X239636Y872670D01*
X239298Y873802D01*
X239292Y873806D01*
X239294Y873811D01*
X238742Y874855D01*
X238735Y874858D01*
X238737Y874863D01*
X237991Y875779D01*
X237984Y875780D01*
X237984Y875786D01*
X237075Y876539D01*
X237067Y876539D01*
X237067Y876544D01*
X236027Y877105D01*
X236020Y877104D01*
X236018Y877109D01*
X234889Y877456D01*
X234883Y877454D01*
X234880Y877458D01*
X233705Y877579D01*
X233698Y877575D01*
X233694Y877579D01*
X232354Y877422D01*
X232348Y877417D01*
X232343Y877420D01*
X231072Y876969D01*
X231067Y876962D01*
X231062Y876964D01*
X229923Y876242D01*
X229920Y876234D01*
X229914Y876235D01*
X228964Y875277D01*
X228963Y875269D01*
X228957Y875268D01*
X228244Y874123D01*
X228245Y874115D01*
X228239Y874113D01*
X227799Y872837D01*
X227801Y872830D01*
X227797Y872827D01*
X227651Y871485D01*
X227653Y871482D01*
X227651Y871480D01*
X227651Y865480D01*
X227653Y865477D01*
X227651Y865474D01*
X227806Y864145D01*
X227812Y864139D01*
X227809Y864135D01*
X228256Y862874D01*
X228263Y862869D01*
X228261Y862864D01*
X228978Y861734D01*
X228985Y861731D01*
X228984Y861725D01*
X229935Y860783D01*
X229943Y860782D01*
X229943Y860776D01*
X231079Y860069D01*
X231087Y860070D01*
X231089Y860064D01*
X232354Y859628D01*
X232359Y859629D01*
X232360Y859629D01*
X232363Y859629D01*
X232365Y859625D01*
X233695Y859481D01*
X233701Y859485D01*
X233705Y859481D01*
X234871Y859591D01*
G37*
G36*
X148471Y3611D02*
X148471Y3611D01*
X148476Y3616D01*
X148480Y3613D01*
X149603Y3948D01*
X149607Y3954D01*
X149611Y3952D01*
X150647Y4500D01*
X150650Y4506D01*
X150655Y4505D01*
X151563Y5244D01*
X151565Y5251D01*
X151570Y5251D01*
X152317Y6153D01*
X152317Y6161D01*
X152323Y6161D01*
X152879Y7192D01*
X152878Y7199D01*
X152883Y7201D01*
X153227Y8320D01*
X153225Y8327D01*
X153229Y8330D01*
X153349Y9495D01*
X153347Y9498D01*
X153349Y9500D01*
X153349Y15500D01*
X153347Y15503D01*
X153349Y15505D01*
X153238Y16681D01*
X153233Y16686D01*
X153236Y16690D01*
X152898Y17822D01*
X152892Y17826D01*
X152894Y17831D01*
X152342Y18875D01*
X152335Y18878D01*
X152337Y18883D01*
X151591Y19799D01*
X151584Y19800D01*
X151584Y19806D01*
X150675Y20559D01*
X150667Y20559D01*
X150667Y20564D01*
X149627Y21125D01*
X149620Y21124D01*
X149618Y21129D01*
X148489Y21476D01*
X148483Y21474D01*
X148480Y21478D01*
X147305Y21599D01*
X147298Y21595D01*
X147294Y21599D01*
X145954Y21442D01*
X145948Y21437D01*
X145943Y21440D01*
X144672Y20989D01*
X144667Y20982D01*
X144662Y20984D01*
X143523Y20262D01*
X143520Y20254D01*
X143514Y20255D01*
X142564Y19297D01*
X142563Y19289D01*
X142557Y19288D01*
X141844Y18143D01*
X141845Y18135D01*
X141839Y18133D01*
X141399Y16857D01*
X141401Y16850D01*
X141397Y16847D01*
X141251Y15505D01*
X141253Y15502D01*
X141251Y15500D01*
X141251Y9500D01*
X141253Y9497D01*
X141251Y9494D01*
X141406Y8165D01*
X141412Y8159D01*
X141409Y8155D01*
X141856Y6894D01*
X141863Y6889D01*
X141861Y6884D01*
X142578Y5754D01*
X142585Y5751D01*
X142584Y5745D01*
X143535Y4803D01*
X143543Y4802D01*
X143543Y4796D01*
X144679Y4089D01*
X144687Y4090D01*
X144689Y4084D01*
X145954Y3648D01*
X145959Y3649D01*
X145960Y3649D01*
X145963Y3649D01*
X145965Y3645D01*
X147295Y3501D01*
X147301Y3505D01*
X147305Y3501D01*
X148471Y3611D01*
G37*
G36*
X915551Y3611D02*
X915551Y3611D01*
X915556Y3616D01*
X915560Y3613D01*
X916683Y3948D01*
X916687Y3954D01*
X916691Y3952D01*
X917727Y4500D01*
X917730Y4506D01*
X917735Y4505D01*
X918643Y5244D01*
X918645Y5251D01*
X918650Y5251D01*
X919397Y6153D01*
X919397Y6161D01*
X919403Y6161D01*
X919959Y7192D01*
X919958Y7199D01*
X919963Y7201D01*
X920307Y8320D01*
X920305Y8327D01*
X920309Y8330D01*
X920429Y9495D01*
X920427Y9498D01*
X920429Y9500D01*
X920429Y15500D01*
X920427Y15503D01*
X920429Y15505D01*
X920318Y16681D01*
X920313Y16686D01*
X920316Y16690D01*
X919978Y17822D01*
X919972Y17826D01*
X919974Y17831D01*
X919422Y18875D01*
X919415Y18878D01*
X919417Y18883D01*
X918671Y19799D01*
X918664Y19800D01*
X918664Y19806D01*
X917755Y20559D01*
X917747Y20559D01*
X917747Y20564D01*
X916707Y21125D01*
X916700Y21124D01*
X916698Y21129D01*
X915569Y21476D01*
X915563Y21474D01*
X915560Y21478D01*
X914385Y21599D01*
X914378Y21595D01*
X914374Y21599D01*
X913034Y21442D01*
X913028Y21437D01*
X913023Y21440D01*
X911752Y20989D01*
X911747Y20982D01*
X911742Y20984D01*
X910603Y20262D01*
X910600Y20254D01*
X910594Y20255D01*
X909644Y19297D01*
X909643Y19289D01*
X909637Y19288D01*
X908924Y18143D01*
X908925Y18135D01*
X908919Y18133D01*
X908479Y16857D01*
X908481Y16850D01*
X908477Y16847D01*
X908331Y15505D01*
X908333Y15502D01*
X908331Y15500D01*
X908331Y9500D01*
X908333Y9497D01*
X908331Y9494D01*
X908486Y8165D01*
X908492Y8159D01*
X908489Y8155D01*
X908936Y6894D01*
X908943Y6889D01*
X908941Y6884D01*
X909658Y5754D01*
X909665Y5751D01*
X909664Y5745D01*
X910615Y4803D01*
X910623Y4802D01*
X910623Y4796D01*
X911759Y4089D01*
X911767Y4090D01*
X911769Y4084D01*
X913034Y3648D01*
X913039Y3649D01*
X913040Y3649D01*
X913043Y3649D01*
X913045Y3645D01*
X914375Y3501D01*
X914381Y3505D01*
X914385Y3501D01*
X915551Y3611D01*
G37*
G36*
X234871Y3611D02*
X234871Y3611D01*
X234876Y3616D01*
X234880Y3613D01*
X236003Y3948D01*
X236007Y3954D01*
X236011Y3952D01*
X237047Y4500D01*
X237050Y4506D01*
X237055Y4505D01*
X237963Y5244D01*
X237965Y5251D01*
X237970Y5251D01*
X238717Y6153D01*
X238717Y6161D01*
X238723Y6161D01*
X239279Y7192D01*
X239278Y7199D01*
X239283Y7201D01*
X239627Y8320D01*
X239625Y8327D01*
X239629Y8330D01*
X239749Y9495D01*
X239747Y9498D01*
X239749Y9500D01*
X239749Y15500D01*
X239747Y15503D01*
X239749Y15505D01*
X239638Y16681D01*
X239633Y16686D01*
X239636Y16690D01*
X239298Y17822D01*
X239292Y17826D01*
X239294Y17831D01*
X238742Y18875D01*
X238735Y18878D01*
X238737Y18883D01*
X237991Y19799D01*
X237984Y19800D01*
X237984Y19806D01*
X237075Y20559D01*
X237067Y20559D01*
X237067Y20564D01*
X236027Y21125D01*
X236020Y21124D01*
X236018Y21129D01*
X234889Y21476D01*
X234883Y21474D01*
X234880Y21478D01*
X233705Y21599D01*
X233698Y21595D01*
X233694Y21599D01*
X232354Y21442D01*
X232348Y21437D01*
X232343Y21440D01*
X231072Y20989D01*
X231067Y20982D01*
X231062Y20984D01*
X229923Y20262D01*
X229920Y20254D01*
X229914Y20255D01*
X228964Y19297D01*
X228963Y19289D01*
X228957Y19288D01*
X228244Y18143D01*
X228245Y18135D01*
X228239Y18133D01*
X227799Y16857D01*
X227801Y16850D01*
X227797Y16847D01*
X227651Y15505D01*
X227653Y15502D01*
X227651Y15500D01*
X227651Y9500D01*
X227653Y9497D01*
X227651Y9494D01*
X227806Y8165D01*
X227812Y8159D01*
X227809Y8155D01*
X228256Y6894D01*
X228263Y6889D01*
X228261Y6884D01*
X228978Y5754D01*
X228985Y5751D01*
X228984Y5745D01*
X229935Y4803D01*
X229943Y4802D01*
X229943Y4796D01*
X231079Y4089D01*
X231087Y4090D01*
X231089Y4084D01*
X232354Y3648D01*
X232359Y3649D01*
X232360Y3649D01*
X232363Y3649D01*
X232365Y3645D01*
X233695Y3501D01*
X233701Y3505D01*
X233705Y3501D01*
X234871Y3611D01*
G37*
G36*
X1001951Y3611D02*
X1001951Y3611D01*
X1001956Y3616D01*
X1001960Y3613D01*
X1003083Y3948D01*
X1003087Y3954D01*
X1003091Y3952D01*
X1004127Y4500D01*
X1004130Y4506D01*
X1004135Y4505D01*
X1005043Y5244D01*
X1005045Y5251D01*
X1005050Y5251D01*
X1005797Y6153D01*
X1005797Y6161D01*
X1005803Y6161D01*
X1006359Y7192D01*
X1006358Y7199D01*
X1006363Y7201D01*
X1006707Y8320D01*
X1006705Y8327D01*
X1006709Y8330D01*
X1006829Y9495D01*
X1006827Y9498D01*
X1006829Y9500D01*
X1006829Y15500D01*
X1006827Y15503D01*
X1006829Y15505D01*
X1006718Y16681D01*
X1006713Y16686D01*
X1006716Y16690D01*
X1006378Y17822D01*
X1006372Y17826D01*
X1006374Y17831D01*
X1005822Y18875D01*
X1005815Y18878D01*
X1005817Y18883D01*
X1005071Y19799D01*
X1005064Y19800D01*
X1005064Y19806D01*
X1004155Y20559D01*
X1004147Y20559D01*
X1004147Y20564D01*
X1003107Y21125D01*
X1003100Y21124D01*
X1003098Y21129D01*
X1001969Y21476D01*
X1001963Y21474D01*
X1001960Y21478D01*
X1000785Y21599D01*
X1000778Y21595D01*
X1000774Y21599D01*
X999434Y21442D01*
X999428Y21437D01*
X999423Y21440D01*
X998152Y20989D01*
X998147Y20982D01*
X998142Y20984D01*
X997003Y20262D01*
X997000Y20254D01*
X996994Y20255D01*
X996044Y19297D01*
X996043Y19289D01*
X996037Y19288D01*
X995324Y18143D01*
X995325Y18135D01*
X995319Y18133D01*
X994879Y16857D01*
X994881Y16850D01*
X994877Y16847D01*
X994731Y15505D01*
X994733Y15502D01*
X994731Y15500D01*
X994731Y9500D01*
X994733Y9497D01*
X994731Y9494D01*
X994886Y8165D01*
X994892Y8159D01*
X994889Y8155D01*
X995336Y6894D01*
X995343Y6889D01*
X995341Y6884D01*
X996058Y5754D01*
X996065Y5751D01*
X996064Y5745D01*
X997015Y4803D01*
X997023Y4802D01*
X997023Y4796D01*
X998159Y4089D01*
X998167Y4090D01*
X998169Y4084D01*
X999434Y3648D01*
X999439Y3649D01*
X999440Y3649D01*
X999443Y3649D01*
X999445Y3645D01*
X1000775Y3501D01*
X1000781Y3505D01*
X1000785Y3501D01*
X1001951Y3611D01*
G37*
D10*
X198000Y60100D03*
X193000Y60100D03*
D11*
X222750Y60100D03*
X215000Y60100D03*
D10*
X208000Y60100D03*
X203000Y60100D03*
X183000Y60100D03*
X188000Y60100D03*
D11*
X158250Y60100D03*
X166000Y60100D03*
D10*
X173000Y60100D03*
X178000Y60100D03*
D12*
X161600Y49050D03*
X219400Y49050D03*
D13*
X156600Y76200D03*
X173600Y76200D03*
X224400Y76200D03*
X207400Y76200D03*
D14*
X204250Y91850D03*
X204250Y98350D03*
X204250Y104850D03*
X204250Y111350D03*
X176750Y111350D03*
X176750Y104850D03*
X176750Y98350D03*
X176750Y91850D03*
D15*
X190500Y101600D03*
D16*
X152400Y93100D03*
X152400Y110100D03*
D17*
X7620Y7620D03*
X754380Y755650D03*
D18*
X605900Y396700D03*
D19*
X596900Y383700D03*
D18*
X605900Y406700D03*
X587900Y406700D03*
X587900Y396700D03*
D20*
X590275Y383700D02*
X590277Y383863D01*
X590283Y384025D01*
X590293Y384187D01*
X590307Y384349D01*
X590325Y384511D01*
X590347Y384672D01*
X590373Y384833D01*
X590402Y384992D01*
X590436Y385152D01*
X590474Y385310D01*
X590515Y385467D01*
X590560Y385623D01*
X590609Y385778D01*
X590662Y385932D01*
X590719Y386084D01*
X590779Y386235D01*
X590843Y386385D01*
X590911Y386533D01*
X590982Y386679D01*
X591057Y386823D01*
X591136Y386965D01*
X591218Y387106D01*
X591303Y387244D01*
X591392Y387381D01*
X591484Y387515D01*
X591579Y387647D01*
X591677Y387776D01*
X591779Y387903D01*
X591883Y388027D01*
X591991Y388149D01*
X592102Y388268D01*
X592215Y388385D01*
X592332Y388498D01*
X592451Y388609D01*
X592573Y388717D01*
X592697Y388821D01*
X592824Y388923D01*
X592953Y389021D01*
X593085Y389116D01*
X593219Y389208D01*
X593356Y389297D01*
X593494Y389382D01*
X593635Y389464D01*
X593777Y389543D01*
X593921Y389618D01*
X594067Y389689D01*
X594215Y389757D01*
X594365Y389821D01*
X594516Y389881D01*
X594668Y389938D01*
X594822Y389991D01*
X594977Y390040D01*
X595133Y390085D01*
X595290Y390126D01*
X595448Y390164D01*
X595608Y390198D01*
X595767Y390227D01*
X595928Y390253D01*
X596089Y390275D01*
X596251Y390293D01*
X596413Y390307D01*
X596575Y390317D01*
X596737Y390323D01*
X596900Y390325D01*
X597063Y390323D01*
X597225Y390317D01*
X597387Y390307D01*
X597549Y390293D01*
X597711Y390275D01*
X597872Y390253D01*
X598033Y390227D01*
X598192Y390198D01*
X598352Y390164D01*
X598510Y390126D01*
X598667Y390085D01*
X598823Y390040D01*
X598978Y389991D01*
X599132Y389938D01*
X599284Y389881D01*
X599435Y389821D01*
X599585Y389757D01*
X599733Y389689D01*
X599879Y389618D01*
X600023Y389543D01*
X600165Y389464D01*
X600306Y389382D01*
X600444Y389297D01*
X600581Y389208D01*
X600715Y389116D01*
X600847Y389021D01*
X600976Y388923D01*
X601103Y388821D01*
X601227Y388717D01*
X601349Y388609D01*
X601468Y388498D01*
X601585Y388385D01*
X601698Y388268D01*
X601809Y388149D01*
X601917Y388027D01*
X602021Y387903D01*
X602123Y387776D01*
X602221Y387647D01*
X602316Y387515D01*
X602408Y387381D01*
X602497Y387244D01*
X602582Y387106D01*
X602664Y386965D01*
X602743Y386823D01*
X602818Y386679D01*
X602889Y386533D01*
X602957Y386385D01*
X603021Y386235D01*
X603081Y386084D01*
X603138Y385932D01*
X603191Y385778D01*
X603240Y385623D01*
X603285Y385467D01*
X603326Y385310D01*
X603364Y385152D01*
X603398Y384992D01*
X603427Y384833D01*
X603453Y384672D01*
X603475Y384511D01*
X603493Y384349D01*
X603507Y384187D01*
X603517Y384025D01*
X603523Y383863D01*
X603525Y383700D01*
X603523Y383537D01*
X603517Y383375D01*
X603507Y383213D01*
X603493Y383051D01*
X603475Y382889D01*
X603453Y382728D01*
X603427Y382567D01*
X603398Y382408D01*
X603364Y382248D01*
X603326Y382090D01*
X603285Y381933D01*
X603240Y381777D01*
X603191Y381622D01*
X603138Y381468D01*
X603081Y381316D01*
X603021Y381165D01*
X602957Y381015D01*
X602889Y380867D01*
X602818Y380721D01*
X602743Y380577D01*
X602664Y380435D01*
X602582Y380294D01*
X602497Y380156D01*
X602408Y380019D01*
X602316Y379885D01*
X602221Y379753D01*
X602123Y379624D01*
X602021Y379497D01*
X601917Y379373D01*
X601809Y379251D01*
X601698Y379132D01*
X601585Y379015D01*
X601468Y378902D01*
X601349Y378791D01*
X601227Y378683D01*
X601103Y378579D01*
X600976Y378477D01*
X600847Y378379D01*
X600715Y378284D01*
X600581Y378192D01*
X600444Y378103D01*
X600306Y378018D01*
X600165Y377936D01*
X600023Y377857D01*
X599879Y377782D01*
X599733Y377711D01*
X599585Y377643D01*
X599435Y377579D01*
X599284Y377519D01*
X599132Y377462D01*
X598978Y377409D01*
X598823Y377360D01*
X598667Y377315D01*
X598510Y377274D01*
X598352Y377236D01*
X598192Y377202D01*
X598033Y377173D01*
X597872Y377147D01*
X597711Y377125D01*
X597549Y377107D01*
X597387Y377093D01*
X597225Y377083D01*
X597063Y377077D01*
X596900Y377075D01*
X596737Y377077D01*
X596575Y377083D01*
X596413Y377093D01*
X596251Y377107D01*
X596089Y377125D01*
X595928Y377147D01*
X595767Y377173D01*
X595608Y377202D01*
X595448Y377236D01*
X595290Y377274D01*
X595133Y377315D01*
X594977Y377360D01*
X594822Y377409D01*
X594668Y377462D01*
X594516Y377519D01*
X594365Y377579D01*
X594215Y377643D01*
X594067Y377711D01*
X593921Y377782D01*
X593777Y377857D01*
X593635Y377936D01*
X593494Y378018D01*
X593356Y378103D01*
X593219Y378192D01*
X593085Y378284D01*
X592953Y378379D01*
X592824Y378477D01*
X592697Y378579D01*
X592573Y378683D01*
X592451Y378791D01*
X592332Y378902D01*
X592215Y379015D01*
X592102Y379132D01*
X591991Y379251D01*
X591883Y379373D01*
X591779Y379497D01*
X591677Y379624D01*
X591579Y379753D01*
X591484Y379885D01*
X591392Y380019D01*
X591303Y380156D01*
X591218Y380294D01*
X591136Y380435D01*
X591057Y380577D01*
X590982Y380721D01*
X590911Y380867D01*
X590843Y381015D01*
X590779Y381165D01*
X590719Y381316D01*
X590662Y381468D01*
X590609Y381622D01*
X590560Y381777D01*
X590515Y381933D01*
X590474Y382090D01*
X590436Y382248D01*
X590402Y382408D01*
X590373Y382567D01*
X590347Y382728D01*
X590325Y382889D01*
X590307Y383051D01*
X590293Y383213D01*
X590283Y383375D01*
X590277Y383537D01*
X590275Y383700D01*
D21*
X596900Y377200D03*
D22*
X590400Y383700D03*
X603400Y383700D03*
D21*
X596900Y390200D03*
D16*
X565150Y402200D03*
X565150Y385200D03*
D23*
X736600Y736600D03*
X25400Y736600D03*
X736600Y25400D03*
X25400Y25400D03*
D16*
X469900Y97400D03*
X469900Y80400D03*
D24*
X310600Y44100D03*
D25*
X290900Y93980D03*
X267900Y93980D03*
D13*
X270900Y76200D03*
X287900Y76200D03*
X668900Y457200D03*
X651900Y457200D03*
X668900Y431800D03*
X651900Y431800D03*
D26*
X19050Y238760D03*
X19050Y294640D03*
X57150Y238760D03*
X57150Y294640D03*
D16*
X137160Y93100D03*
X137160Y110100D03*
D27*
X114300Y23100D03*
X114300Y53100D03*
D28*
X114300Y102900D03*
X114300Y74900D03*
D13*
X152010Y148590D03*
X135010Y148590D03*
X135010Y133350D03*
X152010Y133350D03*
D29*
X223520Y143510D03*
X248920Y143510D03*
D30*
X317500Y184150D03*
X304800Y184150D03*
X292100Y184150D03*
X279400Y184150D03*
X330200Y184150D03*
X317500Y171450D03*
X304800Y171450D03*
X292100Y171450D03*
X279400Y171450D03*
X330200Y171450D03*
D26*
X82550Y238760D03*
X82550Y294640D03*
X120650Y238760D03*
X120650Y294640D03*
D29*
X12700Y431800D03*
X12700Y406400D03*
X12700Y381000D03*
X12700Y355600D03*
X12700Y330200D03*
X723900Y279400D03*
X723900Y304800D03*
X723900Y330200D03*
X723900Y355600D03*
X723900Y381000D03*
X723900Y406400D03*
X749300Y279400D03*
X749300Y304800D03*
X749300Y330200D03*
X749300Y355600D03*
X749300Y381000D03*
X749300Y406400D03*
D31*
X579150Y173800D03*
X522150Y173800D03*
D32*
X506150Y42300D03*
X637650Y32300D03*
D33*
X591050Y70800D03*
X580050Y74800D03*
X569050Y70800D03*
X558050Y68800D03*
X547050Y70800D03*
X536050Y68800D03*
X525050Y70800D03*
X514050Y70800D03*
D29*
X749300Y508000D03*
X749300Y482600D03*
X749300Y457200D03*
X749300Y431800D03*
D34*
X518200Y277300D03*
D16*
X176530Y150740D03*
X176530Y133740D03*
D35*
X194310Y155010D03*
X194310Y132010D03*
D13*
X80400Y476250D03*
X97400Y476250D03*
D36*
X20120Y479740D02*
X20120Y472760D01*
X13140Y472760D01*
X13140Y479740D01*
X20120Y479740D01*
X20120Y477560D02*
X13140Y477560D01*
X37660Y479740D02*
X37660Y472760D01*
X30680Y472760D01*
X30680Y479740D01*
X37660Y479740D01*
X37660Y477560D02*
X30680Y477560D01*
D13*
X223910Y92710D03*
X240910Y92710D03*
X223910Y107950D03*
X240910Y107950D03*
X223910Y123190D03*
X240910Y123190D03*
D37*
X317500Y217500D03*
D38*
X317500Y417500D03*
D39*
X264750Y225000D03*
D40*
X272500Y214000D03*
X272500Y421000D03*
D39*
X340250Y227500D03*
X264750Y230000D03*
X340250Y232500D03*
X264750Y235000D03*
X340250Y237500D03*
X264750Y240000D03*
X340250Y242500D03*
X264750Y245000D03*
X340250Y247500D03*
X264750Y250000D03*
X340250Y252500D03*
X264750Y255000D03*
X340250Y257500D03*
X264750Y260000D03*
X340250Y262500D03*
X264750Y265000D03*
X340250Y267500D03*
X264750Y270000D03*
X340250Y272500D03*
X264750Y275000D03*
X340250Y277500D03*
X264750Y280000D03*
X340250Y302500D03*
X264750Y305000D03*
X340250Y307500D03*
X264750Y310000D03*
X340250Y312500D03*
X264750Y315000D03*
X340250Y317500D03*
X264750Y320000D03*
X340250Y322500D03*
X264750Y325000D03*
X340250Y327500D03*
X264750Y330000D03*
X340250Y332500D03*
X264750Y335000D03*
X340250Y337500D03*
X264750Y340000D03*
X340250Y342500D03*
X264750Y345000D03*
X340250Y347500D03*
X264750Y350000D03*
X340250Y352500D03*
X264750Y355000D03*
X340250Y357500D03*
X264750Y360000D03*
X340250Y362500D03*
X264750Y365000D03*
X340250Y367500D03*
X264750Y370000D03*
X340250Y372500D03*
X264750Y375000D03*
X340250Y377500D03*
X264750Y380000D03*
X340250Y382500D03*
X264750Y385000D03*
X340250Y387500D03*
X264750Y390000D03*
X340250Y392500D03*
X264750Y395000D03*
X340250Y397500D03*
X264750Y400000D03*
X340250Y402500D03*
X264750Y405000D03*
X340250Y407500D03*
X264750Y410000D03*
D41*
X288900Y130650D03*
X269900Y130650D03*
X279400Y109650D03*
D29*
X12700Y76200D03*
D13*
X80400Y457200D03*
X97400Y457200D03*
D36*
X20120Y460690D02*
X20120Y453710D01*
X13140Y453710D01*
X13140Y460690D01*
X20120Y460690D01*
X20120Y458510D02*
X13140Y458510D01*
X37660Y460690D02*
X37660Y453710D01*
X30680Y453710D01*
X30680Y460690D01*
X37660Y460690D01*
X37660Y458510D02*
X30680Y458510D01*
D42*
X747950Y86300D03*
X747950Y142300D03*
D43*
X711200Y99300D03*
X711200Y109300D03*
X711200Y119300D03*
X711200Y129300D03*
D16*
X666750Y143900D03*
X666750Y160900D03*
X692150Y143900D03*
X692150Y160900D03*
D29*
X749300Y254000D03*
X749300Y228600D03*
X749300Y203200D03*
X749300Y177800D03*
D16*
X82550Y205350D03*
X82550Y188350D03*
X101600Y205350D03*
X101600Y188350D03*
D33*
X271000Y552800D03*
X282000Y552800D03*
X293000Y552800D03*
X304000Y552800D03*
X315000Y552800D03*
X326000Y552800D03*
X337000Y552800D03*
X348000Y552800D03*
X359000Y552800D03*
X370000Y552800D03*
X381000Y552800D03*
X392000Y552800D03*
X403000Y552800D03*
X414000Y552800D03*
X425000Y552800D03*
X436000Y552800D03*
X447000Y552800D03*
X458000Y552800D03*
X469000Y552800D03*
X480000Y552800D03*
X491000Y552800D03*
D44*
X500500Y567300D03*
X500500Y578300D03*
X500500Y589300D03*
X500500Y600300D03*
X500500Y611300D03*
X500500Y622300D03*
X500500Y633300D03*
X500500Y644300D03*
X500500Y655300D03*
X500500Y666300D03*
X500500Y677300D03*
D33*
X491000Y691800D03*
X480000Y691800D03*
X469000Y691800D03*
X458000Y691800D03*
X447000Y691800D03*
X436000Y691800D03*
X425000Y691800D03*
X414000Y691800D03*
X403000Y691800D03*
X392000Y691800D03*
X381000Y691800D03*
X370000Y691800D03*
X359000Y691800D03*
X348000Y691800D03*
X337000Y691800D03*
X326000Y691800D03*
X315000Y691800D03*
X304000Y691800D03*
X293000Y691800D03*
X282000Y691800D03*
X271000Y691800D03*
D44*
X261500Y677300D03*
X261500Y666300D03*
X261500Y655300D03*
X261500Y644300D03*
X261500Y633300D03*
X261500Y622300D03*
X261500Y611300D03*
X261500Y600300D03*
X261500Y589300D03*
X261500Y578300D03*
X261500Y567300D03*
D45*
X278500Y569800D03*
X278500Y590800D03*
X278500Y611800D03*
X278500Y632800D03*
X278500Y653800D03*
X278500Y674800D03*
X296500Y569800D03*
X296500Y590800D03*
X296500Y611800D03*
X296500Y632800D03*
X296500Y653800D03*
X296500Y674800D03*
X314500Y569800D03*
X314500Y674800D03*
X350500Y569800D03*
X350500Y674800D03*
X483500Y674800D03*
X483500Y653800D03*
X483500Y632800D03*
X483500Y611800D03*
X483500Y590800D03*
X483500Y569800D03*
X465500Y674800D03*
X465500Y653800D03*
X465500Y632800D03*
X465500Y611800D03*
X465500Y590800D03*
X465500Y569800D03*
X447500Y674800D03*
X447500Y569800D03*
X411500Y674800D03*
X411500Y569800D03*
D46*
X396525Y371000D03*
D47*
X396000Y375000D03*
X396000Y379000D03*
X396000Y383000D03*
X396000Y387000D03*
D46*
X396525Y391000D03*
D48*
X391000Y396525D03*
D49*
X387000Y396000D03*
X383000Y396000D03*
X379000Y396000D03*
X375000Y396000D03*
D48*
X371000Y396525D03*
D46*
X365475Y391000D03*
D47*
X366000Y387000D03*
X366000Y383000D03*
X366000Y379000D03*
X366000Y375000D03*
D46*
X365475Y371000D03*
D48*
X371000Y365475D03*
D49*
X375000Y366000D03*
X379000Y366000D03*
X383000Y366000D03*
X387000Y366000D03*
D48*
X391000Y365475D03*
D50*
X392510Y371005D03*
D51*
X390995Y392510D03*
D50*
X369490Y390995D03*
D51*
X371005Y369490D03*
X390995Y369490D03*
D50*
X392510Y390995D03*
D51*
X371005Y392510D03*
D50*
X369490Y371005D03*
D13*
X372500Y422910D03*
X389500Y422910D03*
D16*
X412750Y389500D03*
X412750Y372500D03*
X431800Y389500D03*
X431800Y372500D03*
D52*
X457050Y372750D03*
X463550Y372750D03*
X470050Y372750D03*
X470050Y389250D03*
X457050Y389250D03*
D13*
X455050Y340360D03*
X472050Y340360D03*
D53*
X429690Y417750D03*
X429690Y407750D03*
X441190Y412750D03*
D16*
X412750Y405520D03*
X412750Y422520D03*
D54*
X122600Y727000D03*
D55*
X165100Y681000D03*
D54*
X207600Y727000D03*
X554400Y727000D03*
D55*
X596900Y681000D03*
D54*
X639400Y727000D03*
D56*
X367999Y174600D03*
X367999Y165100D03*
X367999Y155600D03*
X394001Y155600D03*
X394001Y174600D03*
D16*
X393700Y211700D03*
X393700Y194700D03*
D13*
X345050Y111760D03*
X328050Y111760D03*
D36*
X462480Y28890D02*
X462480Y21910D01*
X462480Y28890D02*
X469460Y28890D01*
X469460Y21910D01*
X462480Y21910D01*
X462480Y26710D02*
X469460Y26710D01*
X444940Y28890D02*
X444940Y21910D01*
X444940Y28890D02*
X451920Y28890D01*
X451920Y21910D01*
X444940Y21910D01*
X444940Y26710D02*
X451920Y26710D01*
D13*
X448700Y50800D03*
X465700Y50800D03*
D57*
X391000Y75100D03*
X371000Y75100D03*
D58*
X415000Y23100D03*
X347000Y23100D03*
D29*
X368300Y25400D03*
X393700Y25400D03*
D59*
X629650Y615950D03*
X629650Y603250D03*
X629650Y590550D03*
X629650Y577850D03*
X629650Y565150D03*
X629650Y552450D03*
D60*
X693850Y537300D03*
X636350Y537300D03*
X636350Y630800D03*
X693850Y630800D03*
D61*
X751050Y539550D03*
X751050Y628850D03*
D62*
X419100Y718750D03*
X428600Y718750D03*
X409600Y718750D03*
X428600Y741750D03*
X419100Y741750D03*
X409600Y741750D03*
D29*
X12700Y635000D03*
X12700Y609600D03*
X12700Y584200D03*
X12700Y558800D03*
D16*
X392430Y719210D03*
X392430Y736210D03*
X461010Y719210D03*
X461010Y736210D03*
X445770Y736210D03*
X445770Y719210D03*
X377190Y736210D03*
X377190Y719210D03*
X361950Y736210D03*
X361950Y719210D03*
D13*
X455050Y412750D03*
X472050Y412750D03*
D16*
X297180Y715400D03*
X297180Y732400D03*
X281940Y715400D03*
X281940Y732400D03*
X266700Y715400D03*
X266700Y732400D03*
D63*
X195580Y646557D03*
X195580Y655193D03*
X233680Y654812D03*
X233680Y663448D03*
D64*
X220430Y655320D03*
X208830Y655320D03*
X197570Y589280D03*
X185970Y589280D03*
D13*
X230750Y589280D03*
X213750Y589280D03*
D64*
X197570Y609600D03*
X185970Y609600D03*
D65*
X596290Y493729D03*
X605790Y493729D03*
X615290Y493729D03*
X615290Y519731D03*
X596290Y519731D03*
D13*
X596510Y549910D03*
X579510Y549910D03*
X596510Y565150D03*
X579510Y565150D03*
D16*
X596900Y634120D03*
X596900Y651120D03*
X596900Y582050D03*
X596900Y599050D03*
D13*
X596510Y615950D03*
X579510Y615950D03*
D16*
X579755Y461890D03*
X579755Y444890D03*
D66*
X533400Y666030D03*
X533400Y677630D03*
D67*
X553600Y587000D03*
X548600Y587000D03*
X543600Y587000D03*
X538600Y587000D03*
X553600Y556000D03*
X548600Y556000D03*
X543600Y556000D03*
X538600Y556000D03*
D16*
X548640Y535550D03*
X548640Y518550D03*
X448310Y484750D03*
X448310Y467750D03*
D13*
X291710Y447040D03*
X274710Y447040D03*
D68*
X457560Y501500D03*
X457560Y514500D03*
X439060Y508000D03*
D16*
X472440Y467750D03*
X472440Y484750D03*
D69*
X524660Y466750D03*
X511660Y466750D03*
X524660Y485750D03*
X511660Y485750D03*
X518160Y485750D03*
D68*
X495660Y501500D03*
X495660Y514500D03*
X477160Y508000D03*
D16*
X495300Y467750D03*
X495300Y484750D03*
D53*
X508430Y728900D03*
X508430Y718900D03*
X519930Y723900D03*
D16*
X488950Y719210D03*
X488950Y736210D03*
D13*
X524120Y742950D03*
X507120Y742950D03*
D29*
X12700Y203200D03*
X12700Y177800D03*
X12700Y152400D03*
X12700Y127000D03*
X12700Y101600D03*
D41*
X479400Y137000D03*
X460400Y137000D03*
X469900Y116000D03*
D13*
X287410Y529590D03*
X304410Y529590D03*
D68*
X136250Y479910D03*
X136250Y492910D03*
X117750Y486410D03*
D13*
X167250Y480060D03*
X150250Y480060D03*
X97400Y495300D03*
X80400Y495300D03*
D36*
X30680Y491810D02*
X30680Y498790D01*
X37660Y498790D01*
X37660Y491810D01*
X30680Y491810D01*
X30680Y496610D02*
X37660Y496610D01*
X13140Y498790D02*
X13140Y491810D01*
X13140Y498790D02*
X20120Y498790D01*
X20120Y491810D01*
X13140Y491810D01*
X13140Y496610D02*
X20120Y496610D01*
D68*
X136250Y507850D03*
X136250Y520850D03*
X117750Y514350D03*
D13*
X167250Y508000D03*
X150250Y508000D03*
X97400Y514350D03*
X80400Y514350D03*
D36*
X30680Y510860D02*
X30680Y517840D01*
X37660Y517840D01*
X37660Y510860D01*
X30680Y510860D01*
X30680Y515660D02*
X37660Y515660D01*
X13140Y517840D02*
X13140Y510860D01*
X13140Y517840D02*
X20120Y517840D01*
X20120Y510860D01*
X13140Y510860D01*
X13140Y515660D02*
X20120Y515660D01*
D13*
X427600Y528320D03*
X410600Y528320D03*
X377580Y528320D03*
X394580Y528320D03*
D29*
X12700Y660400D03*
D13*
X67700Y660400D03*
X84700Y660400D03*
X67700Y685800D03*
X84700Y685800D03*
D29*
X12700Y685800D03*
D13*
X472050Y355600D03*
X455050Y355600D03*
X461400Y152400D03*
X478400Y152400D03*
X167250Y552450D03*
X150250Y552450D03*
X469510Y447040D03*
X452510Y447040D03*
X274710Y462280D03*
X291710Y462280D03*
X291710Y477520D03*
X274710Y477520D03*
D26*
X184150Y294640D03*
X184150Y238760D03*
X146050Y294640D03*
X146050Y238760D03*
D16*
X367030Y211700D03*
X367030Y194700D03*
D68*
X136250Y535790D03*
X136250Y548790D03*
X117750Y542290D03*
D13*
X167250Y535940D03*
X150250Y535940D03*
X97400Y533400D03*
X80400Y533400D03*
D36*
X30680Y529910D02*
X30680Y536890D01*
X37660Y536890D01*
X37660Y529910D01*
X30680Y529910D01*
X30680Y534710D02*
X37660Y534710D01*
X13140Y536890D02*
X13140Y529910D01*
X13140Y536890D02*
X20120Y536890D01*
X20120Y529910D01*
X13140Y529910D01*
X13140Y534710D02*
X20120Y534710D01*
D13*
X150250Y568960D03*
X167250Y568960D03*
D70*
X370840Y125730D03*
X411540Y125730D03*
D16*
X251460Y715400D03*
X251460Y732400D03*
D71*
X427880Y503980D03*
X421380Y503980D03*
X414880Y503980D03*
X408380Y503980D03*
X401880Y503980D03*
X395380Y503980D03*
X388880Y503980D03*
X382380Y503980D03*
X382380Y445980D03*
X388880Y445980D03*
X395380Y445980D03*
X401880Y445980D03*
X408380Y445980D03*
X414880Y445980D03*
X421380Y445980D03*
X427880Y445980D03*
X360570Y503980D03*
X354070Y503980D03*
X347570Y503980D03*
X341070Y503980D03*
X334570Y503980D03*
X328070Y503980D03*
X321570Y503980D03*
X315070Y503980D03*
X315070Y445980D03*
X321570Y445980D03*
X328070Y445980D03*
X334570Y445980D03*
X341070Y445980D03*
X347570Y445980D03*
X354070Y445980D03*
X360570Y445980D03*
X412640Y340150D03*
X406140Y340150D03*
X399640Y340150D03*
X393140Y340150D03*
X386640Y340150D03*
X380140Y340150D03*
X373640Y340150D03*
X367140Y340150D03*
X367140Y282150D03*
X373640Y282150D03*
X380140Y282150D03*
X386640Y282150D03*
X393140Y282150D03*
X399640Y282150D03*
X406140Y282150D03*
X412640Y282150D03*
D72*
X329190Y130930D03*
X329190Y135930D03*
X329190Y140930D03*
X329190Y145930D03*
X349190Y145930D03*
X349190Y140930D03*
X349190Y135930D03*
X349190Y130930D03*
D73*
X339090Y138430D03*
D68*
X543835Y451000D03*
X543835Y438000D03*
X562335Y444500D03*
D16*
X543560Y484750D03*
X543560Y467750D03*
D13*
X597290Y476250D03*
X614290Y476250D03*
D68*
X599290Y442870D03*
X612290Y442870D03*
X605790Y461370D03*
D10*
X965080Y60100D03*
X960080Y60100D03*
D11*
X989830Y60100D03*
X982080Y60100D03*
D10*
X975080Y60100D03*
X970080Y60100D03*
X950080Y60100D03*
X955080Y60100D03*
D11*
X925330Y60100D03*
X933080Y60100D03*
D10*
X940080Y60100D03*
X945080Y60100D03*
D12*
X928680Y49050D03*
X986480Y49050D03*
D13*
X923680Y76200D03*
X940680Y76200D03*
X991480Y76200D03*
X974480Y76200D03*
D14*
X971330Y91850D03*
X971330Y98350D03*
X971330Y104850D03*
X971330Y111350D03*
X943830Y111350D03*
X943830Y104850D03*
X943830Y98350D03*
X943830Y91850D03*
D15*
X957580Y101600D03*
D16*
X919480Y93100D03*
X919480Y110100D03*
D17*
X774700Y7620D03*
X1521460Y755650D03*
D18*
X1372980Y396700D03*
D19*
X1363980Y383700D03*
D18*
X1372980Y406700D03*
X1354980Y406700D03*
X1354980Y396700D03*
D20*
X1357355Y383700D02*
X1357357Y383863D01*
X1357363Y384025D01*
X1357373Y384187D01*
X1357387Y384349D01*
X1357405Y384511D01*
X1357427Y384672D01*
X1357453Y384833D01*
X1357482Y384992D01*
X1357516Y385152D01*
X1357554Y385310D01*
X1357595Y385467D01*
X1357640Y385623D01*
X1357689Y385778D01*
X1357742Y385932D01*
X1357799Y386084D01*
X1357859Y386235D01*
X1357923Y386385D01*
X1357991Y386533D01*
X1358062Y386679D01*
X1358137Y386823D01*
X1358216Y386965D01*
X1358298Y387106D01*
X1358383Y387244D01*
X1358472Y387381D01*
X1358564Y387515D01*
X1358659Y387647D01*
X1358757Y387776D01*
X1358859Y387903D01*
X1358963Y388027D01*
X1359071Y388149D01*
X1359182Y388268D01*
X1359295Y388385D01*
X1359412Y388498D01*
X1359531Y388609D01*
X1359653Y388717D01*
X1359777Y388821D01*
X1359904Y388923D01*
X1360033Y389021D01*
X1360165Y389116D01*
X1360299Y389208D01*
X1360436Y389297D01*
X1360574Y389382D01*
X1360715Y389464D01*
X1360857Y389543D01*
X1361001Y389618D01*
X1361147Y389689D01*
X1361295Y389757D01*
X1361445Y389821D01*
X1361596Y389881D01*
X1361748Y389938D01*
X1361902Y389991D01*
X1362057Y390040D01*
X1362213Y390085D01*
X1362370Y390126D01*
X1362528Y390164D01*
X1362688Y390198D01*
X1362847Y390227D01*
X1363008Y390253D01*
X1363169Y390275D01*
X1363331Y390293D01*
X1363493Y390307D01*
X1363655Y390317D01*
X1363817Y390323D01*
X1363980Y390325D01*
X1364143Y390323D01*
X1364305Y390317D01*
X1364467Y390307D01*
X1364629Y390293D01*
X1364791Y390275D01*
X1364952Y390253D01*
X1365113Y390227D01*
X1365272Y390198D01*
X1365432Y390164D01*
X1365590Y390126D01*
X1365747Y390085D01*
X1365903Y390040D01*
X1366058Y389991D01*
X1366212Y389938D01*
X1366364Y389881D01*
X1366515Y389821D01*
X1366665Y389757D01*
X1366813Y389689D01*
X1366959Y389618D01*
X1367103Y389543D01*
X1367245Y389464D01*
X1367386Y389382D01*
X1367524Y389297D01*
X1367661Y389208D01*
X1367795Y389116D01*
X1367927Y389021D01*
X1368056Y388923D01*
X1368183Y388821D01*
X1368307Y388717D01*
X1368429Y388609D01*
X1368548Y388498D01*
X1368665Y388385D01*
X1368778Y388268D01*
X1368889Y388149D01*
X1368997Y388027D01*
X1369101Y387903D01*
X1369203Y387776D01*
X1369301Y387647D01*
X1369396Y387515D01*
X1369488Y387381D01*
X1369577Y387244D01*
X1369662Y387106D01*
X1369744Y386965D01*
X1369823Y386823D01*
X1369898Y386679D01*
X1369969Y386533D01*
X1370037Y386385D01*
X1370101Y386235D01*
X1370161Y386084D01*
X1370218Y385932D01*
X1370271Y385778D01*
X1370320Y385623D01*
X1370365Y385467D01*
X1370406Y385310D01*
X1370444Y385152D01*
X1370478Y384992D01*
X1370507Y384833D01*
X1370533Y384672D01*
X1370555Y384511D01*
X1370573Y384349D01*
X1370587Y384187D01*
X1370597Y384025D01*
X1370603Y383863D01*
X1370605Y383700D01*
X1370603Y383537D01*
X1370597Y383375D01*
X1370587Y383213D01*
X1370573Y383051D01*
X1370555Y382889D01*
X1370533Y382728D01*
X1370507Y382567D01*
X1370478Y382408D01*
X1370444Y382248D01*
X1370406Y382090D01*
X1370365Y381933D01*
X1370320Y381777D01*
X1370271Y381622D01*
X1370218Y381468D01*
X1370161Y381316D01*
X1370101Y381165D01*
X1370037Y381015D01*
X1369969Y380867D01*
X1369898Y380721D01*
X1369823Y380577D01*
X1369744Y380435D01*
X1369662Y380294D01*
X1369577Y380156D01*
X1369488Y380019D01*
X1369396Y379885D01*
X1369301Y379753D01*
X1369203Y379624D01*
X1369101Y379497D01*
X1368997Y379373D01*
X1368889Y379251D01*
X1368778Y379132D01*
X1368665Y379015D01*
X1368548Y378902D01*
X1368429Y378791D01*
X1368307Y378683D01*
X1368183Y378579D01*
X1368056Y378477D01*
X1367927Y378379D01*
X1367795Y378284D01*
X1367661Y378192D01*
X1367524Y378103D01*
X1367386Y378018D01*
X1367245Y377936D01*
X1367103Y377857D01*
X1366959Y377782D01*
X1366813Y377711D01*
X1366665Y377643D01*
X1366515Y377579D01*
X1366364Y377519D01*
X1366212Y377462D01*
X1366058Y377409D01*
X1365903Y377360D01*
X1365747Y377315D01*
X1365590Y377274D01*
X1365432Y377236D01*
X1365272Y377202D01*
X1365113Y377173D01*
X1364952Y377147D01*
X1364791Y377125D01*
X1364629Y377107D01*
X1364467Y377093D01*
X1364305Y377083D01*
X1364143Y377077D01*
X1363980Y377075D01*
X1363817Y377077D01*
X1363655Y377083D01*
X1363493Y377093D01*
X1363331Y377107D01*
X1363169Y377125D01*
X1363008Y377147D01*
X1362847Y377173D01*
X1362688Y377202D01*
X1362528Y377236D01*
X1362370Y377274D01*
X1362213Y377315D01*
X1362057Y377360D01*
X1361902Y377409D01*
X1361748Y377462D01*
X1361596Y377519D01*
X1361445Y377579D01*
X1361295Y377643D01*
X1361147Y377711D01*
X1361001Y377782D01*
X1360857Y377857D01*
X1360715Y377936D01*
X1360574Y378018D01*
X1360436Y378103D01*
X1360299Y378192D01*
X1360165Y378284D01*
X1360033Y378379D01*
X1359904Y378477D01*
X1359777Y378579D01*
X1359653Y378683D01*
X1359531Y378791D01*
X1359412Y378902D01*
X1359295Y379015D01*
X1359182Y379132D01*
X1359071Y379251D01*
X1358963Y379373D01*
X1358859Y379497D01*
X1358757Y379624D01*
X1358659Y379753D01*
X1358564Y379885D01*
X1358472Y380019D01*
X1358383Y380156D01*
X1358298Y380294D01*
X1358216Y380435D01*
X1358137Y380577D01*
X1358062Y380721D01*
X1357991Y380867D01*
X1357923Y381015D01*
X1357859Y381165D01*
X1357799Y381316D01*
X1357742Y381468D01*
X1357689Y381622D01*
X1357640Y381777D01*
X1357595Y381933D01*
X1357554Y382090D01*
X1357516Y382248D01*
X1357482Y382408D01*
X1357453Y382567D01*
X1357427Y382728D01*
X1357405Y382889D01*
X1357387Y383051D01*
X1357373Y383213D01*
X1357363Y383375D01*
X1357357Y383537D01*
X1357355Y383700D01*
D21*
X1363980Y377200D03*
D22*
X1357480Y383700D03*
X1370480Y383700D03*
D21*
X1363980Y390200D03*
D16*
X1332230Y402200D03*
X1332230Y385200D03*
D23*
X1503680Y736600D03*
X792480Y736600D03*
X1503680Y25400D03*
X792480Y25400D03*
D16*
X1236980Y97400D03*
X1236980Y80400D03*
D24*
X1077680Y44100D03*
D25*
X1057980Y93980D03*
X1034980Y93980D03*
D13*
X1037980Y76200D03*
X1054980Y76200D03*
X1435980Y457200D03*
X1418980Y457200D03*
X1435980Y431800D03*
X1418980Y431800D03*
D26*
X786130Y238760D03*
X786130Y294640D03*
X824230Y238760D03*
X824230Y294640D03*
D16*
X904240Y93100D03*
X904240Y110100D03*
D27*
X881380Y23100D03*
X881380Y53100D03*
D28*
X881380Y102900D03*
X881380Y74900D03*
D13*
X919090Y148590D03*
X902090Y148590D03*
X902090Y133350D03*
X919090Y133350D03*
D29*
X990600Y143510D03*
X1016000Y143510D03*
D30*
X1084580Y184150D03*
X1071880Y184150D03*
X1059180Y184150D03*
X1046480Y184150D03*
X1097280Y184150D03*
X1084580Y171450D03*
X1071880Y171450D03*
X1059180Y171450D03*
X1046480Y171450D03*
X1097280Y171450D03*
D26*
X849630Y238760D03*
X849630Y294640D03*
X887730Y238760D03*
X887730Y294640D03*
D29*
X779780Y431800D03*
X779780Y406400D03*
X779780Y381000D03*
X779780Y355600D03*
X779780Y330200D03*
X1490980Y279400D03*
X1490980Y304800D03*
X1490980Y330200D03*
X1490980Y355600D03*
X1490980Y381000D03*
X1490980Y406400D03*
X1516380Y279400D03*
X1516380Y304800D03*
X1516380Y330200D03*
X1516380Y355600D03*
X1516380Y381000D03*
X1516380Y406400D03*
D31*
X1346230Y173800D03*
X1289230Y173800D03*
D32*
X1273230Y42300D03*
X1404730Y32300D03*
D33*
X1358130Y70800D03*
X1347130Y74800D03*
X1336130Y70800D03*
X1325130Y68800D03*
X1314130Y70800D03*
X1303130Y68800D03*
X1292130Y70800D03*
X1281130Y70800D03*
D29*
X1516380Y508000D03*
X1516380Y482600D03*
X1516380Y457200D03*
X1516380Y431800D03*
D34*
X1285280Y277300D03*
D16*
X943610Y150740D03*
X943610Y133740D03*
D35*
X961390Y155010D03*
X961390Y132010D03*
D13*
X847480Y476250D03*
X864480Y476250D03*
D36*
X787200Y479740D02*
X787200Y472760D01*
X780220Y472760D01*
X780220Y479740D01*
X787200Y479740D01*
X787200Y477560D02*
X780220Y477560D01*
X804740Y479740D02*
X804740Y472760D01*
X797760Y472760D01*
X797760Y479740D01*
X804740Y479740D01*
X804740Y477560D02*
X797760Y477560D01*
D13*
X990990Y92710D03*
X1007990Y92710D03*
X990990Y107950D03*
X1007990Y107950D03*
X990990Y123190D03*
X1007990Y123190D03*
D37*
X1084580Y217500D03*
D38*
X1084580Y417500D03*
D39*
X1031830Y225000D03*
D40*
X1039580Y214000D03*
X1039580Y421000D03*
D39*
X1107330Y227500D03*
X1031830Y230000D03*
X1107330Y232500D03*
X1031830Y235000D03*
X1107330Y237500D03*
X1031830Y240000D03*
X1107330Y242500D03*
X1031830Y245000D03*
X1107330Y247500D03*
X1031830Y250000D03*
X1107330Y252500D03*
X1031830Y255000D03*
X1107330Y257500D03*
X1031830Y260000D03*
X1107330Y262500D03*
X1031830Y265000D03*
X1107330Y267500D03*
X1031830Y270000D03*
X1107330Y272500D03*
X1031830Y275000D03*
X1107330Y277500D03*
X1031830Y280000D03*
X1107330Y302500D03*
X1031830Y305000D03*
X1107330Y307500D03*
X1031830Y310000D03*
X1107330Y312500D03*
X1031830Y315000D03*
X1107330Y317500D03*
X1031830Y320000D03*
X1107330Y322500D03*
X1031830Y325000D03*
X1107330Y327500D03*
X1031830Y330000D03*
X1107330Y332500D03*
X1031830Y335000D03*
X1107330Y337500D03*
X1031830Y340000D03*
X1107330Y342500D03*
X1031830Y345000D03*
X1107330Y347500D03*
X1031830Y350000D03*
X1107330Y352500D03*
X1031830Y355000D03*
X1107330Y357500D03*
X1031830Y360000D03*
X1107330Y362500D03*
X1031830Y365000D03*
X1107330Y367500D03*
X1031830Y370000D03*
X1107330Y372500D03*
X1031830Y375000D03*
X1107330Y377500D03*
X1031830Y380000D03*
X1107330Y382500D03*
X1031830Y385000D03*
X1107330Y387500D03*
X1031830Y390000D03*
X1107330Y392500D03*
X1031830Y395000D03*
X1107330Y397500D03*
X1031830Y400000D03*
X1107330Y402500D03*
X1031830Y405000D03*
X1107330Y407500D03*
X1031830Y410000D03*
D41*
X1055980Y130650D03*
X1036980Y130650D03*
X1046480Y109650D03*
D29*
X779780Y76200D03*
D13*
X847480Y457200D03*
X864480Y457200D03*
D36*
X787200Y460690D02*
X787200Y453710D01*
X780220Y453710D01*
X780220Y460690D01*
X787200Y460690D01*
X787200Y458510D02*
X780220Y458510D01*
X804740Y460690D02*
X804740Y453710D01*
X797760Y453710D01*
X797760Y460690D01*
X804740Y460690D01*
X804740Y458510D02*
X797760Y458510D01*
D42*
X1515030Y86300D03*
X1515030Y142300D03*
D43*
X1478280Y99300D03*
X1478280Y109300D03*
X1478280Y119300D03*
X1478280Y129300D03*
D16*
X1433830Y143900D03*
X1433830Y160900D03*
X1459230Y143900D03*
X1459230Y160900D03*
D29*
X1516380Y254000D03*
X1516380Y228600D03*
X1516380Y203200D03*
X1516380Y177800D03*
D16*
X849630Y205350D03*
X849630Y188350D03*
X868680Y205350D03*
X868680Y188350D03*
D33*
X1038080Y552800D03*
X1049080Y552800D03*
X1060080Y552800D03*
X1071080Y552800D03*
X1082080Y552800D03*
X1093080Y552800D03*
X1104080Y552800D03*
X1115080Y552800D03*
X1126080Y552800D03*
X1137080Y552800D03*
X1148080Y552800D03*
X1159080Y552800D03*
X1170080Y552800D03*
X1181080Y552800D03*
X1192080Y552800D03*
X1203080Y552800D03*
X1214080Y552800D03*
X1225080Y552800D03*
X1236080Y552800D03*
X1247080Y552800D03*
X1258080Y552800D03*
D44*
X1267580Y567300D03*
X1267580Y578300D03*
X1267580Y589300D03*
X1267580Y600300D03*
X1267580Y611300D03*
X1267580Y622300D03*
X1267580Y633300D03*
X1267580Y644300D03*
X1267580Y655300D03*
X1267580Y666300D03*
X1267580Y677300D03*
D33*
X1258080Y691800D03*
X1247080Y691800D03*
X1236080Y691800D03*
X1225080Y691800D03*
X1214080Y691800D03*
X1203080Y691800D03*
X1192080Y691800D03*
X1181080Y691800D03*
X1170080Y691800D03*
X1159080Y691800D03*
X1148080Y691800D03*
X1137080Y691800D03*
X1126080Y691800D03*
X1115080Y691800D03*
X1104080Y691800D03*
X1093080Y691800D03*
X1082080Y691800D03*
X1071080Y691800D03*
X1060080Y691800D03*
X1049080Y691800D03*
X1038080Y691800D03*
D44*
X1028580Y677300D03*
X1028580Y666300D03*
X1028580Y655300D03*
X1028580Y644300D03*
X1028580Y633300D03*
X1028580Y622300D03*
X1028580Y611300D03*
X1028580Y600300D03*
X1028580Y589300D03*
X1028580Y578300D03*
X1028580Y567300D03*
D45*
X1045580Y569800D03*
X1045580Y590800D03*
X1045580Y611800D03*
X1045580Y632800D03*
X1045580Y653800D03*
X1045580Y674800D03*
X1063580Y569800D03*
X1063580Y590800D03*
X1063580Y611800D03*
X1063580Y632800D03*
X1063580Y653800D03*
X1063580Y674800D03*
X1081580Y569800D03*
X1081580Y674800D03*
X1117580Y569800D03*
X1117580Y674800D03*
X1250580Y674800D03*
X1250580Y653800D03*
X1250580Y632800D03*
X1250580Y611800D03*
X1250580Y590800D03*
X1250580Y569800D03*
X1232580Y674800D03*
X1232580Y653800D03*
X1232580Y632800D03*
X1232580Y611800D03*
X1232580Y590800D03*
X1232580Y569800D03*
X1214580Y674800D03*
X1214580Y569800D03*
X1178580Y674800D03*
X1178580Y569800D03*
D46*
X1163605Y371000D03*
D47*
X1163080Y375000D03*
X1163080Y379000D03*
X1163080Y383000D03*
X1163080Y387000D03*
D46*
X1163605Y391000D03*
D48*
X1158080Y396525D03*
D49*
X1154080Y396000D03*
X1150080Y396000D03*
X1146080Y396000D03*
X1142080Y396000D03*
D48*
X1138080Y396525D03*
D46*
X1132555Y391000D03*
D47*
X1133080Y387000D03*
X1133080Y383000D03*
X1133080Y379000D03*
X1133080Y375000D03*
D46*
X1132555Y371000D03*
D48*
X1138080Y365475D03*
D49*
X1142080Y366000D03*
X1146080Y366000D03*
X1150080Y366000D03*
X1154080Y366000D03*
D48*
X1158080Y365475D03*
D50*
X1159590Y371005D03*
D51*
X1158075Y392510D03*
D50*
X1136570Y390995D03*
D51*
X1138085Y369490D03*
X1158075Y369490D03*
D50*
X1159590Y390995D03*
D51*
X1138085Y392510D03*
D50*
X1136570Y371005D03*
D13*
X1139580Y422910D03*
X1156580Y422910D03*
D16*
X1179830Y389500D03*
X1179830Y372500D03*
X1198880Y389500D03*
X1198880Y372500D03*
D52*
X1224130Y372750D03*
X1230630Y372750D03*
X1237130Y372750D03*
X1237130Y389250D03*
X1224130Y389250D03*
D13*
X1222130Y340360D03*
X1239130Y340360D03*
D53*
X1196770Y417750D03*
X1196770Y407750D03*
X1208270Y412750D03*
D16*
X1179830Y405520D03*
X1179830Y422520D03*
D54*
X889680Y727000D03*
D55*
X932180Y681000D03*
D54*
X974680Y727000D03*
X1321480Y727000D03*
D55*
X1363980Y681000D03*
D54*
X1406480Y727000D03*
D56*
X1135079Y174600D03*
X1135079Y165100D03*
X1135079Y155600D03*
X1161081Y155600D03*
X1161081Y174600D03*
D16*
X1160780Y211700D03*
X1160780Y194700D03*
D13*
X1112130Y111760D03*
X1095130Y111760D03*
D36*
X1229560Y28890D02*
X1229560Y21910D01*
X1229560Y28890D02*
X1236540Y28890D01*
X1236540Y21910D01*
X1229560Y21910D01*
X1229560Y26710D02*
X1236540Y26710D01*
X1212020Y28890D02*
X1212020Y21910D01*
X1212020Y28890D02*
X1219000Y28890D01*
X1219000Y21910D01*
X1212020Y21910D01*
X1212020Y26710D02*
X1219000Y26710D01*
D13*
X1215780Y50800D03*
X1232780Y50800D03*
D57*
X1158080Y75100D03*
X1138080Y75100D03*
D58*
X1182080Y23100D03*
X1114080Y23100D03*
D29*
X1135380Y25400D03*
X1160780Y25400D03*
D59*
X1396730Y615950D03*
X1396730Y603250D03*
X1396730Y590550D03*
X1396730Y577850D03*
X1396730Y565150D03*
X1396730Y552450D03*
D60*
X1460930Y537300D03*
X1403430Y537300D03*
X1403430Y630800D03*
X1460930Y630800D03*
D61*
X1518130Y539550D03*
X1518130Y628850D03*
D62*
X1186180Y718750D03*
X1195680Y718750D03*
X1176680Y718750D03*
X1195680Y741750D03*
X1186180Y741750D03*
X1176680Y741750D03*
D29*
X779780Y635000D03*
X779780Y609600D03*
X779780Y584200D03*
X779780Y558800D03*
D16*
X1159510Y719210D03*
X1159510Y736210D03*
X1228090Y719210D03*
X1228090Y736210D03*
X1212850Y736210D03*
X1212850Y719210D03*
X1144270Y736210D03*
X1144270Y719210D03*
X1129030Y736210D03*
X1129030Y719210D03*
D13*
X1222130Y412750D03*
X1239130Y412750D03*
D16*
X1064260Y715400D03*
X1064260Y732400D03*
X1049020Y715400D03*
X1049020Y732400D03*
X1033780Y715400D03*
X1033780Y732400D03*
D63*
X962660Y646557D03*
X962660Y655193D03*
X1000760Y654812D03*
X1000760Y663448D03*
D64*
X987510Y655320D03*
X975910Y655320D03*
X964650Y589280D03*
X953050Y589280D03*
D13*
X997830Y589280D03*
X980830Y589280D03*
D64*
X964650Y609600D03*
X953050Y609600D03*
D65*
X1363370Y493729D03*
X1372870Y493729D03*
X1382370Y493729D03*
X1382370Y519731D03*
X1363370Y519731D03*
D13*
X1363590Y549910D03*
X1346590Y549910D03*
X1363590Y565150D03*
X1346590Y565150D03*
D16*
X1363980Y634120D03*
X1363980Y651120D03*
X1363980Y582050D03*
X1363980Y599050D03*
D13*
X1363590Y615950D03*
X1346590Y615950D03*
D16*
X1346835Y461890D03*
X1346835Y444890D03*
D66*
X1300480Y666030D03*
X1300480Y677630D03*
D67*
X1320680Y587000D03*
X1315680Y587000D03*
X1310680Y587000D03*
X1305680Y587000D03*
X1320680Y556000D03*
X1315680Y556000D03*
X1310680Y556000D03*
X1305680Y556000D03*
D16*
X1315720Y535550D03*
X1315720Y518550D03*
X1215390Y484750D03*
X1215390Y467750D03*
D13*
X1058790Y447040D03*
X1041790Y447040D03*
D68*
X1224640Y501500D03*
X1224640Y514500D03*
X1206140Y508000D03*
D16*
X1239520Y467750D03*
X1239520Y484750D03*
D69*
X1291740Y466750D03*
X1278740Y466750D03*
X1291740Y485750D03*
X1278740Y485750D03*
X1285240Y485750D03*
D68*
X1262740Y501500D03*
X1262740Y514500D03*
X1244240Y508000D03*
D16*
X1262380Y467750D03*
X1262380Y484750D03*
D53*
X1275510Y728900D03*
X1275510Y718900D03*
X1287010Y723900D03*
D16*
X1256030Y719210D03*
X1256030Y736210D03*
D13*
X1291200Y742950D03*
X1274200Y742950D03*
D29*
X779780Y203200D03*
X779780Y177800D03*
X779780Y152400D03*
X779780Y127000D03*
X779780Y101600D03*
D41*
X1246480Y137000D03*
X1227480Y137000D03*
X1236980Y116000D03*
D13*
X1054490Y529590D03*
X1071490Y529590D03*
D68*
X903330Y479910D03*
X903330Y492910D03*
X884830Y486410D03*
D13*
X934330Y480060D03*
X917330Y480060D03*
X864480Y495300D03*
X847480Y495300D03*
D36*
X797760Y491810D02*
X797760Y498790D01*
X804740Y498790D01*
X804740Y491810D01*
X797760Y491810D01*
X797760Y496610D02*
X804740Y496610D01*
X780220Y498790D02*
X780220Y491810D01*
X780220Y498790D02*
X787200Y498790D01*
X787200Y491810D01*
X780220Y491810D01*
X780220Y496610D02*
X787200Y496610D01*
D68*
X903330Y507850D03*
X903330Y520850D03*
X884830Y514350D03*
D13*
X934330Y508000D03*
X917330Y508000D03*
X864480Y514350D03*
X847480Y514350D03*
D36*
X797760Y510860D02*
X797760Y517840D01*
X804740Y517840D01*
X804740Y510860D01*
X797760Y510860D01*
X797760Y515660D02*
X804740Y515660D01*
X780220Y517840D02*
X780220Y510860D01*
X780220Y517840D02*
X787200Y517840D01*
X787200Y510860D01*
X780220Y510860D01*
X780220Y515660D02*
X787200Y515660D01*
D13*
X1194680Y528320D03*
X1177680Y528320D03*
X1144660Y528320D03*
X1161660Y528320D03*
D29*
X779780Y660400D03*
D13*
X834780Y660400D03*
X851780Y660400D03*
X834780Y685800D03*
X851780Y685800D03*
D29*
X779780Y685800D03*
D13*
X1239130Y355600D03*
X1222130Y355600D03*
X1228480Y152400D03*
X1245480Y152400D03*
X934330Y552450D03*
X917330Y552450D03*
X1236590Y447040D03*
X1219590Y447040D03*
X1041790Y462280D03*
X1058790Y462280D03*
X1058790Y477520D03*
X1041790Y477520D03*
D26*
X951230Y294640D03*
X951230Y238760D03*
X913130Y294640D03*
X913130Y238760D03*
D16*
X1134110Y211700D03*
X1134110Y194700D03*
D68*
X903330Y535790D03*
X903330Y548790D03*
X884830Y542290D03*
D13*
X934330Y535940D03*
X917330Y535940D03*
X864480Y533400D03*
X847480Y533400D03*
D36*
X797760Y529910D02*
X797760Y536890D01*
X804740Y536890D01*
X804740Y529910D01*
X797760Y529910D01*
X797760Y534710D02*
X804740Y534710D01*
X780220Y536890D02*
X780220Y529910D01*
X780220Y536890D02*
X787200Y536890D01*
X787200Y529910D01*
X780220Y529910D01*
X780220Y534710D02*
X787200Y534710D01*
D13*
X917330Y568960D03*
X934330Y568960D03*
D70*
X1137920Y125730D03*
X1178620Y125730D03*
D16*
X1018540Y715400D03*
X1018540Y732400D03*
D71*
X1194960Y503980D03*
X1188460Y503980D03*
X1181960Y503980D03*
X1175460Y503980D03*
X1168960Y503980D03*
X1162460Y503980D03*
X1155960Y503980D03*
X1149460Y503980D03*
X1149460Y445980D03*
X1155960Y445980D03*
X1162460Y445980D03*
X1168960Y445980D03*
X1175460Y445980D03*
X1181960Y445980D03*
X1188460Y445980D03*
X1194960Y445980D03*
X1127650Y503980D03*
X1121150Y503980D03*
X1114650Y503980D03*
X1108150Y503980D03*
X1101650Y503980D03*
X1095150Y503980D03*
X1088650Y503980D03*
X1082150Y503980D03*
X1082150Y445980D03*
X1088650Y445980D03*
X1095150Y445980D03*
X1101650Y445980D03*
X1108150Y445980D03*
X1114650Y445980D03*
X1121150Y445980D03*
X1127650Y445980D03*
X1179720Y340150D03*
X1173220Y340150D03*
X1166720Y340150D03*
X1160220Y340150D03*
X1153720Y340150D03*
X1147220Y340150D03*
X1140720Y340150D03*
X1134220Y340150D03*
X1134220Y282150D03*
X1140720Y282150D03*
X1147220Y282150D03*
X1153720Y282150D03*
X1160220Y282150D03*
X1166720Y282150D03*
X1173220Y282150D03*
X1179720Y282150D03*
D72*
X1096270Y130930D03*
X1096270Y135930D03*
X1096270Y140930D03*
X1096270Y145930D03*
X1116270Y145930D03*
X1116270Y140930D03*
X1116270Y135930D03*
X1116270Y130930D03*
D73*
X1106170Y138430D03*
D68*
X1310915Y451000D03*
X1310915Y438000D03*
X1329415Y444500D03*
D16*
X1310640Y484750D03*
X1310640Y467750D03*
D13*
X1364370Y476250D03*
X1381370Y476250D03*
D68*
X1366370Y442870D03*
X1379370Y442870D03*
X1372870Y461370D03*
D10*
X198000Y916080D03*
X193000Y916080D03*
D11*
X222750Y916080D03*
X215000Y916080D03*
D10*
X208000Y916080D03*
X203000Y916080D03*
X183000Y916080D03*
X188000Y916080D03*
D11*
X158250Y916080D03*
X166000Y916080D03*
D10*
X173000Y916080D03*
X178000Y916080D03*
D12*
X161600Y905030D03*
X219400Y905030D03*
D13*
X156600Y932180D03*
X173600Y932180D03*
X224400Y932180D03*
X207400Y932180D03*
D14*
X204250Y947830D03*
X204250Y954330D03*
X204250Y960830D03*
X204250Y967330D03*
X176750Y967330D03*
X176750Y960830D03*
X176750Y954330D03*
X176750Y947830D03*
D15*
X190500Y957580D03*
D16*
X152400Y949080D03*
X152400Y966080D03*
D17*
X7620Y863600D03*
X754380Y1611630D03*
D18*
X605900Y1252680D03*
D19*
X596900Y1239680D03*
D18*
X605900Y1262680D03*
X587900Y1262680D03*
X587900Y1252680D03*
D20*
X590275Y1239680D02*
X590277Y1239843D01*
X590283Y1240005D01*
X590293Y1240167D01*
X590307Y1240329D01*
X590325Y1240491D01*
X590347Y1240652D01*
X590373Y1240813D01*
X590402Y1240972D01*
X590436Y1241132D01*
X590474Y1241290D01*
X590515Y1241447D01*
X590560Y1241603D01*
X590609Y1241758D01*
X590662Y1241912D01*
X590719Y1242064D01*
X590779Y1242215D01*
X590843Y1242365D01*
X590911Y1242513D01*
X590982Y1242659D01*
X591057Y1242803D01*
X591136Y1242945D01*
X591218Y1243086D01*
X591303Y1243224D01*
X591392Y1243361D01*
X591484Y1243495D01*
X591579Y1243627D01*
X591677Y1243756D01*
X591779Y1243883D01*
X591883Y1244007D01*
X591991Y1244129D01*
X592102Y1244248D01*
X592215Y1244365D01*
X592332Y1244478D01*
X592451Y1244589D01*
X592573Y1244697D01*
X592697Y1244801D01*
X592824Y1244903D01*
X592953Y1245001D01*
X593085Y1245096D01*
X593219Y1245188D01*
X593356Y1245277D01*
X593494Y1245362D01*
X593635Y1245444D01*
X593777Y1245523D01*
X593921Y1245598D01*
X594067Y1245669D01*
X594215Y1245737D01*
X594365Y1245801D01*
X594516Y1245861D01*
X594668Y1245918D01*
X594822Y1245971D01*
X594977Y1246020D01*
X595133Y1246065D01*
X595290Y1246106D01*
X595448Y1246144D01*
X595608Y1246178D01*
X595767Y1246207D01*
X595928Y1246233D01*
X596089Y1246255D01*
X596251Y1246273D01*
X596413Y1246287D01*
X596575Y1246297D01*
X596737Y1246303D01*
X596900Y1246305D01*
X597063Y1246303D01*
X597225Y1246297D01*
X597387Y1246287D01*
X597549Y1246273D01*
X597711Y1246255D01*
X597872Y1246233D01*
X598033Y1246207D01*
X598192Y1246178D01*
X598352Y1246144D01*
X598510Y1246106D01*
X598667Y1246065D01*
X598823Y1246020D01*
X598978Y1245971D01*
X599132Y1245918D01*
X599284Y1245861D01*
X599435Y1245801D01*
X599585Y1245737D01*
X599733Y1245669D01*
X599879Y1245598D01*
X600023Y1245523D01*
X600165Y1245444D01*
X600306Y1245362D01*
X600444Y1245277D01*
X600581Y1245188D01*
X600715Y1245096D01*
X600847Y1245001D01*
X600976Y1244903D01*
X601103Y1244801D01*
X601227Y1244697D01*
X601349Y1244589D01*
X601468Y1244478D01*
X601585Y1244365D01*
X601698Y1244248D01*
X601809Y1244129D01*
X601917Y1244007D01*
X602021Y1243883D01*
X602123Y1243756D01*
X602221Y1243627D01*
X602316Y1243495D01*
X602408Y1243361D01*
X602497Y1243224D01*
X602582Y1243086D01*
X602664Y1242945D01*
X602743Y1242803D01*
X602818Y1242659D01*
X602889Y1242513D01*
X602957Y1242365D01*
X603021Y1242215D01*
X603081Y1242064D01*
X603138Y1241912D01*
X603191Y1241758D01*
X603240Y1241603D01*
X603285Y1241447D01*
X603326Y1241290D01*
X603364Y1241132D01*
X603398Y1240972D01*
X603427Y1240813D01*
X603453Y1240652D01*
X603475Y1240491D01*
X603493Y1240329D01*
X603507Y1240167D01*
X603517Y1240005D01*
X603523Y1239843D01*
X603525Y1239680D01*
X603523Y1239517D01*
X603517Y1239355D01*
X603507Y1239193D01*
X603493Y1239031D01*
X603475Y1238869D01*
X603453Y1238708D01*
X603427Y1238547D01*
X603398Y1238388D01*
X603364Y1238228D01*
X603326Y1238070D01*
X603285Y1237913D01*
X603240Y1237757D01*
X603191Y1237602D01*
X603138Y1237448D01*
X603081Y1237296D01*
X603021Y1237145D01*
X602957Y1236995D01*
X602889Y1236847D01*
X602818Y1236701D01*
X602743Y1236557D01*
X602664Y1236415D01*
X602582Y1236274D01*
X602497Y1236136D01*
X602408Y1235999D01*
X602316Y1235865D01*
X602221Y1235733D01*
X602123Y1235604D01*
X602021Y1235477D01*
X601917Y1235353D01*
X601809Y1235231D01*
X601698Y1235112D01*
X601585Y1234995D01*
X601468Y1234882D01*
X601349Y1234771D01*
X601227Y1234663D01*
X601103Y1234559D01*
X600976Y1234457D01*
X600847Y1234359D01*
X600715Y1234264D01*
X600581Y1234172D01*
X600444Y1234083D01*
X600306Y1233998D01*
X600165Y1233916D01*
X600023Y1233837D01*
X599879Y1233762D01*
X599733Y1233691D01*
X599585Y1233623D01*
X599435Y1233559D01*
X599284Y1233499D01*
X599132Y1233442D01*
X598978Y1233389D01*
X598823Y1233340D01*
X598667Y1233295D01*
X598510Y1233254D01*
X598352Y1233216D01*
X598192Y1233182D01*
X598033Y1233153D01*
X597872Y1233127D01*
X597711Y1233105D01*
X597549Y1233087D01*
X597387Y1233073D01*
X597225Y1233063D01*
X597063Y1233057D01*
X596900Y1233055D01*
X596737Y1233057D01*
X596575Y1233063D01*
X596413Y1233073D01*
X596251Y1233087D01*
X596089Y1233105D01*
X595928Y1233127D01*
X595767Y1233153D01*
X595608Y1233182D01*
X595448Y1233216D01*
X595290Y1233254D01*
X595133Y1233295D01*
X594977Y1233340D01*
X594822Y1233389D01*
X594668Y1233442D01*
X594516Y1233499D01*
X594365Y1233559D01*
X594215Y1233623D01*
X594067Y1233691D01*
X593921Y1233762D01*
X593777Y1233837D01*
X593635Y1233916D01*
X593494Y1233998D01*
X593356Y1234083D01*
X593219Y1234172D01*
X593085Y1234264D01*
X592953Y1234359D01*
X592824Y1234457D01*
X592697Y1234559D01*
X592573Y1234663D01*
X592451Y1234771D01*
X592332Y1234882D01*
X592215Y1234995D01*
X592102Y1235112D01*
X591991Y1235231D01*
X591883Y1235353D01*
X591779Y1235477D01*
X591677Y1235604D01*
X591579Y1235733D01*
X591484Y1235865D01*
X591392Y1235999D01*
X591303Y1236136D01*
X591218Y1236274D01*
X591136Y1236415D01*
X591057Y1236557D01*
X590982Y1236701D01*
X590911Y1236847D01*
X590843Y1236995D01*
X590779Y1237145D01*
X590719Y1237296D01*
X590662Y1237448D01*
X590609Y1237602D01*
X590560Y1237757D01*
X590515Y1237913D01*
X590474Y1238070D01*
X590436Y1238228D01*
X590402Y1238388D01*
X590373Y1238547D01*
X590347Y1238708D01*
X590325Y1238869D01*
X590307Y1239031D01*
X590293Y1239193D01*
X590283Y1239355D01*
X590277Y1239517D01*
X590275Y1239680D01*
D21*
X596900Y1233180D03*
D22*
X590400Y1239680D03*
X603400Y1239680D03*
D21*
X596900Y1246180D03*
D16*
X565150Y1258180D03*
X565150Y1241180D03*
D23*
X736600Y1592580D03*
X25400Y1592580D03*
X736600Y881380D03*
X25400Y881380D03*
D16*
X469900Y953380D03*
X469900Y936380D03*
D24*
X310600Y900080D03*
D25*
X290900Y949960D03*
X267900Y949960D03*
D13*
X270900Y932180D03*
X287900Y932180D03*
X668900Y1313180D03*
X651900Y1313180D03*
X668900Y1287780D03*
X651900Y1287780D03*
D26*
X19050Y1094740D03*
X19050Y1150620D03*
X57150Y1094740D03*
X57150Y1150620D03*
D16*
X137160Y949080D03*
X137160Y966080D03*
D27*
X114300Y879080D03*
X114300Y909080D03*
D28*
X114300Y958880D03*
X114300Y930880D03*
D13*
X152010Y1004570D03*
X135010Y1004570D03*
X135010Y989330D03*
X152010Y989330D03*
D29*
X223520Y999490D03*
X248920Y999490D03*
D30*
X317500Y1040130D03*
X304800Y1040130D03*
X292100Y1040130D03*
X279400Y1040130D03*
X330200Y1040130D03*
X317500Y1027430D03*
X304800Y1027430D03*
X292100Y1027430D03*
X279400Y1027430D03*
X330200Y1027430D03*
D26*
X82550Y1094740D03*
X82550Y1150620D03*
X120650Y1094740D03*
X120650Y1150620D03*
D29*
X12700Y1287780D03*
X12700Y1262380D03*
X12700Y1236980D03*
X12700Y1211580D03*
X12700Y1186180D03*
X723900Y1135380D03*
X723900Y1160780D03*
X723900Y1186180D03*
X723900Y1211580D03*
X723900Y1236980D03*
X723900Y1262380D03*
X749300Y1135380D03*
X749300Y1160780D03*
X749300Y1186180D03*
X749300Y1211580D03*
X749300Y1236980D03*
X749300Y1262380D03*
D31*
X579150Y1029780D03*
X522150Y1029780D03*
D32*
X506150Y898280D03*
X637650Y888280D03*
D33*
X591050Y926780D03*
X580050Y930780D03*
X569050Y926780D03*
X558050Y924780D03*
X547050Y926780D03*
X536050Y924780D03*
X525050Y926780D03*
X514050Y926780D03*
D29*
X749300Y1363980D03*
X749300Y1338580D03*
X749300Y1313180D03*
X749300Y1287780D03*
D34*
X518200Y1133280D03*
D16*
X176530Y1006720D03*
X176530Y989720D03*
D35*
X194310Y1010990D03*
X194310Y987990D03*
D13*
X80400Y1332230D03*
X97400Y1332230D03*
D36*
X20120Y1335720D02*
X20120Y1328740D01*
X13140Y1328740D01*
X13140Y1335720D01*
X20120Y1335720D01*
X20120Y1333540D02*
X13140Y1333540D01*
X37660Y1335720D02*
X37660Y1328740D01*
X30680Y1328740D01*
X30680Y1335720D01*
X37660Y1335720D01*
X37660Y1333540D02*
X30680Y1333540D01*
D13*
X223910Y948690D03*
X240910Y948690D03*
X223910Y963930D03*
X240910Y963930D03*
X223910Y979170D03*
X240910Y979170D03*
D37*
X317500Y1073480D03*
D38*
X317500Y1273480D03*
D39*
X264750Y1080980D03*
D40*
X272500Y1069980D03*
X272500Y1276980D03*
D39*
X340250Y1083480D03*
X264750Y1085980D03*
X340250Y1088480D03*
X264750Y1090980D03*
X340250Y1093480D03*
X264750Y1095980D03*
X340250Y1098480D03*
X264750Y1100980D03*
X340250Y1103480D03*
X264750Y1105980D03*
X340250Y1108480D03*
X264750Y1110980D03*
X340250Y1113480D03*
X264750Y1115980D03*
X340250Y1118480D03*
X264750Y1120980D03*
X340250Y1123480D03*
X264750Y1125980D03*
X340250Y1128480D03*
X264750Y1130980D03*
X340250Y1133480D03*
X264750Y1135980D03*
X340250Y1158480D03*
X264750Y1160980D03*
X340250Y1163480D03*
X264750Y1165980D03*
X340250Y1168480D03*
X264750Y1170980D03*
X340250Y1173480D03*
X264750Y1175980D03*
X340250Y1178480D03*
X264750Y1180980D03*
X340250Y1183480D03*
X264750Y1185980D03*
X340250Y1188480D03*
X264750Y1190980D03*
X340250Y1193480D03*
X264750Y1195980D03*
X340250Y1198480D03*
X264750Y1200980D03*
X340250Y1203480D03*
X264750Y1205980D03*
X340250Y1208480D03*
X264750Y1210980D03*
X340250Y1213480D03*
X264750Y1215980D03*
X340250Y1218480D03*
X264750Y1220980D03*
X340250Y1223480D03*
X264750Y1225980D03*
X340250Y1228480D03*
X264750Y1230980D03*
X340250Y1233480D03*
X264750Y1235980D03*
X340250Y1238480D03*
X264750Y1240980D03*
X340250Y1243480D03*
X264750Y1245980D03*
X340250Y1248480D03*
X264750Y1250980D03*
X340250Y1253480D03*
X264750Y1255980D03*
X340250Y1258480D03*
X264750Y1260980D03*
X340250Y1263480D03*
X264750Y1265980D03*
D41*
X288900Y986630D03*
X269900Y986630D03*
X279400Y965630D03*
D29*
X12700Y932180D03*
D13*
X80400Y1313180D03*
X97400Y1313180D03*
D36*
X20120Y1316670D02*
X20120Y1309690D01*
X13140Y1309690D01*
X13140Y1316670D01*
X20120Y1316670D01*
X20120Y1314490D02*
X13140Y1314490D01*
X37660Y1316670D02*
X37660Y1309690D01*
X30680Y1309690D01*
X30680Y1316670D01*
X37660Y1316670D01*
X37660Y1314490D02*
X30680Y1314490D01*
D42*
X747950Y942280D03*
X747950Y998280D03*
D43*
X711200Y955280D03*
X711200Y965280D03*
X711200Y975280D03*
X711200Y985280D03*
D16*
X666750Y999880D03*
X666750Y1016880D03*
X692150Y999880D03*
X692150Y1016880D03*
D29*
X749300Y1109980D03*
X749300Y1084580D03*
X749300Y1059180D03*
X749300Y1033780D03*
D16*
X82550Y1061330D03*
X82550Y1044330D03*
X101600Y1061330D03*
X101600Y1044330D03*
D33*
X271000Y1408780D03*
X282000Y1408780D03*
X293000Y1408780D03*
X304000Y1408780D03*
X315000Y1408780D03*
X326000Y1408780D03*
X337000Y1408780D03*
X348000Y1408780D03*
X359000Y1408780D03*
X370000Y1408780D03*
X381000Y1408780D03*
X392000Y1408780D03*
X403000Y1408780D03*
X414000Y1408780D03*
X425000Y1408780D03*
X436000Y1408780D03*
X447000Y1408780D03*
X458000Y1408780D03*
X469000Y1408780D03*
X480000Y1408780D03*
X491000Y1408780D03*
D44*
X500500Y1423280D03*
X500500Y1434280D03*
X500500Y1445280D03*
X500500Y1456280D03*
X500500Y1467280D03*
X500500Y1478280D03*
X500500Y1489280D03*
X500500Y1500280D03*
X500500Y1511280D03*
X500500Y1522280D03*
X500500Y1533280D03*
D33*
X491000Y1547780D03*
X480000Y1547780D03*
X469000Y1547780D03*
X458000Y1547780D03*
X447000Y1547780D03*
X436000Y1547780D03*
X425000Y1547780D03*
X414000Y1547780D03*
X403000Y1547780D03*
X392000Y1547780D03*
X381000Y1547780D03*
X370000Y1547780D03*
X359000Y1547780D03*
X348000Y1547780D03*
X337000Y1547780D03*
X326000Y1547780D03*
X315000Y1547780D03*
X304000Y1547780D03*
X293000Y1547780D03*
X282000Y1547780D03*
X271000Y1547780D03*
D44*
X261500Y1533280D03*
X261500Y1522280D03*
X261500Y1511280D03*
X261500Y1500280D03*
X261500Y1489280D03*
X261500Y1478280D03*
X261500Y1467280D03*
X261500Y1456280D03*
X261500Y1445280D03*
X261500Y1434280D03*
X261500Y1423280D03*
D45*
X278500Y1425780D03*
X278500Y1446780D03*
X278500Y1467780D03*
X278500Y1488780D03*
X278500Y1509780D03*
X278500Y1530780D03*
X296500Y1425780D03*
X296500Y1446780D03*
X296500Y1467780D03*
X296500Y1488780D03*
X296500Y1509780D03*
X296500Y1530780D03*
X314500Y1425780D03*
X314500Y1530780D03*
X350500Y1425780D03*
X350500Y1530780D03*
X483500Y1530780D03*
X483500Y1509780D03*
X483500Y1488780D03*
X483500Y1467780D03*
X483500Y1446780D03*
X483500Y1425780D03*
X465500Y1530780D03*
X465500Y1509780D03*
X465500Y1488780D03*
X465500Y1467780D03*
X465500Y1446780D03*
X465500Y1425780D03*
X447500Y1530780D03*
X447500Y1425780D03*
X411500Y1530780D03*
X411500Y1425780D03*
D46*
X396525Y1226980D03*
D47*
X396000Y1230980D03*
X396000Y1234980D03*
X396000Y1238980D03*
X396000Y1242980D03*
D46*
X396525Y1246980D03*
D48*
X391000Y1252505D03*
D49*
X387000Y1251980D03*
X383000Y1251980D03*
X379000Y1251980D03*
X375000Y1251980D03*
D48*
X371000Y1252505D03*
D46*
X365475Y1246980D03*
D47*
X366000Y1242980D03*
X366000Y1238980D03*
X366000Y1234980D03*
X366000Y1230980D03*
D46*
X365475Y1226980D03*
D48*
X371000Y1221455D03*
D49*
X375000Y1221980D03*
X379000Y1221980D03*
X383000Y1221980D03*
X387000Y1221980D03*
D48*
X391000Y1221455D03*
D50*
X392510Y1226985D03*
D51*
X390995Y1248490D03*
D50*
X369490Y1246975D03*
D51*
X371005Y1225470D03*
X390995Y1225470D03*
D50*
X392510Y1246975D03*
D51*
X371005Y1248490D03*
D50*
X369490Y1226985D03*
D13*
X372500Y1278890D03*
X389500Y1278890D03*
D16*
X412750Y1245480D03*
X412750Y1228480D03*
X431800Y1245480D03*
X431800Y1228480D03*
D52*
X457050Y1228730D03*
X463550Y1228730D03*
X470050Y1228730D03*
X470050Y1245230D03*
X457050Y1245230D03*
D13*
X455050Y1196340D03*
X472050Y1196340D03*
D53*
X429690Y1273730D03*
X429690Y1263730D03*
X441190Y1268730D03*
D16*
X412750Y1261500D03*
X412750Y1278500D03*
D54*
X122600Y1582980D03*
D55*
X165100Y1536980D03*
D54*
X207600Y1582980D03*
X554400Y1582980D03*
D55*
X596900Y1536980D03*
D54*
X639400Y1582980D03*
D56*
X367999Y1030580D03*
X367999Y1021080D03*
X367999Y1011580D03*
X394001Y1011580D03*
X394001Y1030580D03*
D16*
X393700Y1067680D03*
X393700Y1050680D03*
D13*
X345050Y967740D03*
X328050Y967740D03*
D36*
X462480Y884870D02*
X462480Y877890D01*
X462480Y884870D02*
X469460Y884870D01*
X469460Y877890D01*
X462480Y877890D01*
X462480Y882690D02*
X469460Y882690D01*
X444940Y884870D02*
X444940Y877890D01*
X444940Y884870D02*
X451920Y884870D01*
X451920Y877890D01*
X444940Y877890D01*
X444940Y882690D02*
X451920Y882690D01*
D13*
X448700Y906780D03*
X465700Y906780D03*
D57*
X391000Y931080D03*
X371000Y931080D03*
D58*
X415000Y879080D03*
X347000Y879080D03*
D29*
X368300Y881380D03*
X393700Y881380D03*
D59*
X629650Y1471930D03*
X629650Y1459230D03*
X629650Y1446530D03*
X629650Y1433830D03*
X629650Y1421130D03*
X629650Y1408430D03*
D60*
X693850Y1393280D03*
X636350Y1393280D03*
X636350Y1486780D03*
X693850Y1486780D03*
D61*
X751050Y1395530D03*
X751050Y1484830D03*
D62*
X419100Y1574730D03*
X428600Y1574730D03*
X409600Y1574730D03*
X428600Y1597730D03*
X419100Y1597730D03*
X409600Y1597730D03*
D29*
X12700Y1490980D03*
X12700Y1465580D03*
X12700Y1440180D03*
X12700Y1414780D03*
D16*
X392430Y1575190D03*
X392430Y1592190D03*
X461010Y1575190D03*
X461010Y1592190D03*
X445770Y1592190D03*
X445770Y1575190D03*
X377190Y1592190D03*
X377190Y1575190D03*
X361950Y1592190D03*
X361950Y1575190D03*
D13*
X455050Y1268730D03*
X472050Y1268730D03*
D16*
X297180Y1571380D03*
X297180Y1588380D03*
X281940Y1571380D03*
X281940Y1588380D03*
X266700Y1571380D03*
X266700Y1588380D03*
D63*
X195580Y1502537D03*
X195580Y1511173D03*
X233680Y1510792D03*
X233680Y1519428D03*
D64*
X220430Y1511300D03*
X208830Y1511300D03*
X197570Y1445260D03*
X185970Y1445260D03*
D13*
X230750Y1445260D03*
X213750Y1445260D03*
D64*
X197570Y1465580D03*
X185970Y1465580D03*
D65*
X596290Y1349709D03*
X605790Y1349709D03*
X615290Y1349709D03*
X615290Y1375711D03*
X596290Y1375711D03*
D13*
X596510Y1405890D03*
X579510Y1405890D03*
X596510Y1421130D03*
X579510Y1421130D03*
D16*
X596900Y1490100D03*
X596900Y1507100D03*
X596900Y1438030D03*
X596900Y1455030D03*
D13*
X596510Y1471930D03*
X579510Y1471930D03*
D16*
X579755Y1317870D03*
X579755Y1300870D03*
D66*
X533400Y1522010D03*
X533400Y1533610D03*
D67*
X553600Y1442980D03*
X548600Y1442980D03*
X543600Y1442980D03*
X538600Y1442980D03*
X553600Y1411980D03*
X548600Y1411980D03*
X543600Y1411980D03*
X538600Y1411980D03*
D16*
X548640Y1391530D03*
X548640Y1374530D03*
X448310Y1340730D03*
X448310Y1323730D03*
D13*
X291710Y1303020D03*
X274710Y1303020D03*
D68*
X457560Y1357480D03*
X457560Y1370480D03*
X439060Y1363980D03*
D16*
X472440Y1323730D03*
X472440Y1340730D03*
D69*
X524660Y1322730D03*
X511660Y1322730D03*
X524660Y1341730D03*
X511660Y1341730D03*
X518160Y1341730D03*
D68*
X495660Y1357480D03*
X495660Y1370480D03*
X477160Y1363980D03*
D16*
X495300Y1323730D03*
X495300Y1340730D03*
D53*
X508430Y1584880D03*
X508430Y1574880D03*
X519930Y1579880D03*
D16*
X488950Y1575190D03*
X488950Y1592190D03*
D13*
X524120Y1598930D03*
X507120Y1598930D03*
D29*
X12700Y1059180D03*
X12700Y1033780D03*
X12700Y1008380D03*
X12700Y982980D03*
X12700Y957580D03*
D41*
X479400Y992980D03*
X460400Y992980D03*
X469900Y971980D03*
D13*
X287410Y1385570D03*
X304410Y1385570D03*
D68*
X136250Y1335890D03*
X136250Y1348890D03*
X117750Y1342390D03*
D13*
X167250Y1336040D03*
X150250Y1336040D03*
X97400Y1351280D03*
X80400Y1351280D03*
D36*
X30680Y1347790D02*
X30680Y1354770D01*
X37660Y1354770D01*
X37660Y1347790D01*
X30680Y1347790D01*
X30680Y1352590D02*
X37660Y1352590D01*
X13140Y1354770D02*
X13140Y1347790D01*
X13140Y1354770D02*
X20120Y1354770D01*
X20120Y1347790D01*
X13140Y1347790D01*
X13140Y1352590D02*
X20120Y1352590D01*
D68*
X136250Y1363830D03*
X136250Y1376830D03*
X117750Y1370330D03*
D13*
X167250Y1363980D03*
X150250Y1363980D03*
X97400Y1370330D03*
X80400Y1370330D03*
D36*
X30680Y1366840D02*
X30680Y1373820D01*
X37660Y1373820D01*
X37660Y1366840D01*
X30680Y1366840D01*
X30680Y1371640D02*
X37660Y1371640D01*
X13140Y1373820D02*
X13140Y1366840D01*
X13140Y1373820D02*
X20120Y1373820D01*
X20120Y1366840D01*
X13140Y1366840D01*
X13140Y1371640D02*
X20120Y1371640D01*
D13*
X427600Y1384300D03*
X410600Y1384300D03*
X377580Y1384300D03*
X394580Y1384300D03*
D29*
X12700Y1516380D03*
D13*
X67700Y1516380D03*
X84700Y1516380D03*
X67700Y1541780D03*
X84700Y1541780D03*
D29*
X12700Y1541780D03*
D13*
X472050Y1211580D03*
X455050Y1211580D03*
X461400Y1008380D03*
X478400Y1008380D03*
X167250Y1408430D03*
X150250Y1408430D03*
X469510Y1303020D03*
X452510Y1303020D03*
X274710Y1318260D03*
X291710Y1318260D03*
X291710Y1333500D03*
X274710Y1333500D03*
D26*
X184150Y1150620D03*
X184150Y1094740D03*
X146050Y1150620D03*
X146050Y1094740D03*
D16*
X367030Y1067680D03*
X367030Y1050680D03*
D68*
X136250Y1391770D03*
X136250Y1404770D03*
X117750Y1398270D03*
D13*
X167250Y1391920D03*
X150250Y1391920D03*
X97400Y1389380D03*
X80400Y1389380D03*
D36*
X30680Y1385890D02*
X30680Y1392870D01*
X37660Y1392870D01*
X37660Y1385890D01*
X30680Y1385890D01*
X30680Y1390690D02*
X37660Y1390690D01*
X13140Y1392870D02*
X13140Y1385890D01*
X13140Y1392870D02*
X20120Y1392870D01*
X20120Y1385890D01*
X13140Y1385890D01*
X13140Y1390690D02*
X20120Y1390690D01*
D13*
X150250Y1424940D03*
X167250Y1424940D03*
D70*
X370840Y981710D03*
X411540Y981710D03*
D16*
X251460Y1571380D03*
X251460Y1588380D03*
D71*
X427880Y1359960D03*
X421380Y1359960D03*
X414880Y1359960D03*
X408380Y1359960D03*
X401880Y1359960D03*
X395380Y1359960D03*
X388880Y1359960D03*
X382380Y1359960D03*
X382380Y1301960D03*
X388880Y1301960D03*
X395380Y1301960D03*
X401880Y1301960D03*
X408380Y1301960D03*
X414880Y1301960D03*
X421380Y1301960D03*
X427880Y1301960D03*
X360570Y1359960D03*
X354070Y1359960D03*
X347570Y1359960D03*
X341070Y1359960D03*
X334570Y1359960D03*
X328070Y1359960D03*
X321570Y1359960D03*
X315070Y1359960D03*
X315070Y1301960D03*
X321570Y1301960D03*
X328070Y1301960D03*
X334570Y1301960D03*
X341070Y1301960D03*
X347570Y1301960D03*
X354070Y1301960D03*
X360570Y1301960D03*
X412640Y1196130D03*
X406140Y1196130D03*
X399640Y1196130D03*
X393140Y1196130D03*
X386640Y1196130D03*
X380140Y1196130D03*
X373640Y1196130D03*
X367140Y1196130D03*
X367140Y1138130D03*
X373640Y1138130D03*
X380140Y1138130D03*
X386640Y1138130D03*
X393140Y1138130D03*
X399640Y1138130D03*
X406140Y1138130D03*
X412640Y1138130D03*
D72*
X329190Y986910D03*
X329190Y991910D03*
X329190Y996910D03*
X329190Y1001910D03*
X349190Y1001910D03*
X349190Y996910D03*
X349190Y991910D03*
X349190Y986910D03*
D73*
X339090Y994410D03*
D68*
X543835Y1306980D03*
X543835Y1293980D03*
X562335Y1300480D03*
D16*
X543560Y1340730D03*
X543560Y1323730D03*
D13*
X597290Y1332230D03*
X614290Y1332230D03*
D68*
X599290Y1298850D03*
X612290Y1298850D03*
X605790Y1317350D03*
D10*
X965080Y916080D03*
X960080Y916080D03*
D11*
X989830Y916080D03*
X982080Y916080D03*
D10*
X975080Y916080D03*
X970080Y916080D03*
X950080Y916080D03*
X955080Y916080D03*
D11*
X925330Y916080D03*
X933080Y916080D03*
D10*
X940080Y916080D03*
X945080Y916080D03*
D12*
X928680Y905030D03*
X986480Y905030D03*
D13*
X923680Y932180D03*
X940680Y932180D03*
X991480Y932180D03*
X974480Y932180D03*
D14*
X971330Y947830D03*
X971330Y954330D03*
X971330Y960830D03*
X971330Y967330D03*
X943830Y967330D03*
X943830Y960830D03*
X943830Y954330D03*
X943830Y947830D03*
D15*
X957580Y957580D03*
D16*
X919480Y949080D03*
X919480Y966080D03*
D17*
X774700Y863600D03*
X1521460Y1611630D03*
D18*
X1372980Y1252680D03*
D19*
X1363980Y1239680D03*
D18*
X1372980Y1262680D03*
X1354980Y1262680D03*
X1354980Y1252680D03*
D20*
X1357355Y1239680D02*
X1357357Y1239843D01*
X1357363Y1240005D01*
X1357373Y1240167D01*
X1357387Y1240329D01*
X1357405Y1240491D01*
X1357427Y1240652D01*
X1357453Y1240813D01*
X1357482Y1240972D01*
X1357516Y1241132D01*
X1357554Y1241290D01*
X1357595Y1241447D01*
X1357640Y1241603D01*
X1357689Y1241758D01*
X1357742Y1241912D01*
X1357799Y1242064D01*
X1357859Y1242215D01*
X1357923Y1242365D01*
X1357991Y1242513D01*
X1358062Y1242659D01*
X1358137Y1242803D01*
X1358216Y1242945D01*
X1358298Y1243086D01*
X1358383Y1243224D01*
X1358472Y1243361D01*
X1358564Y1243495D01*
X1358659Y1243627D01*
X1358757Y1243756D01*
X1358859Y1243883D01*
X1358963Y1244007D01*
X1359071Y1244129D01*
X1359182Y1244248D01*
X1359295Y1244365D01*
X1359412Y1244478D01*
X1359531Y1244589D01*
X1359653Y1244697D01*
X1359777Y1244801D01*
X1359904Y1244903D01*
X1360033Y1245001D01*
X1360165Y1245096D01*
X1360299Y1245188D01*
X1360436Y1245277D01*
X1360574Y1245362D01*
X1360715Y1245444D01*
X1360857Y1245523D01*
X1361001Y1245598D01*
X1361147Y1245669D01*
X1361295Y1245737D01*
X1361445Y1245801D01*
X1361596Y1245861D01*
X1361748Y1245918D01*
X1361902Y1245971D01*
X1362057Y1246020D01*
X1362213Y1246065D01*
X1362370Y1246106D01*
X1362528Y1246144D01*
X1362688Y1246178D01*
X1362847Y1246207D01*
X1363008Y1246233D01*
X1363169Y1246255D01*
X1363331Y1246273D01*
X1363493Y1246287D01*
X1363655Y1246297D01*
X1363817Y1246303D01*
X1363980Y1246305D01*
X1364143Y1246303D01*
X1364305Y1246297D01*
X1364467Y1246287D01*
X1364629Y1246273D01*
X1364791Y1246255D01*
X1364952Y1246233D01*
X1365113Y1246207D01*
X1365272Y1246178D01*
X1365432Y1246144D01*
X1365590Y1246106D01*
X1365747Y1246065D01*
X1365903Y1246020D01*
X1366058Y1245971D01*
X1366212Y1245918D01*
X1366364Y1245861D01*
X1366515Y1245801D01*
X1366665Y1245737D01*
X1366813Y1245669D01*
X1366959Y1245598D01*
X1367103Y1245523D01*
X1367245Y1245444D01*
X1367386Y1245362D01*
X1367524Y1245277D01*
X1367661Y1245188D01*
X1367795Y1245096D01*
X1367927Y1245001D01*
X1368056Y1244903D01*
X1368183Y1244801D01*
X1368307Y1244697D01*
X1368429Y1244589D01*
X1368548Y1244478D01*
X1368665Y1244365D01*
X1368778Y1244248D01*
X1368889Y1244129D01*
X1368997Y1244007D01*
X1369101Y1243883D01*
X1369203Y1243756D01*
X1369301Y1243627D01*
X1369396Y1243495D01*
X1369488Y1243361D01*
X1369577Y1243224D01*
X1369662Y1243086D01*
X1369744Y1242945D01*
X1369823Y1242803D01*
X1369898Y1242659D01*
X1369969Y1242513D01*
X1370037Y1242365D01*
X1370101Y1242215D01*
X1370161Y1242064D01*
X1370218Y1241912D01*
X1370271Y1241758D01*
X1370320Y1241603D01*
X1370365Y1241447D01*
X1370406Y1241290D01*
X1370444Y1241132D01*
X1370478Y1240972D01*
X1370507Y1240813D01*
X1370533Y1240652D01*
X1370555Y1240491D01*
X1370573Y1240329D01*
X1370587Y1240167D01*
X1370597Y1240005D01*
X1370603Y1239843D01*
X1370605Y1239680D01*
X1370603Y1239517D01*
X1370597Y1239355D01*
X1370587Y1239193D01*
X1370573Y1239031D01*
X1370555Y1238869D01*
X1370533Y1238708D01*
X1370507Y1238547D01*
X1370478Y1238388D01*
X1370444Y1238228D01*
X1370406Y1238070D01*
X1370365Y1237913D01*
X1370320Y1237757D01*
X1370271Y1237602D01*
X1370218Y1237448D01*
X1370161Y1237296D01*
X1370101Y1237145D01*
X1370037Y1236995D01*
X1369969Y1236847D01*
X1369898Y1236701D01*
X1369823Y1236557D01*
X1369744Y1236415D01*
X1369662Y1236274D01*
X1369577Y1236136D01*
X1369488Y1235999D01*
X1369396Y1235865D01*
X1369301Y1235733D01*
X1369203Y1235604D01*
X1369101Y1235477D01*
X1368997Y1235353D01*
X1368889Y1235231D01*
X1368778Y1235112D01*
X1368665Y1234995D01*
X1368548Y1234882D01*
X1368429Y1234771D01*
X1368307Y1234663D01*
X1368183Y1234559D01*
X1368056Y1234457D01*
X1367927Y1234359D01*
X1367795Y1234264D01*
X1367661Y1234172D01*
X1367524Y1234083D01*
X1367386Y1233998D01*
X1367245Y1233916D01*
X1367103Y1233837D01*
X1366959Y1233762D01*
X1366813Y1233691D01*
X1366665Y1233623D01*
X1366515Y1233559D01*
X1366364Y1233499D01*
X1366212Y1233442D01*
X1366058Y1233389D01*
X1365903Y1233340D01*
X1365747Y1233295D01*
X1365590Y1233254D01*
X1365432Y1233216D01*
X1365272Y1233182D01*
X1365113Y1233153D01*
X1364952Y1233127D01*
X1364791Y1233105D01*
X1364629Y1233087D01*
X1364467Y1233073D01*
X1364305Y1233063D01*
X1364143Y1233057D01*
X1363980Y1233055D01*
X1363817Y1233057D01*
X1363655Y1233063D01*
X1363493Y1233073D01*
X1363331Y1233087D01*
X1363169Y1233105D01*
X1363008Y1233127D01*
X1362847Y1233153D01*
X1362688Y1233182D01*
X1362528Y1233216D01*
X1362370Y1233254D01*
X1362213Y1233295D01*
X1362057Y1233340D01*
X1361902Y1233389D01*
X1361748Y1233442D01*
X1361596Y1233499D01*
X1361445Y1233559D01*
X1361295Y1233623D01*
X1361147Y1233691D01*
X1361001Y1233762D01*
X1360857Y1233837D01*
X1360715Y1233916D01*
X1360574Y1233998D01*
X1360436Y1234083D01*
X1360299Y1234172D01*
X1360165Y1234264D01*
X1360033Y1234359D01*
X1359904Y1234457D01*
X1359777Y1234559D01*
X1359653Y1234663D01*
X1359531Y1234771D01*
X1359412Y1234882D01*
X1359295Y1234995D01*
X1359182Y1235112D01*
X1359071Y1235231D01*
X1358963Y1235353D01*
X1358859Y1235477D01*
X1358757Y1235604D01*
X1358659Y1235733D01*
X1358564Y1235865D01*
X1358472Y1235999D01*
X1358383Y1236136D01*
X1358298Y1236274D01*
X1358216Y1236415D01*
X1358137Y1236557D01*
X1358062Y1236701D01*
X1357991Y1236847D01*
X1357923Y1236995D01*
X1357859Y1237145D01*
X1357799Y1237296D01*
X1357742Y1237448D01*
X1357689Y1237602D01*
X1357640Y1237757D01*
X1357595Y1237913D01*
X1357554Y1238070D01*
X1357516Y1238228D01*
X1357482Y1238388D01*
X1357453Y1238547D01*
X1357427Y1238708D01*
X1357405Y1238869D01*
X1357387Y1239031D01*
X1357373Y1239193D01*
X1357363Y1239355D01*
X1357357Y1239517D01*
X1357355Y1239680D01*
D21*
X1363980Y1233180D03*
D22*
X1357480Y1239680D03*
X1370480Y1239680D03*
D21*
X1363980Y1246180D03*
D16*
X1332230Y1258180D03*
X1332230Y1241180D03*
D23*
X1503680Y1592580D03*
X792480Y1592580D03*
X1503680Y881380D03*
X792480Y881380D03*
D16*
X1236980Y953380D03*
X1236980Y936380D03*
D24*
X1077680Y900080D03*
D25*
X1057980Y949960D03*
X1034980Y949960D03*
D13*
X1037980Y932180D03*
X1054980Y932180D03*
X1435980Y1313180D03*
X1418980Y1313180D03*
X1435980Y1287780D03*
X1418980Y1287780D03*
D26*
X786130Y1094740D03*
X786130Y1150620D03*
X824230Y1094740D03*
X824230Y1150620D03*
D16*
X904240Y949080D03*
X904240Y966080D03*
D27*
X881380Y879080D03*
X881380Y909080D03*
D28*
X881380Y958880D03*
X881380Y930880D03*
D13*
X919090Y1004570D03*
X902090Y1004570D03*
X902090Y989330D03*
X919090Y989330D03*
D29*
X990600Y999490D03*
X1016000Y999490D03*
D30*
X1084580Y1040130D03*
X1071880Y1040130D03*
X1059180Y1040130D03*
X1046480Y1040130D03*
X1097280Y1040130D03*
X1084580Y1027430D03*
X1071880Y1027430D03*
X1059180Y1027430D03*
X1046480Y1027430D03*
X1097280Y1027430D03*
D26*
X849630Y1094740D03*
X849630Y1150620D03*
X887730Y1094740D03*
X887730Y1150620D03*
D29*
X779780Y1287780D03*
X779780Y1262380D03*
X779780Y1236980D03*
X779780Y1211580D03*
X779780Y1186180D03*
X1490980Y1135380D03*
X1490980Y1160780D03*
X1490980Y1186180D03*
X1490980Y1211580D03*
X1490980Y1236980D03*
X1490980Y1262380D03*
X1516380Y1135380D03*
X1516380Y1160780D03*
X1516380Y1186180D03*
X1516380Y1211580D03*
X1516380Y1236980D03*
X1516380Y1262380D03*
D31*
X1346230Y1029780D03*
X1289230Y1029780D03*
D32*
X1273230Y898280D03*
X1404730Y888280D03*
D33*
X1358130Y926780D03*
X1347130Y930780D03*
X1336130Y926780D03*
X1325130Y924780D03*
X1314130Y926780D03*
X1303130Y924780D03*
X1292130Y926780D03*
X1281130Y926780D03*
D29*
X1516380Y1363980D03*
X1516380Y1338580D03*
X1516380Y1313180D03*
X1516380Y1287780D03*
D34*
X1285280Y1133280D03*
D16*
X943610Y1006720D03*
X943610Y989720D03*
D35*
X961390Y1010990D03*
X961390Y987990D03*
D13*
X847480Y1332230D03*
X864480Y1332230D03*
D36*
X787200Y1335720D02*
X787200Y1328740D01*
X780220Y1328740D01*
X780220Y1335720D01*
X787200Y1335720D01*
X787200Y1333540D02*
X780220Y1333540D01*
X804740Y1335720D02*
X804740Y1328740D01*
X797760Y1328740D01*
X797760Y1335720D01*
X804740Y1335720D01*
X804740Y1333540D02*
X797760Y1333540D01*
D13*
X990990Y948690D03*
X1007990Y948690D03*
X990990Y963930D03*
X1007990Y963930D03*
X990990Y979170D03*
X1007990Y979170D03*
D37*
X1084580Y1073480D03*
D38*
X1084580Y1273480D03*
D39*
X1031830Y1080980D03*
D40*
X1039580Y1069980D03*
X1039580Y1276980D03*
D39*
X1107330Y1083480D03*
X1031830Y1085980D03*
X1107330Y1088480D03*
X1031830Y1090980D03*
X1107330Y1093480D03*
X1031830Y1095980D03*
X1107330Y1098480D03*
X1031830Y1100980D03*
X1107330Y1103480D03*
X1031830Y1105980D03*
X1107330Y1108480D03*
X1031830Y1110980D03*
X1107330Y1113480D03*
X1031830Y1115980D03*
X1107330Y1118480D03*
X1031830Y1120980D03*
X1107330Y1123480D03*
X1031830Y1125980D03*
X1107330Y1128480D03*
X1031830Y1130980D03*
X1107330Y1133480D03*
X1031830Y1135980D03*
X1107330Y1158480D03*
X1031830Y1160980D03*
X1107330Y1163480D03*
X1031830Y1165980D03*
X1107330Y1168480D03*
X1031830Y1170980D03*
X1107330Y1173480D03*
X1031830Y1175980D03*
X1107330Y1178480D03*
X1031830Y1180980D03*
X1107330Y1183480D03*
X1031830Y1185980D03*
X1107330Y1188480D03*
X1031830Y1190980D03*
X1107330Y1193480D03*
X1031830Y1195980D03*
X1107330Y1198480D03*
X1031830Y1200980D03*
X1107330Y1203480D03*
X1031830Y1205980D03*
X1107330Y1208480D03*
X1031830Y1210980D03*
X1107330Y1213480D03*
X1031830Y1215980D03*
X1107330Y1218480D03*
X1031830Y1220980D03*
X1107330Y1223480D03*
X1031830Y1225980D03*
X1107330Y1228480D03*
X1031830Y1230980D03*
X1107330Y1233480D03*
X1031830Y1235980D03*
X1107330Y1238480D03*
X1031830Y1240980D03*
X1107330Y1243480D03*
X1031830Y1245980D03*
X1107330Y1248480D03*
X1031830Y1250980D03*
X1107330Y1253480D03*
X1031830Y1255980D03*
X1107330Y1258480D03*
X1031830Y1260980D03*
X1107330Y1263480D03*
X1031830Y1265980D03*
D41*
X1055980Y986630D03*
X1036980Y986630D03*
X1046480Y965630D03*
D29*
X779780Y932180D03*
D13*
X847480Y1313180D03*
X864480Y1313180D03*
D36*
X787200Y1316670D02*
X787200Y1309690D01*
X780220Y1309690D01*
X780220Y1316670D01*
X787200Y1316670D01*
X787200Y1314490D02*
X780220Y1314490D01*
X804740Y1316670D02*
X804740Y1309690D01*
X797760Y1309690D01*
X797760Y1316670D01*
X804740Y1316670D01*
X804740Y1314490D02*
X797760Y1314490D01*
D42*
X1515030Y942280D03*
X1515030Y998280D03*
D43*
X1478280Y955280D03*
X1478280Y965280D03*
X1478280Y975280D03*
X1478280Y985280D03*
D16*
X1433830Y999880D03*
X1433830Y1016880D03*
X1459230Y999880D03*
X1459230Y1016880D03*
D29*
X1516380Y1109980D03*
X1516380Y1084580D03*
X1516380Y1059180D03*
X1516380Y1033780D03*
D16*
X849630Y1061330D03*
X849630Y1044330D03*
X868680Y1061330D03*
X868680Y1044330D03*
D33*
X1038080Y1408780D03*
X1049080Y1408780D03*
X1060080Y1408780D03*
X1071080Y1408780D03*
X1082080Y1408780D03*
X1093080Y1408780D03*
X1104080Y1408780D03*
X1115080Y1408780D03*
X1126080Y1408780D03*
X1137080Y1408780D03*
X1148080Y1408780D03*
X1159080Y1408780D03*
X1170080Y1408780D03*
X1181080Y1408780D03*
X1192080Y1408780D03*
X1203080Y1408780D03*
X1214080Y1408780D03*
X1225080Y1408780D03*
X1236080Y1408780D03*
X1247080Y1408780D03*
X1258080Y1408780D03*
D44*
X1267580Y1423280D03*
X1267580Y1434280D03*
X1267580Y1445280D03*
X1267580Y1456280D03*
X1267580Y1467280D03*
X1267580Y1478280D03*
X1267580Y1489280D03*
X1267580Y1500280D03*
X1267580Y1511280D03*
X1267580Y1522280D03*
X1267580Y1533280D03*
D33*
X1258080Y1547780D03*
X1247080Y1547780D03*
X1236080Y1547780D03*
X1225080Y1547780D03*
X1214080Y1547780D03*
X1203080Y1547780D03*
X1192080Y1547780D03*
X1181080Y1547780D03*
X1170080Y1547780D03*
X1159080Y1547780D03*
X1148080Y1547780D03*
X1137080Y1547780D03*
X1126080Y1547780D03*
X1115080Y1547780D03*
X1104080Y1547780D03*
X1093080Y1547780D03*
X1082080Y1547780D03*
X1071080Y1547780D03*
X1060080Y1547780D03*
X1049080Y1547780D03*
X1038080Y1547780D03*
D44*
X1028580Y1533280D03*
X1028580Y1522280D03*
X1028580Y1511280D03*
X1028580Y1500280D03*
X1028580Y1489280D03*
X1028580Y1478280D03*
X1028580Y1467280D03*
X1028580Y1456280D03*
X1028580Y1445280D03*
X1028580Y1434280D03*
X1028580Y1423280D03*
D45*
X1045580Y1425780D03*
X1045580Y1446780D03*
X1045580Y1467780D03*
X1045580Y1488780D03*
X1045580Y1509780D03*
X1045580Y1530780D03*
X1063580Y1425780D03*
X1063580Y1446780D03*
X1063580Y1467780D03*
X1063580Y1488780D03*
X1063580Y1509780D03*
X1063580Y1530780D03*
X1081580Y1425780D03*
X1081580Y1530780D03*
X1117580Y1425780D03*
X1117580Y1530780D03*
X1250580Y1530780D03*
X1250580Y1509780D03*
X1250580Y1488780D03*
X1250580Y1467780D03*
X1250580Y1446780D03*
X1250580Y1425780D03*
X1232580Y1530780D03*
X1232580Y1509780D03*
X1232580Y1488780D03*
X1232580Y1467780D03*
X1232580Y1446780D03*
X1232580Y1425780D03*
X1214580Y1530780D03*
X1214580Y1425780D03*
X1178580Y1530780D03*
X1178580Y1425780D03*
D46*
X1163605Y1226980D03*
D47*
X1163080Y1230980D03*
X1163080Y1234980D03*
X1163080Y1238980D03*
X1163080Y1242980D03*
D46*
X1163605Y1246980D03*
D48*
X1158080Y1252505D03*
D49*
X1154080Y1251980D03*
X1150080Y1251980D03*
X1146080Y1251980D03*
X1142080Y1251980D03*
D48*
X1138080Y1252505D03*
D46*
X1132555Y1246980D03*
D47*
X1133080Y1242980D03*
X1133080Y1238980D03*
X1133080Y1234980D03*
X1133080Y1230980D03*
D46*
X1132555Y1226980D03*
D48*
X1138080Y1221455D03*
D49*
X1142080Y1221980D03*
X1146080Y1221980D03*
X1150080Y1221980D03*
X1154080Y1221980D03*
D48*
X1158080Y1221455D03*
D50*
X1159590Y1226985D03*
D51*
X1158075Y1248490D03*
D50*
X1136570Y1246975D03*
D51*
X1138085Y1225470D03*
X1158075Y1225470D03*
D50*
X1159590Y1246975D03*
D51*
X1138085Y1248490D03*
D50*
X1136570Y1226985D03*
D13*
X1139580Y1278890D03*
X1156580Y1278890D03*
D16*
X1179830Y1245480D03*
X1179830Y1228480D03*
X1198880Y1245480D03*
X1198880Y1228480D03*
D52*
X1224130Y1228730D03*
X1230630Y1228730D03*
X1237130Y1228730D03*
X1237130Y1245230D03*
X1224130Y1245230D03*
D13*
X1222130Y1196340D03*
X1239130Y1196340D03*
D53*
X1196770Y1273730D03*
X1196770Y1263730D03*
X1208270Y1268730D03*
D16*
X1179830Y1261500D03*
X1179830Y1278500D03*
D54*
X889680Y1582980D03*
D55*
X932180Y1536980D03*
D54*
X974680Y1582980D03*
X1321480Y1582980D03*
D55*
X1363980Y1536980D03*
D54*
X1406480Y1582980D03*
D56*
X1135079Y1030580D03*
X1135079Y1021080D03*
X1135079Y1011580D03*
X1161081Y1011580D03*
X1161081Y1030580D03*
D16*
X1160780Y1067680D03*
X1160780Y1050680D03*
D13*
X1112130Y967740D03*
X1095130Y967740D03*
D36*
X1229560Y884870D02*
X1229560Y877890D01*
X1229560Y884870D02*
X1236540Y884870D01*
X1236540Y877890D01*
X1229560Y877890D01*
X1229560Y882690D02*
X1236540Y882690D01*
X1212020Y884870D02*
X1212020Y877890D01*
X1212020Y884870D02*
X1219000Y884870D01*
X1219000Y877890D01*
X1212020Y877890D01*
X1212020Y882690D02*
X1219000Y882690D01*
D13*
X1215780Y906780D03*
X1232780Y906780D03*
D57*
X1158080Y931080D03*
X1138080Y931080D03*
D58*
X1182080Y879080D03*
X1114080Y879080D03*
D29*
X1135380Y881380D03*
X1160780Y881380D03*
D59*
X1396730Y1471930D03*
X1396730Y1459230D03*
X1396730Y1446530D03*
X1396730Y1433830D03*
X1396730Y1421130D03*
X1396730Y1408430D03*
D60*
X1460930Y1393280D03*
X1403430Y1393280D03*
X1403430Y1486780D03*
X1460930Y1486780D03*
D61*
X1518130Y1395530D03*
X1518130Y1484830D03*
D62*
X1186180Y1574730D03*
X1195680Y1574730D03*
X1176680Y1574730D03*
X1195680Y1597730D03*
X1186180Y1597730D03*
X1176680Y1597730D03*
D29*
X779780Y1490980D03*
X779780Y1465580D03*
X779780Y1440180D03*
X779780Y1414780D03*
D16*
X1159510Y1575190D03*
X1159510Y1592190D03*
X1228090Y1575190D03*
X1228090Y1592190D03*
X1212850Y1592190D03*
X1212850Y1575190D03*
X1144270Y1592190D03*
X1144270Y1575190D03*
X1129030Y1592190D03*
X1129030Y1575190D03*
D13*
X1222130Y1268730D03*
X1239130Y1268730D03*
D16*
X1064260Y1571380D03*
X1064260Y1588380D03*
X1049020Y1571380D03*
X1049020Y1588380D03*
X1033780Y1571380D03*
X1033780Y1588380D03*
D63*
X962660Y1502537D03*
X962660Y1511173D03*
X1000760Y1510792D03*
X1000760Y1519428D03*
D64*
X987510Y1511300D03*
X975910Y1511300D03*
X964650Y1445260D03*
X953050Y1445260D03*
D13*
X997830Y1445260D03*
X980830Y1445260D03*
D64*
X964650Y1465580D03*
X953050Y1465580D03*
D65*
X1363370Y1349709D03*
X1372870Y1349709D03*
X1382370Y1349709D03*
X1382370Y1375711D03*
X1363370Y1375711D03*
D13*
X1363590Y1405890D03*
X1346590Y1405890D03*
X1363590Y1421130D03*
X1346590Y1421130D03*
D16*
X1363980Y1490100D03*
X1363980Y1507100D03*
X1363980Y1438030D03*
X1363980Y1455030D03*
D13*
X1363590Y1471930D03*
X1346590Y1471930D03*
D16*
X1346835Y1317870D03*
X1346835Y1300870D03*
D66*
X1300480Y1522010D03*
X1300480Y1533610D03*
D67*
X1320680Y1442980D03*
X1315680Y1442980D03*
X1310680Y1442980D03*
X1305680Y1442980D03*
X1320680Y1411980D03*
X1315680Y1411980D03*
X1310680Y1411980D03*
X1305680Y1411980D03*
D16*
X1315720Y1391530D03*
X1315720Y1374530D03*
X1215390Y1340730D03*
X1215390Y1323730D03*
D13*
X1058790Y1303020D03*
X1041790Y1303020D03*
D68*
X1224640Y1357480D03*
X1224640Y1370480D03*
X1206140Y1363980D03*
D16*
X1239520Y1323730D03*
X1239520Y1340730D03*
D69*
X1291740Y1322730D03*
X1278740Y1322730D03*
X1291740Y1341730D03*
X1278740Y1341730D03*
X1285240Y1341730D03*
D68*
X1262740Y1357480D03*
X1262740Y1370480D03*
X1244240Y1363980D03*
D16*
X1262380Y1323730D03*
X1262380Y1340730D03*
D53*
X1275510Y1584880D03*
X1275510Y1574880D03*
X1287010Y1579880D03*
D16*
X1256030Y1575190D03*
X1256030Y1592190D03*
D13*
X1291200Y1598930D03*
X1274200Y1598930D03*
D29*
X779780Y1059180D03*
X779780Y1033780D03*
X779780Y1008380D03*
X779780Y982980D03*
X779780Y957580D03*
D41*
X1246480Y992980D03*
X1227480Y992980D03*
X1236980Y971980D03*
D13*
X1054490Y1385570D03*
X1071490Y1385570D03*
D68*
X903330Y1335890D03*
X903330Y1348890D03*
X884830Y1342390D03*
D13*
X934330Y1336040D03*
X917330Y1336040D03*
X864480Y1351280D03*
X847480Y1351280D03*
D36*
X797760Y1347790D02*
X797760Y1354770D01*
X804740Y1354770D01*
X804740Y1347790D01*
X797760Y1347790D01*
X797760Y1352590D02*
X804740Y1352590D01*
X780220Y1354770D02*
X780220Y1347790D01*
X780220Y1354770D02*
X787200Y1354770D01*
X787200Y1347790D01*
X780220Y1347790D01*
X780220Y1352590D02*
X787200Y1352590D01*
D68*
X903330Y1363830D03*
X903330Y1376830D03*
X884830Y1370330D03*
D13*
X934330Y1363980D03*
X917330Y1363980D03*
X864480Y1370330D03*
X847480Y1370330D03*
D36*
X797760Y1366840D02*
X797760Y1373820D01*
X804740Y1373820D01*
X804740Y1366840D01*
X797760Y1366840D01*
X797760Y1371640D02*
X804740Y1371640D01*
X780220Y1373820D02*
X780220Y1366840D01*
X780220Y1373820D02*
X787200Y1373820D01*
X787200Y1366840D01*
X780220Y1366840D01*
X780220Y1371640D02*
X787200Y1371640D01*
D13*
X1194680Y1384300D03*
X1177680Y1384300D03*
X1144660Y1384300D03*
X1161660Y1384300D03*
D29*
X779780Y1516380D03*
D13*
X834780Y1516380D03*
X851780Y1516380D03*
X834780Y1541780D03*
X851780Y1541780D03*
D29*
X779780Y1541780D03*
D13*
X1239130Y1211580D03*
X1222130Y1211580D03*
X1228480Y1008380D03*
X1245480Y1008380D03*
X934330Y1408430D03*
X917330Y1408430D03*
X1236590Y1303020D03*
X1219590Y1303020D03*
X1041790Y1318260D03*
X1058790Y1318260D03*
X1058790Y1333500D03*
X1041790Y1333500D03*
D26*
X951230Y1150620D03*
X951230Y1094740D03*
X913130Y1150620D03*
X913130Y1094740D03*
D16*
X1134110Y1067680D03*
X1134110Y1050680D03*
D68*
X903330Y1391770D03*
X903330Y1404770D03*
X884830Y1398270D03*
D13*
X934330Y1391920D03*
X917330Y1391920D03*
X864480Y1389380D03*
X847480Y1389380D03*
D36*
X797760Y1385890D02*
X797760Y1392870D01*
X804740Y1392870D01*
X804740Y1385890D01*
X797760Y1385890D01*
X797760Y1390690D02*
X804740Y1390690D01*
X780220Y1392870D02*
X780220Y1385890D01*
X780220Y1392870D02*
X787200Y1392870D01*
X787200Y1385890D01*
X780220Y1385890D01*
X780220Y1390690D02*
X787200Y1390690D01*
D13*
X917330Y1424940D03*
X934330Y1424940D03*
D70*
X1137920Y981710D03*
X1178620Y981710D03*
D16*
X1018540Y1571380D03*
X1018540Y1588380D03*
D71*
X1194960Y1359960D03*
X1188460Y1359960D03*
X1181960Y1359960D03*
X1175460Y1359960D03*
X1168960Y1359960D03*
X1162460Y1359960D03*
X1155960Y1359960D03*
X1149460Y1359960D03*
X1149460Y1301960D03*
X1155960Y1301960D03*
X1162460Y1301960D03*
X1168960Y1301960D03*
X1175460Y1301960D03*
X1181960Y1301960D03*
X1188460Y1301960D03*
X1194960Y1301960D03*
X1127650Y1359960D03*
X1121150Y1359960D03*
X1114650Y1359960D03*
X1108150Y1359960D03*
X1101650Y1359960D03*
X1095150Y1359960D03*
X1088650Y1359960D03*
X1082150Y1359960D03*
X1082150Y1301960D03*
X1088650Y1301960D03*
X1095150Y1301960D03*
X1101650Y1301960D03*
X1108150Y1301960D03*
X1114650Y1301960D03*
X1121150Y1301960D03*
X1127650Y1301960D03*
X1179720Y1196130D03*
X1173220Y1196130D03*
X1166720Y1196130D03*
X1160220Y1196130D03*
X1153720Y1196130D03*
X1147220Y1196130D03*
X1140720Y1196130D03*
X1134220Y1196130D03*
X1134220Y1138130D03*
X1140720Y1138130D03*
X1147220Y1138130D03*
X1153720Y1138130D03*
X1160220Y1138130D03*
X1166720Y1138130D03*
X1173220Y1138130D03*
X1179720Y1138130D03*
D72*
X1096270Y986910D03*
X1096270Y991910D03*
X1096270Y996910D03*
X1096270Y1001910D03*
X1116270Y1001910D03*
X1116270Y996910D03*
X1116270Y991910D03*
X1116270Y986910D03*
D73*
X1106170Y994410D03*
D68*
X1310915Y1306980D03*
X1310915Y1293980D03*
X1329415Y1300480D03*
D16*
X1310640Y1340730D03*
X1310640Y1323730D03*
D13*
X1364370Y1332230D03*
X1381370Y1332230D03*
D68*
X1366370Y1298850D03*
X1379370Y1298850D03*
X1372870Y1317350D03*
D30*
X-26238Y1680210D03*
X1555318Y1680210D03*
D74*
X-35293Y63500D02*
X-35290Y63722D01*
X-35282Y63944D01*
X-35268Y64166D01*
X-35249Y64388D01*
X-35225Y64608D01*
X-35195Y64829D01*
X-35160Y65048D01*
X-35119Y65267D01*
X-35073Y65484D01*
X-35022Y65700D01*
X-34965Y65915D01*
X-34903Y66129D01*
X-34836Y66340D01*
X-34764Y66551D01*
X-34686Y66759D01*
X-34604Y66965D01*
X-34516Y67169D01*
X-34424Y67372D01*
X-34326Y67571D01*
X-34224Y67768D01*
X-34117Y67963D01*
X-34005Y68155D01*
X-33888Y68344D01*
X-33767Y68531D01*
X-33641Y68714D01*
X-33511Y68894D01*
X-33376Y69071D01*
X-33238Y69244D01*
X-33095Y69414D01*
X-32947Y69581D01*
X-32796Y69744D01*
X-32641Y69903D01*
X-32482Y70058D01*
X-32319Y70209D01*
X-32152Y70357D01*
X-31982Y70500D01*
X-31809Y70638D01*
X-31632Y70773D01*
X-31452Y70903D01*
X-31269Y71029D01*
X-31082Y71150D01*
X-30893Y71267D01*
X-30701Y71379D01*
X-30506Y71486D01*
X-30309Y71588D01*
X-30110Y71686D01*
X-29907Y71778D01*
X-29703Y71866D01*
X-29497Y71948D01*
X-29289Y72026D01*
X-29078Y72098D01*
X-28867Y72165D01*
X-28653Y72227D01*
X-28438Y72284D01*
X-28222Y72335D01*
X-28005Y72381D01*
X-27786Y72422D01*
X-27567Y72457D01*
X-27346Y72487D01*
X-27126Y72511D01*
X-26904Y72530D01*
X-26682Y72544D01*
X-26460Y72552D01*
X-26238Y72555D01*
X-26016Y72552D01*
X-25794Y72544D01*
X-25572Y72530D01*
X-25350Y72511D01*
X-25130Y72487D01*
X-24909Y72457D01*
X-24690Y72422D01*
X-24471Y72381D01*
X-24254Y72335D01*
X-24038Y72284D01*
X-23823Y72227D01*
X-23609Y72165D01*
X-23398Y72098D01*
X-23187Y72026D01*
X-22979Y71948D01*
X-22773Y71866D01*
X-22569Y71778D01*
X-22366Y71686D01*
X-22167Y71588D01*
X-21970Y71486D01*
X-21775Y71379D01*
X-21583Y71267D01*
X-21394Y71150D01*
X-21207Y71029D01*
X-21024Y70903D01*
X-20844Y70773D01*
X-20667Y70638D01*
X-20494Y70500D01*
X-20324Y70357D01*
X-20157Y70209D01*
X-19994Y70058D01*
X-19835Y69903D01*
X-19680Y69744D01*
X-19529Y69581D01*
X-19381Y69414D01*
X-19238Y69244D01*
X-19100Y69071D01*
X-18965Y68894D01*
X-18835Y68714D01*
X-18709Y68531D01*
X-18588Y68344D01*
X-18471Y68155D01*
X-18359Y67963D01*
X-18252Y67768D01*
X-18150Y67571D01*
X-18052Y67372D01*
X-17960Y67169D01*
X-17872Y66965D01*
X-17790Y66759D01*
X-17712Y66551D01*
X-17640Y66340D01*
X-17573Y66129D01*
X-17511Y65915D01*
X-17454Y65700D01*
X-17403Y65484D01*
X-17357Y65267D01*
X-17316Y65048D01*
X-17281Y64829D01*
X-17251Y64608D01*
X-17227Y64388D01*
X-17208Y64166D01*
X-17194Y63944D01*
X-17186Y63722D01*
X-17183Y63500D01*
X-17186Y63278D01*
X-17194Y63056D01*
X-17208Y62834D01*
X-17227Y62612D01*
X-17251Y62392D01*
X-17281Y62171D01*
X-17316Y61952D01*
X-17357Y61733D01*
X-17403Y61516D01*
X-17454Y61300D01*
X-17511Y61085D01*
X-17573Y60871D01*
X-17640Y60660D01*
X-17712Y60449D01*
X-17790Y60241D01*
X-17872Y60035D01*
X-17960Y59831D01*
X-18052Y59628D01*
X-18150Y59429D01*
X-18252Y59232D01*
X-18359Y59037D01*
X-18471Y58845D01*
X-18588Y58656D01*
X-18709Y58469D01*
X-18835Y58286D01*
X-18965Y58106D01*
X-19100Y57929D01*
X-19238Y57756D01*
X-19381Y57586D01*
X-19529Y57419D01*
X-19680Y57256D01*
X-19835Y57097D01*
X-19994Y56942D01*
X-20157Y56791D01*
X-20324Y56643D01*
X-20494Y56500D01*
X-20667Y56362D01*
X-20844Y56227D01*
X-21024Y56097D01*
X-21207Y55971D01*
X-21394Y55850D01*
X-21583Y55733D01*
X-21775Y55621D01*
X-21970Y55514D01*
X-22167Y55412D01*
X-22366Y55314D01*
X-22569Y55222D01*
X-22773Y55134D01*
X-22979Y55052D01*
X-23187Y54974D01*
X-23398Y54902D01*
X-23609Y54835D01*
X-23823Y54773D01*
X-24038Y54716D01*
X-24254Y54665D01*
X-24471Y54619D01*
X-24690Y54578D01*
X-24909Y54543D01*
X-25130Y54513D01*
X-25350Y54489D01*
X-25572Y54470D01*
X-25794Y54456D01*
X-26016Y54448D01*
X-26238Y54445D01*
X-26460Y54448D01*
X-26682Y54456D01*
X-26904Y54470D01*
X-27126Y54489D01*
X-27346Y54513D01*
X-27567Y54543D01*
X-27786Y54578D01*
X-28005Y54619D01*
X-28222Y54665D01*
X-28438Y54716D01*
X-28653Y54773D01*
X-28867Y54835D01*
X-29078Y54902D01*
X-29289Y54974D01*
X-29497Y55052D01*
X-29703Y55134D01*
X-29907Y55222D01*
X-30110Y55314D01*
X-30309Y55412D01*
X-30506Y55514D01*
X-30701Y55621D01*
X-30893Y55733D01*
X-31082Y55850D01*
X-31269Y55971D01*
X-31452Y56097D01*
X-31632Y56227D01*
X-31809Y56362D01*
X-31982Y56500D01*
X-32152Y56643D01*
X-32319Y56791D01*
X-32482Y56942D01*
X-32641Y57097D01*
X-32796Y57256D01*
X-32947Y57419D01*
X-33095Y57586D01*
X-33238Y57756D01*
X-33376Y57929D01*
X-33511Y58106D01*
X-33641Y58286D01*
X-33767Y58469D01*
X-33888Y58656D01*
X-34005Y58845D01*
X-34117Y59037D01*
X-34224Y59232D01*
X-34326Y59429D01*
X-34424Y59628D01*
X-34516Y59831D01*
X-34604Y60035D01*
X-34686Y60241D01*
X-34764Y60449D01*
X-34836Y60660D01*
X-34903Y60871D01*
X-34965Y61085D01*
X-35022Y61300D01*
X-35073Y61516D01*
X-35119Y61733D01*
X-35160Y61952D01*
X-35195Y62171D01*
X-35225Y62392D01*
X-35249Y62612D01*
X-35268Y62834D01*
X-35282Y63056D01*
X-35290Y63278D01*
X-35293Y63500D01*
D75*
X-26238Y63500D03*
M02*
