M48
;GenerationSoftware,Autodesk,EAGLE,9.6.2*%
;CreationDate,2020-11-26T10:06:08Z*%
FMAT,2
ICI,OFF
METRIC,TZ,000.000
T10C0.300
T9C0.400
T8C0.508
T7C0.650
T6C0.800
T5C1.016
T4C1.100
T3C1.600
T2C3.302
T1C3.800
%
G90
M71
T1
X128528Y27730
X51820Y27730
X128528Y113328
X51820Y113328
T2
X79248Y159258
X150368Y159258
X73660Y73660
X2540Y73660
X73660Y2540
X2540Y2540
X150368Y88138
X79248Y88138
X150368Y73660
X79248Y73660
X150368Y2540
X79248Y2540
X73660Y159258
X2540Y159258
X73660Y88138
X2540Y88138
T3
X31750Y41750
X108458Y41750
X108458Y127348
X31750Y127348
T4
X31750Y21750
X108458Y21750
X108458Y107348
X31750Y107348
T5
X77978Y154178
X77978Y128778
X77978Y126238
X77978Y123698
X77978Y121158
X77978Y118618
X149098Y113538
X149098Y116078
X149098Y118618
X149098Y121158
X149098Y123698
X149098Y126238
X74930Y27940
X151638Y113538
X151638Y116078
X151638Y118618
X151638Y121158
X22352Y14351
X24892Y14351
X151638Y123698
X151638Y126238
X151638Y136398
X151638Y133858
X151638Y131318
X151638Y128778
X77978Y93218
X151638Y110998
X151638Y108458
X151638Y105918
X1270Y43180
X1270Y40640
X1270Y38100
X1270Y35560
X1270Y33020
X72390Y27940
X72390Y30480
X72390Y33020
X72390Y35560
X72390Y38100
X72390Y40640
X151638Y103378
X74930Y30480
X74930Y33020
X74930Y35560
X74930Y38100
X74930Y40640
X74930Y50800
X74930Y48260
X74930Y45720
X74930Y43180
X1270Y7620
X74930Y25400
X74930Y22860
X74930Y20320
X74930Y17780
X36830Y2540
X39370Y2540
X1270Y63500
X1270Y60960
X1270Y58420
X1270Y55880
X1270Y20320
X1270Y17780
X1270Y15240
X1270Y12700
X1270Y10160
X1270Y66040
X1270Y68580
X113538Y88138
X116078Y88138
X77978Y149098
X77978Y146558
X99060Y14351
X77978Y144018
X77978Y141478
X77978Y105918
X77978Y103378
X77978Y100838
X77978Y98298
X77978Y95758
X77978Y151638
X77978Y43180
X77978Y40640
X77978Y38100
X77978Y35560
X77978Y33020
X149098Y27940
X149098Y30480
X149098Y33020
X149098Y35560
X149098Y38100
X149098Y40640
X151638Y27940
X151638Y30480
X151638Y33020
X151638Y35560
X151638Y38100
X151638Y40640
X151638Y50800
X151638Y48260
X151638Y45720
X151638Y43180
X101600Y14351
X77978Y7620
X151638Y25400
X151638Y22860
X151638Y20320
X151638Y17780
X113538Y2540
X116078Y2540
X77978Y63500
X77978Y60960
X77978Y58420
X77978Y55880
X77978Y20320
X77978Y17780
X77978Y15240
X77978Y12700
X77978Y10160
X77978Y66040
X77978Y68580
X22352Y99949
X24892Y99949
X1270Y128778
X1270Y126238
X1270Y123698
X1270Y121158
X1270Y118618
X72390Y113538
X72390Y116078
X72390Y118618
X72390Y121158
X72390Y123698
X72390Y126238
X74930Y113538
X74930Y116078
X74930Y118618
X74930Y121158
X74930Y123698
X74930Y126238
X74930Y136398
X74930Y133858
X74930Y131318
X74930Y128778
X1270Y93218
X74930Y110998
X74930Y108458
X74930Y105918
X74930Y103378
X36830Y88138
X39370Y88138
X1270Y149098
X1270Y146558
X1270Y144018
X1270Y141478
X1270Y105918
X1270Y103378
X1270Y100838
X1270Y98298
X1270Y95758
X1270Y151638
X1270Y154178
X99060Y99949
X101600Y99949
T6
X59690Y38370
X136398Y38370
X59690Y123968
X136398Y123968
T7
X16160Y4905
X21940Y4905
X92868Y4905
X98648Y4905
X16160Y90503
X92868Y90503
X98648Y90503
X21940Y90503
T8
X105918Y102743
X104648Y102743
X109728Y102743
X33020Y102743
X31750Y18415
X30480Y18415
X29210Y18415
X27940Y18415
X33020Y18415
X31750Y17145
X30480Y17145
X29210Y17145
X27940Y17145
X33020Y17145
X109728Y18415
X31750Y104013
X30480Y104013
X29210Y104013
X108458Y18415
X107188Y18415
X105918Y18415
X104648Y18415
X27940Y102743
X108458Y17145
X107188Y17145
X105918Y17145
X109728Y17145
X27940Y104013
X33020Y104013
X31750Y102743
X30480Y102743
X29210Y102743
X108458Y104013
X107188Y104013
X104648Y17145
X105918Y104013
X104648Y104013
X109728Y104013
X108458Y102743
X107188Y102743
T9
X14732Y1255
X23368Y1255
X23368Y5435
X14732Y5435
X100076Y1255
X100076Y5435
X91440Y5435
X91440Y1255
X100076Y86853
X23368Y91033
X14732Y91033
X14732Y86853
X23368Y86853
X100076Y91033
X91440Y91033
X91440Y86853
T10
X31432Y11049
X29090Y10915
X20320Y16637
X51816Y49530
X29843Y19431
X8509Y5334
X9271Y5334
X16510Y9144
X16510Y9906
X16510Y10668
X42545Y12700
X42545Y11938
X42545Y13462
X58420Y49530
X22542Y24892
X14351Y16129
X23304Y34544
X21844Y23175
X18352Y22225
X57912Y40640
X61468Y39624
X61087Y41656
X67310Y26670
X43180Y30924
X35370Y27305
X35306Y20955
X10922Y47752
X19685Y22352
X35751Y24384
X57150Y24130
X57150Y20257
X10922Y45720
X18606Y15437
X29718Y28638
X30480Y20701
X34100Y20701
X70358Y16002
X65532Y16129
X54102Y54546
X53149Y54673
X29337Y31686
X37719Y31813
X41021Y35306
X31559Y38100
X30099Y38100
X40005Y35306
X35306Y36068
X39942Y29591
X37973Y26987
X28829Y35370
X61595Y60706
X40005Y67818
X64516Y55245
X42860Y70673
X65151Y56515
X43815Y70612
X61595Y59690
X40960Y70673
X54165Y60833
X24892Y52146
X19761Y54496
X55181Y60706
X25527Y51435
X19050Y53784
X45466Y53149
X23685Y50165
X18034Y52070
X18161Y38735
X18161Y35306
X49149Y70676
X27749Y22479
X39370Y43307
X45212Y43688
X28331Y22971
X40069Y42799
X58420Y59690
X53149Y58674
X54610Y57150
X32639Y53340
X33655Y53340
X34798Y53340
X35814Y53340
X50046Y73144
X55062Y59682
X27313Y52951
X28710Y51681
X27313Y51681
X17915Y53586
X30607Y44704
X35433Y51681
X42799Y51681
X44831Y49657
X44005Y44958
X10160Y15240
X36957Y44704
X32131Y51681
X39434Y49149
X37148Y50896
X40132Y48831
X40831Y49212
X41529Y48831
X21019Y45720
X25400Y45720
X30607Y46228
X33401Y43307
X31750Y39624
X34163Y42990
X32639Y39624
X35155Y42990
X23495Y47498
X24892Y46926
X8890Y12700
X41656Y26670
X42291Y34036
X42482Y42609
X42228Y38989
X36449Y40132
X38989Y40386
X52197Y73279
X29718Y29972
X32321Y25209
X38672Y23685
X55880Y8890
X48006Y42291
X46990Y53467
X24130Y49530
X9525Y55245
X10886Y49530
X10541Y55245
X10795Y51435
X44640Y53276
X22796Y50482
X24892Y35687
X23812Y35243
X33846Y29083
X32893Y28956
X32258Y33020
X32385Y33782
X32258Y35052
X23495Y41021
X23495Y40005
X23495Y38989
X11220Y53296
X20955Y40005
X14605Y38735
X35941Y34671
X54864Y35052
X43180Y32512
X35878Y33846
X55372Y34483
X43180Y31686
X31750Y53403
X16478Y16097
X37338Y29591
X53403Y63624
X49974Y71755
X130810Y40132
X129286Y8636
X108204Y38862
X119888Y40005
X80582Y36304
X115633Y26606
X105537Y36226
X117348Y23116
X79883Y36957
X116713Y26543
X104965Y36833
X116459Y23558
X103378Y74930
X104902Y74930
X106426Y74930
X109728Y74168
X109728Y71882
X105410Y66421
X108458Y66040
X108458Y63246
X108458Y61468
X109728Y58420
X114808Y62230
X121158Y66040
X121158Y58420
X112268Y58420
X117348Y58420
X114808Y58420
X114808Y67310
X116078Y67310
X110998Y62230
X117348Y62230
X100457Y64262
X98298Y64262
X94869Y64262
X92837Y65151
X91948Y66675
X91948Y68199
X94488Y68199
X94488Y66548
X97028Y67310
X99568Y67310
X93599Y58166
X97790Y60452
X102489Y55499
X126873Y55245
X130048Y69088
X127000Y68707
X131953Y67691
X133477Y67437
X128587Y65532
X131318Y65278
X133096Y65151
X135128Y67818
X137668Y67818
X137541Y65024
X135128Y60452
X133223Y55880
X141478Y61595
X142113Y74295
X142113Y71755
X142113Y69215
X122047Y74613
X118618Y73025
X137287Y50673
X131318Y42863
X134620Y38481
X119761Y36068
X123190Y38164
X125222Y34036
X113157Y35941
X128778Y5080
X121539Y15240
X122428Y8001
X128778Y15240
X135128Y15240
X138938Y5080
X147828Y8890
X117348Y8890
X117348Y6350
X109474Y9779
X112268Y16510
X117348Y20574
X101219Y6477
X95377Y8064
X91059Y7620
X88138Y11938
X105918Y3937
X86487Y17526
X91948Y16129
X90424Y12192
X97599Y15938
X78613Y26670
X86868Y26670
X91313Y26670
X101854Y21590
X101854Y41656
X101473Y30988
X112839Y31432
X101727Y33401
X103124Y44704
X103124Y46990
X77597Y46736
X90424Y55753
X91440Y52070
X91440Y49276
X130683Y71755
X130683Y74295
X98933Y74930
X98933Y72390
X98933Y69850
X87503Y69850
X87503Y72390
X87503Y74930
X89408Y67945
X95758Y11811
X96139Y14351
X102108Y10160
X102108Y11557
X120142Y5207
X122428Y3810
X113538Y74676
X115189Y74676
X117983Y36068
X122428Y52324
X126365Y52324
X113919Y49911
X124841Y44704
X81788Y67310
X81788Y59690
X84963Y59690
X146050Y18606
X122809Y48006
X101155Y24193
X114935Y43371
X98933Y32385
X98933Y28575
X126873Y38735
X126238Y36830
X83058Y34290
X86868Y33020
X89408Y33020
X86868Y43180
X86868Y39370
X91313Y46355
X138938Y22860
X141478Y24130
X141478Y20320
X123571Y31242
X93218Y19050
X97028Y19050
X86487Y22225
X105156Y40894
X110045Y42355
X132588Y11430
X113792Y27051
X87503Y73660
X87503Y71120
X98933Y73660
X98933Y71120
X98425Y68453
X88011Y68453
X102743Y69215
X105410Y64389
X100965Y67310
X130683Y73025
X130683Y70485
X130048Y65278
X128587Y67755
X142113Y73025
X142113Y70485
X139319Y67437
X140589Y68199
X137668Y66294
X124079Y66421
X121158Y64135
X120078Y67691
X124079Y64262
X138938Y19050
X137541Y63627
X137668Y60198
X137668Y58039
X137668Y55880
X137668Y53340
X135128Y53340
X135128Y50800
X140208Y50800
X135128Y58039
X135128Y66294
X134874Y63627
X132588Y63627
X131318Y63627
X97790Y62738
X99822Y60452
X94869Y62738
X93980Y60960
X97472Y57531
X99822Y57658
X118935Y49149
X101854Y74930
X104584Y53848
X123444Y22860
X94424Y16129
X119697Y26543
X111125Y29591
X113728Y32639
X138938Y44450
X109220Y15303
X117348Y32639
X132842Y59690
X78359Y54356
X85598Y67310
X100457Y71120
X107823Y71120
X112268Y19050
X121539Y13716
X126238Y74930
X84963Y17526
X112014Y40767
X110617Y22161
X121031Y35560
X121031Y34036
X127889Y41275
X94615Y56896
X141097Y46990
X146558Y11303
X148971Y10922
X133223Y41656
X131572Y50673
X129159Y45847
X118872Y45783
X112712Y43180
X117411Y29400
X134747Y47625
X96774Y4976
X97739Y35878
X107391Y7290
X99441Y20130
X99441Y21907
X96041Y7591
X96647Y35878
X106680Y8001
X85217Y2286
X85979Y2286
X93218Y44450
X93218Y43180
X102108Y4191
X142748Y17780
X108585Y13462
X122428Y22669
X108585Y12573
X122428Y21717
X140716Y43180
X140716Y45720
X105531Y23552
X117665Y43307
X106004Y24153
X118808Y43307
X104965Y39370
X106680Y25209
X108140Y11049
X105798Y10915
X97028Y16637
X128524Y49530
X106551Y19431
X85217Y5334
X85979Y5334
X93218Y9144
X93218Y9906
X93218Y10668
X119253Y12700
X119253Y11938
X119253Y13462
X135128Y49530
X99250Y24892
X91059Y16129
X100012Y34544
X98552Y23175
X95059Y22225
X134620Y40640
X138176Y39624
X137795Y41656
X144018Y26670
X119888Y30924
X112077Y27305
X112014Y20955
X87630Y47752
X96393Y22352
X112458Y24384
X133858Y24130
X133858Y20257
X87630Y45720
X95313Y15437
X106426Y28638
X107188Y20701
X110807Y20701
X147066Y16002
X142240Y16129
X130810Y54546
X129857Y54673
X106045Y31686
X114427Y31813
X117729Y35306
X108267Y38100
X106807Y38100
X116713Y35306
X112014Y36068
X116649Y29591
X114681Y26987
X105537Y35370
X138303Y60706
X116713Y67818
X141224Y55245
X119568Y70673
X141859Y56515
X120523Y70612
X138303Y59690
X117668Y70673
X130873Y60833
X101600Y52146
X96469Y54496
X131890Y60706
X102235Y51435
X95758Y53784
X122174Y53149
X100393Y50165
X94742Y52070
X94869Y38735
X94869Y35306
X125857Y70676
X104457Y22479
X116078Y43307
X121920Y43688
X105039Y22971
X116776Y42799
X135128Y59690
X129857Y58674
X131318Y57150
X109347Y53340
X110363Y53340
X111506Y53340
X112522Y53340
X126754Y73144
X131771Y59682
X104021Y52951
X105418Y51681
X104021Y51681
X94623Y53586
X107315Y44704
X112141Y51681
X119507Y51681
X121539Y49657
X120713Y44958
X86868Y15240
X113665Y44704
X108839Y51681
X116141Y49149
X113855Y50896
X116840Y48831
X117538Y49212
X118237Y48831
X97726Y45720
X102108Y45720
X107315Y46228
X110109Y43307
X108458Y39624
X110871Y42990
X109347Y39624
X111863Y42990
X100203Y47498
X101600Y46926
X85598Y12700
X118364Y26670
X118999Y34036
X119189Y42609
X118935Y38989
X113157Y40132
X115697Y40386
X128905Y73279
X106426Y29972
X109029Y25209
X115379Y23685
X132588Y8890
X124714Y42291
X123698Y53467
X100838Y49530
X86233Y55245
X87594Y49530
X87249Y55245
X87503Y51435
X121348Y53276
X99504Y50482
X101600Y35687
X100520Y35243
X110553Y29083
X109601Y28956
X108966Y33020
X109093Y33782
X108966Y35052
X100203Y41021
X100203Y40005
X100203Y38989
X87928Y53296
X97663Y40005
X91313Y38735
X112649Y34671
X131572Y35052
X119888Y32512
X112585Y33846
X132080Y34483
X119888Y31686
X108458Y53403
X93186Y16097
X114046Y29591
X130111Y63624
X126682Y71755
X54102Y125730
X52578Y94234
X31496Y124460
X43180Y125603
X3873Y121902
X38926Y112204
X28829Y121824
X40640Y108714
X3175Y122555
X40005Y112141
X28257Y122431
X39751Y109156
X26670Y160528
X28194Y160528
X29718Y160528
X33020Y159766
X33020Y157480
X28702Y152019
X31750Y151638
X31750Y148844
X31750Y147066
X33020Y144018
X38100Y147828
X44450Y151638
X44450Y144018
X35560Y144018
X40640Y144018
X38100Y144018
X38100Y152908
X39370Y152908
X34290Y147828
X40640Y147828
X23749Y149860
X21590Y149860
X18161Y149860
X16129Y150749
X15240Y152273
X15240Y153797
X17780Y153797
X17780Y152146
X20320Y152908
X22860Y152908
X16891Y143764
X21082Y146050
X25781Y141097
X50165Y140843
X53340Y154686
X50292Y154305
X55245Y153289
X56769Y153035
X51879Y151130
X54610Y150876
X56388Y150749
X58420Y153416
X60960Y153416
X60833Y150622
X58420Y146050
X56515Y141478
X64770Y147193
X65405Y159893
X65405Y157353
X65405Y154813
X45339Y160211
X41910Y158623
X60579Y136271
X54610Y128460
X57912Y124079
X43053Y121666
X46482Y123761
X48514Y119634
X36449Y121539
X52070Y90678
X44831Y100838
X45720Y93599
X52070Y100838
X58420Y100838
X62230Y90678
X71120Y94488
X40640Y94488
X40640Y91948
X32766Y95377
X35560Y102108
X40640Y106172
X24511Y92075
X18669Y93662
X14351Y93218
X11430Y97536
X29210Y89535
X9779Y103124
X15240Y101727
X13716Y97790
X20892Y101536
X1905Y112268
X10160Y112268
X14605Y112268
X25146Y107188
X25146Y127254
X24765Y116586
X36132Y117030
X25019Y118999
X26416Y130302
X26416Y132588
X889Y132334
X13716Y141351
X14732Y137668
X14732Y134874
X53975Y157353
X53975Y159893
X22225Y160528
X22225Y157988
X22225Y155448
X10795Y155448
X10795Y157988
X10795Y160528
X12700Y153543
X19050Y97409
X19431Y99949
X25400Y95758
X25400Y97155
X43434Y90805
X45720Y89408
X36830Y160274
X38481Y160274
X41275Y121666
X45720Y137922
X49657Y137922
X37211Y135509
X48133Y130302
X5080Y152908
X5080Y145288
X19939Y35878
X69342Y104203
X46101Y133604
X24447Y109791
X38227Y128968
X22225Y117983
X22225Y114173
X50165Y124333
X49530Y122428
X6350Y119888
X10160Y118618
X12700Y118618
X10160Y128778
X10160Y124968
X14605Y131953
X62230Y108458
X64770Y109728
X64770Y105918
X46863Y116840
X16510Y104648
X20320Y104648
X9779Y107823
X28448Y126492
X33338Y127952
X55880Y97028
X37084Y112649
X10795Y159258
X10795Y156718
X22225Y159258
X22225Y156718
X21717Y154051
X11303Y154051
X26035Y154813
X28702Y149987
X24257Y152908
X53975Y158623
X53975Y156083
X53340Y150876
X51879Y153353
X65405Y158623
X65405Y156083
X62611Y153035
X63881Y153797
X60960Y151892
X47371Y152019
X44450Y149733
X43371Y153289
X47371Y149860
X62230Y104648
X60833Y149225
X60960Y145796
X60960Y143637
X60960Y141478
X60960Y138938
X58420Y138938
X58420Y136398
X63500Y136398
X58420Y143637
X58420Y151892
X58166Y149225
X55880Y149225
X54610Y149225
X21082Y148336
X23114Y146050
X18161Y148336
X17272Y146558
X20765Y143129
X23114Y143256
X42228Y134747
X25146Y160528
X27876Y139446
X46736Y108458
X17717Y101727
X42990Y112141
X34417Y115189
X37021Y118237
X62230Y130048
X32512Y100901
X40640Y118237
X56134Y145288
X1651Y139954
X8890Y152908
X23749Y156718
X31115Y156718
X35560Y104648
X44831Y99314
X49530Y160528
X8255Y103124
X35306Y126365
X33909Y107759
X44323Y121158
X44323Y119634
X51181Y126873
X17907Y142494
X64389Y132588
X69850Y96901
X72263Y96520
X56515Y127254
X54864Y136271
X52451Y131445
X42164Y131382
X36005Y128778
X40704Y114998
X58039Y133223
X20066Y90574
X21031Y121475
X30683Y92888
X22733Y105727
X22733Y107505
X19333Y93189
X19939Y121475
X29972Y93599
X8509Y87884
X9271Y87884
X16510Y130048
X16510Y128778
X25400Y89789
X66040Y103378
X31877Y99060
X45720Y108267
X31877Y98171
X45720Y107315
X64008Y128778
X64008Y131318
X28823Y109150
X40958Y128905
X29296Y109751
X42101Y128905
X28257Y124968
X29972Y110807
X31432Y96647
X29090Y96513
X20320Y102235
X51816Y135128
X29843Y105029
X8509Y90932
X9271Y90932
X16510Y94742
X16510Y95504
X16510Y96266
X42545Y98298
X42545Y97536
X42545Y99060
X58420Y135128
X22542Y110490
X14351Y101727
X23304Y120142
X21844Y108773
X18352Y107823
X57912Y126238
X61468Y125222
X61087Y127254
X67310Y112268
X43180Y116522
X35370Y112903
X35306Y106553
X10922Y133350
X19685Y107950
X35751Y109982
X57150Y109728
X57150Y105854
X10922Y131318
X18606Y101035
X29718Y114236
X30480Y106299
X34100Y106299
X70358Y101600
X65532Y101727
X54102Y140145
X53149Y140272
X29337Y117284
X37719Y117411
X41021Y120904
X31559Y123698
X30099Y123698
X40005Y120904
X35306Y121666
X39942Y115189
X37973Y112585
X28829Y120967
X61595Y146304
X40005Y153416
X64516Y140843
X42860Y156271
X65151Y142113
X43815Y156210
X61595Y145288
X40960Y156271
X54165Y146431
X24892Y137744
X19761Y140094
X55181Y146304
X25527Y137033
X19050Y139383
X45466Y138748
X23685Y135763
X18034Y137668
X18161Y124333
X18161Y120904
X49149Y156274
X27749Y108077
X39370Y128905
X45212Y129286
X28331Y108569
X40069Y128397
X58420Y145288
X53149Y144272
X54610Y142748
X32639Y138938
X33655Y138938
X34798Y138938
X35814Y138938
X50046Y158742
X55062Y145280
X27313Y138549
X28710Y137279
X27313Y137279
X17915Y139184
X30607Y130302
X35433Y137279
X42799Y137279
X44831Y135255
X44005Y130556
X10160Y100838
X36957Y130302
X32131Y137279
X39434Y134747
X37148Y136494
X40132Y134430
X40831Y134811
X41529Y134430
X21019Y131318
X25400Y131318
X30607Y131826
X33401Y128905
X31750Y125222
X34163Y128587
X32639Y125222
X35155Y128587
X23495Y133096
X24892Y132525
X8890Y98298
X41656Y112268
X42291Y119634
X42482Y128206
X42228Y124587
X36449Y125730
X38989Y125984
X52197Y158877
X29718Y115570
X32321Y110807
X38672Y109283
X55880Y94488
X48006Y127889
X46990Y139065
X24130Y135128
X9525Y140843
X10886Y135128
X10541Y140843
X10795Y137033
X44640Y138875
X22796Y136081
X24892Y121285
X23812Y120840
X33846Y114681
X32893Y114554
X32258Y118618
X32385Y119380
X32258Y120650
X23495Y126619
X23495Y125603
X23495Y124587
X11220Y138894
X20955Y125603
X14605Y124333
X35941Y120269
X54864Y120650
X43180Y118110
X35878Y119443
X55372Y120081
X43180Y117284
X31750Y139002
X16478Y101695
X37338Y115189
X53403Y149222
X49974Y157353
X130810Y125730
X129286Y94234
X108204Y124460
X119888Y125603
X80582Y121902
X115633Y112204
X105537Y121824
X117348Y108714
X79883Y122555
X116713Y112141
X104965Y122431
X116459Y109156
X103378Y160528
X104902Y160528
X106426Y160528
X109728Y159766
X109728Y157480
X105410Y152019
X108458Y151638
X108458Y148844
X108458Y147066
X109728Y144018
X114808Y147828
X121158Y151638
X121158Y144018
X112268Y144018
X117348Y144018
X114808Y144018
X114808Y152908
X116078Y152908
X110998Y147828
X117348Y147828
X100457Y149860
X98298Y149860
X94869Y149860
X92837Y150749
X91948Y152273
X91948Y153797
X94488Y153797
X94488Y152146
X97028Y152908
X99568Y152908
X93599Y143764
X97790Y146050
X102489Y141097
X126873Y140843
X130048Y154686
X127000Y154305
X131953Y153289
X133477Y153035
X128587Y151130
X131318Y150876
X133096Y150749
X135128Y153416
X137668Y153416
X137541Y150622
X135128Y146050
X133223Y141478
X141478Y147193
X142113Y159893
X142113Y157353
X142113Y154813
X122047Y160211
X118618Y158623
X137287Y136271
X131318Y128460
X134620Y124079
X119761Y121666
X123190Y123761
X125222Y119634
X113157Y121539
X128778Y90678
X121539Y100838
X122428Y93599
X128778Y100838
X135128Y100838
X138938Y90678
X147828Y94488
X117348Y94488
X117348Y91948
X109474Y95377
X112268Y102108
X117348Y106172
X101219Y92075
X95377Y93662
X91059Y93218
X88138Y97536
X105918Y89535
X86487Y103124
X91948Y101727
X90424Y97790
X97599Y101536
X78613Y112268
X86868Y112268
X91313Y112268
X101854Y107188
X101854Y127254
X101473Y116586
X112839Y117030
X101727Y118999
X103124Y130302
X103124Y132588
X77597Y132334
X90424Y141351
X91440Y137668
X91440Y134874
X130683Y157353
X130683Y159893
X98933Y160528
X98933Y157988
X98933Y155448
X87503Y155448
X87503Y157988
X87503Y160528
X89408Y153543
X95758Y97409
X96139Y99949
X102108Y95758
X102108Y97155
X120142Y90805
X122428Y89408
X113538Y160274
X115189Y160274
X117983Y121666
X122428Y137922
X126365Y137922
X113919Y135509
X124841Y130302
X81788Y152908
X81788Y145288
X84963Y145288
X146050Y104203
X122809Y133604
X101155Y109791
X114935Y128968
X98933Y117983
X98933Y114173
X126873Y124333
X126238Y122428
X83058Y119888
X86868Y118618
X89408Y118618
X86868Y128778
X86868Y124968
X91313Y131953
X138938Y108458
X141478Y109728
X141478Y105918
X123571Y116840
X93218Y104648
X97028Y104648
X86487Y107823
X105156Y126492
X110045Y127952
X132588Y97028
X113792Y112649
X87503Y159258
X87503Y156718
X98933Y159258
X98933Y156718
X98425Y154051
X88011Y154051
X102743Y154813
X105410Y149987
X100965Y152908
X130683Y158623
X130683Y156083
X130048Y150876
X128587Y153353
X142113Y158623
X142113Y156083
X139319Y153035
X140589Y153797
X137668Y151892
X124079Y152019
X121158Y149733
X120078Y153289
X124079Y149860
X138938Y104648
X137541Y149225
X137668Y145796
X137668Y143637
X137668Y141478
X137668Y138938
X135128Y138938
X135128Y136398
X140208Y136398
X135128Y143637
X135128Y151892
X134874Y149225
X132588Y149225
X131318Y149225
X97790Y148336
X99822Y146050
X94869Y148336
X54102Y40132
X97472Y143129
X99822Y143256
X118935Y134747
X101854Y160528
X104584Y139446
X123444Y108458
X94424Y101727
X119697Y112141
X111125Y115189
X113728Y118237
X138938Y130048
X109220Y100901
X117348Y118237
X132842Y145288
X78359Y139954
X85598Y152908
X100457Y156718
X107823Y156718
X112268Y104648
X121539Y99314
X126238Y160528
X84963Y103124
X112014Y126365
X110617Y107759
X121031Y121158
X121031Y119634
X127889Y126873
X94615Y142494
X141097Y132588
X146558Y96901
X148971Y96520
X133223Y127254
X131572Y136271
X129159Y131445
X118872Y131382
X112712Y128778
X117411Y114998
X134747Y133223
X96774Y90574
X97739Y121475
X107391Y92888
X99441Y105727
X99441Y107505
X96041Y93189
X96647Y121475
X106680Y93599
X85217Y87884
X85979Y87884
X93218Y130048
X93218Y128778
X102108Y89789
X142748Y103378
X108585Y99060
X122428Y108267
X108585Y98171
X122428Y107315
X140716Y128778
X140716Y131318
X105531Y109150
X117665Y128905
X106004Y109751
X118808Y128905
X104965Y124968
X106680Y110807
X108140Y96647
X105798Y96513
X97028Y102235
X128524Y135128
X106551Y105029
X85217Y90932
X85979Y90932
X93218Y94742
X93218Y95504
X93218Y96266
X119253Y98298
X119253Y97536
X119253Y99060
X135128Y135128
X99250Y110490
X91059Y101727
X100012Y120142
X98552Y108773
X95059Y107823
X134620Y126238
X138176Y125222
X137795Y127254
X144018Y112268
X119888Y116522
X112077Y112903
X112014Y106553
X87630Y133350
X96393Y107950
X112458Y109982
X133858Y109728
X133858Y105854
X87630Y131318
X95313Y101035
X106426Y114236
X107188Y106299
X110807Y106299
X147066Y101600
X142240Y101727
X130810Y140145
X129857Y140272
X106045Y117284
X114427Y117411
X117729Y120904
X108267Y123698
X106807Y123698
X116713Y120904
X112014Y121666
X116649Y115189
X114681Y112585
X105537Y120967
X138303Y146304
X116713Y153416
X141224Y140843
X119568Y156271
X141859Y142113
X120523Y156210
X138303Y145288
X117668Y156271
X130873Y146431
X101600Y137744
X96469Y140094
X131890Y146304
X102235Y137033
X95758Y139383
X122174Y138748
X100393Y135763
X94742Y137668
X94869Y124333
X94869Y120904
X125857Y156274
X104457Y108077
X116078Y128905
X121920Y129286
X105039Y108569
X116776Y128397
X135128Y145288
X129857Y144272
X131318Y142748
X109347Y138938
X110363Y138938
X111506Y138938
X112522Y138938
X126754Y158742
X131771Y145280
X104021Y138549
X105418Y137279
X104021Y137279
X94623Y139184
X107315Y130302
X112141Y137279
X119507Y137279
X121539Y135255
X120713Y130556
X86868Y100838
X113665Y130302
X108839Y137279
X116141Y134747
X113855Y136494
X116840Y134430
X117538Y134811
X118237Y134430
X97726Y131318
X102108Y131318
X107315Y131826
X110109Y128905
X108458Y125222
X110871Y128587
X109347Y125222
X111863Y128587
X100203Y133096
X101600Y132525
X85598Y98298
X118364Y112268
X118999Y119634
X119189Y128206
X118935Y124587
X113157Y125730
X115697Y125984
X128905Y158877
X106426Y115570
X109029Y110807
X115379Y109283
X132588Y94488
X124714Y127889
X123698Y139065
X100838Y135128
X86233Y140843
X87594Y135128
X87249Y140843
X87503Y137033
X121348Y138875
X99504Y136081
X101600Y121285
X100520Y120840
X110553Y114681
X109601Y114554
X108966Y118618
X109093Y119380
X108966Y120650
X100203Y126619
X100203Y125603
X100203Y124587
X87928Y138894
X97663Y125603
X91313Y124333
X112649Y120269
X131572Y120650
X119888Y118110
X112585Y119443
X132080Y120081
X119888Y117284
X108458Y139002
X93186Y101695
X114046Y115189
X130111Y149222
X126682Y157353
X52578Y8636
X31496Y38862
X43180Y40005
X3873Y36304
X38926Y26606
X28829Y36226
X40640Y23116
X3175Y36957
X40005Y26543
X28257Y36833
X39751Y23558
X26670Y74930
X28194Y74930
X29718Y74930
X33020Y74168
X33020Y71882
X28702Y66421
X31750Y66040
X31750Y63246
X8255Y145288
X31750Y61468
X33020Y58420
X38100Y62230
X44450Y66040
X44450Y58420
X35560Y58420
X40640Y58420
X38100Y58420
X38100Y67310
X39370Y67310
X34290Y62230
X40640Y62230
X23749Y64262
X21590Y64262
X18161Y64262
X16129Y65151
X15240Y66675
X15240Y68199
X17780Y68199
X17780Y66548
X20320Y67310
X22860Y67310
X16891Y58166
X21082Y60452
X25781Y55499
X50165Y55245
X53340Y69088
X50292Y68707
X55245Y67691
X56769Y67437
X51879Y65532
X54610Y65278
X56388Y65151
X58420Y67818
X60960Y67818
X60833Y65024
X58420Y60452
X56515Y55880
X64770Y61595
X65405Y74295
X65405Y71755
X65405Y69215
X45339Y74613
X41910Y73025
X60579Y50673
X54610Y42863
X57912Y38481
X43053Y36068
X46482Y38164
X48514Y34036
X36449Y35941
X52070Y5080
X44831Y15240
X45720Y8001
X52070Y15240
X58420Y15240
X62230Y5080
X71120Y8890
X40640Y8890
X40640Y6350
X32766Y9779
X35560Y16510
X40640Y20574
X24511Y6477
X18669Y8064
X14351Y7620
X11430Y11938
X29210Y3937
X9779Y17526
X15240Y16129
X13716Y12192
X20892Y15938
X1905Y26670
X10160Y26670
X14605Y26670
X25146Y21590
X25146Y41656
X24765Y30988
X36132Y31432
X25019Y33401
X26416Y44704
X26416Y46990
X889Y46736
X13716Y55753
X14732Y52070
X14732Y49276
X53975Y71755
X53975Y74295
X22225Y74930
X22225Y72390
X22225Y69850
X10795Y69850
X10795Y72390
X10795Y74930
X12700Y67945
X19050Y11811
X19431Y14351
X25400Y10160
X25400Y11557
X43434Y5207
X45720Y3810
X36830Y74676
X38481Y74676
X41275Y36068
X45720Y52324
X49657Y52324
X37211Y49911
X48133Y44704
X5080Y67310
X5080Y59690
X8255Y59690
X69342Y18606
X46101Y48006
X24447Y24193
X38227Y43371
X22225Y32385
X22225Y28575
X50165Y38735
X49530Y36830
X6350Y34290
X10160Y33020
X12700Y33020
X10160Y43180
X10160Y39370
X14605Y46355
X62230Y22860
X64770Y24130
X64770Y20320
X46863Y31242
X16510Y19050
X20320Y19050
X9779Y22225
X28448Y40894
X33338Y42355
X55880Y11430
X37084Y27051
X10795Y73660
X10795Y71120
X22225Y73660
X22225Y71120
X21717Y68453
X11303Y68453
X26035Y69215
X28702Y64389
X24257Y67310
X53975Y73025
X53975Y70485
X53340Y65278
X51879Y67755
X65405Y73025
X65405Y70485
X62611Y67437
X63881Y68199
X60960Y66294
X47371Y66421
X44450Y64135
X43371Y67691
X47371Y64262
X62230Y19050
X60833Y63627
X60960Y60198
X60960Y58039
X60960Y55880
X60960Y53340
X58420Y53340
X58420Y50800
X63500Y50800
X58420Y58039
X58420Y66294
X58166Y63627
X55880Y63627
X54610Y63627
X21082Y62738
X23114Y60452
X18161Y62738
X17272Y60960
X20765Y57531
X23114Y57658
X42228Y49149
X25146Y74930
X27876Y53848
X46736Y22860
X17717Y16129
X42990Y26543
X34417Y29591
X37021Y32639
X62230Y44450
X32512Y15303
X40640Y32639
X56134Y59690
X1651Y54356
X8890Y67310
X23749Y71120
X31115Y71120
X35560Y19050
X44831Y13716
X49530Y74930
X8255Y17526
X35306Y40767
X33909Y22161
X44323Y35560
X44323Y34036
X51181Y41275
X17907Y56896
X64389Y46990
X69850Y11303
X72263Y10922
X56515Y41656
X54864Y50673
X52451Y45847
X42164Y45783
X36005Y43180
X40704Y29400
X58039Y47625
X20066Y4976
X21031Y35878
X30683Y7290
X22733Y20130
X22733Y21907
X19333Y7591
X29972Y8001
X8509Y2286
X9271Y2286
X16510Y44450
X16510Y43180
X25400Y4191
X66040Y17780
X31877Y13462
X45720Y22669
X31877Y12573
X45720Y21717
X64008Y43180
X64008Y45720
X28823Y23552
X40958Y43307
X29296Y24153
X42101Y43307
X28257Y39370
X29972Y25209
X93980Y146558
M30