G04 EAGLE Gerber RS-274X export*
G75*
%MOMM*%
%FSLAX34Y34*%
%LPD*%
%INSolderpaste Top*%
%IPPOS*%
%AMOC8*
5,1,8,0,0,1.08239X$1,22.5*%
G01*
%ADD10R,0.300000X1.000000*%
%ADD11R,0.600000X1.000000*%
%ADD12R,1.100000X1.000000*%
%ADD13R,0.800000X1.375000*%
%ADD14R,0.650000X0.300000*%
%ADD15R,1.000000X1.100000*%
%ADD16R,0.725000X0.522000*%
%ADD17R,0.500000X0.200000*%
%ADD18R,0.200000X0.500000*%
%ADD19R,1.700000X4.200000*%
%ADD20R,0.630000X0.830000*%
%ADD21R,0.762000X1.524000*%
%ADD22R,2.800000X1.000000*%
%ADD23R,1.600000X1.400000*%
%ADD24R,1.800000X1.400000*%
%ADD25R,1.400000X1.900000*%
%ADD26R,0.800000X1.500000*%
%ADD27R,0.830000X0.630000*%
%ADD28C,0.300000*%
%ADD29R,2.750000X1.200000*%
%ADD30R,1.750000X0.300000*%
%ADD31R,0.800000X0.900000*%
%ADD32R,2.000000X1.200000*%
%ADD33R,1.350000X0.600000*%
%ADD34R,0.750000X1.550000*%
%ADD35R,1.550000X0.750000*%
%ADD36R,1.050000X1.050000*%
%ADD37R,0.450000X0.250000*%
%ADD38R,0.250000X0.450000*%
%ADD39R,0.400000X0.750000*%
%ADD40R,0.330200X0.685800*%
%ADD41R,0.650000X0.460000*%
%ADD42R,1.150000X7.000000*%
%ADD43R,0.900000X2.200000*%
%ADD44R,1.200000X0.550000*%
%ADD45R,1.000000X4.600000*%
%ADD46R,1.600000X3.400000*%
%ADD47R,1.300000X0.650000*%
%ADD48R,1.800000X0.480000*%
%ADD49R,1.000000X1.030000*%
%ADD50R,0.600000X1.200000*%
%ADD51R,0.660400X0.355600*%
%ADD52R,0.850000X0.900000*%
%ADD53R,0.550000X1.200000*%
%ADD54R,0.900000X0.850000*%
%ADD55R,0.250000X0.750000*%
%ADD56R,0.700000X0.700000*%
%ADD57R,0.420000X0.700000*%
%ADD58R,1.520000X2.210000*%
%ADD59R,0.400000X1.300000*%
%ADD60R,0.400000X1.275000*%
%ADD61R,0.637500X0.250000*%
%ADD62R,0.640000X0.500000*%

G36*
X1281339Y246811D02*
X1281339Y246811D01*
X1281384Y246812D01*
X1281435Y246834D01*
X1281490Y246847D01*
X1281526Y246873D01*
X1281566Y246891D01*
X1281605Y246932D01*
X1281650Y246965D01*
X1281673Y247003D01*
X1281703Y247035D01*
X1281723Y247088D01*
X1281752Y247136D01*
X1281760Y247187D01*
X1281773Y247221D01*
X1281772Y247255D01*
X1281779Y247300D01*
X1281779Y258300D01*
X1281769Y258353D01*
X1281768Y258406D01*
X1281749Y258449D01*
X1281740Y258495D01*
X1281709Y258539D01*
X1281688Y258588D01*
X1281654Y258620D01*
X1281627Y258659D01*
X1281582Y258688D01*
X1281543Y258724D01*
X1281492Y258745D01*
X1281460Y258766D01*
X1281428Y258771D01*
X1281389Y258787D01*
X1278654Y259398D01*
X1276090Y260426D01*
X1273726Y261853D01*
X1271622Y263642D01*
X1269833Y265746D01*
X1268406Y268110D01*
X1267378Y270674D01*
X1266767Y273409D01*
X1266745Y273458D01*
X1266733Y273510D01*
X1266705Y273548D01*
X1266686Y273590D01*
X1266647Y273627D01*
X1266615Y273670D01*
X1266575Y273694D01*
X1266541Y273726D01*
X1266490Y273744D01*
X1266444Y273772D01*
X1266390Y273781D01*
X1266354Y273794D01*
X1266322Y273792D01*
X1266280Y273799D01*
X1255280Y273799D01*
X1255225Y273788D01*
X1255169Y273787D01*
X1255128Y273768D01*
X1255085Y273760D01*
X1255039Y273728D01*
X1254988Y273705D01*
X1254958Y273672D01*
X1254921Y273647D01*
X1254891Y273600D01*
X1254853Y273558D01*
X1254838Y273517D01*
X1254814Y273480D01*
X1254805Y273424D01*
X1254786Y273371D01*
X1254787Y273319D01*
X1254781Y273283D01*
X1254789Y273251D01*
X1254789Y273246D01*
X1254789Y273244D01*
X1254789Y273243D01*
X1254790Y273205D01*
X1255629Y268884D01*
X1255641Y268855D01*
X1255649Y268813D01*
X1257118Y264663D01*
X1257134Y264636D01*
X1257148Y264596D01*
X1259214Y260709D01*
X1259234Y260685D01*
X1259253Y260647D01*
X1261871Y257108D01*
X1261895Y257087D01*
X1261920Y257052D01*
X1265032Y253940D01*
X1265047Y253930D01*
X1265055Y253919D01*
X1265070Y253910D01*
X1265088Y253891D01*
X1268627Y251273D01*
X1268655Y251260D01*
X1268689Y251234D01*
X1272576Y249168D01*
X1272606Y249159D01*
X1272643Y249138D01*
X1276793Y247669D01*
X1276824Y247664D01*
X1276864Y247649D01*
X1281185Y246810D01*
X1281241Y246810D01*
X1281297Y246801D01*
X1281339Y246811D01*
G37*
G36*
X514259Y1102791D02*
X514259Y1102791D01*
X514304Y1102792D01*
X514355Y1102814D01*
X514410Y1102827D01*
X514446Y1102853D01*
X514486Y1102871D01*
X514525Y1102912D01*
X514570Y1102945D01*
X514593Y1102983D01*
X514623Y1103015D01*
X514643Y1103068D01*
X514672Y1103116D01*
X514680Y1103167D01*
X514693Y1103201D01*
X514692Y1103235D01*
X514699Y1103280D01*
X514699Y1114280D01*
X514689Y1114333D01*
X514688Y1114386D01*
X514669Y1114429D01*
X514660Y1114475D01*
X514629Y1114519D01*
X514608Y1114568D01*
X514574Y1114600D01*
X514547Y1114639D01*
X514502Y1114668D01*
X514463Y1114704D01*
X514412Y1114725D01*
X514380Y1114746D01*
X514348Y1114751D01*
X514309Y1114767D01*
X511574Y1115378D01*
X509010Y1116406D01*
X506646Y1117833D01*
X504542Y1119622D01*
X502753Y1121726D01*
X501326Y1124090D01*
X500298Y1126654D01*
X499687Y1129389D01*
X499665Y1129438D01*
X499653Y1129490D01*
X499625Y1129528D01*
X499606Y1129570D01*
X499567Y1129607D01*
X499535Y1129650D01*
X499495Y1129674D01*
X499461Y1129706D01*
X499410Y1129724D01*
X499364Y1129752D01*
X499310Y1129761D01*
X499274Y1129774D01*
X499242Y1129772D01*
X499200Y1129779D01*
X488200Y1129779D01*
X488145Y1129768D01*
X488089Y1129767D01*
X488048Y1129748D01*
X488005Y1129740D01*
X487959Y1129708D01*
X487908Y1129685D01*
X487878Y1129652D01*
X487841Y1129627D01*
X487811Y1129580D01*
X487773Y1129538D01*
X487758Y1129497D01*
X487734Y1129460D01*
X487725Y1129404D01*
X487706Y1129351D01*
X487707Y1129299D01*
X487701Y1129263D01*
X487709Y1129231D01*
X487709Y1129226D01*
X487709Y1129224D01*
X487709Y1129223D01*
X487710Y1129185D01*
X488549Y1124864D01*
X488561Y1124835D01*
X488569Y1124793D01*
X490038Y1120643D01*
X490054Y1120616D01*
X490068Y1120576D01*
X492134Y1116689D01*
X492154Y1116665D01*
X492173Y1116627D01*
X494791Y1113088D01*
X494815Y1113067D01*
X494840Y1113032D01*
X497952Y1109920D01*
X497967Y1109910D01*
X497975Y1109899D01*
X497990Y1109890D01*
X498008Y1109871D01*
X501547Y1107253D01*
X501575Y1107240D01*
X501609Y1107214D01*
X505496Y1105148D01*
X505526Y1105139D01*
X505563Y1105118D01*
X509713Y1103649D01*
X509744Y1103644D01*
X509784Y1103629D01*
X514105Y1102790D01*
X514161Y1102790D01*
X514217Y1102781D01*
X514259Y1102791D01*
G37*
G36*
X1281339Y1102791D02*
X1281339Y1102791D01*
X1281384Y1102792D01*
X1281435Y1102814D01*
X1281490Y1102827D01*
X1281526Y1102853D01*
X1281566Y1102871D01*
X1281605Y1102912D01*
X1281650Y1102945D01*
X1281673Y1102983D01*
X1281703Y1103015D01*
X1281723Y1103068D01*
X1281752Y1103116D01*
X1281760Y1103167D01*
X1281773Y1103201D01*
X1281772Y1103235D01*
X1281779Y1103280D01*
X1281779Y1114280D01*
X1281769Y1114333D01*
X1281768Y1114386D01*
X1281749Y1114429D01*
X1281740Y1114475D01*
X1281709Y1114519D01*
X1281688Y1114568D01*
X1281654Y1114600D01*
X1281627Y1114639D01*
X1281582Y1114668D01*
X1281543Y1114704D01*
X1281492Y1114725D01*
X1281460Y1114746D01*
X1281428Y1114751D01*
X1281389Y1114767D01*
X1278654Y1115378D01*
X1276090Y1116406D01*
X1273726Y1117833D01*
X1271622Y1119622D01*
X1269833Y1121726D01*
X1268406Y1124090D01*
X1267378Y1126654D01*
X1266767Y1129389D01*
X1266745Y1129438D01*
X1266733Y1129490D01*
X1266705Y1129528D01*
X1266686Y1129570D01*
X1266647Y1129607D01*
X1266615Y1129650D01*
X1266575Y1129674D01*
X1266541Y1129706D01*
X1266490Y1129724D01*
X1266444Y1129752D01*
X1266390Y1129761D01*
X1266354Y1129774D01*
X1266322Y1129772D01*
X1266280Y1129779D01*
X1255280Y1129779D01*
X1255225Y1129768D01*
X1255169Y1129767D01*
X1255128Y1129748D01*
X1255085Y1129740D01*
X1255039Y1129708D01*
X1254988Y1129685D01*
X1254958Y1129652D01*
X1254921Y1129627D01*
X1254891Y1129580D01*
X1254853Y1129538D01*
X1254838Y1129497D01*
X1254814Y1129460D01*
X1254805Y1129404D01*
X1254786Y1129351D01*
X1254787Y1129299D01*
X1254781Y1129263D01*
X1254789Y1129231D01*
X1254789Y1129226D01*
X1254789Y1129224D01*
X1254789Y1129223D01*
X1254790Y1129185D01*
X1255629Y1124864D01*
X1255641Y1124835D01*
X1255649Y1124793D01*
X1257118Y1120643D01*
X1257134Y1120616D01*
X1257148Y1120576D01*
X1259214Y1116689D01*
X1259234Y1116665D01*
X1259253Y1116627D01*
X1261871Y1113088D01*
X1261895Y1113067D01*
X1261920Y1113032D01*
X1265032Y1109920D01*
X1265047Y1109910D01*
X1265055Y1109899D01*
X1265070Y1109890D01*
X1265088Y1109871D01*
X1268627Y1107253D01*
X1268655Y1107240D01*
X1268689Y1107214D01*
X1272576Y1105148D01*
X1272606Y1105139D01*
X1272643Y1105118D01*
X1276793Y1103649D01*
X1276824Y1103644D01*
X1276864Y1103629D01*
X1281185Y1102790D01*
X1281241Y1102790D01*
X1281297Y1102781D01*
X1281339Y1102791D01*
G37*
G36*
X514259Y246811D02*
X514259Y246811D01*
X514304Y246812D01*
X514355Y246834D01*
X514410Y246847D01*
X514446Y246873D01*
X514486Y246891D01*
X514525Y246932D01*
X514570Y246965D01*
X514593Y247003D01*
X514623Y247035D01*
X514643Y247088D01*
X514672Y247136D01*
X514680Y247187D01*
X514693Y247221D01*
X514692Y247255D01*
X514699Y247300D01*
X514699Y258300D01*
X514689Y258353D01*
X514688Y258406D01*
X514669Y258449D01*
X514660Y258495D01*
X514629Y258539D01*
X514608Y258588D01*
X514574Y258620D01*
X514547Y258659D01*
X514502Y258688D01*
X514463Y258724D01*
X514412Y258745D01*
X514380Y258766D01*
X514348Y258771D01*
X514309Y258787D01*
X511574Y259398D01*
X509010Y260426D01*
X506646Y261853D01*
X504542Y263642D01*
X502753Y265746D01*
X501326Y268110D01*
X500298Y270674D01*
X499687Y273409D01*
X499665Y273458D01*
X499653Y273510D01*
X499625Y273548D01*
X499606Y273590D01*
X499567Y273627D01*
X499535Y273670D01*
X499495Y273694D01*
X499461Y273726D01*
X499410Y273744D01*
X499364Y273772D01*
X499310Y273781D01*
X499274Y273794D01*
X499242Y273792D01*
X499200Y273799D01*
X488200Y273799D01*
X488145Y273788D01*
X488089Y273787D01*
X488048Y273768D01*
X488005Y273760D01*
X487959Y273728D01*
X487908Y273705D01*
X487878Y273672D01*
X487841Y273647D01*
X487811Y273600D01*
X487773Y273558D01*
X487758Y273517D01*
X487734Y273480D01*
X487725Y273424D01*
X487706Y273371D01*
X487707Y273319D01*
X487701Y273283D01*
X487709Y273251D01*
X487709Y273246D01*
X487709Y273244D01*
X487709Y273243D01*
X487710Y273205D01*
X488549Y268884D01*
X488561Y268855D01*
X488569Y268813D01*
X490038Y264663D01*
X490054Y264636D01*
X490068Y264596D01*
X492134Y260709D01*
X492154Y260685D01*
X492173Y260647D01*
X494791Y257108D01*
X494815Y257087D01*
X494840Y257052D01*
X497952Y253940D01*
X497967Y253930D01*
X497975Y253919D01*
X497990Y253910D01*
X498008Y253891D01*
X501547Y251273D01*
X501575Y251260D01*
X501609Y251234D01*
X505496Y249168D01*
X505526Y249159D01*
X505563Y249138D01*
X509713Y247669D01*
X509744Y247664D01*
X509784Y247649D01*
X514105Y246810D01*
X514161Y246810D01*
X514217Y246801D01*
X514259Y246811D01*
G37*
G36*
X499253Y280811D02*
X499253Y280811D01*
X499306Y280812D01*
X499349Y280831D01*
X499395Y280840D01*
X499439Y280871D01*
X499488Y280892D01*
X499520Y280926D01*
X499559Y280953D01*
X499588Y280998D01*
X499624Y281037D01*
X499645Y281088D01*
X499666Y281120D01*
X499671Y281152D01*
X499687Y281191D01*
X500298Y283926D01*
X501326Y286490D01*
X502753Y288854D01*
X504542Y290958D01*
X506646Y292747D01*
X509010Y294174D01*
X511574Y295202D01*
X514309Y295813D01*
X514358Y295835D01*
X514410Y295847D01*
X514448Y295875D01*
X514490Y295894D01*
X514527Y295933D01*
X514570Y295965D01*
X514594Y296005D01*
X514626Y296039D01*
X514644Y296090D01*
X514672Y296136D01*
X514681Y296190D01*
X514694Y296226D01*
X514692Y296258D01*
X514699Y296300D01*
X514699Y307300D01*
X514688Y307355D01*
X514687Y307411D01*
X514668Y307452D01*
X514660Y307495D01*
X514628Y307541D01*
X514605Y307593D01*
X514572Y307622D01*
X514547Y307659D01*
X514500Y307689D01*
X514458Y307727D01*
X514417Y307742D01*
X514380Y307766D01*
X514324Y307775D01*
X514271Y307794D01*
X514219Y307793D01*
X514183Y307799D01*
X514151Y307791D01*
X514105Y307790D01*
X509784Y306951D01*
X509755Y306939D01*
X509713Y306931D01*
X505563Y305462D01*
X505536Y305446D01*
X505496Y305432D01*
X501609Y303366D01*
X501585Y303346D01*
X501547Y303327D01*
X498008Y300709D01*
X497987Y300685D01*
X497952Y300660D01*
X494840Y297548D01*
X494822Y297522D01*
X494791Y297492D01*
X492173Y293954D01*
X492160Y293925D01*
X492134Y293891D01*
X490068Y290004D01*
X490061Y289981D01*
X490052Y289967D01*
X490051Y289959D01*
X490038Y289937D01*
X488569Y285787D01*
X488564Y285756D01*
X488549Y285716D01*
X487710Y281395D01*
X487710Y281339D01*
X487701Y281283D01*
X487711Y281241D01*
X487712Y281196D01*
X487734Y281145D01*
X487747Y281090D01*
X487773Y281055D01*
X487791Y281014D01*
X487832Y280975D01*
X487865Y280930D01*
X487903Y280907D01*
X487935Y280877D01*
X487988Y280857D01*
X488036Y280828D01*
X488087Y280820D01*
X488121Y280807D01*
X488155Y280808D01*
X488200Y280801D01*
X499200Y280801D01*
X499253Y280811D01*
G37*
G36*
X1266333Y1136791D02*
X1266333Y1136791D01*
X1266386Y1136792D01*
X1266429Y1136811D01*
X1266475Y1136820D01*
X1266519Y1136851D01*
X1266568Y1136872D01*
X1266600Y1136906D01*
X1266639Y1136933D01*
X1266668Y1136978D01*
X1266704Y1137017D01*
X1266725Y1137068D01*
X1266746Y1137100D01*
X1266751Y1137132D01*
X1266767Y1137171D01*
X1267378Y1139906D01*
X1268406Y1142470D01*
X1269833Y1144834D01*
X1271622Y1146938D01*
X1273726Y1148727D01*
X1276090Y1150154D01*
X1278654Y1151182D01*
X1281389Y1151793D01*
X1281438Y1151815D01*
X1281490Y1151827D01*
X1281528Y1151855D01*
X1281570Y1151874D01*
X1281607Y1151913D01*
X1281650Y1151945D01*
X1281674Y1151985D01*
X1281706Y1152019D01*
X1281724Y1152070D01*
X1281752Y1152116D01*
X1281761Y1152170D01*
X1281774Y1152206D01*
X1281772Y1152238D01*
X1281779Y1152280D01*
X1281779Y1163280D01*
X1281768Y1163335D01*
X1281767Y1163391D01*
X1281748Y1163432D01*
X1281740Y1163475D01*
X1281708Y1163521D01*
X1281685Y1163573D01*
X1281652Y1163602D01*
X1281627Y1163639D01*
X1281580Y1163669D01*
X1281538Y1163707D01*
X1281497Y1163722D01*
X1281460Y1163746D01*
X1281404Y1163755D01*
X1281351Y1163774D01*
X1281299Y1163773D01*
X1281263Y1163779D01*
X1281231Y1163771D01*
X1281185Y1163770D01*
X1276864Y1162931D01*
X1276835Y1162919D01*
X1276793Y1162911D01*
X1272643Y1161442D01*
X1272616Y1161426D01*
X1272576Y1161412D01*
X1268689Y1159346D01*
X1268665Y1159326D01*
X1268627Y1159307D01*
X1265088Y1156689D01*
X1265067Y1156665D01*
X1265032Y1156640D01*
X1261920Y1153528D01*
X1261902Y1153502D01*
X1261871Y1153472D01*
X1259253Y1149934D01*
X1259240Y1149905D01*
X1259214Y1149871D01*
X1257148Y1145984D01*
X1257141Y1145961D01*
X1257132Y1145947D01*
X1257131Y1145939D01*
X1257118Y1145917D01*
X1255649Y1141767D01*
X1255644Y1141736D01*
X1255629Y1141696D01*
X1254790Y1137375D01*
X1254790Y1137319D01*
X1254781Y1137263D01*
X1254791Y1137221D01*
X1254792Y1137176D01*
X1254814Y1137125D01*
X1254827Y1137070D01*
X1254853Y1137035D01*
X1254871Y1136994D01*
X1254912Y1136955D01*
X1254945Y1136910D01*
X1254983Y1136887D01*
X1255015Y1136857D01*
X1255068Y1136837D01*
X1255116Y1136808D01*
X1255167Y1136800D01*
X1255201Y1136787D01*
X1255235Y1136788D01*
X1255280Y1136781D01*
X1266280Y1136781D01*
X1266333Y1136791D01*
G37*
G36*
X499253Y1136791D02*
X499253Y1136791D01*
X499306Y1136792D01*
X499349Y1136811D01*
X499395Y1136820D01*
X499439Y1136851D01*
X499488Y1136872D01*
X499520Y1136906D01*
X499559Y1136933D01*
X499588Y1136978D01*
X499624Y1137017D01*
X499645Y1137068D01*
X499666Y1137100D01*
X499671Y1137132D01*
X499687Y1137171D01*
X500298Y1139906D01*
X501326Y1142470D01*
X502753Y1144834D01*
X504542Y1146938D01*
X506646Y1148727D01*
X509010Y1150154D01*
X511574Y1151182D01*
X514309Y1151793D01*
X514358Y1151815D01*
X514410Y1151827D01*
X514448Y1151855D01*
X514490Y1151874D01*
X514527Y1151913D01*
X514570Y1151945D01*
X514594Y1151985D01*
X514626Y1152019D01*
X514644Y1152070D01*
X514672Y1152116D01*
X514681Y1152170D01*
X514694Y1152206D01*
X514692Y1152238D01*
X514699Y1152280D01*
X514699Y1163280D01*
X514688Y1163335D01*
X514687Y1163391D01*
X514668Y1163432D01*
X514660Y1163475D01*
X514628Y1163521D01*
X514605Y1163573D01*
X514572Y1163602D01*
X514547Y1163639D01*
X514500Y1163669D01*
X514458Y1163707D01*
X514417Y1163722D01*
X514380Y1163746D01*
X514324Y1163755D01*
X514271Y1163774D01*
X514219Y1163773D01*
X514183Y1163779D01*
X514151Y1163771D01*
X514105Y1163770D01*
X509784Y1162931D01*
X509755Y1162919D01*
X509713Y1162911D01*
X505563Y1161442D01*
X505536Y1161426D01*
X505496Y1161412D01*
X501609Y1159346D01*
X501585Y1159326D01*
X501547Y1159307D01*
X498008Y1156689D01*
X497987Y1156665D01*
X497952Y1156640D01*
X494840Y1153528D01*
X494822Y1153502D01*
X494791Y1153472D01*
X492173Y1149934D01*
X492160Y1149905D01*
X492134Y1149871D01*
X490068Y1145984D01*
X490061Y1145961D01*
X490052Y1145947D01*
X490051Y1145939D01*
X490038Y1145917D01*
X488569Y1141767D01*
X488564Y1141736D01*
X488549Y1141696D01*
X487710Y1137375D01*
X487710Y1137319D01*
X487701Y1137263D01*
X487711Y1137221D01*
X487712Y1137176D01*
X487734Y1137125D01*
X487747Y1137070D01*
X487773Y1137035D01*
X487791Y1136994D01*
X487832Y1136955D01*
X487865Y1136910D01*
X487903Y1136887D01*
X487935Y1136857D01*
X487988Y1136837D01*
X488036Y1136808D01*
X488087Y1136800D01*
X488121Y1136787D01*
X488155Y1136788D01*
X488200Y1136781D01*
X499200Y1136781D01*
X499253Y1136791D01*
G37*
G36*
X1266333Y280811D02*
X1266333Y280811D01*
X1266386Y280812D01*
X1266429Y280831D01*
X1266475Y280840D01*
X1266519Y280871D01*
X1266568Y280892D01*
X1266600Y280926D01*
X1266639Y280953D01*
X1266668Y280998D01*
X1266704Y281037D01*
X1266725Y281088D01*
X1266746Y281120D01*
X1266751Y281152D01*
X1266767Y281191D01*
X1267378Y283926D01*
X1268406Y286490D01*
X1269833Y288854D01*
X1271622Y290958D01*
X1273726Y292747D01*
X1276090Y294174D01*
X1278654Y295202D01*
X1281389Y295813D01*
X1281438Y295835D01*
X1281490Y295847D01*
X1281528Y295875D01*
X1281570Y295894D01*
X1281607Y295933D01*
X1281650Y295965D01*
X1281674Y296005D01*
X1281706Y296039D01*
X1281724Y296090D01*
X1281752Y296136D01*
X1281761Y296190D01*
X1281774Y296226D01*
X1281772Y296258D01*
X1281779Y296300D01*
X1281779Y307300D01*
X1281768Y307355D01*
X1281767Y307411D01*
X1281748Y307452D01*
X1281740Y307495D01*
X1281708Y307541D01*
X1281685Y307593D01*
X1281652Y307622D01*
X1281627Y307659D01*
X1281580Y307689D01*
X1281538Y307727D01*
X1281497Y307742D01*
X1281460Y307766D01*
X1281404Y307775D01*
X1281351Y307794D01*
X1281299Y307793D01*
X1281263Y307799D01*
X1281231Y307791D01*
X1281185Y307790D01*
X1276864Y306951D01*
X1276835Y306939D01*
X1276793Y306931D01*
X1272643Y305462D01*
X1272616Y305446D01*
X1272576Y305432D01*
X1268689Y303366D01*
X1268665Y303346D01*
X1268627Y303327D01*
X1265088Y300709D01*
X1265067Y300685D01*
X1265032Y300660D01*
X1261920Y297548D01*
X1261902Y297522D01*
X1261871Y297492D01*
X1259253Y293954D01*
X1259240Y293925D01*
X1259214Y293891D01*
X1257148Y290004D01*
X1257141Y289981D01*
X1257132Y289967D01*
X1257131Y289959D01*
X1257118Y289937D01*
X1255649Y285787D01*
X1255644Y285756D01*
X1255629Y285716D01*
X1254790Y281395D01*
X1254790Y281339D01*
X1254781Y281283D01*
X1254791Y281241D01*
X1254792Y281196D01*
X1254814Y281145D01*
X1254827Y281090D01*
X1254853Y281055D01*
X1254871Y281014D01*
X1254912Y280975D01*
X1254945Y280930D01*
X1254983Y280907D01*
X1255015Y280877D01*
X1255068Y280857D01*
X1255116Y280828D01*
X1255167Y280820D01*
X1255201Y280807D01*
X1255235Y280808D01*
X1255280Y280801D01*
X1266280Y280801D01*
X1266333Y280811D01*
G37*
G36*
X548255Y280812D02*
X548255Y280812D01*
X548311Y280813D01*
X548352Y280832D01*
X548395Y280840D01*
X548441Y280872D01*
X548493Y280895D01*
X548522Y280928D01*
X548559Y280953D01*
X548589Y281000D01*
X548627Y281042D01*
X548642Y281083D01*
X548666Y281120D01*
X548675Y281176D01*
X548694Y281229D01*
X548693Y281281D01*
X548699Y281317D01*
X548691Y281349D01*
X548690Y281395D01*
X547851Y285716D01*
X547839Y285745D01*
X547831Y285787D01*
X546362Y289937D01*
X546346Y289964D01*
X546337Y289991D01*
X546335Y289997D01*
X546334Y289999D01*
X546332Y290004D01*
X544266Y293891D01*
X544246Y293915D01*
X544227Y293954D01*
X541609Y297492D01*
X541585Y297513D01*
X541560Y297548D01*
X538448Y300660D01*
X538422Y300678D01*
X538392Y300709D01*
X534854Y303327D01*
X534825Y303340D01*
X534791Y303366D01*
X530904Y305432D01*
X530874Y305441D01*
X530837Y305462D01*
X526687Y306931D01*
X526656Y306936D01*
X526616Y306951D01*
X522295Y307790D01*
X522239Y307790D01*
X522183Y307799D01*
X522141Y307789D01*
X522096Y307788D01*
X522045Y307766D01*
X521990Y307753D01*
X521955Y307727D01*
X521914Y307709D01*
X521875Y307668D01*
X521830Y307635D01*
X521807Y307597D01*
X521777Y307565D01*
X521757Y307512D01*
X521728Y307464D01*
X521720Y307413D01*
X521707Y307379D01*
X521708Y307345D01*
X521701Y307300D01*
X521701Y296300D01*
X521711Y296247D01*
X521712Y296194D01*
X521731Y296151D01*
X521740Y296105D01*
X521771Y296061D01*
X521792Y296012D01*
X521826Y295980D01*
X521853Y295941D01*
X521898Y295912D01*
X521937Y295876D01*
X521988Y295855D01*
X522020Y295834D01*
X522052Y295829D01*
X522091Y295813D01*
X524826Y295202D01*
X527390Y294174D01*
X529754Y292747D01*
X531858Y290958D01*
X533647Y288854D01*
X535074Y286490D01*
X536102Y283926D01*
X536713Y281191D01*
X536735Y281142D01*
X536747Y281090D01*
X536775Y281052D01*
X536794Y281010D01*
X536833Y280973D01*
X536865Y280930D01*
X536905Y280906D01*
X536939Y280874D01*
X536990Y280856D01*
X537036Y280828D01*
X537090Y280819D01*
X537126Y280806D01*
X537158Y280808D01*
X537200Y280801D01*
X548200Y280801D01*
X548255Y280812D01*
G37*
G36*
X1315335Y280812D02*
X1315335Y280812D01*
X1315391Y280813D01*
X1315432Y280832D01*
X1315475Y280840D01*
X1315521Y280872D01*
X1315573Y280895D01*
X1315602Y280928D01*
X1315639Y280953D01*
X1315669Y281000D01*
X1315707Y281042D01*
X1315722Y281083D01*
X1315746Y281120D01*
X1315755Y281176D01*
X1315774Y281229D01*
X1315773Y281281D01*
X1315779Y281317D01*
X1315771Y281349D01*
X1315770Y281395D01*
X1314931Y285716D01*
X1314919Y285745D01*
X1314911Y285787D01*
X1313442Y289937D01*
X1313426Y289964D01*
X1313417Y289991D01*
X1313415Y289997D01*
X1313414Y289999D01*
X1313412Y290004D01*
X1311346Y293891D01*
X1311326Y293915D01*
X1311307Y293954D01*
X1308689Y297492D01*
X1308665Y297513D01*
X1308640Y297548D01*
X1305528Y300660D01*
X1305502Y300678D01*
X1305472Y300709D01*
X1301934Y303327D01*
X1301905Y303340D01*
X1301871Y303366D01*
X1297984Y305432D01*
X1297954Y305441D01*
X1297917Y305462D01*
X1293767Y306931D01*
X1293736Y306936D01*
X1293696Y306951D01*
X1289375Y307790D01*
X1289319Y307790D01*
X1289263Y307799D01*
X1289221Y307789D01*
X1289176Y307788D01*
X1289125Y307766D01*
X1289070Y307753D01*
X1289035Y307727D01*
X1288994Y307709D01*
X1288955Y307668D01*
X1288910Y307635D01*
X1288887Y307597D01*
X1288857Y307565D01*
X1288837Y307512D01*
X1288808Y307464D01*
X1288800Y307413D01*
X1288787Y307379D01*
X1288788Y307345D01*
X1288781Y307300D01*
X1288781Y296300D01*
X1288791Y296247D01*
X1288792Y296194D01*
X1288811Y296151D01*
X1288820Y296105D01*
X1288851Y296061D01*
X1288872Y296012D01*
X1288906Y295980D01*
X1288933Y295941D01*
X1288978Y295912D01*
X1289017Y295876D01*
X1289068Y295855D01*
X1289100Y295834D01*
X1289132Y295829D01*
X1289171Y295813D01*
X1291906Y295202D01*
X1294470Y294174D01*
X1296834Y292747D01*
X1298938Y290958D01*
X1300727Y288854D01*
X1302154Y286490D01*
X1303182Y283926D01*
X1303793Y281191D01*
X1303815Y281142D01*
X1303827Y281090D01*
X1303855Y281052D01*
X1303874Y281010D01*
X1303913Y280973D01*
X1303945Y280930D01*
X1303985Y280906D01*
X1304019Y280874D01*
X1304070Y280856D01*
X1304116Y280828D01*
X1304170Y280819D01*
X1304206Y280806D01*
X1304238Y280808D01*
X1304280Y280801D01*
X1315280Y280801D01*
X1315335Y280812D01*
G37*
G36*
X548255Y1136792D02*
X548255Y1136792D01*
X548311Y1136793D01*
X548352Y1136812D01*
X548395Y1136820D01*
X548441Y1136852D01*
X548493Y1136875D01*
X548522Y1136908D01*
X548559Y1136933D01*
X548589Y1136980D01*
X548627Y1137022D01*
X548642Y1137063D01*
X548666Y1137100D01*
X548675Y1137156D01*
X548694Y1137209D01*
X548693Y1137261D01*
X548699Y1137297D01*
X548691Y1137329D01*
X548690Y1137375D01*
X547851Y1141696D01*
X547839Y1141725D01*
X547831Y1141767D01*
X546362Y1145917D01*
X546346Y1145944D01*
X546337Y1145971D01*
X546335Y1145977D01*
X546334Y1145979D01*
X546332Y1145984D01*
X544266Y1149871D01*
X544246Y1149895D01*
X544227Y1149934D01*
X541609Y1153472D01*
X541585Y1153493D01*
X541560Y1153528D01*
X538448Y1156640D01*
X538422Y1156658D01*
X538392Y1156689D01*
X534854Y1159307D01*
X534825Y1159320D01*
X534791Y1159346D01*
X530904Y1161412D01*
X530874Y1161421D01*
X530837Y1161442D01*
X526687Y1162911D01*
X526656Y1162916D01*
X526616Y1162931D01*
X522295Y1163770D01*
X522239Y1163770D01*
X522183Y1163779D01*
X522141Y1163769D01*
X522096Y1163768D01*
X522045Y1163746D01*
X521990Y1163733D01*
X521955Y1163707D01*
X521914Y1163689D01*
X521875Y1163648D01*
X521830Y1163615D01*
X521807Y1163577D01*
X521777Y1163545D01*
X521757Y1163492D01*
X521728Y1163444D01*
X521720Y1163393D01*
X521707Y1163359D01*
X521708Y1163325D01*
X521701Y1163280D01*
X521701Y1152280D01*
X521711Y1152227D01*
X521712Y1152174D01*
X521731Y1152131D01*
X521740Y1152085D01*
X521771Y1152041D01*
X521792Y1151992D01*
X521826Y1151960D01*
X521853Y1151921D01*
X521898Y1151892D01*
X521937Y1151856D01*
X521988Y1151835D01*
X522020Y1151814D01*
X522052Y1151809D01*
X522091Y1151793D01*
X524826Y1151182D01*
X527390Y1150154D01*
X529754Y1148727D01*
X531858Y1146938D01*
X533647Y1144834D01*
X535074Y1142470D01*
X536102Y1139906D01*
X536713Y1137171D01*
X536735Y1137122D01*
X536747Y1137070D01*
X536775Y1137032D01*
X536794Y1136990D01*
X536833Y1136953D01*
X536865Y1136910D01*
X536905Y1136886D01*
X536939Y1136854D01*
X536990Y1136836D01*
X537036Y1136808D01*
X537090Y1136799D01*
X537126Y1136786D01*
X537158Y1136788D01*
X537200Y1136781D01*
X548200Y1136781D01*
X548255Y1136792D01*
G37*
G36*
X1315335Y1136792D02*
X1315335Y1136792D01*
X1315391Y1136793D01*
X1315432Y1136812D01*
X1315475Y1136820D01*
X1315521Y1136852D01*
X1315573Y1136875D01*
X1315602Y1136908D01*
X1315639Y1136933D01*
X1315669Y1136980D01*
X1315707Y1137022D01*
X1315722Y1137063D01*
X1315746Y1137100D01*
X1315755Y1137156D01*
X1315774Y1137209D01*
X1315773Y1137261D01*
X1315779Y1137297D01*
X1315771Y1137329D01*
X1315770Y1137375D01*
X1314931Y1141696D01*
X1314919Y1141725D01*
X1314911Y1141767D01*
X1313442Y1145917D01*
X1313426Y1145944D01*
X1313417Y1145971D01*
X1313415Y1145977D01*
X1313414Y1145979D01*
X1313412Y1145984D01*
X1311346Y1149871D01*
X1311326Y1149895D01*
X1311307Y1149934D01*
X1308689Y1153472D01*
X1308665Y1153493D01*
X1308640Y1153528D01*
X1305528Y1156640D01*
X1305502Y1156658D01*
X1305472Y1156689D01*
X1301934Y1159307D01*
X1301905Y1159320D01*
X1301871Y1159346D01*
X1297984Y1161412D01*
X1297954Y1161421D01*
X1297917Y1161442D01*
X1293767Y1162911D01*
X1293736Y1162916D01*
X1293696Y1162931D01*
X1289375Y1163770D01*
X1289319Y1163770D01*
X1289263Y1163779D01*
X1289221Y1163769D01*
X1289176Y1163768D01*
X1289125Y1163746D01*
X1289070Y1163733D01*
X1289035Y1163707D01*
X1288994Y1163689D01*
X1288955Y1163648D01*
X1288910Y1163615D01*
X1288887Y1163577D01*
X1288857Y1163545D01*
X1288837Y1163492D01*
X1288808Y1163444D01*
X1288800Y1163393D01*
X1288787Y1163359D01*
X1288788Y1163325D01*
X1288781Y1163280D01*
X1288781Y1152280D01*
X1288791Y1152227D01*
X1288792Y1152174D01*
X1288811Y1152131D01*
X1288820Y1152085D01*
X1288851Y1152041D01*
X1288872Y1151992D01*
X1288906Y1151960D01*
X1288933Y1151921D01*
X1288978Y1151892D01*
X1289017Y1151856D01*
X1289068Y1151835D01*
X1289100Y1151814D01*
X1289132Y1151809D01*
X1289171Y1151793D01*
X1291906Y1151182D01*
X1294470Y1150154D01*
X1296834Y1148727D01*
X1298938Y1146938D01*
X1300727Y1144834D01*
X1302154Y1142470D01*
X1303182Y1139906D01*
X1303793Y1137171D01*
X1303815Y1137122D01*
X1303827Y1137070D01*
X1303855Y1137032D01*
X1303874Y1136990D01*
X1303913Y1136953D01*
X1303945Y1136910D01*
X1303985Y1136886D01*
X1304019Y1136854D01*
X1304070Y1136836D01*
X1304116Y1136808D01*
X1304170Y1136799D01*
X1304206Y1136786D01*
X1304238Y1136788D01*
X1304280Y1136781D01*
X1315280Y1136781D01*
X1315335Y1136792D01*
G37*
G36*
X1289329Y1102789D02*
X1289329Y1102789D01*
X1289375Y1102790D01*
X1293696Y1103629D01*
X1293725Y1103641D01*
X1293767Y1103649D01*
X1297917Y1105118D01*
X1297944Y1105134D01*
X1297984Y1105148D01*
X1301871Y1107214D01*
X1301895Y1107234D01*
X1301934Y1107253D01*
X1305472Y1109871D01*
X1305493Y1109895D01*
X1305528Y1109920D01*
X1308640Y1113032D01*
X1308658Y1113059D01*
X1308689Y1113088D01*
X1311307Y1116627D01*
X1311320Y1116655D01*
X1311346Y1116689D01*
X1313412Y1120576D01*
X1313421Y1120606D01*
X1313442Y1120643D01*
X1314911Y1124793D01*
X1314916Y1124824D01*
X1314931Y1124864D01*
X1315770Y1129185D01*
X1315770Y1129241D01*
X1315779Y1129297D01*
X1315769Y1129339D01*
X1315768Y1129384D01*
X1315746Y1129435D01*
X1315733Y1129490D01*
X1315707Y1129526D01*
X1315689Y1129566D01*
X1315648Y1129605D01*
X1315615Y1129650D01*
X1315577Y1129673D01*
X1315545Y1129703D01*
X1315492Y1129723D01*
X1315444Y1129752D01*
X1315393Y1129760D01*
X1315359Y1129773D01*
X1315325Y1129772D01*
X1315280Y1129779D01*
X1304280Y1129779D01*
X1304227Y1129769D01*
X1304174Y1129768D01*
X1304131Y1129749D01*
X1304085Y1129740D01*
X1304041Y1129709D01*
X1303992Y1129688D01*
X1303960Y1129654D01*
X1303921Y1129627D01*
X1303892Y1129582D01*
X1303856Y1129543D01*
X1303835Y1129492D01*
X1303814Y1129460D01*
X1303809Y1129428D01*
X1303806Y1129422D01*
X1303805Y1129421D01*
X1303805Y1129420D01*
X1303793Y1129389D01*
X1303182Y1126654D01*
X1302154Y1124090D01*
X1300727Y1121726D01*
X1298938Y1119622D01*
X1296834Y1117833D01*
X1294470Y1116406D01*
X1291906Y1115378D01*
X1289171Y1114767D01*
X1289122Y1114745D01*
X1289070Y1114733D01*
X1289032Y1114705D01*
X1288990Y1114686D01*
X1288953Y1114647D01*
X1288910Y1114615D01*
X1288886Y1114575D01*
X1288854Y1114541D01*
X1288836Y1114490D01*
X1288808Y1114444D01*
X1288799Y1114390D01*
X1288786Y1114354D01*
X1288788Y1114322D01*
X1288781Y1114280D01*
X1288781Y1103280D01*
X1288792Y1103225D01*
X1288793Y1103169D01*
X1288812Y1103128D01*
X1288820Y1103085D01*
X1288852Y1103039D01*
X1288875Y1102988D01*
X1288908Y1102958D01*
X1288933Y1102921D01*
X1288980Y1102891D01*
X1289022Y1102853D01*
X1289063Y1102838D01*
X1289100Y1102814D01*
X1289156Y1102805D01*
X1289209Y1102786D01*
X1289261Y1102787D01*
X1289297Y1102781D01*
X1289329Y1102789D01*
G37*
G36*
X1289329Y246809D02*
X1289329Y246809D01*
X1289375Y246810D01*
X1293696Y247649D01*
X1293725Y247661D01*
X1293767Y247669D01*
X1297917Y249138D01*
X1297944Y249154D01*
X1297984Y249168D01*
X1301871Y251234D01*
X1301895Y251254D01*
X1301934Y251273D01*
X1305472Y253891D01*
X1305493Y253915D01*
X1305528Y253940D01*
X1308640Y257052D01*
X1308658Y257079D01*
X1308689Y257108D01*
X1311307Y260647D01*
X1311320Y260675D01*
X1311346Y260709D01*
X1313412Y264596D01*
X1313421Y264626D01*
X1313442Y264663D01*
X1314911Y268813D01*
X1314916Y268844D01*
X1314931Y268884D01*
X1315770Y273205D01*
X1315770Y273261D01*
X1315779Y273317D01*
X1315769Y273359D01*
X1315768Y273404D01*
X1315746Y273455D01*
X1315733Y273510D01*
X1315707Y273546D01*
X1315689Y273586D01*
X1315648Y273625D01*
X1315615Y273670D01*
X1315577Y273693D01*
X1315545Y273723D01*
X1315492Y273743D01*
X1315444Y273772D01*
X1315393Y273780D01*
X1315359Y273793D01*
X1315325Y273792D01*
X1315280Y273799D01*
X1304280Y273799D01*
X1304227Y273789D01*
X1304174Y273788D01*
X1304131Y273769D01*
X1304085Y273760D01*
X1304041Y273729D01*
X1303992Y273708D01*
X1303960Y273674D01*
X1303921Y273647D01*
X1303892Y273602D01*
X1303856Y273563D01*
X1303835Y273512D01*
X1303814Y273480D01*
X1303809Y273448D01*
X1303806Y273442D01*
X1303805Y273441D01*
X1303805Y273440D01*
X1303793Y273409D01*
X1303182Y270674D01*
X1302154Y268110D01*
X1300727Y265746D01*
X1298938Y263642D01*
X1296834Y261853D01*
X1294470Y260426D01*
X1291906Y259398D01*
X1289171Y258787D01*
X1289122Y258765D01*
X1289070Y258753D01*
X1289032Y258725D01*
X1288990Y258706D01*
X1288953Y258667D01*
X1288910Y258635D01*
X1288886Y258595D01*
X1288854Y258561D01*
X1288836Y258510D01*
X1288808Y258464D01*
X1288799Y258410D01*
X1288786Y258374D01*
X1288788Y258342D01*
X1288781Y258300D01*
X1288781Y247300D01*
X1288792Y247245D01*
X1288793Y247189D01*
X1288812Y247148D01*
X1288820Y247105D01*
X1288852Y247059D01*
X1288875Y247008D01*
X1288908Y246978D01*
X1288933Y246941D01*
X1288980Y246911D01*
X1289022Y246873D01*
X1289063Y246858D01*
X1289100Y246834D01*
X1289156Y246825D01*
X1289209Y246806D01*
X1289261Y246807D01*
X1289297Y246801D01*
X1289329Y246809D01*
G37*
G36*
X522249Y1102789D02*
X522249Y1102789D01*
X522295Y1102790D01*
X526616Y1103629D01*
X526645Y1103641D01*
X526687Y1103649D01*
X530837Y1105118D01*
X530864Y1105134D01*
X530904Y1105148D01*
X534791Y1107214D01*
X534815Y1107234D01*
X534854Y1107253D01*
X538392Y1109871D01*
X538413Y1109895D01*
X538448Y1109920D01*
X541560Y1113032D01*
X541578Y1113059D01*
X541609Y1113088D01*
X544227Y1116627D01*
X544240Y1116655D01*
X544266Y1116689D01*
X546332Y1120576D01*
X546341Y1120606D01*
X546362Y1120643D01*
X547831Y1124793D01*
X547836Y1124824D01*
X547851Y1124864D01*
X548690Y1129185D01*
X548690Y1129241D01*
X548699Y1129297D01*
X548689Y1129339D01*
X548688Y1129384D01*
X548666Y1129435D01*
X548653Y1129490D01*
X548627Y1129526D01*
X548609Y1129566D01*
X548568Y1129605D01*
X548535Y1129650D01*
X548497Y1129673D01*
X548465Y1129703D01*
X548412Y1129723D01*
X548364Y1129752D01*
X548313Y1129760D01*
X548279Y1129773D01*
X548245Y1129772D01*
X548200Y1129779D01*
X537200Y1129779D01*
X537147Y1129769D01*
X537094Y1129768D01*
X537051Y1129749D01*
X537005Y1129740D01*
X536961Y1129709D01*
X536912Y1129688D01*
X536880Y1129654D01*
X536841Y1129627D01*
X536812Y1129582D01*
X536776Y1129543D01*
X536755Y1129492D01*
X536734Y1129460D01*
X536729Y1129428D01*
X536726Y1129422D01*
X536725Y1129421D01*
X536725Y1129420D01*
X536713Y1129389D01*
X536102Y1126654D01*
X535074Y1124090D01*
X533647Y1121726D01*
X531858Y1119622D01*
X529754Y1117833D01*
X527390Y1116406D01*
X524826Y1115378D01*
X522091Y1114767D01*
X522042Y1114745D01*
X521990Y1114733D01*
X521952Y1114705D01*
X521910Y1114686D01*
X521873Y1114647D01*
X521830Y1114615D01*
X521806Y1114575D01*
X521774Y1114541D01*
X521756Y1114490D01*
X521728Y1114444D01*
X521719Y1114390D01*
X521706Y1114354D01*
X521708Y1114322D01*
X521701Y1114280D01*
X521701Y1103280D01*
X521712Y1103225D01*
X521713Y1103169D01*
X521732Y1103128D01*
X521740Y1103085D01*
X521772Y1103039D01*
X521795Y1102988D01*
X521828Y1102958D01*
X521853Y1102921D01*
X521900Y1102891D01*
X521942Y1102853D01*
X521983Y1102838D01*
X522020Y1102814D01*
X522076Y1102805D01*
X522129Y1102786D01*
X522181Y1102787D01*
X522217Y1102781D01*
X522249Y1102789D01*
G37*
G36*
X522249Y246809D02*
X522249Y246809D01*
X522295Y246810D01*
X526616Y247649D01*
X526645Y247661D01*
X526687Y247669D01*
X530837Y249138D01*
X530864Y249154D01*
X530904Y249168D01*
X534791Y251234D01*
X534815Y251254D01*
X534854Y251273D01*
X538392Y253891D01*
X538413Y253915D01*
X538448Y253940D01*
X541560Y257052D01*
X541578Y257079D01*
X541609Y257108D01*
X544227Y260647D01*
X544240Y260675D01*
X544266Y260709D01*
X546332Y264596D01*
X546341Y264626D01*
X546362Y264663D01*
X547831Y268813D01*
X547836Y268844D01*
X547851Y268884D01*
X548690Y273205D01*
X548690Y273261D01*
X548699Y273317D01*
X548689Y273359D01*
X548688Y273404D01*
X548666Y273455D01*
X548653Y273510D01*
X548627Y273546D01*
X548609Y273586D01*
X548568Y273625D01*
X548535Y273670D01*
X548497Y273693D01*
X548465Y273723D01*
X548412Y273743D01*
X548364Y273772D01*
X548313Y273780D01*
X548279Y273793D01*
X548245Y273792D01*
X548200Y273799D01*
X537200Y273799D01*
X537147Y273789D01*
X537094Y273788D01*
X537051Y273769D01*
X537005Y273760D01*
X536961Y273729D01*
X536912Y273708D01*
X536880Y273674D01*
X536841Y273647D01*
X536812Y273602D01*
X536776Y273563D01*
X536755Y273512D01*
X536734Y273480D01*
X536729Y273448D01*
X536726Y273442D01*
X536725Y273441D01*
X536725Y273440D01*
X536713Y273409D01*
X536102Y270674D01*
X535074Y268110D01*
X533647Y265746D01*
X531858Y263642D01*
X529754Y261853D01*
X527390Y260426D01*
X524826Y259398D01*
X522091Y258787D01*
X522042Y258765D01*
X521990Y258753D01*
X521952Y258725D01*
X521910Y258706D01*
X521873Y258667D01*
X521830Y258635D01*
X521806Y258595D01*
X521774Y258561D01*
X521756Y258510D01*
X521728Y258464D01*
X521719Y258410D01*
X521706Y258374D01*
X521708Y258342D01*
X521701Y258300D01*
X521701Y247300D01*
X521712Y247245D01*
X521713Y247189D01*
X521732Y247148D01*
X521740Y247105D01*
X521772Y247059D01*
X521795Y247008D01*
X521828Y246978D01*
X521853Y246941D01*
X521900Y246911D01*
X521942Y246873D01*
X521983Y246858D01*
X522020Y246834D01*
X522076Y246825D01*
X522129Y246806D01*
X522181Y246807D01*
X522217Y246801D01*
X522249Y246809D01*
G37*
G36*
X1032386Y896637D02*
X1032386Y896637D01*
X1032413Y896633D01*
X1032454Y896651D01*
X1032496Y896660D01*
X1032532Y896686D01*
X1032541Y896690D01*
X1032545Y896695D01*
X1032556Y896704D01*
X1056556Y920704D01*
X1056577Y920742D01*
X1056606Y920775D01*
X1056610Y920802D01*
X1056623Y920826D01*
X1056620Y920870D01*
X1056627Y920913D01*
X1056616Y920939D01*
X1056614Y920966D01*
X1056588Y921001D01*
X1056570Y921041D01*
X1056547Y921056D01*
X1056531Y921078D01*
X1056490Y921094D01*
X1056454Y921118D01*
X1056410Y921125D01*
X1056401Y921128D01*
X1056394Y921127D01*
X1056380Y921129D01*
X1032380Y921129D01*
X1032364Y921124D01*
X1032347Y921127D01*
X1032297Y921105D01*
X1032246Y921090D01*
X1032235Y921077D01*
X1032219Y921070D01*
X1032189Y921025D01*
X1032154Y920985D01*
X1032151Y920968D01*
X1032142Y920954D01*
X1032131Y920880D01*
X1032131Y896880D01*
X1032143Y896838D01*
X1032146Y896794D01*
X1032162Y896772D01*
X1032170Y896746D01*
X1032203Y896717D01*
X1032229Y896682D01*
X1032255Y896672D01*
X1032275Y896654D01*
X1032319Y896647D01*
X1032359Y896632D01*
X1032386Y896637D01*
G37*
G36*
X265306Y896637D02*
X265306Y896637D01*
X265333Y896633D01*
X265374Y896651D01*
X265416Y896660D01*
X265452Y896686D01*
X265461Y896690D01*
X265465Y896695D01*
X265476Y896704D01*
X289476Y920704D01*
X289497Y920742D01*
X289526Y920775D01*
X289530Y920802D01*
X289543Y920826D01*
X289540Y920870D01*
X289547Y920913D01*
X289536Y920939D01*
X289534Y920966D01*
X289508Y921001D01*
X289490Y921041D01*
X289467Y921056D01*
X289451Y921078D01*
X289410Y921094D01*
X289374Y921118D01*
X289330Y921125D01*
X289321Y921128D01*
X289314Y921127D01*
X289300Y921129D01*
X265300Y921129D01*
X265284Y921124D01*
X265267Y921127D01*
X265217Y921105D01*
X265166Y921090D01*
X265155Y921077D01*
X265139Y921070D01*
X265109Y921025D01*
X265074Y920985D01*
X265071Y920968D01*
X265062Y920954D01*
X265051Y920880D01*
X265051Y896880D01*
X265063Y896838D01*
X265066Y896794D01*
X265082Y896772D01*
X265090Y896746D01*
X265123Y896717D01*
X265149Y896682D01*
X265175Y896672D01*
X265195Y896654D01*
X265239Y896647D01*
X265279Y896632D01*
X265306Y896637D01*
G37*
G36*
X1032386Y40657D02*
X1032386Y40657D01*
X1032413Y40653D01*
X1032454Y40671D01*
X1032496Y40680D01*
X1032532Y40706D01*
X1032541Y40710D01*
X1032545Y40715D01*
X1032556Y40724D01*
X1056556Y64724D01*
X1056577Y64762D01*
X1056606Y64795D01*
X1056610Y64822D01*
X1056623Y64846D01*
X1056620Y64890D01*
X1056627Y64933D01*
X1056616Y64959D01*
X1056614Y64986D01*
X1056588Y65021D01*
X1056570Y65061D01*
X1056547Y65076D01*
X1056531Y65098D01*
X1056490Y65114D01*
X1056454Y65138D01*
X1056410Y65145D01*
X1056401Y65148D01*
X1056394Y65147D01*
X1056380Y65149D01*
X1032380Y65149D01*
X1032364Y65144D01*
X1032347Y65147D01*
X1032297Y65125D01*
X1032246Y65110D01*
X1032235Y65097D01*
X1032219Y65090D01*
X1032189Y65045D01*
X1032154Y65005D01*
X1032151Y64988D01*
X1032142Y64974D01*
X1032131Y64900D01*
X1032131Y40900D01*
X1032143Y40858D01*
X1032146Y40814D01*
X1032162Y40792D01*
X1032170Y40766D01*
X1032203Y40737D01*
X1032229Y40702D01*
X1032255Y40692D01*
X1032275Y40674D01*
X1032319Y40667D01*
X1032359Y40652D01*
X1032386Y40657D01*
G37*
G36*
X265306Y40657D02*
X265306Y40657D01*
X265333Y40653D01*
X265374Y40671D01*
X265416Y40680D01*
X265452Y40706D01*
X265461Y40710D01*
X265465Y40715D01*
X265476Y40724D01*
X289476Y64724D01*
X289497Y64762D01*
X289526Y64795D01*
X289530Y64822D01*
X289543Y64846D01*
X289540Y64890D01*
X289547Y64933D01*
X289536Y64959D01*
X289534Y64986D01*
X289508Y65021D01*
X289490Y65061D01*
X289467Y65076D01*
X289451Y65098D01*
X289410Y65114D01*
X289374Y65138D01*
X289330Y65145D01*
X289321Y65148D01*
X289314Y65147D01*
X289300Y65149D01*
X265300Y65149D01*
X265284Y65144D01*
X265267Y65147D01*
X265217Y65125D01*
X265166Y65110D01*
X265155Y65097D01*
X265139Y65090D01*
X265109Y65045D01*
X265074Y65005D01*
X265071Y64988D01*
X265062Y64974D01*
X265051Y64900D01*
X265051Y40900D01*
X265063Y40858D01*
X265066Y40814D01*
X265082Y40792D01*
X265090Y40766D01*
X265123Y40737D01*
X265149Y40702D01*
X265175Y40692D01*
X265195Y40674D01*
X265239Y40667D01*
X265279Y40652D01*
X265306Y40657D01*
G37*
G36*
X233500Y899931D02*
X233500Y899931D01*
X233501Y899931D01*
X234569Y899950D01*
X234576Y899955D01*
X234580Y899951D01*
X235617Y900207D01*
X235622Y900214D01*
X235628Y900211D01*
X236582Y900692D01*
X236586Y900699D01*
X236591Y900698D01*
X237415Y901379D01*
X237416Y901387D01*
X237422Y901387D01*
X238073Y902234D01*
X238073Y902242D01*
X238079Y902243D01*
X238526Y903214D01*
X238524Y903222D01*
X238529Y903224D01*
X238748Y904270D01*
X238745Y904277D01*
X238749Y904280D01*
X238749Y916280D01*
X238746Y916285D01*
X238749Y916288D01*
X238569Y917383D01*
X238563Y917389D01*
X238566Y917394D01*
X238147Y918422D01*
X238140Y918426D01*
X238142Y918431D01*
X237505Y919340D01*
X237497Y919343D01*
X237497Y919348D01*
X236674Y920092D01*
X236666Y920093D01*
X236665Y920099D01*
X235697Y920641D01*
X235688Y920640D01*
X235686Y920646D01*
X234622Y920959D01*
X234617Y920957D01*
X234613Y920957D01*
X234611Y920961D01*
X233503Y921029D01*
X233497Y921025D01*
X233493Y921029D01*
X232385Y920859D01*
X232379Y920853D01*
X232374Y920856D01*
X231332Y920444D01*
X231328Y920437D01*
X231323Y920439D01*
X230398Y919805D01*
X230396Y919797D01*
X230390Y919798D01*
X229630Y918975D01*
X229629Y918966D01*
X229623Y918966D01*
X229066Y917994D01*
X229067Y917986D01*
X229061Y917984D01*
X228734Y916912D01*
X228737Y916904D01*
X228732Y916901D01*
X228651Y915784D01*
X228652Y915781D01*
X228651Y915780D01*
X228651Y903780D01*
X228656Y903773D01*
X228652Y903769D01*
X228871Y902825D01*
X228877Y902819D01*
X228875Y902814D01*
X229299Y901942D01*
X229306Y901939D01*
X229304Y901933D01*
X229911Y901177D01*
X229919Y901175D01*
X229919Y901169D01*
X230679Y900568D01*
X230688Y900568D01*
X230689Y900562D01*
X231564Y900144D01*
X231572Y900146D01*
X231574Y900141D01*
X232520Y899929D01*
X232527Y899932D01*
X232531Y899927D01*
X233500Y899931D01*
G37*
G36*
X1000580Y899931D02*
X1000580Y899931D01*
X1000581Y899931D01*
X1001649Y899950D01*
X1001656Y899955D01*
X1001660Y899951D01*
X1002697Y900207D01*
X1002702Y900214D01*
X1002708Y900211D01*
X1003662Y900692D01*
X1003666Y900699D01*
X1003671Y900698D01*
X1004495Y901379D01*
X1004496Y901387D01*
X1004502Y901387D01*
X1005153Y902234D01*
X1005153Y902242D01*
X1005159Y902243D01*
X1005606Y903214D01*
X1005604Y903222D01*
X1005609Y903224D01*
X1005828Y904270D01*
X1005825Y904277D01*
X1005829Y904280D01*
X1005829Y916280D01*
X1005826Y916285D01*
X1005829Y916288D01*
X1005649Y917383D01*
X1005643Y917389D01*
X1005646Y917394D01*
X1005227Y918422D01*
X1005220Y918426D01*
X1005222Y918431D01*
X1004585Y919340D01*
X1004577Y919343D01*
X1004577Y919348D01*
X1003754Y920092D01*
X1003746Y920093D01*
X1003745Y920099D01*
X1002777Y920641D01*
X1002768Y920640D01*
X1002766Y920646D01*
X1001702Y920959D01*
X1001697Y920957D01*
X1001693Y920957D01*
X1001691Y920961D01*
X1000583Y921029D01*
X1000577Y921025D01*
X1000573Y921029D01*
X999465Y920859D01*
X999459Y920853D01*
X999454Y920856D01*
X998412Y920444D01*
X998408Y920437D01*
X998403Y920439D01*
X997478Y919805D01*
X997476Y919797D01*
X997470Y919798D01*
X996710Y918975D01*
X996709Y918966D01*
X996703Y918966D01*
X996146Y917994D01*
X996147Y917986D01*
X996141Y917984D01*
X995814Y916912D01*
X995817Y916904D01*
X995812Y916901D01*
X995731Y915784D01*
X995732Y915781D01*
X995731Y915780D01*
X995731Y903780D01*
X995736Y903773D01*
X995732Y903769D01*
X995951Y902825D01*
X995957Y902819D01*
X995955Y902814D01*
X996379Y901942D01*
X996386Y901939D01*
X996384Y901933D01*
X996991Y901177D01*
X996999Y901175D01*
X996999Y901169D01*
X997759Y900568D01*
X997768Y900568D01*
X997769Y900562D01*
X998644Y900144D01*
X998652Y900146D01*
X998654Y900141D01*
X999600Y899929D01*
X999607Y899932D01*
X999611Y899927D01*
X1000580Y899931D01*
G37*
G36*
X233500Y43951D02*
X233500Y43951D01*
X233501Y43951D01*
X234569Y43970D01*
X234576Y43975D01*
X234580Y43971D01*
X235617Y44227D01*
X235622Y44234D01*
X235628Y44231D01*
X236582Y44712D01*
X236586Y44719D01*
X236591Y44718D01*
X237415Y45399D01*
X237416Y45407D01*
X237422Y45407D01*
X238073Y46254D01*
X238073Y46262D01*
X238079Y46263D01*
X238526Y47234D01*
X238524Y47242D01*
X238529Y47244D01*
X238748Y48290D01*
X238745Y48297D01*
X238749Y48300D01*
X238749Y60300D01*
X238746Y60305D01*
X238749Y60308D01*
X238569Y61403D01*
X238563Y61409D01*
X238566Y61414D01*
X238147Y62442D01*
X238140Y62446D01*
X238142Y62451D01*
X237505Y63360D01*
X237497Y63363D01*
X237497Y63368D01*
X236674Y64112D01*
X236666Y64113D01*
X236665Y64119D01*
X235697Y64661D01*
X235688Y64660D01*
X235686Y64666D01*
X234622Y64979D01*
X234617Y64977D01*
X234613Y64977D01*
X234611Y64981D01*
X233503Y65049D01*
X233497Y65045D01*
X233493Y65049D01*
X232385Y64879D01*
X232379Y64873D01*
X232374Y64876D01*
X231332Y64464D01*
X231328Y64457D01*
X231323Y64459D01*
X230398Y63825D01*
X230396Y63817D01*
X230390Y63818D01*
X229630Y62995D01*
X229629Y62986D01*
X229623Y62986D01*
X229066Y62014D01*
X229067Y62006D01*
X229061Y62004D01*
X228734Y60932D01*
X228737Y60924D01*
X228732Y60921D01*
X228651Y59804D01*
X228652Y59801D01*
X228651Y59800D01*
X228651Y47800D01*
X228656Y47793D01*
X228652Y47789D01*
X228871Y46845D01*
X228877Y46839D01*
X228875Y46834D01*
X229299Y45962D01*
X229306Y45959D01*
X229304Y45953D01*
X229911Y45197D01*
X229919Y45195D01*
X229919Y45189D01*
X230679Y44588D01*
X230688Y44588D01*
X230689Y44582D01*
X231564Y44164D01*
X231572Y44166D01*
X231574Y44161D01*
X232520Y43949D01*
X232527Y43952D01*
X232531Y43947D01*
X233500Y43951D01*
G37*
G36*
X1000580Y43951D02*
X1000580Y43951D01*
X1000581Y43951D01*
X1001649Y43970D01*
X1001656Y43975D01*
X1001660Y43971D01*
X1002697Y44227D01*
X1002702Y44234D01*
X1002708Y44231D01*
X1003662Y44712D01*
X1003666Y44719D01*
X1003671Y44718D01*
X1004495Y45399D01*
X1004496Y45407D01*
X1004502Y45407D01*
X1005153Y46254D01*
X1005153Y46262D01*
X1005159Y46263D01*
X1005606Y47234D01*
X1005604Y47242D01*
X1005609Y47244D01*
X1005828Y48290D01*
X1005825Y48297D01*
X1005829Y48300D01*
X1005829Y60300D01*
X1005826Y60305D01*
X1005829Y60308D01*
X1005649Y61403D01*
X1005643Y61409D01*
X1005646Y61414D01*
X1005227Y62442D01*
X1005220Y62446D01*
X1005222Y62451D01*
X1004585Y63360D01*
X1004577Y63363D01*
X1004577Y63368D01*
X1003754Y64112D01*
X1003746Y64113D01*
X1003745Y64119D01*
X1002777Y64661D01*
X1002768Y64660D01*
X1002766Y64666D01*
X1001702Y64979D01*
X1001697Y64977D01*
X1001693Y64977D01*
X1001691Y64981D01*
X1000583Y65049D01*
X1000577Y65045D01*
X1000573Y65049D01*
X999465Y64879D01*
X999459Y64873D01*
X999454Y64876D01*
X998412Y64464D01*
X998408Y64457D01*
X998403Y64459D01*
X997478Y63825D01*
X997476Y63817D01*
X997470Y63818D01*
X996710Y62995D01*
X996709Y62986D01*
X996703Y62986D01*
X996146Y62014D01*
X996147Y62006D01*
X996141Y62004D01*
X995814Y60932D01*
X995817Y60924D01*
X995812Y60921D01*
X995731Y59804D01*
X995732Y59801D01*
X995731Y59800D01*
X995731Y47800D01*
X995736Y47793D01*
X995732Y47789D01*
X995951Y46845D01*
X995957Y46839D01*
X995955Y46834D01*
X996379Y45962D01*
X996386Y45959D01*
X996384Y45953D01*
X996991Y45197D01*
X996999Y45195D01*
X996999Y45189D01*
X997759Y44588D01*
X997768Y44588D01*
X997769Y44582D01*
X998644Y44164D01*
X998652Y44166D01*
X998654Y44161D01*
X999600Y43949D01*
X999607Y43952D01*
X999611Y43947D01*
X1000580Y43951D01*
G37*
G36*
X148081Y899940D02*
X148081Y899940D01*
X148088Y899945D01*
X148092Y899941D01*
X149144Y900191D01*
X149149Y900197D01*
X149154Y900194D01*
X150124Y900671D01*
X150127Y900679D01*
X150133Y900677D01*
X150972Y901358D01*
X150974Y901366D01*
X150980Y901366D01*
X151646Y902217D01*
X151647Y902225D01*
X151652Y902226D01*
X152113Y903203D01*
X152111Y903211D01*
X152117Y903214D01*
X152348Y904269D01*
X152345Y904277D01*
X152349Y904280D01*
X152349Y916280D01*
X152345Y916285D01*
X152349Y916288D01*
X152156Y917394D01*
X152150Y917399D01*
X152153Y917404D01*
X151720Y918439D01*
X151713Y918443D01*
X151715Y918448D01*
X151062Y919361D01*
X151054Y919363D01*
X151055Y919369D01*
X150216Y920113D01*
X150207Y920114D01*
X150207Y920119D01*
X149223Y920658D01*
X149215Y920657D01*
X149213Y920662D01*
X148134Y920969D01*
X148126Y920966D01*
X148123Y920971D01*
X147003Y921029D01*
X146998Y921026D01*
X146995Y921029D01*
X145949Y920911D01*
X145943Y920905D01*
X145938Y920909D01*
X144944Y920561D01*
X144940Y920554D01*
X144935Y920556D01*
X144043Y919996D01*
X144041Y919989D01*
X144035Y919989D01*
X143291Y919245D01*
X143289Y919237D01*
X143284Y919237D01*
X142724Y918345D01*
X142724Y918337D01*
X142719Y918336D01*
X142371Y917342D01*
X142374Y917334D01*
X142369Y917331D01*
X142251Y916286D01*
X142253Y916282D01*
X142251Y916280D01*
X142251Y904280D01*
X142254Y904275D01*
X142251Y904272D01*
X142409Y903276D01*
X142415Y903270D01*
X142412Y903265D01*
X142787Y902329D01*
X142794Y902325D01*
X142792Y902319D01*
X143366Y901490D01*
X143374Y901487D01*
X143373Y901482D01*
X144117Y900801D01*
X144126Y900800D01*
X144126Y900794D01*
X145003Y900296D01*
X145012Y900297D01*
X145014Y900292D01*
X145979Y900001D01*
X145987Y900004D01*
X145990Y899999D01*
X146997Y899931D01*
X146999Y899932D01*
X147000Y899931D01*
X148081Y899940D01*
G37*
G36*
X915161Y43960D02*
X915161Y43960D01*
X915168Y43965D01*
X915172Y43961D01*
X916224Y44211D01*
X916229Y44217D01*
X916234Y44214D01*
X917204Y44691D01*
X917207Y44699D01*
X917213Y44697D01*
X918052Y45378D01*
X918054Y45386D01*
X918060Y45386D01*
X918726Y46237D01*
X918727Y46245D01*
X918732Y46246D01*
X919193Y47223D01*
X919191Y47231D01*
X919197Y47234D01*
X919428Y48289D01*
X919425Y48297D01*
X919429Y48300D01*
X919429Y60300D01*
X919425Y60305D01*
X919429Y60308D01*
X919236Y61414D01*
X919230Y61419D01*
X919233Y61424D01*
X918800Y62459D01*
X918793Y62463D01*
X918795Y62468D01*
X918142Y63381D01*
X918134Y63383D01*
X918135Y63389D01*
X917296Y64133D01*
X917287Y64134D01*
X917287Y64139D01*
X916303Y64678D01*
X916295Y64677D01*
X916293Y64682D01*
X915214Y64989D01*
X915206Y64986D01*
X915203Y64991D01*
X914083Y65049D01*
X914078Y65046D01*
X914075Y65049D01*
X913029Y64931D01*
X913023Y64925D01*
X913018Y64929D01*
X912024Y64581D01*
X912020Y64574D01*
X912015Y64576D01*
X911123Y64016D01*
X911121Y64009D01*
X911115Y64009D01*
X910371Y63265D01*
X910369Y63257D01*
X910364Y63257D01*
X909804Y62365D01*
X909804Y62357D01*
X909799Y62356D01*
X909451Y61362D01*
X909454Y61354D01*
X909449Y61351D01*
X909331Y60306D01*
X909333Y60302D01*
X909331Y60300D01*
X909331Y48300D01*
X909334Y48295D01*
X909331Y48292D01*
X909489Y47296D01*
X909495Y47290D01*
X909492Y47285D01*
X909867Y46349D01*
X909874Y46345D01*
X909872Y46339D01*
X910446Y45510D01*
X910454Y45507D01*
X910453Y45502D01*
X911197Y44821D01*
X911206Y44820D01*
X911206Y44814D01*
X912083Y44316D01*
X912092Y44317D01*
X912094Y44312D01*
X913059Y44021D01*
X913067Y44024D01*
X913070Y44019D01*
X914077Y43951D01*
X914079Y43952D01*
X914080Y43951D01*
X915161Y43960D01*
G37*
G36*
X915161Y899940D02*
X915161Y899940D01*
X915168Y899945D01*
X915172Y899941D01*
X916224Y900191D01*
X916229Y900197D01*
X916234Y900194D01*
X917204Y900671D01*
X917207Y900679D01*
X917213Y900677D01*
X918052Y901358D01*
X918054Y901366D01*
X918060Y901366D01*
X918726Y902217D01*
X918727Y902225D01*
X918732Y902226D01*
X919193Y903203D01*
X919191Y903211D01*
X919197Y903214D01*
X919428Y904269D01*
X919425Y904277D01*
X919429Y904280D01*
X919429Y916280D01*
X919425Y916285D01*
X919429Y916288D01*
X919236Y917394D01*
X919230Y917399D01*
X919233Y917404D01*
X918800Y918439D01*
X918793Y918443D01*
X918795Y918448D01*
X918142Y919361D01*
X918134Y919363D01*
X918135Y919369D01*
X917296Y920113D01*
X917287Y920114D01*
X917287Y920119D01*
X916303Y920658D01*
X916295Y920657D01*
X916293Y920662D01*
X915214Y920969D01*
X915206Y920966D01*
X915203Y920971D01*
X914083Y921029D01*
X914078Y921026D01*
X914075Y921029D01*
X913029Y920911D01*
X913023Y920905D01*
X913018Y920909D01*
X912024Y920561D01*
X912020Y920554D01*
X912015Y920556D01*
X911123Y919996D01*
X911121Y919989D01*
X911115Y919989D01*
X910371Y919245D01*
X910369Y919237D01*
X910364Y919237D01*
X909804Y918345D01*
X909804Y918337D01*
X909799Y918336D01*
X909451Y917342D01*
X909454Y917334D01*
X909449Y917331D01*
X909331Y916286D01*
X909333Y916282D01*
X909331Y916280D01*
X909331Y904280D01*
X909334Y904275D01*
X909331Y904272D01*
X909489Y903276D01*
X909495Y903270D01*
X909492Y903265D01*
X909867Y902329D01*
X909874Y902325D01*
X909872Y902319D01*
X910446Y901490D01*
X910454Y901487D01*
X910453Y901482D01*
X911197Y900801D01*
X911206Y900800D01*
X911206Y900794D01*
X912083Y900296D01*
X912092Y900297D01*
X912094Y900292D01*
X913059Y900001D01*
X913067Y900004D01*
X913070Y899999D01*
X914077Y899931D01*
X914079Y899932D01*
X914080Y899931D01*
X915161Y899940D01*
G37*
G36*
X148081Y43960D02*
X148081Y43960D01*
X148088Y43965D01*
X148092Y43961D01*
X149144Y44211D01*
X149149Y44217D01*
X149154Y44214D01*
X150124Y44691D01*
X150127Y44699D01*
X150133Y44697D01*
X150972Y45378D01*
X150974Y45386D01*
X150980Y45386D01*
X151646Y46237D01*
X151647Y46245D01*
X151652Y46246D01*
X152113Y47223D01*
X152111Y47231D01*
X152117Y47234D01*
X152348Y48289D01*
X152345Y48297D01*
X152349Y48300D01*
X152349Y60300D01*
X152345Y60305D01*
X152349Y60308D01*
X152156Y61414D01*
X152150Y61419D01*
X152153Y61424D01*
X151720Y62459D01*
X151713Y62463D01*
X151715Y62468D01*
X151062Y63381D01*
X151054Y63383D01*
X151055Y63389D01*
X150216Y64133D01*
X150207Y64134D01*
X150207Y64139D01*
X149223Y64678D01*
X149215Y64677D01*
X149213Y64682D01*
X148134Y64989D01*
X148126Y64986D01*
X148123Y64991D01*
X147003Y65049D01*
X146998Y65046D01*
X146995Y65049D01*
X145949Y64931D01*
X145943Y64925D01*
X145938Y64929D01*
X144944Y64581D01*
X144940Y64574D01*
X144935Y64576D01*
X144043Y64016D01*
X144041Y64009D01*
X144035Y64009D01*
X143291Y63265D01*
X143289Y63257D01*
X143284Y63257D01*
X142724Y62365D01*
X142724Y62357D01*
X142719Y62356D01*
X142371Y61362D01*
X142374Y61354D01*
X142369Y61351D01*
X142251Y60306D01*
X142253Y60302D01*
X142251Y60300D01*
X142251Y48300D01*
X142254Y48295D01*
X142251Y48292D01*
X142409Y47296D01*
X142415Y47290D01*
X142412Y47285D01*
X142787Y46349D01*
X142794Y46345D01*
X142792Y46339D01*
X143366Y45510D01*
X143374Y45507D01*
X143373Y45502D01*
X144117Y44821D01*
X144126Y44820D01*
X144126Y44814D01*
X145003Y44316D01*
X145012Y44317D01*
X145014Y44312D01*
X145979Y44021D01*
X145987Y44024D01*
X145990Y44019D01*
X146997Y43951D01*
X146999Y43952D01*
X147000Y43951D01*
X148081Y43960D01*
G37*
G36*
X234004Y860435D02*
X234004Y860435D01*
X234007Y860431D01*
X235083Y860586D01*
X235088Y860592D01*
X235093Y860589D01*
X236107Y860979D01*
X236111Y860986D01*
X236117Y860985D01*
X237019Y861591D01*
X237021Y861599D01*
X237027Y861598D01*
X237771Y862390D01*
X237772Y862398D01*
X237778Y862398D01*
X238327Y863336D01*
X238326Y863344D01*
X238332Y863346D01*
X238659Y864382D01*
X238656Y864390D01*
X238661Y864393D01*
X238749Y865476D01*
X238747Y865479D01*
X238749Y865480D01*
X238749Y871480D01*
X238746Y871484D01*
X238749Y871486D01*
X238599Y872619D01*
X238593Y872625D01*
X238596Y872630D01*
X238198Y873700D01*
X238191Y873704D01*
X238193Y873710D01*
X237566Y874665D01*
X237558Y874668D01*
X237559Y874673D01*
X236736Y875465D01*
X236728Y875466D01*
X236727Y875472D01*
X235748Y876061D01*
X235740Y876060D01*
X235738Y876065D01*
X234653Y876421D01*
X234645Y876419D01*
X234642Y876423D01*
X233505Y876529D01*
X233496Y876524D01*
X233491Y876528D01*
X232354Y876321D01*
X232348Y876315D01*
X232343Y876318D01*
X231281Y875863D01*
X231277Y875856D01*
X231271Y875858D01*
X230336Y875178D01*
X230334Y875170D01*
X230328Y875171D01*
X229568Y874300D01*
X229568Y874292D01*
X229562Y874291D01*
X229015Y873272D01*
X229016Y873264D01*
X229011Y873262D01*
X229007Y873249D01*
X228994Y873200D01*
X228993Y873200D01*
X228994Y873200D01*
X228980Y873151D01*
X228966Y873101D01*
X228953Y873052D01*
X228939Y873003D01*
X228926Y872954D01*
X228912Y872904D01*
X228899Y872855D01*
X228885Y872806D01*
X228871Y872757D01*
X228858Y872707D01*
X228844Y872658D01*
X228831Y872609D01*
X228817Y872560D01*
X228804Y872510D01*
X228790Y872461D01*
X228777Y872412D01*
X228776Y872412D01*
X228763Y872363D01*
X228749Y872313D01*
X228704Y872148D01*
X228707Y872140D01*
X228702Y872137D01*
X228651Y870982D01*
X228652Y870981D01*
X228651Y870980D01*
X228651Y864980D01*
X228655Y864974D01*
X228652Y864971D01*
X228864Y863890D01*
X228870Y863885D01*
X228867Y863880D01*
X229314Y862874D01*
X229321Y862870D01*
X229319Y862864D01*
X229979Y861983D01*
X229987Y861980D01*
X229987Y861975D01*
X230826Y861262D01*
X230834Y861262D01*
X230835Y861256D01*
X231812Y860748D01*
X231820Y860749D01*
X231822Y860744D01*
X232887Y860466D01*
X232895Y860469D01*
X232898Y860465D01*
X233999Y860431D01*
X234004Y860435D01*
G37*
G36*
X1001084Y860435D02*
X1001084Y860435D01*
X1001087Y860431D01*
X1002163Y860586D01*
X1002168Y860592D01*
X1002173Y860589D01*
X1003187Y860979D01*
X1003191Y860986D01*
X1003197Y860985D01*
X1004099Y861591D01*
X1004101Y861599D01*
X1004107Y861598D01*
X1004851Y862390D01*
X1004852Y862398D01*
X1004858Y862398D01*
X1005407Y863336D01*
X1005406Y863344D01*
X1005412Y863346D01*
X1005739Y864382D01*
X1005736Y864390D01*
X1005741Y864393D01*
X1005829Y865476D01*
X1005827Y865479D01*
X1005829Y865480D01*
X1005829Y871480D01*
X1005826Y871484D01*
X1005829Y871486D01*
X1005679Y872619D01*
X1005673Y872625D01*
X1005676Y872630D01*
X1005278Y873700D01*
X1005271Y873704D01*
X1005273Y873710D01*
X1004646Y874665D01*
X1004638Y874668D01*
X1004639Y874673D01*
X1003816Y875465D01*
X1003808Y875466D01*
X1003807Y875472D01*
X1002828Y876061D01*
X1002820Y876060D01*
X1002818Y876065D01*
X1001733Y876421D01*
X1001725Y876419D01*
X1001722Y876423D01*
X1000585Y876529D01*
X1000576Y876524D01*
X1000571Y876528D01*
X999434Y876321D01*
X999428Y876315D01*
X999423Y876318D01*
X998361Y875863D01*
X998357Y875856D01*
X998351Y875858D01*
X997416Y875178D01*
X997414Y875170D01*
X997408Y875171D01*
X996648Y874300D01*
X996648Y874292D01*
X996642Y874291D01*
X996095Y873272D01*
X996096Y873264D01*
X996091Y873262D01*
X996087Y873249D01*
X996074Y873200D01*
X996073Y873200D01*
X996074Y873200D01*
X996060Y873151D01*
X996046Y873101D01*
X996033Y873052D01*
X996019Y873003D01*
X996006Y872954D01*
X995992Y872904D01*
X995979Y872855D01*
X995965Y872806D01*
X995951Y872757D01*
X995938Y872707D01*
X995924Y872658D01*
X995911Y872609D01*
X995897Y872560D01*
X995884Y872510D01*
X995870Y872461D01*
X995857Y872412D01*
X995856Y872412D01*
X995843Y872363D01*
X995829Y872313D01*
X995784Y872148D01*
X995787Y872140D01*
X995782Y872137D01*
X995731Y870982D01*
X995732Y870981D01*
X995731Y870980D01*
X995731Y864980D01*
X995735Y864974D01*
X995732Y864971D01*
X995944Y863890D01*
X995950Y863885D01*
X995947Y863880D01*
X996394Y862874D01*
X996401Y862870D01*
X996399Y862864D01*
X997059Y861983D01*
X997067Y861980D01*
X997067Y861975D01*
X997906Y861262D01*
X997914Y861262D01*
X997915Y861256D01*
X998892Y860748D01*
X998900Y860749D01*
X998902Y860744D01*
X999967Y860466D01*
X999975Y860469D01*
X999978Y860465D01*
X1001079Y860431D01*
X1001084Y860435D01*
G37*
G36*
X1001084Y4455D02*
X1001084Y4455D01*
X1001087Y4451D01*
X1002163Y4606D01*
X1002168Y4612D01*
X1002173Y4609D01*
X1003187Y4999D01*
X1003191Y5006D01*
X1003197Y5005D01*
X1004099Y5611D01*
X1004101Y5619D01*
X1004107Y5618D01*
X1004851Y6410D01*
X1004852Y6418D01*
X1004858Y6418D01*
X1005407Y7356D01*
X1005406Y7364D01*
X1005412Y7366D01*
X1005739Y8402D01*
X1005736Y8410D01*
X1005741Y8413D01*
X1005829Y9496D01*
X1005827Y9499D01*
X1005829Y9500D01*
X1005829Y15500D01*
X1005826Y15504D01*
X1005829Y15506D01*
X1005679Y16639D01*
X1005673Y16645D01*
X1005676Y16650D01*
X1005278Y17720D01*
X1005271Y17724D01*
X1005273Y17730D01*
X1004646Y18685D01*
X1004638Y18688D01*
X1004639Y18693D01*
X1003816Y19485D01*
X1003808Y19486D01*
X1003807Y19492D01*
X1002828Y20081D01*
X1002820Y20080D01*
X1002818Y20085D01*
X1001733Y20441D01*
X1001725Y20439D01*
X1001722Y20443D01*
X1000585Y20549D01*
X1000576Y20544D01*
X1000571Y20548D01*
X999434Y20341D01*
X999428Y20335D01*
X999423Y20338D01*
X998361Y19883D01*
X998357Y19876D01*
X998351Y19878D01*
X997416Y19198D01*
X997414Y19190D01*
X997408Y19191D01*
X996648Y18320D01*
X996648Y18312D01*
X996642Y18311D01*
X996095Y17292D01*
X996096Y17284D01*
X996091Y17282D01*
X996087Y17269D01*
X996074Y17220D01*
X996073Y17220D01*
X996074Y17220D01*
X996060Y17171D01*
X996046Y17121D01*
X996033Y17072D01*
X996019Y17023D01*
X996006Y16974D01*
X995992Y16924D01*
X995979Y16875D01*
X995965Y16826D01*
X995951Y16777D01*
X995938Y16727D01*
X995924Y16678D01*
X995911Y16629D01*
X995897Y16580D01*
X995884Y16530D01*
X995870Y16481D01*
X995857Y16432D01*
X995856Y16432D01*
X995843Y16383D01*
X995829Y16333D01*
X995784Y16168D01*
X995787Y16160D01*
X995782Y16157D01*
X995731Y15002D01*
X995732Y15001D01*
X995731Y15000D01*
X995731Y9000D01*
X995735Y8994D01*
X995732Y8991D01*
X995944Y7910D01*
X995950Y7905D01*
X995947Y7900D01*
X996394Y6894D01*
X996401Y6890D01*
X996399Y6884D01*
X997059Y6003D01*
X997067Y6000D01*
X997067Y5995D01*
X997906Y5282D01*
X997914Y5282D01*
X997915Y5276D01*
X998892Y4768D01*
X998900Y4769D01*
X998902Y4764D01*
X999967Y4486D01*
X999975Y4489D01*
X999978Y4485D01*
X1001079Y4451D01*
X1001084Y4455D01*
G37*
G36*
X234004Y4455D02*
X234004Y4455D01*
X234007Y4451D01*
X235083Y4606D01*
X235088Y4612D01*
X235093Y4609D01*
X236107Y4999D01*
X236111Y5006D01*
X236117Y5005D01*
X237019Y5611D01*
X237021Y5619D01*
X237027Y5618D01*
X237771Y6410D01*
X237772Y6418D01*
X237778Y6418D01*
X238327Y7356D01*
X238326Y7364D01*
X238332Y7366D01*
X238659Y8402D01*
X238656Y8410D01*
X238661Y8413D01*
X238749Y9496D01*
X238747Y9499D01*
X238749Y9500D01*
X238749Y15500D01*
X238746Y15504D01*
X238749Y15506D01*
X238599Y16639D01*
X238593Y16645D01*
X238596Y16650D01*
X238198Y17720D01*
X238191Y17724D01*
X238193Y17730D01*
X237566Y18685D01*
X237558Y18688D01*
X237559Y18693D01*
X236736Y19485D01*
X236728Y19486D01*
X236727Y19492D01*
X235748Y20081D01*
X235740Y20080D01*
X235738Y20085D01*
X234653Y20441D01*
X234645Y20439D01*
X234642Y20443D01*
X233505Y20549D01*
X233496Y20544D01*
X233491Y20548D01*
X232354Y20341D01*
X232348Y20335D01*
X232343Y20338D01*
X231281Y19883D01*
X231277Y19876D01*
X231271Y19878D01*
X230336Y19198D01*
X230334Y19190D01*
X230328Y19191D01*
X229568Y18320D01*
X229568Y18312D01*
X229562Y18311D01*
X229015Y17292D01*
X229016Y17284D01*
X229011Y17282D01*
X229007Y17269D01*
X228994Y17220D01*
X228993Y17220D01*
X228994Y17220D01*
X228980Y17171D01*
X228966Y17121D01*
X228953Y17072D01*
X228939Y17023D01*
X228926Y16974D01*
X228912Y16924D01*
X228899Y16875D01*
X228885Y16826D01*
X228871Y16777D01*
X228858Y16727D01*
X228844Y16678D01*
X228831Y16629D01*
X228817Y16580D01*
X228804Y16530D01*
X228790Y16481D01*
X228777Y16432D01*
X228776Y16432D01*
X228763Y16383D01*
X228749Y16333D01*
X228704Y16168D01*
X228707Y16160D01*
X228702Y16157D01*
X228651Y15002D01*
X228652Y15001D01*
X228651Y15000D01*
X228651Y9000D01*
X228655Y8994D01*
X228652Y8991D01*
X228864Y7910D01*
X228870Y7905D01*
X228867Y7900D01*
X229314Y6894D01*
X229321Y6890D01*
X229319Y6884D01*
X229979Y6003D01*
X229987Y6000D01*
X229987Y5995D01*
X230826Y5282D01*
X230834Y5282D01*
X230835Y5276D01*
X231812Y4768D01*
X231820Y4769D01*
X231822Y4764D01*
X232887Y4486D01*
X232895Y4489D01*
X232898Y4485D01*
X233999Y4451D01*
X234004Y4455D01*
G37*
G36*
X147502Y860435D02*
X147502Y860435D01*
X147507Y860431D01*
X148594Y860576D01*
X148600Y860582D01*
X148605Y860579D01*
X149633Y860963D01*
X149638Y860969D01*
X149643Y860968D01*
X150560Y861570D01*
X150563Y861578D01*
X150569Y861577D01*
X151329Y862369D01*
X151330Y862377D01*
X151336Y862378D01*
X151900Y863319D01*
X151900Y863322D01*
X151901Y863323D01*
X151900Y863325D01*
X151899Y863327D01*
X151905Y863329D01*
X152246Y864372D01*
X152244Y864380D01*
X152248Y864383D01*
X152349Y865476D01*
X152347Y865478D01*
X152349Y865480D01*
X152349Y871480D01*
X152347Y871483D01*
X152349Y871485D01*
X152248Y872577D01*
X152243Y872583D01*
X152246Y872588D01*
X151905Y873631D01*
X151898Y873636D01*
X151900Y873641D01*
X151336Y874582D01*
X151328Y874585D01*
X151329Y874591D01*
X150569Y875383D01*
X150561Y875384D01*
X150560Y875390D01*
X149643Y875993D01*
X149635Y875992D01*
X149633Y875998D01*
X148605Y876381D01*
X148597Y876379D01*
X148594Y876384D01*
X147507Y876529D01*
X147499Y876525D01*
X147495Y876529D01*
X146358Y876423D01*
X146352Y876418D01*
X146347Y876421D01*
X145262Y876065D01*
X145257Y876058D01*
X145252Y876061D01*
X144273Y875472D01*
X144270Y875464D01*
X144264Y875465D01*
X143441Y874673D01*
X143440Y874665D01*
X143434Y874665D01*
X142807Y873710D01*
X142808Y873702D01*
X142802Y873700D01*
X142404Y872630D01*
X142406Y872622D01*
X142401Y872619D01*
X142251Y871486D01*
X142254Y871482D01*
X142251Y871480D01*
X142251Y865480D01*
X142254Y865476D01*
X142251Y865474D01*
X142401Y864341D01*
X142407Y864335D01*
X142404Y864330D01*
X142802Y863260D01*
X142809Y863256D01*
X142807Y863250D01*
X143434Y862295D01*
X143442Y862292D01*
X143441Y862287D01*
X144264Y861495D01*
X144272Y861494D01*
X144273Y861488D01*
X145252Y860899D01*
X145260Y860900D01*
X145262Y860895D01*
X146347Y860539D01*
X146355Y860542D01*
X146358Y860537D01*
X147495Y860431D01*
X147502Y860435D01*
G37*
G36*
X914582Y860435D02*
X914582Y860435D01*
X914587Y860431D01*
X915674Y860576D01*
X915680Y860582D01*
X915685Y860579D01*
X916713Y860963D01*
X916718Y860969D01*
X916723Y860968D01*
X917640Y861570D01*
X917643Y861578D01*
X917649Y861577D01*
X918409Y862369D01*
X918410Y862377D01*
X918416Y862378D01*
X918980Y863319D01*
X918980Y863322D01*
X918981Y863323D01*
X918980Y863325D01*
X918979Y863327D01*
X918985Y863329D01*
X919326Y864372D01*
X919324Y864380D01*
X919328Y864383D01*
X919429Y865476D01*
X919427Y865478D01*
X919429Y865480D01*
X919429Y871480D01*
X919427Y871483D01*
X919429Y871485D01*
X919328Y872577D01*
X919323Y872583D01*
X919326Y872588D01*
X918985Y873631D01*
X918978Y873636D01*
X918980Y873641D01*
X918416Y874582D01*
X918408Y874585D01*
X918409Y874591D01*
X917649Y875383D01*
X917641Y875384D01*
X917640Y875390D01*
X916723Y875993D01*
X916715Y875992D01*
X916713Y875998D01*
X915685Y876381D01*
X915677Y876379D01*
X915674Y876384D01*
X914587Y876529D01*
X914579Y876525D01*
X914575Y876529D01*
X913438Y876423D01*
X913432Y876418D01*
X913427Y876421D01*
X912342Y876065D01*
X912337Y876058D01*
X912332Y876061D01*
X911353Y875472D01*
X911350Y875464D01*
X911344Y875465D01*
X910521Y874673D01*
X910520Y874665D01*
X910514Y874665D01*
X909887Y873710D01*
X909888Y873702D01*
X909882Y873700D01*
X909484Y872630D01*
X909486Y872622D01*
X909481Y872619D01*
X909331Y871486D01*
X909334Y871482D01*
X909331Y871480D01*
X909331Y865480D01*
X909334Y865476D01*
X909331Y865474D01*
X909481Y864341D01*
X909487Y864335D01*
X909484Y864330D01*
X909882Y863260D01*
X909889Y863256D01*
X909887Y863250D01*
X910514Y862295D01*
X910522Y862292D01*
X910521Y862287D01*
X911344Y861495D01*
X911352Y861494D01*
X911353Y861488D01*
X912332Y860899D01*
X912340Y860900D01*
X912342Y860895D01*
X913427Y860539D01*
X913435Y860542D01*
X913438Y860537D01*
X914575Y860431D01*
X914582Y860435D01*
G37*
G36*
X914582Y4455D02*
X914582Y4455D01*
X914587Y4451D01*
X915674Y4596D01*
X915680Y4602D01*
X915685Y4599D01*
X916713Y4983D01*
X916718Y4989D01*
X916723Y4988D01*
X917640Y5590D01*
X917643Y5598D01*
X917649Y5597D01*
X918409Y6389D01*
X918410Y6397D01*
X918416Y6398D01*
X918980Y7339D01*
X918980Y7342D01*
X918981Y7343D01*
X918980Y7345D01*
X918979Y7347D01*
X918985Y7349D01*
X919326Y8392D01*
X919324Y8400D01*
X919328Y8403D01*
X919429Y9496D01*
X919427Y9498D01*
X919429Y9500D01*
X919429Y15500D01*
X919427Y15503D01*
X919429Y15505D01*
X919328Y16597D01*
X919323Y16603D01*
X919326Y16608D01*
X918985Y17651D01*
X918978Y17656D01*
X918980Y17661D01*
X918416Y18602D01*
X918408Y18605D01*
X918409Y18611D01*
X917649Y19403D01*
X917641Y19404D01*
X917640Y19410D01*
X916723Y20013D01*
X916715Y20012D01*
X916713Y20018D01*
X915685Y20401D01*
X915677Y20399D01*
X915674Y20404D01*
X914587Y20549D01*
X914579Y20545D01*
X914575Y20549D01*
X913438Y20443D01*
X913432Y20438D01*
X913427Y20441D01*
X912342Y20085D01*
X912337Y20078D01*
X912332Y20081D01*
X911353Y19492D01*
X911350Y19484D01*
X911344Y19485D01*
X910521Y18693D01*
X910520Y18685D01*
X910514Y18685D01*
X909887Y17730D01*
X909888Y17722D01*
X909882Y17720D01*
X909484Y16650D01*
X909486Y16642D01*
X909481Y16639D01*
X909331Y15506D01*
X909334Y15502D01*
X909331Y15500D01*
X909331Y9500D01*
X909334Y9496D01*
X909331Y9494D01*
X909481Y8361D01*
X909487Y8355D01*
X909484Y8350D01*
X909882Y7280D01*
X909889Y7276D01*
X909887Y7270D01*
X910514Y6315D01*
X910522Y6312D01*
X910521Y6307D01*
X911344Y5515D01*
X911352Y5514D01*
X911353Y5508D01*
X912332Y4919D01*
X912340Y4920D01*
X912342Y4915D01*
X913427Y4559D01*
X913435Y4562D01*
X913438Y4557D01*
X914575Y4451D01*
X914582Y4455D01*
G37*
G36*
X147502Y4455D02*
X147502Y4455D01*
X147507Y4451D01*
X148594Y4596D01*
X148600Y4602D01*
X148605Y4599D01*
X149633Y4983D01*
X149638Y4989D01*
X149643Y4988D01*
X150560Y5590D01*
X150563Y5598D01*
X150569Y5597D01*
X151329Y6389D01*
X151330Y6397D01*
X151336Y6398D01*
X151900Y7339D01*
X151900Y7342D01*
X151901Y7343D01*
X151900Y7345D01*
X151899Y7347D01*
X151905Y7349D01*
X152246Y8392D01*
X152244Y8400D01*
X152248Y8403D01*
X152349Y9496D01*
X152347Y9498D01*
X152349Y9500D01*
X152349Y15500D01*
X152347Y15503D01*
X152349Y15505D01*
X152248Y16597D01*
X152243Y16603D01*
X152246Y16608D01*
X151905Y17651D01*
X151898Y17656D01*
X151900Y17661D01*
X151336Y18602D01*
X151328Y18605D01*
X151329Y18611D01*
X150569Y19403D01*
X150561Y19404D01*
X150560Y19410D01*
X149643Y20013D01*
X149635Y20012D01*
X149633Y20018D01*
X148605Y20401D01*
X148597Y20399D01*
X148594Y20404D01*
X147507Y20549D01*
X147499Y20545D01*
X147495Y20549D01*
X146358Y20443D01*
X146352Y20438D01*
X146347Y20441D01*
X145262Y20085D01*
X145257Y20078D01*
X145252Y20081D01*
X144273Y19492D01*
X144270Y19484D01*
X144264Y19485D01*
X143441Y18693D01*
X143440Y18685D01*
X143434Y18685D01*
X142807Y17730D01*
X142808Y17722D01*
X142802Y17720D01*
X142404Y16650D01*
X142406Y16642D01*
X142401Y16639D01*
X142251Y15506D01*
X142254Y15502D01*
X142251Y15500D01*
X142251Y9500D01*
X142254Y9496D01*
X142251Y9494D01*
X142401Y8361D01*
X142407Y8355D01*
X142404Y8350D01*
X142802Y7280D01*
X142809Y7276D01*
X142807Y7270D01*
X143434Y6315D01*
X143442Y6312D01*
X143441Y6307D01*
X144264Y5515D01*
X144272Y5514D01*
X144273Y5508D01*
X145252Y4919D01*
X145260Y4920D01*
X145262Y4915D01*
X146347Y4559D01*
X146355Y4562D01*
X146358Y4557D01*
X147495Y4451D01*
X147502Y4455D01*
G37*
G36*
X598477Y1231683D02*
X598477Y1231683D01*
X598486Y1231687D01*
X598526Y1231693D01*
X600013Y1232162D01*
X600022Y1232168D01*
X600060Y1232182D01*
X601421Y1232942D01*
X601441Y1232962D01*
X601466Y1232974D01*
X601489Y1233011D01*
X601520Y1233042D01*
X601525Y1233069D01*
X601540Y1233093D01*
X601540Y1233136D01*
X601549Y1233179D01*
X601539Y1233205D01*
X601538Y1233233D01*
X601506Y1233300D01*
X600106Y1235370D01*
X600102Y1235374D01*
X600099Y1235380D01*
X600048Y1235418D01*
X599999Y1235459D01*
X599993Y1235460D01*
X599988Y1235463D01*
X599924Y1235468D01*
X599860Y1235476D01*
X599854Y1235473D01*
X599848Y1235474D01*
X599779Y1235448D01*
X598872Y1234942D01*
X597907Y1234638D01*
X596900Y1234535D01*
X595893Y1234638D01*
X594928Y1234942D01*
X594021Y1235448D01*
X594015Y1235449D01*
X594011Y1235453D01*
X593948Y1235465D01*
X593885Y1235479D01*
X593879Y1235477D01*
X593873Y1235478D01*
X593814Y1235453D01*
X593754Y1235432D01*
X593750Y1235427D01*
X593744Y1235424D01*
X593694Y1235370D01*
X592294Y1233300D01*
X592285Y1233273D01*
X592268Y1233251D01*
X592264Y1233208D01*
X592251Y1233167D01*
X592258Y1233140D01*
X592255Y1233112D01*
X592275Y1233073D01*
X592287Y1233031D01*
X592307Y1233013D01*
X592320Y1232988D01*
X592379Y1232942D01*
X593740Y1232182D01*
X593751Y1232180D01*
X593787Y1232162D01*
X595274Y1231693D01*
X595284Y1231693D01*
X595323Y1231683D01*
X596875Y1231525D01*
X596885Y1231527D01*
X596925Y1231525D01*
X598477Y1231683D01*
G37*
G36*
X598477Y375703D02*
X598477Y375703D01*
X598486Y375707D01*
X598526Y375713D01*
X600013Y376182D01*
X600022Y376188D01*
X600060Y376202D01*
X601421Y376962D01*
X601441Y376982D01*
X601466Y376994D01*
X601489Y377031D01*
X601520Y377062D01*
X601525Y377089D01*
X601540Y377113D01*
X601540Y377156D01*
X601549Y377199D01*
X601539Y377225D01*
X601538Y377253D01*
X601506Y377320D01*
X600106Y379390D01*
X600102Y379394D01*
X600099Y379400D01*
X600048Y379438D01*
X599999Y379479D01*
X599993Y379480D01*
X599988Y379483D01*
X599924Y379488D01*
X599860Y379496D01*
X599854Y379493D01*
X599848Y379494D01*
X599779Y379468D01*
X598872Y378962D01*
X597907Y378658D01*
X596900Y378555D01*
X595893Y378658D01*
X594928Y378962D01*
X594021Y379468D01*
X594015Y379469D01*
X594011Y379473D01*
X593948Y379485D01*
X593885Y379499D01*
X593879Y379497D01*
X593873Y379498D01*
X593814Y379473D01*
X593754Y379452D01*
X593750Y379447D01*
X593744Y379444D01*
X593694Y379390D01*
X592294Y377320D01*
X592285Y377293D01*
X592268Y377271D01*
X592264Y377228D01*
X592251Y377187D01*
X592258Y377160D01*
X592255Y377132D01*
X592275Y377093D01*
X592287Y377051D01*
X592307Y377033D01*
X592320Y377008D01*
X592379Y376962D01*
X593740Y376202D01*
X593751Y376200D01*
X593787Y376182D01*
X595274Y375713D01*
X595284Y375713D01*
X595323Y375703D01*
X596875Y375545D01*
X596885Y375547D01*
X596925Y375545D01*
X598477Y375703D01*
G37*
G36*
X1365557Y375703D02*
X1365557Y375703D01*
X1365566Y375707D01*
X1365606Y375713D01*
X1367093Y376182D01*
X1367102Y376188D01*
X1367140Y376202D01*
X1368501Y376962D01*
X1368521Y376982D01*
X1368546Y376994D01*
X1368569Y377031D01*
X1368600Y377062D01*
X1368605Y377089D01*
X1368620Y377113D01*
X1368620Y377156D01*
X1368629Y377199D01*
X1368619Y377225D01*
X1368618Y377253D01*
X1368586Y377320D01*
X1367186Y379390D01*
X1367182Y379394D01*
X1367179Y379400D01*
X1367128Y379438D01*
X1367079Y379479D01*
X1367073Y379480D01*
X1367068Y379483D01*
X1367004Y379488D01*
X1366940Y379496D01*
X1366934Y379493D01*
X1366928Y379494D01*
X1366859Y379468D01*
X1365952Y378962D01*
X1364987Y378658D01*
X1363980Y378555D01*
X1362973Y378658D01*
X1362008Y378962D01*
X1361101Y379468D01*
X1361095Y379469D01*
X1361091Y379473D01*
X1361028Y379485D01*
X1360965Y379499D01*
X1360959Y379497D01*
X1360953Y379498D01*
X1360894Y379473D01*
X1360834Y379452D01*
X1360830Y379447D01*
X1360824Y379444D01*
X1360774Y379390D01*
X1359374Y377320D01*
X1359365Y377293D01*
X1359348Y377271D01*
X1359344Y377228D01*
X1359331Y377187D01*
X1359338Y377160D01*
X1359335Y377132D01*
X1359355Y377093D01*
X1359367Y377051D01*
X1359387Y377033D01*
X1359400Y377008D01*
X1359459Y376962D01*
X1360820Y376202D01*
X1360831Y376200D01*
X1360867Y376182D01*
X1362354Y375713D01*
X1362364Y375713D01*
X1362403Y375703D01*
X1363955Y375545D01*
X1363965Y375547D01*
X1364005Y375545D01*
X1365557Y375703D01*
G37*
G36*
X1365557Y1231683D02*
X1365557Y1231683D01*
X1365566Y1231687D01*
X1365606Y1231693D01*
X1367093Y1232162D01*
X1367102Y1232168D01*
X1367140Y1232182D01*
X1368501Y1232942D01*
X1368521Y1232962D01*
X1368546Y1232974D01*
X1368569Y1233011D01*
X1368600Y1233042D01*
X1368605Y1233069D01*
X1368620Y1233093D01*
X1368620Y1233136D01*
X1368629Y1233179D01*
X1368619Y1233205D01*
X1368618Y1233233D01*
X1368586Y1233300D01*
X1367186Y1235370D01*
X1367182Y1235374D01*
X1367179Y1235380D01*
X1367128Y1235418D01*
X1367079Y1235459D01*
X1367073Y1235460D01*
X1367068Y1235463D01*
X1367004Y1235468D01*
X1366940Y1235476D01*
X1366934Y1235473D01*
X1366928Y1235474D01*
X1366859Y1235448D01*
X1365952Y1234942D01*
X1364987Y1234638D01*
X1363980Y1234535D01*
X1362973Y1234638D01*
X1362008Y1234942D01*
X1361101Y1235448D01*
X1361095Y1235449D01*
X1361091Y1235453D01*
X1361028Y1235465D01*
X1360965Y1235479D01*
X1360959Y1235477D01*
X1360953Y1235478D01*
X1360894Y1235453D01*
X1360834Y1235432D01*
X1360830Y1235427D01*
X1360824Y1235424D01*
X1360774Y1235370D01*
X1359374Y1233300D01*
X1359365Y1233273D01*
X1359348Y1233251D01*
X1359344Y1233208D01*
X1359331Y1233167D01*
X1359338Y1233140D01*
X1359335Y1233112D01*
X1359355Y1233073D01*
X1359367Y1233031D01*
X1359387Y1233013D01*
X1359400Y1232988D01*
X1359459Y1232942D01*
X1360820Y1232182D01*
X1360831Y1232180D01*
X1360867Y1232162D01*
X1362354Y1231693D01*
X1362364Y1231693D01*
X1362403Y1231683D01*
X1363955Y1231525D01*
X1363965Y1231527D01*
X1364005Y1231525D01*
X1365557Y1231683D01*
G37*
G36*
X1357505Y379061D02*
X1357505Y379061D01*
X1357533Y379062D01*
X1357600Y379094D01*
X1359670Y380494D01*
X1359674Y380498D01*
X1359680Y380501D01*
X1359718Y380552D01*
X1359759Y380601D01*
X1359760Y380607D01*
X1359763Y380612D01*
X1359768Y380676D01*
X1359776Y380740D01*
X1359773Y380746D01*
X1359774Y380752D01*
X1359748Y380821D01*
X1359242Y381728D01*
X1358938Y382693D01*
X1358835Y383700D01*
X1358938Y384707D01*
X1359242Y385672D01*
X1359748Y386579D01*
X1359749Y386585D01*
X1359753Y386589D01*
X1359765Y386652D01*
X1359779Y386715D01*
X1359777Y386721D01*
X1359778Y386727D01*
X1359753Y386786D01*
X1359732Y386846D01*
X1359727Y386850D01*
X1359724Y386856D01*
X1359670Y386906D01*
X1357600Y388306D01*
X1357573Y388315D01*
X1357551Y388332D01*
X1357508Y388336D01*
X1357467Y388349D01*
X1357440Y388342D01*
X1357412Y388345D01*
X1357373Y388325D01*
X1357331Y388314D01*
X1357313Y388293D01*
X1357288Y388280D01*
X1357242Y388221D01*
X1356482Y386860D01*
X1356480Y386849D01*
X1356462Y386813D01*
X1355993Y385326D01*
X1355993Y385316D01*
X1355983Y385277D01*
X1355825Y383725D01*
X1355827Y383715D01*
X1355825Y383675D01*
X1355983Y382123D01*
X1355987Y382114D01*
X1355993Y382074D01*
X1356462Y380587D01*
X1356468Y380578D01*
X1356482Y380540D01*
X1357242Y379179D01*
X1357262Y379159D01*
X1357274Y379134D01*
X1357311Y379111D01*
X1357342Y379080D01*
X1357369Y379075D01*
X1357393Y379060D01*
X1357436Y379060D01*
X1357479Y379051D01*
X1357505Y379061D01*
G37*
G36*
X590425Y379061D02*
X590425Y379061D01*
X590453Y379062D01*
X590520Y379094D01*
X592590Y380494D01*
X592594Y380498D01*
X592600Y380501D01*
X592638Y380552D01*
X592679Y380601D01*
X592680Y380607D01*
X592683Y380612D01*
X592688Y380676D01*
X592696Y380740D01*
X592693Y380746D01*
X592694Y380752D01*
X592668Y380821D01*
X592162Y381728D01*
X591858Y382693D01*
X591755Y383700D01*
X591858Y384707D01*
X592162Y385672D01*
X592668Y386579D01*
X592669Y386585D01*
X592673Y386589D01*
X592685Y386652D01*
X592699Y386715D01*
X592697Y386721D01*
X592698Y386727D01*
X592673Y386786D01*
X592652Y386846D01*
X592647Y386850D01*
X592644Y386856D01*
X592590Y386906D01*
X590520Y388306D01*
X590493Y388315D01*
X590471Y388332D01*
X590428Y388336D01*
X590387Y388349D01*
X590360Y388342D01*
X590332Y388345D01*
X590293Y388325D01*
X590251Y388314D01*
X590233Y388293D01*
X590208Y388280D01*
X590162Y388221D01*
X589402Y386860D01*
X589400Y386849D01*
X589382Y386813D01*
X588913Y385326D01*
X588913Y385316D01*
X588903Y385277D01*
X588745Y383725D01*
X588747Y383715D01*
X588745Y383675D01*
X588903Y382123D01*
X588907Y382114D01*
X588913Y382074D01*
X589382Y380587D01*
X589388Y380578D01*
X589402Y380540D01*
X590162Y379179D01*
X590182Y379159D01*
X590194Y379134D01*
X590231Y379111D01*
X590262Y379080D01*
X590289Y379075D01*
X590313Y379060D01*
X590356Y379060D01*
X590399Y379051D01*
X590425Y379061D01*
G37*
G36*
X603440Y379058D02*
X603440Y379058D01*
X603468Y379055D01*
X603507Y379075D01*
X603549Y379087D01*
X603567Y379107D01*
X603592Y379120D01*
X603638Y379179D01*
X604398Y380540D01*
X604400Y380551D01*
X604418Y380587D01*
X604887Y382074D01*
X604887Y382084D01*
X604897Y382123D01*
X605055Y383675D01*
X605053Y383685D01*
X605055Y383725D01*
X604897Y385277D01*
X604893Y385286D01*
X604887Y385326D01*
X604418Y386813D01*
X604412Y386822D01*
X604398Y386860D01*
X603638Y388221D01*
X603618Y388241D01*
X603606Y388266D01*
X603569Y388289D01*
X603538Y388320D01*
X603511Y388325D01*
X603487Y388340D01*
X603444Y388340D01*
X603401Y388349D01*
X603375Y388339D01*
X603347Y388338D01*
X603280Y388306D01*
X601210Y386906D01*
X601206Y386902D01*
X601200Y386899D01*
X601162Y386848D01*
X601121Y386799D01*
X601120Y386793D01*
X601117Y386788D01*
X601112Y386724D01*
X601104Y386660D01*
X601107Y386654D01*
X601106Y386648D01*
X601132Y386579D01*
X601638Y385672D01*
X601942Y384707D01*
X602045Y383700D01*
X601942Y382693D01*
X601638Y381728D01*
X601132Y380821D01*
X601131Y380815D01*
X601127Y380811D01*
X601115Y380748D01*
X601101Y380685D01*
X601103Y380679D01*
X601102Y380673D01*
X601127Y380614D01*
X601148Y380554D01*
X601153Y380550D01*
X601156Y380544D01*
X601210Y380494D01*
X603280Y379094D01*
X603307Y379085D01*
X603329Y379068D01*
X603372Y379064D01*
X603413Y379051D01*
X603440Y379058D01*
G37*
G36*
X1370520Y379058D02*
X1370520Y379058D01*
X1370548Y379055D01*
X1370587Y379075D01*
X1370629Y379087D01*
X1370647Y379107D01*
X1370672Y379120D01*
X1370718Y379179D01*
X1371478Y380540D01*
X1371480Y380551D01*
X1371498Y380587D01*
X1371967Y382074D01*
X1371967Y382084D01*
X1371977Y382123D01*
X1372135Y383675D01*
X1372133Y383685D01*
X1372135Y383725D01*
X1371977Y385277D01*
X1371973Y385286D01*
X1371967Y385326D01*
X1371498Y386813D01*
X1371492Y386822D01*
X1371478Y386860D01*
X1370718Y388221D01*
X1370698Y388241D01*
X1370686Y388266D01*
X1370649Y388289D01*
X1370618Y388320D01*
X1370591Y388325D01*
X1370567Y388340D01*
X1370524Y388340D01*
X1370481Y388349D01*
X1370455Y388339D01*
X1370427Y388338D01*
X1370360Y388306D01*
X1368290Y386906D01*
X1368286Y386902D01*
X1368280Y386899D01*
X1368242Y386848D01*
X1368201Y386799D01*
X1368200Y386793D01*
X1368197Y386788D01*
X1368192Y386724D01*
X1368184Y386660D01*
X1368187Y386654D01*
X1368186Y386648D01*
X1368212Y386579D01*
X1368718Y385672D01*
X1369022Y384707D01*
X1369125Y383700D01*
X1369022Y382693D01*
X1368718Y381728D01*
X1368212Y380821D01*
X1368211Y380815D01*
X1368207Y380811D01*
X1368195Y380748D01*
X1368181Y380685D01*
X1368183Y380679D01*
X1368182Y380673D01*
X1368207Y380614D01*
X1368228Y380554D01*
X1368233Y380550D01*
X1368236Y380544D01*
X1368290Y380494D01*
X1370360Y379094D01*
X1370387Y379085D01*
X1370409Y379068D01*
X1370452Y379064D01*
X1370493Y379051D01*
X1370520Y379058D01*
G37*
G36*
X599921Y387903D02*
X599921Y387903D01*
X599927Y387902D01*
X599986Y387927D01*
X600046Y387948D01*
X600050Y387953D01*
X600056Y387956D01*
X600106Y388010D01*
X601506Y390080D01*
X601515Y390107D01*
X601532Y390129D01*
X601536Y390172D01*
X601549Y390213D01*
X601542Y390240D01*
X601545Y390268D01*
X601525Y390307D01*
X601514Y390349D01*
X601493Y390367D01*
X601480Y390392D01*
X601421Y390438D01*
X600060Y391198D01*
X600049Y391200D01*
X600013Y391218D01*
X598526Y391687D01*
X598516Y391687D01*
X598477Y391697D01*
X596925Y391855D01*
X596915Y391853D01*
X596875Y391855D01*
X595323Y391697D01*
X595314Y391693D01*
X595274Y391687D01*
X593787Y391218D01*
X593778Y391212D01*
X593740Y391198D01*
X592379Y390438D01*
X592359Y390418D01*
X592334Y390406D01*
X592311Y390369D01*
X592280Y390338D01*
X592275Y390311D01*
X592260Y390287D01*
X592260Y390244D01*
X592251Y390201D01*
X592261Y390175D01*
X592262Y390147D01*
X592294Y390080D01*
X593694Y388010D01*
X593698Y388006D01*
X593701Y388000D01*
X593752Y387962D01*
X593801Y387921D01*
X593807Y387920D01*
X593812Y387917D01*
X593876Y387912D01*
X593940Y387904D01*
X593946Y387907D01*
X593952Y387906D01*
X594021Y387932D01*
X594928Y388438D01*
X595893Y388742D01*
X596900Y388845D01*
X597907Y388742D01*
X598872Y388438D01*
X599779Y387932D01*
X599785Y387931D01*
X599789Y387927D01*
X599852Y387915D01*
X599915Y387901D01*
X599921Y387903D01*
G37*
G36*
X1367001Y387903D02*
X1367001Y387903D01*
X1367007Y387902D01*
X1367066Y387927D01*
X1367126Y387948D01*
X1367130Y387953D01*
X1367136Y387956D01*
X1367186Y388010D01*
X1368586Y390080D01*
X1368595Y390107D01*
X1368612Y390129D01*
X1368616Y390172D01*
X1368629Y390213D01*
X1368622Y390240D01*
X1368625Y390268D01*
X1368605Y390307D01*
X1368594Y390349D01*
X1368573Y390367D01*
X1368560Y390392D01*
X1368501Y390438D01*
X1367140Y391198D01*
X1367129Y391200D01*
X1367093Y391218D01*
X1365606Y391687D01*
X1365596Y391687D01*
X1365557Y391697D01*
X1364005Y391855D01*
X1363995Y391853D01*
X1363955Y391855D01*
X1362403Y391697D01*
X1362394Y391693D01*
X1362354Y391687D01*
X1360867Y391218D01*
X1360858Y391212D01*
X1360820Y391198D01*
X1359459Y390438D01*
X1359439Y390418D01*
X1359414Y390406D01*
X1359391Y390369D01*
X1359360Y390338D01*
X1359355Y390311D01*
X1359340Y390287D01*
X1359340Y390244D01*
X1359331Y390201D01*
X1359341Y390175D01*
X1359342Y390147D01*
X1359374Y390080D01*
X1360774Y388010D01*
X1360778Y388006D01*
X1360781Y388000D01*
X1360832Y387962D01*
X1360881Y387921D01*
X1360887Y387920D01*
X1360892Y387917D01*
X1360956Y387912D01*
X1361020Y387904D01*
X1361026Y387907D01*
X1361032Y387906D01*
X1361101Y387932D01*
X1362008Y388438D01*
X1362973Y388742D01*
X1363980Y388845D01*
X1364987Y388742D01*
X1365952Y388438D01*
X1366859Y387932D01*
X1366865Y387931D01*
X1366869Y387927D01*
X1366932Y387915D01*
X1366995Y387901D01*
X1367001Y387903D01*
G37*
G36*
X1367001Y1243883D02*
X1367001Y1243883D01*
X1367007Y1243882D01*
X1367066Y1243907D01*
X1367126Y1243928D01*
X1367130Y1243933D01*
X1367136Y1243936D01*
X1367186Y1243990D01*
X1368586Y1246060D01*
X1368595Y1246087D01*
X1368612Y1246109D01*
X1368616Y1246152D01*
X1368629Y1246193D01*
X1368622Y1246220D01*
X1368625Y1246248D01*
X1368605Y1246287D01*
X1368594Y1246329D01*
X1368573Y1246347D01*
X1368560Y1246372D01*
X1368501Y1246418D01*
X1367140Y1247178D01*
X1367129Y1247180D01*
X1367093Y1247198D01*
X1365606Y1247667D01*
X1365596Y1247667D01*
X1365557Y1247677D01*
X1364005Y1247835D01*
X1363995Y1247833D01*
X1363955Y1247835D01*
X1362403Y1247677D01*
X1362394Y1247673D01*
X1362354Y1247667D01*
X1360867Y1247198D01*
X1360858Y1247192D01*
X1360820Y1247178D01*
X1359459Y1246418D01*
X1359439Y1246398D01*
X1359414Y1246386D01*
X1359391Y1246349D01*
X1359360Y1246318D01*
X1359355Y1246291D01*
X1359340Y1246267D01*
X1359340Y1246224D01*
X1359331Y1246181D01*
X1359341Y1246155D01*
X1359342Y1246127D01*
X1359374Y1246060D01*
X1360774Y1243990D01*
X1360778Y1243986D01*
X1360781Y1243980D01*
X1360832Y1243942D01*
X1360881Y1243901D01*
X1360887Y1243900D01*
X1360892Y1243897D01*
X1360956Y1243892D01*
X1361020Y1243884D01*
X1361026Y1243887D01*
X1361032Y1243886D01*
X1361101Y1243912D01*
X1362008Y1244418D01*
X1362973Y1244722D01*
X1363980Y1244825D01*
X1364987Y1244722D01*
X1365952Y1244418D01*
X1366859Y1243912D01*
X1366865Y1243911D01*
X1366869Y1243907D01*
X1366932Y1243895D01*
X1366995Y1243881D01*
X1367001Y1243883D01*
G37*
G36*
X1370520Y1235038D02*
X1370520Y1235038D01*
X1370548Y1235035D01*
X1370587Y1235055D01*
X1370629Y1235067D01*
X1370647Y1235087D01*
X1370672Y1235100D01*
X1370718Y1235159D01*
X1371478Y1236520D01*
X1371480Y1236531D01*
X1371498Y1236567D01*
X1371967Y1238054D01*
X1371967Y1238064D01*
X1371977Y1238103D01*
X1372135Y1239655D01*
X1372133Y1239665D01*
X1372135Y1239705D01*
X1371977Y1241257D01*
X1371973Y1241266D01*
X1371967Y1241306D01*
X1371498Y1242793D01*
X1371492Y1242802D01*
X1371478Y1242840D01*
X1370718Y1244201D01*
X1370698Y1244221D01*
X1370686Y1244246D01*
X1370649Y1244269D01*
X1370618Y1244300D01*
X1370591Y1244305D01*
X1370567Y1244320D01*
X1370524Y1244320D01*
X1370481Y1244329D01*
X1370455Y1244319D01*
X1370427Y1244318D01*
X1370360Y1244286D01*
X1368290Y1242886D01*
X1368286Y1242882D01*
X1368280Y1242879D01*
X1368242Y1242828D01*
X1368201Y1242779D01*
X1368200Y1242773D01*
X1368197Y1242768D01*
X1368192Y1242704D01*
X1368184Y1242640D01*
X1368187Y1242634D01*
X1368186Y1242628D01*
X1368212Y1242559D01*
X1368718Y1241652D01*
X1369022Y1240687D01*
X1369125Y1239680D01*
X1369022Y1238673D01*
X1368718Y1237708D01*
X1368212Y1236801D01*
X1368211Y1236795D01*
X1368207Y1236791D01*
X1368195Y1236728D01*
X1368181Y1236665D01*
X1368183Y1236659D01*
X1368182Y1236653D01*
X1368207Y1236594D01*
X1368228Y1236534D01*
X1368233Y1236530D01*
X1368236Y1236524D01*
X1368290Y1236474D01*
X1370360Y1235074D01*
X1370387Y1235065D01*
X1370409Y1235048D01*
X1370452Y1235044D01*
X1370493Y1235031D01*
X1370520Y1235038D01*
G37*
G36*
X603440Y1235038D02*
X603440Y1235038D01*
X603468Y1235035D01*
X603507Y1235055D01*
X603549Y1235067D01*
X603567Y1235087D01*
X603592Y1235100D01*
X603638Y1235159D01*
X604398Y1236520D01*
X604400Y1236531D01*
X604418Y1236567D01*
X604887Y1238054D01*
X604887Y1238064D01*
X604897Y1238103D01*
X605055Y1239655D01*
X605053Y1239665D01*
X605055Y1239705D01*
X604897Y1241257D01*
X604893Y1241266D01*
X604887Y1241306D01*
X604418Y1242793D01*
X604412Y1242802D01*
X604398Y1242840D01*
X603638Y1244201D01*
X603618Y1244221D01*
X603606Y1244246D01*
X603569Y1244269D01*
X603538Y1244300D01*
X603511Y1244305D01*
X603487Y1244320D01*
X603444Y1244320D01*
X603401Y1244329D01*
X603375Y1244319D01*
X603347Y1244318D01*
X603280Y1244286D01*
X601210Y1242886D01*
X601206Y1242882D01*
X601200Y1242879D01*
X601162Y1242828D01*
X601121Y1242779D01*
X601120Y1242773D01*
X601117Y1242768D01*
X601112Y1242704D01*
X601104Y1242640D01*
X601107Y1242634D01*
X601106Y1242628D01*
X601132Y1242559D01*
X601638Y1241652D01*
X601942Y1240687D01*
X602045Y1239680D01*
X601942Y1238673D01*
X601638Y1237708D01*
X601132Y1236801D01*
X601131Y1236795D01*
X601127Y1236791D01*
X601115Y1236728D01*
X601101Y1236665D01*
X601103Y1236659D01*
X601102Y1236653D01*
X601127Y1236594D01*
X601148Y1236534D01*
X601153Y1236530D01*
X601156Y1236524D01*
X601210Y1236474D01*
X603280Y1235074D01*
X603307Y1235065D01*
X603329Y1235048D01*
X603372Y1235044D01*
X603413Y1235031D01*
X603440Y1235038D01*
G37*
G36*
X590425Y1235041D02*
X590425Y1235041D01*
X590453Y1235042D01*
X590520Y1235074D01*
X592590Y1236474D01*
X592594Y1236478D01*
X592600Y1236481D01*
X592638Y1236532D01*
X592679Y1236581D01*
X592680Y1236587D01*
X592683Y1236592D01*
X592688Y1236656D01*
X592696Y1236720D01*
X592693Y1236726D01*
X592694Y1236732D01*
X592668Y1236801D01*
X592162Y1237708D01*
X591858Y1238673D01*
X591755Y1239680D01*
X591858Y1240687D01*
X592162Y1241652D01*
X592668Y1242559D01*
X592669Y1242565D01*
X592673Y1242569D01*
X592685Y1242632D01*
X592699Y1242695D01*
X592697Y1242701D01*
X592698Y1242707D01*
X592673Y1242766D01*
X592652Y1242826D01*
X592647Y1242830D01*
X592644Y1242836D01*
X592590Y1242886D01*
X590520Y1244286D01*
X590493Y1244295D01*
X590471Y1244312D01*
X590428Y1244316D01*
X590387Y1244329D01*
X590360Y1244322D01*
X590332Y1244325D01*
X590293Y1244305D01*
X590251Y1244294D01*
X590233Y1244273D01*
X590208Y1244260D01*
X590162Y1244201D01*
X589402Y1242840D01*
X589400Y1242829D01*
X589382Y1242793D01*
X588913Y1241306D01*
X588913Y1241296D01*
X588903Y1241257D01*
X588745Y1239705D01*
X588747Y1239695D01*
X588745Y1239655D01*
X588903Y1238103D01*
X588907Y1238094D01*
X588913Y1238054D01*
X589382Y1236567D01*
X589388Y1236558D01*
X589402Y1236520D01*
X590162Y1235159D01*
X590182Y1235139D01*
X590194Y1235114D01*
X590231Y1235091D01*
X590262Y1235060D01*
X590289Y1235055D01*
X590313Y1235040D01*
X590356Y1235040D01*
X590399Y1235031D01*
X590425Y1235041D01*
G37*
G36*
X1357505Y1235041D02*
X1357505Y1235041D01*
X1357533Y1235042D01*
X1357600Y1235074D01*
X1359670Y1236474D01*
X1359674Y1236478D01*
X1359680Y1236481D01*
X1359718Y1236532D01*
X1359759Y1236581D01*
X1359760Y1236587D01*
X1359763Y1236592D01*
X1359768Y1236656D01*
X1359776Y1236720D01*
X1359773Y1236726D01*
X1359774Y1236732D01*
X1359748Y1236801D01*
X1359242Y1237708D01*
X1358938Y1238673D01*
X1358835Y1239680D01*
X1358938Y1240687D01*
X1359242Y1241652D01*
X1359748Y1242559D01*
X1359749Y1242565D01*
X1359753Y1242569D01*
X1359765Y1242632D01*
X1359779Y1242695D01*
X1359777Y1242701D01*
X1359778Y1242707D01*
X1359753Y1242766D01*
X1359732Y1242826D01*
X1359727Y1242830D01*
X1359724Y1242836D01*
X1359670Y1242886D01*
X1357600Y1244286D01*
X1357573Y1244295D01*
X1357551Y1244312D01*
X1357508Y1244316D01*
X1357467Y1244329D01*
X1357440Y1244322D01*
X1357412Y1244325D01*
X1357373Y1244305D01*
X1357331Y1244294D01*
X1357313Y1244273D01*
X1357288Y1244260D01*
X1357242Y1244201D01*
X1356482Y1242840D01*
X1356480Y1242829D01*
X1356462Y1242793D01*
X1355993Y1241306D01*
X1355993Y1241296D01*
X1355983Y1241257D01*
X1355825Y1239705D01*
X1355827Y1239695D01*
X1355825Y1239655D01*
X1355983Y1238103D01*
X1355987Y1238094D01*
X1355993Y1238054D01*
X1356462Y1236567D01*
X1356468Y1236558D01*
X1356482Y1236520D01*
X1357242Y1235159D01*
X1357262Y1235139D01*
X1357274Y1235114D01*
X1357311Y1235091D01*
X1357342Y1235060D01*
X1357369Y1235055D01*
X1357393Y1235040D01*
X1357436Y1235040D01*
X1357479Y1235031D01*
X1357505Y1235041D01*
G37*
G36*
X599921Y1243883D02*
X599921Y1243883D01*
X599927Y1243882D01*
X599986Y1243907D01*
X600046Y1243928D01*
X600050Y1243933D01*
X600056Y1243936D01*
X600106Y1243990D01*
X601506Y1246060D01*
X601515Y1246087D01*
X601532Y1246109D01*
X601536Y1246152D01*
X601549Y1246193D01*
X601542Y1246220D01*
X601545Y1246248D01*
X601525Y1246287D01*
X601514Y1246329D01*
X601493Y1246347D01*
X601480Y1246372D01*
X601421Y1246418D01*
X600060Y1247178D01*
X600049Y1247180D01*
X600013Y1247198D01*
X598526Y1247667D01*
X598516Y1247667D01*
X598477Y1247677D01*
X596925Y1247835D01*
X596915Y1247833D01*
X596875Y1247835D01*
X595323Y1247677D01*
X595314Y1247673D01*
X595274Y1247667D01*
X593787Y1247198D01*
X593778Y1247192D01*
X593740Y1247178D01*
X592379Y1246418D01*
X592359Y1246398D01*
X592334Y1246386D01*
X592311Y1246349D01*
X592280Y1246318D01*
X592275Y1246291D01*
X592260Y1246267D01*
X592260Y1246224D01*
X592251Y1246181D01*
X592261Y1246155D01*
X592262Y1246127D01*
X592294Y1246060D01*
X593694Y1243990D01*
X593698Y1243986D01*
X593701Y1243980D01*
X593752Y1243942D01*
X593801Y1243901D01*
X593807Y1243900D01*
X593812Y1243897D01*
X593876Y1243892D01*
X593940Y1243884D01*
X593946Y1243887D01*
X593952Y1243886D01*
X594021Y1243912D01*
X594928Y1244418D01*
X595893Y1244722D01*
X596900Y1244825D01*
X597907Y1244722D01*
X598872Y1244418D01*
X599779Y1243912D01*
X599785Y1243911D01*
X599789Y1243907D01*
X599852Y1243895D01*
X599915Y1243881D01*
X599921Y1243883D01*
G37*
D10*
X198000Y60100D03*
X193000Y60100D03*
D11*
X222750Y60100D03*
X215000Y60100D03*
D10*
X208000Y60100D03*
X203000Y60100D03*
X183000Y60100D03*
X188000Y60100D03*
D11*
X158250Y60100D03*
X166000Y60100D03*
D10*
X173000Y60100D03*
X178000Y60100D03*
D12*
X156600Y76200D03*
X173600Y76200D03*
X224400Y76200D03*
X207400Y76200D03*
D13*
X190500Y101600D03*
D14*
X204250Y91850D03*
X204250Y98350D03*
X204250Y104850D03*
X204250Y111350D03*
X176750Y111350D03*
X176750Y104850D03*
X176750Y98350D03*
X176750Y91850D03*
D15*
X152400Y93100D03*
X152400Y110100D03*
D16*
X605900Y396700D03*
X605900Y406700D03*
X587900Y406700D03*
X587900Y396700D03*
D17*
X596900Y377200D03*
D18*
X590400Y383700D03*
X603400Y383700D03*
D17*
X596900Y390200D03*
D15*
X565150Y402200D03*
X565150Y385200D03*
X469900Y97400D03*
X469900Y80400D03*
D19*
X310600Y44100D03*
D20*
X290900Y93980D03*
X267900Y93980D03*
D12*
X270900Y76200D03*
X287900Y76200D03*
X668900Y457200D03*
X651900Y457200D03*
X668900Y431800D03*
X651900Y431800D03*
D21*
X19050Y238760D03*
X19050Y294640D03*
X57150Y238760D03*
X57150Y294640D03*
D15*
X137160Y93100D03*
X137160Y110100D03*
D22*
X114300Y23100D03*
X114300Y53100D03*
D23*
X114300Y102900D03*
X114300Y74900D03*
D12*
X152010Y148590D03*
X135010Y148590D03*
X135010Y133350D03*
X152010Y133350D03*
D21*
X82550Y238760D03*
X82550Y294640D03*
X120650Y238760D03*
X120650Y294640D03*
D24*
X579150Y173800D03*
X522150Y173800D03*
D25*
X506150Y42300D03*
X637650Y32300D03*
D26*
X591050Y70800D03*
X580050Y74800D03*
X569050Y70800D03*
X558050Y68800D03*
X547050Y70800D03*
X536050Y68800D03*
X525050Y70800D03*
X514050Y70800D03*
D15*
X176530Y150740D03*
X176530Y133740D03*
D27*
X194310Y155010D03*
X194310Y132010D03*
D12*
X80400Y476250D03*
X97400Y476250D03*
D28*
X20130Y479750D02*
X20130Y472750D01*
X13130Y472750D01*
X13130Y479750D01*
X20130Y479750D01*
X20130Y475600D02*
X13130Y475600D01*
X13130Y478450D02*
X20130Y478450D01*
X37670Y479750D02*
X37670Y472750D01*
X30670Y472750D01*
X30670Y479750D01*
X37670Y479750D01*
X37670Y475600D02*
X30670Y475600D01*
X30670Y478450D02*
X37670Y478450D01*
D12*
X223910Y92710D03*
X240910Y92710D03*
X223910Y107950D03*
X240910Y107950D03*
X223910Y123190D03*
X240910Y123190D03*
D29*
X272500Y214000D03*
X272500Y421000D03*
D30*
X340250Y407500D03*
X340250Y397500D03*
X340250Y392500D03*
X340250Y402500D03*
X340250Y387500D03*
X340250Y377500D03*
X340250Y372500D03*
X340250Y382500D03*
X340250Y367500D03*
X340250Y357500D03*
X340250Y352500D03*
X340250Y362500D03*
X340250Y347500D03*
X340250Y337500D03*
X340250Y332500D03*
X340250Y342500D03*
X340250Y327500D03*
X340250Y317500D03*
X340250Y312500D03*
X340250Y322500D03*
X340250Y307500D03*
X340250Y302500D03*
X340250Y277500D03*
X340250Y272500D03*
X340250Y267500D03*
X340250Y257500D03*
X340250Y252500D03*
X340250Y262500D03*
X340250Y247500D03*
X340250Y237500D03*
X340250Y232500D03*
X340250Y242500D03*
X340250Y227500D03*
X264750Y410000D03*
X264750Y400000D03*
X264750Y395000D03*
X264750Y405000D03*
X264750Y390000D03*
X264750Y380000D03*
X264750Y375000D03*
X264750Y385000D03*
X264750Y370000D03*
X264750Y360000D03*
X264750Y355000D03*
X264750Y365000D03*
X264750Y350000D03*
X264750Y340000D03*
X264750Y335000D03*
X264750Y345000D03*
X264750Y330000D03*
X264750Y320000D03*
X264750Y315000D03*
X264750Y325000D03*
X264750Y310000D03*
X264750Y305000D03*
X264750Y280000D03*
X264750Y275000D03*
X264750Y270000D03*
X264750Y260000D03*
X264750Y255000D03*
X264750Y265000D03*
X264750Y250000D03*
X264750Y240000D03*
X264750Y235000D03*
X264750Y245000D03*
X264750Y230000D03*
X264750Y225000D03*
D31*
X288900Y130650D03*
X269900Y130650D03*
X279400Y109650D03*
D12*
X80400Y457200D03*
X97400Y457200D03*
D28*
X20130Y460700D02*
X20130Y453700D01*
X13130Y453700D01*
X13130Y460700D01*
X20130Y460700D01*
X20130Y456550D02*
X13130Y456550D01*
X13130Y459400D02*
X20130Y459400D01*
X37670Y460700D02*
X37670Y453700D01*
X30670Y453700D01*
X30670Y460700D01*
X37670Y460700D01*
X37670Y456550D02*
X30670Y456550D01*
X30670Y459400D02*
X37670Y459400D01*
D32*
X747950Y86300D03*
X747950Y142300D03*
D33*
X711200Y99300D03*
X711200Y109300D03*
X711200Y119300D03*
X711200Y129300D03*
D15*
X666750Y143900D03*
X666750Y160900D03*
X692150Y143900D03*
X692150Y160900D03*
X82550Y205350D03*
X82550Y188350D03*
X101600Y205350D03*
X101600Y188350D03*
X120650Y205350D03*
X120650Y188350D03*
D34*
X271000Y552300D03*
X282000Y552300D03*
X293000Y552300D03*
X304000Y552300D03*
X315000Y552300D03*
X326000Y552300D03*
X337000Y552300D03*
X348000Y552300D03*
X359000Y552300D03*
X370000Y552300D03*
X381000Y552300D03*
X392000Y552300D03*
X403000Y552300D03*
X414000Y552300D03*
X425000Y552300D03*
X436000Y552300D03*
X447000Y552300D03*
X458000Y552300D03*
X469000Y552300D03*
X480000Y552300D03*
X491000Y552300D03*
D35*
X501000Y567300D03*
X501000Y578300D03*
X501000Y589300D03*
X501000Y600300D03*
X501000Y611300D03*
X501000Y622300D03*
X501000Y633300D03*
X501000Y644300D03*
X501000Y655300D03*
X501000Y666300D03*
X501000Y677300D03*
D34*
X491000Y692300D03*
X480000Y692300D03*
X469000Y692300D03*
X458000Y692300D03*
X447000Y692300D03*
X436000Y692300D03*
X425000Y692300D03*
X414000Y692300D03*
X403000Y692300D03*
X392000Y692300D03*
X381000Y692300D03*
X370000Y692300D03*
X359000Y692300D03*
X348000Y692300D03*
X337000Y692300D03*
X326000Y692300D03*
X315000Y692300D03*
X304000Y692300D03*
X293000Y692300D03*
X282000Y692300D03*
X271000Y692300D03*
D35*
X261000Y677300D03*
X261000Y666300D03*
X261000Y655300D03*
X261000Y644300D03*
X261000Y633300D03*
X261000Y622300D03*
X261000Y611300D03*
X261000Y600300D03*
X261000Y589300D03*
X261000Y578300D03*
X261000Y567300D03*
D36*
X278500Y569800D03*
X278500Y590800D03*
X278500Y611800D03*
X278500Y632800D03*
X278500Y653800D03*
X278500Y674800D03*
X296500Y569800D03*
X296500Y590800D03*
X296500Y611800D03*
X296500Y632800D03*
X296500Y653800D03*
X296500Y674800D03*
X314500Y569800D03*
X314500Y674800D03*
X350500Y569800D03*
X350500Y674800D03*
X483500Y674800D03*
X483500Y653800D03*
X483500Y632800D03*
X483500Y611800D03*
X483500Y590800D03*
X483500Y569800D03*
X465500Y674800D03*
X465500Y653800D03*
X465500Y632800D03*
X465500Y611800D03*
X465500Y590800D03*
X465500Y569800D03*
X447500Y674800D03*
X447500Y569800D03*
X411500Y674800D03*
X411500Y569800D03*
D37*
X396000Y375000D03*
X396000Y371000D03*
X396000Y379000D03*
X396000Y383000D03*
X396000Y387000D03*
X396000Y391000D03*
D38*
X391000Y396000D03*
X387000Y396000D03*
X383000Y396000D03*
X379000Y396000D03*
X375000Y396000D03*
X371000Y396000D03*
D37*
X366000Y391000D03*
X366000Y387000D03*
X366000Y379000D03*
X366000Y383000D03*
X366000Y375000D03*
X366000Y371000D03*
D38*
X371000Y366000D03*
X375000Y366000D03*
X379000Y366000D03*
X383000Y366000D03*
X387000Y366000D03*
X391000Y366000D03*
D12*
X372500Y422910D03*
X389500Y422910D03*
D15*
X412750Y389500D03*
X412750Y372500D03*
X431800Y389500D03*
X431800Y372500D03*
D39*
X457050Y389250D03*
X470050Y389250D03*
D40*
X456819Y372745D03*
X463550Y372745D03*
X470281Y372745D03*
D12*
X455050Y340360D03*
X472050Y340360D03*
D41*
X429690Y417750D03*
X429690Y407750D03*
X441190Y412750D03*
D15*
X412750Y405520D03*
X412750Y422520D03*
D42*
X123700Y727000D03*
D43*
X165100Y681000D03*
D42*
X206500Y727000D03*
X555500Y727000D03*
D43*
X596900Y681000D03*
D42*
X638300Y727000D03*
D44*
X367999Y174600D03*
X367999Y165100D03*
X367999Y155600D03*
X394001Y155600D03*
X394001Y174600D03*
D15*
X393700Y211700D03*
X393700Y194700D03*
D12*
X345050Y111760D03*
X328050Y111760D03*
D28*
X462470Y28900D02*
X462470Y21900D01*
X462470Y28900D02*
X469470Y28900D01*
X469470Y21900D01*
X462470Y21900D01*
X462470Y24750D02*
X469470Y24750D01*
X469470Y27600D02*
X462470Y27600D01*
X444930Y28900D02*
X444930Y21900D01*
X444930Y28900D02*
X451930Y28900D01*
X451930Y21900D01*
X444930Y21900D01*
X444930Y24750D02*
X451930Y24750D01*
X451930Y27600D02*
X444930Y27600D01*
D12*
X448700Y50800D03*
X465700Y50800D03*
D45*
X391000Y75100D03*
X371000Y75100D03*
D46*
X415000Y23100D03*
X347000Y23100D03*
D47*
X629650Y615950D03*
X629650Y603250D03*
X629650Y590550D03*
X629650Y577850D03*
X629650Y565150D03*
X629650Y552450D03*
D48*
X693850Y537300D03*
X636350Y537300D03*
X636350Y630800D03*
X693850Y630800D03*
D49*
X751050Y539550D03*
X751050Y628850D03*
D50*
X419100Y718750D03*
X428600Y718750D03*
X409600Y718750D03*
X428600Y741750D03*
X419100Y741750D03*
X409600Y741750D03*
D15*
X392430Y719210D03*
X392430Y736210D03*
X461010Y719210D03*
X461010Y736210D03*
X445770Y736210D03*
X445770Y719210D03*
X377190Y736210D03*
X377190Y719210D03*
X361950Y736210D03*
X361950Y719210D03*
D12*
X455050Y412750D03*
X472050Y412750D03*
D15*
X297180Y715400D03*
X297180Y732400D03*
X281940Y715400D03*
X281940Y732400D03*
X266700Y715400D03*
X266700Y732400D03*
D51*
X198120Y630682D03*
X198120Y639318D03*
X228600Y654812D03*
X228600Y663448D03*
D52*
X209000Y655320D03*
X197400Y655320D03*
X197570Y589280D03*
X185970Y589280D03*
D12*
X230750Y589280D03*
X213750Y589280D03*
D52*
X197570Y609600D03*
X185970Y609600D03*
D53*
X596290Y493729D03*
X605790Y493729D03*
X615290Y493729D03*
X615290Y519731D03*
X596290Y519731D03*
D12*
X596510Y549910D03*
X579510Y549910D03*
X596510Y565150D03*
X579510Y565150D03*
D15*
X596900Y634120D03*
X596900Y651120D03*
X596900Y582050D03*
X596900Y599050D03*
D12*
X596510Y615950D03*
X579510Y615950D03*
X598560Y476250D03*
X615560Y476250D03*
D54*
X533400Y666030D03*
X533400Y677630D03*
D55*
X553600Y587000D03*
X548600Y587000D03*
X543600Y587000D03*
X538600Y587000D03*
X553600Y556000D03*
X548600Y556000D03*
X543600Y556000D03*
X538600Y556000D03*
D15*
X548640Y535550D03*
X548640Y518550D03*
X448310Y484750D03*
X448310Y467750D03*
D12*
X291710Y447040D03*
X274710Y447040D03*
D56*
X457560Y501500D03*
X457560Y514500D03*
X439060Y508000D03*
D15*
X472440Y467750D03*
X472440Y484750D03*
D57*
X524660Y466750D03*
X511660Y466750D03*
X524660Y485750D03*
X511660Y485750D03*
X518160Y485750D03*
D56*
X495660Y501500D03*
X495660Y514500D03*
X477160Y508000D03*
D15*
X495300Y467750D03*
X495300Y484750D03*
D41*
X508430Y728900D03*
X508430Y718900D03*
X519930Y723900D03*
D15*
X488950Y719210D03*
X488950Y736210D03*
D12*
X524120Y742950D03*
X507120Y742950D03*
D31*
X479400Y137000D03*
X460400Y137000D03*
X469900Y116000D03*
D12*
X287410Y529590D03*
X304410Y529590D03*
D56*
X136250Y479910D03*
X136250Y492910D03*
X117750Y486410D03*
D12*
X167250Y480060D03*
X150250Y480060D03*
X97400Y495300D03*
X80400Y495300D03*
D28*
X30670Y491800D02*
X30670Y498800D01*
X37670Y498800D01*
X37670Y491800D01*
X30670Y491800D01*
X30670Y494650D02*
X37670Y494650D01*
X37670Y497500D02*
X30670Y497500D01*
X13130Y498800D02*
X13130Y491800D01*
X13130Y498800D02*
X20130Y498800D01*
X20130Y491800D01*
X13130Y491800D01*
X13130Y494650D02*
X20130Y494650D01*
X20130Y497500D02*
X13130Y497500D01*
D56*
X136250Y507850D03*
X136250Y520850D03*
X117750Y514350D03*
D12*
X167250Y508000D03*
X150250Y508000D03*
X97400Y514350D03*
X80400Y514350D03*
D28*
X30670Y510850D02*
X30670Y517850D01*
X37670Y517850D01*
X37670Y510850D01*
X30670Y510850D01*
X30670Y513700D02*
X37670Y513700D01*
X37670Y516550D02*
X30670Y516550D01*
X13130Y517850D02*
X13130Y510850D01*
X13130Y517850D02*
X20130Y517850D01*
X20130Y510850D01*
X13130Y510850D01*
X13130Y513700D02*
X20130Y513700D01*
X20130Y516550D02*
X13130Y516550D01*
D12*
X427600Y528320D03*
X410600Y528320D03*
X377580Y528320D03*
X394580Y528320D03*
X67700Y660400D03*
X84700Y660400D03*
X67700Y685800D03*
X84700Y685800D03*
X472050Y355600D03*
X455050Y355600D03*
X461400Y152400D03*
X478400Y152400D03*
X167250Y552450D03*
X150250Y552450D03*
X469510Y447040D03*
X452510Y447040D03*
X274710Y462280D03*
X291710Y462280D03*
X291710Y477520D03*
X274710Y477520D03*
D20*
X618560Y457200D03*
X595560Y457200D03*
D21*
X184150Y294640D03*
X184150Y238760D03*
X146050Y294640D03*
X146050Y238760D03*
D15*
X367030Y211700D03*
X367030Y194700D03*
D56*
X136250Y535790D03*
X136250Y548790D03*
X117750Y542290D03*
D12*
X167250Y535940D03*
X150250Y535940D03*
X97400Y533400D03*
X80400Y533400D03*
D28*
X30670Y529900D02*
X30670Y536900D01*
X37670Y536900D01*
X37670Y529900D01*
X30670Y529900D01*
X30670Y532750D02*
X37670Y532750D01*
X37670Y535600D02*
X30670Y535600D01*
X13130Y536900D02*
X13130Y529900D01*
X13130Y536900D02*
X20130Y536900D01*
X20130Y529900D01*
X13130Y529900D01*
X13130Y532750D02*
X20130Y532750D01*
X20130Y535600D02*
X13130Y535600D01*
D12*
X150250Y568960D03*
X167250Y568960D03*
D58*
X370840Y125730D03*
X411540Y125730D03*
D15*
X251460Y715400D03*
X251460Y732400D03*
D59*
X427880Y504230D03*
X421380Y504230D03*
X414880Y504230D03*
D60*
X408380Y504105D03*
X401880Y504105D03*
X395380Y504105D03*
X388880Y504105D03*
X382380Y504105D03*
D59*
X427880Y445730D03*
X421380Y445730D03*
X414880Y445730D03*
X408380Y445730D03*
X401880Y445730D03*
X395380Y445730D03*
X388880Y445730D03*
X382380Y445730D03*
X360570Y504230D03*
X354070Y504230D03*
X347570Y504230D03*
D60*
X341070Y504105D03*
X334570Y504105D03*
X328070Y504105D03*
X321570Y504105D03*
X315070Y504105D03*
D59*
X360570Y445730D03*
X354070Y445730D03*
X347570Y445730D03*
X341070Y445730D03*
X334570Y445730D03*
X328070Y445730D03*
X321570Y445730D03*
X315070Y445730D03*
X412640Y340400D03*
X406140Y340400D03*
X399640Y340400D03*
D60*
X393140Y340275D03*
X386640Y340275D03*
X380140Y340275D03*
X373640Y340275D03*
X367140Y340275D03*
D59*
X412640Y281900D03*
X406140Y281900D03*
X399640Y281900D03*
X393140Y281900D03*
X386640Y281900D03*
X380140Y281900D03*
X373640Y281900D03*
X367140Y281900D03*
D61*
X349278Y130930D03*
X328903Y135930D03*
X328903Y130930D03*
X328903Y140930D03*
X328903Y145930D03*
X349278Y135930D03*
X349278Y140930D03*
X349278Y145930D03*
D62*
X339090Y141830D03*
X339090Y135030D03*
D10*
X965080Y60100D03*
X960080Y60100D03*
D11*
X989830Y60100D03*
X982080Y60100D03*
D10*
X975080Y60100D03*
X970080Y60100D03*
X950080Y60100D03*
X955080Y60100D03*
D11*
X925330Y60100D03*
X933080Y60100D03*
D10*
X940080Y60100D03*
X945080Y60100D03*
D12*
X923680Y76200D03*
X940680Y76200D03*
X991480Y76200D03*
X974480Y76200D03*
D13*
X957580Y101600D03*
D14*
X971330Y91850D03*
X971330Y98350D03*
X971330Y104850D03*
X971330Y111350D03*
X943830Y111350D03*
X943830Y104850D03*
X943830Y98350D03*
X943830Y91850D03*
D15*
X919480Y93100D03*
X919480Y110100D03*
D16*
X1372980Y396700D03*
X1372980Y406700D03*
X1354980Y406700D03*
X1354980Y396700D03*
D17*
X1363980Y377200D03*
D18*
X1357480Y383700D03*
X1370480Y383700D03*
D17*
X1363980Y390200D03*
D15*
X1332230Y402200D03*
X1332230Y385200D03*
X1236980Y97400D03*
X1236980Y80400D03*
D19*
X1077680Y44100D03*
D20*
X1057980Y93980D03*
X1034980Y93980D03*
D12*
X1037980Y76200D03*
X1054980Y76200D03*
X1435980Y457200D03*
X1418980Y457200D03*
X1435980Y431800D03*
X1418980Y431800D03*
D21*
X786130Y238760D03*
X786130Y294640D03*
X824230Y238760D03*
X824230Y294640D03*
D15*
X904240Y93100D03*
X904240Y110100D03*
D22*
X881380Y23100D03*
X881380Y53100D03*
D23*
X881380Y102900D03*
X881380Y74900D03*
D12*
X919090Y148590D03*
X902090Y148590D03*
X902090Y133350D03*
X919090Y133350D03*
D21*
X849630Y238760D03*
X849630Y294640D03*
X887730Y238760D03*
X887730Y294640D03*
D24*
X1346230Y173800D03*
X1289230Y173800D03*
D25*
X1273230Y42300D03*
X1404730Y32300D03*
D26*
X1358130Y70800D03*
X1347130Y74800D03*
X1336130Y70800D03*
X1325130Y68800D03*
X1314130Y70800D03*
X1303130Y68800D03*
X1292130Y70800D03*
X1281130Y70800D03*
D15*
X943610Y150740D03*
X943610Y133740D03*
D27*
X961390Y155010D03*
X961390Y132010D03*
D12*
X847480Y476250D03*
X864480Y476250D03*
D28*
X787210Y479750D02*
X787210Y472750D01*
X780210Y472750D01*
X780210Y479750D01*
X787210Y479750D01*
X787210Y475600D02*
X780210Y475600D01*
X780210Y478450D02*
X787210Y478450D01*
X804750Y479750D02*
X804750Y472750D01*
X797750Y472750D01*
X797750Y479750D01*
X804750Y479750D01*
X804750Y475600D02*
X797750Y475600D01*
X797750Y478450D02*
X804750Y478450D01*
D12*
X990990Y92710D03*
X1007990Y92710D03*
X990990Y107950D03*
X1007990Y107950D03*
X990990Y123190D03*
X1007990Y123190D03*
D29*
X1039580Y214000D03*
X1039580Y421000D03*
D30*
X1107330Y407500D03*
X1107330Y397500D03*
X1107330Y392500D03*
X1107330Y402500D03*
X1107330Y387500D03*
X1107330Y377500D03*
X1107330Y372500D03*
X1107330Y382500D03*
X1107330Y367500D03*
X1107330Y357500D03*
X1107330Y352500D03*
X1107330Y362500D03*
X1107330Y347500D03*
X1107330Y337500D03*
X1107330Y332500D03*
X1107330Y342500D03*
X1107330Y327500D03*
X1107330Y317500D03*
X1107330Y312500D03*
X1107330Y322500D03*
X1107330Y307500D03*
X1107330Y302500D03*
X1107330Y277500D03*
X1107330Y272500D03*
X1107330Y267500D03*
X1107330Y257500D03*
X1107330Y252500D03*
X1107330Y262500D03*
X1107330Y247500D03*
X1107330Y237500D03*
X1107330Y232500D03*
X1107330Y242500D03*
X1107330Y227500D03*
X1031830Y410000D03*
X1031830Y400000D03*
X1031830Y395000D03*
X1031830Y405000D03*
X1031830Y390000D03*
X1031830Y380000D03*
X1031830Y375000D03*
X1031830Y385000D03*
X1031830Y370000D03*
X1031830Y360000D03*
X1031830Y355000D03*
X1031830Y365000D03*
X1031830Y350000D03*
X1031830Y340000D03*
X1031830Y335000D03*
X1031830Y345000D03*
X1031830Y330000D03*
X1031830Y320000D03*
X1031830Y315000D03*
X1031830Y325000D03*
X1031830Y310000D03*
X1031830Y305000D03*
X1031830Y280000D03*
X1031830Y275000D03*
X1031830Y270000D03*
X1031830Y260000D03*
X1031830Y255000D03*
X1031830Y265000D03*
X1031830Y250000D03*
X1031830Y240000D03*
X1031830Y235000D03*
X1031830Y245000D03*
X1031830Y230000D03*
X1031830Y225000D03*
D31*
X1055980Y130650D03*
X1036980Y130650D03*
X1046480Y109650D03*
D12*
X847480Y457200D03*
X864480Y457200D03*
D28*
X787210Y460700D02*
X787210Y453700D01*
X780210Y453700D01*
X780210Y460700D01*
X787210Y460700D01*
X787210Y456550D02*
X780210Y456550D01*
X780210Y459400D02*
X787210Y459400D01*
X804750Y460700D02*
X804750Y453700D01*
X797750Y453700D01*
X797750Y460700D01*
X804750Y460700D01*
X804750Y456550D02*
X797750Y456550D01*
X797750Y459400D02*
X804750Y459400D01*
D32*
X1515030Y86300D03*
X1515030Y142300D03*
D33*
X1478280Y99300D03*
X1478280Y109300D03*
X1478280Y119300D03*
X1478280Y129300D03*
D15*
X1433830Y143900D03*
X1433830Y160900D03*
X1459230Y143900D03*
X1459230Y160900D03*
X849630Y205350D03*
X849630Y188350D03*
X868680Y205350D03*
X868680Y188350D03*
X887730Y205350D03*
X887730Y188350D03*
D34*
X1038080Y552300D03*
X1049080Y552300D03*
X1060080Y552300D03*
X1071080Y552300D03*
X1082080Y552300D03*
X1093080Y552300D03*
X1104080Y552300D03*
X1115080Y552300D03*
X1126080Y552300D03*
X1137080Y552300D03*
X1148080Y552300D03*
X1159080Y552300D03*
X1170080Y552300D03*
X1181080Y552300D03*
X1192080Y552300D03*
X1203080Y552300D03*
X1214080Y552300D03*
X1225080Y552300D03*
X1236080Y552300D03*
X1247080Y552300D03*
X1258080Y552300D03*
D35*
X1268080Y567300D03*
X1268080Y578300D03*
X1268080Y589300D03*
X1268080Y600300D03*
X1268080Y611300D03*
X1268080Y622300D03*
X1268080Y633300D03*
X1268080Y644300D03*
X1268080Y655300D03*
X1268080Y666300D03*
X1268080Y677300D03*
D34*
X1258080Y692300D03*
X1247080Y692300D03*
X1236080Y692300D03*
X1225080Y692300D03*
X1214080Y692300D03*
X1203080Y692300D03*
X1192080Y692300D03*
X1181080Y692300D03*
X1170080Y692300D03*
X1159080Y692300D03*
X1148080Y692300D03*
X1137080Y692300D03*
X1126080Y692300D03*
X1115080Y692300D03*
X1104080Y692300D03*
X1093080Y692300D03*
X1082080Y692300D03*
X1071080Y692300D03*
X1060080Y692300D03*
X1049080Y692300D03*
X1038080Y692300D03*
D35*
X1028080Y677300D03*
X1028080Y666300D03*
X1028080Y655300D03*
X1028080Y644300D03*
X1028080Y633300D03*
X1028080Y622300D03*
X1028080Y611300D03*
X1028080Y600300D03*
X1028080Y589300D03*
X1028080Y578300D03*
X1028080Y567300D03*
D36*
X1045580Y569800D03*
X1045580Y590800D03*
X1045580Y611800D03*
X1045580Y632800D03*
X1045580Y653800D03*
X1045580Y674800D03*
X1063580Y569800D03*
X1063580Y590800D03*
X1063580Y611800D03*
X1063580Y632800D03*
X1063580Y653800D03*
X1063580Y674800D03*
X1081580Y569800D03*
X1081580Y674800D03*
X1117580Y569800D03*
X1117580Y674800D03*
X1250580Y674800D03*
X1250580Y653800D03*
X1250580Y632800D03*
X1250580Y611800D03*
X1250580Y590800D03*
X1250580Y569800D03*
X1232580Y674800D03*
X1232580Y653800D03*
X1232580Y632800D03*
X1232580Y611800D03*
X1232580Y590800D03*
X1232580Y569800D03*
X1214580Y674800D03*
X1214580Y569800D03*
X1178580Y674800D03*
X1178580Y569800D03*
D37*
X1163080Y375000D03*
X1163080Y371000D03*
X1163080Y379000D03*
X1163080Y383000D03*
X1163080Y387000D03*
X1163080Y391000D03*
D38*
X1158080Y396000D03*
X1154080Y396000D03*
X1150080Y396000D03*
X1146080Y396000D03*
X1142080Y396000D03*
X1138080Y396000D03*
D37*
X1133080Y391000D03*
X1133080Y387000D03*
X1133080Y379000D03*
X1133080Y383000D03*
X1133080Y375000D03*
X1133080Y371000D03*
D38*
X1138080Y366000D03*
X1142080Y366000D03*
X1146080Y366000D03*
X1150080Y366000D03*
X1154080Y366000D03*
X1158080Y366000D03*
D12*
X1139580Y422910D03*
X1156580Y422910D03*
D15*
X1179830Y389500D03*
X1179830Y372500D03*
X1198880Y389500D03*
X1198880Y372500D03*
D39*
X1224130Y389250D03*
X1237130Y389250D03*
D40*
X1223899Y372745D03*
X1230630Y372745D03*
X1237361Y372745D03*
D12*
X1222130Y340360D03*
X1239130Y340360D03*
D41*
X1196770Y417750D03*
X1196770Y407750D03*
X1208270Y412750D03*
D15*
X1179830Y405520D03*
X1179830Y422520D03*
D42*
X890780Y727000D03*
D43*
X932180Y681000D03*
D42*
X973580Y727000D03*
X1322580Y727000D03*
D43*
X1363980Y681000D03*
D42*
X1405380Y727000D03*
D44*
X1135079Y174600D03*
X1135079Y165100D03*
X1135079Y155600D03*
X1161081Y155600D03*
X1161081Y174600D03*
D15*
X1160780Y211700D03*
X1160780Y194700D03*
D12*
X1112130Y111760D03*
X1095130Y111760D03*
D28*
X1229550Y28900D02*
X1229550Y21900D01*
X1229550Y28900D02*
X1236550Y28900D01*
X1236550Y21900D01*
X1229550Y21900D01*
X1229550Y24750D02*
X1236550Y24750D01*
X1236550Y27600D02*
X1229550Y27600D01*
X1212010Y28900D02*
X1212010Y21900D01*
X1212010Y28900D02*
X1219010Y28900D01*
X1219010Y21900D01*
X1212010Y21900D01*
X1212010Y24750D02*
X1219010Y24750D01*
X1219010Y27600D02*
X1212010Y27600D01*
D12*
X1215780Y50800D03*
X1232780Y50800D03*
D45*
X1158080Y75100D03*
X1138080Y75100D03*
D46*
X1182080Y23100D03*
X1114080Y23100D03*
D47*
X1396730Y615950D03*
X1396730Y603250D03*
X1396730Y590550D03*
X1396730Y577850D03*
X1396730Y565150D03*
X1396730Y552450D03*
D48*
X1460930Y537300D03*
X1403430Y537300D03*
X1403430Y630800D03*
X1460930Y630800D03*
D49*
X1518130Y539550D03*
X1518130Y628850D03*
D50*
X1186180Y718750D03*
X1195680Y718750D03*
X1176680Y718750D03*
X1195680Y741750D03*
X1186180Y741750D03*
X1176680Y741750D03*
D15*
X1159510Y719210D03*
X1159510Y736210D03*
X1228090Y719210D03*
X1228090Y736210D03*
X1212850Y736210D03*
X1212850Y719210D03*
X1144270Y736210D03*
X1144270Y719210D03*
X1129030Y736210D03*
X1129030Y719210D03*
D12*
X1222130Y412750D03*
X1239130Y412750D03*
D15*
X1064260Y715400D03*
X1064260Y732400D03*
X1049020Y715400D03*
X1049020Y732400D03*
X1033780Y715400D03*
X1033780Y732400D03*
D51*
X965200Y630682D03*
X965200Y639318D03*
X995680Y654812D03*
X995680Y663448D03*
D52*
X976080Y655320D03*
X964480Y655320D03*
X964650Y589280D03*
X953050Y589280D03*
D12*
X997830Y589280D03*
X980830Y589280D03*
D52*
X964650Y609600D03*
X953050Y609600D03*
D53*
X1363370Y493729D03*
X1372870Y493729D03*
X1382370Y493729D03*
X1382370Y519731D03*
X1363370Y519731D03*
D12*
X1363590Y549910D03*
X1346590Y549910D03*
X1363590Y565150D03*
X1346590Y565150D03*
D15*
X1363980Y634120D03*
X1363980Y651120D03*
X1363980Y582050D03*
X1363980Y599050D03*
D12*
X1363590Y615950D03*
X1346590Y615950D03*
X1365640Y476250D03*
X1382640Y476250D03*
D54*
X1300480Y666030D03*
X1300480Y677630D03*
D55*
X1320680Y587000D03*
X1315680Y587000D03*
X1310680Y587000D03*
X1305680Y587000D03*
X1320680Y556000D03*
X1315680Y556000D03*
X1310680Y556000D03*
X1305680Y556000D03*
D15*
X1315720Y535550D03*
X1315720Y518550D03*
X1215390Y484750D03*
X1215390Y467750D03*
D12*
X1058790Y447040D03*
X1041790Y447040D03*
D56*
X1224640Y501500D03*
X1224640Y514500D03*
X1206140Y508000D03*
D15*
X1239520Y467750D03*
X1239520Y484750D03*
D57*
X1291740Y466750D03*
X1278740Y466750D03*
X1291740Y485750D03*
X1278740Y485750D03*
X1285240Y485750D03*
D56*
X1262740Y501500D03*
X1262740Y514500D03*
X1244240Y508000D03*
D15*
X1262380Y467750D03*
X1262380Y484750D03*
D41*
X1275510Y728900D03*
X1275510Y718900D03*
X1287010Y723900D03*
D15*
X1256030Y719210D03*
X1256030Y736210D03*
D12*
X1291200Y742950D03*
X1274200Y742950D03*
D31*
X1246480Y137000D03*
X1227480Y137000D03*
X1236980Y116000D03*
D12*
X1054490Y529590D03*
X1071490Y529590D03*
D56*
X903330Y479910D03*
X903330Y492910D03*
X884830Y486410D03*
D12*
X934330Y480060D03*
X917330Y480060D03*
X864480Y495300D03*
X847480Y495300D03*
D28*
X797750Y491800D02*
X797750Y498800D01*
X804750Y498800D01*
X804750Y491800D01*
X797750Y491800D01*
X797750Y494650D02*
X804750Y494650D01*
X804750Y497500D02*
X797750Y497500D01*
X780210Y498800D02*
X780210Y491800D01*
X780210Y498800D02*
X787210Y498800D01*
X787210Y491800D01*
X780210Y491800D01*
X780210Y494650D02*
X787210Y494650D01*
X787210Y497500D02*
X780210Y497500D01*
D56*
X903330Y507850D03*
X903330Y520850D03*
X884830Y514350D03*
D12*
X934330Y508000D03*
X917330Y508000D03*
X864480Y514350D03*
X847480Y514350D03*
D28*
X797750Y510850D02*
X797750Y517850D01*
X804750Y517850D01*
X804750Y510850D01*
X797750Y510850D01*
X797750Y513700D02*
X804750Y513700D01*
X804750Y516550D02*
X797750Y516550D01*
X780210Y517850D02*
X780210Y510850D01*
X780210Y517850D02*
X787210Y517850D01*
X787210Y510850D01*
X780210Y510850D01*
X780210Y513700D02*
X787210Y513700D01*
X787210Y516550D02*
X780210Y516550D01*
D12*
X1194680Y528320D03*
X1177680Y528320D03*
X1144660Y528320D03*
X1161660Y528320D03*
X834780Y660400D03*
X851780Y660400D03*
X834780Y685800D03*
X851780Y685800D03*
X1239130Y355600D03*
X1222130Y355600D03*
X1228480Y152400D03*
X1245480Y152400D03*
X934330Y552450D03*
X917330Y552450D03*
X1236590Y447040D03*
X1219590Y447040D03*
X1041790Y462280D03*
X1058790Y462280D03*
X1058790Y477520D03*
X1041790Y477520D03*
D20*
X1385640Y457200D03*
X1362640Y457200D03*
D21*
X951230Y294640D03*
X951230Y238760D03*
X913130Y294640D03*
X913130Y238760D03*
D15*
X1134110Y211700D03*
X1134110Y194700D03*
D56*
X903330Y535790D03*
X903330Y548790D03*
X884830Y542290D03*
D12*
X934330Y535940D03*
X917330Y535940D03*
X864480Y533400D03*
X847480Y533400D03*
D28*
X797750Y529900D02*
X797750Y536900D01*
X804750Y536900D01*
X804750Y529900D01*
X797750Y529900D01*
X797750Y532750D02*
X804750Y532750D01*
X804750Y535600D02*
X797750Y535600D01*
X780210Y536900D02*
X780210Y529900D01*
X780210Y536900D02*
X787210Y536900D01*
X787210Y529900D01*
X780210Y529900D01*
X780210Y532750D02*
X787210Y532750D01*
X787210Y535600D02*
X780210Y535600D01*
D12*
X917330Y568960D03*
X934330Y568960D03*
D58*
X1137920Y125730D03*
X1178620Y125730D03*
D15*
X1018540Y715400D03*
X1018540Y732400D03*
D59*
X1194960Y504230D03*
X1188460Y504230D03*
X1181960Y504230D03*
D60*
X1175460Y504105D03*
X1168960Y504105D03*
X1162460Y504105D03*
X1155960Y504105D03*
X1149460Y504105D03*
D59*
X1194960Y445730D03*
X1188460Y445730D03*
X1181960Y445730D03*
X1175460Y445730D03*
X1168960Y445730D03*
X1162460Y445730D03*
X1155960Y445730D03*
X1149460Y445730D03*
X1127650Y504230D03*
X1121150Y504230D03*
X1114650Y504230D03*
D60*
X1108150Y504105D03*
X1101650Y504105D03*
X1095150Y504105D03*
X1088650Y504105D03*
X1082150Y504105D03*
D59*
X1127650Y445730D03*
X1121150Y445730D03*
X1114650Y445730D03*
X1108150Y445730D03*
X1101650Y445730D03*
X1095150Y445730D03*
X1088650Y445730D03*
X1082150Y445730D03*
X1179720Y340400D03*
X1173220Y340400D03*
X1166720Y340400D03*
D60*
X1160220Y340275D03*
X1153720Y340275D03*
X1147220Y340275D03*
X1140720Y340275D03*
X1134220Y340275D03*
D59*
X1179720Y281900D03*
X1173220Y281900D03*
X1166720Y281900D03*
X1160220Y281900D03*
X1153720Y281900D03*
X1147220Y281900D03*
X1140720Y281900D03*
X1134220Y281900D03*
D61*
X1116358Y130930D03*
X1095983Y135930D03*
X1095983Y130930D03*
X1095983Y140930D03*
X1095983Y145930D03*
X1116358Y135930D03*
X1116358Y140930D03*
X1116358Y145930D03*
D62*
X1106170Y141830D03*
X1106170Y135030D03*
D10*
X198000Y916080D03*
X193000Y916080D03*
D11*
X222750Y916080D03*
X215000Y916080D03*
D10*
X208000Y916080D03*
X203000Y916080D03*
X183000Y916080D03*
X188000Y916080D03*
D11*
X158250Y916080D03*
X166000Y916080D03*
D10*
X173000Y916080D03*
X178000Y916080D03*
D12*
X156600Y932180D03*
X173600Y932180D03*
X224400Y932180D03*
X207400Y932180D03*
D13*
X190500Y957580D03*
D14*
X204250Y947830D03*
X204250Y954330D03*
X204250Y960830D03*
X204250Y967330D03*
X176750Y967330D03*
X176750Y960830D03*
X176750Y954330D03*
X176750Y947830D03*
D15*
X152400Y949080D03*
X152400Y966080D03*
D16*
X605900Y1252680D03*
X605900Y1262680D03*
X587900Y1262680D03*
X587900Y1252680D03*
D17*
X596900Y1233180D03*
D18*
X590400Y1239680D03*
X603400Y1239680D03*
D17*
X596900Y1246180D03*
D15*
X565150Y1258180D03*
X565150Y1241180D03*
X469900Y953380D03*
X469900Y936380D03*
D19*
X310600Y900080D03*
D20*
X290900Y949960D03*
X267900Y949960D03*
D12*
X270900Y932180D03*
X287900Y932180D03*
X668900Y1313180D03*
X651900Y1313180D03*
X668900Y1287780D03*
X651900Y1287780D03*
D21*
X19050Y1094740D03*
X19050Y1150620D03*
X57150Y1094740D03*
X57150Y1150620D03*
D15*
X137160Y949080D03*
X137160Y966080D03*
D22*
X114300Y879080D03*
X114300Y909080D03*
D23*
X114300Y958880D03*
X114300Y930880D03*
D12*
X152010Y1004570D03*
X135010Y1004570D03*
X135010Y989330D03*
X152010Y989330D03*
D21*
X82550Y1094740D03*
X82550Y1150620D03*
X120650Y1094740D03*
X120650Y1150620D03*
D24*
X579150Y1029780D03*
X522150Y1029780D03*
D25*
X506150Y898280D03*
X637650Y888280D03*
D26*
X591050Y926780D03*
X580050Y930780D03*
X569050Y926780D03*
X558050Y924780D03*
X547050Y926780D03*
X536050Y924780D03*
X525050Y926780D03*
X514050Y926780D03*
D15*
X176530Y1006720D03*
X176530Y989720D03*
D27*
X194310Y1010990D03*
X194310Y987990D03*
D12*
X80400Y1332230D03*
X97400Y1332230D03*
D28*
X20130Y1335730D02*
X20130Y1328730D01*
X13130Y1328730D01*
X13130Y1335730D01*
X20130Y1335730D01*
X20130Y1331580D02*
X13130Y1331580D01*
X13130Y1334430D02*
X20130Y1334430D01*
X37670Y1335730D02*
X37670Y1328730D01*
X30670Y1328730D01*
X30670Y1335730D01*
X37670Y1335730D01*
X37670Y1331580D02*
X30670Y1331580D01*
X30670Y1334430D02*
X37670Y1334430D01*
D12*
X223910Y948690D03*
X240910Y948690D03*
X223910Y963930D03*
X240910Y963930D03*
X223910Y979170D03*
X240910Y979170D03*
D29*
X272500Y1069980D03*
X272500Y1276980D03*
D30*
X340250Y1263480D03*
X340250Y1253480D03*
X340250Y1248480D03*
X340250Y1258480D03*
X340250Y1243480D03*
X340250Y1233480D03*
X340250Y1228480D03*
X340250Y1238480D03*
X340250Y1223480D03*
X340250Y1213480D03*
X340250Y1208480D03*
X340250Y1218480D03*
X340250Y1203480D03*
X340250Y1193480D03*
X340250Y1188480D03*
X340250Y1198480D03*
X340250Y1183480D03*
X340250Y1173480D03*
X340250Y1168480D03*
X340250Y1178480D03*
X340250Y1163480D03*
X340250Y1158480D03*
X340250Y1133480D03*
X340250Y1128480D03*
X340250Y1123480D03*
X340250Y1113480D03*
X340250Y1108480D03*
X340250Y1118480D03*
X340250Y1103480D03*
X340250Y1093480D03*
X340250Y1088480D03*
X340250Y1098480D03*
X340250Y1083480D03*
X264750Y1265980D03*
X264750Y1255980D03*
X264750Y1250980D03*
X264750Y1260980D03*
X264750Y1245980D03*
X264750Y1235980D03*
X264750Y1230980D03*
X264750Y1240980D03*
X264750Y1225980D03*
X264750Y1215980D03*
X264750Y1210980D03*
X264750Y1220980D03*
X264750Y1205980D03*
X264750Y1195980D03*
X264750Y1190980D03*
X264750Y1200980D03*
X264750Y1185980D03*
X264750Y1175980D03*
X264750Y1170980D03*
X264750Y1180980D03*
X264750Y1165980D03*
X264750Y1160980D03*
X264750Y1135980D03*
X264750Y1130980D03*
X264750Y1125980D03*
X264750Y1115980D03*
X264750Y1110980D03*
X264750Y1120980D03*
X264750Y1105980D03*
X264750Y1095980D03*
X264750Y1090980D03*
X264750Y1100980D03*
X264750Y1085980D03*
X264750Y1080980D03*
D31*
X288900Y986630D03*
X269900Y986630D03*
X279400Y965630D03*
D12*
X80400Y1313180D03*
X97400Y1313180D03*
D28*
X20130Y1316680D02*
X20130Y1309680D01*
X13130Y1309680D01*
X13130Y1316680D01*
X20130Y1316680D01*
X20130Y1312530D02*
X13130Y1312530D01*
X13130Y1315380D02*
X20130Y1315380D01*
X37670Y1316680D02*
X37670Y1309680D01*
X30670Y1309680D01*
X30670Y1316680D01*
X37670Y1316680D01*
X37670Y1312530D02*
X30670Y1312530D01*
X30670Y1315380D02*
X37670Y1315380D01*
D32*
X747950Y942280D03*
X747950Y998280D03*
D33*
X711200Y955280D03*
X711200Y965280D03*
X711200Y975280D03*
X711200Y985280D03*
D15*
X666750Y999880D03*
X666750Y1016880D03*
X692150Y999880D03*
X692150Y1016880D03*
X82550Y1061330D03*
X82550Y1044330D03*
X101600Y1061330D03*
X101600Y1044330D03*
X120650Y1061330D03*
X120650Y1044330D03*
D34*
X271000Y1408280D03*
X282000Y1408280D03*
X293000Y1408280D03*
X304000Y1408280D03*
X315000Y1408280D03*
X326000Y1408280D03*
X337000Y1408280D03*
X348000Y1408280D03*
X359000Y1408280D03*
X370000Y1408280D03*
X381000Y1408280D03*
X392000Y1408280D03*
X403000Y1408280D03*
X414000Y1408280D03*
X425000Y1408280D03*
X436000Y1408280D03*
X447000Y1408280D03*
X458000Y1408280D03*
X469000Y1408280D03*
X480000Y1408280D03*
X491000Y1408280D03*
D35*
X501000Y1423280D03*
X501000Y1434280D03*
X501000Y1445280D03*
X501000Y1456280D03*
X501000Y1467280D03*
X501000Y1478280D03*
X501000Y1489280D03*
X501000Y1500280D03*
X501000Y1511280D03*
X501000Y1522280D03*
X501000Y1533280D03*
D34*
X491000Y1548280D03*
X480000Y1548280D03*
X469000Y1548280D03*
X458000Y1548280D03*
X447000Y1548280D03*
X436000Y1548280D03*
X425000Y1548280D03*
X414000Y1548280D03*
X403000Y1548280D03*
X392000Y1548280D03*
X381000Y1548280D03*
X370000Y1548280D03*
X359000Y1548280D03*
X348000Y1548280D03*
X337000Y1548280D03*
X326000Y1548280D03*
X315000Y1548280D03*
X304000Y1548280D03*
X293000Y1548280D03*
X282000Y1548280D03*
X271000Y1548280D03*
D35*
X261000Y1533280D03*
X261000Y1522280D03*
X261000Y1511280D03*
X261000Y1500280D03*
X261000Y1489280D03*
X261000Y1478280D03*
X261000Y1467280D03*
X261000Y1456280D03*
X261000Y1445280D03*
X261000Y1434280D03*
X261000Y1423280D03*
D36*
X278500Y1425780D03*
X278500Y1446780D03*
X278500Y1467780D03*
X278500Y1488780D03*
X278500Y1509780D03*
X278500Y1530780D03*
X296500Y1425780D03*
X296500Y1446780D03*
X296500Y1467780D03*
X296500Y1488780D03*
X296500Y1509780D03*
X296500Y1530780D03*
X314500Y1425780D03*
X314500Y1530780D03*
X350500Y1425780D03*
X350500Y1530780D03*
X483500Y1530780D03*
X483500Y1509780D03*
X483500Y1488780D03*
X483500Y1467780D03*
X483500Y1446780D03*
X483500Y1425780D03*
X465500Y1530780D03*
X465500Y1509780D03*
X465500Y1488780D03*
X465500Y1467780D03*
X465500Y1446780D03*
X465500Y1425780D03*
X447500Y1530780D03*
X447500Y1425780D03*
X411500Y1530780D03*
X411500Y1425780D03*
D37*
X396000Y1230980D03*
X396000Y1226980D03*
X396000Y1234980D03*
X396000Y1238980D03*
X396000Y1242980D03*
X396000Y1246980D03*
D38*
X391000Y1251980D03*
X387000Y1251980D03*
X383000Y1251980D03*
X379000Y1251980D03*
X375000Y1251980D03*
X371000Y1251980D03*
D37*
X366000Y1246980D03*
X366000Y1242980D03*
X366000Y1234980D03*
X366000Y1238980D03*
X366000Y1230980D03*
X366000Y1226980D03*
D38*
X371000Y1221980D03*
X375000Y1221980D03*
X379000Y1221980D03*
X383000Y1221980D03*
X387000Y1221980D03*
X391000Y1221980D03*
D12*
X372500Y1278890D03*
X389500Y1278890D03*
D15*
X412750Y1245480D03*
X412750Y1228480D03*
X431800Y1245480D03*
X431800Y1228480D03*
D39*
X457050Y1245230D03*
X470050Y1245230D03*
D40*
X456819Y1228725D03*
X463550Y1228725D03*
X470281Y1228725D03*
D12*
X455050Y1196340D03*
X472050Y1196340D03*
D41*
X429690Y1273730D03*
X429690Y1263730D03*
X441190Y1268730D03*
D15*
X412750Y1261500D03*
X412750Y1278500D03*
D42*
X123700Y1582980D03*
D43*
X165100Y1536980D03*
D42*
X206500Y1582980D03*
X555500Y1582980D03*
D43*
X596900Y1536980D03*
D42*
X638300Y1582980D03*
D44*
X367999Y1030580D03*
X367999Y1021080D03*
X367999Y1011580D03*
X394001Y1011580D03*
X394001Y1030580D03*
D15*
X393700Y1067680D03*
X393700Y1050680D03*
D12*
X345050Y967740D03*
X328050Y967740D03*
D28*
X462470Y884880D02*
X462470Y877880D01*
X462470Y884880D02*
X469470Y884880D01*
X469470Y877880D01*
X462470Y877880D01*
X462470Y880730D02*
X469470Y880730D01*
X469470Y883580D02*
X462470Y883580D01*
X444930Y884880D02*
X444930Y877880D01*
X444930Y884880D02*
X451930Y884880D01*
X451930Y877880D01*
X444930Y877880D01*
X444930Y880730D02*
X451930Y880730D01*
X451930Y883580D02*
X444930Y883580D01*
D12*
X448700Y906780D03*
X465700Y906780D03*
D45*
X391000Y931080D03*
X371000Y931080D03*
D46*
X415000Y879080D03*
X347000Y879080D03*
D47*
X629650Y1471930D03*
X629650Y1459230D03*
X629650Y1446530D03*
X629650Y1433830D03*
X629650Y1421130D03*
X629650Y1408430D03*
D48*
X693850Y1393280D03*
X636350Y1393280D03*
X636350Y1486780D03*
X693850Y1486780D03*
D49*
X751050Y1395530D03*
X751050Y1484830D03*
D50*
X419100Y1574730D03*
X428600Y1574730D03*
X409600Y1574730D03*
X428600Y1597730D03*
X419100Y1597730D03*
X409600Y1597730D03*
D15*
X392430Y1575190D03*
X392430Y1592190D03*
X461010Y1575190D03*
X461010Y1592190D03*
X445770Y1592190D03*
X445770Y1575190D03*
X377190Y1592190D03*
X377190Y1575190D03*
X361950Y1592190D03*
X361950Y1575190D03*
D12*
X455050Y1268730D03*
X472050Y1268730D03*
D15*
X297180Y1571380D03*
X297180Y1588380D03*
X281940Y1571380D03*
X281940Y1588380D03*
X266700Y1571380D03*
X266700Y1588380D03*
D51*
X198120Y1486662D03*
X198120Y1495298D03*
X228600Y1510792D03*
X228600Y1519428D03*
D52*
X209000Y1511300D03*
X197400Y1511300D03*
X197570Y1445260D03*
X185970Y1445260D03*
D12*
X230750Y1445260D03*
X213750Y1445260D03*
D52*
X197570Y1465580D03*
X185970Y1465580D03*
D53*
X596290Y1349709D03*
X605790Y1349709D03*
X615290Y1349709D03*
X615290Y1375711D03*
X596290Y1375711D03*
D12*
X596510Y1405890D03*
X579510Y1405890D03*
X596510Y1421130D03*
X579510Y1421130D03*
D15*
X596900Y1490100D03*
X596900Y1507100D03*
X596900Y1438030D03*
X596900Y1455030D03*
D12*
X596510Y1471930D03*
X579510Y1471930D03*
X598560Y1332230D03*
X615560Y1332230D03*
D54*
X533400Y1522010D03*
X533400Y1533610D03*
D55*
X553600Y1442980D03*
X548600Y1442980D03*
X543600Y1442980D03*
X538600Y1442980D03*
X553600Y1411980D03*
X548600Y1411980D03*
X543600Y1411980D03*
X538600Y1411980D03*
D15*
X548640Y1391530D03*
X548640Y1374530D03*
X448310Y1340730D03*
X448310Y1323730D03*
D12*
X291710Y1303020D03*
X274710Y1303020D03*
D56*
X457560Y1357480D03*
X457560Y1370480D03*
X439060Y1363980D03*
D15*
X472440Y1323730D03*
X472440Y1340730D03*
D57*
X524660Y1322730D03*
X511660Y1322730D03*
X524660Y1341730D03*
X511660Y1341730D03*
X518160Y1341730D03*
D56*
X495660Y1357480D03*
X495660Y1370480D03*
X477160Y1363980D03*
D15*
X495300Y1323730D03*
X495300Y1340730D03*
D41*
X508430Y1584880D03*
X508430Y1574880D03*
X519930Y1579880D03*
D15*
X488950Y1575190D03*
X488950Y1592190D03*
D12*
X524120Y1598930D03*
X507120Y1598930D03*
D31*
X479400Y992980D03*
X460400Y992980D03*
X469900Y971980D03*
D12*
X287410Y1385570D03*
X304410Y1385570D03*
D56*
X136250Y1335890D03*
X136250Y1348890D03*
X117750Y1342390D03*
D12*
X167250Y1336040D03*
X150250Y1336040D03*
X97400Y1351280D03*
X80400Y1351280D03*
D28*
X30670Y1347780D02*
X30670Y1354780D01*
X37670Y1354780D01*
X37670Y1347780D01*
X30670Y1347780D01*
X30670Y1350630D02*
X37670Y1350630D01*
X37670Y1353480D02*
X30670Y1353480D01*
X13130Y1354780D02*
X13130Y1347780D01*
X13130Y1354780D02*
X20130Y1354780D01*
X20130Y1347780D01*
X13130Y1347780D01*
X13130Y1350630D02*
X20130Y1350630D01*
X20130Y1353480D02*
X13130Y1353480D01*
D56*
X136250Y1363830D03*
X136250Y1376830D03*
X117750Y1370330D03*
D12*
X167250Y1363980D03*
X150250Y1363980D03*
X97400Y1370330D03*
X80400Y1370330D03*
D28*
X30670Y1366830D02*
X30670Y1373830D01*
X37670Y1373830D01*
X37670Y1366830D01*
X30670Y1366830D01*
X30670Y1369680D02*
X37670Y1369680D01*
X37670Y1372530D02*
X30670Y1372530D01*
X13130Y1373830D02*
X13130Y1366830D01*
X13130Y1373830D02*
X20130Y1373830D01*
X20130Y1366830D01*
X13130Y1366830D01*
X13130Y1369680D02*
X20130Y1369680D01*
X20130Y1372530D02*
X13130Y1372530D01*
D12*
X427600Y1384300D03*
X410600Y1384300D03*
X377580Y1384300D03*
X394580Y1384300D03*
X67700Y1516380D03*
X84700Y1516380D03*
X67700Y1541780D03*
X84700Y1541780D03*
X472050Y1211580D03*
X455050Y1211580D03*
X461400Y1008380D03*
X478400Y1008380D03*
X167250Y1408430D03*
X150250Y1408430D03*
X469510Y1303020D03*
X452510Y1303020D03*
X274710Y1318260D03*
X291710Y1318260D03*
X291710Y1333500D03*
X274710Y1333500D03*
D20*
X618560Y1313180D03*
X595560Y1313180D03*
D21*
X184150Y1150620D03*
X184150Y1094740D03*
X146050Y1150620D03*
X146050Y1094740D03*
D15*
X367030Y1067680D03*
X367030Y1050680D03*
D56*
X136250Y1391770D03*
X136250Y1404770D03*
X117750Y1398270D03*
D12*
X167250Y1391920D03*
X150250Y1391920D03*
X97400Y1389380D03*
X80400Y1389380D03*
D28*
X30670Y1385880D02*
X30670Y1392880D01*
X37670Y1392880D01*
X37670Y1385880D01*
X30670Y1385880D01*
X30670Y1388730D02*
X37670Y1388730D01*
X37670Y1391580D02*
X30670Y1391580D01*
X13130Y1392880D02*
X13130Y1385880D01*
X13130Y1392880D02*
X20130Y1392880D01*
X20130Y1385880D01*
X13130Y1385880D01*
X13130Y1388730D02*
X20130Y1388730D01*
X20130Y1391580D02*
X13130Y1391580D01*
D12*
X150250Y1424940D03*
X167250Y1424940D03*
D58*
X370840Y981710D03*
X411540Y981710D03*
D15*
X251460Y1571380D03*
X251460Y1588380D03*
D59*
X427880Y1360210D03*
X421380Y1360210D03*
X414880Y1360210D03*
D60*
X408380Y1360085D03*
X401880Y1360085D03*
X395380Y1360085D03*
X388880Y1360085D03*
X382380Y1360085D03*
D59*
X427880Y1301710D03*
X421380Y1301710D03*
X414880Y1301710D03*
X408380Y1301710D03*
X401880Y1301710D03*
X395380Y1301710D03*
X388880Y1301710D03*
X382380Y1301710D03*
X360570Y1360210D03*
X354070Y1360210D03*
X347570Y1360210D03*
D60*
X341070Y1360085D03*
X334570Y1360085D03*
X328070Y1360085D03*
X321570Y1360085D03*
X315070Y1360085D03*
D59*
X360570Y1301710D03*
X354070Y1301710D03*
X347570Y1301710D03*
X341070Y1301710D03*
X334570Y1301710D03*
X328070Y1301710D03*
X321570Y1301710D03*
X315070Y1301710D03*
X412640Y1196380D03*
X406140Y1196380D03*
X399640Y1196380D03*
D60*
X393140Y1196255D03*
X386640Y1196255D03*
X380140Y1196255D03*
X373640Y1196255D03*
X367140Y1196255D03*
D59*
X412640Y1137880D03*
X406140Y1137880D03*
X399640Y1137880D03*
X393140Y1137880D03*
X386640Y1137880D03*
X380140Y1137880D03*
X373640Y1137880D03*
X367140Y1137880D03*
D61*
X349278Y986910D03*
X328903Y991910D03*
X328903Y986910D03*
X328903Y996910D03*
X328903Y1001910D03*
X349278Y991910D03*
X349278Y996910D03*
X349278Y1001910D03*
D62*
X339090Y997810D03*
X339090Y991010D03*
D10*
X965080Y916080D03*
X960080Y916080D03*
D11*
X989830Y916080D03*
X982080Y916080D03*
D10*
X975080Y916080D03*
X970080Y916080D03*
X950080Y916080D03*
X955080Y916080D03*
D11*
X925330Y916080D03*
X933080Y916080D03*
D10*
X940080Y916080D03*
X945080Y916080D03*
D12*
X923680Y932180D03*
X940680Y932180D03*
X991480Y932180D03*
X974480Y932180D03*
D13*
X957580Y957580D03*
D14*
X971330Y947830D03*
X971330Y954330D03*
X971330Y960830D03*
X971330Y967330D03*
X943830Y967330D03*
X943830Y960830D03*
X943830Y954330D03*
X943830Y947830D03*
D15*
X919480Y949080D03*
X919480Y966080D03*
D16*
X1372980Y1252680D03*
X1372980Y1262680D03*
X1354980Y1262680D03*
X1354980Y1252680D03*
D17*
X1363980Y1233180D03*
D18*
X1357480Y1239680D03*
X1370480Y1239680D03*
D17*
X1363980Y1246180D03*
D15*
X1332230Y1258180D03*
X1332230Y1241180D03*
X1236980Y953380D03*
X1236980Y936380D03*
D19*
X1077680Y900080D03*
D20*
X1057980Y949960D03*
X1034980Y949960D03*
D12*
X1037980Y932180D03*
X1054980Y932180D03*
X1435980Y1313180D03*
X1418980Y1313180D03*
X1435980Y1287780D03*
X1418980Y1287780D03*
D21*
X786130Y1094740D03*
X786130Y1150620D03*
X824230Y1094740D03*
X824230Y1150620D03*
D15*
X904240Y949080D03*
X904240Y966080D03*
D22*
X881380Y879080D03*
X881380Y909080D03*
D23*
X881380Y958880D03*
X881380Y930880D03*
D12*
X919090Y1004570D03*
X902090Y1004570D03*
X902090Y989330D03*
X919090Y989330D03*
D21*
X849630Y1094740D03*
X849630Y1150620D03*
X887730Y1094740D03*
X887730Y1150620D03*
D24*
X1346230Y1029780D03*
X1289230Y1029780D03*
D25*
X1273230Y898280D03*
X1404730Y888280D03*
D26*
X1358130Y926780D03*
X1347130Y930780D03*
X1336130Y926780D03*
X1325130Y924780D03*
X1314130Y926780D03*
X1303130Y924780D03*
X1292130Y926780D03*
X1281130Y926780D03*
D15*
X943610Y1006720D03*
X943610Y989720D03*
D27*
X961390Y1010990D03*
X961390Y987990D03*
D12*
X847480Y1332230D03*
X864480Y1332230D03*
D28*
X787210Y1335730D02*
X787210Y1328730D01*
X780210Y1328730D01*
X780210Y1335730D01*
X787210Y1335730D01*
X787210Y1331580D02*
X780210Y1331580D01*
X780210Y1334430D02*
X787210Y1334430D01*
X804750Y1335730D02*
X804750Y1328730D01*
X797750Y1328730D01*
X797750Y1335730D01*
X804750Y1335730D01*
X804750Y1331580D02*
X797750Y1331580D01*
X797750Y1334430D02*
X804750Y1334430D01*
D12*
X990990Y948690D03*
X1007990Y948690D03*
X990990Y963930D03*
X1007990Y963930D03*
X990990Y979170D03*
X1007990Y979170D03*
D29*
X1039580Y1069980D03*
X1039580Y1276980D03*
D30*
X1107330Y1263480D03*
X1107330Y1253480D03*
X1107330Y1248480D03*
X1107330Y1258480D03*
X1107330Y1243480D03*
X1107330Y1233480D03*
X1107330Y1228480D03*
X1107330Y1238480D03*
X1107330Y1223480D03*
X1107330Y1213480D03*
X1107330Y1208480D03*
X1107330Y1218480D03*
X1107330Y1203480D03*
X1107330Y1193480D03*
X1107330Y1188480D03*
X1107330Y1198480D03*
X1107330Y1183480D03*
X1107330Y1173480D03*
X1107330Y1168480D03*
X1107330Y1178480D03*
X1107330Y1163480D03*
X1107330Y1158480D03*
X1107330Y1133480D03*
X1107330Y1128480D03*
X1107330Y1123480D03*
X1107330Y1113480D03*
X1107330Y1108480D03*
X1107330Y1118480D03*
X1107330Y1103480D03*
X1107330Y1093480D03*
X1107330Y1088480D03*
X1107330Y1098480D03*
X1107330Y1083480D03*
X1031830Y1265980D03*
X1031830Y1255980D03*
X1031830Y1250980D03*
X1031830Y1260980D03*
X1031830Y1245980D03*
X1031830Y1235980D03*
X1031830Y1230980D03*
X1031830Y1240980D03*
X1031830Y1225980D03*
X1031830Y1215980D03*
X1031830Y1210980D03*
X1031830Y1220980D03*
X1031830Y1205980D03*
X1031830Y1195980D03*
X1031830Y1190980D03*
X1031830Y1200980D03*
X1031830Y1185980D03*
X1031830Y1175980D03*
X1031830Y1170980D03*
X1031830Y1180980D03*
X1031830Y1165980D03*
X1031830Y1160980D03*
X1031830Y1135980D03*
X1031830Y1130980D03*
X1031830Y1125980D03*
X1031830Y1115980D03*
X1031830Y1110980D03*
X1031830Y1120980D03*
X1031830Y1105980D03*
X1031830Y1095980D03*
X1031830Y1090980D03*
X1031830Y1100980D03*
X1031830Y1085980D03*
X1031830Y1080980D03*
D31*
X1055980Y986630D03*
X1036980Y986630D03*
X1046480Y965630D03*
D12*
X847480Y1313180D03*
X864480Y1313180D03*
D28*
X787210Y1316680D02*
X787210Y1309680D01*
X780210Y1309680D01*
X780210Y1316680D01*
X787210Y1316680D01*
X787210Y1312530D02*
X780210Y1312530D01*
X780210Y1315380D02*
X787210Y1315380D01*
X804750Y1316680D02*
X804750Y1309680D01*
X797750Y1309680D01*
X797750Y1316680D01*
X804750Y1316680D01*
X804750Y1312530D02*
X797750Y1312530D01*
X797750Y1315380D02*
X804750Y1315380D01*
D32*
X1515030Y942280D03*
X1515030Y998280D03*
D33*
X1478280Y955280D03*
X1478280Y965280D03*
X1478280Y975280D03*
X1478280Y985280D03*
D15*
X1433830Y999880D03*
X1433830Y1016880D03*
X1459230Y999880D03*
X1459230Y1016880D03*
X849630Y1061330D03*
X849630Y1044330D03*
X868680Y1061330D03*
X868680Y1044330D03*
X887730Y1061330D03*
X887730Y1044330D03*
D34*
X1038080Y1408280D03*
X1049080Y1408280D03*
X1060080Y1408280D03*
X1071080Y1408280D03*
X1082080Y1408280D03*
X1093080Y1408280D03*
X1104080Y1408280D03*
X1115080Y1408280D03*
X1126080Y1408280D03*
X1137080Y1408280D03*
X1148080Y1408280D03*
X1159080Y1408280D03*
X1170080Y1408280D03*
X1181080Y1408280D03*
X1192080Y1408280D03*
X1203080Y1408280D03*
X1214080Y1408280D03*
X1225080Y1408280D03*
X1236080Y1408280D03*
X1247080Y1408280D03*
X1258080Y1408280D03*
D35*
X1268080Y1423280D03*
X1268080Y1434280D03*
X1268080Y1445280D03*
X1268080Y1456280D03*
X1268080Y1467280D03*
X1268080Y1478280D03*
X1268080Y1489280D03*
X1268080Y1500280D03*
X1268080Y1511280D03*
X1268080Y1522280D03*
X1268080Y1533280D03*
D34*
X1258080Y1548280D03*
X1247080Y1548280D03*
X1236080Y1548280D03*
X1225080Y1548280D03*
X1214080Y1548280D03*
X1203080Y1548280D03*
X1192080Y1548280D03*
X1181080Y1548280D03*
X1170080Y1548280D03*
X1159080Y1548280D03*
X1148080Y1548280D03*
X1137080Y1548280D03*
X1126080Y1548280D03*
X1115080Y1548280D03*
X1104080Y1548280D03*
X1093080Y1548280D03*
X1082080Y1548280D03*
X1071080Y1548280D03*
X1060080Y1548280D03*
X1049080Y1548280D03*
X1038080Y1548280D03*
D35*
X1028080Y1533280D03*
X1028080Y1522280D03*
X1028080Y1511280D03*
X1028080Y1500280D03*
X1028080Y1489280D03*
X1028080Y1478280D03*
X1028080Y1467280D03*
X1028080Y1456280D03*
X1028080Y1445280D03*
X1028080Y1434280D03*
X1028080Y1423280D03*
D36*
X1045580Y1425780D03*
X1045580Y1446780D03*
X1045580Y1467780D03*
X1045580Y1488780D03*
X1045580Y1509780D03*
X1045580Y1530780D03*
X1063580Y1425780D03*
X1063580Y1446780D03*
X1063580Y1467780D03*
X1063580Y1488780D03*
X1063580Y1509780D03*
X1063580Y1530780D03*
X1081580Y1425780D03*
X1081580Y1530780D03*
X1117580Y1425780D03*
X1117580Y1530780D03*
X1250580Y1530780D03*
X1250580Y1509780D03*
X1250580Y1488780D03*
X1250580Y1467780D03*
X1250580Y1446780D03*
X1250580Y1425780D03*
X1232580Y1530780D03*
X1232580Y1509780D03*
X1232580Y1488780D03*
X1232580Y1467780D03*
X1232580Y1446780D03*
X1232580Y1425780D03*
X1214580Y1530780D03*
X1214580Y1425780D03*
X1178580Y1530780D03*
X1178580Y1425780D03*
D37*
X1163080Y1230980D03*
X1163080Y1226980D03*
X1163080Y1234980D03*
X1163080Y1238980D03*
X1163080Y1242980D03*
X1163080Y1246980D03*
D38*
X1158080Y1251980D03*
X1154080Y1251980D03*
X1150080Y1251980D03*
X1146080Y1251980D03*
X1142080Y1251980D03*
X1138080Y1251980D03*
D37*
X1133080Y1246980D03*
X1133080Y1242980D03*
X1133080Y1234980D03*
X1133080Y1238980D03*
X1133080Y1230980D03*
X1133080Y1226980D03*
D38*
X1138080Y1221980D03*
X1142080Y1221980D03*
X1146080Y1221980D03*
X1150080Y1221980D03*
X1154080Y1221980D03*
X1158080Y1221980D03*
D12*
X1139580Y1278890D03*
X1156580Y1278890D03*
D15*
X1179830Y1245480D03*
X1179830Y1228480D03*
X1198880Y1245480D03*
X1198880Y1228480D03*
D39*
X1224130Y1245230D03*
X1237130Y1245230D03*
D40*
X1223899Y1228725D03*
X1230630Y1228725D03*
X1237361Y1228725D03*
D12*
X1222130Y1196340D03*
X1239130Y1196340D03*
D41*
X1196770Y1273730D03*
X1196770Y1263730D03*
X1208270Y1268730D03*
D15*
X1179830Y1261500D03*
X1179830Y1278500D03*
D42*
X890780Y1582980D03*
D43*
X932180Y1536980D03*
D42*
X973580Y1582980D03*
X1322580Y1582980D03*
D43*
X1363980Y1536980D03*
D42*
X1405380Y1582980D03*
D44*
X1135079Y1030580D03*
X1135079Y1021080D03*
X1135079Y1011580D03*
X1161081Y1011580D03*
X1161081Y1030580D03*
D15*
X1160780Y1067680D03*
X1160780Y1050680D03*
D12*
X1112130Y967740D03*
X1095130Y967740D03*
D28*
X1229550Y884880D02*
X1229550Y877880D01*
X1229550Y884880D02*
X1236550Y884880D01*
X1236550Y877880D01*
X1229550Y877880D01*
X1229550Y880730D02*
X1236550Y880730D01*
X1236550Y883580D02*
X1229550Y883580D01*
X1212010Y884880D02*
X1212010Y877880D01*
X1212010Y884880D02*
X1219010Y884880D01*
X1219010Y877880D01*
X1212010Y877880D01*
X1212010Y880730D02*
X1219010Y880730D01*
X1219010Y883580D02*
X1212010Y883580D01*
D12*
X1215780Y906780D03*
X1232780Y906780D03*
D45*
X1158080Y931080D03*
X1138080Y931080D03*
D46*
X1182080Y879080D03*
X1114080Y879080D03*
D47*
X1396730Y1471930D03*
X1396730Y1459230D03*
X1396730Y1446530D03*
X1396730Y1433830D03*
X1396730Y1421130D03*
X1396730Y1408430D03*
D48*
X1460930Y1393280D03*
X1403430Y1393280D03*
X1403430Y1486780D03*
X1460930Y1486780D03*
D49*
X1518130Y1395530D03*
X1518130Y1484830D03*
D50*
X1186180Y1574730D03*
X1195680Y1574730D03*
X1176680Y1574730D03*
X1195680Y1597730D03*
X1186180Y1597730D03*
X1176680Y1597730D03*
D15*
X1159510Y1575190D03*
X1159510Y1592190D03*
X1228090Y1575190D03*
X1228090Y1592190D03*
X1212850Y1592190D03*
X1212850Y1575190D03*
X1144270Y1592190D03*
X1144270Y1575190D03*
X1129030Y1592190D03*
X1129030Y1575190D03*
D12*
X1222130Y1268730D03*
X1239130Y1268730D03*
D15*
X1064260Y1571380D03*
X1064260Y1588380D03*
X1049020Y1571380D03*
X1049020Y1588380D03*
X1033780Y1571380D03*
X1033780Y1588380D03*
D51*
X965200Y1486662D03*
X965200Y1495298D03*
X995680Y1510792D03*
X995680Y1519428D03*
D52*
X976080Y1511300D03*
X964480Y1511300D03*
X964650Y1445260D03*
X953050Y1445260D03*
D12*
X997830Y1445260D03*
X980830Y1445260D03*
D52*
X964650Y1465580D03*
X953050Y1465580D03*
D53*
X1363370Y1349709D03*
X1372870Y1349709D03*
X1382370Y1349709D03*
X1382370Y1375711D03*
X1363370Y1375711D03*
D12*
X1363590Y1405890D03*
X1346590Y1405890D03*
X1363590Y1421130D03*
X1346590Y1421130D03*
D15*
X1363980Y1490100D03*
X1363980Y1507100D03*
X1363980Y1438030D03*
X1363980Y1455030D03*
D12*
X1363590Y1471930D03*
X1346590Y1471930D03*
X1365640Y1332230D03*
X1382640Y1332230D03*
D54*
X1300480Y1522010D03*
X1300480Y1533610D03*
D55*
X1320680Y1442980D03*
X1315680Y1442980D03*
X1310680Y1442980D03*
X1305680Y1442980D03*
X1320680Y1411980D03*
X1315680Y1411980D03*
X1310680Y1411980D03*
X1305680Y1411980D03*
D15*
X1315720Y1391530D03*
X1315720Y1374530D03*
X1215390Y1340730D03*
X1215390Y1323730D03*
D12*
X1058790Y1303020D03*
X1041790Y1303020D03*
D56*
X1224640Y1357480D03*
X1224640Y1370480D03*
X1206140Y1363980D03*
D15*
X1239520Y1323730D03*
X1239520Y1340730D03*
D57*
X1291740Y1322730D03*
X1278740Y1322730D03*
X1291740Y1341730D03*
X1278740Y1341730D03*
X1285240Y1341730D03*
D56*
X1262740Y1357480D03*
X1262740Y1370480D03*
X1244240Y1363980D03*
D15*
X1262380Y1323730D03*
X1262380Y1340730D03*
D41*
X1275510Y1584880D03*
X1275510Y1574880D03*
X1287010Y1579880D03*
D15*
X1256030Y1575190D03*
X1256030Y1592190D03*
D12*
X1291200Y1598930D03*
X1274200Y1598930D03*
D31*
X1246480Y992980D03*
X1227480Y992980D03*
X1236980Y971980D03*
D12*
X1054490Y1385570D03*
X1071490Y1385570D03*
D56*
X903330Y1335890D03*
X903330Y1348890D03*
X884830Y1342390D03*
D12*
X934330Y1336040D03*
X917330Y1336040D03*
X864480Y1351280D03*
X847480Y1351280D03*
D28*
X797750Y1347780D02*
X797750Y1354780D01*
X804750Y1354780D01*
X804750Y1347780D01*
X797750Y1347780D01*
X797750Y1350630D02*
X804750Y1350630D01*
X804750Y1353480D02*
X797750Y1353480D01*
X780210Y1354780D02*
X780210Y1347780D01*
X780210Y1354780D02*
X787210Y1354780D01*
X787210Y1347780D01*
X780210Y1347780D01*
X780210Y1350630D02*
X787210Y1350630D01*
X787210Y1353480D02*
X780210Y1353480D01*
D56*
X903330Y1363830D03*
X903330Y1376830D03*
X884830Y1370330D03*
D12*
X934330Y1363980D03*
X917330Y1363980D03*
X864480Y1370330D03*
X847480Y1370330D03*
D28*
X797750Y1366830D02*
X797750Y1373830D01*
X804750Y1373830D01*
X804750Y1366830D01*
X797750Y1366830D01*
X797750Y1369680D02*
X804750Y1369680D01*
X804750Y1372530D02*
X797750Y1372530D01*
X780210Y1373830D02*
X780210Y1366830D01*
X780210Y1373830D02*
X787210Y1373830D01*
X787210Y1366830D01*
X780210Y1366830D01*
X780210Y1369680D02*
X787210Y1369680D01*
X787210Y1372530D02*
X780210Y1372530D01*
D12*
X1194680Y1384300D03*
X1177680Y1384300D03*
X1144660Y1384300D03*
X1161660Y1384300D03*
X834780Y1516380D03*
X851780Y1516380D03*
X834780Y1541780D03*
X851780Y1541780D03*
X1239130Y1211580D03*
X1222130Y1211580D03*
X1228480Y1008380D03*
X1245480Y1008380D03*
X934330Y1408430D03*
X917330Y1408430D03*
X1236590Y1303020D03*
X1219590Y1303020D03*
X1041790Y1318260D03*
X1058790Y1318260D03*
X1058790Y1333500D03*
X1041790Y1333500D03*
D20*
X1385640Y1313180D03*
X1362640Y1313180D03*
D21*
X951230Y1150620D03*
X951230Y1094740D03*
X913130Y1150620D03*
X913130Y1094740D03*
D15*
X1134110Y1067680D03*
X1134110Y1050680D03*
D56*
X903330Y1391770D03*
X903330Y1404770D03*
X884830Y1398270D03*
D12*
X934330Y1391920D03*
X917330Y1391920D03*
X864480Y1389380D03*
X847480Y1389380D03*
D28*
X797750Y1385880D02*
X797750Y1392880D01*
X804750Y1392880D01*
X804750Y1385880D01*
X797750Y1385880D01*
X797750Y1388730D02*
X804750Y1388730D01*
X804750Y1391580D02*
X797750Y1391580D01*
X780210Y1392880D02*
X780210Y1385880D01*
X780210Y1392880D02*
X787210Y1392880D01*
X787210Y1385880D01*
X780210Y1385880D01*
X780210Y1388730D02*
X787210Y1388730D01*
X787210Y1391580D02*
X780210Y1391580D01*
D12*
X917330Y1424940D03*
X934330Y1424940D03*
D58*
X1137920Y981710D03*
X1178620Y981710D03*
D15*
X1018540Y1571380D03*
X1018540Y1588380D03*
D59*
X1194960Y1360210D03*
X1188460Y1360210D03*
X1181960Y1360210D03*
D60*
X1175460Y1360085D03*
X1168960Y1360085D03*
X1162460Y1360085D03*
X1155960Y1360085D03*
X1149460Y1360085D03*
D59*
X1194960Y1301710D03*
X1188460Y1301710D03*
X1181960Y1301710D03*
X1175460Y1301710D03*
X1168960Y1301710D03*
X1162460Y1301710D03*
X1155960Y1301710D03*
X1149460Y1301710D03*
X1127650Y1360210D03*
X1121150Y1360210D03*
X1114650Y1360210D03*
D60*
X1108150Y1360085D03*
X1101650Y1360085D03*
X1095150Y1360085D03*
X1088650Y1360085D03*
X1082150Y1360085D03*
D59*
X1127650Y1301710D03*
X1121150Y1301710D03*
X1114650Y1301710D03*
X1108150Y1301710D03*
X1101650Y1301710D03*
X1095150Y1301710D03*
X1088650Y1301710D03*
X1082150Y1301710D03*
X1179720Y1196380D03*
X1173220Y1196380D03*
X1166720Y1196380D03*
D60*
X1160220Y1196255D03*
X1153720Y1196255D03*
X1147220Y1196255D03*
X1140720Y1196255D03*
X1134220Y1196255D03*
D59*
X1179720Y1137880D03*
X1173220Y1137880D03*
X1166720Y1137880D03*
X1160220Y1137880D03*
X1153720Y1137880D03*
X1147220Y1137880D03*
X1140720Y1137880D03*
X1134220Y1137880D03*
D61*
X1116358Y986910D03*
X1095983Y991910D03*
X1095983Y986910D03*
X1095983Y996910D03*
X1095983Y1001910D03*
X1116358Y991910D03*
X1116358Y996910D03*
X1116358Y1001910D03*
D62*
X1106170Y997810D03*
X1106170Y991010D03*
M02*
