G04 EAGLE Gerber RS-274X export*
G75*
%MOMM*%
%FSLAX34Y34*%
%LPD*%
%INSoldermask Bottom*%
%IPPOS*%
%AMOC8*
5,1,8,0,0,1.08239X$1,22.5*%
G01*
%ADD10C,0.853200*%
%ADD11C,0.838200*%
%ADD12C,1.003200*%
%ADD13C,3.505200*%
%ADD14R,1.473200X0.863600*%
%ADD15R,1.473200X0.838200*%
%ADD16R,0.838200X1.473200*%
%ADD17C,2.082800*%
%ADD18C,1.203200*%
%ADD19R,0.863600X1.473200*%
%ADD20C,6.203200*%
%ADD21C,1.303200*%
%ADD22C,1.803200*%
%ADD23C,0.965200*%
%ADD24C,1.270000*%
%ADD25C,1.703200*%

G36*
X1005270Y996073D02*
X1005270Y996073D01*
X1005336Y996075D01*
X1005379Y996093D01*
X1005426Y996101D01*
X1005483Y996135D01*
X1005543Y996160D01*
X1005578Y996191D01*
X1005619Y996216D01*
X1005661Y996267D01*
X1005709Y996311D01*
X1005731Y996353D01*
X1005760Y996390D01*
X1005781Y996452D01*
X1005812Y996511D01*
X1005820Y996565D01*
X1005832Y996602D01*
X1005831Y996642D01*
X1005839Y996696D01*
X1005839Y1002284D01*
X1005828Y1002349D01*
X1005826Y1002415D01*
X1005808Y1002458D01*
X1005800Y1002505D01*
X1005766Y1002562D01*
X1005741Y1002622D01*
X1005710Y1002657D01*
X1005685Y1002698D01*
X1005634Y1002740D01*
X1005590Y1002788D01*
X1005548Y1002810D01*
X1005511Y1002839D01*
X1005449Y1002860D01*
X1005390Y1002891D01*
X1005336Y1002899D01*
X1005299Y1002911D01*
X1005259Y1002910D01*
X1005205Y1002918D01*
X1001395Y1002918D01*
X1001330Y1002907D01*
X1001264Y1002905D01*
X1001221Y1002887D01*
X1001174Y1002879D01*
X1001117Y1002845D01*
X1001057Y1002820D01*
X1001022Y1002789D01*
X1000981Y1002764D01*
X1000940Y1002713D01*
X1000891Y1002669D01*
X1000869Y1002627D01*
X1000840Y1002590D01*
X1000819Y1002528D01*
X1000788Y1002469D01*
X1000780Y1002415D01*
X1000768Y1002378D01*
X1000769Y1002338D01*
X1000761Y1002284D01*
X1000761Y996696D01*
X1000772Y996631D01*
X1000774Y996565D01*
X1000792Y996522D01*
X1000800Y996475D01*
X1000834Y996418D01*
X1000859Y996358D01*
X1000890Y996323D01*
X1000915Y996282D01*
X1000966Y996241D01*
X1001010Y996192D01*
X1001052Y996170D01*
X1001089Y996141D01*
X1001151Y996120D01*
X1001210Y996089D01*
X1001264Y996081D01*
X1001301Y996069D01*
X1001341Y996070D01*
X1001395Y996062D01*
X1005205Y996062D01*
X1005270Y996073D01*
G37*
G36*
X238190Y996073D02*
X238190Y996073D01*
X238256Y996075D01*
X238299Y996093D01*
X238346Y996101D01*
X238403Y996135D01*
X238463Y996160D01*
X238498Y996191D01*
X238539Y996216D01*
X238581Y996267D01*
X238629Y996311D01*
X238651Y996353D01*
X238680Y996390D01*
X238701Y996452D01*
X238732Y996511D01*
X238740Y996565D01*
X238752Y996602D01*
X238751Y996642D01*
X238759Y996696D01*
X238759Y1002284D01*
X238748Y1002349D01*
X238746Y1002415D01*
X238728Y1002458D01*
X238720Y1002505D01*
X238686Y1002562D01*
X238661Y1002622D01*
X238630Y1002657D01*
X238605Y1002698D01*
X238554Y1002740D01*
X238510Y1002788D01*
X238468Y1002810D01*
X238431Y1002839D01*
X238369Y1002860D01*
X238310Y1002891D01*
X238256Y1002899D01*
X238219Y1002911D01*
X238179Y1002910D01*
X238125Y1002918D01*
X234315Y1002918D01*
X234250Y1002907D01*
X234184Y1002905D01*
X234141Y1002887D01*
X234094Y1002879D01*
X234037Y1002845D01*
X233977Y1002820D01*
X233942Y1002789D01*
X233901Y1002764D01*
X233860Y1002713D01*
X233811Y1002669D01*
X233789Y1002627D01*
X233760Y1002590D01*
X233739Y1002528D01*
X233708Y1002469D01*
X233700Y1002415D01*
X233688Y1002378D01*
X233689Y1002338D01*
X233681Y1002284D01*
X233681Y996696D01*
X233692Y996631D01*
X233694Y996565D01*
X233712Y996522D01*
X233720Y996475D01*
X233754Y996418D01*
X233779Y996358D01*
X233810Y996323D01*
X233835Y996282D01*
X233886Y996241D01*
X233930Y996192D01*
X233972Y996170D01*
X234009Y996141D01*
X234071Y996120D01*
X234130Y996089D01*
X234184Y996081D01*
X234221Y996069D01*
X234261Y996070D01*
X234315Y996062D01*
X238125Y996062D01*
X238190Y996073D01*
G37*
G36*
X238190Y140093D02*
X238190Y140093D01*
X238256Y140095D01*
X238299Y140113D01*
X238346Y140121D01*
X238403Y140155D01*
X238463Y140180D01*
X238498Y140211D01*
X238539Y140236D01*
X238581Y140287D01*
X238629Y140331D01*
X238651Y140373D01*
X238680Y140410D01*
X238701Y140472D01*
X238732Y140531D01*
X238740Y140585D01*
X238752Y140622D01*
X238751Y140662D01*
X238759Y140716D01*
X238759Y146304D01*
X238748Y146369D01*
X238746Y146435D01*
X238728Y146478D01*
X238720Y146525D01*
X238686Y146582D01*
X238661Y146642D01*
X238630Y146677D01*
X238605Y146718D01*
X238554Y146760D01*
X238510Y146808D01*
X238468Y146830D01*
X238431Y146859D01*
X238369Y146880D01*
X238310Y146911D01*
X238256Y146919D01*
X238219Y146931D01*
X238179Y146930D01*
X238125Y146938D01*
X234315Y146938D01*
X234250Y146927D01*
X234184Y146925D01*
X234141Y146907D01*
X234094Y146899D01*
X234037Y146865D01*
X233977Y146840D01*
X233942Y146809D01*
X233901Y146784D01*
X233860Y146733D01*
X233811Y146689D01*
X233789Y146647D01*
X233760Y146610D01*
X233739Y146548D01*
X233708Y146489D01*
X233700Y146435D01*
X233688Y146398D01*
X233689Y146358D01*
X233681Y146304D01*
X233681Y140716D01*
X233692Y140651D01*
X233694Y140585D01*
X233712Y140542D01*
X233720Y140495D01*
X233754Y140438D01*
X233779Y140378D01*
X233810Y140343D01*
X233835Y140302D01*
X233886Y140261D01*
X233930Y140212D01*
X233972Y140190D01*
X234009Y140161D01*
X234071Y140140D01*
X234130Y140109D01*
X234184Y140101D01*
X234221Y140089D01*
X234261Y140090D01*
X234315Y140082D01*
X238125Y140082D01*
X238190Y140093D01*
G37*
G36*
X1005270Y140093D02*
X1005270Y140093D01*
X1005336Y140095D01*
X1005379Y140113D01*
X1005426Y140121D01*
X1005483Y140155D01*
X1005543Y140180D01*
X1005578Y140211D01*
X1005619Y140236D01*
X1005661Y140287D01*
X1005709Y140331D01*
X1005731Y140373D01*
X1005760Y140410D01*
X1005781Y140472D01*
X1005812Y140531D01*
X1005820Y140585D01*
X1005832Y140622D01*
X1005831Y140662D01*
X1005839Y140716D01*
X1005839Y146304D01*
X1005828Y146369D01*
X1005826Y146435D01*
X1005808Y146478D01*
X1005800Y146525D01*
X1005766Y146582D01*
X1005741Y146642D01*
X1005710Y146677D01*
X1005685Y146718D01*
X1005634Y146760D01*
X1005590Y146808D01*
X1005548Y146830D01*
X1005511Y146859D01*
X1005449Y146880D01*
X1005390Y146911D01*
X1005336Y146919D01*
X1005299Y146931D01*
X1005259Y146930D01*
X1005205Y146938D01*
X1001395Y146938D01*
X1001330Y146927D01*
X1001264Y146925D01*
X1001221Y146907D01*
X1001174Y146899D01*
X1001117Y146865D01*
X1001057Y146840D01*
X1001022Y146809D01*
X1000981Y146784D01*
X1000940Y146733D01*
X1000891Y146689D01*
X1000869Y146647D01*
X1000840Y146610D01*
X1000819Y146548D01*
X1000788Y146489D01*
X1000780Y146435D01*
X1000768Y146398D01*
X1000769Y146358D01*
X1000761Y146304D01*
X1000761Y140716D01*
X1000772Y140651D01*
X1000774Y140585D01*
X1000792Y140542D01*
X1000800Y140495D01*
X1000834Y140438D01*
X1000859Y140378D01*
X1000890Y140343D01*
X1000915Y140302D01*
X1000966Y140261D01*
X1001010Y140212D01*
X1001052Y140190D01*
X1001089Y140161D01*
X1001151Y140140D01*
X1001210Y140109D01*
X1001264Y140101D01*
X1001301Y140089D01*
X1001341Y140090D01*
X1001395Y140082D01*
X1005205Y140082D01*
X1005270Y140093D01*
G37*
G36*
X1068135Y1376692D02*
X1068135Y1376692D01*
X1068201Y1376694D01*
X1068244Y1376712D01*
X1068291Y1376720D01*
X1068348Y1376754D01*
X1068408Y1376779D01*
X1068443Y1376810D01*
X1068484Y1376835D01*
X1068526Y1376886D01*
X1068574Y1376930D01*
X1068596Y1376972D01*
X1068625Y1377009D01*
X1068646Y1377071D01*
X1068677Y1377130D01*
X1068685Y1377184D01*
X1068697Y1377221D01*
X1068696Y1377261D01*
X1068704Y1377315D01*
X1068704Y1381125D01*
X1068693Y1381190D01*
X1068691Y1381256D01*
X1068673Y1381299D01*
X1068665Y1381346D01*
X1068631Y1381403D01*
X1068606Y1381463D01*
X1068575Y1381498D01*
X1068550Y1381539D01*
X1068499Y1381581D01*
X1068455Y1381629D01*
X1068413Y1381651D01*
X1068376Y1381680D01*
X1068314Y1381701D01*
X1068255Y1381732D01*
X1068201Y1381740D01*
X1068164Y1381752D01*
X1068124Y1381751D01*
X1068070Y1381759D01*
X1065530Y1381759D01*
X1065465Y1381748D01*
X1065399Y1381746D01*
X1065356Y1381728D01*
X1065309Y1381720D01*
X1065252Y1381686D01*
X1065192Y1381661D01*
X1065157Y1381630D01*
X1065116Y1381605D01*
X1065075Y1381554D01*
X1065026Y1381510D01*
X1065004Y1381468D01*
X1064975Y1381431D01*
X1064954Y1381369D01*
X1064923Y1381310D01*
X1064915Y1381256D01*
X1064903Y1381219D01*
X1064903Y1381215D01*
X1064903Y1381214D01*
X1064904Y1381179D01*
X1064896Y1381125D01*
X1064896Y1377315D01*
X1064907Y1377250D01*
X1064909Y1377184D01*
X1064927Y1377141D01*
X1064935Y1377094D01*
X1064969Y1377037D01*
X1064994Y1376977D01*
X1065025Y1376942D01*
X1065050Y1376901D01*
X1065101Y1376860D01*
X1065145Y1376811D01*
X1065187Y1376789D01*
X1065224Y1376760D01*
X1065286Y1376739D01*
X1065345Y1376708D01*
X1065399Y1376700D01*
X1065436Y1376688D01*
X1065476Y1376689D01*
X1065530Y1376681D01*
X1068070Y1376681D01*
X1068135Y1376692D01*
G37*
G36*
X301055Y1376692D02*
X301055Y1376692D01*
X301121Y1376694D01*
X301164Y1376712D01*
X301211Y1376720D01*
X301268Y1376754D01*
X301328Y1376779D01*
X301363Y1376810D01*
X301404Y1376835D01*
X301446Y1376886D01*
X301494Y1376930D01*
X301516Y1376972D01*
X301545Y1377009D01*
X301566Y1377071D01*
X301597Y1377130D01*
X301605Y1377184D01*
X301617Y1377221D01*
X301616Y1377261D01*
X301624Y1377315D01*
X301624Y1381125D01*
X301613Y1381190D01*
X301611Y1381256D01*
X301593Y1381299D01*
X301585Y1381346D01*
X301551Y1381403D01*
X301526Y1381463D01*
X301495Y1381498D01*
X301470Y1381539D01*
X301419Y1381581D01*
X301375Y1381629D01*
X301333Y1381651D01*
X301296Y1381680D01*
X301234Y1381701D01*
X301175Y1381732D01*
X301121Y1381740D01*
X301084Y1381752D01*
X301044Y1381751D01*
X300990Y1381759D01*
X298450Y1381759D01*
X298385Y1381748D01*
X298319Y1381746D01*
X298276Y1381728D01*
X298229Y1381720D01*
X298172Y1381686D01*
X298112Y1381661D01*
X298077Y1381630D01*
X298036Y1381605D01*
X297995Y1381554D01*
X297946Y1381510D01*
X297924Y1381468D01*
X297895Y1381431D01*
X297874Y1381369D01*
X297843Y1381310D01*
X297835Y1381256D01*
X297823Y1381219D01*
X297823Y1381215D01*
X297823Y1381214D01*
X297824Y1381179D01*
X297816Y1381125D01*
X297816Y1377315D01*
X297827Y1377250D01*
X297829Y1377184D01*
X297847Y1377141D01*
X297855Y1377094D01*
X297889Y1377037D01*
X297914Y1376977D01*
X297945Y1376942D01*
X297970Y1376901D01*
X298021Y1376860D01*
X298065Y1376811D01*
X298107Y1376789D01*
X298144Y1376760D01*
X298206Y1376739D01*
X298265Y1376708D01*
X298319Y1376700D01*
X298356Y1376688D01*
X298396Y1376689D01*
X298450Y1376681D01*
X300990Y1376681D01*
X301055Y1376692D01*
G37*
G36*
X1428815Y472452D02*
X1428815Y472452D01*
X1428881Y472454D01*
X1428924Y472472D01*
X1428971Y472480D01*
X1429028Y472514D01*
X1429088Y472539D01*
X1429123Y472570D01*
X1429164Y472595D01*
X1429206Y472646D01*
X1429254Y472690D01*
X1429276Y472732D01*
X1429305Y472769D01*
X1429326Y472831D01*
X1429357Y472890D01*
X1429365Y472944D01*
X1429377Y472981D01*
X1429376Y473021D01*
X1429384Y473075D01*
X1429384Y476885D01*
X1429373Y476950D01*
X1429371Y477016D01*
X1429353Y477059D01*
X1429345Y477106D01*
X1429311Y477163D01*
X1429286Y477223D01*
X1429255Y477258D01*
X1429230Y477299D01*
X1429179Y477341D01*
X1429135Y477389D01*
X1429093Y477411D01*
X1429056Y477440D01*
X1428994Y477461D01*
X1428935Y477492D01*
X1428881Y477500D01*
X1428844Y477512D01*
X1428804Y477511D01*
X1428750Y477519D01*
X1426210Y477519D01*
X1426145Y477508D01*
X1426079Y477506D01*
X1426036Y477488D01*
X1425989Y477480D01*
X1425932Y477446D01*
X1425872Y477421D01*
X1425837Y477390D01*
X1425796Y477365D01*
X1425755Y477314D01*
X1425706Y477270D01*
X1425684Y477228D01*
X1425655Y477191D01*
X1425634Y477129D01*
X1425603Y477070D01*
X1425595Y477016D01*
X1425583Y476979D01*
X1425583Y476975D01*
X1425583Y476974D01*
X1425584Y476939D01*
X1425576Y476885D01*
X1425576Y473075D01*
X1425587Y473010D01*
X1425589Y472944D01*
X1425607Y472901D01*
X1425615Y472854D01*
X1425649Y472797D01*
X1425674Y472737D01*
X1425705Y472702D01*
X1425730Y472661D01*
X1425781Y472620D01*
X1425825Y472571D01*
X1425867Y472549D01*
X1425904Y472520D01*
X1425966Y472499D01*
X1426025Y472468D01*
X1426079Y472460D01*
X1426116Y472448D01*
X1426156Y472449D01*
X1426210Y472441D01*
X1428750Y472441D01*
X1428815Y472452D01*
G37*
G36*
X661735Y472452D02*
X661735Y472452D01*
X661801Y472454D01*
X661844Y472472D01*
X661891Y472480D01*
X661948Y472514D01*
X662008Y472539D01*
X662043Y472570D01*
X662084Y472595D01*
X662126Y472646D01*
X662174Y472690D01*
X662196Y472732D01*
X662225Y472769D01*
X662246Y472831D01*
X662277Y472890D01*
X662285Y472944D01*
X662297Y472981D01*
X662296Y473021D01*
X662304Y473075D01*
X662304Y476885D01*
X662293Y476950D01*
X662291Y477016D01*
X662273Y477059D01*
X662265Y477106D01*
X662231Y477163D01*
X662206Y477223D01*
X662175Y477258D01*
X662150Y477299D01*
X662099Y477341D01*
X662055Y477389D01*
X662013Y477411D01*
X661976Y477440D01*
X661914Y477461D01*
X661855Y477492D01*
X661801Y477500D01*
X661764Y477512D01*
X661724Y477511D01*
X661670Y477519D01*
X659130Y477519D01*
X659065Y477508D01*
X658999Y477506D01*
X658956Y477488D01*
X658909Y477480D01*
X658852Y477446D01*
X658792Y477421D01*
X658757Y477390D01*
X658716Y477365D01*
X658675Y477314D01*
X658626Y477270D01*
X658604Y477228D01*
X658575Y477191D01*
X658554Y477129D01*
X658523Y477070D01*
X658515Y477016D01*
X658503Y476979D01*
X658503Y476975D01*
X658503Y476974D01*
X658504Y476939D01*
X658496Y476885D01*
X658496Y473075D01*
X658507Y473010D01*
X658509Y472944D01*
X658527Y472901D01*
X658535Y472854D01*
X658569Y472797D01*
X658594Y472737D01*
X658625Y472702D01*
X658650Y472661D01*
X658701Y472620D01*
X658745Y472571D01*
X658787Y472549D01*
X658824Y472520D01*
X658886Y472499D01*
X658945Y472468D01*
X658999Y472460D01*
X659036Y472448D01*
X659076Y472449D01*
X659130Y472441D01*
X661670Y472441D01*
X661735Y472452D01*
G37*
G36*
X1428815Y1328432D02*
X1428815Y1328432D01*
X1428881Y1328434D01*
X1428924Y1328452D01*
X1428971Y1328460D01*
X1429028Y1328494D01*
X1429088Y1328519D01*
X1429123Y1328550D01*
X1429164Y1328575D01*
X1429206Y1328626D01*
X1429254Y1328670D01*
X1429276Y1328712D01*
X1429305Y1328749D01*
X1429326Y1328811D01*
X1429357Y1328870D01*
X1429365Y1328924D01*
X1429377Y1328961D01*
X1429376Y1329001D01*
X1429384Y1329055D01*
X1429384Y1332865D01*
X1429373Y1332930D01*
X1429371Y1332996D01*
X1429353Y1333039D01*
X1429345Y1333086D01*
X1429311Y1333143D01*
X1429286Y1333203D01*
X1429255Y1333238D01*
X1429230Y1333279D01*
X1429179Y1333321D01*
X1429135Y1333369D01*
X1429093Y1333391D01*
X1429056Y1333420D01*
X1428994Y1333441D01*
X1428935Y1333472D01*
X1428881Y1333480D01*
X1428844Y1333492D01*
X1428804Y1333491D01*
X1428750Y1333499D01*
X1426210Y1333499D01*
X1426145Y1333488D01*
X1426079Y1333486D01*
X1426036Y1333468D01*
X1425989Y1333460D01*
X1425932Y1333426D01*
X1425872Y1333401D01*
X1425837Y1333370D01*
X1425796Y1333345D01*
X1425755Y1333294D01*
X1425706Y1333250D01*
X1425684Y1333208D01*
X1425655Y1333171D01*
X1425634Y1333109D01*
X1425603Y1333050D01*
X1425595Y1332996D01*
X1425583Y1332959D01*
X1425583Y1332955D01*
X1425583Y1332954D01*
X1425584Y1332919D01*
X1425576Y1332865D01*
X1425576Y1329055D01*
X1425587Y1328990D01*
X1425589Y1328924D01*
X1425607Y1328881D01*
X1425615Y1328834D01*
X1425649Y1328777D01*
X1425674Y1328717D01*
X1425705Y1328682D01*
X1425730Y1328641D01*
X1425781Y1328600D01*
X1425825Y1328551D01*
X1425867Y1328529D01*
X1425904Y1328500D01*
X1425966Y1328479D01*
X1426025Y1328448D01*
X1426079Y1328440D01*
X1426116Y1328428D01*
X1426156Y1328429D01*
X1426210Y1328421D01*
X1428750Y1328421D01*
X1428815Y1328432D01*
G37*
G36*
X661735Y1328432D02*
X661735Y1328432D01*
X661801Y1328434D01*
X661844Y1328452D01*
X661891Y1328460D01*
X661948Y1328494D01*
X662008Y1328519D01*
X662043Y1328550D01*
X662084Y1328575D01*
X662126Y1328626D01*
X662174Y1328670D01*
X662196Y1328712D01*
X662225Y1328749D01*
X662246Y1328811D01*
X662277Y1328870D01*
X662285Y1328924D01*
X662297Y1328961D01*
X662296Y1329001D01*
X662304Y1329055D01*
X662304Y1332865D01*
X662293Y1332930D01*
X662291Y1332996D01*
X662273Y1333039D01*
X662265Y1333086D01*
X662231Y1333143D01*
X662206Y1333203D01*
X662175Y1333238D01*
X662150Y1333279D01*
X662099Y1333321D01*
X662055Y1333369D01*
X662013Y1333391D01*
X661976Y1333420D01*
X661914Y1333441D01*
X661855Y1333472D01*
X661801Y1333480D01*
X661764Y1333492D01*
X661724Y1333491D01*
X661670Y1333499D01*
X659130Y1333499D01*
X659065Y1333488D01*
X658999Y1333486D01*
X658956Y1333468D01*
X658909Y1333460D01*
X658852Y1333426D01*
X658792Y1333401D01*
X658757Y1333370D01*
X658716Y1333345D01*
X658675Y1333294D01*
X658626Y1333250D01*
X658604Y1333208D01*
X658575Y1333171D01*
X658554Y1333109D01*
X658523Y1333050D01*
X658515Y1332996D01*
X658503Y1332959D01*
X658503Y1332955D01*
X658503Y1332954D01*
X658504Y1332919D01*
X658496Y1332865D01*
X658496Y1329055D01*
X658507Y1328990D01*
X658509Y1328924D01*
X658527Y1328881D01*
X658535Y1328834D01*
X658569Y1328777D01*
X658594Y1328717D01*
X658625Y1328682D01*
X658650Y1328641D01*
X658701Y1328600D01*
X658745Y1328551D01*
X658787Y1328529D01*
X658824Y1328500D01*
X658886Y1328479D01*
X658945Y1328448D01*
X658999Y1328440D01*
X659036Y1328428D01*
X659076Y1328429D01*
X659130Y1328421D01*
X661670Y1328421D01*
X661735Y1328432D01*
G37*
G36*
X661735Y1318272D02*
X661735Y1318272D01*
X661801Y1318274D01*
X661844Y1318292D01*
X661891Y1318300D01*
X661948Y1318334D01*
X662008Y1318359D01*
X662043Y1318390D01*
X662084Y1318415D01*
X662126Y1318466D01*
X662174Y1318510D01*
X662196Y1318552D01*
X662225Y1318589D01*
X662246Y1318651D01*
X662277Y1318710D01*
X662285Y1318764D01*
X662297Y1318801D01*
X662296Y1318841D01*
X662304Y1318895D01*
X662304Y1322705D01*
X662293Y1322770D01*
X662291Y1322836D01*
X662273Y1322879D01*
X662265Y1322926D01*
X662231Y1322983D01*
X662206Y1323043D01*
X662175Y1323078D01*
X662150Y1323119D01*
X662099Y1323161D01*
X662055Y1323209D01*
X662013Y1323231D01*
X661976Y1323260D01*
X661914Y1323281D01*
X661855Y1323312D01*
X661801Y1323320D01*
X661764Y1323332D01*
X661724Y1323331D01*
X661670Y1323339D01*
X659130Y1323339D01*
X659065Y1323328D01*
X658999Y1323326D01*
X658956Y1323308D01*
X658909Y1323300D01*
X658852Y1323266D01*
X658792Y1323241D01*
X658757Y1323210D01*
X658716Y1323185D01*
X658675Y1323134D01*
X658626Y1323090D01*
X658604Y1323048D01*
X658575Y1323011D01*
X658554Y1322949D01*
X658523Y1322890D01*
X658515Y1322836D01*
X658503Y1322799D01*
X658503Y1322795D01*
X658503Y1322794D01*
X658504Y1322759D01*
X658496Y1322705D01*
X658496Y1318895D01*
X658507Y1318830D01*
X658509Y1318764D01*
X658527Y1318721D01*
X658535Y1318674D01*
X658569Y1318617D01*
X658594Y1318557D01*
X658625Y1318522D01*
X658650Y1318481D01*
X658701Y1318440D01*
X658745Y1318391D01*
X658787Y1318369D01*
X658824Y1318340D01*
X658886Y1318319D01*
X658945Y1318288D01*
X658999Y1318280D01*
X659036Y1318268D01*
X659076Y1318269D01*
X659130Y1318261D01*
X661670Y1318261D01*
X661735Y1318272D01*
G37*
G36*
X1428815Y1318272D02*
X1428815Y1318272D01*
X1428881Y1318274D01*
X1428924Y1318292D01*
X1428971Y1318300D01*
X1429028Y1318334D01*
X1429088Y1318359D01*
X1429123Y1318390D01*
X1429164Y1318415D01*
X1429206Y1318466D01*
X1429254Y1318510D01*
X1429276Y1318552D01*
X1429305Y1318589D01*
X1429326Y1318651D01*
X1429357Y1318710D01*
X1429365Y1318764D01*
X1429377Y1318801D01*
X1429376Y1318841D01*
X1429384Y1318895D01*
X1429384Y1322705D01*
X1429373Y1322770D01*
X1429371Y1322836D01*
X1429353Y1322879D01*
X1429345Y1322926D01*
X1429311Y1322983D01*
X1429286Y1323043D01*
X1429255Y1323078D01*
X1429230Y1323119D01*
X1429179Y1323161D01*
X1429135Y1323209D01*
X1429093Y1323231D01*
X1429056Y1323260D01*
X1428994Y1323281D01*
X1428935Y1323312D01*
X1428881Y1323320D01*
X1428844Y1323332D01*
X1428804Y1323331D01*
X1428750Y1323339D01*
X1426210Y1323339D01*
X1426145Y1323328D01*
X1426079Y1323326D01*
X1426036Y1323308D01*
X1425989Y1323300D01*
X1425932Y1323266D01*
X1425872Y1323241D01*
X1425837Y1323210D01*
X1425796Y1323185D01*
X1425755Y1323134D01*
X1425706Y1323090D01*
X1425684Y1323048D01*
X1425655Y1323011D01*
X1425634Y1322949D01*
X1425603Y1322890D01*
X1425595Y1322836D01*
X1425583Y1322799D01*
X1425583Y1322795D01*
X1425583Y1322794D01*
X1425584Y1322759D01*
X1425576Y1322705D01*
X1425576Y1318895D01*
X1425587Y1318830D01*
X1425589Y1318764D01*
X1425607Y1318721D01*
X1425615Y1318674D01*
X1425649Y1318617D01*
X1425674Y1318557D01*
X1425705Y1318522D01*
X1425730Y1318481D01*
X1425781Y1318440D01*
X1425825Y1318391D01*
X1425867Y1318369D01*
X1425904Y1318340D01*
X1425966Y1318319D01*
X1426025Y1318288D01*
X1426079Y1318280D01*
X1426116Y1318268D01*
X1426156Y1318269D01*
X1426210Y1318261D01*
X1428750Y1318261D01*
X1428815Y1318272D01*
G37*
G36*
X566485Y1254772D02*
X566485Y1254772D01*
X566551Y1254774D01*
X566594Y1254792D01*
X566641Y1254800D01*
X566698Y1254834D01*
X566758Y1254859D01*
X566793Y1254890D01*
X566834Y1254915D01*
X566876Y1254966D01*
X566924Y1255010D01*
X566946Y1255052D01*
X566975Y1255089D01*
X566996Y1255151D01*
X567027Y1255210D01*
X567035Y1255264D01*
X567047Y1255301D01*
X567046Y1255341D01*
X567054Y1255395D01*
X567054Y1259205D01*
X567043Y1259270D01*
X567041Y1259336D01*
X567023Y1259379D01*
X567015Y1259426D01*
X566981Y1259483D01*
X566956Y1259543D01*
X566925Y1259578D01*
X566900Y1259619D01*
X566849Y1259661D01*
X566805Y1259709D01*
X566763Y1259731D01*
X566726Y1259760D01*
X566664Y1259781D01*
X566605Y1259812D01*
X566551Y1259820D01*
X566514Y1259832D01*
X566474Y1259831D01*
X566420Y1259839D01*
X563880Y1259839D01*
X563815Y1259828D01*
X563749Y1259826D01*
X563706Y1259808D01*
X563659Y1259800D01*
X563602Y1259766D01*
X563542Y1259741D01*
X563507Y1259710D01*
X563466Y1259685D01*
X563425Y1259634D01*
X563376Y1259590D01*
X563354Y1259548D01*
X563325Y1259511D01*
X563304Y1259449D01*
X563273Y1259390D01*
X563265Y1259336D01*
X563253Y1259299D01*
X563253Y1259295D01*
X563253Y1259294D01*
X563254Y1259259D01*
X563246Y1259205D01*
X563246Y1255395D01*
X563257Y1255330D01*
X563259Y1255264D01*
X563277Y1255221D01*
X563285Y1255174D01*
X563319Y1255117D01*
X563344Y1255057D01*
X563375Y1255022D01*
X563400Y1254981D01*
X563451Y1254940D01*
X563495Y1254891D01*
X563537Y1254869D01*
X563574Y1254840D01*
X563636Y1254819D01*
X563695Y1254788D01*
X563749Y1254780D01*
X563786Y1254768D01*
X563826Y1254769D01*
X563880Y1254761D01*
X566420Y1254761D01*
X566485Y1254772D01*
G37*
G36*
X1428815Y462292D02*
X1428815Y462292D01*
X1428881Y462294D01*
X1428924Y462312D01*
X1428971Y462320D01*
X1429028Y462354D01*
X1429088Y462379D01*
X1429123Y462410D01*
X1429164Y462435D01*
X1429206Y462486D01*
X1429254Y462530D01*
X1429276Y462572D01*
X1429305Y462609D01*
X1429326Y462671D01*
X1429357Y462730D01*
X1429365Y462784D01*
X1429377Y462821D01*
X1429376Y462861D01*
X1429384Y462915D01*
X1429384Y466725D01*
X1429373Y466790D01*
X1429371Y466856D01*
X1429353Y466899D01*
X1429345Y466946D01*
X1429311Y467003D01*
X1429286Y467063D01*
X1429255Y467098D01*
X1429230Y467139D01*
X1429179Y467181D01*
X1429135Y467229D01*
X1429093Y467251D01*
X1429056Y467280D01*
X1428994Y467301D01*
X1428935Y467332D01*
X1428881Y467340D01*
X1428844Y467352D01*
X1428804Y467351D01*
X1428750Y467359D01*
X1426210Y467359D01*
X1426145Y467348D01*
X1426079Y467346D01*
X1426036Y467328D01*
X1425989Y467320D01*
X1425932Y467286D01*
X1425872Y467261D01*
X1425837Y467230D01*
X1425796Y467205D01*
X1425755Y467154D01*
X1425706Y467110D01*
X1425684Y467068D01*
X1425655Y467031D01*
X1425634Y466969D01*
X1425603Y466910D01*
X1425595Y466856D01*
X1425583Y466819D01*
X1425583Y466815D01*
X1425583Y466814D01*
X1425584Y466779D01*
X1425576Y466725D01*
X1425576Y462915D01*
X1425587Y462850D01*
X1425589Y462784D01*
X1425607Y462741D01*
X1425615Y462694D01*
X1425649Y462637D01*
X1425674Y462577D01*
X1425705Y462542D01*
X1425730Y462501D01*
X1425781Y462460D01*
X1425825Y462411D01*
X1425867Y462389D01*
X1425904Y462360D01*
X1425966Y462339D01*
X1426025Y462308D01*
X1426079Y462300D01*
X1426116Y462288D01*
X1426156Y462289D01*
X1426210Y462281D01*
X1428750Y462281D01*
X1428815Y462292D01*
G37*
G36*
X661735Y462292D02*
X661735Y462292D01*
X661801Y462294D01*
X661844Y462312D01*
X661891Y462320D01*
X661948Y462354D01*
X662008Y462379D01*
X662043Y462410D01*
X662084Y462435D01*
X662126Y462486D01*
X662174Y462530D01*
X662196Y462572D01*
X662225Y462609D01*
X662246Y462671D01*
X662277Y462730D01*
X662285Y462784D01*
X662297Y462821D01*
X662296Y462861D01*
X662304Y462915D01*
X662304Y466725D01*
X662293Y466790D01*
X662291Y466856D01*
X662273Y466899D01*
X662265Y466946D01*
X662231Y467003D01*
X662206Y467063D01*
X662175Y467098D01*
X662150Y467139D01*
X662099Y467181D01*
X662055Y467229D01*
X662013Y467251D01*
X661976Y467280D01*
X661914Y467301D01*
X661855Y467332D01*
X661801Y467340D01*
X661764Y467352D01*
X661724Y467351D01*
X661670Y467359D01*
X659130Y467359D01*
X659065Y467348D01*
X658999Y467346D01*
X658956Y467328D01*
X658909Y467320D01*
X658852Y467286D01*
X658792Y467261D01*
X658757Y467230D01*
X658716Y467205D01*
X658675Y467154D01*
X658626Y467110D01*
X658604Y467068D01*
X658575Y467031D01*
X658554Y466969D01*
X658523Y466910D01*
X658515Y466856D01*
X658503Y466819D01*
X658503Y466815D01*
X658503Y466814D01*
X658504Y466779D01*
X658496Y466725D01*
X658496Y462915D01*
X658507Y462850D01*
X658509Y462784D01*
X658527Y462741D01*
X658535Y462694D01*
X658569Y462637D01*
X658594Y462577D01*
X658625Y462542D01*
X658650Y462501D01*
X658701Y462460D01*
X658745Y462411D01*
X658787Y462389D01*
X658824Y462360D01*
X658886Y462339D01*
X658945Y462308D01*
X658999Y462300D01*
X659036Y462288D01*
X659076Y462289D01*
X659130Y462281D01*
X661670Y462281D01*
X661735Y462292D01*
G37*
G36*
X629985Y398792D02*
X629985Y398792D01*
X630051Y398794D01*
X630094Y398812D01*
X630141Y398820D01*
X630198Y398854D01*
X630258Y398879D01*
X630293Y398910D01*
X630334Y398935D01*
X630376Y398986D01*
X630424Y399030D01*
X630446Y399072D01*
X630475Y399109D01*
X630496Y399171D01*
X630527Y399230D01*
X630535Y399284D01*
X630547Y399321D01*
X630546Y399361D01*
X630554Y399415D01*
X630554Y403225D01*
X630543Y403290D01*
X630541Y403356D01*
X630523Y403399D01*
X630515Y403446D01*
X630481Y403503D01*
X630456Y403563D01*
X630425Y403598D01*
X630400Y403639D01*
X630349Y403681D01*
X630305Y403729D01*
X630263Y403751D01*
X630226Y403780D01*
X630164Y403801D01*
X630105Y403832D01*
X630051Y403840D01*
X630014Y403852D01*
X629974Y403851D01*
X629920Y403859D01*
X627380Y403859D01*
X627315Y403848D01*
X627249Y403846D01*
X627206Y403828D01*
X627159Y403820D01*
X627102Y403786D01*
X627042Y403761D01*
X627007Y403730D01*
X626966Y403705D01*
X626925Y403654D01*
X626876Y403610D01*
X626854Y403568D01*
X626825Y403531D01*
X626804Y403469D01*
X626773Y403410D01*
X626765Y403356D01*
X626753Y403319D01*
X626753Y403315D01*
X626753Y403314D01*
X626754Y403279D01*
X626746Y403225D01*
X626746Y399415D01*
X626757Y399350D01*
X626759Y399284D01*
X626777Y399241D01*
X626785Y399194D01*
X626819Y399137D01*
X626844Y399077D01*
X626875Y399042D01*
X626900Y399001D01*
X626951Y398960D01*
X626995Y398911D01*
X627037Y398889D01*
X627074Y398860D01*
X627136Y398839D01*
X627195Y398808D01*
X627249Y398800D01*
X627286Y398788D01*
X627326Y398789D01*
X627380Y398781D01*
X629920Y398781D01*
X629985Y398792D01*
G37*
G36*
X1333565Y398792D02*
X1333565Y398792D01*
X1333631Y398794D01*
X1333674Y398812D01*
X1333721Y398820D01*
X1333778Y398854D01*
X1333838Y398879D01*
X1333873Y398910D01*
X1333914Y398935D01*
X1333956Y398986D01*
X1334004Y399030D01*
X1334026Y399072D01*
X1334055Y399109D01*
X1334076Y399171D01*
X1334107Y399230D01*
X1334115Y399284D01*
X1334127Y399321D01*
X1334126Y399361D01*
X1334134Y399415D01*
X1334134Y403225D01*
X1334123Y403290D01*
X1334121Y403356D01*
X1334103Y403399D01*
X1334095Y403446D01*
X1334061Y403503D01*
X1334036Y403563D01*
X1334005Y403598D01*
X1333980Y403639D01*
X1333929Y403681D01*
X1333885Y403729D01*
X1333843Y403751D01*
X1333806Y403780D01*
X1333744Y403801D01*
X1333685Y403832D01*
X1333631Y403840D01*
X1333594Y403852D01*
X1333554Y403851D01*
X1333500Y403859D01*
X1330960Y403859D01*
X1330895Y403848D01*
X1330829Y403846D01*
X1330786Y403828D01*
X1330739Y403820D01*
X1330682Y403786D01*
X1330622Y403761D01*
X1330587Y403730D01*
X1330546Y403705D01*
X1330505Y403654D01*
X1330456Y403610D01*
X1330434Y403568D01*
X1330405Y403531D01*
X1330384Y403469D01*
X1330353Y403410D01*
X1330345Y403356D01*
X1330333Y403319D01*
X1330333Y403315D01*
X1330333Y403314D01*
X1330334Y403279D01*
X1330326Y403225D01*
X1330326Y399415D01*
X1330337Y399350D01*
X1330339Y399284D01*
X1330357Y399241D01*
X1330365Y399194D01*
X1330399Y399137D01*
X1330424Y399077D01*
X1330455Y399042D01*
X1330480Y399001D01*
X1330531Y398960D01*
X1330575Y398911D01*
X1330617Y398889D01*
X1330654Y398860D01*
X1330716Y398839D01*
X1330775Y398808D01*
X1330829Y398800D01*
X1330866Y398788D01*
X1330906Y398789D01*
X1330960Y398781D01*
X1333500Y398781D01*
X1333565Y398792D01*
G37*
G36*
X1397065Y398792D02*
X1397065Y398792D01*
X1397131Y398794D01*
X1397174Y398812D01*
X1397221Y398820D01*
X1397278Y398854D01*
X1397338Y398879D01*
X1397373Y398910D01*
X1397414Y398935D01*
X1397456Y398986D01*
X1397504Y399030D01*
X1397526Y399072D01*
X1397555Y399109D01*
X1397576Y399171D01*
X1397607Y399230D01*
X1397615Y399284D01*
X1397627Y399321D01*
X1397626Y399361D01*
X1397634Y399415D01*
X1397634Y403225D01*
X1397623Y403290D01*
X1397621Y403356D01*
X1397603Y403399D01*
X1397595Y403446D01*
X1397561Y403503D01*
X1397536Y403563D01*
X1397505Y403598D01*
X1397480Y403639D01*
X1397429Y403681D01*
X1397385Y403729D01*
X1397343Y403751D01*
X1397306Y403780D01*
X1397244Y403801D01*
X1397185Y403832D01*
X1397131Y403840D01*
X1397094Y403852D01*
X1397054Y403851D01*
X1397000Y403859D01*
X1394460Y403859D01*
X1394395Y403848D01*
X1394329Y403846D01*
X1394286Y403828D01*
X1394239Y403820D01*
X1394182Y403786D01*
X1394122Y403761D01*
X1394087Y403730D01*
X1394046Y403705D01*
X1394005Y403654D01*
X1393956Y403610D01*
X1393934Y403568D01*
X1393905Y403531D01*
X1393884Y403469D01*
X1393853Y403410D01*
X1393845Y403356D01*
X1393833Y403319D01*
X1393833Y403315D01*
X1393833Y403314D01*
X1393834Y403279D01*
X1393826Y403225D01*
X1393826Y399415D01*
X1393837Y399350D01*
X1393839Y399284D01*
X1393857Y399241D01*
X1393865Y399194D01*
X1393899Y399137D01*
X1393924Y399077D01*
X1393955Y399042D01*
X1393980Y399001D01*
X1394031Y398960D01*
X1394075Y398911D01*
X1394117Y398889D01*
X1394154Y398860D01*
X1394216Y398839D01*
X1394275Y398808D01*
X1394329Y398800D01*
X1394366Y398788D01*
X1394406Y398789D01*
X1394460Y398781D01*
X1397000Y398781D01*
X1397065Y398792D01*
G37*
G36*
X1397065Y1254772D02*
X1397065Y1254772D01*
X1397131Y1254774D01*
X1397174Y1254792D01*
X1397221Y1254800D01*
X1397278Y1254834D01*
X1397338Y1254859D01*
X1397373Y1254890D01*
X1397414Y1254915D01*
X1397456Y1254966D01*
X1397504Y1255010D01*
X1397526Y1255052D01*
X1397555Y1255089D01*
X1397576Y1255151D01*
X1397607Y1255210D01*
X1397615Y1255264D01*
X1397627Y1255301D01*
X1397626Y1255341D01*
X1397634Y1255395D01*
X1397634Y1259205D01*
X1397623Y1259270D01*
X1397621Y1259336D01*
X1397603Y1259379D01*
X1397595Y1259426D01*
X1397561Y1259483D01*
X1397536Y1259543D01*
X1397505Y1259578D01*
X1397480Y1259619D01*
X1397429Y1259661D01*
X1397385Y1259709D01*
X1397343Y1259731D01*
X1397306Y1259760D01*
X1397244Y1259781D01*
X1397185Y1259812D01*
X1397131Y1259820D01*
X1397094Y1259832D01*
X1397054Y1259831D01*
X1397000Y1259839D01*
X1394460Y1259839D01*
X1394395Y1259828D01*
X1394329Y1259826D01*
X1394286Y1259808D01*
X1394239Y1259800D01*
X1394182Y1259766D01*
X1394122Y1259741D01*
X1394087Y1259710D01*
X1394046Y1259685D01*
X1394005Y1259634D01*
X1393956Y1259590D01*
X1393934Y1259548D01*
X1393905Y1259511D01*
X1393884Y1259449D01*
X1393853Y1259390D01*
X1393845Y1259336D01*
X1393833Y1259299D01*
X1393833Y1259295D01*
X1393833Y1259294D01*
X1393834Y1259259D01*
X1393826Y1259205D01*
X1393826Y1255395D01*
X1393837Y1255330D01*
X1393839Y1255264D01*
X1393857Y1255221D01*
X1393865Y1255174D01*
X1393899Y1255117D01*
X1393924Y1255057D01*
X1393955Y1255022D01*
X1393980Y1254981D01*
X1394031Y1254940D01*
X1394075Y1254891D01*
X1394117Y1254869D01*
X1394154Y1254840D01*
X1394216Y1254819D01*
X1394275Y1254788D01*
X1394329Y1254780D01*
X1394366Y1254768D01*
X1394406Y1254769D01*
X1394460Y1254761D01*
X1397000Y1254761D01*
X1397065Y1254772D01*
G37*
G36*
X1333565Y1254772D02*
X1333565Y1254772D01*
X1333631Y1254774D01*
X1333674Y1254792D01*
X1333721Y1254800D01*
X1333778Y1254834D01*
X1333838Y1254859D01*
X1333873Y1254890D01*
X1333914Y1254915D01*
X1333956Y1254966D01*
X1334004Y1255010D01*
X1334026Y1255052D01*
X1334055Y1255089D01*
X1334076Y1255151D01*
X1334107Y1255210D01*
X1334115Y1255264D01*
X1334127Y1255301D01*
X1334126Y1255341D01*
X1334134Y1255395D01*
X1334134Y1259205D01*
X1334123Y1259270D01*
X1334121Y1259336D01*
X1334103Y1259379D01*
X1334095Y1259426D01*
X1334061Y1259483D01*
X1334036Y1259543D01*
X1334005Y1259578D01*
X1333980Y1259619D01*
X1333929Y1259661D01*
X1333885Y1259709D01*
X1333843Y1259731D01*
X1333806Y1259760D01*
X1333744Y1259781D01*
X1333685Y1259812D01*
X1333631Y1259820D01*
X1333594Y1259832D01*
X1333554Y1259831D01*
X1333500Y1259839D01*
X1330960Y1259839D01*
X1330895Y1259828D01*
X1330829Y1259826D01*
X1330786Y1259808D01*
X1330739Y1259800D01*
X1330682Y1259766D01*
X1330622Y1259741D01*
X1330587Y1259710D01*
X1330546Y1259685D01*
X1330505Y1259634D01*
X1330456Y1259590D01*
X1330434Y1259548D01*
X1330405Y1259511D01*
X1330384Y1259449D01*
X1330353Y1259390D01*
X1330345Y1259336D01*
X1330333Y1259299D01*
X1330333Y1259295D01*
X1330333Y1259294D01*
X1330334Y1259259D01*
X1330326Y1259205D01*
X1330326Y1255395D01*
X1330337Y1255330D01*
X1330339Y1255264D01*
X1330357Y1255221D01*
X1330365Y1255174D01*
X1330399Y1255117D01*
X1330424Y1255057D01*
X1330455Y1255022D01*
X1330480Y1254981D01*
X1330531Y1254940D01*
X1330575Y1254891D01*
X1330617Y1254869D01*
X1330654Y1254840D01*
X1330716Y1254819D01*
X1330775Y1254788D01*
X1330829Y1254780D01*
X1330866Y1254768D01*
X1330906Y1254769D01*
X1330960Y1254761D01*
X1333500Y1254761D01*
X1333565Y1254772D01*
G37*
G36*
X566485Y398792D02*
X566485Y398792D01*
X566551Y398794D01*
X566594Y398812D01*
X566641Y398820D01*
X566698Y398854D01*
X566758Y398879D01*
X566793Y398910D01*
X566834Y398935D01*
X566876Y398986D01*
X566924Y399030D01*
X566946Y399072D01*
X566975Y399109D01*
X566996Y399171D01*
X567027Y399230D01*
X567035Y399284D01*
X567047Y399321D01*
X567046Y399361D01*
X567054Y399415D01*
X567054Y403225D01*
X567043Y403290D01*
X567041Y403356D01*
X567023Y403399D01*
X567015Y403446D01*
X566981Y403503D01*
X566956Y403563D01*
X566925Y403598D01*
X566900Y403639D01*
X566849Y403681D01*
X566805Y403729D01*
X566763Y403751D01*
X566726Y403780D01*
X566664Y403801D01*
X566605Y403832D01*
X566551Y403840D01*
X566514Y403852D01*
X566474Y403851D01*
X566420Y403859D01*
X563880Y403859D01*
X563815Y403848D01*
X563749Y403846D01*
X563706Y403828D01*
X563659Y403820D01*
X563602Y403786D01*
X563542Y403761D01*
X563507Y403730D01*
X563466Y403705D01*
X563425Y403654D01*
X563376Y403610D01*
X563354Y403568D01*
X563325Y403531D01*
X563304Y403469D01*
X563273Y403410D01*
X563265Y403356D01*
X563253Y403319D01*
X563253Y403315D01*
X563253Y403314D01*
X563254Y403279D01*
X563246Y403225D01*
X563246Y399415D01*
X563257Y399350D01*
X563259Y399284D01*
X563277Y399241D01*
X563285Y399194D01*
X563319Y399137D01*
X563344Y399077D01*
X563375Y399042D01*
X563400Y399001D01*
X563451Y398960D01*
X563495Y398911D01*
X563537Y398889D01*
X563574Y398860D01*
X563636Y398839D01*
X563695Y398808D01*
X563749Y398800D01*
X563786Y398788D01*
X563826Y398789D01*
X563880Y398781D01*
X566420Y398781D01*
X566485Y398792D01*
G37*
G36*
X629985Y1254772D02*
X629985Y1254772D01*
X630051Y1254774D01*
X630094Y1254792D01*
X630141Y1254800D01*
X630198Y1254834D01*
X630258Y1254859D01*
X630293Y1254890D01*
X630334Y1254915D01*
X630376Y1254966D01*
X630424Y1255010D01*
X630446Y1255052D01*
X630475Y1255089D01*
X630496Y1255151D01*
X630527Y1255210D01*
X630535Y1255264D01*
X630547Y1255301D01*
X630546Y1255341D01*
X630554Y1255395D01*
X630554Y1259205D01*
X630543Y1259270D01*
X630541Y1259336D01*
X630523Y1259379D01*
X630515Y1259426D01*
X630481Y1259483D01*
X630456Y1259543D01*
X630425Y1259578D01*
X630400Y1259619D01*
X630349Y1259661D01*
X630305Y1259709D01*
X630263Y1259731D01*
X630226Y1259760D01*
X630164Y1259781D01*
X630105Y1259812D01*
X630051Y1259820D01*
X630014Y1259832D01*
X629974Y1259831D01*
X629920Y1259839D01*
X627380Y1259839D01*
X627315Y1259828D01*
X627249Y1259826D01*
X627206Y1259808D01*
X627159Y1259800D01*
X627102Y1259766D01*
X627042Y1259741D01*
X627007Y1259710D01*
X626966Y1259685D01*
X626925Y1259634D01*
X626876Y1259590D01*
X626854Y1259548D01*
X626825Y1259511D01*
X626804Y1259449D01*
X626773Y1259390D01*
X626765Y1259336D01*
X626753Y1259299D01*
X626753Y1259295D01*
X626753Y1259294D01*
X626754Y1259259D01*
X626746Y1259205D01*
X626746Y1255395D01*
X626757Y1255330D01*
X626759Y1255264D01*
X626777Y1255221D01*
X626785Y1255174D01*
X626819Y1255117D01*
X626844Y1255057D01*
X626875Y1255022D01*
X626900Y1254981D01*
X626951Y1254940D01*
X626995Y1254891D01*
X627037Y1254869D01*
X627074Y1254840D01*
X627136Y1254819D01*
X627195Y1254788D01*
X627249Y1254780D01*
X627286Y1254768D01*
X627326Y1254769D01*
X627380Y1254761D01*
X629920Y1254761D01*
X629985Y1254772D01*
G37*
G36*
X687135Y106692D02*
X687135Y106692D01*
X687201Y106694D01*
X687244Y106712D01*
X687291Y106720D01*
X687348Y106754D01*
X687408Y106779D01*
X687443Y106810D01*
X687484Y106835D01*
X687526Y106886D01*
X687574Y106930D01*
X687596Y106972D01*
X687625Y107009D01*
X687646Y107071D01*
X687677Y107130D01*
X687685Y107184D01*
X687697Y107221D01*
X687696Y107261D01*
X687704Y107315D01*
X687704Y111125D01*
X687693Y111190D01*
X687691Y111256D01*
X687673Y111299D01*
X687665Y111346D01*
X687631Y111403D01*
X687606Y111463D01*
X687575Y111498D01*
X687550Y111539D01*
X687499Y111581D01*
X687455Y111629D01*
X687413Y111651D01*
X687376Y111680D01*
X687314Y111701D01*
X687255Y111732D01*
X687201Y111740D01*
X687164Y111752D01*
X687124Y111751D01*
X687070Y111759D01*
X684530Y111759D01*
X684465Y111748D01*
X684399Y111746D01*
X684356Y111728D01*
X684309Y111720D01*
X684252Y111686D01*
X684192Y111661D01*
X684157Y111630D01*
X684116Y111605D01*
X684075Y111554D01*
X684026Y111510D01*
X684004Y111468D01*
X683975Y111431D01*
X683954Y111369D01*
X683923Y111310D01*
X683915Y111256D01*
X683903Y111219D01*
X683903Y111215D01*
X683903Y111214D01*
X683904Y111179D01*
X683896Y111125D01*
X683896Y107315D01*
X683907Y107250D01*
X683909Y107184D01*
X683927Y107141D01*
X683935Y107094D01*
X683969Y107037D01*
X683994Y106977D01*
X684025Y106942D01*
X684050Y106901D01*
X684101Y106860D01*
X684145Y106811D01*
X684187Y106789D01*
X684224Y106760D01*
X684286Y106739D01*
X684345Y106708D01*
X684399Y106700D01*
X684436Y106688D01*
X684476Y106689D01*
X684530Y106681D01*
X687070Y106681D01*
X687135Y106692D01*
G37*
G36*
X933197Y143840D02*
X933197Y143840D01*
X933263Y143842D01*
X933307Y143860D01*
X933353Y143868D01*
X933410Y143901D01*
X933471Y143926D01*
X933506Y143958D01*
X933547Y143982D01*
X933588Y144033D01*
X933637Y144078D01*
X933658Y144120D01*
X933688Y144156D01*
X933709Y144219D01*
X933739Y144277D01*
X933747Y144332D01*
X933760Y144369D01*
X933759Y144408D01*
X933767Y144463D01*
X933767Y148273D01*
X933755Y148337D01*
X933753Y148403D01*
X933735Y148447D01*
X933727Y148493D01*
X933694Y148550D01*
X933669Y148611D01*
X933637Y148646D01*
X933613Y148687D01*
X933562Y148728D01*
X933517Y148777D01*
X933475Y148798D01*
X933439Y148828D01*
X933377Y148849D01*
X933318Y148879D01*
X933263Y148887D01*
X933226Y148900D01*
X933187Y148899D01*
X933133Y148907D01*
X930593Y148907D01*
X930528Y148895D01*
X930462Y148893D01*
X930418Y148875D01*
X930372Y148867D01*
X930315Y148834D01*
X930254Y148809D01*
X930219Y148777D01*
X930178Y148753D01*
X930137Y148702D01*
X930088Y148657D01*
X930067Y148615D01*
X930037Y148579D01*
X930016Y148517D01*
X929986Y148458D01*
X929978Y148403D01*
X929965Y148366D01*
X929965Y148362D01*
X929966Y148326D01*
X929958Y148273D01*
X929958Y144463D01*
X929970Y144398D01*
X929972Y144332D01*
X929990Y144288D01*
X929998Y144242D01*
X930031Y144185D01*
X930056Y144124D01*
X930088Y144089D01*
X930112Y144048D01*
X930163Y144007D01*
X930208Y143958D01*
X930250Y143937D01*
X930286Y143907D01*
X930349Y143886D01*
X930407Y143856D01*
X930462Y143848D01*
X930499Y143835D01*
X930538Y143836D01*
X930593Y143828D01*
X933133Y143828D01*
X933197Y143840D01*
G37*
G36*
X166117Y143840D02*
X166117Y143840D01*
X166183Y143842D01*
X166227Y143860D01*
X166273Y143868D01*
X166330Y143901D01*
X166391Y143926D01*
X166426Y143958D01*
X166467Y143982D01*
X166508Y144033D01*
X166557Y144078D01*
X166578Y144120D01*
X166608Y144156D01*
X166629Y144219D01*
X166659Y144277D01*
X166667Y144332D01*
X166680Y144369D01*
X166679Y144408D01*
X166687Y144463D01*
X166687Y148273D01*
X166675Y148337D01*
X166673Y148403D01*
X166655Y148447D01*
X166647Y148493D01*
X166614Y148550D01*
X166589Y148611D01*
X166557Y148646D01*
X166533Y148687D01*
X166482Y148728D01*
X166437Y148777D01*
X166395Y148798D01*
X166359Y148828D01*
X166297Y148849D01*
X166238Y148879D01*
X166183Y148887D01*
X166146Y148900D01*
X166107Y148899D01*
X166053Y148907D01*
X163513Y148907D01*
X163448Y148895D01*
X163382Y148893D01*
X163338Y148875D01*
X163292Y148867D01*
X163235Y148834D01*
X163174Y148809D01*
X163139Y148777D01*
X163098Y148753D01*
X163057Y148702D01*
X163008Y148657D01*
X162987Y148615D01*
X162957Y148579D01*
X162936Y148517D01*
X162906Y148458D01*
X162898Y148403D01*
X162885Y148366D01*
X162885Y148362D01*
X162886Y148326D01*
X162878Y148273D01*
X162878Y144463D01*
X162890Y144398D01*
X162892Y144332D01*
X162910Y144288D01*
X162918Y144242D01*
X162951Y144185D01*
X162976Y144124D01*
X163008Y144089D01*
X163032Y144048D01*
X163083Y144007D01*
X163128Y143958D01*
X163170Y143937D01*
X163206Y143907D01*
X163269Y143886D01*
X163327Y143856D01*
X163382Y143848D01*
X163419Y143835D01*
X163458Y143836D01*
X163513Y143828D01*
X166053Y143828D01*
X166117Y143840D01*
G37*
G36*
X1454215Y116852D02*
X1454215Y116852D01*
X1454281Y116854D01*
X1454324Y116872D01*
X1454371Y116880D01*
X1454428Y116914D01*
X1454488Y116939D01*
X1454523Y116970D01*
X1454564Y116995D01*
X1454606Y117046D01*
X1454654Y117090D01*
X1454676Y117132D01*
X1454705Y117169D01*
X1454726Y117231D01*
X1454757Y117290D01*
X1454765Y117344D01*
X1454777Y117381D01*
X1454776Y117421D01*
X1454784Y117475D01*
X1454784Y121285D01*
X1454773Y121350D01*
X1454771Y121416D01*
X1454753Y121459D01*
X1454745Y121506D01*
X1454711Y121563D01*
X1454686Y121623D01*
X1454655Y121658D01*
X1454630Y121699D01*
X1454579Y121741D01*
X1454535Y121789D01*
X1454493Y121811D01*
X1454456Y121840D01*
X1454394Y121861D01*
X1454335Y121892D01*
X1454281Y121900D01*
X1454244Y121912D01*
X1454204Y121911D01*
X1454150Y121919D01*
X1451610Y121919D01*
X1451545Y121908D01*
X1451479Y121906D01*
X1451436Y121888D01*
X1451389Y121880D01*
X1451332Y121846D01*
X1451272Y121821D01*
X1451237Y121790D01*
X1451196Y121765D01*
X1451155Y121714D01*
X1451106Y121670D01*
X1451084Y121628D01*
X1451055Y121591D01*
X1451034Y121529D01*
X1451003Y121470D01*
X1450995Y121416D01*
X1450983Y121379D01*
X1450983Y121375D01*
X1450983Y121374D01*
X1450984Y121339D01*
X1450976Y121285D01*
X1450976Y117475D01*
X1450987Y117410D01*
X1450989Y117344D01*
X1451007Y117301D01*
X1451015Y117254D01*
X1451049Y117197D01*
X1451074Y117137D01*
X1451105Y117102D01*
X1451130Y117061D01*
X1451181Y117020D01*
X1451225Y116971D01*
X1451267Y116949D01*
X1451304Y116920D01*
X1451366Y116899D01*
X1451425Y116868D01*
X1451479Y116860D01*
X1451516Y116848D01*
X1451556Y116849D01*
X1451610Y116841D01*
X1454150Y116841D01*
X1454215Y116852D01*
G37*
G36*
X687135Y116852D02*
X687135Y116852D01*
X687201Y116854D01*
X687244Y116872D01*
X687291Y116880D01*
X687348Y116914D01*
X687408Y116939D01*
X687443Y116970D01*
X687484Y116995D01*
X687526Y117046D01*
X687574Y117090D01*
X687596Y117132D01*
X687625Y117169D01*
X687646Y117231D01*
X687677Y117290D01*
X687685Y117344D01*
X687697Y117381D01*
X687696Y117421D01*
X687704Y117475D01*
X687704Y121285D01*
X687693Y121350D01*
X687691Y121416D01*
X687673Y121459D01*
X687665Y121506D01*
X687631Y121563D01*
X687606Y121623D01*
X687575Y121658D01*
X687550Y121699D01*
X687499Y121741D01*
X687455Y121789D01*
X687413Y121811D01*
X687376Y121840D01*
X687314Y121861D01*
X687255Y121892D01*
X687201Y121900D01*
X687164Y121912D01*
X687124Y121911D01*
X687070Y121919D01*
X684530Y121919D01*
X684465Y121908D01*
X684399Y121906D01*
X684356Y121888D01*
X684309Y121880D01*
X684252Y121846D01*
X684192Y121821D01*
X684157Y121790D01*
X684116Y121765D01*
X684075Y121714D01*
X684026Y121670D01*
X684004Y121628D01*
X683975Y121591D01*
X683954Y121529D01*
X683923Y121470D01*
X683915Y121416D01*
X683903Y121379D01*
X683903Y121375D01*
X683903Y121374D01*
X683904Y121339D01*
X683896Y121285D01*
X683896Y117475D01*
X683907Y117410D01*
X683909Y117344D01*
X683927Y117301D01*
X683935Y117254D01*
X683969Y117197D01*
X683994Y117137D01*
X684025Y117102D01*
X684050Y117061D01*
X684101Y117020D01*
X684145Y116971D01*
X684187Y116949D01*
X684224Y116920D01*
X684286Y116899D01*
X684345Y116868D01*
X684399Y116860D01*
X684436Y116848D01*
X684476Y116849D01*
X684530Y116841D01*
X687070Y116841D01*
X687135Y116852D01*
G37*
G36*
X1454215Y106692D02*
X1454215Y106692D01*
X1454281Y106694D01*
X1454324Y106712D01*
X1454371Y106720D01*
X1454428Y106754D01*
X1454488Y106779D01*
X1454523Y106810D01*
X1454564Y106835D01*
X1454606Y106886D01*
X1454654Y106930D01*
X1454676Y106972D01*
X1454705Y107009D01*
X1454726Y107071D01*
X1454757Y107130D01*
X1454765Y107184D01*
X1454777Y107221D01*
X1454776Y107261D01*
X1454784Y107315D01*
X1454784Y111125D01*
X1454773Y111190D01*
X1454771Y111256D01*
X1454753Y111299D01*
X1454745Y111346D01*
X1454711Y111403D01*
X1454686Y111463D01*
X1454655Y111498D01*
X1454630Y111539D01*
X1454579Y111581D01*
X1454535Y111629D01*
X1454493Y111651D01*
X1454456Y111680D01*
X1454394Y111701D01*
X1454335Y111732D01*
X1454281Y111740D01*
X1454244Y111752D01*
X1454204Y111751D01*
X1454150Y111759D01*
X1451610Y111759D01*
X1451545Y111748D01*
X1451479Y111746D01*
X1451436Y111728D01*
X1451389Y111720D01*
X1451332Y111686D01*
X1451272Y111661D01*
X1451237Y111630D01*
X1451196Y111605D01*
X1451155Y111554D01*
X1451106Y111510D01*
X1451084Y111468D01*
X1451055Y111431D01*
X1451034Y111369D01*
X1451003Y111310D01*
X1450995Y111256D01*
X1450983Y111219D01*
X1450983Y111215D01*
X1450983Y111214D01*
X1450984Y111179D01*
X1450976Y111125D01*
X1450976Y107315D01*
X1450987Y107250D01*
X1450989Y107184D01*
X1451007Y107141D01*
X1451015Y107094D01*
X1451049Y107037D01*
X1451074Y106977D01*
X1451105Y106942D01*
X1451130Y106901D01*
X1451181Y106860D01*
X1451225Y106811D01*
X1451267Y106789D01*
X1451304Y106760D01*
X1451366Y106739D01*
X1451425Y106708D01*
X1451479Y106700D01*
X1451516Y106688D01*
X1451556Y106689D01*
X1451610Y106681D01*
X1454150Y106681D01*
X1454215Y106692D01*
G37*
G36*
X933197Y999820D02*
X933197Y999820D01*
X933263Y999822D01*
X933307Y999840D01*
X933353Y999848D01*
X933410Y999881D01*
X933471Y999906D01*
X933506Y999938D01*
X933547Y999962D01*
X933588Y1000013D01*
X933637Y1000058D01*
X933658Y1000100D01*
X933688Y1000136D01*
X933709Y1000199D01*
X933739Y1000257D01*
X933747Y1000312D01*
X933760Y1000349D01*
X933759Y1000388D01*
X933767Y1000443D01*
X933767Y1004253D01*
X933755Y1004317D01*
X933753Y1004383D01*
X933735Y1004427D01*
X933727Y1004473D01*
X933694Y1004530D01*
X933669Y1004591D01*
X933637Y1004626D01*
X933613Y1004667D01*
X933562Y1004708D01*
X933517Y1004757D01*
X933475Y1004778D01*
X933439Y1004808D01*
X933377Y1004829D01*
X933318Y1004859D01*
X933263Y1004867D01*
X933226Y1004880D01*
X933187Y1004879D01*
X933133Y1004887D01*
X930593Y1004887D01*
X930528Y1004875D01*
X930462Y1004873D01*
X930418Y1004855D01*
X930372Y1004847D01*
X930315Y1004814D01*
X930254Y1004789D01*
X930219Y1004757D01*
X930178Y1004733D01*
X930137Y1004682D01*
X930088Y1004637D01*
X930067Y1004595D01*
X930037Y1004559D01*
X930016Y1004497D01*
X929986Y1004438D01*
X929978Y1004383D01*
X929965Y1004346D01*
X929965Y1004342D01*
X929966Y1004306D01*
X929958Y1004253D01*
X929958Y1000443D01*
X929970Y1000378D01*
X929972Y1000312D01*
X929990Y1000268D01*
X929998Y1000222D01*
X930031Y1000165D01*
X930056Y1000104D01*
X930088Y1000069D01*
X930112Y1000028D01*
X930163Y999987D01*
X930208Y999938D01*
X930250Y999917D01*
X930286Y999887D01*
X930349Y999866D01*
X930407Y999836D01*
X930462Y999828D01*
X930499Y999815D01*
X930538Y999816D01*
X930593Y999808D01*
X933133Y999808D01*
X933197Y999820D01*
G37*
G36*
X166117Y999820D02*
X166117Y999820D01*
X166183Y999822D01*
X166227Y999840D01*
X166273Y999848D01*
X166330Y999881D01*
X166391Y999906D01*
X166426Y999938D01*
X166467Y999962D01*
X166508Y1000013D01*
X166557Y1000058D01*
X166578Y1000100D01*
X166608Y1000136D01*
X166629Y1000199D01*
X166659Y1000257D01*
X166667Y1000312D01*
X166680Y1000349D01*
X166679Y1000388D01*
X166687Y1000443D01*
X166687Y1004253D01*
X166675Y1004317D01*
X166673Y1004383D01*
X166655Y1004427D01*
X166647Y1004473D01*
X166614Y1004530D01*
X166589Y1004591D01*
X166557Y1004626D01*
X166533Y1004667D01*
X166482Y1004708D01*
X166437Y1004757D01*
X166395Y1004778D01*
X166359Y1004808D01*
X166297Y1004829D01*
X166238Y1004859D01*
X166183Y1004867D01*
X166146Y1004880D01*
X166107Y1004879D01*
X166053Y1004887D01*
X163513Y1004887D01*
X163448Y1004875D01*
X163382Y1004873D01*
X163338Y1004855D01*
X163292Y1004847D01*
X163235Y1004814D01*
X163174Y1004789D01*
X163139Y1004757D01*
X163098Y1004733D01*
X163057Y1004682D01*
X163008Y1004637D01*
X162987Y1004595D01*
X162957Y1004559D01*
X162936Y1004497D01*
X162906Y1004438D01*
X162898Y1004383D01*
X162885Y1004346D01*
X162885Y1004342D01*
X162886Y1004306D01*
X162878Y1004253D01*
X162878Y1000443D01*
X162890Y1000378D01*
X162892Y1000312D01*
X162910Y1000268D01*
X162918Y1000222D01*
X162951Y1000165D01*
X162976Y1000104D01*
X163008Y1000069D01*
X163032Y1000028D01*
X163083Y999987D01*
X163128Y999938D01*
X163170Y999917D01*
X163206Y999887D01*
X163269Y999866D01*
X163327Y999836D01*
X163382Y999828D01*
X163419Y999815D01*
X163458Y999816D01*
X163513Y999808D01*
X166053Y999808D01*
X166117Y999820D01*
G37*
G36*
X687135Y972832D02*
X687135Y972832D01*
X687201Y972834D01*
X687244Y972852D01*
X687291Y972860D01*
X687348Y972894D01*
X687408Y972919D01*
X687443Y972950D01*
X687484Y972975D01*
X687526Y973026D01*
X687574Y973070D01*
X687596Y973112D01*
X687625Y973149D01*
X687646Y973211D01*
X687677Y973270D01*
X687685Y973324D01*
X687697Y973361D01*
X687696Y973401D01*
X687704Y973455D01*
X687704Y977265D01*
X687693Y977330D01*
X687691Y977396D01*
X687673Y977439D01*
X687665Y977486D01*
X687631Y977543D01*
X687606Y977603D01*
X687575Y977638D01*
X687550Y977679D01*
X687499Y977721D01*
X687455Y977769D01*
X687413Y977791D01*
X687376Y977820D01*
X687314Y977841D01*
X687255Y977872D01*
X687201Y977880D01*
X687164Y977892D01*
X687124Y977891D01*
X687070Y977899D01*
X684530Y977899D01*
X684465Y977888D01*
X684399Y977886D01*
X684356Y977868D01*
X684309Y977860D01*
X684252Y977826D01*
X684192Y977801D01*
X684157Y977770D01*
X684116Y977745D01*
X684075Y977694D01*
X684026Y977650D01*
X684004Y977608D01*
X683975Y977571D01*
X683954Y977509D01*
X683923Y977450D01*
X683915Y977396D01*
X683903Y977359D01*
X683903Y977355D01*
X683903Y977354D01*
X683904Y977319D01*
X683896Y977265D01*
X683896Y973455D01*
X683907Y973390D01*
X683909Y973324D01*
X683927Y973281D01*
X683935Y973234D01*
X683969Y973177D01*
X683994Y973117D01*
X684025Y973082D01*
X684050Y973041D01*
X684101Y973000D01*
X684145Y972951D01*
X684187Y972929D01*
X684224Y972900D01*
X684286Y972879D01*
X684345Y972848D01*
X684399Y972840D01*
X684436Y972828D01*
X684476Y972829D01*
X684530Y972821D01*
X687070Y972821D01*
X687135Y972832D01*
G37*
G36*
X1454215Y972832D02*
X1454215Y972832D01*
X1454281Y972834D01*
X1454324Y972852D01*
X1454371Y972860D01*
X1454428Y972894D01*
X1454488Y972919D01*
X1454523Y972950D01*
X1454564Y972975D01*
X1454606Y973026D01*
X1454654Y973070D01*
X1454676Y973112D01*
X1454705Y973149D01*
X1454726Y973211D01*
X1454757Y973270D01*
X1454765Y973324D01*
X1454777Y973361D01*
X1454776Y973401D01*
X1454784Y973455D01*
X1454784Y977265D01*
X1454773Y977330D01*
X1454771Y977396D01*
X1454753Y977439D01*
X1454745Y977486D01*
X1454711Y977543D01*
X1454686Y977603D01*
X1454655Y977638D01*
X1454630Y977679D01*
X1454579Y977721D01*
X1454535Y977769D01*
X1454493Y977791D01*
X1454456Y977820D01*
X1454394Y977841D01*
X1454335Y977872D01*
X1454281Y977880D01*
X1454244Y977892D01*
X1454204Y977891D01*
X1454150Y977899D01*
X1451610Y977899D01*
X1451545Y977888D01*
X1451479Y977886D01*
X1451436Y977868D01*
X1451389Y977860D01*
X1451332Y977826D01*
X1451272Y977801D01*
X1451237Y977770D01*
X1451196Y977745D01*
X1451155Y977694D01*
X1451106Y977650D01*
X1451084Y977608D01*
X1451055Y977571D01*
X1451034Y977509D01*
X1451003Y977450D01*
X1450995Y977396D01*
X1450983Y977359D01*
X1450983Y977355D01*
X1450983Y977354D01*
X1450984Y977319D01*
X1450976Y977265D01*
X1450976Y973455D01*
X1450987Y973390D01*
X1450989Y973324D01*
X1451007Y973281D01*
X1451015Y973234D01*
X1451049Y973177D01*
X1451074Y973117D01*
X1451105Y973082D01*
X1451130Y973041D01*
X1451181Y973000D01*
X1451225Y972951D01*
X1451267Y972929D01*
X1451304Y972900D01*
X1451366Y972879D01*
X1451425Y972848D01*
X1451479Y972840D01*
X1451516Y972828D01*
X1451556Y972829D01*
X1451610Y972821D01*
X1454150Y972821D01*
X1454215Y972832D01*
G37*
G36*
X1454215Y962672D02*
X1454215Y962672D01*
X1454281Y962674D01*
X1454324Y962692D01*
X1454371Y962700D01*
X1454428Y962734D01*
X1454488Y962759D01*
X1454523Y962790D01*
X1454564Y962815D01*
X1454606Y962866D01*
X1454654Y962910D01*
X1454676Y962952D01*
X1454705Y962989D01*
X1454726Y963051D01*
X1454757Y963110D01*
X1454765Y963164D01*
X1454777Y963201D01*
X1454776Y963241D01*
X1454784Y963295D01*
X1454784Y967105D01*
X1454773Y967170D01*
X1454771Y967236D01*
X1454753Y967279D01*
X1454745Y967326D01*
X1454711Y967383D01*
X1454686Y967443D01*
X1454655Y967478D01*
X1454630Y967519D01*
X1454579Y967561D01*
X1454535Y967609D01*
X1454493Y967631D01*
X1454456Y967660D01*
X1454394Y967681D01*
X1454335Y967712D01*
X1454281Y967720D01*
X1454244Y967732D01*
X1454204Y967731D01*
X1454150Y967739D01*
X1451610Y967739D01*
X1451545Y967728D01*
X1451479Y967726D01*
X1451436Y967708D01*
X1451389Y967700D01*
X1451332Y967666D01*
X1451272Y967641D01*
X1451237Y967610D01*
X1451196Y967585D01*
X1451155Y967534D01*
X1451106Y967490D01*
X1451084Y967448D01*
X1451055Y967411D01*
X1451034Y967349D01*
X1451003Y967290D01*
X1450995Y967236D01*
X1450983Y967199D01*
X1450983Y967195D01*
X1450983Y967194D01*
X1450984Y967159D01*
X1450976Y967105D01*
X1450976Y963295D01*
X1450987Y963230D01*
X1450989Y963164D01*
X1451007Y963121D01*
X1451015Y963074D01*
X1451049Y963017D01*
X1451074Y962957D01*
X1451105Y962922D01*
X1451130Y962881D01*
X1451181Y962840D01*
X1451225Y962791D01*
X1451267Y962769D01*
X1451304Y962740D01*
X1451366Y962719D01*
X1451425Y962688D01*
X1451479Y962680D01*
X1451516Y962668D01*
X1451556Y962669D01*
X1451610Y962661D01*
X1454150Y962661D01*
X1454215Y962672D01*
G37*
G36*
X687135Y962672D02*
X687135Y962672D01*
X687201Y962674D01*
X687244Y962692D01*
X687291Y962700D01*
X687348Y962734D01*
X687408Y962759D01*
X687443Y962790D01*
X687484Y962815D01*
X687526Y962866D01*
X687574Y962910D01*
X687596Y962952D01*
X687625Y962989D01*
X687646Y963051D01*
X687677Y963110D01*
X687685Y963164D01*
X687697Y963201D01*
X687696Y963241D01*
X687704Y963295D01*
X687704Y967105D01*
X687693Y967170D01*
X687691Y967236D01*
X687673Y967279D01*
X687665Y967326D01*
X687631Y967383D01*
X687606Y967443D01*
X687575Y967478D01*
X687550Y967519D01*
X687499Y967561D01*
X687455Y967609D01*
X687413Y967631D01*
X687376Y967660D01*
X687314Y967681D01*
X687255Y967712D01*
X687201Y967720D01*
X687164Y967732D01*
X687124Y967731D01*
X687070Y967739D01*
X684530Y967739D01*
X684465Y967728D01*
X684399Y967726D01*
X684356Y967708D01*
X684309Y967700D01*
X684252Y967666D01*
X684192Y967641D01*
X684157Y967610D01*
X684116Y967585D01*
X684075Y967534D01*
X684026Y967490D01*
X684004Y967448D01*
X683975Y967411D01*
X683954Y967349D01*
X683923Y967290D01*
X683915Y967236D01*
X683903Y967199D01*
X683903Y967195D01*
X683903Y967194D01*
X683904Y967159D01*
X683896Y967105D01*
X683896Y963295D01*
X683907Y963230D01*
X683909Y963164D01*
X683927Y963121D01*
X683935Y963074D01*
X683969Y963017D01*
X683994Y962957D01*
X684025Y962922D01*
X684050Y962881D01*
X684101Y962840D01*
X684145Y962791D01*
X684187Y962769D01*
X684224Y962740D01*
X684286Y962719D01*
X684345Y962688D01*
X684399Y962680D01*
X684436Y962668D01*
X684476Y962669D01*
X684530Y962661D01*
X687070Y962661D01*
X687135Y962672D01*
G37*
G36*
X1068135Y520712D02*
X1068135Y520712D01*
X1068201Y520714D01*
X1068244Y520732D01*
X1068291Y520740D01*
X1068348Y520774D01*
X1068408Y520799D01*
X1068443Y520830D01*
X1068484Y520855D01*
X1068526Y520906D01*
X1068574Y520950D01*
X1068596Y520992D01*
X1068625Y521029D01*
X1068646Y521091D01*
X1068677Y521150D01*
X1068685Y521204D01*
X1068697Y521241D01*
X1068696Y521281D01*
X1068704Y521335D01*
X1068704Y525145D01*
X1068693Y525210D01*
X1068691Y525276D01*
X1068673Y525319D01*
X1068665Y525366D01*
X1068631Y525423D01*
X1068606Y525483D01*
X1068575Y525518D01*
X1068550Y525559D01*
X1068499Y525601D01*
X1068455Y525649D01*
X1068413Y525671D01*
X1068376Y525700D01*
X1068314Y525721D01*
X1068255Y525752D01*
X1068201Y525760D01*
X1068164Y525772D01*
X1068124Y525771D01*
X1068070Y525779D01*
X1065530Y525779D01*
X1065465Y525768D01*
X1065399Y525766D01*
X1065356Y525748D01*
X1065309Y525740D01*
X1065252Y525706D01*
X1065192Y525681D01*
X1065157Y525650D01*
X1065116Y525625D01*
X1065075Y525574D01*
X1065026Y525530D01*
X1065004Y525488D01*
X1064975Y525451D01*
X1064954Y525389D01*
X1064923Y525330D01*
X1064915Y525276D01*
X1064903Y525239D01*
X1064903Y525235D01*
X1064903Y525234D01*
X1064904Y525199D01*
X1064896Y525145D01*
X1064896Y521335D01*
X1064907Y521270D01*
X1064909Y521204D01*
X1064927Y521161D01*
X1064935Y521114D01*
X1064969Y521057D01*
X1064994Y520997D01*
X1065025Y520962D01*
X1065050Y520921D01*
X1065101Y520880D01*
X1065145Y520831D01*
X1065187Y520809D01*
X1065224Y520780D01*
X1065286Y520759D01*
X1065345Y520728D01*
X1065399Y520720D01*
X1065436Y520708D01*
X1065476Y520709D01*
X1065530Y520701D01*
X1068070Y520701D01*
X1068135Y520712D01*
G37*
G36*
X301055Y520712D02*
X301055Y520712D01*
X301121Y520714D01*
X301164Y520732D01*
X301211Y520740D01*
X301268Y520774D01*
X301328Y520799D01*
X301363Y520830D01*
X301404Y520855D01*
X301446Y520906D01*
X301494Y520950D01*
X301516Y520992D01*
X301545Y521029D01*
X301566Y521091D01*
X301597Y521150D01*
X301605Y521204D01*
X301617Y521241D01*
X301616Y521281D01*
X301624Y521335D01*
X301624Y525145D01*
X301613Y525210D01*
X301611Y525276D01*
X301593Y525319D01*
X301585Y525366D01*
X301551Y525423D01*
X301526Y525483D01*
X301495Y525518D01*
X301470Y525559D01*
X301419Y525601D01*
X301375Y525649D01*
X301333Y525671D01*
X301296Y525700D01*
X301234Y525721D01*
X301175Y525752D01*
X301121Y525760D01*
X301084Y525772D01*
X301044Y525771D01*
X300990Y525779D01*
X298450Y525779D01*
X298385Y525768D01*
X298319Y525766D01*
X298276Y525748D01*
X298229Y525740D01*
X298172Y525706D01*
X298112Y525681D01*
X298077Y525650D01*
X298036Y525625D01*
X297995Y525574D01*
X297946Y525530D01*
X297924Y525488D01*
X297895Y525451D01*
X297874Y525389D01*
X297843Y525330D01*
X297835Y525276D01*
X297823Y525239D01*
X297823Y525235D01*
X297823Y525234D01*
X297824Y525199D01*
X297816Y525145D01*
X297816Y521335D01*
X297827Y521270D01*
X297829Y521204D01*
X297847Y521161D01*
X297855Y521114D01*
X297889Y521057D01*
X297914Y520997D01*
X297945Y520962D01*
X297970Y520921D01*
X298021Y520880D01*
X298065Y520831D01*
X298107Y520809D01*
X298144Y520780D01*
X298206Y520759D01*
X298265Y520728D01*
X298319Y520720D01*
X298356Y520708D01*
X298396Y520709D01*
X298450Y520701D01*
X300990Y520701D01*
X301055Y520712D01*
G37*
G36*
X857950Y1311287D02*
X857950Y1311287D01*
X858016Y1311289D01*
X858059Y1311307D01*
X858106Y1311315D01*
X858163Y1311349D01*
X858223Y1311374D01*
X858258Y1311405D01*
X858299Y1311430D01*
X858341Y1311481D01*
X858389Y1311525D01*
X858411Y1311567D01*
X858440Y1311604D01*
X858461Y1311666D01*
X858492Y1311725D01*
X858500Y1311779D01*
X858512Y1311816D01*
X858511Y1311856D01*
X858519Y1311910D01*
X858519Y1314450D01*
X858508Y1314515D01*
X858506Y1314581D01*
X858488Y1314624D01*
X858480Y1314671D01*
X858446Y1314728D01*
X858421Y1314788D01*
X858390Y1314823D01*
X858365Y1314864D01*
X858314Y1314906D01*
X858270Y1314954D01*
X858228Y1314976D01*
X858191Y1315005D01*
X858129Y1315026D01*
X858070Y1315057D01*
X858016Y1315065D01*
X857979Y1315077D01*
X857939Y1315076D01*
X857885Y1315084D01*
X854075Y1315084D01*
X854010Y1315073D01*
X853944Y1315071D01*
X853901Y1315053D01*
X853854Y1315045D01*
X853797Y1315011D01*
X853737Y1314986D01*
X853702Y1314955D01*
X853661Y1314930D01*
X853620Y1314879D01*
X853571Y1314835D01*
X853549Y1314793D01*
X853520Y1314756D01*
X853499Y1314694D01*
X853468Y1314635D01*
X853460Y1314581D01*
X853448Y1314544D01*
X853448Y1314541D01*
X853449Y1314504D01*
X853441Y1314450D01*
X853441Y1311910D01*
X853452Y1311845D01*
X853454Y1311779D01*
X853472Y1311736D01*
X853480Y1311689D01*
X853514Y1311632D01*
X853539Y1311572D01*
X853570Y1311537D01*
X853595Y1311496D01*
X853646Y1311455D01*
X853690Y1311406D01*
X853732Y1311384D01*
X853769Y1311355D01*
X853831Y1311334D01*
X853890Y1311303D01*
X853944Y1311295D01*
X853981Y1311283D01*
X854021Y1311284D01*
X854075Y1311276D01*
X857885Y1311276D01*
X857950Y1311287D01*
G37*
G36*
X90870Y1311287D02*
X90870Y1311287D01*
X90936Y1311289D01*
X90979Y1311307D01*
X91026Y1311315D01*
X91083Y1311349D01*
X91143Y1311374D01*
X91178Y1311405D01*
X91219Y1311430D01*
X91261Y1311481D01*
X91309Y1311525D01*
X91331Y1311567D01*
X91360Y1311604D01*
X91381Y1311666D01*
X91412Y1311725D01*
X91420Y1311779D01*
X91432Y1311816D01*
X91431Y1311856D01*
X91439Y1311910D01*
X91439Y1314450D01*
X91428Y1314515D01*
X91426Y1314581D01*
X91408Y1314624D01*
X91400Y1314671D01*
X91366Y1314728D01*
X91341Y1314788D01*
X91310Y1314823D01*
X91285Y1314864D01*
X91234Y1314906D01*
X91190Y1314954D01*
X91148Y1314976D01*
X91111Y1315005D01*
X91049Y1315026D01*
X90990Y1315057D01*
X90936Y1315065D01*
X90899Y1315077D01*
X90859Y1315076D01*
X90805Y1315084D01*
X86995Y1315084D01*
X86930Y1315073D01*
X86864Y1315071D01*
X86821Y1315053D01*
X86774Y1315045D01*
X86717Y1315011D01*
X86657Y1314986D01*
X86622Y1314955D01*
X86581Y1314930D01*
X86540Y1314879D01*
X86491Y1314835D01*
X86469Y1314793D01*
X86440Y1314756D01*
X86419Y1314694D01*
X86388Y1314635D01*
X86380Y1314581D01*
X86368Y1314544D01*
X86368Y1314541D01*
X86369Y1314504D01*
X86361Y1314450D01*
X86361Y1311910D01*
X86372Y1311845D01*
X86374Y1311779D01*
X86392Y1311736D01*
X86400Y1311689D01*
X86434Y1311632D01*
X86459Y1311572D01*
X86490Y1311537D01*
X86515Y1311496D01*
X86566Y1311455D01*
X86610Y1311406D01*
X86652Y1311384D01*
X86689Y1311355D01*
X86751Y1311334D01*
X86810Y1311303D01*
X86864Y1311295D01*
X86901Y1311283D01*
X86941Y1311284D01*
X86995Y1311276D01*
X90805Y1311276D01*
X90870Y1311287D01*
G37*
G36*
X857950Y1331607D02*
X857950Y1331607D01*
X858016Y1331609D01*
X858059Y1331627D01*
X858106Y1331635D01*
X858163Y1331669D01*
X858223Y1331694D01*
X858258Y1331725D01*
X858299Y1331750D01*
X858341Y1331801D01*
X858389Y1331845D01*
X858411Y1331887D01*
X858440Y1331924D01*
X858461Y1331986D01*
X858492Y1332045D01*
X858500Y1332099D01*
X858512Y1332136D01*
X858511Y1332176D01*
X858519Y1332230D01*
X858519Y1334770D01*
X858508Y1334835D01*
X858506Y1334901D01*
X858488Y1334944D01*
X858480Y1334991D01*
X858446Y1335048D01*
X858421Y1335108D01*
X858390Y1335143D01*
X858365Y1335184D01*
X858314Y1335226D01*
X858270Y1335274D01*
X858228Y1335296D01*
X858191Y1335325D01*
X858129Y1335346D01*
X858070Y1335377D01*
X858016Y1335385D01*
X857979Y1335397D01*
X857939Y1335396D01*
X857885Y1335404D01*
X854075Y1335404D01*
X854010Y1335393D01*
X853944Y1335391D01*
X853901Y1335373D01*
X853854Y1335365D01*
X853797Y1335331D01*
X853737Y1335306D01*
X853702Y1335275D01*
X853661Y1335250D01*
X853620Y1335199D01*
X853571Y1335155D01*
X853549Y1335113D01*
X853520Y1335076D01*
X853499Y1335014D01*
X853468Y1334955D01*
X853460Y1334901D01*
X853448Y1334864D01*
X853448Y1334861D01*
X853449Y1334824D01*
X853441Y1334770D01*
X853441Y1332230D01*
X853452Y1332165D01*
X853454Y1332099D01*
X853472Y1332056D01*
X853480Y1332009D01*
X853514Y1331952D01*
X853539Y1331892D01*
X853570Y1331857D01*
X853595Y1331816D01*
X853646Y1331775D01*
X853690Y1331726D01*
X853732Y1331704D01*
X853769Y1331675D01*
X853831Y1331654D01*
X853890Y1331623D01*
X853944Y1331615D01*
X853981Y1331603D01*
X854021Y1331604D01*
X854075Y1331596D01*
X857885Y1331596D01*
X857950Y1331607D01*
G37*
G36*
X90870Y1331607D02*
X90870Y1331607D01*
X90936Y1331609D01*
X90979Y1331627D01*
X91026Y1331635D01*
X91083Y1331669D01*
X91143Y1331694D01*
X91178Y1331725D01*
X91219Y1331750D01*
X91261Y1331801D01*
X91309Y1331845D01*
X91331Y1331887D01*
X91360Y1331924D01*
X91381Y1331986D01*
X91412Y1332045D01*
X91420Y1332099D01*
X91432Y1332136D01*
X91431Y1332176D01*
X91439Y1332230D01*
X91439Y1334770D01*
X91428Y1334835D01*
X91426Y1334901D01*
X91408Y1334944D01*
X91400Y1334991D01*
X91366Y1335048D01*
X91341Y1335108D01*
X91310Y1335143D01*
X91285Y1335184D01*
X91234Y1335226D01*
X91190Y1335274D01*
X91148Y1335296D01*
X91111Y1335325D01*
X91049Y1335346D01*
X90990Y1335377D01*
X90936Y1335385D01*
X90899Y1335397D01*
X90859Y1335396D01*
X90805Y1335404D01*
X86995Y1335404D01*
X86930Y1335393D01*
X86864Y1335391D01*
X86821Y1335373D01*
X86774Y1335365D01*
X86717Y1335331D01*
X86657Y1335306D01*
X86622Y1335275D01*
X86581Y1335250D01*
X86540Y1335199D01*
X86491Y1335155D01*
X86469Y1335113D01*
X86440Y1335076D01*
X86419Y1335014D01*
X86388Y1334955D01*
X86380Y1334901D01*
X86368Y1334864D01*
X86368Y1334861D01*
X86369Y1334824D01*
X86361Y1334770D01*
X86361Y1332230D01*
X86372Y1332165D01*
X86374Y1332099D01*
X86392Y1332056D01*
X86400Y1332009D01*
X86434Y1331952D01*
X86459Y1331892D01*
X86490Y1331857D01*
X86515Y1331816D01*
X86566Y1331775D01*
X86610Y1331726D01*
X86652Y1331704D01*
X86689Y1331675D01*
X86751Y1331654D01*
X86810Y1331623D01*
X86864Y1331615D01*
X86901Y1331603D01*
X86941Y1331604D01*
X86995Y1331596D01*
X90805Y1331596D01*
X90870Y1331607D01*
G37*
G36*
X1365950Y1279537D02*
X1365950Y1279537D01*
X1366016Y1279539D01*
X1366059Y1279557D01*
X1366106Y1279565D01*
X1366163Y1279599D01*
X1366223Y1279624D01*
X1366258Y1279655D01*
X1366299Y1279680D01*
X1366341Y1279731D01*
X1366389Y1279775D01*
X1366411Y1279817D01*
X1366440Y1279854D01*
X1366461Y1279916D01*
X1366492Y1279975D01*
X1366500Y1280029D01*
X1366512Y1280066D01*
X1366511Y1280106D01*
X1366519Y1280160D01*
X1366519Y1282700D01*
X1366508Y1282765D01*
X1366506Y1282831D01*
X1366488Y1282874D01*
X1366480Y1282921D01*
X1366446Y1282978D01*
X1366421Y1283038D01*
X1366390Y1283073D01*
X1366365Y1283114D01*
X1366314Y1283156D01*
X1366270Y1283204D01*
X1366228Y1283226D01*
X1366191Y1283255D01*
X1366129Y1283276D01*
X1366070Y1283307D01*
X1366016Y1283315D01*
X1365979Y1283327D01*
X1365939Y1283326D01*
X1365885Y1283334D01*
X1362075Y1283334D01*
X1362010Y1283323D01*
X1361944Y1283321D01*
X1361901Y1283303D01*
X1361854Y1283295D01*
X1361797Y1283261D01*
X1361737Y1283236D01*
X1361702Y1283205D01*
X1361661Y1283180D01*
X1361620Y1283129D01*
X1361571Y1283085D01*
X1361549Y1283043D01*
X1361520Y1283006D01*
X1361499Y1282944D01*
X1361468Y1282885D01*
X1361460Y1282831D01*
X1361448Y1282794D01*
X1361448Y1282791D01*
X1361449Y1282754D01*
X1361441Y1282700D01*
X1361441Y1280160D01*
X1361452Y1280095D01*
X1361454Y1280029D01*
X1361472Y1279986D01*
X1361480Y1279939D01*
X1361514Y1279882D01*
X1361539Y1279822D01*
X1361570Y1279787D01*
X1361595Y1279746D01*
X1361646Y1279705D01*
X1361690Y1279656D01*
X1361732Y1279634D01*
X1361769Y1279605D01*
X1361831Y1279584D01*
X1361890Y1279553D01*
X1361944Y1279545D01*
X1361981Y1279533D01*
X1362021Y1279534D01*
X1362075Y1279526D01*
X1365885Y1279526D01*
X1365950Y1279537D01*
G37*
G36*
X598870Y1279537D02*
X598870Y1279537D01*
X598936Y1279539D01*
X598979Y1279557D01*
X599026Y1279565D01*
X599083Y1279599D01*
X599143Y1279624D01*
X599178Y1279655D01*
X599219Y1279680D01*
X599261Y1279731D01*
X599309Y1279775D01*
X599331Y1279817D01*
X599360Y1279854D01*
X599381Y1279916D01*
X599412Y1279975D01*
X599420Y1280029D01*
X599432Y1280066D01*
X599431Y1280106D01*
X599439Y1280160D01*
X599439Y1282700D01*
X599428Y1282765D01*
X599426Y1282831D01*
X599408Y1282874D01*
X599400Y1282921D01*
X599366Y1282978D01*
X599341Y1283038D01*
X599310Y1283073D01*
X599285Y1283114D01*
X599234Y1283156D01*
X599190Y1283204D01*
X599148Y1283226D01*
X599111Y1283255D01*
X599049Y1283276D01*
X598990Y1283307D01*
X598936Y1283315D01*
X598899Y1283327D01*
X598859Y1283326D01*
X598805Y1283334D01*
X594995Y1283334D01*
X594930Y1283323D01*
X594864Y1283321D01*
X594821Y1283303D01*
X594774Y1283295D01*
X594717Y1283261D01*
X594657Y1283236D01*
X594622Y1283205D01*
X594581Y1283180D01*
X594540Y1283129D01*
X594491Y1283085D01*
X594469Y1283043D01*
X594440Y1283006D01*
X594419Y1282944D01*
X594388Y1282885D01*
X594380Y1282831D01*
X594368Y1282794D01*
X594368Y1282791D01*
X594369Y1282754D01*
X594361Y1282700D01*
X594361Y1280160D01*
X594372Y1280095D01*
X594374Y1280029D01*
X594392Y1279986D01*
X594400Y1279939D01*
X594434Y1279882D01*
X594459Y1279822D01*
X594490Y1279787D01*
X594515Y1279746D01*
X594566Y1279705D01*
X594610Y1279656D01*
X594652Y1279634D01*
X594689Y1279605D01*
X594751Y1279584D01*
X594810Y1279553D01*
X594864Y1279545D01*
X594901Y1279533D01*
X594941Y1279534D01*
X594995Y1279526D01*
X598805Y1279526D01*
X598870Y1279537D01*
G37*
G36*
X1264350Y1266837D02*
X1264350Y1266837D01*
X1264416Y1266839D01*
X1264459Y1266857D01*
X1264506Y1266865D01*
X1264563Y1266899D01*
X1264623Y1266924D01*
X1264658Y1266955D01*
X1264699Y1266980D01*
X1264741Y1267031D01*
X1264789Y1267075D01*
X1264811Y1267117D01*
X1264840Y1267154D01*
X1264861Y1267216D01*
X1264892Y1267275D01*
X1264900Y1267329D01*
X1264912Y1267366D01*
X1264911Y1267406D01*
X1264919Y1267460D01*
X1264919Y1270000D01*
X1264908Y1270065D01*
X1264906Y1270131D01*
X1264888Y1270174D01*
X1264880Y1270221D01*
X1264846Y1270278D01*
X1264821Y1270338D01*
X1264790Y1270373D01*
X1264765Y1270414D01*
X1264714Y1270456D01*
X1264670Y1270504D01*
X1264628Y1270526D01*
X1264591Y1270555D01*
X1264529Y1270576D01*
X1264470Y1270607D01*
X1264416Y1270615D01*
X1264379Y1270627D01*
X1264339Y1270626D01*
X1264285Y1270634D01*
X1260475Y1270634D01*
X1260410Y1270623D01*
X1260344Y1270621D01*
X1260301Y1270603D01*
X1260254Y1270595D01*
X1260197Y1270561D01*
X1260137Y1270536D01*
X1260102Y1270505D01*
X1260061Y1270480D01*
X1260020Y1270429D01*
X1259971Y1270385D01*
X1259949Y1270343D01*
X1259920Y1270306D01*
X1259899Y1270244D01*
X1259868Y1270185D01*
X1259860Y1270131D01*
X1259848Y1270094D01*
X1259848Y1270091D01*
X1259849Y1270054D01*
X1259841Y1270000D01*
X1259841Y1267460D01*
X1259852Y1267395D01*
X1259854Y1267329D01*
X1259872Y1267286D01*
X1259880Y1267239D01*
X1259914Y1267182D01*
X1259939Y1267122D01*
X1259970Y1267087D01*
X1259995Y1267046D01*
X1260046Y1267005D01*
X1260090Y1266956D01*
X1260132Y1266934D01*
X1260169Y1266905D01*
X1260231Y1266884D01*
X1260290Y1266853D01*
X1260344Y1266845D01*
X1260381Y1266833D01*
X1260421Y1266834D01*
X1260475Y1266826D01*
X1264285Y1266826D01*
X1264350Y1266837D01*
G37*
G36*
X497270Y1266837D02*
X497270Y1266837D01*
X497336Y1266839D01*
X497379Y1266857D01*
X497426Y1266865D01*
X497483Y1266899D01*
X497543Y1266924D01*
X497578Y1266955D01*
X497619Y1266980D01*
X497661Y1267031D01*
X497709Y1267075D01*
X497731Y1267117D01*
X497760Y1267154D01*
X497781Y1267216D01*
X497812Y1267275D01*
X497820Y1267329D01*
X497832Y1267366D01*
X497831Y1267406D01*
X497839Y1267460D01*
X497839Y1270000D01*
X497828Y1270065D01*
X497826Y1270131D01*
X497808Y1270174D01*
X497800Y1270221D01*
X497766Y1270278D01*
X497741Y1270338D01*
X497710Y1270373D01*
X497685Y1270414D01*
X497634Y1270456D01*
X497590Y1270504D01*
X497548Y1270526D01*
X497511Y1270555D01*
X497449Y1270576D01*
X497390Y1270607D01*
X497336Y1270615D01*
X497299Y1270627D01*
X497259Y1270626D01*
X497205Y1270634D01*
X493395Y1270634D01*
X493330Y1270623D01*
X493264Y1270621D01*
X493221Y1270603D01*
X493174Y1270595D01*
X493117Y1270561D01*
X493057Y1270536D01*
X493022Y1270505D01*
X492981Y1270480D01*
X492940Y1270429D01*
X492891Y1270385D01*
X492869Y1270343D01*
X492840Y1270306D01*
X492819Y1270244D01*
X492788Y1270185D01*
X492780Y1270131D01*
X492768Y1270094D01*
X492768Y1270091D01*
X492769Y1270054D01*
X492761Y1270000D01*
X492761Y1267460D01*
X492772Y1267395D01*
X492774Y1267329D01*
X492792Y1267286D01*
X492800Y1267239D01*
X492834Y1267182D01*
X492859Y1267122D01*
X492890Y1267087D01*
X492915Y1267046D01*
X492966Y1267005D01*
X493010Y1266956D01*
X493052Y1266934D01*
X493089Y1266905D01*
X493151Y1266884D01*
X493210Y1266853D01*
X493264Y1266845D01*
X493301Y1266833D01*
X493341Y1266834D01*
X493395Y1266826D01*
X497205Y1266826D01*
X497270Y1266837D01*
G37*
G36*
X313120Y1174127D02*
X313120Y1174127D01*
X313186Y1174129D01*
X313229Y1174147D01*
X313276Y1174155D01*
X313333Y1174189D01*
X313393Y1174214D01*
X313428Y1174245D01*
X313469Y1174270D01*
X313511Y1174321D01*
X313559Y1174365D01*
X313581Y1174407D01*
X313610Y1174444D01*
X313631Y1174506D01*
X313662Y1174565D01*
X313670Y1174619D01*
X313682Y1174656D01*
X313681Y1174696D01*
X313689Y1174750D01*
X313689Y1177290D01*
X313678Y1177355D01*
X313676Y1177421D01*
X313658Y1177464D01*
X313650Y1177511D01*
X313616Y1177568D01*
X313591Y1177628D01*
X313560Y1177663D01*
X313535Y1177704D01*
X313484Y1177746D01*
X313440Y1177794D01*
X313398Y1177816D01*
X313361Y1177845D01*
X313299Y1177866D01*
X313240Y1177897D01*
X313186Y1177905D01*
X313149Y1177917D01*
X313109Y1177916D01*
X313055Y1177924D01*
X309245Y1177924D01*
X309180Y1177913D01*
X309114Y1177911D01*
X309071Y1177893D01*
X309024Y1177885D01*
X308967Y1177851D01*
X308907Y1177826D01*
X308872Y1177795D01*
X308831Y1177770D01*
X308790Y1177719D01*
X308741Y1177675D01*
X308719Y1177633D01*
X308690Y1177596D01*
X308669Y1177534D01*
X308638Y1177475D01*
X308630Y1177421D01*
X308618Y1177384D01*
X308618Y1177381D01*
X308619Y1177344D01*
X308611Y1177290D01*
X308611Y1174750D01*
X308622Y1174685D01*
X308624Y1174619D01*
X308642Y1174576D01*
X308650Y1174529D01*
X308684Y1174472D01*
X308709Y1174412D01*
X308740Y1174377D01*
X308765Y1174336D01*
X308816Y1174295D01*
X308860Y1174246D01*
X308902Y1174224D01*
X308939Y1174195D01*
X309001Y1174174D01*
X309060Y1174143D01*
X309114Y1174135D01*
X309151Y1174123D01*
X309191Y1174124D01*
X309245Y1174116D01*
X313055Y1174116D01*
X313120Y1174127D01*
G37*
G36*
X1080200Y1174127D02*
X1080200Y1174127D01*
X1080266Y1174129D01*
X1080309Y1174147D01*
X1080356Y1174155D01*
X1080413Y1174189D01*
X1080473Y1174214D01*
X1080508Y1174245D01*
X1080549Y1174270D01*
X1080591Y1174321D01*
X1080639Y1174365D01*
X1080661Y1174407D01*
X1080690Y1174444D01*
X1080711Y1174506D01*
X1080742Y1174565D01*
X1080750Y1174619D01*
X1080762Y1174656D01*
X1080761Y1174696D01*
X1080769Y1174750D01*
X1080769Y1177290D01*
X1080758Y1177355D01*
X1080756Y1177421D01*
X1080738Y1177464D01*
X1080730Y1177511D01*
X1080696Y1177568D01*
X1080671Y1177628D01*
X1080640Y1177663D01*
X1080615Y1177704D01*
X1080564Y1177746D01*
X1080520Y1177794D01*
X1080478Y1177816D01*
X1080441Y1177845D01*
X1080379Y1177866D01*
X1080320Y1177897D01*
X1080266Y1177905D01*
X1080229Y1177917D01*
X1080189Y1177916D01*
X1080135Y1177924D01*
X1076325Y1177924D01*
X1076260Y1177913D01*
X1076194Y1177911D01*
X1076151Y1177893D01*
X1076104Y1177885D01*
X1076047Y1177851D01*
X1075987Y1177826D01*
X1075952Y1177795D01*
X1075911Y1177770D01*
X1075870Y1177719D01*
X1075821Y1177675D01*
X1075799Y1177633D01*
X1075770Y1177596D01*
X1075749Y1177534D01*
X1075718Y1177475D01*
X1075710Y1177421D01*
X1075698Y1177384D01*
X1075698Y1177381D01*
X1075699Y1177344D01*
X1075691Y1177290D01*
X1075691Y1174750D01*
X1075702Y1174685D01*
X1075704Y1174619D01*
X1075722Y1174576D01*
X1075730Y1174529D01*
X1075764Y1174472D01*
X1075789Y1174412D01*
X1075820Y1174377D01*
X1075845Y1174336D01*
X1075896Y1174295D01*
X1075940Y1174246D01*
X1075982Y1174224D01*
X1076019Y1174195D01*
X1076081Y1174174D01*
X1076140Y1174143D01*
X1076194Y1174135D01*
X1076231Y1174123D01*
X1076271Y1174124D01*
X1076325Y1174116D01*
X1080135Y1174116D01*
X1080200Y1174127D01*
G37*
G36*
X313120Y1153807D02*
X313120Y1153807D01*
X313186Y1153809D01*
X313229Y1153827D01*
X313276Y1153835D01*
X313333Y1153869D01*
X313393Y1153894D01*
X313428Y1153925D01*
X313469Y1153950D01*
X313511Y1154001D01*
X313559Y1154045D01*
X313581Y1154087D01*
X313610Y1154124D01*
X313631Y1154186D01*
X313662Y1154245D01*
X313670Y1154299D01*
X313682Y1154336D01*
X313681Y1154376D01*
X313689Y1154430D01*
X313689Y1156970D01*
X313678Y1157035D01*
X313676Y1157101D01*
X313658Y1157144D01*
X313650Y1157191D01*
X313616Y1157248D01*
X313591Y1157308D01*
X313560Y1157343D01*
X313535Y1157384D01*
X313484Y1157426D01*
X313440Y1157474D01*
X313398Y1157496D01*
X313361Y1157525D01*
X313299Y1157546D01*
X313240Y1157577D01*
X313186Y1157585D01*
X313149Y1157597D01*
X313109Y1157596D01*
X313055Y1157604D01*
X309245Y1157604D01*
X309180Y1157593D01*
X309114Y1157591D01*
X309071Y1157573D01*
X309024Y1157565D01*
X308967Y1157531D01*
X308907Y1157506D01*
X308872Y1157475D01*
X308831Y1157450D01*
X308790Y1157399D01*
X308741Y1157355D01*
X308719Y1157313D01*
X308690Y1157276D01*
X308669Y1157214D01*
X308638Y1157155D01*
X308630Y1157101D01*
X308618Y1157064D01*
X308618Y1157061D01*
X308619Y1157024D01*
X308611Y1156970D01*
X308611Y1154430D01*
X308622Y1154365D01*
X308624Y1154299D01*
X308642Y1154256D01*
X308650Y1154209D01*
X308684Y1154152D01*
X308709Y1154092D01*
X308740Y1154057D01*
X308765Y1154016D01*
X308816Y1153975D01*
X308860Y1153926D01*
X308902Y1153904D01*
X308939Y1153875D01*
X309001Y1153854D01*
X309060Y1153823D01*
X309114Y1153815D01*
X309151Y1153803D01*
X309191Y1153804D01*
X309245Y1153796D01*
X313055Y1153796D01*
X313120Y1153807D01*
G37*
G36*
X1080200Y1153807D02*
X1080200Y1153807D01*
X1080266Y1153809D01*
X1080309Y1153827D01*
X1080356Y1153835D01*
X1080413Y1153869D01*
X1080473Y1153894D01*
X1080508Y1153925D01*
X1080549Y1153950D01*
X1080591Y1154001D01*
X1080639Y1154045D01*
X1080661Y1154087D01*
X1080690Y1154124D01*
X1080711Y1154186D01*
X1080742Y1154245D01*
X1080750Y1154299D01*
X1080762Y1154336D01*
X1080761Y1154376D01*
X1080769Y1154430D01*
X1080769Y1156970D01*
X1080758Y1157035D01*
X1080756Y1157101D01*
X1080738Y1157144D01*
X1080730Y1157191D01*
X1080696Y1157248D01*
X1080671Y1157308D01*
X1080640Y1157343D01*
X1080615Y1157384D01*
X1080564Y1157426D01*
X1080520Y1157474D01*
X1080478Y1157496D01*
X1080441Y1157525D01*
X1080379Y1157546D01*
X1080320Y1157577D01*
X1080266Y1157585D01*
X1080229Y1157597D01*
X1080189Y1157596D01*
X1080135Y1157604D01*
X1076325Y1157604D01*
X1076260Y1157593D01*
X1076194Y1157591D01*
X1076151Y1157573D01*
X1076104Y1157565D01*
X1076047Y1157531D01*
X1075987Y1157506D01*
X1075952Y1157475D01*
X1075911Y1157450D01*
X1075870Y1157399D01*
X1075821Y1157355D01*
X1075799Y1157313D01*
X1075770Y1157276D01*
X1075749Y1157214D01*
X1075718Y1157155D01*
X1075710Y1157101D01*
X1075698Y1157064D01*
X1075698Y1157061D01*
X1075699Y1157024D01*
X1075691Y1156970D01*
X1075691Y1154430D01*
X1075702Y1154365D01*
X1075704Y1154299D01*
X1075722Y1154256D01*
X1075730Y1154209D01*
X1075764Y1154152D01*
X1075789Y1154092D01*
X1075820Y1154057D01*
X1075845Y1154016D01*
X1075896Y1153975D01*
X1075940Y1153926D01*
X1075982Y1153904D01*
X1076019Y1153875D01*
X1076081Y1153854D01*
X1076140Y1153823D01*
X1076194Y1153815D01*
X1076231Y1153803D01*
X1076271Y1153804D01*
X1076325Y1153796D01*
X1080135Y1153796D01*
X1080200Y1153807D01*
G37*
G36*
X388050Y1149997D02*
X388050Y1149997D01*
X388116Y1149999D01*
X388159Y1150017D01*
X388206Y1150025D01*
X388263Y1150059D01*
X388323Y1150084D01*
X388358Y1150115D01*
X388399Y1150140D01*
X388441Y1150191D01*
X388489Y1150235D01*
X388511Y1150277D01*
X388540Y1150314D01*
X388561Y1150376D01*
X388592Y1150435D01*
X388600Y1150489D01*
X388612Y1150526D01*
X388611Y1150566D01*
X388619Y1150620D01*
X388619Y1153160D01*
X388608Y1153225D01*
X388606Y1153291D01*
X388588Y1153334D01*
X388580Y1153381D01*
X388546Y1153438D01*
X388521Y1153498D01*
X388490Y1153533D01*
X388465Y1153574D01*
X388414Y1153616D01*
X388370Y1153664D01*
X388328Y1153686D01*
X388291Y1153715D01*
X388229Y1153736D01*
X388170Y1153767D01*
X388116Y1153775D01*
X388079Y1153787D01*
X388039Y1153786D01*
X387985Y1153794D01*
X384175Y1153794D01*
X384110Y1153783D01*
X384044Y1153781D01*
X384001Y1153763D01*
X383954Y1153755D01*
X383897Y1153721D01*
X383837Y1153696D01*
X383802Y1153665D01*
X383761Y1153640D01*
X383720Y1153589D01*
X383671Y1153545D01*
X383649Y1153503D01*
X383620Y1153466D01*
X383599Y1153404D01*
X383568Y1153345D01*
X383560Y1153291D01*
X383548Y1153254D01*
X383548Y1153251D01*
X383549Y1153214D01*
X383541Y1153160D01*
X383541Y1150620D01*
X383552Y1150555D01*
X383554Y1150489D01*
X383572Y1150446D01*
X383580Y1150399D01*
X383614Y1150342D01*
X383639Y1150282D01*
X383670Y1150247D01*
X383695Y1150206D01*
X383746Y1150165D01*
X383790Y1150116D01*
X383832Y1150094D01*
X383869Y1150065D01*
X383931Y1150044D01*
X383990Y1150013D01*
X384044Y1150005D01*
X384081Y1149993D01*
X384121Y1149994D01*
X384175Y1149986D01*
X387985Y1149986D01*
X388050Y1149997D01*
G37*
G36*
X1155130Y1149997D02*
X1155130Y1149997D01*
X1155196Y1149999D01*
X1155239Y1150017D01*
X1155286Y1150025D01*
X1155343Y1150059D01*
X1155403Y1150084D01*
X1155438Y1150115D01*
X1155479Y1150140D01*
X1155521Y1150191D01*
X1155569Y1150235D01*
X1155591Y1150277D01*
X1155620Y1150314D01*
X1155641Y1150376D01*
X1155672Y1150435D01*
X1155680Y1150489D01*
X1155692Y1150526D01*
X1155691Y1150566D01*
X1155699Y1150620D01*
X1155699Y1153160D01*
X1155688Y1153225D01*
X1155686Y1153291D01*
X1155668Y1153334D01*
X1155660Y1153381D01*
X1155626Y1153438D01*
X1155601Y1153498D01*
X1155570Y1153533D01*
X1155545Y1153574D01*
X1155494Y1153616D01*
X1155450Y1153664D01*
X1155408Y1153686D01*
X1155371Y1153715D01*
X1155309Y1153736D01*
X1155250Y1153767D01*
X1155196Y1153775D01*
X1155159Y1153787D01*
X1155119Y1153786D01*
X1155065Y1153794D01*
X1151255Y1153794D01*
X1151190Y1153783D01*
X1151124Y1153781D01*
X1151081Y1153763D01*
X1151034Y1153755D01*
X1150977Y1153721D01*
X1150917Y1153696D01*
X1150882Y1153665D01*
X1150841Y1153640D01*
X1150800Y1153589D01*
X1150751Y1153545D01*
X1150729Y1153503D01*
X1150700Y1153466D01*
X1150679Y1153404D01*
X1150648Y1153345D01*
X1150640Y1153291D01*
X1150628Y1153254D01*
X1150628Y1153251D01*
X1150629Y1153214D01*
X1150621Y1153160D01*
X1150621Y1150620D01*
X1150632Y1150555D01*
X1150634Y1150489D01*
X1150652Y1150446D01*
X1150660Y1150399D01*
X1150694Y1150342D01*
X1150719Y1150282D01*
X1150750Y1150247D01*
X1150775Y1150206D01*
X1150826Y1150165D01*
X1150870Y1150116D01*
X1150912Y1150094D01*
X1150949Y1150065D01*
X1151011Y1150044D01*
X1151070Y1150013D01*
X1151124Y1150005D01*
X1151161Y1149993D01*
X1151201Y1149994D01*
X1151255Y1149986D01*
X1155065Y1149986D01*
X1155130Y1149997D01*
G37*
G36*
X857950Y455307D02*
X857950Y455307D01*
X858016Y455309D01*
X858059Y455327D01*
X858106Y455335D01*
X858163Y455369D01*
X858223Y455394D01*
X858258Y455425D01*
X858299Y455450D01*
X858341Y455501D01*
X858389Y455545D01*
X858411Y455587D01*
X858440Y455624D01*
X858461Y455686D01*
X858492Y455745D01*
X858500Y455799D01*
X858512Y455836D01*
X858511Y455876D01*
X858519Y455930D01*
X858519Y458470D01*
X858508Y458535D01*
X858506Y458601D01*
X858488Y458644D01*
X858480Y458691D01*
X858446Y458748D01*
X858421Y458808D01*
X858390Y458843D01*
X858365Y458884D01*
X858314Y458926D01*
X858270Y458974D01*
X858228Y458996D01*
X858191Y459025D01*
X858129Y459046D01*
X858070Y459077D01*
X858016Y459085D01*
X857979Y459097D01*
X857939Y459096D01*
X857885Y459104D01*
X854075Y459104D01*
X854010Y459093D01*
X853944Y459091D01*
X853901Y459073D01*
X853854Y459065D01*
X853797Y459031D01*
X853737Y459006D01*
X853702Y458975D01*
X853661Y458950D01*
X853620Y458899D01*
X853571Y458855D01*
X853549Y458813D01*
X853520Y458776D01*
X853499Y458714D01*
X853468Y458655D01*
X853460Y458601D01*
X853448Y458564D01*
X853448Y458561D01*
X853449Y458524D01*
X853441Y458470D01*
X853441Y455930D01*
X853452Y455865D01*
X853454Y455799D01*
X853472Y455756D01*
X853480Y455709D01*
X853514Y455652D01*
X853539Y455592D01*
X853570Y455557D01*
X853595Y455516D01*
X853646Y455475D01*
X853690Y455426D01*
X853732Y455404D01*
X853769Y455375D01*
X853831Y455354D01*
X853890Y455323D01*
X853944Y455315D01*
X853981Y455303D01*
X854021Y455304D01*
X854075Y455296D01*
X857885Y455296D01*
X857950Y455307D01*
G37*
G36*
X90870Y455307D02*
X90870Y455307D01*
X90936Y455309D01*
X90979Y455327D01*
X91026Y455335D01*
X91083Y455369D01*
X91143Y455394D01*
X91178Y455425D01*
X91219Y455450D01*
X91261Y455501D01*
X91309Y455545D01*
X91331Y455587D01*
X91360Y455624D01*
X91381Y455686D01*
X91412Y455745D01*
X91420Y455799D01*
X91432Y455836D01*
X91431Y455876D01*
X91439Y455930D01*
X91439Y458470D01*
X91428Y458535D01*
X91426Y458601D01*
X91408Y458644D01*
X91400Y458691D01*
X91366Y458748D01*
X91341Y458808D01*
X91310Y458843D01*
X91285Y458884D01*
X91234Y458926D01*
X91190Y458974D01*
X91148Y458996D01*
X91111Y459025D01*
X91049Y459046D01*
X90990Y459077D01*
X90936Y459085D01*
X90899Y459097D01*
X90859Y459096D01*
X90805Y459104D01*
X86995Y459104D01*
X86930Y459093D01*
X86864Y459091D01*
X86821Y459073D01*
X86774Y459065D01*
X86717Y459031D01*
X86657Y459006D01*
X86622Y458975D01*
X86581Y458950D01*
X86540Y458899D01*
X86491Y458855D01*
X86469Y458813D01*
X86440Y458776D01*
X86419Y458714D01*
X86388Y458655D01*
X86380Y458601D01*
X86368Y458564D01*
X86368Y458561D01*
X86369Y458524D01*
X86361Y458470D01*
X86361Y455930D01*
X86372Y455865D01*
X86374Y455799D01*
X86392Y455756D01*
X86400Y455709D01*
X86434Y455652D01*
X86459Y455592D01*
X86490Y455557D01*
X86515Y455516D01*
X86566Y455475D01*
X86610Y455426D01*
X86652Y455404D01*
X86689Y455375D01*
X86751Y455354D01*
X86810Y455323D01*
X86864Y455315D01*
X86901Y455303D01*
X86941Y455304D01*
X86995Y455296D01*
X90805Y455296D01*
X90870Y455307D01*
G37*
G36*
X313120Y318147D02*
X313120Y318147D01*
X313186Y318149D01*
X313229Y318167D01*
X313276Y318175D01*
X313333Y318209D01*
X313393Y318234D01*
X313428Y318265D01*
X313469Y318290D01*
X313511Y318341D01*
X313559Y318385D01*
X313581Y318427D01*
X313610Y318464D01*
X313631Y318526D01*
X313662Y318585D01*
X313670Y318639D01*
X313682Y318676D01*
X313681Y318716D01*
X313689Y318770D01*
X313689Y321310D01*
X313678Y321375D01*
X313676Y321441D01*
X313658Y321484D01*
X313650Y321531D01*
X313616Y321588D01*
X313591Y321648D01*
X313560Y321683D01*
X313535Y321724D01*
X313484Y321766D01*
X313440Y321814D01*
X313398Y321836D01*
X313361Y321865D01*
X313299Y321886D01*
X313240Y321917D01*
X313186Y321925D01*
X313149Y321937D01*
X313109Y321936D01*
X313055Y321944D01*
X309245Y321944D01*
X309180Y321933D01*
X309114Y321931D01*
X309071Y321913D01*
X309024Y321905D01*
X308967Y321871D01*
X308907Y321846D01*
X308872Y321815D01*
X308831Y321790D01*
X308790Y321739D01*
X308741Y321695D01*
X308719Y321653D01*
X308690Y321616D01*
X308669Y321554D01*
X308638Y321495D01*
X308630Y321441D01*
X308618Y321404D01*
X308618Y321401D01*
X308619Y321364D01*
X308611Y321310D01*
X308611Y318770D01*
X308622Y318705D01*
X308624Y318639D01*
X308642Y318596D01*
X308650Y318549D01*
X308684Y318492D01*
X308709Y318432D01*
X308740Y318397D01*
X308765Y318356D01*
X308816Y318315D01*
X308860Y318266D01*
X308902Y318244D01*
X308939Y318215D01*
X309001Y318194D01*
X309060Y318163D01*
X309114Y318155D01*
X309151Y318143D01*
X309191Y318144D01*
X309245Y318136D01*
X313055Y318136D01*
X313120Y318147D01*
G37*
G36*
X1080200Y318147D02*
X1080200Y318147D01*
X1080266Y318149D01*
X1080309Y318167D01*
X1080356Y318175D01*
X1080413Y318209D01*
X1080473Y318234D01*
X1080508Y318265D01*
X1080549Y318290D01*
X1080591Y318341D01*
X1080639Y318385D01*
X1080661Y318427D01*
X1080690Y318464D01*
X1080711Y318526D01*
X1080742Y318585D01*
X1080750Y318639D01*
X1080762Y318676D01*
X1080761Y318716D01*
X1080769Y318770D01*
X1080769Y321310D01*
X1080758Y321375D01*
X1080756Y321441D01*
X1080738Y321484D01*
X1080730Y321531D01*
X1080696Y321588D01*
X1080671Y321648D01*
X1080640Y321683D01*
X1080615Y321724D01*
X1080564Y321766D01*
X1080520Y321814D01*
X1080478Y321836D01*
X1080441Y321865D01*
X1080379Y321886D01*
X1080320Y321917D01*
X1080266Y321925D01*
X1080229Y321937D01*
X1080189Y321936D01*
X1080135Y321944D01*
X1076325Y321944D01*
X1076260Y321933D01*
X1076194Y321931D01*
X1076151Y321913D01*
X1076104Y321905D01*
X1076047Y321871D01*
X1075987Y321846D01*
X1075952Y321815D01*
X1075911Y321790D01*
X1075870Y321739D01*
X1075821Y321695D01*
X1075799Y321653D01*
X1075770Y321616D01*
X1075749Y321554D01*
X1075718Y321495D01*
X1075710Y321441D01*
X1075698Y321404D01*
X1075698Y321401D01*
X1075699Y321364D01*
X1075691Y321310D01*
X1075691Y318770D01*
X1075702Y318705D01*
X1075704Y318639D01*
X1075722Y318596D01*
X1075730Y318549D01*
X1075764Y318492D01*
X1075789Y318432D01*
X1075820Y318397D01*
X1075845Y318356D01*
X1075896Y318315D01*
X1075940Y318266D01*
X1075982Y318244D01*
X1076019Y318215D01*
X1076081Y318194D01*
X1076140Y318163D01*
X1076194Y318155D01*
X1076231Y318143D01*
X1076271Y318144D01*
X1076325Y318136D01*
X1080135Y318136D01*
X1080200Y318147D01*
G37*
G36*
X313120Y297827D02*
X313120Y297827D01*
X313186Y297829D01*
X313229Y297847D01*
X313276Y297855D01*
X313333Y297889D01*
X313393Y297914D01*
X313428Y297945D01*
X313469Y297970D01*
X313511Y298021D01*
X313559Y298065D01*
X313581Y298107D01*
X313610Y298144D01*
X313631Y298206D01*
X313662Y298265D01*
X313670Y298319D01*
X313682Y298356D01*
X313681Y298396D01*
X313689Y298450D01*
X313689Y300990D01*
X313678Y301055D01*
X313676Y301121D01*
X313658Y301164D01*
X313650Y301211D01*
X313616Y301268D01*
X313591Y301328D01*
X313560Y301363D01*
X313535Y301404D01*
X313484Y301446D01*
X313440Y301494D01*
X313398Y301516D01*
X313361Y301545D01*
X313299Y301566D01*
X313240Y301597D01*
X313186Y301605D01*
X313149Y301617D01*
X313109Y301616D01*
X313055Y301624D01*
X309245Y301624D01*
X309180Y301613D01*
X309114Y301611D01*
X309071Y301593D01*
X309024Y301585D01*
X308967Y301551D01*
X308907Y301526D01*
X308872Y301495D01*
X308831Y301470D01*
X308790Y301419D01*
X308741Y301375D01*
X308719Y301333D01*
X308690Y301296D01*
X308669Y301234D01*
X308638Y301175D01*
X308630Y301121D01*
X308618Y301084D01*
X308618Y301081D01*
X308619Y301044D01*
X308611Y300990D01*
X308611Y298450D01*
X308622Y298385D01*
X308624Y298319D01*
X308642Y298276D01*
X308650Y298229D01*
X308684Y298172D01*
X308709Y298112D01*
X308740Y298077D01*
X308765Y298036D01*
X308816Y297995D01*
X308860Y297946D01*
X308902Y297924D01*
X308939Y297895D01*
X309001Y297874D01*
X309060Y297843D01*
X309114Y297835D01*
X309151Y297823D01*
X309191Y297824D01*
X309245Y297816D01*
X313055Y297816D01*
X313120Y297827D01*
G37*
G36*
X1080200Y297827D02*
X1080200Y297827D01*
X1080266Y297829D01*
X1080309Y297847D01*
X1080356Y297855D01*
X1080413Y297889D01*
X1080473Y297914D01*
X1080508Y297945D01*
X1080549Y297970D01*
X1080591Y298021D01*
X1080639Y298065D01*
X1080661Y298107D01*
X1080690Y298144D01*
X1080711Y298206D01*
X1080742Y298265D01*
X1080750Y298319D01*
X1080762Y298356D01*
X1080761Y298396D01*
X1080769Y298450D01*
X1080769Y300990D01*
X1080758Y301055D01*
X1080756Y301121D01*
X1080738Y301164D01*
X1080730Y301211D01*
X1080696Y301268D01*
X1080671Y301328D01*
X1080640Y301363D01*
X1080615Y301404D01*
X1080564Y301446D01*
X1080520Y301494D01*
X1080478Y301516D01*
X1080441Y301545D01*
X1080379Y301566D01*
X1080320Y301597D01*
X1080266Y301605D01*
X1080229Y301617D01*
X1080189Y301616D01*
X1080135Y301624D01*
X1076325Y301624D01*
X1076260Y301613D01*
X1076194Y301611D01*
X1076151Y301593D01*
X1076104Y301585D01*
X1076047Y301551D01*
X1075987Y301526D01*
X1075952Y301495D01*
X1075911Y301470D01*
X1075870Y301419D01*
X1075821Y301375D01*
X1075799Y301333D01*
X1075770Y301296D01*
X1075749Y301234D01*
X1075718Y301175D01*
X1075710Y301121D01*
X1075698Y301084D01*
X1075698Y301081D01*
X1075699Y301044D01*
X1075691Y300990D01*
X1075691Y298450D01*
X1075702Y298385D01*
X1075704Y298319D01*
X1075722Y298276D01*
X1075730Y298229D01*
X1075764Y298172D01*
X1075789Y298112D01*
X1075820Y298077D01*
X1075845Y298036D01*
X1075896Y297995D01*
X1075940Y297946D01*
X1075982Y297924D01*
X1076019Y297895D01*
X1076081Y297874D01*
X1076140Y297843D01*
X1076194Y297835D01*
X1076231Y297823D01*
X1076271Y297824D01*
X1076325Y297816D01*
X1080135Y297816D01*
X1080200Y297827D01*
G37*
G36*
X1155130Y294017D02*
X1155130Y294017D01*
X1155196Y294019D01*
X1155239Y294037D01*
X1155286Y294045D01*
X1155343Y294079D01*
X1155403Y294104D01*
X1155438Y294135D01*
X1155479Y294160D01*
X1155521Y294211D01*
X1155569Y294255D01*
X1155591Y294297D01*
X1155620Y294334D01*
X1155641Y294396D01*
X1155672Y294455D01*
X1155680Y294509D01*
X1155692Y294546D01*
X1155691Y294586D01*
X1155699Y294640D01*
X1155699Y297180D01*
X1155688Y297245D01*
X1155686Y297311D01*
X1155668Y297354D01*
X1155660Y297401D01*
X1155626Y297458D01*
X1155601Y297518D01*
X1155570Y297553D01*
X1155545Y297594D01*
X1155494Y297636D01*
X1155450Y297684D01*
X1155408Y297706D01*
X1155371Y297735D01*
X1155309Y297756D01*
X1155250Y297787D01*
X1155196Y297795D01*
X1155159Y297807D01*
X1155119Y297806D01*
X1155065Y297814D01*
X1151255Y297814D01*
X1151190Y297803D01*
X1151124Y297801D01*
X1151081Y297783D01*
X1151034Y297775D01*
X1150977Y297741D01*
X1150917Y297716D01*
X1150882Y297685D01*
X1150841Y297660D01*
X1150800Y297609D01*
X1150751Y297565D01*
X1150729Y297523D01*
X1150700Y297486D01*
X1150679Y297424D01*
X1150648Y297365D01*
X1150640Y297311D01*
X1150628Y297274D01*
X1150628Y297271D01*
X1150629Y297234D01*
X1150621Y297180D01*
X1150621Y294640D01*
X1150632Y294575D01*
X1150634Y294509D01*
X1150652Y294466D01*
X1150660Y294419D01*
X1150694Y294362D01*
X1150719Y294302D01*
X1150750Y294267D01*
X1150775Y294226D01*
X1150826Y294185D01*
X1150870Y294136D01*
X1150912Y294114D01*
X1150949Y294085D01*
X1151011Y294064D01*
X1151070Y294033D01*
X1151124Y294025D01*
X1151161Y294013D01*
X1151201Y294014D01*
X1151255Y294006D01*
X1155065Y294006D01*
X1155130Y294017D01*
G37*
G36*
X388050Y294017D02*
X388050Y294017D01*
X388116Y294019D01*
X388159Y294037D01*
X388206Y294045D01*
X388263Y294079D01*
X388323Y294104D01*
X388358Y294135D01*
X388399Y294160D01*
X388441Y294211D01*
X388489Y294255D01*
X388511Y294297D01*
X388540Y294334D01*
X388561Y294396D01*
X388592Y294455D01*
X388600Y294509D01*
X388612Y294546D01*
X388611Y294586D01*
X388619Y294640D01*
X388619Y297180D01*
X388608Y297245D01*
X388606Y297311D01*
X388588Y297354D01*
X388580Y297401D01*
X388546Y297458D01*
X388521Y297518D01*
X388490Y297553D01*
X388465Y297594D01*
X388414Y297636D01*
X388370Y297684D01*
X388328Y297706D01*
X388291Y297735D01*
X388229Y297756D01*
X388170Y297787D01*
X388116Y297795D01*
X388079Y297807D01*
X388039Y297806D01*
X387985Y297814D01*
X384175Y297814D01*
X384110Y297803D01*
X384044Y297801D01*
X384001Y297783D01*
X383954Y297775D01*
X383897Y297741D01*
X383837Y297716D01*
X383802Y297685D01*
X383761Y297660D01*
X383720Y297609D01*
X383671Y297565D01*
X383649Y297523D01*
X383620Y297486D01*
X383599Y297424D01*
X383568Y297365D01*
X383560Y297311D01*
X383548Y297274D01*
X383548Y297271D01*
X383549Y297234D01*
X383541Y297180D01*
X383541Y294640D01*
X383552Y294575D01*
X383554Y294509D01*
X383572Y294466D01*
X383580Y294419D01*
X383614Y294362D01*
X383639Y294302D01*
X383670Y294267D01*
X383695Y294226D01*
X383746Y294185D01*
X383790Y294136D01*
X383832Y294114D01*
X383869Y294085D01*
X383931Y294064D01*
X383990Y294033D01*
X384044Y294025D01*
X384081Y294013D01*
X384121Y294014D01*
X384175Y294006D01*
X387985Y294006D01*
X388050Y294017D01*
G37*
G36*
X1080200Y277507D02*
X1080200Y277507D01*
X1080266Y277509D01*
X1080309Y277527D01*
X1080356Y277535D01*
X1080413Y277569D01*
X1080473Y277594D01*
X1080508Y277625D01*
X1080549Y277650D01*
X1080591Y277701D01*
X1080639Y277745D01*
X1080661Y277787D01*
X1080690Y277824D01*
X1080711Y277886D01*
X1080742Y277945D01*
X1080750Y277999D01*
X1080762Y278036D01*
X1080761Y278076D01*
X1080769Y278130D01*
X1080769Y280670D01*
X1080758Y280735D01*
X1080756Y280801D01*
X1080738Y280844D01*
X1080730Y280891D01*
X1080696Y280948D01*
X1080671Y281008D01*
X1080640Y281043D01*
X1080615Y281084D01*
X1080564Y281126D01*
X1080520Y281174D01*
X1080478Y281196D01*
X1080441Y281225D01*
X1080379Y281246D01*
X1080320Y281277D01*
X1080266Y281285D01*
X1080229Y281297D01*
X1080189Y281296D01*
X1080135Y281304D01*
X1076325Y281304D01*
X1076260Y281293D01*
X1076194Y281291D01*
X1076151Y281273D01*
X1076104Y281265D01*
X1076047Y281231D01*
X1075987Y281206D01*
X1075952Y281175D01*
X1075911Y281150D01*
X1075870Y281099D01*
X1075821Y281055D01*
X1075799Y281013D01*
X1075770Y280976D01*
X1075749Y280914D01*
X1075718Y280855D01*
X1075710Y280801D01*
X1075698Y280764D01*
X1075698Y280761D01*
X1075699Y280724D01*
X1075691Y280670D01*
X1075691Y278130D01*
X1075702Y278065D01*
X1075704Y277999D01*
X1075722Y277956D01*
X1075730Y277909D01*
X1075764Y277852D01*
X1075789Y277792D01*
X1075820Y277757D01*
X1075845Y277716D01*
X1075896Y277675D01*
X1075940Y277626D01*
X1075982Y277604D01*
X1076019Y277575D01*
X1076081Y277554D01*
X1076140Y277523D01*
X1076194Y277515D01*
X1076231Y277503D01*
X1076271Y277504D01*
X1076325Y277496D01*
X1080135Y277496D01*
X1080200Y277507D01*
G37*
G36*
X1365950Y423557D02*
X1365950Y423557D01*
X1366016Y423559D01*
X1366059Y423577D01*
X1366106Y423585D01*
X1366163Y423619D01*
X1366223Y423644D01*
X1366258Y423675D01*
X1366299Y423700D01*
X1366341Y423751D01*
X1366389Y423795D01*
X1366411Y423837D01*
X1366440Y423874D01*
X1366461Y423936D01*
X1366492Y423995D01*
X1366500Y424049D01*
X1366512Y424086D01*
X1366511Y424126D01*
X1366519Y424180D01*
X1366519Y426720D01*
X1366508Y426785D01*
X1366506Y426851D01*
X1366488Y426894D01*
X1366480Y426941D01*
X1366446Y426998D01*
X1366421Y427058D01*
X1366390Y427093D01*
X1366365Y427134D01*
X1366314Y427176D01*
X1366270Y427224D01*
X1366228Y427246D01*
X1366191Y427275D01*
X1366129Y427296D01*
X1366070Y427327D01*
X1366016Y427335D01*
X1365979Y427347D01*
X1365939Y427346D01*
X1365885Y427354D01*
X1362075Y427354D01*
X1362010Y427343D01*
X1361944Y427341D01*
X1361901Y427323D01*
X1361854Y427315D01*
X1361797Y427281D01*
X1361737Y427256D01*
X1361702Y427225D01*
X1361661Y427200D01*
X1361620Y427149D01*
X1361571Y427105D01*
X1361549Y427063D01*
X1361520Y427026D01*
X1361499Y426964D01*
X1361468Y426905D01*
X1361460Y426851D01*
X1361448Y426814D01*
X1361448Y426811D01*
X1361449Y426774D01*
X1361441Y426720D01*
X1361441Y424180D01*
X1361452Y424115D01*
X1361454Y424049D01*
X1361472Y424006D01*
X1361480Y423959D01*
X1361514Y423902D01*
X1361539Y423842D01*
X1361570Y423807D01*
X1361595Y423766D01*
X1361646Y423725D01*
X1361690Y423676D01*
X1361732Y423654D01*
X1361769Y423625D01*
X1361831Y423604D01*
X1361890Y423573D01*
X1361944Y423565D01*
X1361981Y423553D01*
X1362021Y423554D01*
X1362075Y423546D01*
X1365885Y423546D01*
X1365950Y423557D01*
G37*
G36*
X598870Y423557D02*
X598870Y423557D01*
X598936Y423559D01*
X598979Y423577D01*
X599026Y423585D01*
X599083Y423619D01*
X599143Y423644D01*
X599178Y423675D01*
X599219Y423700D01*
X599261Y423751D01*
X599309Y423795D01*
X599331Y423837D01*
X599360Y423874D01*
X599381Y423936D01*
X599412Y423995D01*
X599420Y424049D01*
X599432Y424086D01*
X599431Y424126D01*
X599439Y424180D01*
X599439Y426720D01*
X599428Y426785D01*
X599426Y426851D01*
X599408Y426894D01*
X599400Y426941D01*
X599366Y426998D01*
X599341Y427058D01*
X599310Y427093D01*
X599285Y427134D01*
X599234Y427176D01*
X599190Y427224D01*
X599148Y427246D01*
X599111Y427275D01*
X599049Y427296D01*
X598990Y427327D01*
X598936Y427335D01*
X598899Y427347D01*
X598859Y427346D01*
X598805Y427354D01*
X594995Y427354D01*
X594930Y427343D01*
X594864Y427341D01*
X594821Y427323D01*
X594774Y427315D01*
X594717Y427281D01*
X594657Y427256D01*
X594622Y427225D01*
X594581Y427200D01*
X594540Y427149D01*
X594491Y427105D01*
X594469Y427063D01*
X594440Y427026D01*
X594419Y426964D01*
X594388Y426905D01*
X594380Y426851D01*
X594368Y426814D01*
X594368Y426811D01*
X594369Y426774D01*
X594361Y426720D01*
X594361Y424180D01*
X594372Y424115D01*
X594374Y424049D01*
X594392Y424006D01*
X594400Y423959D01*
X594434Y423902D01*
X594459Y423842D01*
X594490Y423807D01*
X594515Y423766D01*
X594566Y423725D01*
X594610Y423676D01*
X594652Y423654D01*
X594689Y423625D01*
X594751Y423604D01*
X594810Y423573D01*
X594864Y423565D01*
X594901Y423553D01*
X594941Y423554D01*
X594995Y423546D01*
X598805Y423546D01*
X598870Y423557D01*
G37*
G36*
X497270Y410857D02*
X497270Y410857D01*
X497336Y410859D01*
X497379Y410877D01*
X497426Y410885D01*
X497483Y410919D01*
X497543Y410944D01*
X497578Y410975D01*
X497619Y411000D01*
X497661Y411051D01*
X497709Y411095D01*
X497731Y411137D01*
X497760Y411174D01*
X497781Y411236D01*
X497812Y411295D01*
X497820Y411349D01*
X497832Y411386D01*
X497831Y411426D01*
X497839Y411480D01*
X497839Y414020D01*
X497828Y414085D01*
X497826Y414151D01*
X497808Y414194D01*
X497800Y414241D01*
X497766Y414298D01*
X497741Y414358D01*
X497710Y414393D01*
X497685Y414434D01*
X497634Y414476D01*
X497590Y414524D01*
X497548Y414546D01*
X497511Y414575D01*
X497449Y414596D01*
X497390Y414627D01*
X497336Y414635D01*
X497299Y414647D01*
X497259Y414646D01*
X497205Y414654D01*
X493395Y414654D01*
X493330Y414643D01*
X493264Y414641D01*
X493221Y414623D01*
X493174Y414615D01*
X493117Y414581D01*
X493057Y414556D01*
X493022Y414525D01*
X492981Y414500D01*
X492940Y414449D01*
X492891Y414405D01*
X492869Y414363D01*
X492840Y414326D01*
X492819Y414264D01*
X492788Y414205D01*
X492780Y414151D01*
X492768Y414114D01*
X492768Y414111D01*
X492769Y414074D01*
X492761Y414020D01*
X492761Y411480D01*
X492772Y411415D01*
X492774Y411349D01*
X492792Y411306D01*
X492800Y411259D01*
X492834Y411202D01*
X492859Y411142D01*
X492890Y411107D01*
X492915Y411066D01*
X492966Y411025D01*
X493010Y410976D01*
X493052Y410954D01*
X493089Y410925D01*
X493151Y410904D01*
X493210Y410873D01*
X493264Y410865D01*
X493301Y410853D01*
X493341Y410854D01*
X493395Y410846D01*
X497205Y410846D01*
X497270Y410857D01*
G37*
G36*
X313120Y1133487D02*
X313120Y1133487D01*
X313186Y1133489D01*
X313229Y1133507D01*
X313276Y1133515D01*
X313333Y1133549D01*
X313393Y1133574D01*
X313428Y1133605D01*
X313469Y1133630D01*
X313511Y1133681D01*
X313559Y1133725D01*
X313581Y1133767D01*
X313610Y1133804D01*
X313631Y1133866D01*
X313662Y1133925D01*
X313670Y1133979D01*
X313682Y1134016D01*
X313681Y1134056D01*
X313689Y1134110D01*
X313689Y1136650D01*
X313678Y1136715D01*
X313676Y1136781D01*
X313658Y1136824D01*
X313650Y1136871D01*
X313616Y1136928D01*
X313591Y1136988D01*
X313560Y1137023D01*
X313535Y1137064D01*
X313484Y1137106D01*
X313440Y1137154D01*
X313398Y1137176D01*
X313361Y1137205D01*
X313299Y1137226D01*
X313240Y1137257D01*
X313186Y1137265D01*
X313149Y1137277D01*
X313109Y1137276D01*
X313055Y1137284D01*
X309245Y1137284D01*
X309180Y1137273D01*
X309114Y1137271D01*
X309071Y1137253D01*
X309024Y1137245D01*
X308967Y1137211D01*
X308907Y1137186D01*
X308872Y1137155D01*
X308831Y1137130D01*
X308790Y1137079D01*
X308741Y1137035D01*
X308719Y1136993D01*
X308690Y1136956D01*
X308669Y1136894D01*
X308638Y1136835D01*
X308630Y1136781D01*
X308618Y1136744D01*
X308618Y1136741D01*
X308619Y1136704D01*
X308611Y1136650D01*
X308611Y1134110D01*
X308622Y1134045D01*
X308624Y1133979D01*
X308642Y1133936D01*
X308650Y1133889D01*
X308684Y1133832D01*
X308709Y1133772D01*
X308740Y1133737D01*
X308765Y1133696D01*
X308816Y1133655D01*
X308860Y1133606D01*
X308902Y1133584D01*
X308939Y1133555D01*
X309001Y1133534D01*
X309060Y1133503D01*
X309114Y1133495D01*
X309151Y1133483D01*
X309191Y1133484D01*
X309245Y1133476D01*
X313055Y1133476D01*
X313120Y1133487D01*
G37*
G36*
X1080200Y1133487D02*
X1080200Y1133487D01*
X1080266Y1133489D01*
X1080309Y1133507D01*
X1080356Y1133515D01*
X1080413Y1133549D01*
X1080473Y1133574D01*
X1080508Y1133605D01*
X1080549Y1133630D01*
X1080591Y1133681D01*
X1080639Y1133725D01*
X1080661Y1133767D01*
X1080690Y1133804D01*
X1080711Y1133866D01*
X1080742Y1133925D01*
X1080750Y1133979D01*
X1080762Y1134016D01*
X1080761Y1134056D01*
X1080769Y1134110D01*
X1080769Y1136650D01*
X1080758Y1136715D01*
X1080756Y1136781D01*
X1080738Y1136824D01*
X1080730Y1136871D01*
X1080696Y1136928D01*
X1080671Y1136988D01*
X1080640Y1137023D01*
X1080615Y1137064D01*
X1080564Y1137106D01*
X1080520Y1137154D01*
X1080478Y1137176D01*
X1080441Y1137205D01*
X1080379Y1137226D01*
X1080320Y1137257D01*
X1080266Y1137265D01*
X1080229Y1137277D01*
X1080189Y1137276D01*
X1080135Y1137284D01*
X1076325Y1137284D01*
X1076260Y1137273D01*
X1076194Y1137271D01*
X1076151Y1137253D01*
X1076104Y1137245D01*
X1076047Y1137211D01*
X1075987Y1137186D01*
X1075952Y1137155D01*
X1075911Y1137130D01*
X1075870Y1137079D01*
X1075821Y1137035D01*
X1075799Y1136993D01*
X1075770Y1136956D01*
X1075749Y1136894D01*
X1075718Y1136835D01*
X1075710Y1136781D01*
X1075698Y1136744D01*
X1075698Y1136741D01*
X1075699Y1136704D01*
X1075691Y1136650D01*
X1075691Y1134110D01*
X1075702Y1134045D01*
X1075704Y1133979D01*
X1075722Y1133936D01*
X1075730Y1133889D01*
X1075764Y1133832D01*
X1075789Y1133772D01*
X1075820Y1133737D01*
X1075845Y1133696D01*
X1075896Y1133655D01*
X1075940Y1133606D01*
X1075982Y1133584D01*
X1076019Y1133555D01*
X1076081Y1133534D01*
X1076140Y1133503D01*
X1076194Y1133495D01*
X1076231Y1133483D01*
X1076271Y1133484D01*
X1076325Y1133476D01*
X1080135Y1133476D01*
X1080200Y1133487D01*
G37*
G36*
X1264350Y410857D02*
X1264350Y410857D01*
X1264416Y410859D01*
X1264459Y410877D01*
X1264506Y410885D01*
X1264563Y410919D01*
X1264623Y410944D01*
X1264658Y410975D01*
X1264699Y411000D01*
X1264741Y411051D01*
X1264789Y411095D01*
X1264811Y411137D01*
X1264840Y411174D01*
X1264861Y411236D01*
X1264892Y411295D01*
X1264900Y411349D01*
X1264912Y411386D01*
X1264911Y411426D01*
X1264919Y411480D01*
X1264919Y414020D01*
X1264908Y414085D01*
X1264906Y414151D01*
X1264888Y414194D01*
X1264880Y414241D01*
X1264846Y414298D01*
X1264821Y414358D01*
X1264790Y414393D01*
X1264765Y414434D01*
X1264714Y414476D01*
X1264670Y414524D01*
X1264628Y414546D01*
X1264591Y414575D01*
X1264529Y414596D01*
X1264470Y414627D01*
X1264416Y414635D01*
X1264379Y414647D01*
X1264339Y414646D01*
X1264285Y414654D01*
X1260475Y414654D01*
X1260410Y414643D01*
X1260344Y414641D01*
X1260301Y414623D01*
X1260254Y414615D01*
X1260197Y414581D01*
X1260137Y414556D01*
X1260102Y414525D01*
X1260061Y414500D01*
X1260020Y414449D01*
X1259971Y414405D01*
X1259949Y414363D01*
X1259920Y414326D01*
X1259899Y414264D01*
X1259868Y414205D01*
X1259860Y414151D01*
X1259848Y414114D01*
X1259848Y414111D01*
X1259849Y414074D01*
X1259841Y414020D01*
X1259841Y411480D01*
X1259852Y411415D01*
X1259854Y411349D01*
X1259872Y411306D01*
X1259880Y411259D01*
X1259914Y411202D01*
X1259939Y411142D01*
X1259970Y411107D01*
X1259995Y411066D01*
X1260046Y411025D01*
X1260090Y410976D01*
X1260132Y410954D01*
X1260169Y410925D01*
X1260231Y410904D01*
X1260290Y410873D01*
X1260344Y410865D01*
X1260381Y410853D01*
X1260421Y410854D01*
X1260475Y410846D01*
X1264285Y410846D01*
X1264350Y410857D01*
G37*
G36*
X857950Y475627D02*
X857950Y475627D01*
X858016Y475629D01*
X858059Y475647D01*
X858106Y475655D01*
X858163Y475689D01*
X858223Y475714D01*
X858258Y475745D01*
X858299Y475770D01*
X858341Y475821D01*
X858389Y475865D01*
X858411Y475907D01*
X858440Y475944D01*
X858461Y476006D01*
X858492Y476065D01*
X858500Y476119D01*
X858512Y476156D01*
X858511Y476196D01*
X858519Y476250D01*
X858519Y478790D01*
X858508Y478855D01*
X858506Y478921D01*
X858488Y478964D01*
X858480Y479011D01*
X858446Y479068D01*
X858421Y479128D01*
X858390Y479163D01*
X858365Y479204D01*
X858314Y479246D01*
X858270Y479294D01*
X858228Y479316D01*
X858191Y479345D01*
X858129Y479366D01*
X858070Y479397D01*
X858016Y479405D01*
X857979Y479417D01*
X857939Y479416D01*
X857885Y479424D01*
X854075Y479424D01*
X854010Y479413D01*
X853944Y479411D01*
X853901Y479393D01*
X853854Y479385D01*
X853797Y479351D01*
X853737Y479326D01*
X853702Y479295D01*
X853661Y479270D01*
X853620Y479219D01*
X853571Y479175D01*
X853549Y479133D01*
X853520Y479096D01*
X853499Y479034D01*
X853468Y478975D01*
X853460Y478921D01*
X853448Y478884D01*
X853448Y478881D01*
X853449Y478844D01*
X853441Y478790D01*
X853441Y476250D01*
X853452Y476185D01*
X853454Y476119D01*
X853472Y476076D01*
X853480Y476029D01*
X853514Y475972D01*
X853539Y475912D01*
X853570Y475877D01*
X853595Y475836D01*
X853646Y475795D01*
X853690Y475746D01*
X853732Y475724D01*
X853769Y475695D01*
X853831Y475674D01*
X853890Y475643D01*
X853944Y475635D01*
X853981Y475623D01*
X854021Y475624D01*
X854075Y475616D01*
X857885Y475616D01*
X857950Y475627D01*
G37*
G36*
X90870Y475627D02*
X90870Y475627D01*
X90936Y475629D01*
X90979Y475647D01*
X91026Y475655D01*
X91083Y475689D01*
X91143Y475714D01*
X91178Y475745D01*
X91219Y475770D01*
X91261Y475821D01*
X91309Y475865D01*
X91331Y475907D01*
X91360Y475944D01*
X91381Y476006D01*
X91412Y476065D01*
X91420Y476119D01*
X91432Y476156D01*
X91431Y476196D01*
X91439Y476250D01*
X91439Y478790D01*
X91428Y478855D01*
X91426Y478921D01*
X91408Y478964D01*
X91400Y479011D01*
X91366Y479068D01*
X91341Y479128D01*
X91310Y479163D01*
X91285Y479204D01*
X91234Y479246D01*
X91190Y479294D01*
X91148Y479316D01*
X91111Y479345D01*
X91049Y479366D01*
X90990Y479397D01*
X90936Y479405D01*
X90899Y479417D01*
X90859Y479416D01*
X90805Y479424D01*
X86995Y479424D01*
X86930Y479413D01*
X86864Y479411D01*
X86821Y479393D01*
X86774Y479385D01*
X86717Y479351D01*
X86657Y479326D01*
X86622Y479295D01*
X86581Y479270D01*
X86540Y479219D01*
X86491Y479175D01*
X86469Y479133D01*
X86440Y479096D01*
X86419Y479034D01*
X86388Y478975D01*
X86380Y478921D01*
X86368Y478884D01*
X86368Y478881D01*
X86369Y478844D01*
X86361Y478790D01*
X86361Y476250D01*
X86372Y476185D01*
X86374Y476119D01*
X86392Y476076D01*
X86400Y476029D01*
X86434Y475972D01*
X86459Y475912D01*
X86490Y475877D01*
X86515Y475836D01*
X86566Y475795D01*
X86610Y475746D01*
X86652Y475724D01*
X86689Y475695D01*
X86751Y475674D01*
X86810Y475643D01*
X86864Y475635D01*
X86901Y475623D01*
X86941Y475624D01*
X86995Y475616D01*
X90805Y475616D01*
X90870Y475627D01*
G37*
G36*
X313120Y277507D02*
X313120Y277507D01*
X313186Y277509D01*
X313229Y277527D01*
X313276Y277535D01*
X313333Y277569D01*
X313393Y277594D01*
X313428Y277625D01*
X313469Y277650D01*
X313511Y277701D01*
X313559Y277745D01*
X313581Y277787D01*
X313610Y277824D01*
X313631Y277886D01*
X313662Y277945D01*
X313670Y277999D01*
X313682Y278036D01*
X313681Y278076D01*
X313689Y278130D01*
X313689Y280670D01*
X313678Y280735D01*
X313676Y280801D01*
X313658Y280844D01*
X313650Y280891D01*
X313616Y280948D01*
X313591Y281008D01*
X313560Y281043D01*
X313535Y281084D01*
X313484Y281126D01*
X313440Y281174D01*
X313398Y281196D01*
X313361Y281225D01*
X313299Y281246D01*
X313240Y281277D01*
X313186Y281285D01*
X313149Y281297D01*
X313109Y281296D01*
X313055Y281304D01*
X309245Y281304D01*
X309180Y281293D01*
X309114Y281291D01*
X309071Y281273D01*
X309024Y281265D01*
X308967Y281231D01*
X308907Y281206D01*
X308872Y281175D01*
X308831Y281150D01*
X308790Y281099D01*
X308741Y281055D01*
X308719Y281013D01*
X308690Y280976D01*
X308669Y280914D01*
X308638Y280855D01*
X308630Y280801D01*
X308618Y280764D01*
X308618Y280761D01*
X308619Y280724D01*
X308611Y280670D01*
X308611Y278130D01*
X308622Y278065D01*
X308624Y277999D01*
X308642Y277956D01*
X308650Y277909D01*
X308684Y277852D01*
X308709Y277792D01*
X308740Y277757D01*
X308765Y277716D01*
X308816Y277675D01*
X308860Y277626D01*
X308902Y277604D01*
X308939Y277575D01*
X309001Y277554D01*
X309060Y277523D01*
X309114Y277515D01*
X309151Y277503D01*
X309191Y277504D01*
X309245Y277496D01*
X313055Y277496D01*
X313120Y277507D01*
G37*
D10*
X161600Y49050D03*
X219400Y49050D03*
D11*
X7620Y7620D03*
X754380Y755650D03*
D12*
X596900Y383700D03*
D13*
X736600Y736600D03*
X25400Y736600D03*
X736600Y25400D03*
X25400Y25400D03*
D14*
X660400Y459486D03*
X660400Y469900D03*
X660400Y480314D03*
D15*
X88900Y34036D03*
X88900Y42164D03*
D16*
X231140Y143510D03*
X241300Y143510D03*
D17*
X223520Y143510D03*
X248920Y143510D03*
D18*
X317500Y184150D03*
X304800Y184150D03*
X292100Y184150D03*
X279400Y184150D03*
X330200Y184150D03*
X317500Y171450D03*
X304800Y171450D03*
X292100Y171450D03*
X279400Y171450D03*
X330200Y171450D03*
D19*
X602107Y425450D03*
X591693Y425450D03*
D17*
X12700Y431800D03*
X12700Y406400D03*
X12700Y381000D03*
X12700Y355600D03*
X12700Y330200D03*
X723900Y279400D03*
X723900Y304800D03*
X723900Y330200D03*
X723900Y355600D03*
X723900Y381000D03*
X723900Y406400D03*
X749300Y279400D03*
X749300Y304800D03*
X749300Y330200D03*
X749300Y355600D03*
X749300Y381000D03*
X749300Y406400D03*
X749300Y508000D03*
X749300Y482600D03*
X749300Y457200D03*
X749300Y431800D03*
D20*
X518200Y277300D03*
D19*
X94107Y477520D03*
X83693Y477520D03*
D21*
X317500Y217500D03*
D22*
X317500Y417500D03*
D17*
X12700Y76200D03*
D19*
X94107Y457200D03*
X83693Y457200D03*
D16*
X362966Y208280D03*
X371094Y208280D03*
D14*
X685800Y103886D03*
X685800Y114300D03*
X685800Y124714D03*
D17*
X749300Y254000D03*
X749300Y228600D03*
X749300Y203200D03*
X749300Y177800D03*
X368300Y25400D03*
X393700Y25400D03*
X12700Y635000D03*
X12700Y609600D03*
X12700Y584200D03*
X12700Y558800D03*
D15*
X215900Y516636D03*
X215900Y524764D03*
X190500Y516636D03*
X190500Y524764D03*
X165100Y516636D03*
X165100Y524764D03*
D17*
X12700Y203200D03*
X12700Y177800D03*
X12700Y152400D03*
X12700Y127000D03*
X12700Y101600D03*
D19*
X490093Y412750D03*
X500507Y412750D03*
D17*
X12700Y660400D03*
X12700Y685800D03*
D15*
X565150Y537464D03*
X565150Y529336D03*
X534670Y537464D03*
X534670Y529336D03*
D23*
X419100Y508000D03*
X406400Y508000D03*
X393700Y508000D03*
X381000Y508000D03*
X419100Y419100D03*
X406400Y419100D03*
X393700Y419100D03*
X381000Y419100D03*
X533400Y571500D03*
X558800Y571500D03*
X508000Y711200D03*
X520700Y723900D03*
X355600Y508000D03*
X342900Y508000D03*
X330200Y508000D03*
X317500Y508000D03*
X355600Y444500D03*
X342900Y444500D03*
X330200Y444500D03*
X317500Y444500D03*
D19*
X316357Y279400D03*
X305943Y279400D03*
X316357Y299720D03*
X305943Y299720D03*
X316357Y320040D03*
X305943Y320040D03*
D16*
X315214Y340360D03*
X307086Y340360D03*
X315214Y360680D03*
X307086Y360680D03*
X226314Y420370D03*
X218186Y420370D03*
X226314Y400050D03*
X218186Y400050D03*
X226314Y379730D03*
X218186Y379730D03*
D14*
X628650Y396113D03*
X628650Y406527D03*
X565150Y396113D03*
X565150Y406527D03*
D23*
X127000Y406400D03*
X571500Y596900D03*
X558800Y101600D03*
X266700Y38100D03*
D14*
X299720Y538734D03*
X299720Y528320D03*
X299720Y517906D03*
X164783Y151575D03*
X164783Y141161D03*
D19*
X391287Y295910D03*
X380873Y295910D03*
D10*
X928680Y49050D03*
X986480Y49050D03*
D11*
X774700Y7620D03*
X1521460Y755650D03*
D12*
X1363980Y383700D03*
D13*
X1503680Y736600D03*
X792480Y736600D03*
X1503680Y25400D03*
X792480Y25400D03*
D14*
X1427480Y459486D03*
X1427480Y469900D03*
X1427480Y480314D03*
D15*
X855980Y34036D03*
X855980Y42164D03*
D16*
X998220Y143510D03*
X1008380Y143510D03*
D17*
X990600Y143510D03*
X1016000Y143510D03*
D18*
X1084580Y184150D03*
X1071880Y184150D03*
X1059180Y184150D03*
X1046480Y184150D03*
X1097280Y184150D03*
X1084580Y171450D03*
X1071880Y171450D03*
X1059180Y171450D03*
X1046480Y171450D03*
X1097280Y171450D03*
D19*
X1369187Y425450D03*
X1358773Y425450D03*
D17*
X779780Y431800D03*
X779780Y406400D03*
X779780Y381000D03*
X779780Y355600D03*
X779780Y330200D03*
X1490980Y279400D03*
X1490980Y304800D03*
X1490980Y330200D03*
X1490980Y355600D03*
X1490980Y381000D03*
X1490980Y406400D03*
X1516380Y279400D03*
X1516380Y304800D03*
X1516380Y330200D03*
X1516380Y355600D03*
X1516380Y381000D03*
X1516380Y406400D03*
X1516380Y508000D03*
X1516380Y482600D03*
X1516380Y457200D03*
X1516380Y431800D03*
D20*
X1285280Y277300D03*
D19*
X861187Y477520D03*
X850773Y477520D03*
D21*
X1084580Y217500D03*
D22*
X1084580Y417500D03*
D17*
X779780Y76200D03*
D19*
X861187Y457200D03*
X850773Y457200D03*
D16*
X1130046Y208280D03*
X1138174Y208280D03*
D14*
X1452880Y103886D03*
X1452880Y114300D03*
X1452880Y124714D03*
D17*
X1516380Y254000D03*
X1516380Y228600D03*
X1516380Y203200D03*
X1516380Y177800D03*
X1135380Y25400D03*
X1160780Y25400D03*
X779780Y635000D03*
X779780Y609600D03*
X779780Y584200D03*
X779780Y558800D03*
D15*
X982980Y516636D03*
X982980Y524764D03*
X957580Y516636D03*
X957580Y524764D03*
X932180Y516636D03*
X932180Y524764D03*
D17*
X779780Y203200D03*
X779780Y177800D03*
X779780Y152400D03*
X779780Y127000D03*
X779780Y101600D03*
D19*
X1257173Y412750D03*
X1267587Y412750D03*
D17*
X779780Y660400D03*
X779780Y685800D03*
D15*
X1332230Y537464D03*
X1332230Y529336D03*
X1301750Y537464D03*
X1301750Y529336D03*
D23*
X1186180Y508000D03*
X1173480Y508000D03*
X1160780Y508000D03*
X1148080Y508000D03*
X1186180Y419100D03*
X1173480Y419100D03*
X1160780Y419100D03*
X1148080Y419100D03*
X1300480Y571500D03*
X1325880Y571500D03*
X1275080Y711200D03*
X1287780Y723900D03*
X1122680Y508000D03*
X1109980Y508000D03*
X1097280Y508000D03*
X1084580Y508000D03*
X1122680Y444500D03*
X1109980Y444500D03*
X1097280Y444500D03*
X1084580Y444500D03*
D19*
X1083437Y279400D03*
X1073023Y279400D03*
X1083437Y299720D03*
X1073023Y299720D03*
X1083437Y320040D03*
X1073023Y320040D03*
D16*
X1082294Y340360D03*
X1074166Y340360D03*
X1082294Y360680D03*
X1074166Y360680D03*
X993394Y420370D03*
X985266Y420370D03*
X993394Y400050D03*
X985266Y400050D03*
X993394Y379730D03*
X985266Y379730D03*
D14*
X1395730Y396113D03*
X1395730Y406527D03*
X1332230Y396113D03*
X1332230Y406527D03*
D23*
X894080Y406400D03*
X1338580Y596900D03*
X1325880Y101600D03*
X1033780Y38100D03*
D14*
X1066800Y538734D03*
X1066800Y528320D03*
X1066800Y517906D03*
X931863Y151575D03*
X931863Y141161D03*
D19*
X1158367Y295910D03*
X1147953Y295910D03*
D10*
X161600Y905030D03*
X219400Y905030D03*
D11*
X7620Y863600D03*
X754380Y1611630D03*
D12*
X596900Y1239680D03*
D13*
X736600Y1592580D03*
X25400Y1592580D03*
X736600Y881380D03*
X25400Y881380D03*
D14*
X660400Y1315466D03*
X660400Y1325880D03*
X660400Y1336294D03*
D15*
X88900Y890016D03*
X88900Y898144D03*
D16*
X231140Y999490D03*
X241300Y999490D03*
D17*
X223520Y999490D03*
X248920Y999490D03*
D18*
X317500Y1040130D03*
X304800Y1040130D03*
X292100Y1040130D03*
X279400Y1040130D03*
X330200Y1040130D03*
X317500Y1027430D03*
X304800Y1027430D03*
X292100Y1027430D03*
X279400Y1027430D03*
X330200Y1027430D03*
D19*
X602107Y1281430D03*
X591693Y1281430D03*
D17*
X12700Y1287780D03*
X12700Y1262380D03*
X12700Y1236980D03*
X12700Y1211580D03*
X12700Y1186180D03*
X723900Y1135380D03*
X723900Y1160780D03*
X723900Y1186180D03*
X723900Y1211580D03*
X723900Y1236980D03*
X723900Y1262380D03*
X749300Y1135380D03*
X749300Y1160780D03*
X749300Y1186180D03*
X749300Y1211580D03*
X749300Y1236980D03*
X749300Y1262380D03*
X749300Y1363980D03*
X749300Y1338580D03*
X749300Y1313180D03*
X749300Y1287780D03*
D20*
X518200Y1133280D03*
D19*
X94107Y1333500D03*
X83693Y1333500D03*
D21*
X317500Y1073480D03*
D22*
X317500Y1273480D03*
D17*
X12700Y932180D03*
D19*
X94107Y1313180D03*
X83693Y1313180D03*
D16*
X362966Y1064260D03*
X371094Y1064260D03*
D14*
X685800Y959866D03*
X685800Y970280D03*
X685800Y980694D03*
D17*
X749300Y1109980D03*
X749300Y1084580D03*
X749300Y1059180D03*
X749300Y1033780D03*
X368300Y881380D03*
X393700Y881380D03*
X12700Y1490980D03*
X12700Y1465580D03*
X12700Y1440180D03*
X12700Y1414780D03*
D15*
X215900Y1372616D03*
X215900Y1380744D03*
X190500Y1372616D03*
X190500Y1380744D03*
X165100Y1372616D03*
X165100Y1380744D03*
D17*
X12700Y1059180D03*
X12700Y1033780D03*
X12700Y1008380D03*
X12700Y982980D03*
X12700Y957580D03*
D19*
X490093Y1268730D03*
X500507Y1268730D03*
D17*
X12700Y1516380D03*
X12700Y1541780D03*
D15*
X565150Y1393444D03*
X565150Y1385316D03*
X534670Y1393444D03*
X534670Y1385316D03*
D23*
X419100Y1363980D03*
X406400Y1363980D03*
X393700Y1363980D03*
X381000Y1363980D03*
X419100Y1275080D03*
X406400Y1275080D03*
X393700Y1275080D03*
X381000Y1275080D03*
X533400Y1427480D03*
X558800Y1427480D03*
X508000Y1567180D03*
X520700Y1579880D03*
X355600Y1363980D03*
X342900Y1363980D03*
X330200Y1363980D03*
X317500Y1363980D03*
X355600Y1300480D03*
X342900Y1300480D03*
X330200Y1300480D03*
X317500Y1300480D03*
D19*
X316357Y1135380D03*
X305943Y1135380D03*
X316357Y1155700D03*
X305943Y1155700D03*
X316357Y1176020D03*
X305943Y1176020D03*
D16*
X315214Y1196340D03*
X307086Y1196340D03*
X315214Y1216660D03*
X307086Y1216660D03*
X226314Y1276350D03*
X218186Y1276350D03*
X226314Y1256030D03*
X218186Y1256030D03*
X226314Y1235710D03*
X218186Y1235710D03*
D14*
X628650Y1252093D03*
X628650Y1262507D03*
X565150Y1252093D03*
X565150Y1262507D03*
D23*
X127000Y1262380D03*
X571500Y1452880D03*
X558800Y957580D03*
X266700Y894080D03*
D14*
X299720Y1394714D03*
X299720Y1384300D03*
X299720Y1373886D03*
X164783Y1007555D03*
X164783Y997141D03*
D19*
X391287Y1151890D03*
X380873Y1151890D03*
D10*
X928680Y905030D03*
X986480Y905030D03*
D11*
X774700Y863600D03*
X1521460Y1611630D03*
D12*
X1363980Y1239680D03*
D13*
X1503680Y1592580D03*
X792480Y1592580D03*
X1503680Y881380D03*
X792480Y881380D03*
D14*
X1427480Y1315466D03*
X1427480Y1325880D03*
X1427480Y1336294D03*
D15*
X855980Y890016D03*
X855980Y898144D03*
D16*
X998220Y999490D03*
X1008380Y999490D03*
D17*
X990600Y999490D03*
X1016000Y999490D03*
D18*
X1084580Y1040130D03*
X1071880Y1040130D03*
X1059180Y1040130D03*
X1046480Y1040130D03*
X1097280Y1040130D03*
X1084580Y1027430D03*
X1071880Y1027430D03*
X1059180Y1027430D03*
X1046480Y1027430D03*
X1097280Y1027430D03*
D19*
X1369187Y1281430D03*
X1358773Y1281430D03*
D17*
X779780Y1287780D03*
X779780Y1262380D03*
X779780Y1236980D03*
X779780Y1211580D03*
X779780Y1186180D03*
X1490980Y1135380D03*
X1490980Y1160780D03*
X1490980Y1186180D03*
X1490980Y1211580D03*
X1490980Y1236980D03*
X1490980Y1262380D03*
X1516380Y1135380D03*
X1516380Y1160780D03*
X1516380Y1186180D03*
X1516380Y1211580D03*
X1516380Y1236980D03*
X1516380Y1262380D03*
X1516380Y1363980D03*
X1516380Y1338580D03*
X1516380Y1313180D03*
X1516380Y1287780D03*
D20*
X1285280Y1133280D03*
D19*
X861187Y1333500D03*
X850773Y1333500D03*
D21*
X1084580Y1073480D03*
D22*
X1084580Y1273480D03*
D17*
X779780Y932180D03*
D19*
X861187Y1313180D03*
X850773Y1313180D03*
D16*
X1130046Y1064260D03*
X1138174Y1064260D03*
D14*
X1452880Y959866D03*
X1452880Y970280D03*
X1452880Y980694D03*
D17*
X1516380Y1109980D03*
X1516380Y1084580D03*
X1516380Y1059180D03*
X1516380Y1033780D03*
X1135380Y881380D03*
X1160780Y881380D03*
X779780Y1490980D03*
X779780Y1465580D03*
X779780Y1440180D03*
X779780Y1414780D03*
D15*
X982980Y1372616D03*
X982980Y1380744D03*
X957580Y1372616D03*
X957580Y1380744D03*
X932180Y1372616D03*
X932180Y1380744D03*
D17*
X779780Y1059180D03*
X779780Y1033780D03*
X779780Y1008380D03*
X779780Y982980D03*
X779780Y957580D03*
D19*
X1257173Y1268730D03*
X1267587Y1268730D03*
D17*
X779780Y1516380D03*
X779780Y1541780D03*
D15*
X1332230Y1393444D03*
X1332230Y1385316D03*
X1301750Y1393444D03*
X1301750Y1385316D03*
D23*
X1186180Y1363980D03*
X1173480Y1363980D03*
X1160780Y1363980D03*
X1148080Y1363980D03*
X1186180Y1275080D03*
X1173480Y1275080D03*
X1160780Y1275080D03*
X1148080Y1275080D03*
X1300480Y1427480D03*
X1325880Y1427480D03*
X1275080Y1567180D03*
X1287780Y1579880D03*
X1122680Y1363980D03*
X1109980Y1363980D03*
X1097280Y1363980D03*
X1084580Y1363980D03*
X1122680Y1300480D03*
X1109980Y1300480D03*
X1097280Y1300480D03*
X1084580Y1300480D03*
D19*
X1083437Y1135380D03*
X1073023Y1135380D03*
X1083437Y1155700D03*
X1073023Y1155700D03*
X1083437Y1176020D03*
X1073023Y1176020D03*
D16*
X1082294Y1196340D03*
X1074166Y1196340D03*
X1082294Y1216660D03*
X1074166Y1216660D03*
X993394Y1276350D03*
X985266Y1276350D03*
X993394Y1256030D03*
X985266Y1256030D03*
X993394Y1235710D03*
X985266Y1235710D03*
D14*
X1395730Y1252093D03*
X1395730Y1262507D03*
X1332230Y1252093D03*
X1332230Y1262507D03*
D23*
X894080Y1262380D03*
X1338580Y1452880D03*
X1325880Y957580D03*
X1033780Y894080D03*
D14*
X1066800Y1394714D03*
X1066800Y1384300D03*
X1066800Y1373886D03*
X931863Y1007555D03*
X931863Y997141D03*
D19*
X1158367Y1151890D03*
X1147953Y1151890D03*
D18*
X-26238Y1680210D03*
X1555318Y1680210D03*
D24*
X-35293Y63500D02*
X-35290Y63722D01*
X-35282Y63944D01*
X-35268Y64166D01*
X-35249Y64388D01*
X-35225Y64608D01*
X-35195Y64829D01*
X-35160Y65048D01*
X-35119Y65267D01*
X-35073Y65484D01*
X-35022Y65700D01*
X-34965Y65915D01*
X-34903Y66129D01*
X-34836Y66340D01*
X-34764Y66551D01*
X-34686Y66759D01*
X-34604Y66965D01*
X-34516Y67169D01*
X-34424Y67372D01*
X-34326Y67571D01*
X-34224Y67768D01*
X-34117Y67963D01*
X-34005Y68155D01*
X-33888Y68344D01*
X-33767Y68531D01*
X-33641Y68714D01*
X-33511Y68894D01*
X-33376Y69071D01*
X-33238Y69244D01*
X-33095Y69414D01*
X-32947Y69581D01*
X-32796Y69744D01*
X-32641Y69903D01*
X-32482Y70058D01*
X-32319Y70209D01*
X-32152Y70357D01*
X-31982Y70500D01*
X-31809Y70638D01*
X-31632Y70773D01*
X-31452Y70903D01*
X-31269Y71029D01*
X-31082Y71150D01*
X-30893Y71267D01*
X-30701Y71379D01*
X-30506Y71486D01*
X-30309Y71588D01*
X-30110Y71686D01*
X-29907Y71778D01*
X-29703Y71866D01*
X-29497Y71948D01*
X-29289Y72026D01*
X-29078Y72098D01*
X-28867Y72165D01*
X-28653Y72227D01*
X-28438Y72284D01*
X-28222Y72335D01*
X-28005Y72381D01*
X-27786Y72422D01*
X-27567Y72457D01*
X-27346Y72487D01*
X-27126Y72511D01*
X-26904Y72530D01*
X-26682Y72544D01*
X-26460Y72552D01*
X-26238Y72555D01*
X-26016Y72552D01*
X-25794Y72544D01*
X-25572Y72530D01*
X-25350Y72511D01*
X-25130Y72487D01*
X-24909Y72457D01*
X-24690Y72422D01*
X-24471Y72381D01*
X-24254Y72335D01*
X-24038Y72284D01*
X-23823Y72227D01*
X-23609Y72165D01*
X-23398Y72098D01*
X-23187Y72026D01*
X-22979Y71948D01*
X-22773Y71866D01*
X-22569Y71778D01*
X-22366Y71686D01*
X-22167Y71588D01*
X-21970Y71486D01*
X-21775Y71379D01*
X-21583Y71267D01*
X-21394Y71150D01*
X-21207Y71029D01*
X-21024Y70903D01*
X-20844Y70773D01*
X-20667Y70638D01*
X-20494Y70500D01*
X-20324Y70357D01*
X-20157Y70209D01*
X-19994Y70058D01*
X-19835Y69903D01*
X-19680Y69744D01*
X-19529Y69581D01*
X-19381Y69414D01*
X-19238Y69244D01*
X-19100Y69071D01*
X-18965Y68894D01*
X-18835Y68714D01*
X-18709Y68531D01*
X-18588Y68344D01*
X-18471Y68155D01*
X-18359Y67963D01*
X-18252Y67768D01*
X-18150Y67571D01*
X-18052Y67372D01*
X-17960Y67169D01*
X-17872Y66965D01*
X-17790Y66759D01*
X-17712Y66551D01*
X-17640Y66340D01*
X-17573Y66129D01*
X-17511Y65915D01*
X-17454Y65700D01*
X-17403Y65484D01*
X-17357Y65267D01*
X-17316Y65048D01*
X-17281Y64829D01*
X-17251Y64608D01*
X-17227Y64388D01*
X-17208Y64166D01*
X-17194Y63944D01*
X-17186Y63722D01*
X-17183Y63500D01*
X-17186Y63278D01*
X-17194Y63056D01*
X-17208Y62834D01*
X-17227Y62612D01*
X-17251Y62392D01*
X-17281Y62171D01*
X-17316Y61952D01*
X-17357Y61733D01*
X-17403Y61516D01*
X-17454Y61300D01*
X-17511Y61085D01*
X-17573Y60871D01*
X-17640Y60660D01*
X-17712Y60449D01*
X-17790Y60241D01*
X-17872Y60035D01*
X-17960Y59831D01*
X-18052Y59628D01*
X-18150Y59429D01*
X-18252Y59232D01*
X-18359Y59037D01*
X-18471Y58845D01*
X-18588Y58656D01*
X-18709Y58469D01*
X-18835Y58286D01*
X-18965Y58106D01*
X-19100Y57929D01*
X-19238Y57756D01*
X-19381Y57586D01*
X-19529Y57419D01*
X-19680Y57256D01*
X-19835Y57097D01*
X-19994Y56942D01*
X-20157Y56791D01*
X-20324Y56643D01*
X-20494Y56500D01*
X-20667Y56362D01*
X-20844Y56227D01*
X-21024Y56097D01*
X-21207Y55971D01*
X-21394Y55850D01*
X-21583Y55733D01*
X-21775Y55621D01*
X-21970Y55514D01*
X-22167Y55412D01*
X-22366Y55314D01*
X-22569Y55222D01*
X-22773Y55134D01*
X-22979Y55052D01*
X-23187Y54974D01*
X-23398Y54902D01*
X-23609Y54835D01*
X-23823Y54773D01*
X-24038Y54716D01*
X-24254Y54665D01*
X-24471Y54619D01*
X-24690Y54578D01*
X-24909Y54543D01*
X-25130Y54513D01*
X-25350Y54489D01*
X-25572Y54470D01*
X-25794Y54456D01*
X-26016Y54448D01*
X-26238Y54445D01*
X-26460Y54448D01*
X-26682Y54456D01*
X-26904Y54470D01*
X-27126Y54489D01*
X-27346Y54513D01*
X-27567Y54543D01*
X-27786Y54578D01*
X-28005Y54619D01*
X-28222Y54665D01*
X-28438Y54716D01*
X-28653Y54773D01*
X-28867Y54835D01*
X-29078Y54902D01*
X-29289Y54974D01*
X-29497Y55052D01*
X-29703Y55134D01*
X-29907Y55222D01*
X-30110Y55314D01*
X-30309Y55412D01*
X-30506Y55514D01*
X-30701Y55621D01*
X-30893Y55733D01*
X-31082Y55850D01*
X-31269Y55971D01*
X-31452Y56097D01*
X-31632Y56227D01*
X-31809Y56362D01*
X-31982Y56500D01*
X-32152Y56643D01*
X-32319Y56791D01*
X-32482Y56942D01*
X-32641Y57097D01*
X-32796Y57256D01*
X-32947Y57419D01*
X-33095Y57586D01*
X-33238Y57756D01*
X-33376Y57929D01*
X-33511Y58106D01*
X-33641Y58286D01*
X-33767Y58469D01*
X-33888Y58656D01*
X-34005Y58845D01*
X-34117Y59037D01*
X-34224Y59232D01*
X-34326Y59429D01*
X-34424Y59628D01*
X-34516Y59831D01*
X-34604Y60035D01*
X-34686Y60241D01*
X-34764Y60449D01*
X-34836Y60660D01*
X-34903Y60871D01*
X-34965Y61085D01*
X-35022Y61300D01*
X-35073Y61516D01*
X-35119Y61733D01*
X-35160Y61952D01*
X-35195Y62171D01*
X-35225Y62392D01*
X-35249Y62612D01*
X-35268Y62834D01*
X-35282Y63056D01*
X-35290Y63278D01*
X-35293Y63500D01*
D25*
X-26238Y63500D03*
M02*
