G04 EAGLE Gerber RS-274X export*
G75*
%MOMM*%
%FSLAX34Y34*%
%LPD*%
%INSoldermask Top*%
%IPPOS*%
%AMOC8*
5,1,8,0,0,1.08239X$1,22.5*%
G01*
%ADD10R,0.503200X1.203200*%
%ADD11R,0.803200X1.203200*%
%ADD12C,0.853200*%
%ADD13R,1.303200X1.203200*%
%ADD14R,0.853200X0.503200*%
%ADD15R,1.803200X2.553200*%
%ADD16R,1.203200X1.303200*%
%ADD17C,0.838200*%
%ADD18R,0.928200X0.725200*%
%ADD19C,1.003200*%
%ADD20C,0.600000*%
%ADD21R,0.703200X0.403200*%
%ADD22R,0.403200X0.703200*%
%ADD23C,3.505200*%
%ADD24R,1.700000X4.200000*%
%ADD25R,0.833200X1.033200*%
%ADD26R,0.965200X1.727200*%
%ADD27R,3.003200X1.203200*%
%ADD28R,1.803200X1.603200*%
%ADD29C,2.082800*%
%ADD30C,1.203200*%
%ADD31R,2.003200X1.603200*%
%ADD32R,1.603200X2.103200*%
%ADD33R,1.003200X1.703200*%
%ADD34C,6.203200*%
%ADD35R,1.033200X0.833200*%
%ADD36C,0.505344*%
%ADD37C,1.303200*%
%ADD38C,1.803200*%
%ADD39R,1.753200X0.503200*%
%ADD40R,2.953200X1.403200*%
%ADD41R,1.003200X1.103200*%
%ADD42R,2.203200X1.403200*%
%ADD43R,1.553200X0.803200*%
%ADD44R,1.703200X1.003200*%
%ADD45R,1.303200X1.303200*%
%ADD46R,0.698200X0.453200*%
%ADD47R,0.803200X0.453200*%
%ADD48R,0.453200X0.698200*%
%ADD49R,0.453200X0.803200*%
%ADD50R,0.104000X0.453000*%
%ADD51R,0.453000X0.104000*%
%ADD52R,0.603200X0.953200*%
%ADD53R,0.853200X0.663200*%
%ADD54R,1.353200X7.203200*%
%ADD55R,1.103200X2.403200*%
%ADD56R,1.403200X0.753200*%
%ADD57R,1.203200X4.803200*%
%ADD58R,1.803200X3.603200*%
%ADD59R,1.503200X0.853200*%
%ADD60R,2.003200X0.683200*%
%ADD61R,1.203200X1.233200*%
%ADD62R,0.803200X1.403200*%
%ADD63R,0.863600X0.558800*%
%ADD64R,1.053200X1.103200*%
%ADD65R,0.753200X1.403200*%
%ADD66R,1.103200X1.053200*%
%ADD67R,0.508000X1.193800*%
%ADD68R,0.400000X0.900000*%
%ADD69R,0.903200X0.903200*%
%ADD70R,0.623200X0.903200*%
%ADD71C,1.270000*%
%ADD72C,1.703200*%

G36*
X265306Y909337D02*
X265306Y909337D01*
X265333Y909333D01*
X265374Y909351D01*
X265416Y909360D01*
X265452Y909386D01*
X265461Y909390D01*
X265465Y909395D01*
X265476Y909404D01*
X289476Y933404D01*
X289497Y933442D01*
X289526Y933475D01*
X289530Y933502D01*
X289543Y933526D01*
X289540Y933570D01*
X289547Y933613D01*
X289536Y933639D01*
X289534Y933666D01*
X289508Y933701D01*
X289490Y933741D01*
X289467Y933756D01*
X289451Y933778D01*
X289410Y933794D01*
X289374Y933818D01*
X289330Y933825D01*
X289321Y933828D01*
X289314Y933827D01*
X289300Y933829D01*
X265300Y933829D01*
X265284Y933824D01*
X265267Y933827D01*
X265217Y933805D01*
X265166Y933790D01*
X265155Y933777D01*
X265139Y933770D01*
X265109Y933725D01*
X265074Y933685D01*
X265071Y933668D01*
X265062Y933654D01*
X265051Y933580D01*
X265051Y909580D01*
X265063Y909538D01*
X265066Y909494D01*
X265082Y909472D01*
X265090Y909446D01*
X265123Y909417D01*
X265149Y909382D01*
X265175Y909372D01*
X265195Y909354D01*
X265239Y909347D01*
X265279Y909332D01*
X265306Y909337D01*
G37*
G36*
X1032386Y909337D02*
X1032386Y909337D01*
X1032413Y909333D01*
X1032454Y909351D01*
X1032496Y909360D01*
X1032532Y909386D01*
X1032541Y909390D01*
X1032545Y909395D01*
X1032556Y909404D01*
X1056556Y933404D01*
X1056577Y933442D01*
X1056606Y933475D01*
X1056610Y933502D01*
X1056623Y933526D01*
X1056620Y933570D01*
X1056627Y933613D01*
X1056616Y933639D01*
X1056614Y933666D01*
X1056588Y933701D01*
X1056570Y933741D01*
X1056547Y933756D01*
X1056531Y933778D01*
X1056490Y933794D01*
X1056454Y933818D01*
X1056410Y933825D01*
X1056401Y933828D01*
X1056394Y933827D01*
X1056380Y933829D01*
X1032380Y933829D01*
X1032364Y933824D01*
X1032347Y933827D01*
X1032297Y933805D01*
X1032246Y933790D01*
X1032235Y933777D01*
X1032219Y933770D01*
X1032189Y933725D01*
X1032154Y933685D01*
X1032151Y933668D01*
X1032142Y933654D01*
X1032131Y933580D01*
X1032131Y909580D01*
X1032143Y909538D01*
X1032146Y909494D01*
X1032162Y909472D01*
X1032170Y909446D01*
X1032203Y909417D01*
X1032229Y909382D01*
X1032255Y909372D01*
X1032275Y909354D01*
X1032319Y909347D01*
X1032359Y909332D01*
X1032386Y909337D01*
G37*
G36*
X1032386Y40657D02*
X1032386Y40657D01*
X1032413Y40653D01*
X1032454Y40671D01*
X1032496Y40680D01*
X1032532Y40706D01*
X1032541Y40710D01*
X1032545Y40715D01*
X1032556Y40724D01*
X1056556Y64724D01*
X1056577Y64762D01*
X1056606Y64795D01*
X1056610Y64822D01*
X1056623Y64846D01*
X1056620Y64890D01*
X1056627Y64933D01*
X1056616Y64959D01*
X1056614Y64986D01*
X1056588Y65021D01*
X1056570Y65061D01*
X1056547Y65076D01*
X1056531Y65098D01*
X1056490Y65114D01*
X1056454Y65138D01*
X1056410Y65145D01*
X1056401Y65148D01*
X1056394Y65147D01*
X1056380Y65149D01*
X1032380Y65149D01*
X1032364Y65144D01*
X1032347Y65147D01*
X1032297Y65125D01*
X1032246Y65110D01*
X1032235Y65097D01*
X1032219Y65090D01*
X1032189Y65045D01*
X1032154Y65005D01*
X1032151Y64988D01*
X1032142Y64974D01*
X1032131Y64900D01*
X1032131Y40900D01*
X1032143Y40858D01*
X1032146Y40814D01*
X1032162Y40792D01*
X1032170Y40766D01*
X1032203Y40737D01*
X1032229Y40702D01*
X1032255Y40692D01*
X1032275Y40674D01*
X1032319Y40667D01*
X1032359Y40652D01*
X1032386Y40657D01*
G37*
G36*
X265306Y40657D02*
X265306Y40657D01*
X265333Y40653D01*
X265374Y40671D01*
X265416Y40680D01*
X265452Y40706D01*
X265461Y40710D01*
X265465Y40715D01*
X265476Y40724D01*
X289476Y64724D01*
X289497Y64762D01*
X289526Y64795D01*
X289530Y64822D01*
X289543Y64846D01*
X289540Y64890D01*
X289547Y64933D01*
X289536Y64959D01*
X289534Y64986D01*
X289508Y65021D01*
X289490Y65061D01*
X289467Y65076D01*
X289451Y65098D01*
X289410Y65114D01*
X289374Y65138D01*
X289330Y65145D01*
X289321Y65148D01*
X289314Y65147D01*
X289300Y65149D01*
X265300Y65149D01*
X265284Y65144D01*
X265267Y65147D01*
X265217Y65125D01*
X265166Y65110D01*
X265155Y65097D01*
X265139Y65090D01*
X265109Y65045D01*
X265074Y65005D01*
X265071Y64988D01*
X265062Y64974D01*
X265051Y64900D01*
X265051Y40900D01*
X265063Y40858D01*
X265066Y40814D01*
X265082Y40792D01*
X265090Y40766D01*
X265123Y40737D01*
X265149Y40702D01*
X265175Y40692D01*
X265195Y40674D01*
X265239Y40667D01*
X265279Y40652D01*
X265306Y40657D01*
G37*
G36*
X234984Y911563D02*
X234984Y911563D01*
X234990Y911569D01*
X234995Y911565D01*
X236225Y911930D01*
X236230Y911937D01*
X236235Y911935D01*
X237354Y912565D01*
X237357Y912572D01*
X237363Y912571D01*
X238313Y913434D01*
X238314Y913442D01*
X238320Y913442D01*
X239054Y914495D01*
X239054Y914503D01*
X239059Y914505D01*
X239541Y915695D01*
X239539Y915700D01*
X239543Y915703D01*
X239542Y915704D01*
X239544Y915705D01*
X239749Y916972D01*
X239746Y916977D01*
X239749Y916980D01*
X239749Y928980D01*
X239746Y928984D01*
X239749Y928987D01*
X239594Y930109D01*
X239589Y930114D01*
X239592Y930118D01*
X239221Y931189D01*
X239215Y931193D01*
X239217Y931198D01*
X238644Y932175D01*
X238638Y932178D01*
X238639Y932183D01*
X237886Y933030D01*
X237879Y933032D01*
X237879Y933037D01*
X236976Y933721D01*
X236969Y933721D01*
X236968Y933726D01*
X235949Y934221D01*
X235942Y934219D01*
X235940Y934224D01*
X234843Y934511D01*
X234837Y934508D01*
X234834Y934512D01*
X233703Y934579D01*
X233697Y934579D01*
X232566Y934512D01*
X232561Y934507D01*
X232557Y934511D01*
X231460Y934224D01*
X231456Y934218D01*
X231451Y934221D01*
X230432Y933726D01*
X230429Y933720D01*
X230424Y933721D01*
X229521Y933037D01*
X229519Y933030D01*
X229514Y933030D01*
X228761Y932183D01*
X228761Y932176D01*
X228756Y932175D01*
X228183Y931198D01*
X228184Y931195D01*
X228183Y931194D01*
X228184Y931193D01*
X228184Y931191D01*
X228179Y931189D01*
X227808Y930118D01*
X227810Y930113D01*
X227807Y930111D01*
X227807Y930110D01*
X227806Y930109D01*
X227651Y928987D01*
X227654Y928982D01*
X227651Y928980D01*
X227651Y916980D01*
X227654Y916975D01*
X227651Y916972D01*
X227856Y915705D01*
X227862Y915699D01*
X227859Y915695D01*
X228341Y914505D01*
X228348Y914501D01*
X228346Y914495D01*
X229080Y913442D01*
X229088Y913440D01*
X229087Y913434D01*
X230037Y912571D01*
X230046Y912570D01*
X230046Y912565D01*
X231165Y911935D01*
X231173Y911936D01*
X231175Y911930D01*
X232405Y911565D01*
X232413Y911568D01*
X232416Y911563D01*
X233697Y911481D01*
X233701Y911484D01*
X233703Y911481D01*
X234984Y911563D01*
G37*
G36*
X915664Y911563D02*
X915664Y911563D01*
X915670Y911569D01*
X915675Y911565D01*
X916905Y911930D01*
X916910Y911937D01*
X916915Y911935D01*
X918034Y912565D01*
X918037Y912572D01*
X918043Y912571D01*
X918993Y913434D01*
X918994Y913442D01*
X919000Y913442D01*
X919734Y914495D01*
X919734Y914503D01*
X919739Y914505D01*
X920221Y915695D01*
X920219Y915700D01*
X920223Y915703D01*
X920222Y915704D01*
X920224Y915705D01*
X920429Y916972D01*
X920426Y916977D01*
X920429Y916980D01*
X920429Y928980D01*
X920426Y928984D01*
X920429Y928987D01*
X920274Y930109D01*
X920269Y930114D01*
X920272Y930118D01*
X919901Y931189D01*
X919895Y931193D01*
X919897Y931198D01*
X919324Y932175D01*
X919318Y932178D01*
X919319Y932183D01*
X918566Y933030D01*
X918559Y933032D01*
X918559Y933037D01*
X917656Y933721D01*
X917649Y933721D01*
X917648Y933726D01*
X916629Y934221D01*
X916622Y934219D01*
X916620Y934224D01*
X915523Y934511D01*
X915517Y934508D01*
X915514Y934512D01*
X914383Y934579D01*
X914377Y934579D01*
X913246Y934512D01*
X913241Y934507D01*
X913237Y934511D01*
X912140Y934224D01*
X912136Y934218D01*
X912131Y934221D01*
X911112Y933726D01*
X911109Y933720D01*
X911104Y933721D01*
X910201Y933037D01*
X910199Y933030D01*
X910194Y933030D01*
X909441Y932183D01*
X909441Y932176D01*
X909436Y932175D01*
X908863Y931198D01*
X908864Y931195D01*
X908863Y931194D01*
X908864Y931193D01*
X908864Y931191D01*
X908859Y931189D01*
X908488Y930118D01*
X908490Y930113D01*
X908487Y930111D01*
X908487Y930110D01*
X908486Y930109D01*
X908331Y928987D01*
X908334Y928982D01*
X908331Y928980D01*
X908331Y916980D01*
X908334Y916975D01*
X908331Y916972D01*
X908536Y915705D01*
X908542Y915699D01*
X908539Y915695D01*
X909021Y914505D01*
X909028Y914501D01*
X909026Y914495D01*
X909760Y913442D01*
X909768Y913440D01*
X909767Y913434D01*
X910717Y912571D01*
X910726Y912570D01*
X910726Y912565D01*
X911845Y911935D01*
X911853Y911936D01*
X911855Y911930D01*
X913085Y911565D01*
X913093Y911568D01*
X913096Y911563D01*
X914377Y911481D01*
X914381Y911484D01*
X914383Y911481D01*
X915664Y911563D01*
G37*
G36*
X148584Y911563D02*
X148584Y911563D01*
X148590Y911569D01*
X148595Y911565D01*
X149825Y911930D01*
X149830Y911937D01*
X149835Y911935D01*
X150954Y912565D01*
X150957Y912572D01*
X150963Y912571D01*
X151913Y913434D01*
X151914Y913442D01*
X151920Y913442D01*
X152654Y914495D01*
X152654Y914503D01*
X152659Y914505D01*
X153141Y915695D01*
X153139Y915700D01*
X153143Y915703D01*
X153142Y915704D01*
X153144Y915705D01*
X153349Y916972D01*
X153346Y916977D01*
X153349Y916980D01*
X153349Y928980D01*
X153346Y928984D01*
X153349Y928987D01*
X153194Y930109D01*
X153189Y930114D01*
X153192Y930118D01*
X152821Y931189D01*
X152815Y931193D01*
X152817Y931198D01*
X152244Y932175D01*
X152238Y932178D01*
X152239Y932183D01*
X151486Y933030D01*
X151479Y933032D01*
X151479Y933037D01*
X150576Y933721D01*
X150569Y933721D01*
X150568Y933726D01*
X149549Y934221D01*
X149542Y934219D01*
X149540Y934224D01*
X148443Y934511D01*
X148437Y934508D01*
X148434Y934512D01*
X147303Y934579D01*
X147297Y934579D01*
X146166Y934512D01*
X146161Y934507D01*
X146157Y934511D01*
X145060Y934224D01*
X145056Y934218D01*
X145051Y934221D01*
X144032Y933726D01*
X144029Y933720D01*
X144024Y933721D01*
X143121Y933037D01*
X143119Y933030D01*
X143114Y933030D01*
X142361Y932183D01*
X142361Y932176D01*
X142356Y932175D01*
X141783Y931198D01*
X141784Y931195D01*
X141783Y931194D01*
X141784Y931193D01*
X141784Y931191D01*
X141779Y931189D01*
X141408Y930118D01*
X141410Y930113D01*
X141407Y930111D01*
X141407Y930110D01*
X141406Y930109D01*
X141251Y928987D01*
X141254Y928982D01*
X141251Y928980D01*
X141251Y916980D01*
X141254Y916975D01*
X141251Y916972D01*
X141456Y915705D01*
X141462Y915699D01*
X141459Y915695D01*
X141941Y914505D01*
X141948Y914501D01*
X141946Y914495D01*
X142680Y913442D01*
X142688Y913440D01*
X142687Y913434D01*
X143637Y912571D01*
X143646Y912570D01*
X143646Y912565D01*
X144765Y911935D01*
X144773Y911936D01*
X144775Y911930D01*
X146005Y911565D01*
X146013Y911568D01*
X146016Y911563D01*
X147297Y911481D01*
X147301Y911484D01*
X147303Y911481D01*
X148584Y911563D01*
G37*
G36*
X1002064Y911563D02*
X1002064Y911563D01*
X1002070Y911569D01*
X1002075Y911565D01*
X1003305Y911930D01*
X1003310Y911937D01*
X1003315Y911935D01*
X1004434Y912565D01*
X1004437Y912572D01*
X1004443Y912571D01*
X1005393Y913434D01*
X1005394Y913442D01*
X1005400Y913442D01*
X1006134Y914495D01*
X1006134Y914503D01*
X1006139Y914505D01*
X1006621Y915695D01*
X1006619Y915700D01*
X1006623Y915703D01*
X1006622Y915704D01*
X1006624Y915705D01*
X1006829Y916972D01*
X1006826Y916977D01*
X1006829Y916980D01*
X1006829Y928980D01*
X1006826Y928984D01*
X1006829Y928987D01*
X1006674Y930109D01*
X1006669Y930114D01*
X1006672Y930118D01*
X1006301Y931189D01*
X1006295Y931193D01*
X1006297Y931198D01*
X1005724Y932175D01*
X1005718Y932178D01*
X1005719Y932183D01*
X1004966Y933030D01*
X1004959Y933032D01*
X1004959Y933037D01*
X1004056Y933721D01*
X1004049Y933721D01*
X1004048Y933726D01*
X1003029Y934221D01*
X1003022Y934219D01*
X1003020Y934224D01*
X1001923Y934511D01*
X1001917Y934508D01*
X1001914Y934512D01*
X1000783Y934579D01*
X1000777Y934579D01*
X999646Y934512D01*
X999641Y934507D01*
X999637Y934511D01*
X998540Y934224D01*
X998536Y934218D01*
X998531Y934221D01*
X997512Y933726D01*
X997509Y933720D01*
X997504Y933721D01*
X996601Y933037D01*
X996599Y933030D01*
X996594Y933030D01*
X995841Y932183D01*
X995841Y932176D01*
X995836Y932175D01*
X995263Y931198D01*
X995264Y931195D01*
X995263Y931194D01*
X995264Y931193D01*
X995264Y931191D01*
X995259Y931189D01*
X994888Y930118D01*
X994890Y930113D01*
X994887Y930111D01*
X994887Y930110D01*
X994886Y930109D01*
X994731Y928987D01*
X994734Y928982D01*
X994731Y928980D01*
X994731Y916980D01*
X994734Y916975D01*
X994731Y916972D01*
X994936Y915705D01*
X994942Y915699D01*
X994939Y915695D01*
X995421Y914505D01*
X995428Y914501D01*
X995426Y914495D01*
X996160Y913442D01*
X996168Y913440D01*
X996167Y913434D01*
X997117Y912571D01*
X997126Y912570D01*
X997126Y912565D01*
X998245Y911935D01*
X998253Y911936D01*
X998255Y911930D01*
X999485Y911565D01*
X999493Y911568D01*
X999496Y911563D01*
X1000777Y911481D01*
X1000781Y911484D01*
X1000783Y911481D01*
X1002064Y911563D01*
G37*
G36*
X1002064Y42883D02*
X1002064Y42883D01*
X1002070Y42889D01*
X1002075Y42885D01*
X1003305Y43250D01*
X1003310Y43257D01*
X1003315Y43255D01*
X1004434Y43885D01*
X1004437Y43892D01*
X1004443Y43891D01*
X1005393Y44754D01*
X1005394Y44762D01*
X1005400Y44762D01*
X1006134Y45815D01*
X1006134Y45823D01*
X1006139Y45825D01*
X1006621Y47015D01*
X1006619Y47020D01*
X1006623Y47023D01*
X1006622Y47024D01*
X1006624Y47025D01*
X1006829Y48292D01*
X1006826Y48297D01*
X1006829Y48300D01*
X1006829Y60300D01*
X1006826Y60304D01*
X1006829Y60307D01*
X1006674Y61429D01*
X1006669Y61434D01*
X1006672Y61438D01*
X1006301Y62509D01*
X1006295Y62513D01*
X1006297Y62518D01*
X1005724Y63495D01*
X1005718Y63498D01*
X1005719Y63503D01*
X1004966Y64350D01*
X1004959Y64352D01*
X1004959Y64357D01*
X1004056Y65041D01*
X1004049Y65041D01*
X1004048Y65046D01*
X1003029Y65541D01*
X1003022Y65539D01*
X1003020Y65544D01*
X1001923Y65831D01*
X1001917Y65828D01*
X1001914Y65832D01*
X1000783Y65899D01*
X1000777Y65899D01*
X999646Y65832D01*
X999641Y65827D01*
X999637Y65831D01*
X998540Y65544D01*
X998536Y65538D01*
X998531Y65541D01*
X997512Y65046D01*
X997509Y65040D01*
X997504Y65041D01*
X996601Y64357D01*
X996599Y64350D01*
X996594Y64350D01*
X995841Y63503D01*
X995841Y63496D01*
X995836Y63495D01*
X995263Y62518D01*
X995264Y62515D01*
X995263Y62514D01*
X995264Y62513D01*
X995264Y62511D01*
X995259Y62509D01*
X994888Y61438D01*
X994890Y61433D01*
X994887Y61431D01*
X994887Y61430D01*
X994886Y61429D01*
X994731Y60307D01*
X994734Y60302D01*
X994731Y60300D01*
X994731Y48300D01*
X994734Y48295D01*
X994731Y48292D01*
X994936Y47025D01*
X994942Y47019D01*
X994939Y47015D01*
X995421Y45825D01*
X995428Y45821D01*
X995426Y45815D01*
X996160Y44762D01*
X996168Y44760D01*
X996167Y44754D01*
X997117Y43891D01*
X997126Y43890D01*
X997126Y43885D01*
X998245Y43255D01*
X998253Y43256D01*
X998255Y43250D01*
X999485Y42885D01*
X999493Y42888D01*
X999496Y42883D01*
X1000777Y42801D01*
X1000781Y42804D01*
X1000783Y42801D01*
X1002064Y42883D01*
G37*
G36*
X234984Y42883D02*
X234984Y42883D01*
X234990Y42889D01*
X234995Y42885D01*
X236225Y43250D01*
X236230Y43257D01*
X236235Y43255D01*
X237354Y43885D01*
X237357Y43892D01*
X237363Y43891D01*
X238313Y44754D01*
X238314Y44762D01*
X238320Y44762D01*
X239054Y45815D01*
X239054Y45823D01*
X239059Y45825D01*
X239541Y47015D01*
X239539Y47020D01*
X239543Y47023D01*
X239542Y47024D01*
X239544Y47025D01*
X239749Y48292D01*
X239746Y48297D01*
X239749Y48300D01*
X239749Y60300D01*
X239746Y60304D01*
X239749Y60307D01*
X239594Y61429D01*
X239589Y61434D01*
X239592Y61438D01*
X239221Y62509D01*
X239215Y62513D01*
X239217Y62518D01*
X238644Y63495D01*
X238638Y63498D01*
X238639Y63503D01*
X237886Y64350D01*
X237879Y64352D01*
X237879Y64357D01*
X236976Y65041D01*
X236969Y65041D01*
X236968Y65046D01*
X235949Y65541D01*
X235942Y65539D01*
X235940Y65544D01*
X234843Y65831D01*
X234837Y65828D01*
X234834Y65832D01*
X233703Y65899D01*
X233697Y65899D01*
X232566Y65832D01*
X232561Y65827D01*
X232557Y65831D01*
X231460Y65544D01*
X231456Y65538D01*
X231451Y65541D01*
X230432Y65046D01*
X230429Y65040D01*
X230424Y65041D01*
X229521Y64357D01*
X229519Y64350D01*
X229514Y64350D01*
X228761Y63503D01*
X228761Y63496D01*
X228756Y63495D01*
X228183Y62518D01*
X228184Y62515D01*
X228183Y62514D01*
X228184Y62513D01*
X228184Y62511D01*
X228179Y62509D01*
X227808Y61438D01*
X227810Y61433D01*
X227807Y61431D01*
X227807Y61430D01*
X227806Y61429D01*
X227651Y60307D01*
X227654Y60302D01*
X227651Y60300D01*
X227651Y48300D01*
X227654Y48295D01*
X227651Y48292D01*
X227856Y47025D01*
X227862Y47019D01*
X227859Y47015D01*
X228341Y45825D01*
X228348Y45821D01*
X228346Y45815D01*
X229080Y44762D01*
X229088Y44760D01*
X229087Y44754D01*
X230037Y43891D01*
X230046Y43890D01*
X230046Y43885D01*
X231165Y43255D01*
X231173Y43256D01*
X231175Y43250D01*
X232405Y42885D01*
X232413Y42888D01*
X232416Y42883D01*
X233697Y42801D01*
X233701Y42804D01*
X233703Y42801D01*
X234984Y42883D01*
G37*
G36*
X148584Y42883D02*
X148584Y42883D01*
X148590Y42889D01*
X148595Y42885D01*
X149825Y43250D01*
X149830Y43257D01*
X149835Y43255D01*
X150954Y43885D01*
X150957Y43892D01*
X150963Y43891D01*
X151913Y44754D01*
X151914Y44762D01*
X151920Y44762D01*
X152654Y45815D01*
X152654Y45823D01*
X152659Y45825D01*
X153141Y47015D01*
X153139Y47020D01*
X153143Y47023D01*
X153142Y47024D01*
X153144Y47025D01*
X153349Y48292D01*
X153346Y48297D01*
X153349Y48300D01*
X153349Y60300D01*
X153346Y60304D01*
X153349Y60307D01*
X153194Y61429D01*
X153189Y61434D01*
X153192Y61438D01*
X152821Y62509D01*
X152815Y62513D01*
X152817Y62518D01*
X152244Y63495D01*
X152238Y63498D01*
X152239Y63503D01*
X151486Y64350D01*
X151479Y64352D01*
X151479Y64357D01*
X150576Y65041D01*
X150569Y65041D01*
X150568Y65046D01*
X149549Y65541D01*
X149542Y65539D01*
X149540Y65544D01*
X148443Y65831D01*
X148437Y65828D01*
X148434Y65832D01*
X147303Y65899D01*
X147297Y65899D01*
X146166Y65832D01*
X146161Y65827D01*
X146157Y65831D01*
X145060Y65544D01*
X145056Y65538D01*
X145051Y65541D01*
X144032Y65046D01*
X144029Y65040D01*
X144024Y65041D01*
X143121Y64357D01*
X143119Y64350D01*
X143114Y64350D01*
X142361Y63503D01*
X142361Y63496D01*
X142356Y63495D01*
X141783Y62518D01*
X141784Y62515D01*
X141783Y62514D01*
X141784Y62513D01*
X141784Y62511D01*
X141779Y62509D01*
X141408Y61438D01*
X141410Y61433D01*
X141407Y61431D01*
X141407Y61430D01*
X141406Y61429D01*
X141251Y60307D01*
X141254Y60302D01*
X141251Y60300D01*
X141251Y48300D01*
X141254Y48295D01*
X141251Y48292D01*
X141456Y47025D01*
X141462Y47019D01*
X141459Y47015D01*
X141941Y45825D01*
X141948Y45821D01*
X141946Y45815D01*
X142680Y44762D01*
X142688Y44760D01*
X142687Y44754D01*
X143637Y43891D01*
X143646Y43890D01*
X143646Y43885D01*
X144765Y43255D01*
X144773Y43256D01*
X144775Y43250D01*
X146005Y42885D01*
X146013Y42888D01*
X146016Y42883D01*
X147297Y42801D01*
X147301Y42804D01*
X147303Y42801D01*
X148584Y42883D01*
G37*
G36*
X915664Y42883D02*
X915664Y42883D01*
X915670Y42889D01*
X915675Y42885D01*
X916905Y43250D01*
X916910Y43257D01*
X916915Y43255D01*
X918034Y43885D01*
X918037Y43892D01*
X918043Y43891D01*
X918993Y44754D01*
X918994Y44762D01*
X919000Y44762D01*
X919734Y45815D01*
X919734Y45823D01*
X919739Y45825D01*
X920221Y47015D01*
X920219Y47020D01*
X920223Y47023D01*
X920222Y47024D01*
X920224Y47025D01*
X920429Y48292D01*
X920426Y48297D01*
X920429Y48300D01*
X920429Y60300D01*
X920426Y60304D01*
X920429Y60307D01*
X920274Y61429D01*
X920269Y61434D01*
X920272Y61438D01*
X919901Y62509D01*
X919895Y62513D01*
X919897Y62518D01*
X919324Y63495D01*
X919318Y63498D01*
X919319Y63503D01*
X918566Y64350D01*
X918559Y64352D01*
X918559Y64357D01*
X917656Y65041D01*
X917649Y65041D01*
X917648Y65046D01*
X916629Y65541D01*
X916622Y65539D01*
X916620Y65544D01*
X915523Y65831D01*
X915517Y65828D01*
X915514Y65832D01*
X914383Y65899D01*
X914377Y65899D01*
X913246Y65832D01*
X913241Y65827D01*
X913237Y65831D01*
X912140Y65544D01*
X912136Y65538D01*
X912131Y65541D01*
X911112Y65046D01*
X911109Y65040D01*
X911104Y65041D01*
X910201Y64357D01*
X910199Y64350D01*
X910194Y64350D01*
X909441Y63503D01*
X909441Y63496D01*
X909436Y63495D01*
X908863Y62518D01*
X908864Y62515D01*
X908863Y62514D01*
X908864Y62513D01*
X908864Y62511D01*
X908859Y62509D01*
X908488Y61438D01*
X908490Y61433D01*
X908487Y61431D01*
X908487Y61430D01*
X908486Y61429D01*
X908331Y60307D01*
X908334Y60302D01*
X908331Y60300D01*
X908331Y48300D01*
X908334Y48295D01*
X908331Y48292D01*
X908536Y47025D01*
X908542Y47019D01*
X908539Y47015D01*
X909021Y45825D01*
X909028Y45821D01*
X909026Y45815D01*
X909760Y44762D01*
X909768Y44760D01*
X909767Y44754D01*
X910717Y43891D01*
X910726Y43890D01*
X910726Y43885D01*
X911845Y43255D01*
X911853Y43256D01*
X911855Y43250D01*
X913085Y42885D01*
X913093Y42888D01*
X913096Y42883D01*
X914377Y42801D01*
X914381Y42804D01*
X914383Y42801D01*
X915664Y42883D01*
G37*
G36*
X148471Y3611D02*
X148471Y3611D01*
X148476Y3616D01*
X148480Y3613D01*
X149603Y3948D01*
X149607Y3954D01*
X149611Y3952D01*
X150647Y4500D01*
X150650Y4506D01*
X150655Y4505D01*
X151563Y5244D01*
X151565Y5251D01*
X151570Y5251D01*
X152317Y6153D01*
X152317Y6161D01*
X152323Y6161D01*
X152879Y7192D01*
X152878Y7199D01*
X152883Y7201D01*
X153227Y8320D01*
X153225Y8327D01*
X153229Y8330D01*
X153349Y9495D01*
X153347Y9498D01*
X153349Y9500D01*
X153349Y15500D01*
X153347Y15503D01*
X153349Y15505D01*
X153238Y16681D01*
X153233Y16686D01*
X153236Y16690D01*
X152898Y17822D01*
X152892Y17826D01*
X152894Y17831D01*
X152342Y18875D01*
X152335Y18878D01*
X152337Y18883D01*
X151591Y19799D01*
X151584Y19800D01*
X151584Y19806D01*
X150675Y20559D01*
X150667Y20559D01*
X150667Y20564D01*
X149627Y21125D01*
X149620Y21124D01*
X149618Y21129D01*
X148489Y21476D01*
X148483Y21474D01*
X148480Y21478D01*
X147305Y21599D01*
X147298Y21595D01*
X147294Y21599D01*
X145954Y21442D01*
X145948Y21437D01*
X145943Y21440D01*
X144672Y20989D01*
X144667Y20982D01*
X144662Y20984D01*
X143523Y20262D01*
X143520Y20254D01*
X143514Y20255D01*
X142564Y19297D01*
X142563Y19289D01*
X142557Y19288D01*
X141844Y18143D01*
X141845Y18135D01*
X141839Y18133D01*
X141399Y16857D01*
X141401Y16850D01*
X141397Y16847D01*
X141251Y15505D01*
X141253Y15502D01*
X141251Y15500D01*
X141251Y9500D01*
X141253Y9497D01*
X141251Y9494D01*
X141406Y8165D01*
X141412Y8159D01*
X141409Y8155D01*
X141856Y6894D01*
X141863Y6889D01*
X141861Y6884D01*
X142578Y5754D01*
X142585Y5751D01*
X142584Y5745D01*
X143535Y4803D01*
X143543Y4802D01*
X143543Y4796D01*
X144679Y4089D01*
X144687Y4090D01*
X144689Y4084D01*
X145954Y3648D01*
X145959Y3649D01*
X145960Y3649D01*
X145963Y3649D01*
X145965Y3645D01*
X147295Y3501D01*
X147301Y3505D01*
X147305Y3501D01*
X148471Y3611D01*
G37*
G36*
X915551Y3611D02*
X915551Y3611D01*
X915556Y3616D01*
X915560Y3613D01*
X916683Y3948D01*
X916687Y3954D01*
X916691Y3952D01*
X917727Y4500D01*
X917730Y4506D01*
X917735Y4505D01*
X918643Y5244D01*
X918645Y5251D01*
X918650Y5251D01*
X919397Y6153D01*
X919397Y6161D01*
X919403Y6161D01*
X919959Y7192D01*
X919958Y7199D01*
X919963Y7201D01*
X920307Y8320D01*
X920305Y8327D01*
X920309Y8330D01*
X920429Y9495D01*
X920427Y9498D01*
X920429Y9500D01*
X920429Y15500D01*
X920427Y15503D01*
X920429Y15505D01*
X920318Y16681D01*
X920313Y16686D01*
X920316Y16690D01*
X919978Y17822D01*
X919972Y17826D01*
X919974Y17831D01*
X919422Y18875D01*
X919415Y18878D01*
X919417Y18883D01*
X918671Y19799D01*
X918664Y19800D01*
X918664Y19806D01*
X917755Y20559D01*
X917747Y20559D01*
X917747Y20564D01*
X916707Y21125D01*
X916700Y21124D01*
X916698Y21129D01*
X915569Y21476D01*
X915563Y21474D01*
X915560Y21478D01*
X914385Y21599D01*
X914378Y21595D01*
X914374Y21599D01*
X913034Y21442D01*
X913028Y21437D01*
X913023Y21440D01*
X911752Y20989D01*
X911747Y20982D01*
X911742Y20984D01*
X910603Y20262D01*
X910600Y20254D01*
X910594Y20255D01*
X909644Y19297D01*
X909643Y19289D01*
X909637Y19288D01*
X908924Y18143D01*
X908925Y18135D01*
X908919Y18133D01*
X908479Y16857D01*
X908481Y16850D01*
X908477Y16847D01*
X908331Y15505D01*
X908333Y15502D01*
X908331Y15500D01*
X908331Y9500D01*
X908333Y9497D01*
X908331Y9494D01*
X908486Y8165D01*
X908492Y8159D01*
X908489Y8155D01*
X908936Y6894D01*
X908943Y6889D01*
X908941Y6884D01*
X909658Y5754D01*
X909665Y5751D01*
X909664Y5745D01*
X910615Y4803D01*
X910623Y4802D01*
X910623Y4796D01*
X911759Y4089D01*
X911767Y4090D01*
X911769Y4084D01*
X913034Y3648D01*
X913039Y3649D01*
X913040Y3649D01*
X913043Y3649D01*
X913045Y3645D01*
X914375Y3501D01*
X914381Y3505D01*
X914385Y3501D01*
X915551Y3611D01*
G37*
G36*
X234871Y3611D02*
X234871Y3611D01*
X234876Y3616D01*
X234880Y3613D01*
X236003Y3948D01*
X236007Y3954D01*
X236011Y3952D01*
X237047Y4500D01*
X237050Y4506D01*
X237055Y4505D01*
X237963Y5244D01*
X237965Y5251D01*
X237970Y5251D01*
X238717Y6153D01*
X238717Y6161D01*
X238723Y6161D01*
X239279Y7192D01*
X239278Y7199D01*
X239283Y7201D01*
X239627Y8320D01*
X239625Y8327D01*
X239629Y8330D01*
X239749Y9495D01*
X239747Y9498D01*
X239749Y9500D01*
X239749Y15500D01*
X239747Y15503D01*
X239749Y15505D01*
X239638Y16681D01*
X239633Y16686D01*
X239636Y16690D01*
X239298Y17822D01*
X239292Y17826D01*
X239294Y17831D01*
X238742Y18875D01*
X238735Y18878D01*
X238737Y18883D01*
X237991Y19799D01*
X237984Y19800D01*
X237984Y19806D01*
X237075Y20559D01*
X237067Y20559D01*
X237067Y20564D01*
X236027Y21125D01*
X236020Y21124D01*
X236018Y21129D01*
X234889Y21476D01*
X234883Y21474D01*
X234880Y21478D01*
X233705Y21599D01*
X233698Y21595D01*
X233694Y21599D01*
X232354Y21442D01*
X232348Y21437D01*
X232343Y21440D01*
X231072Y20989D01*
X231067Y20982D01*
X231062Y20984D01*
X229923Y20262D01*
X229920Y20254D01*
X229914Y20255D01*
X228964Y19297D01*
X228963Y19289D01*
X228957Y19288D01*
X228244Y18143D01*
X228245Y18135D01*
X228239Y18133D01*
X227799Y16857D01*
X227801Y16850D01*
X227797Y16847D01*
X227651Y15505D01*
X227653Y15502D01*
X227651Y15500D01*
X227651Y9500D01*
X227653Y9497D01*
X227651Y9494D01*
X227806Y8165D01*
X227812Y8159D01*
X227809Y8155D01*
X228256Y6894D01*
X228263Y6889D01*
X228261Y6884D01*
X228978Y5754D01*
X228985Y5751D01*
X228984Y5745D01*
X229935Y4803D01*
X229943Y4802D01*
X229943Y4796D01*
X231079Y4089D01*
X231087Y4090D01*
X231089Y4084D01*
X232354Y3648D01*
X232359Y3649D01*
X232360Y3649D01*
X232363Y3649D01*
X232365Y3645D01*
X233695Y3501D01*
X233701Y3505D01*
X233705Y3501D01*
X234871Y3611D01*
G37*
G36*
X1001951Y3611D02*
X1001951Y3611D01*
X1001956Y3616D01*
X1001960Y3613D01*
X1003083Y3948D01*
X1003087Y3954D01*
X1003091Y3952D01*
X1004127Y4500D01*
X1004130Y4506D01*
X1004135Y4505D01*
X1005043Y5244D01*
X1005045Y5251D01*
X1005050Y5251D01*
X1005797Y6153D01*
X1005797Y6161D01*
X1005803Y6161D01*
X1006359Y7192D01*
X1006358Y7199D01*
X1006363Y7201D01*
X1006707Y8320D01*
X1006705Y8327D01*
X1006709Y8330D01*
X1006829Y9495D01*
X1006827Y9498D01*
X1006829Y9500D01*
X1006829Y15500D01*
X1006827Y15503D01*
X1006829Y15505D01*
X1006718Y16681D01*
X1006713Y16686D01*
X1006716Y16690D01*
X1006378Y17822D01*
X1006372Y17826D01*
X1006374Y17831D01*
X1005822Y18875D01*
X1005815Y18878D01*
X1005817Y18883D01*
X1005071Y19799D01*
X1005064Y19800D01*
X1005064Y19806D01*
X1004155Y20559D01*
X1004147Y20559D01*
X1004147Y20564D01*
X1003107Y21125D01*
X1003100Y21124D01*
X1003098Y21129D01*
X1001969Y21476D01*
X1001963Y21474D01*
X1001960Y21478D01*
X1000785Y21599D01*
X1000778Y21595D01*
X1000774Y21599D01*
X999434Y21442D01*
X999428Y21437D01*
X999423Y21440D01*
X998152Y20989D01*
X998147Y20982D01*
X998142Y20984D01*
X997003Y20262D01*
X997000Y20254D01*
X996994Y20255D01*
X996044Y19297D01*
X996043Y19289D01*
X996037Y19288D01*
X995324Y18143D01*
X995325Y18135D01*
X995319Y18133D01*
X994879Y16857D01*
X994881Y16850D01*
X994877Y16847D01*
X994731Y15505D01*
X994733Y15502D01*
X994731Y15500D01*
X994731Y9500D01*
X994733Y9497D01*
X994731Y9494D01*
X994886Y8165D01*
X994892Y8159D01*
X994889Y8155D01*
X995336Y6894D01*
X995343Y6889D01*
X995341Y6884D01*
X996058Y5754D01*
X996065Y5751D01*
X996064Y5745D01*
X997015Y4803D01*
X997023Y4802D01*
X997023Y4796D01*
X998159Y4089D01*
X998167Y4090D01*
X998169Y4084D01*
X999434Y3648D01*
X999439Y3649D01*
X999440Y3649D01*
X999443Y3649D01*
X999445Y3645D01*
X1000775Y3501D01*
X1000781Y3505D01*
X1000785Y3501D01*
X1001951Y3611D01*
G37*
G36*
X148471Y872291D02*
X148471Y872291D01*
X148476Y872296D01*
X148480Y872293D01*
X149603Y872628D01*
X149607Y872634D01*
X149611Y872632D01*
X150647Y873180D01*
X150650Y873186D01*
X150655Y873185D01*
X151563Y873924D01*
X151565Y873931D01*
X151570Y873931D01*
X152317Y874833D01*
X152317Y874841D01*
X152323Y874841D01*
X152879Y875872D01*
X152878Y875879D01*
X152883Y875881D01*
X153227Y877000D01*
X153225Y877007D01*
X153229Y877010D01*
X153349Y878175D01*
X153347Y878178D01*
X153349Y878180D01*
X153349Y884180D01*
X153347Y884183D01*
X153349Y884185D01*
X153238Y885361D01*
X153233Y885366D01*
X153236Y885370D01*
X152898Y886502D01*
X152892Y886506D01*
X152894Y886511D01*
X152342Y887555D01*
X152335Y887558D01*
X152337Y887563D01*
X151591Y888479D01*
X151584Y888480D01*
X151584Y888486D01*
X150675Y889239D01*
X150667Y889239D01*
X150667Y889244D01*
X149627Y889805D01*
X149620Y889804D01*
X149618Y889809D01*
X148489Y890156D01*
X148483Y890154D01*
X148480Y890158D01*
X147305Y890279D01*
X147298Y890275D01*
X147294Y890279D01*
X145954Y890122D01*
X145948Y890117D01*
X145943Y890120D01*
X144672Y889669D01*
X144667Y889662D01*
X144662Y889664D01*
X143523Y888942D01*
X143520Y888934D01*
X143514Y888935D01*
X142564Y887977D01*
X142563Y887969D01*
X142557Y887968D01*
X141844Y886823D01*
X141845Y886815D01*
X141839Y886813D01*
X141399Y885537D01*
X141401Y885530D01*
X141397Y885527D01*
X141251Y884185D01*
X141253Y884182D01*
X141251Y884180D01*
X141251Y878180D01*
X141253Y878177D01*
X141251Y878174D01*
X141406Y876845D01*
X141412Y876839D01*
X141409Y876835D01*
X141856Y875574D01*
X141863Y875569D01*
X141861Y875564D01*
X142578Y874434D01*
X142585Y874431D01*
X142584Y874425D01*
X143535Y873483D01*
X143543Y873482D01*
X143543Y873476D01*
X144679Y872769D01*
X144687Y872770D01*
X144689Y872764D01*
X145954Y872328D01*
X145959Y872329D01*
X145960Y872328D01*
X145963Y872328D01*
X145965Y872325D01*
X147295Y872181D01*
X147301Y872185D01*
X147305Y872181D01*
X148471Y872291D01*
G37*
G36*
X1001951Y872291D02*
X1001951Y872291D01*
X1001956Y872296D01*
X1001960Y872293D01*
X1003083Y872628D01*
X1003087Y872634D01*
X1003091Y872632D01*
X1004127Y873180D01*
X1004130Y873186D01*
X1004135Y873185D01*
X1005043Y873924D01*
X1005045Y873931D01*
X1005050Y873931D01*
X1005797Y874833D01*
X1005797Y874841D01*
X1005803Y874841D01*
X1006359Y875872D01*
X1006358Y875879D01*
X1006363Y875881D01*
X1006707Y877000D01*
X1006705Y877007D01*
X1006709Y877010D01*
X1006829Y878175D01*
X1006827Y878178D01*
X1006829Y878180D01*
X1006829Y884180D01*
X1006827Y884183D01*
X1006829Y884185D01*
X1006718Y885361D01*
X1006713Y885366D01*
X1006716Y885370D01*
X1006378Y886502D01*
X1006372Y886506D01*
X1006374Y886511D01*
X1005822Y887555D01*
X1005815Y887558D01*
X1005817Y887563D01*
X1005071Y888479D01*
X1005064Y888480D01*
X1005064Y888486D01*
X1004155Y889239D01*
X1004147Y889239D01*
X1004147Y889244D01*
X1003107Y889805D01*
X1003100Y889804D01*
X1003098Y889809D01*
X1001969Y890156D01*
X1001963Y890154D01*
X1001960Y890158D01*
X1000785Y890279D01*
X1000778Y890275D01*
X1000774Y890279D01*
X999434Y890122D01*
X999428Y890117D01*
X999423Y890120D01*
X998152Y889669D01*
X998147Y889662D01*
X998142Y889664D01*
X997003Y888942D01*
X997000Y888934D01*
X996994Y888935D01*
X996044Y887977D01*
X996043Y887969D01*
X996037Y887968D01*
X995324Y886823D01*
X995325Y886815D01*
X995319Y886813D01*
X994879Y885537D01*
X994881Y885530D01*
X994877Y885527D01*
X994731Y884185D01*
X994733Y884182D01*
X994731Y884180D01*
X994731Y878180D01*
X994733Y878177D01*
X994731Y878174D01*
X994886Y876845D01*
X994892Y876839D01*
X994889Y876835D01*
X995336Y875574D01*
X995343Y875569D01*
X995341Y875564D01*
X996058Y874434D01*
X996065Y874431D01*
X996064Y874425D01*
X997015Y873483D01*
X997023Y873482D01*
X997023Y873476D01*
X998159Y872769D01*
X998167Y872770D01*
X998169Y872764D01*
X999434Y872328D01*
X999439Y872329D01*
X999440Y872328D01*
X999443Y872328D01*
X999445Y872325D01*
X1000775Y872181D01*
X1000781Y872185D01*
X1000785Y872181D01*
X1001951Y872291D01*
G37*
G36*
X915551Y872291D02*
X915551Y872291D01*
X915556Y872296D01*
X915560Y872293D01*
X916683Y872628D01*
X916687Y872634D01*
X916691Y872632D01*
X917727Y873180D01*
X917730Y873186D01*
X917735Y873185D01*
X918643Y873924D01*
X918645Y873931D01*
X918650Y873931D01*
X919397Y874833D01*
X919397Y874841D01*
X919403Y874841D01*
X919959Y875872D01*
X919958Y875879D01*
X919963Y875881D01*
X920307Y877000D01*
X920305Y877007D01*
X920309Y877010D01*
X920429Y878175D01*
X920427Y878178D01*
X920429Y878180D01*
X920429Y884180D01*
X920427Y884183D01*
X920429Y884185D01*
X920318Y885361D01*
X920313Y885366D01*
X920316Y885370D01*
X919978Y886502D01*
X919972Y886506D01*
X919974Y886511D01*
X919422Y887555D01*
X919415Y887558D01*
X919417Y887563D01*
X918671Y888479D01*
X918664Y888480D01*
X918664Y888486D01*
X917755Y889239D01*
X917747Y889239D01*
X917747Y889244D01*
X916707Y889805D01*
X916700Y889804D01*
X916698Y889809D01*
X915569Y890156D01*
X915563Y890154D01*
X915560Y890158D01*
X914385Y890279D01*
X914378Y890275D01*
X914374Y890279D01*
X913034Y890122D01*
X913028Y890117D01*
X913023Y890120D01*
X911752Y889669D01*
X911747Y889662D01*
X911742Y889664D01*
X910603Y888942D01*
X910600Y888934D01*
X910594Y888935D01*
X909644Y887977D01*
X909643Y887969D01*
X909637Y887968D01*
X908924Y886823D01*
X908925Y886815D01*
X908919Y886813D01*
X908479Y885537D01*
X908481Y885530D01*
X908477Y885527D01*
X908331Y884185D01*
X908333Y884182D01*
X908331Y884180D01*
X908331Y878180D01*
X908333Y878177D01*
X908331Y878174D01*
X908486Y876845D01*
X908492Y876839D01*
X908489Y876835D01*
X908936Y875574D01*
X908943Y875569D01*
X908941Y875564D01*
X909658Y874434D01*
X909665Y874431D01*
X909664Y874425D01*
X910615Y873483D01*
X910623Y873482D01*
X910623Y873476D01*
X911759Y872769D01*
X911767Y872770D01*
X911769Y872764D01*
X913034Y872328D01*
X913039Y872329D01*
X913040Y872328D01*
X913043Y872328D01*
X913045Y872325D01*
X914375Y872181D01*
X914381Y872185D01*
X914385Y872181D01*
X915551Y872291D01*
G37*
G36*
X234871Y872291D02*
X234871Y872291D01*
X234876Y872296D01*
X234880Y872293D01*
X236003Y872628D01*
X236007Y872634D01*
X236011Y872632D01*
X237047Y873180D01*
X237050Y873186D01*
X237055Y873185D01*
X237963Y873924D01*
X237965Y873931D01*
X237970Y873931D01*
X238717Y874833D01*
X238717Y874841D01*
X238723Y874841D01*
X239279Y875872D01*
X239278Y875879D01*
X239283Y875881D01*
X239627Y877000D01*
X239625Y877007D01*
X239629Y877010D01*
X239749Y878175D01*
X239747Y878178D01*
X239749Y878180D01*
X239749Y884180D01*
X239747Y884183D01*
X239749Y884185D01*
X239638Y885361D01*
X239633Y885366D01*
X239636Y885370D01*
X239298Y886502D01*
X239292Y886506D01*
X239294Y886511D01*
X238742Y887555D01*
X238735Y887558D01*
X238737Y887563D01*
X237991Y888479D01*
X237984Y888480D01*
X237984Y888486D01*
X237075Y889239D01*
X237067Y889239D01*
X237067Y889244D01*
X236027Y889805D01*
X236020Y889804D01*
X236018Y889809D01*
X234889Y890156D01*
X234883Y890154D01*
X234880Y890158D01*
X233705Y890279D01*
X233698Y890275D01*
X233694Y890279D01*
X232354Y890122D01*
X232348Y890117D01*
X232343Y890120D01*
X231072Y889669D01*
X231067Y889662D01*
X231062Y889664D01*
X229923Y888942D01*
X229920Y888934D01*
X229914Y888935D01*
X228964Y887977D01*
X228963Y887969D01*
X228957Y887968D01*
X228244Y886823D01*
X228245Y886815D01*
X228239Y886813D01*
X227799Y885537D01*
X227801Y885530D01*
X227797Y885527D01*
X227651Y884185D01*
X227653Y884182D01*
X227651Y884180D01*
X227651Y878180D01*
X227653Y878177D01*
X227651Y878174D01*
X227806Y876845D01*
X227812Y876839D01*
X227809Y876835D01*
X228256Y875574D01*
X228263Y875569D01*
X228261Y875564D01*
X228978Y874434D01*
X228985Y874431D01*
X228984Y874425D01*
X229935Y873483D01*
X229943Y873482D01*
X229943Y873476D01*
X231079Y872769D01*
X231087Y872770D01*
X231089Y872764D01*
X232354Y872328D01*
X232359Y872329D01*
X232360Y872328D01*
X232363Y872328D01*
X232365Y872325D01*
X233695Y872181D01*
X233701Y872185D01*
X233705Y872181D01*
X234871Y872291D01*
G37*
D10*
X198000Y60100D03*
X193000Y60100D03*
D11*
X222750Y60100D03*
X215000Y60100D03*
D10*
X208000Y60100D03*
X203000Y60100D03*
X183000Y60100D03*
X188000Y60100D03*
D11*
X158250Y60100D03*
X166000Y60100D03*
D10*
X173000Y60100D03*
X178000Y60100D03*
D12*
X161600Y49050D03*
X219400Y49050D03*
D13*
X156600Y76200D03*
X173600Y76200D03*
X224400Y76200D03*
X207400Y76200D03*
D14*
X204250Y91850D03*
X204250Y98350D03*
X204250Y104850D03*
X204250Y111350D03*
X176750Y111350D03*
X176750Y104850D03*
X176750Y98350D03*
X176750Y91850D03*
D15*
X190500Y101600D03*
D16*
X152400Y93100D03*
X152400Y110100D03*
D17*
X7620Y7620D03*
X754380Y755650D03*
D18*
X605900Y396700D03*
D19*
X596900Y383700D03*
D18*
X605900Y406700D03*
X587900Y406700D03*
X587900Y396700D03*
D20*
X590275Y383700D02*
X590277Y383863D01*
X590283Y384025D01*
X590293Y384187D01*
X590307Y384349D01*
X590325Y384511D01*
X590347Y384672D01*
X590373Y384833D01*
X590402Y384992D01*
X590436Y385152D01*
X590474Y385310D01*
X590515Y385467D01*
X590560Y385623D01*
X590609Y385778D01*
X590662Y385932D01*
X590719Y386084D01*
X590779Y386235D01*
X590843Y386385D01*
X590911Y386533D01*
X590982Y386679D01*
X591057Y386823D01*
X591136Y386965D01*
X591218Y387106D01*
X591303Y387244D01*
X591392Y387381D01*
X591484Y387515D01*
X591579Y387647D01*
X591677Y387776D01*
X591779Y387903D01*
X591883Y388027D01*
X591991Y388149D01*
X592102Y388268D01*
X592215Y388385D01*
X592332Y388498D01*
X592451Y388609D01*
X592573Y388717D01*
X592697Y388821D01*
X592824Y388923D01*
X592953Y389021D01*
X593085Y389116D01*
X593219Y389208D01*
X593356Y389297D01*
X593494Y389382D01*
X593635Y389464D01*
X593777Y389543D01*
X593921Y389618D01*
X594067Y389689D01*
X594215Y389757D01*
X594365Y389821D01*
X594516Y389881D01*
X594668Y389938D01*
X594822Y389991D01*
X594977Y390040D01*
X595133Y390085D01*
X595290Y390126D01*
X595448Y390164D01*
X595608Y390198D01*
X595767Y390227D01*
X595928Y390253D01*
X596089Y390275D01*
X596251Y390293D01*
X596413Y390307D01*
X596575Y390317D01*
X596737Y390323D01*
X596900Y390325D01*
X597063Y390323D01*
X597225Y390317D01*
X597387Y390307D01*
X597549Y390293D01*
X597711Y390275D01*
X597872Y390253D01*
X598033Y390227D01*
X598192Y390198D01*
X598352Y390164D01*
X598510Y390126D01*
X598667Y390085D01*
X598823Y390040D01*
X598978Y389991D01*
X599132Y389938D01*
X599284Y389881D01*
X599435Y389821D01*
X599585Y389757D01*
X599733Y389689D01*
X599879Y389618D01*
X600023Y389543D01*
X600165Y389464D01*
X600306Y389382D01*
X600444Y389297D01*
X600581Y389208D01*
X600715Y389116D01*
X600847Y389021D01*
X600976Y388923D01*
X601103Y388821D01*
X601227Y388717D01*
X601349Y388609D01*
X601468Y388498D01*
X601585Y388385D01*
X601698Y388268D01*
X601809Y388149D01*
X601917Y388027D01*
X602021Y387903D01*
X602123Y387776D01*
X602221Y387647D01*
X602316Y387515D01*
X602408Y387381D01*
X602497Y387244D01*
X602582Y387106D01*
X602664Y386965D01*
X602743Y386823D01*
X602818Y386679D01*
X602889Y386533D01*
X602957Y386385D01*
X603021Y386235D01*
X603081Y386084D01*
X603138Y385932D01*
X603191Y385778D01*
X603240Y385623D01*
X603285Y385467D01*
X603326Y385310D01*
X603364Y385152D01*
X603398Y384992D01*
X603427Y384833D01*
X603453Y384672D01*
X603475Y384511D01*
X603493Y384349D01*
X603507Y384187D01*
X603517Y384025D01*
X603523Y383863D01*
X603525Y383700D01*
X603523Y383537D01*
X603517Y383375D01*
X603507Y383213D01*
X603493Y383051D01*
X603475Y382889D01*
X603453Y382728D01*
X603427Y382567D01*
X603398Y382408D01*
X603364Y382248D01*
X603326Y382090D01*
X603285Y381933D01*
X603240Y381777D01*
X603191Y381622D01*
X603138Y381468D01*
X603081Y381316D01*
X603021Y381165D01*
X602957Y381015D01*
X602889Y380867D01*
X602818Y380721D01*
X602743Y380577D01*
X602664Y380435D01*
X602582Y380294D01*
X602497Y380156D01*
X602408Y380019D01*
X602316Y379885D01*
X602221Y379753D01*
X602123Y379624D01*
X602021Y379497D01*
X601917Y379373D01*
X601809Y379251D01*
X601698Y379132D01*
X601585Y379015D01*
X601468Y378902D01*
X601349Y378791D01*
X601227Y378683D01*
X601103Y378579D01*
X600976Y378477D01*
X600847Y378379D01*
X600715Y378284D01*
X600581Y378192D01*
X600444Y378103D01*
X600306Y378018D01*
X600165Y377936D01*
X600023Y377857D01*
X599879Y377782D01*
X599733Y377711D01*
X599585Y377643D01*
X599435Y377579D01*
X599284Y377519D01*
X599132Y377462D01*
X598978Y377409D01*
X598823Y377360D01*
X598667Y377315D01*
X598510Y377274D01*
X598352Y377236D01*
X598192Y377202D01*
X598033Y377173D01*
X597872Y377147D01*
X597711Y377125D01*
X597549Y377107D01*
X597387Y377093D01*
X597225Y377083D01*
X597063Y377077D01*
X596900Y377075D01*
X596737Y377077D01*
X596575Y377083D01*
X596413Y377093D01*
X596251Y377107D01*
X596089Y377125D01*
X595928Y377147D01*
X595767Y377173D01*
X595608Y377202D01*
X595448Y377236D01*
X595290Y377274D01*
X595133Y377315D01*
X594977Y377360D01*
X594822Y377409D01*
X594668Y377462D01*
X594516Y377519D01*
X594365Y377579D01*
X594215Y377643D01*
X594067Y377711D01*
X593921Y377782D01*
X593777Y377857D01*
X593635Y377936D01*
X593494Y378018D01*
X593356Y378103D01*
X593219Y378192D01*
X593085Y378284D01*
X592953Y378379D01*
X592824Y378477D01*
X592697Y378579D01*
X592573Y378683D01*
X592451Y378791D01*
X592332Y378902D01*
X592215Y379015D01*
X592102Y379132D01*
X591991Y379251D01*
X591883Y379373D01*
X591779Y379497D01*
X591677Y379624D01*
X591579Y379753D01*
X591484Y379885D01*
X591392Y380019D01*
X591303Y380156D01*
X591218Y380294D01*
X591136Y380435D01*
X591057Y380577D01*
X590982Y380721D01*
X590911Y380867D01*
X590843Y381015D01*
X590779Y381165D01*
X590719Y381316D01*
X590662Y381468D01*
X590609Y381622D01*
X590560Y381777D01*
X590515Y381933D01*
X590474Y382090D01*
X590436Y382248D01*
X590402Y382408D01*
X590373Y382567D01*
X590347Y382728D01*
X590325Y382889D01*
X590307Y383051D01*
X590293Y383213D01*
X590283Y383375D01*
X590277Y383537D01*
X590275Y383700D01*
D21*
X596900Y377200D03*
D22*
X590400Y383700D03*
X603400Y383700D03*
D21*
X596900Y390200D03*
D16*
X565150Y402200D03*
X565150Y385200D03*
D23*
X736600Y736600D03*
X25400Y736600D03*
X736600Y25400D03*
X25400Y25400D03*
D16*
X469900Y97400D03*
X469900Y80400D03*
D24*
X310600Y44100D03*
D25*
X290900Y93980D03*
X267900Y93980D03*
D13*
X270900Y76200D03*
X287900Y76200D03*
X668900Y457200D03*
X651900Y457200D03*
X668900Y431800D03*
X651900Y431800D03*
D26*
X19050Y238760D03*
X19050Y294640D03*
X57150Y238760D03*
X57150Y294640D03*
D16*
X137160Y93100D03*
X137160Y110100D03*
D27*
X114300Y23100D03*
X114300Y53100D03*
D28*
X114300Y102900D03*
X114300Y74900D03*
D13*
X152010Y148590D03*
X135010Y148590D03*
X135010Y133350D03*
X152010Y133350D03*
D29*
X223520Y143510D03*
X248920Y143510D03*
D30*
X317500Y184150D03*
X304800Y184150D03*
X292100Y184150D03*
X279400Y184150D03*
X330200Y184150D03*
X317500Y171450D03*
X304800Y171450D03*
X292100Y171450D03*
X279400Y171450D03*
X330200Y171450D03*
D26*
X82550Y238760D03*
X82550Y294640D03*
X120650Y238760D03*
X120650Y294640D03*
D29*
X12700Y431800D03*
X12700Y406400D03*
X12700Y381000D03*
X12700Y355600D03*
X12700Y330200D03*
X723900Y279400D03*
X723900Y304800D03*
X723900Y330200D03*
X723900Y355600D03*
X723900Y381000D03*
X723900Y406400D03*
X749300Y279400D03*
X749300Y304800D03*
X749300Y330200D03*
X749300Y355600D03*
X749300Y381000D03*
X749300Y406400D03*
D31*
X579150Y173800D03*
X522150Y173800D03*
D32*
X506150Y42300D03*
X637650Y32300D03*
D33*
X591050Y70800D03*
X580050Y74800D03*
X569050Y70800D03*
X558050Y68800D03*
X547050Y70800D03*
X536050Y68800D03*
X525050Y70800D03*
X514050Y70800D03*
D29*
X749300Y508000D03*
X749300Y482600D03*
X749300Y457200D03*
X749300Y431800D03*
D34*
X518200Y277300D03*
D16*
X176530Y150740D03*
X176530Y133740D03*
D35*
X194310Y155010D03*
X194310Y132010D03*
D13*
X80400Y476250D03*
X97400Y476250D03*
D36*
X20120Y479740D02*
X20120Y472760D01*
X13140Y472760D01*
X13140Y479740D01*
X20120Y479740D01*
X20120Y477560D02*
X13140Y477560D01*
X37660Y479740D02*
X37660Y472760D01*
X30680Y472760D01*
X30680Y479740D01*
X37660Y479740D01*
X37660Y477560D02*
X30680Y477560D01*
D13*
X223910Y92710D03*
X240910Y92710D03*
X223910Y107950D03*
X240910Y107950D03*
X223910Y123190D03*
X240910Y123190D03*
D37*
X317500Y217500D03*
D38*
X317500Y417500D03*
D39*
X264750Y225000D03*
D40*
X272500Y214000D03*
X272500Y421000D03*
D39*
X340250Y227500D03*
X264750Y230000D03*
X340250Y232500D03*
X264750Y235000D03*
X340250Y237500D03*
X264750Y240000D03*
X340250Y242500D03*
X264750Y245000D03*
X340250Y247500D03*
X264750Y250000D03*
X340250Y252500D03*
X264750Y255000D03*
X340250Y257500D03*
X264750Y260000D03*
X340250Y262500D03*
X264750Y265000D03*
X340250Y267500D03*
X264750Y270000D03*
X340250Y272500D03*
X264750Y275000D03*
X340250Y277500D03*
X264750Y280000D03*
X340250Y302500D03*
X264750Y305000D03*
X340250Y307500D03*
X264750Y310000D03*
X340250Y312500D03*
X264750Y315000D03*
X340250Y317500D03*
X264750Y320000D03*
X340250Y322500D03*
X264750Y325000D03*
X340250Y327500D03*
X264750Y330000D03*
X340250Y332500D03*
X264750Y335000D03*
X340250Y337500D03*
X264750Y340000D03*
X340250Y342500D03*
X264750Y345000D03*
X340250Y347500D03*
X264750Y350000D03*
X340250Y352500D03*
X264750Y355000D03*
X340250Y357500D03*
X264750Y360000D03*
X340250Y362500D03*
X264750Y365000D03*
X340250Y367500D03*
X264750Y370000D03*
X340250Y372500D03*
X264750Y375000D03*
X340250Y377500D03*
X264750Y380000D03*
X340250Y382500D03*
X264750Y385000D03*
X340250Y387500D03*
X264750Y390000D03*
X340250Y392500D03*
X264750Y395000D03*
X340250Y397500D03*
X264750Y400000D03*
X340250Y402500D03*
X264750Y405000D03*
X340250Y407500D03*
X264750Y410000D03*
D41*
X288900Y130650D03*
X269900Y130650D03*
X279400Y109650D03*
D29*
X12700Y76200D03*
D13*
X80400Y457200D03*
X97400Y457200D03*
D36*
X20120Y460690D02*
X20120Y453710D01*
X13140Y453710D01*
X13140Y460690D01*
X20120Y460690D01*
X20120Y458510D02*
X13140Y458510D01*
X37660Y460690D02*
X37660Y453710D01*
X30680Y453710D01*
X30680Y460690D01*
X37660Y460690D01*
X37660Y458510D02*
X30680Y458510D01*
D42*
X747950Y86300D03*
X747950Y142300D03*
D43*
X711200Y99300D03*
X711200Y109300D03*
X711200Y119300D03*
X711200Y129300D03*
D16*
X666750Y143900D03*
X666750Y160900D03*
X692150Y143900D03*
X692150Y160900D03*
D29*
X749300Y254000D03*
X749300Y228600D03*
X749300Y203200D03*
X749300Y177800D03*
D16*
X82550Y205350D03*
X82550Y188350D03*
X101600Y205350D03*
X101600Y188350D03*
X120650Y205350D03*
X120650Y188350D03*
D33*
X271000Y552800D03*
X282000Y552800D03*
X293000Y552800D03*
X304000Y552800D03*
X315000Y552800D03*
X326000Y552800D03*
X337000Y552800D03*
X348000Y552800D03*
X359000Y552800D03*
X370000Y552800D03*
X381000Y552800D03*
X392000Y552800D03*
X403000Y552800D03*
X414000Y552800D03*
X425000Y552800D03*
X436000Y552800D03*
X447000Y552800D03*
X458000Y552800D03*
X469000Y552800D03*
X480000Y552800D03*
X491000Y552800D03*
D44*
X500500Y567300D03*
X500500Y578300D03*
X500500Y589300D03*
X500500Y600300D03*
X500500Y611300D03*
X500500Y622300D03*
X500500Y633300D03*
X500500Y644300D03*
X500500Y655300D03*
X500500Y666300D03*
X500500Y677300D03*
D33*
X491000Y691800D03*
X480000Y691800D03*
X469000Y691800D03*
X458000Y691800D03*
X447000Y691800D03*
X436000Y691800D03*
X425000Y691800D03*
X414000Y691800D03*
X403000Y691800D03*
X392000Y691800D03*
X381000Y691800D03*
X370000Y691800D03*
X359000Y691800D03*
X348000Y691800D03*
X337000Y691800D03*
X326000Y691800D03*
X315000Y691800D03*
X304000Y691800D03*
X293000Y691800D03*
X282000Y691800D03*
X271000Y691800D03*
D44*
X261500Y677300D03*
X261500Y666300D03*
X261500Y655300D03*
X261500Y644300D03*
X261500Y633300D03*
X261500Y622300D03*
X261500Y611300D03*
X261500Y600300D03*
X261500Y589300D03*
X261500Y578300D03*
X261500Y567300D03*
D45*
X278500Y569800D03*
X278500Y590800D03*
X278500Y611800D03*
X278500Y632800D03*
X278500Y653800D03*
X278500Y674800D03*
X296500Y569800D03*
X296500Y590800D03*
X296500Y611800D03*
X296500Y632800D03*
X296500Y653800D03*
X296500Y674800D03*
X314500Y569800D03*
X314500Y674800D03*
X350500Y569800D03*
X350500Y674800D03*
X483500Y674800D03*
X483500Y653800D03*
X483500Y632800D03*
X483500Y611800D03*
X483500Y590800D03*
X483500Y569800D03*
X465500Y674800D03*
X465500Y653800D03*
X465500Y632800D03*
X465500Y611800D03*
X465500Y590800D03*
X465500Y569800D03*
X447500Y674800D03*
X447500Y569800D03*
X411500Y674800D03*
X411500Y569800D03*
D46*
X396525Y371000D03*
D47*
X396000Y375000D03*
X396000Y379000D03*
X396000Y383000D03*
X396000Y387000D03*
D46*
X396525Y391000D03*
D48*
X391000Y396525D03*
D49*
X387000Y396000D03*
X383000Y396000D03*
X379000Y396000D03*
X375000Y396000D03*
D48*
X371000Y396525D03*
D46*
X365475Y391000D03*
D47*
X366000Y387000D03*
X366000Y383000D03*
X366000Y379000D03*
X366000Y375000D03*
D46*
X365475Y371000D03*
D48*
X371000Y365475D03*
D49*
X375000Y366000D03*
X379000Y366000D03*
X383000Y366000D03*
X387000Y366000D03*
D48*
X391000Y365475D03*
D50*
X392510Y371005D03*
D51*
X390995Y392510D03*
D50*
X369490Y390995D03*
D51*
X371005Y369490D03*
X390995Y369490D03*
D50*
X392510Y390995D03*
D51*
X371005Y392510D03*
D50*
X369490Y371005D03*
D13*
X372500Y422910D03*
X389500Y422910D03*
D16*
X412750Y389500D03*
X412750Y372500D03*
X431800Y389500D03*
X431800Y372500D03*
D52*
X457050Y372750D03*
X463550Y372750D03*
X470050Y372750D03*
X470050Y389250D03*
X457050Y389250D03*
D13*
X455050Y340360D03*
X472050Y340360D03*
D53*
X429690Y417750D03*
X429690Y407750D03*
X441190Y412750D03*
D16*
X412750Y405520D03*
X412750Y422520D03*
D54*
X123700Y727000D03*
D55*
X165100Y681000D03*
D54*
X206500Y727000D03*
X555500Y727000D03*
D55*
X596900Y681000D03*
D54*
X638300Y727000D03*
D56*
X367999Y149200D03*
X367999Y139700D03*
X367999Y130200D03*
X394001Y130200D03*
X394001Y149200D03*
D16*
X393700Y186300D03*
X393700Y169300D03*
D13*
X351400Y114300D03*
X334400Y114300D03*
D36*
X462480Y28890D02*
X462480Y21910D01*
X462480Y28890D02*
X469460Y28890D01*
X469460Y21910D01*
X462480Y21910D01*
X462480Y26710D02*
X469460Y26710D01*
X444940Y28890D02*
X444940Y21910D01*
X444940Y28890D02*
X451920Y28890D01*
X451920Y21910D01*
X444940Y21910D01*
X444940Y26710D02*
X451920Y26710D01*
D13*
X448700Y50800D03*
X465700Y50800D03*
D57*
X391000Y75100D03*
X371000Y75100D03*
D58*
X415000Y23100D03*
X347000Y23100D03*
D29*
X368300Y25400D03*
X393700Y25400D03*
D25*
X392500Y114300D03*
X369500Y114300D03*
D59*
X629650Y615950D03*
X629650Y603250D03*
X629650Y590550D03*
X629650Y577850D03*
X629650Y565150D03*
X629650Y552450D03*
D60*
X693850Y537300D03*
X636350Y537300D03*
X636350Y630800D03*
X693850Y630800D03*
D61*
X751050Y539550D03*
X751050Y628850D03*
D62*
X419100Y718750D03*
X428600Y718750D03*
X409600Y718750D03*
X428600Y741750D03*
X419100Y741750D03*
X409600Y741750D03*
D29*
X12700Y635000D03*
X12700Y609600D03*
X12700Y584200D03*
X12700Y558800D03*
D16*
X392430Y719210D03*
X392430Y736210D03*
X461010Y719210D03*
X461010Y736210D03*
X445770Y736210D03*
X445770Y719210D03*
X377190Y736210D03*
X377190Y719210D03*
X361950Y736210D03*
X361950Y719210D03*
D13*
X455050Y412750D03*
X472050Y412750D03*
D16*
X297180Y715400D03*
X297180Y732400D03*
X281940Y715400D03*
X281940Y732400D03*
X266700Y715400D03*
X266700Y732400D03*
D63*
X198120Y630682D03*
X198120Y639318D03*
X228600Y654812D03*
X228600Y663448D03*
D64*
X209000Y655320D03*
X197400Y655320D03*
X197570Y589280D03*
X185970Y589280D03*
D13*
X230750Y589280D03*
X213750Y589280D03*
D64*
X197570Y609600D03*
X185970Y609600D03*
D65*
X596290Y493729D03*
X605790Y493729D03*
X615290Y493729D03*
X615290Y519731D03*
X596290Y519731D03*
D13*
X596510Y549910D03*
X579510Y549910D03*
X596510Y565150D03*
X579510Y565150D03*
D16*
X596900Y634120D03*
X596900Y651120D03*
X596900Y582050D03*
X596900Y599050D03*
D13*
X596510Y615950D03*
X579510Y615950D03*
X598560Y476250D03*
X615560Y476250D03*
D66*
X533400Y666030D03*
X533400Y677630D03*
D67*
X422090Y505428D03*
X415590Y505428D03*
X409090Y505428D03*
X402590Y505428D03*
X396090Y505428D03*
X389590Y505428D03*
X383090Y505428D03*
X383090Y447072D03*
X389590Y447072D03*
X396090Y447072D03*
X402590Y447072D03*
X409090Y447072D03*
X415590Y447072D03*
X422090Y447072D03*
X359860Y505428D03*
X353360Y505428D03*
X346860Y505428D03*
X340360Y505428D03*
X333860Y505428D03*
X327360Y505428D03*
X320860Y505428D03*
X320860Y447072D03*
X327360Y447072D03*
X333860Y447072D03*
X340360Y447072D03*
X346860Y447072D03*
X353360Y447072D03*
X359860Y447072D03*
D68*
X553600Y587000D03*
X548600Y587000D03*
X543600Y587000D03*
X538600Y587000D03*
X553600Y556000D03*
X548600Y556000D03*
X543600Y556000D03*
X538600Y556000D03*
D16*
X548640Y535550D03*
X548640Y518550D03*
X448310Y484750D03*
X448310Y467750D03*
D13*
X294250Y447040D03*
X277250Y447040D03*
D69*
X457560Y501500D03*
X457560Y514500D03*
X439060Y508000D03*
D16*
X472440Y467750D03*
X472440Y484750D03*
D70*
X524660Y466750D03*
X511660Y466750D03*
X524660Y485750D03*
X511660Y485750D03*
X518160Y485750D03*
D69*
X495660Y501500D03*
X495660Y514500D03*
X477160Y508000D03*
D16*
X495300Y467750D03*
X495300Y484750D03*
D53*
X508430Y728900D03*
X508430Y718900D03*
X519930Y723900D03*
D16*
X488950Y719210D03*
X488950Y736210D03*
D13*
X524120Y742950D03*
X507120Y742950D03*
D29*
X12700Y203200D03*
X12700Y177800D03*
X12700Y152400D03*
X12700Y127000D03*
X12700Y101600D03*
D41*
X479400Y137000D03*
X460400Y137000D03*
X469900Y116000D03*
D67*
X413200Y333978D03*
X406700Y333978D03*
X400200Y333978D03*
X393700Y333978D03*
X387200Y333978D03*
X380700Y333978D03*
X374200Y333978D03*
X374200Y275622D03*
X380700Y275622D03*
X387200Y275622D03*
X393700Y275622D03*
X400200Y275622D03*
X406700Y275622D03*
X413200Y275622D03*
D13*
X287410Y529590D03*
X304410Y529590D03*
D69*
X136250Y479910D03*
X136250Y492910D03*
X117750Y486410D03*
D13*
X167250Y480060D03*
X150250Y480060D03*
X97400Y495300D03*
X80400Y495300D03*
D36*
X30680Y491810D02*
X30680Y498790D01*
X37660Y498790D01*
X37660Y491810D01*
X30680Y491810D01*
X30680Y496610D02*
X37660Y496610D01*
X13140Y498790D02*
X13140Y491810D01*
X13140Y498790D02*
X20120Y498790D01*
X20120Y491810D01*
X13140Y491810D01*
X13140Y496610D02*
X20120Y496610D01*
D69*
X136250Y507850D03*
X136250Y520850D03*
X117750Y514350D03*
D13*
X167250Y508000D03*
X150250Y508000D03*
X97400Y514350D03*
X80400Y514350D03*
D36*
X30680Y510860D02*
X30680Y517840D01*
X37660Y517840D01*
X37660Y510860D01*
X30680Y510860D01*
X30680Y515660D02*
X37660Y515660D01*
X13140Y517840D02*
X13140Y510860D01*
X13140Y517840D02*
X20120Y517840D01*
X20120Y510860D01*
X13140Y510860D01*
X13140Y515660D02*
X20120Y515660D01*
D13*
X427600Y528320D03*
X410600Y528320D03*
X377580Y528320D03*
X394580Y528320D03*
D29*
X12700Y660400D03*
D13*
X67700Y660400D03*
X84700Y660400D03*
X67700Y685800D03*
X84700Y685800D03*
D29*
X12700Y685800D03*
D13*
X472050Y355600D03*
X455050Y355600D03*
X461400Y152400D03*
X478400Y152400D03*
X167250Y552450D03*
X150250Y552450D03*
X469510Y447040D03*
X452510Y447040D03*
X277250Y462280D03*
X294250Y462280D03*
X294250Y477520D03*
X277250Y477520D03*
D25*
X618560Y457200D03*
X595560Y457200D03*
D26*
X184150Y294640D03*
X184150Y238760D03*
X146050Y294640D03*
X146050Y238760D03*
D16*
X367030Y186300D03*
X367030Y169300D03*
D69*
X136250Y535790D03*
X136250Y548790D03*
X117750Y542290D03*
D13*
X167250Y535940D03*
X150250Y535940D03*
X97400Y533400D03*
X80400Y533400D03*
D36*
X30680Y529910D02*
X30680Y536890D01*
X37660Y536890D01*
X37660Y529910D01*
X30680Y529910D01*
X30680Y534710D02*
X37660Y534710D01*
X13140Y536890D02*
X13140Y529910D01*
X13140Y536890D02*
X20120Y536890D01*
X20120Y529910D01*
X13140Y529910D01*
X13140Y534710D02*
X20120Y534710D01*
D13*
X150250Y568960D03*
X167250Y568960D03*
D10*
X965080Y60100D03*
X960080Y60100D03*
D11*
X989830Y60100D03*
X982080Y60100D03*
D10*
X975080Y60100D03*
X970080Y60100D03*
X950080Y60100D03*
X955080Y60100D03*
D11*
X925330Y60100D03*
X933080Y60100D03*
D10*
X940080Y60100D03*
X945080Y60100D03*
D12*
X928680Y49050D03*
X986480Y49050D03*
D13*
X923680Y76200D03*
X940680Y76200D03*
X991480Y76200D03*
X974480Y76200D03*
D14*
X971330Y91850D03*
X971330Y98350D03*
X971330Y104850D03*
X971330Y111350D03*
X943830Y111350D03*
X943830Y104850D03*
X943830Y98350D03*
X943830Y91850D03*
D15*
X957580Y101600D03*
D16*
X919480Y93100D03*
X919480Y110100D03*
D17*
X774700Y7620D03*
X1521460Y755650D03*
D18*
X1372980Y396700D03*
D19*
X1363980Y383700D03*
D18*
X1372980Y406700D03*
X1354980Y406700D03*
X1354980Y396700D03*
D20*
X1357355Y383700D02*
X1357357Y383863D01*
X1357363Y384025D01*
X1357373Y384187D01*
X1357387Y384349D01*
X1357405Y384511D01*
X1357427Y384672D01*
X1357453Y384833D01*
X1357482Y384992D01*
X1357516Y385152D01*
X1357554Y385310D01*
X1357595Y385467D01*
X1357640Y385623D01*
X1357689Y385778D01*
X1357742Y385932D01*
X1357799Y386084D01*
X1357859Y386235D01*
X1357923Y386385D01*
X1357991Y386533D01*
X1358062Y386679D01*
X1358137Y386823D01*
X1358216Y386965D01*
X1358298Y387106D01*
X1358383Y387244D01*
X1358472Y387381D01*
X1358564Y387515D01*
X1358659Y387647D01*
X1358757Y387776D01*
X1358859Y387903D01*
X1358963Y388027D01*
X1359071Y388149D01*
X1359182Y388268D01*
X1359295Y388385D01*
X1359412Y388498D01*
X1359531Y388609D01*
X1359653Y388717D01*
X1359777Y388821D01*
X1359904Y388923D01*
X1360033Y389021D01*
X1360165Y389116D01*
X1360299Y389208D01*
X1360436Y389297D01*
X1360574Y389382D01*
X1360715Y389464D01*
X1360857Y389543D01*
X1361001Y389618D01*
X1361147Y389689D01*
X1361295Y389757D01*
X1361445Y389821D01*
X1361596Y389881D01*
X1361748Y389938D01*
X1361902Y389991D01*
X1362057Y390040D01*
X1362213Y390085D01*
X1362370Y390126D01*
X1362528Y390164D01*
X1362688Y390198D01*
X1362847Y390227D01*
X1363008Y390253D01*
X1363169Y390275D01*
X1363331Y390293D01*
X1363493Y390307D01*
X1363655Y390317D01*
X1363817Y390323D01*
X1363980Y390325D01*
X1364143Y390323D01*
X1364305Y390317D01*
X1364467Y390307D01*
X1364629Y390293D01*
X1364791Y390275D01*
X1364952Y390253D01*
X1365113Y390227D01*
X1365272Y390198D01*
X1365432Y390164D01*
X1365590Y390126D01*
X1365747Y390085D01*
X1365903Y390040D01*
X1366058Y389991D01*
X1366212Y389938D01*
X1366364Y389881D01*
X1366515Y389821D01*
X1366665Y389757D01*
X1366813Y389689D01*
X1366959Y389618D01*
X1367103Y389543D01*
X1367245Y389464D01*
X1367386Y389382D01*
X1367524Y389297D01*
X1367661Y389208D01*
X1367795Y389116D01*
X1367927Y389021D01*
X1368056Y388923D01*
X1368183Y388821D01*
X1368307Y388717D01*
X1368429Y388609D01*
X1368548Y388498D01*
X1368665Y388385D01*
X1368778Y388268D01*
X1368889Y388149D01*
X1368997Y388027D01*
X1369101Y387903D01*
X1369203Y387776D01*
X1369301Y387647D01*
X1369396Y387515D01*
X1369488Y387381D01*
X1369577Y387244D01*
X1369662Y387106D01*
X1369744Y386965D01*
X1369823Y386823D01*
X1369898Y386679D01*
X1369969Y386533D01*
X1370037Y386385D01*
X1370101Y386235D01*
X1370161Y386084D01*
X1370218Y385932D01*
X1370271Y385778D01*
X1370320Y385623D01*
X1370365Y385467D01*
X1370406Y385310D01*
X1370444Y385152D01*
X1370478Y384992D01*
X1370507Y384833D01*
X1370533Y384672D01*
X1370555Y384511D01*
X1370573Y384349D01*
X1370587Y384187D01*
X1370597Y384025D01*
X1370603Y383863D01*
X1370605Y383700D01*
X1370603Y383537D01*
X1370597Y383375D01*
X1370587Y383213D01*
X1370573Y383051D01*
X1370555Y382889D01*
X1370533Y382728D01*
X1370507Y382567D01*
X1370478Y382408D01*
X1370444Y382248D01*
X1370406Y382090D01*
X1370365Y381933D01*
X1370320Y381777D01*
X1370271Y381622D01*
X1370218Y381468D01*
X1370161Y381316D01*
X1370101Y381165D01*
X1370037Y381015D01*
X1369969Y380867D01*
X1369898Y380721D01*
X1369823Y380577D01*
X1369744Y380435D01*
X1369662Y380294D01*
X1369577Y380156D01*
X1369488Y380019D01*
X1369396Y379885D01*
X1369301Y379753D01*
X1369203Y379624D01*
X1369101Y379497D01*
X1368997Y379373D01*
X1368889Y379251D01*
X1368778Y379132D01*
X1368665Y379015D01*
X1368548Y378902D01*
X1368429Y378791D01*
X1368307Y378683D01*
X1368183Y378579D01*
X1368056Y378477D01*
X1367927Y378379D01*
X1367795Y378284D01*
X1367661Y378192D01*
X1367524Y378103D01*
X1367386Y378018D01*
X1367245Y377936D01*
X1367103Y377857D01*
X1366959Y377782D01*
X1366813Y377711D01*
X1366665Y377643D01*
X1366515Y377579D01*
X1366364Y377519D01*
X1366212Y377462D01*
X1366058Y377409D01*
X1365903Y377360D01*
X1365747Y377315D01*
X1365590Y377274D01*
X1365432Y377236D01*
X1365272Y377202D01*
X1365113Y377173D01*
X1364952Y377147D01*
X1364791Y377125D01*
X1364629Y377107D01*
X1364467Y377093D01*
X1364305Y377083D01*
X1364143Y377077D01*
X1363980Y377075D01*
X1363817Y377077D01*
X1363655Y377083D01*
X1363493Y377093D01*
X1363331Y377107D01*
X1363169Y377125D01*
X1363008Y377147D01*
X1362847Y377173D01*
X1362688Y377202D01*
X1362528Y377236D01*
X1362370Y377274D01*
X1362213Y377315D01*
X1362057Y377360D01*
X1361902Y377409D01*
X1361748Y377462D01*
X1361596Y377519D01*
X1361445Y377579D01*
X1361295Y377643D01*
X1361147Y377711D01*
X1361001Y377782D01*
X1360857Y377857D01*
X1360715Y377936D01*
X1360574Y378018D01*
X1360436Y378103D01*
X1360299Y378192D01*
X1360165Y378284D01*
X1360033Y378379D01*
X1359904Y378477D01*
X1359777Y378579D01*
X1359653Y378683D01*
X1359531Y378791D01*
X1359412Y378902D01*
X1359295Y379015D01*
X1359182Y379132D01*
X1359071Y379251D01*
X1358963Y379373D01*
X1358859Y379497D01*
X1358757Y379624D01*
X1358659Y379753D01*
X1358564Y379885D01*
X1358472Y380019D01*
X1358383Y380156D01*
X1358298Y380294D01*
X1358216Y380435D01*
X1358137Y380577D01*
X1358062Y380721D01*
X1357991Y380867D01*
X1357923Y381015D01*
X1357859Y381165D01*
X1357799Y381316D01*
X1357742Y381468D01*
X1357689Y381622D01*
X1357640Y381777D01*
X1357595Y381933D01*
X1357554Y382090D01*
X1357516Y382248D01*
X1357482Y382408D01*
X1357453Y382567D01*
X1357427Y382728D01*
X1357405Y382889D01*
X1357387Y383051D01*
X1357373Y383213D01*
X1357363Y383375D01*
X1357357Y383537D01*
X1357355Y383700D01*
D21*
X1363980Y377200D03*
D22*
X1357480Y383700D03*
X1370480Y383700D03*
D21*
X1363980Y390200D03*
D16*
X1332230Y402200D03*
X1332230Y385200D03*
D23*
X1503680Y736600D03*
X792480Y736600D03*
X1503680Y25400D03*
X792480Y25400D03*
D16*
X1236980Y97400D03*
X1236980Y80400D03*
D24*
X1077680Y44100D03*
D25*
X1057980Y93980D03*
X1034980Y93980D03*
D13*
X1037980Y76200D03*
X1054980Y76200D03*
X1435980Y457200D03*
X1418980Y457200D03*
X1435980Y431800D03*
X1418980Y431800D03*
D26*
X786130Y238760D03*
X786130Y294640D03*
X824230Y238760D03*
X824230Y294640D03*
D16*
X904240Y93100D03*
X904240Y110100D03*
D27*
X881380Y23100D03*
X881380Y53100D03*
D28*
X881380Y102900D03*
X881380Y74900D03*
D13*
X919090Y148590D03*
X902090Y148590D03*
X902090Y133350D03*
X919090Y133350D03*
D29*
X990600Y143510D03*
X1016000Y143510D03*
D30*
X1084580Y184150D03*
X1071880Y184150D03*
X1059180Y184150D03*
X1046480Y184150D03*
X1097280Y184150D03*
X1084580Y171450D03*
X1071880Y171450D03*
X1059180Y171450D03*
X1046480Y171450D03*
X1097280Y171450D03*
D26*
X849630Y238760D03*
X849630Y294640D03*
X887730Y238760D03*
X887730Y294640D03*
D29*
X779780Y431800D03*
X779780Y406400D03*
X779780Y381000D03*
X779780Y355600D03*
X779780Y330200D03*
X1490980Y279400D03*
X1490980Y304800D03*
X1490980Y330200D03*
X1490980Y355600D03*
X1490980Y381000D03*
X1490980Y406400D03*
X1516380Y279400D03*
X1516380Y304800D03*
X1516380Y330200D03*
X1516380Y355600D03*
X1516380Y381000D03*
X1516380Y406400D03*
D31*
X1346230Y173800D03*
X1289230Y173800D03*
D32*
X1273230Y42300D03*
X1404730Y32300D03*
D33*
X1358130Y70800D03*
X1347130Y74800D03*
X1336130Y70800D03*
X1325130Y68800D03*
X1314130Y70800D03*
X1303130Y68800D03*
X1292130Y70800D03*
X1281130Y70800D03*
D29*
X1516380Y508000D03*
X1516380Y482600D03*
X1516380Y457200D03*
X1516380Y431800D03*
D34*
X1285280Y277300D03*
D16*
X943610Y150740D03*
X943610Y133740D03*
D35*
X961390Y155010D03*
X961390Y132010D03*
D13*
X847480Y476250D03*
X864480Y476250D03*
D36*
X787200Y479740D02*
X787200Y472760D01*
X780220Y472760D01*
X780220Y479740D01*
X787200Y479740D01*
X787200Y477560D02*
X780220Y477560D01*
X804740Y479740D02*
X804740Y472760D01*
X797760Y472760D01*
X797760Y479740D01*
X804740Y479740D01*
X804740Y477560D02*
X797760Y477560D01*
D13*
X990990Y92710D03*
X1007990Y92710D03*
X990990Y107950D03*
X1007990Y107950D03*
X990990Y123190D03*
X1007990Y123190D03*
D37*
X1084580Y217500D03*
D38*
X1084580Y417500D03*
D39*
X1031830Y225000D03*
D40*
X1039580Y214000D03*
X1039580Y421000D03*
D39*
X1107330Y227500D03*
X1031830Y230000D03*
X1107330Y232500D03*
X1031830Y235000D03*
X1107330Y237500D03*
X1031830Y240000D03*
X1107330Y242500D03*
X1031830Y245000D03*
X1107330Y247500D03*
X1031830Y250000D03*
X1107330Y252500D03*
X1031830Y255000D03*
X1107330Y257500D03*
X1031830Y260000D03*
X1107330Y262500D03*
X1031830Y265000D03*
X1107330Y267500D03*
X1031830Y270000D03*
X1107330Y272500D03*
X1031830Y275000D03*
X1107330Y277500D03*
X1031830Y280000D03*
X1107330Y302500D03*
X1031830Y305000D03*
X1107330Y307500D03*
X1031830Y310000D03*
X1107330Y312500D03*
X1031830Y315000D03*
X1107330Y317500D03*
X1031830Y320000D03*
X1107330Y322500D03*
X1031830Y325000D03*
X1107330Y327500D03*
X1031830Y330000D03*
X1107330Y332500D03*
X1031830Y335000D03*
X1107330Y337500D03*
X1031830Y340000D03*
X1107330Y342500D03*
X1031830Y345000D03*
X1107330Y347500D03*
X1031830Y350000D03*
X1107330Y352500D03*
X1031830Y355000D03*
X1107330Y357500D03*
X1031830Y360000D03*
X1107330Y362500D03*
X1031830Y365000D03*
X1107330Y367500D03*
X1031830Y370000D03*
X1107330Y372500D03*
X1031830Y375000D03*
X1107330Y377500D03*
X1031830Y380000D03*
X1107330Y382500D03*
X1031830Y385000D03*
X1107330Y387500D03*
X1031830Y390000D03*
X1107330Y392500D03*
X1031830Y395000D03*
X1107330Y397500D03*
X1031830Y400000D03*
X1107330Y402500D03*
X1031830Y405000D03*
X1107330Y407500D03*
X1031830Y410000D03*
D41*
X1055980Y130650D03*
X1036980Y130650D03*
X1046480Y109650D03*
D29*
X779780Y76200D03*
D13*
X847480Y457200D03*
X864480Y457200D03*
D36*
X787200Y460690D02*
X787200Y453710D01*
X780220Y453710D01*
X780220Y460690D01*
X787200Y460690D01*
X787200Y458510D02*
X780220Y458510D01*
X804740Y460690D02*
X804740Y453710D01*
X797760Y453710D01*
X797760Y460690D01*
X804740Y460690D01*
X804740Y458510D02*
X797760Y458510D01*
D42*
X1515030Y86300D03*
X1515030Y142300D03*
D43*
X1478280Y99300D03*
X1478280Y109300D03*
X1478280Y119300D03*
X1478280Y129300D03*
D16*
X1433830Y143900D03*
X1433830Y160900D03*
X1459230Y143900D03*
X1459230Y160900D03*
D29*
X1516380Y254000D03*
X1516380Y228600D03*
X1516380Y203200D03*
X1516380Y177800D03*
D16*
X849630Y205350D03*
X849630Y188350D03*
X868680Y205350D03*
X868680Y188350D03*
X887730Y205350D03*
X887730Y188350D03*
D33*
X1038080Y552800D03*
X1049080Y552800D03*
X1060080Y552800D03*
X1071080Y552800D03*
X1082080Y552800D03*
X1093080Y552800D03*
X1104080Y552800D03*
X1115080Y552800D03*
X1126080Y552800D03*
X1137080Y552800D03*
X1148080Y552800D03*
X1159080Y552800D03*
X1170080Y552800D03*
X1181080Y552800D03*
X1192080Y552800D03*
X1203080Y552800D03*
X1214080Y552800D03*
X1225080Y552800D03*
X1236080Y552800D03*
X1247080Y552800D03*
X1258080Y552800D03*
D44*
X1267580Y567300D03*
X1267580Y578300D03*
X1267580Y589300D03*
X1267580Y600300D03*
X1267580Y611300D03*
X1267580Y622300D03*
X1267580Y633300D03*
X1267580Y644300D03*
X1267580Y655300D03*
X1267580Y666300D03*
X1267580Y677300D03*
D33*
X1258080Y691800D03*
X1247080Y691800D03*
X1236080Y691800D03*
X1225080Y691800D03*
X1214080Y691800D03*
X1203080Y691800D03*
X1192080Y691800D03*
X1181080Y691800D03*
X1170080Y691800D03*
X1159080Y691800D03*
X1148080Y691800D03*
X1137080Y691800D03*
X1126080Y691800D03*
X1115080Y691800D03*
X1104080Y691800D03*
X1093080Y691800D03*
X1082080Y691800D03*
X1071080Y691800D03*
X1060080Y691800D03*
X1049080Y691800D03*
X1038080Y691800D03*
D44*
X1028580Y677300D03*
X1028580Y666300D03*
X1028580Y655300D03*
X1028580Y644300D03*
X1028580Y633300D03*
X1028580Y622300D03*
X1028580Y611300D03*
X1028580Y600300D03*
X1028580Y589300D03*
X1028580Y578300D03*
X1028580Y567300D03*
D45*
X1045580Y569800D03*
X1045580Y590800D03*
X1045580Y611800D03*
X1045580Y632800D03*
X1045580Y653800D03*
X1045580Y674800D03*
X1063580Y569800D03*
X1063580Y590800D03*
X1063580Y611800D03*
X1063580Y632800D03*
X1063580Y653800D03*
X1063580Y674800D03*
X1081580Y569800D03*
X1081580Y674800D03*
X1117580Y569800D03*
X1117580Y674800D03*
X1250580Y674800D03*
X1250580Y653800D03*
X1250580Y632800D03*
X1250580Y611800D03*
X1250580Y590800D03*
X1250580Y569800D03*
X1232580Y674800D03*
X1232580Y653800D03*
X1232580Y632800D03*
X1232580Y611800D03*
X1232580Y590800D03*
X1232580Y569800D03*
X1214580Y674800D03*
X1214580Y569800D03*
X1178580Y674800D03*
X1178580Y569800D03*
D46*
X1163605Y371000D03*
D47*
X1163080Y375000D03*
X1163080Y379000D03*
X1163080Y383000D03*
X1163080Y387000D03*
D46*
X1163605Y391000D03*
D48*
X1158080Y396525D03*
D49*
X1154080Y396000D03*
X1150080Y396000D03*
X1146080Y396000D03*
X1142080Y396000D03*
D48*
X1138080Y396525D03*
D46*
X1132555Y391000D03*
D47*
X1133080Y387000D03*
X1133080Y383000D03*
X1133080Y379000D03*
X1133080Y375000D03*
D46*
X1132555Y371000D03*
D48*
X1138080Y365475D03*
D49*
X1142080Y366000D03*
X1146080Y366000D03*
X1150080Y366000D03*
X1154080Y366000D03*
D48*
X1158080Y365475D03*
D50*
X1159590Y371005D03*
D51*
X1158075Y392510D03*
D50*
X1136570Y390995D03*
D51*
X1138085Y369490D03*
X1158075Y369490D03*
D50*
X1159590Y390995D03*
D51*
X1138085Y392510D03*
D50*
X1136570Y371005D03*
D13*
X1139580Y422910D03*
X1156580Y422910D03*
D16*
X1179830Y389500D03*
X1179830Y372500D03*
X1198880Y389500D03*
X1198880Y372500D03*
D52*
X1224130Y372750D03*
X1230630Y372750D03*
X1237130Y372750D03*
X1237130Y389250D03*
X1224130Y389250D03*
D13*
X1222130Y340360D03*
X1239130Y340360D03*
D53*
X1196770Y417750D03*
X1196770Y407750D03*
X1208270Y412750D03*
D16*
X1179830Y405520D03*
X1179830Y422520D03*
D54*
X890780Y727000D03*
D55*
X932180Y681000D03*
D54*
X973580Y727000D03*
X1322580Y727000D03*
D55*
X1363980Y681000D03*
D54*
X1405380Y727000D03*
D56*
X1135079Y149200D03*
X1135079Y139700D03*
X1135079Y130200D03*
X1161081Y130200D03*
X1161081Y149200D03*
D16*
X1160780Y186300D03*
X1160780Y169300D03*
D13*
X1118480Y114300D03*
X1101480Y114300D03*
D36*
X1229560Y28890D02*
X1229560Y21910D01*
X1229560Y28890D02*
X1236540Y28890D01*
X1236540Y21910D01*
X1229560Y21910D01*
X1229560Y26710D02*
X1236540Y26710D01*
X1212020Y28890D02*
X1212020Y21910D01*
X1212020Y28890D02*
X1219000Y28890D01*
X1219000Y21910D01*
X1212020Y21910D01*
X1212020Y26710D02*
X1219000Y26710D01*
D13*
X1215780Y50800D03*
X1232780Y50800D03*
D57*
X1158080Y75100D03*
X1138080Y75100D03*
D58*
X1182080Y23100D03*
X1114080Y23100D03*
D29*
X1135380Y25400D03*
X1160780Y25400D03*
D25*
X1159580Y114300D03*
X1136580Y114300D03*
D59*
X1396730Y615950D03*
X1396730Y603250D03*
X1396730Y590550D03*
X1396730Y577850D03*
X1396730Y565150D03*
X1396730Y552450D03*
D60*
X1460930Y537300D03*
X1403430Y537300D03*
X1403430Y630800D03*
X1460930Y630800D03*
D61*
X1518130Y539550D03*
X1518130Y628850D03*
D62*
X1186180Y718750D03*
X1195680Y718750D03*
X1176680Y718750D03*
X1195680Y741750D03*
X1186180Y741750D03*
X1176680Y741750D03*
D29*
X779780Y635000D03*
X779780Y609600D03*
X779780Y584200D03*
X779780Y558800D03*
D16*
X1159510Y719210D03*
X1159510Y736210D03*
X1228090Y719210D03*
X1228090Y736210D03*
X1212850Y736210D03*
X1212850Y719210D03*
X1144270Y736210D03*
X1144270Y719210D03*
X1129030Y736210D03*
X1129030Y719210D03*
D13*
X1222130Y412750D03*
X1239130Y412750D03*
D16*
X1064260Y715400D03*
X1064260Y732400D03*
X1049020Y715400D03*
X1049020Y732400D03*
X1033780Y715400D03*
X1033780Y732400D03*
D63*
X965200Y630682D03*
X965200Y639318D03*
X995680Y654812D03*
X995680Y663448D03*
D64*
X976080Y655320D03*
X964480Y655320D03*
X964650Y589280D03*
X953050Y589280D03*
D13*
X997830Y589280D03*
X980830Y589280D03*
D64*
X964650Y609600D03*
X953050Y609600D03*
D65*
X1363370Y493729D03*
X1372870Y493729D03*
X1382370Y493729D03*
X1382370Y519731D03*
X1363370Y519731D03*
D13*
X1363590Y549910D03*
X1346590Y549910D03*
X1363590Y565150D03*
X1346590Y565150D03*
D16*
X1363980Y634120D03*
X1363980Y651120D03*
X1363980Y582050D03*
X1363980Y599050D03*
D13*
X1363590Y615950D03*
X1346590Y615950D03*
X1365640Y476250D03*
X1382640Y476250D03*
D66*
X1300480Y666030D03*
X1300480Y677630D03*
D67*
X1189170Y505428D03*
X1182670Y505428D03*
X1176170Y505428D03*
X1169670Y505428D03*
X1163170Y505428D03*
X1156670Y505428D03*
X1150170Y505428D03*
X1150170Y447072D03*
X1156670Y447072D03*
X1163170Y447072D03*
X1169670Y447072D03*
X1176170Y447072D03*
X1182670Y447072D03*
X1189170Y447072D03*
X1126940Y505428D03*
X1120440Y505428D03*
X1113940Y505428D03*
X1107440Y505428D03*
X1100940Y505428D03*
X1094440Y505428D03*
X1087940Y505428D03*
X1087940Y447072D03*
X1094440Y447072D03*
X1100940Y447072D03*
X1107440Y447072D03*
X1113940Y447072D03*
X1120440Y447072D03*
X1126940Y447072D03*
D68*
X1320680Y587000D03*
X1315680Y587000D03*
X1310680Y587000D03*
X1305680Y587000D03*
X1320680Y556000D03*
X1315680Y556000D03*
X1310680Y556000D03*
X1305680Y556000D03*
D16*
X1315720Y535550D03*
X1315720Y518550D03*
X1215390Y484750D03*
X1215390Y467750D03*
D13*
X1061330Y447040D03*
X1044330Y447040D03*
D69*
X1224640Y501500D03*
X1224640Y514500D03*
X1206140Y508000D03*
D16*
X1239520Y467750D03*
X1239520Y484750D03*
D70*
X1291740Y466750D03*
X1278740Y466750D03*
X1291740Y485750D03*
X1278740Y485750D03*
X1285240Y485750D03*
D69*
X1262740Y501500D03*
X1262740Y514500D03*
X1244240Y508000D03*
D16*
X1262380Y467750D03*
X1262380Y484750D03*
D53*
X1275510Y728900D03*
X1275510Y718900D03*
X1287010Y723900D03*
D16*
X1256030Y719210D03*
X1256030Y736210D03*
D13*
X1291200Y742950D03*
X1274200Y742950D03*
D29*
X779780Y203200D03*
X779780Y177800D03*
X779780Y152400D03*
X779780Y127000D03*
X779780Y101600D03*
D41*
X1246480Y137000D03*
X1227480Y137000D03*
X1236980Y116000D03*
D67*
X1180280Y333978D03*
X1173780Y333978D03*
X1167280Y333978D03*
X1160780Y333978D03*
X1154280Y333978D03*
X1147780Y333978D03*
X1141280Y333978D03*
X1141280Y275622D03*
X1147780Y275622D03*
X1154280Y275622D03*
X1160780Y275622D03*
X1167280Y275622D03*
X1173780Y275622D03*
X1180280Y275622D03*
D13*
X1054490Y529590D03*
X1071490Y529590D03*
D69*
X903330Y479910D03*
X903330Y492910D03*
X884830Y486410D03*
D13*
X934330Y480060D03*
X917330Y480060D03*
X864480Y495300D03*
X847480Y495300D03*
D36*
X797760Y491810D02*
X797760Y498790D01*
X804740Y498790D01*
X804740Y491810D01*
X797760Y491810D01*
X797760Y496610D02*
X804740Y496610D01*
X780220Y498790D02*
X780220Y491810D01*
X780220Y498790D02*
X787200Y498790D01*
X787200Y491810D01*
X780220Y491810D01*
X780220Y496610D02*
X787200Y496610D01*
D69*
X903330Y507850D03*
X903330Y520850D03*
X884830Y514350D03*
D13*
X934330Y508000D03*
X917330Y508000D03*
X864480Y514350D03*
X847480Y514350D03*
D36*
X797760Y510860D02*
X797760Y517840D01*
X804740Y517840D01*
X804740Y510860D01*
X797760Y510860D01*
X797760Y515660D02*
X804740Y515660D01*
X780220Y517840D02*
X780220Y510860D01*
X780220Y517840D02*
X787200Y517840D01*
X787200Y510860D01*
X780220Y510860D01*
X780220Y515660D02*
X787200Y515660D01*
D13*
X1194680Y528320D03*
X1177680Y528320D03*
X1144660Y528320D03*
X1161660Y528320D03*
D29*
X779780Y660400D03*
D13*
X834780Y660400D03*
X851780Y660400D03*
X834780Y685800D03*
X851780Y685800D03*
D29*
X779780Y685800D03*
D13*
X1239130Y355600D03*
X1222130Y355600D03*
X1228480Y152400D03*
X1245480Y152400D03*
X934330Y552450D03*
X917330Y552450D03*
X1236590Y447040D03*
X1219590Y447040D03*
X1044330Y462280D03*
X1061330Y462280D03*
X1061330Y477520D03*
X1044330Y477520D03*
D25*
X1385640Y457200D03*
X1362640Y457200D03*
D26*
X951230Y294640D03*
X951230Y238760D03*
X913130Y294640D03*
X913130Y238760D03*
D16*
X1134110Y186300D03*
X1134110Y169300D03*
D69*
X903330Y535790D03*
X903330Y548790D03*
X884830Y542290D03*
D13*
X934330Y535940D03*
X917330Y535940D03*
X864480Y533400D03*
X847480Y533400D03*
D36*
X797760Y529910D02*
X797760Y536890D01*
X804740Y536890D01*
X804740Y529910D01*
X797760Y529910D01*
X797760Y534710D02*
X804740Y534710D01*
X780220Y536890D02*
X780220Y529910D01*
X780220Y536890D02*
X787200Y536890D01*
X787200Y529910D01*
X780220Y529910D01*
X780220Y534710D02*
X787200Y534710D01*
D13*
X917330Y568960D03*
X934330Y568960D03*
D10*
X198000Y928780D03*
X193000Y928780D03*
D11*
X222750Y928780D03*
X215000Y928780D03*
D10*
X208000Y928780D03*
X203000Y928780D03*
X183000Y928780D03*
X188000Y928780D03*
D11*
X158250Y928780D03*
X166000Y928780D03*
D10*
X173000Y928780D03*
X178000Y928780D03*
D12*
X161600Y917730D03*
X219400Y917730D03*
D13*
X156600Y944880D03*
X173600Y944880D03*
X224400Y944880D03*
X207400Y944880D03*
D14*
X204250Y960530D03*
X204250Y967030D03*
X204250Y973530D03*
X204250Y980030D03*
X176750Y980030D03*
X176750Y973530D03*
X176750Y967030D03*
X176750Y960530D03*
D15*
X190500Y970280D03*
D16*
X152400Y961780D03*
X152400Y978780D03*
D17*
X7620Y876300D03*
X754380Y1624330D03*
D18*
X605900Y1265380D03*
D19*
X596900Y1252380D03*
D18*
X605900Y1275380D03*
X587900Y1275380D03*
X587900Y1265380D03*
D20*
X590275Y1252380D02*
X590277Y1252543D01*
X590283Y1252705D01*
X590293Y1252867D01*
X590307Y1253029D01*
X590325Y1253191D01*
X590347Y1253352D01*
X590373Y1253513D01*
X590402Y1253672D01*
X590436Y1253832D01*
X590474Y1253990D01*
X590515Y1254147D01*
X590560Y1254303D01*
X590609Y1254458D01*
X590662Y1254612D01*
X590719Y1254764D01*
X590779Y1254915D01*
X590843Y1255065D01*
X590911Y1255213D01*
X590982Y1255359D01*
X591057Y1255503D01*
X591136Y1255645D01*
X591218Y1255786D01*
X591303Y1255924D01*
X591392Y1256061D01*
X591484Y1256195D01*
X591579Y1256327D01*
X591677Y1256456D01*
X591779Y1256583D01*
X591883Y1256707D01*
X591991Y1256829D01*
X592102Y1256948D01*
X592215Y1257065D01*
X592332Y1257178D01*
X592451Y1257289D01*
X592573Y1257397D01*
X592697Y1257501D01*
X592824Y1257603D01*
X592953Y1257701D01*
X593085Y1257796D01*
X593219Y1257888D01*
X593356Y1257977D01*
X593494Y1258062D01*
X593635Y1258144D01*
X593777Y1258223D01*
X593921Y1258298D01*
X594067Y1258369D01*
X594215Y1258437D01*
X594365Y1258501D01*
X594516Y1258561D01*
X594668Y1258618D01*
X594822Y1258671D01*
X594977Y1258720D01*
X595133Y1258765D01*
X595290Y1258806D01*
X595448Y1258844D01*
X595608Y1258878D01*
X595767Y1258907D01*
X595928Y1258933D01*
X596089Y1258955D01*
X596251Y1258973D01*
X596413Y1258987D01*
X596575Y1258997D01*
X596737Y1259003D01*
X596900Y1259005D01*
X597063Y1259003D01*
X597225Y1258997D01*
X597387Y1258987D01*
X597549Y1258973D01*
X597711Y1258955D01*
X597872Y1258933D01*
X598033Y1258907D01*
X598192Y1258878D01*
X598352Y1258844D01*
X598510Y1258806D01*
X598667Y1258765D01*
X598823Y1258720D01*
X598978Y1258671D01*
X599132Y1258618D01*
X599284Y1258561D01*
X599435Y1258501D01*
X599585Y1258437D01*
X599733Y1258369D01*
X599879Y1258298D01*
X600023Y1258223D01*
X600165Y1258144D01*
X600306Y1258062D01*
X600444Y1257977D01*
X600581Y1257888D01*
X600715Y1257796D01*
X600847Y1257701D01*
X600976Y1257603D01*
X601103Y1257501D01*
X601227Y1257397D01*
X601349Y1257289D01*
X601468Y1257178D01*
X601585Y1257065D01*
X601698Y1256948D01*
X601809Y1256829D01*
X601917Y1256707D01*
X602021Y1256583D01*
X602123Y1256456D01*
X602221Y1256327D01*
X602316Y1256195D01*
X602408Y1256061D01*
X602497Y1255924D01*
X602582Y1255786D01*
X602664Y1255645D01*
X602743Y1255503D01*
X602818Y1255359D01*
X602889Y1255213D01*
X602957Y1255065D01*
X603021Y1254915D01*
X603081Y1254764D01*
X603138Y1254612D01*
X603191Y1254458D01*
X603240Y1254303D01*
X603285Y1254147D01*
X603326Y1253990D01*
X603364Y1253832D01*
X603398Y1253672D01*
X603427Y1253513D01*
X603453Y1253352D01*
X603475Y1253191D01*
X603493Y1253029D01*
X603507Y1252867D01*
X603517Y1252705D01*
X603523Y1252543D01*
X603525Y1252380D01*
X603523Y1252217D01*
X603517Y1252055D01*
X603507Y1251893D01*
X603493Y1251731D01*
X603475Y1251569D01*
X603453Y1251408D01*
X603427Y1251247D01*
X603398Y1251088D01*
X603364Y1250928D01*
X603326Y1250770D01*
X603285Y1250613D01*
X603240Y1250457D01*
X603191Y1250302D01*
X603138Y1250148D01*
X603081Y1249996D01*
X603021Y1249845D01*
X602957Y1249695D01*
X602889Y1249547D01*
X602818Y1249401D01*
X602743Y1249257D01*
X602664Y1249115D01*
X602582Y1248974D01*
X602497Y1248836D01*
X602408Y1248699D01*
X602316Y1248565D01*
X602221Y1248433D01*
X602123Y1248304D01*
X602021Y1248177D01*
X601917Y1248053D01*
X601809Y1247931D01*
X601698Y1247812D01*
X601585Y1247695D01*
X601468Y1247582D01*
X601349Y1247471D01*
X601227Y1247363D01*
X601103Y1247259D01*
X600976Y1247157D01*
X600847Y1247059D01*
X600715Y1246964D01*
X600581Y1246872D01*
X600444Y1246783D01*
X600306Y1246698D01*
X600165Y1246616D01*
X600023Y1246537D01*
X599879Y1246462D01*
X599733Y1246391D01*
X599585Y1246323D01*
X599435Y1246259D01*
X599284Y1246199D01*
X599132Y1246142D01*
X598978Y1246089D01*
X598823Y1246040D01*
X598667Y1245995D01*
X598510Y1245954D01*
X598352Y1245916D01*
X598192Y1245882D01*
X598033Y1245853D01*
X597872Y1245827D01*
X597711Y1245805D01*
X597549Y1245787D01*
X597387Y1245773D01*
X597225Y1245763D01*
X597063Y1245757D01*
X596900Y1245755D01*
X596737Y1245757D01*
X596575Y1245763D01*
X596413Y1245773D01*
X596251Y1245787D01*
X596089Y1245805D01*
X595928Y1245827D01*
X595767Y1245853D01*
X595608Y1245882D01*
X595448Y1245916D01*
X595290Y1245954D01*
X595133Y1245995D01*
X594977Y1246040D01*
X594822Y1246089D01*
X594668Y1246142D01*
X594516Y1246199D01*
X594365Y1246259D01*
X594215Y1246323D01*
X594067Y1246391D01*
X593921Y1246462D01*
X593777Y1246537D01*
X593635Y1246616D01*
X593494Y1246698D01*
X593356Y1246783D01*
X593219Y1246872D01*
X593085Y1246964D01*
X592953Y1247059D01*
X592824Y1247157D01*
X592697Y1247259D01*
X592573Y1247363D01*
X592451Y1247471D01*
X592332Y1247582D01*
X592215Y1247695D01*
X592102Y1247812D01*
X591991Y1247931D01*
X591883Y1248053D01*
X591779Y1248177D01*
X591677Y1248304D01*
X591579Y1248433D01*
X591484Y1248565D01*
X591392Y1248699D01*
X591303Y1248836D01*
X591218Y1248974D01*
X591136Y1249115D01*
X591057Y1249257D01*
X590982Y1249401D01*
X590911Y1249547D01*
X590843Y1249695D01*
X590779Y1249845D01*
X590719Y1249996D01*
X590662Y1250148D01*
X590609Y1250302D01*
X590560Y1250457D01*
X590515Y1250613D01*
X590474Y1250770D01*
X590436Y1250928D01*
X590402Y1251088D01*
X590373Y1251247D01*
X590347Y1251408D01*
X590325Y1251569D01*
X590307Y1251731D01*
X590293Y1251893D01*
X590283Y1252055D01*
X590277Y1252217D01*
X590275Y1252380D01*
D21*
X596900Y1245880D03*
D22*
X590400Y1252380D03*
X603400Y1252380D03*
D21*
X596900Y1258880D03*
D16*
X565150Y1270880D03*
X565150Y1253880D03*
D23*
X736600Y1605280D03*
X25400Y1605280D03*
X736600Y894080D03*
X25400Y894080D03*
D16*
X469900Y966080D03*
X469900Y949080D03*
D24*
X310600Y912780D03*
D25*
X290900Y962660D03*
X267900Y962660D03*
D13*
X270900Y944880D03*
X287900Y944880D03*
X668900Y1325880D03*
X651900Y1325880D03*
X668900Y1300480D03*
X651900Y1300480D03*
D26*
X19050Y1107440D03*
X19050Y1163320D03*
X57150Y1107440D03*
X57150Y1163320D03*
D16*
X137160Y961780D03*
X137160Y978780D03*
D27*
X114300Y891780D03*
X114300Y921780D03*
D28*
X114300Y971580D03*
X114300Y943580D03*
D13*
X152010Y1017270D03*
X135010Y1017270D03*
X135010Y1002030D03*
X152010Y1002030D03*
D29*
X223520Y1012190D03*
X248920Y1012190D03*
D30*
X317500Y1052830D03*
X304800Y1052830D03*
X292100Y1052830D03*
X279400Y1052830D03*
X330200Y1052830D03*
X317500Y1040130D03*
X304800Y1040130D03*
X292100Y1040130D03*
X279400Y1040130D03*
X330200Y1040130D03*
D26*
X82550Y1107440D03*
X82550Y1163320D03*
X120650Y1107440D03*
X120650Y1163320D03*
D29*
X12700Y1300480D03*
X12700Y1275080D03*
X12700Y1249680D03*
X12700Y1224280D03*
X12700Y1198880D03*
X723900Y1148080D03*
X723900Y1173480D03*
X723900Y1198880D03*
X723900Y1224280D03*
X723900Y1249680D03*
X723900Y1275080D03*
X749300Y1148080D03*
X749300Y1173480D03*
X749300Y1198880D03*
X749300Y1224280D03*
X749300Y1249680D03*
X749300Y1275080D03*
D31*
X579150Y1042480D03*
X522150Y1042480D03*
D32*
X506150Y910980D03*
X637650Y900980D03*
D33*
X591050Y939480D03*
X580050Y943480D03*
X569050Y939480D03*
X558050Y937480D03*
X547050Y939480D03*
X536050Y937480D03*
X525050Y939480D03*
X514050Y939480D03*
D29*
X749300Y1376680D03*
X749300Y1351280D03*
X749300Y1325880D03*
X749300Y1300480D03*
D34*
X518200Y1145980D03*
D16*
X176530Y1019420D03*
X176530Y1002420D03*
D35*
X194310Y1023690D03*
X194310Y1000690D03*
D13*
X80400Y1344930D03*
X97400Y1344930D03*
D36*
X20120Y1348420D02*
X20120Y1341440D01*
X13140Y1341440D01*
X13140Y1348420D01*
X20120Y1348420D01*
X20120Y1346240D02*
X13140Y1346240D01*
X37660Y1348420D02*
X37660Y1341440D01*
X30680Y1341440D01*
X30680Y1348420D01*
X37660Y1348420D01*
X37660Y1346240D02*
X30680Y1346240D01*
D13*
X223910Y961390D03*
X240910Y961390D03*
X223910Y976630D03*
X240910Y976630D03*
X223910Y991870D03*
X240910Y991870D03*
D37*
X317500Y1086180D03*
D38*
X317500Y1286180D03*
D39*
X264750Y1093680D03*
D40*
X272500Y1082680D03*
X272500Y1289680D03*
D39*
X340250Y1096180D03*
X264750Y1098680D03*
X340250Y1101180D03*
X264750Y1103680D03*
X340250Y1106180D03*
X264750Y1108680D03*
X340250Y1111180D03*
X264750Y1113680D03*
X340250Y1116180D03*
X264750Y1118680D03*
X340250Y1121180D03*
X264750Y1123680D03*
X340250Y1126180D03*
X264750Y1128680D03*
X340250Y1131180D03*
X264750Y1133680D03*
X340250Y1136180D03*
X264750Y1138680D03*
X340250Y1141180D03*
X264750Y1143680D03*
X340250Y1146180D03*
X264750Y1148680D03*
X340250Y1171180D03*
X264750Y1173680D03*
X340250Y1176180D03*
X264750Y1178680D03*
X340250Y1181180D03*
X264750Y1183680D03*
X340250Y1186180D03*
X264750Y1188680D03*
X340250Y1191180D03*
X264750Y1193680D03*
X340250Y1196180D03*
X264750Y1198680D03*
X340250Y1201180D03*
X264750Y1203680D03*
X340250Y1206180D03*
X264750Y1208680D03*
X340250Y1211180D03*
X264750Y1213680D03*
X340250Y1216180D03*
X264750Y1218680D03*
X340250Y1221180D03*
X264750Y1223680D03*
X340250Y1226180D03*
X264750Y1228680D03*
X340250Y1231180D03*
X264750Y1233680D03*
X340250Y1236180D03*
X264750Y1238680D03*
X340250Y1241180D03*
X264750Y1243680D03*
X340250Y1246180D03*
X264750Y1248680D03*
X340250Y1251180D03*
X264750Y1253680D03*
X340250Y1256180D03*
X264750Y1258680D03*
X340250Y1261180D03*
X264750Y1263680D03*
X340250Y1266180D03*
X264750Y1268680D03*
X340250Y1271180D03*
X264750Y1273680D03*
X340250Y1276180D03*
X264750Y1278680D03*
D41*
X288900Y999330D03*
X269900Y999330D03*
X279400Y978330D03*
D29*
X12700Y944880D03*
D13*
X80400Y1325880D03*
X97400Y1325880D03*
D36*
X20120Y1329370D02*
X20120Y1322390D01*
X13140Y1322390D01*
X13140Y1329370D01*
X20120Y1329370D01*
X20120Y1327190D02*
X13140Y1327190D01*
X37660Y1329370D02*
X37660Y1322390D01*
X30680Y1322390D01*
X30680Y1329370D01*
X37660Y1329370D01*
X37660Y1327190D02*
X30680Y1327190D01*
D42*
X747950Y954980D03*
X747950Y1010980D03*
D43*
X711200Y967980D03*
X711200Y977980D03*
X711200Y987980D03*
X711200Y997980D03*
D16*
X666750Y1012580D03*
X666750Y1029580D03*
X692150Y1012580D03*
X692150Y1029580D03*
D29*
X749300Y1122680D03*
X749300Y1097280D03*
X749300Y1071880D03*
X749300Y1046480D03*
D16*
X82550Y1074030D03*
X82550Y1057030D03*
X101600Y1074030D03*
X101600Y1057030D03*
X120650Y1074030D03*
X120650Y1057030D03*
D33*
X271000Y1421480D03*
X282000Y1421480D03*
X293000Y1421480D03*
X304000Y1421480D03*
X315000Y1421480D03*
X326000Y1421480D03*
X337000Y1421480D03*
X348000Y1421480D03*
X359000Y1421480D03*
X370000Y1421480D03*
X381000Y1421480D03*
X392000Y1421480D03*
X403000Y1421480D03*
X414000Y1421480D03*
X425000Y1421480D03*
X436000Y1421480D03*
X447000Y1421480D03*
X458000Y1421480D03*
X469000Y1421480D03*
X480000Y1421480D03*
X491000Y1421480D03*
D44*
X500500Y1435980D03*
X500500Y1446980D03*
X500500Y1457980D03*
X500500Y1468980D03*
X500500Y1479980D03*
X500500Y1490980D03*
X500500Y1501980D03*
X500500Y1512980D03*
X500500Y1523980D03*
X500500Y1534980D03*
X500500Y1545980D03*
D33*
X491000Y1560480D03*
X480000Y1560480D03*
X469000Y1560480D03*
X458000Y1560480D03*
X447000Y1560480D03*
X436000Y1560480D03*
X425000Y1560480D03*
X414000Y1560480D03*
X403000Y1560480D03*
X392000Y1560480D03*
X381000Y1560480D03*
X370000Y1560480D03*
X359000Y1560480D03*
X348000Y1560480D03*
X337000Y1560480D03*
X326000Y1560480D03*
X315000Y1560480D03*
X304000Y1560480D03*
X293000Y1560480D03*
X282000Y1560480D03*
X271000Y1560480D03*
D44*
X261500Y1545980D03*
X261500Y1534980D03*
X261500Y1523980D03*
X261500Y1512980D03*
X261500Y1501980D03*
X261500Y1490980D03*
X261500Y1479980D03*
X261500Y1468980D03*
X261500Y1457980D03*
X261500Y1446980D03*
X261500Y1435980D03*
D45*
X278500Y1438480D03*
X278500Y1459480D03*
X278500Y1480480D03*
X278500Y1501480D03*
X278500Y1522480D03*
X278500Y1543480D03*
X296500Y1438480D03*
X296500Y1459480D03*
X296500Y1480480D03*
X296500Y1501480D03*
X296500Y1522480D03*
X296500Y1543480D03*
X314500Y1438480D03*
X314500Y1543480D03*
X350500Y1438480D03*
X350500Y1543480D03*
X483500Y1543480D03*
X483500Y1522480D03*
X483500Y1501480D03*
X483500Y1480480D03*
X483500Y1459480D03*
X483500Y1438480D03*
X465500Y1543480D03*
X465500Y1522480D03*
X465500Y1501480D03*
X465500Y1480480D03*
X465500Y1459480D03*
X465500Y1438480D03*
X447500Y1543480D03*
X447500Y1438480D03*
X411500Y1543480D03*
X411500Y1438480D03*
D46*
X396525Y1239680D03*
D47*
X396000Y1243680D03*
X396000Y1247680D03*
X396000Y1251680D03*
X396000Y1255680D03*
D46*
X396525Y1259680D03*
D48*
X391000Y1265205D03*
D49*
X387000Y1264680D03*
X383000Y1264680D03*
X379000Y1264680D03*
X375000Y1264680D03*
D48*
X371000Y1265205D03*
D46*
X365475Y1259680D03*
D47*
X366000Y1255680D03*
X366000Y1251680D03*
X366000Y1247680D03*
X366000Y1243680D03*
D46*
X365475Y1239680D03*
D48*
X371000Y1234155D03*
D49*
X375000Y1234680D03*
X379000Y1234680D03*
X383000Y1234680D03*
X387000Y1234680D03*
D48*
X391000Y1234155D03*
D50*
X392510Y1239685D03*
D51*
X390995Y1261190D03*
D50*
X369490Y1259675D03*
D51*
X371005Y1238170D03*
X390995Y1238170D03*
D50*
X392510Y1259675D03*
D51*
X371005Y1261190D03*
D50*
X369490Y1239685D03*
D13*
X372500Y1291590D03*
X389500Y1291590D03*
D16*
X412750Y1258180D03*
X412750Y1241180D03*
X431800Y1258180D03*
X431800Y1241180D03*
D52*
X457050Y1241430D03*
X463550Y1241430D03*
X470050Y1241430D03*
X470050Y1257930D03*
X457050Y1257930D03*
D13*
X455050Y1209040D03*
X472050Y1209040D03*
D53*
X429690Y1286430D03*
X429690Y1276430D03*
X441190Y1281430D03*
D16*
X412750Y1274200D03*
X412750Y1291200D03*
D54*
X123700Y1595680D03*
D55*
X165100Y1549680D03*
D54*
X206500Y1595680D03*
X555500Y1595680D03*
D55*
X596900Y1549680D03*
D54*
X638300Y1595680D03*
D56*
X367999Y1017880D03*
X367999Y1008380D03*
X367999Y998880D03*
X394001Y998880D03*
X394001Y1017880D03*
D16*
X393700Y1054980D03*
X393700Y1037980D03*
D13*
X351400Y982980D03*
X334400Y982980D03*
D36*
X462480Y897570D02*
X462480Y890590D01*
X462480Y897570D02*
X469460Y897570D01*
X469460Y890590D01*
X462480Y890590D01*
X462480Y895390D02*
X469460Y895390D01*
X444940Y897570D02*
X444940Y890590D01*
X444940Y897570D02*
X451920Y897570D01*
X451920Y890590D01*
X444940Y890590D01*
X444940Y895390D02*
X451920Y895390D01*
D13*
X448700Y919480D03*
X465700Y919480D03*
D57*
X391000Y943780D03*
X371000Y943780D03*
D58*
X415000Y891780D03*
X347000Y891780D03*
D29*
X368300Y894080D03*
X393700Y894080D03*
D25*
X392500Y982980D03*
X369500Y982980D03*
D59*
X629650Y1484630D03*
X629650Y1471930D03*
X629650Y1459230D03*
X629650Y1446530D03*
X629650Y1433830D03*
X629650Y1421130D03*
D60*
X693850Y1405980D03*
X636350Y1405980D03*
X636350Y1499480D03*
X693850Y1499480D03*
D61*
X751050Y1408230D03*
X751050Y1497530D03*
D62*
X419100Y1587430D03*
X428600Y1587430D03*
X409600Y1587430D03*
X428600Y1610430D03*
X419100Y1610430D03*
X409600Y1610430D03*
D29*
X12700Y1503680D03*
X12700Y1478280D03*
X12700Y1452880D03*
X12700Y1427480D03*
D16*
X392430Y1587890D03*
X392430Y1604890D03*
X461010Y1587890D03*
X461010Y1604890D03*
X445770Y1604890D03*
X445770Y1587890D03*
X377190Y1604890D03*
X377190Y1587890D03*
X361950Y1604890D03*
X361950Y1587890D03*
D13*
X455050Y1281430D03*
X472050Y1281430D03*
D16*
X297180Y1584080D03*
X297180Y1601080D03*
X281940Y1584080D03*
X281940Y1601080D03*
X266700Y1584080D03*
X266700Y1601080D03*
D63*
X198120Y1499362D03*
X198120Y1507998D03*
X228600Y1523492D03*
X228600Y1532128D03*
D64*
X209000Y1524000D03*
X197400Y1524000D03*
X197570Y1457960D03*
X185970Y1457960D03*
D13*
X230750Y1457960D03*
X213750Y1457960D03*
D64*
X197570Y1478280D03*
X185970Y1478280D03*
D65*
X596290Y1362409D03*
X605790Y1362409D03*
X615290Y1362409D03*
X615290Y1388411D03*
X596290Y1388411D03*
D13*
X596510Y1418590D03*
X579510Y1418590D03*
X596510Y1433830D03*
X579510Y1433830D03*
D16*
X596900Y1502800D03*
X596900Y1519800D03*
X596900Y1450730D03*
X596900Y1467730D03*
D13*
X596510Y1484630D03*
X579510Y1484630D03*
X598560Y1344930D03*
X615560Y1344930D03*
D66*
X533400Y1534710D03*
X533400Y1546310D03*
D67*
X422090Y1374108D03*
X415590Y1374108D03*
X409090Y1374108D03*
X402590Y1374108D03*
X396090Y1374108D03*
X389590Y1374108D03*
X383090Y1374108D03*
X383090Y1315752D03*
X389590Y1315752D03*
X396090Y1315752D03*
X402590Y1315752D03*
X409090Y1315752D03*
X415590Y1315752D03*
X422090Y1315752D03*
X359860Y1374108D03*
X353360Y1374108D03*
X346860Y1374108D03*
X340360Y1374108D03*
X333860Y1374108D03*
X327360Y1374108D03*
X320860Y1374108D03*
X320860Y1315752D03*
X327360Y1315752D03*
X333860Y1315752D03*
X340360Y1315752D03*
X346860Y1315752D03*
X353360Y1315752D03*
X359860Y1315752D03*
D68*
X553600Y1455680D03*
X548600Y1455680D03*
X543600Y1455680D03*
X538600Y1455680D03*
X553600Y1424680D03*
X548600Y1424680D03*
X543600Y1424680D03*
X538600Y1424680D03*
D16*
X548640Y1404230D03*
X548640Y1387230D03*
X448310Y1353430D03*
X448310Y1336430D03*
D13*
X294250Y1315720D03*
X277250Y1315720D03*
D69*
X457560Y1370180D03*
X457560Y1383180D03*
X439060Y1376680D03*
D16*
X472440Y1336430D03*
X472440Y1353430D03*
D70*
X524660Y1335430D03*
X511660Y1335430D03*
X524660Y1354430D03*
X511660Y1354430D03*
X518160Y1354430D03*
D69*
X495660Y1370180D03*
X495660Y1383180D03*
X477160Y1376680D03*
D16*
X495300Y1336430D03*
X495300Y1353430D03*
D53*
X508430Y1597580D03*
X508430Y1587580D03*
X519930Y1592580D03*
D16*
X488950Y1587890D03*
X488950Y1604890D03*
D13*
X524120Y1611630D03*
X507120Y1611630D03*
D29*
X12700Y1071880D03*
X12700Y1046480D03*
X12700Y1021080D03*
X12700Y995680D03*
X12700Y970280D03*
D41*
X479400Y1005680D03*
X460400Y1005680D03*
X469900Y984680D03*
D67*
X413200Y1202658D03*
X406700Y1202658D03*
X400200Y1202658D03*
X393700Y1202658D03*
X387200Y1202658D03*
X380700Y1202658D03*
X374200Y1202658D03*
X374200Y1144302D03*
X380700Y1144302D03*
X387200Y1144302D03*
X393700Y1144302D03*
X400200Y1144302D03*
X406700Y1144302D03*
X413200Y1144302D03*
D13*
X287410Y1398270D03*
X304410Y1398270D03*
D69*
X136250Y1348590D03*
X136250Y1361590D03*
X117750Y1355090D03*
D13*
X167250Y1348740D03*
X150250Y1348740D03*
X97400Y1363980D03*
X80400Y1363980D03*
D36*
X30680Y1360490D02*
X30680Y1367470D01*
X37660Y1367470D01*
X37660Y1360490D01*
X30680Y1360490D01*
X30680Y1365290D02*
X37660Y1365290D01*
X13140Y1367470D02*
X13140Y1360490D01*
X13140Y1367470D02*
X20120Y1367470D01*
X20120Y1360490D01*
X13140Y1360490D01*
X13140Y1365290D02*
X20120Y1365290D01*
D69*
X136250Y1376530D03*
X136250Y1389530D03*
X117750Y1383030D03*
D13*
X167250Y1376680D03*
X150250Y1376680D03*
X97400Y1383030D03*
X80400Y1383030D03*
D36*
X30680Y1379540D02*
X30680Y1386520D01*
X37660Y1386520D01*
X37660Y1379540D01*
X30680Y1379540D01*
X30680Y1384340D02*
X37660Y1384340D01*
X13140Y1386520D02*
X13140Y1379540D01*
X13140Y1386520D02*
X20120Y1386520D01*
X20120Y1379540D01*
X13140Y1379540D01*
X13140Y1384340D02*
X20120Y1384340D01*
D13*
X427600Y1397000D03*
X410600Y1397000D03*
X377580Y1397000D03*
X394580Y1397000D03*
D29*
X12700Y1529080D03*
D13*
X67700Y1529080D03*
X84700Y1529080D03*
X67700Y1554480D03*
X84700Y1554480D03*
D29*
X12700Y1554480D03*
D13*
X472050Y1224280D03*
X455050Y1224280D03*
X461400Y1021080D03*
X478400Y1021080D03*
X167250Y1421130D03*
X150250Y1421130D03*
X469510Y1315720D03*
X452510Y1315720D03*
X277250Y1330960D03*
X294250Y1330960D03*
X294250Y1346200D03*
X277250Y1346200D03*
D25*
X618560Y1325880D03*
X595560Y1325880D03*
D26*
X184150Y1163320D03*
X184150Y1107440D03*
X146050Y1163320D03*
X146050Y1107440D03*
D16*
X367030Y1054980D03*
X367030Y1037980D03*
D69*
X136250Y1404470D03*
X136250Y1417470D03*
X117750Y1410970D03*
D13*
X167250Y1404620D03*
X150250Y1404620D03*
X97400Y1402080D03*
X80400Y1402080D03*
D36*
X30680Y1398590D02*
X30680Y1405570D01*
X37660Y1405570D01*
X37660Y1398590D01*
X30680Y1398590D01*
X30680Y1403390D02*
X37660Y1403390D01*
X13140Y1405570D02*
X13140Y1398590D01*
X13140Y1405570D02*
X20120Y1405570D01*
X20120Y1398590D01*
X13140Y1398590D01*
X13140Y1403390D02*
X20120Y1403390D01*
D13*
X150250Y1437640D03*
X167250Y1437640D03*
D10*
X965080Y928780D03*
X960080Y928780D03*
D11*
X989830Y928780D03*
X982080Y928780D03*
D10*
X975080Y928780D03*
X970080Y928780D03*
X950080Y928780D03*
X955080Y928780D03*
D11*
X925330Y928780D03*
X933080Y928780D03*
D10*
X940080Y928780D03*
X945080Y928780D03*
D12*
X928680Y917730D03*
X986480Y917730D03*
D13*
X923680Y944880D03*
X940680Y944880D03*
X991480Y944880D03*
X974480Y944880D03*
D14*
X971330Y960530D03*
X971330Y967030D03*
X971330Y973530D03*
X971330Y980030D03*
X943830Y980030D03*
X943830Y973530D03*
X943830Y967030D03*
X943830Y960530D03*
D15*
X957580Y970280D03*
D16*
X919480Y961780D03*
X919480Y978780D03*
D17*
X774700Y876300D03*
X1521460Y1624330D03*
D18*
X1372980Y1265380D03*
D19*
X1363980Y1252380D03*
D18*
X1372980Y1275380D03*
X1354980Y1275380D03*
X1354980Y1265380D03*
D20*
X1357355Y1252380D02*
X1357357Y1252543D01*
X1357363Y1252705D01*
X1357373Y1252867D01*
X1357387Y1253029D01*
X1357405Y1253191D01*
X1357427Y1253352D01*
X1357453Y1253513D01*
X1357482Y1253672D01*
X1357516Y1253832D01*
X1357554Y1253990D01*
X1357595Y1254147D01*
X1357640Y1254303D01*
X1357689Y1254458D01*
X1357742Y1254612D01*
X1357799Y1254764D01*
X1357859Y1254915D01*
X1357923Y1255065D01*
X1357991Y1255213D01*
X1358062Y1255359D01*
X1358137Y1255503D01*
X1358216Y1255645D01*
X1358298Y1255786D01*
X1358383Y1255924D01*
X1358472Y1256061D01*
X1358564Y1256195D01*
X1358659Y1256327D01*
X1358757Y1256456D01*
X1358859Y1256583D01*
X1358963Y1256707D01*
X1359071Y1256829D01*
X1359182Y1256948D01*
X1359295Y1257065D01*
X1359412Y1257178D01*
X1359531Y1257289D01*
X1359653Y1257397D01*
X1359777Y1257501D01*
X1359904Y1257603D01*
X1360033Y1257701D01*
X1360165Y1257796D01*
X1360299Y1257888D01*
X1360436Y1257977D01*
X1360574Y1258062D01*
X1360715Y1258144D01*
X1360857Y1258223D01*
X1361001Y1258298D01*
X1361147Y1258369D01*
X1361295Y1258437D01*
X1361445Y1258501D01*
X1361596Y1258561D01*
X1361748Y1258618D01*
X1361902Y1258671D01*
X1362057Y1258720D01*
X1362213Y1258765D01*
X1362370Y1258806D01*
X1362528Y1258844D01*
X1362688Y1258878D01*
X1362847Y1258907D01*
X1363008Y1258933D01*
X1363169Y1258955D01*
X1363331Y1258973D01*
X1363493Y1258987D01*
X1363655Y1258997D01*
X1363817Y1259003D01*
X1363980Y1259005D01*
X1364143Y1259003D01*
X1364305Y1258997D01*
X1364467Y1258987D01*
X1364629Y1258973D01*
X1364791Y1258955D01*
X1364952Y1258933D01*
X1365113Y1258907D01*
X1365272Y1258878D01*
X1365432Y1258844D01*
X1365590Y1258806D01*
X1365747Y1258765D01*
X1365903Y1258720D01*
X1366058Y1258671D01*
X1366212Y1258618D01*
X1366364Y1258561D01*
X1366515Y1258501D01*
X1366665Y1258437D01*
X1366813Y1258369D01*
X1366959Y1258298D01*
X1367103Y1258223D01*
X1367245Y1258144D01*
X1367386Y1258062D01*
X1367524Y1257977D01*
X1367661Y1257888D01*
X1367795Y1257796D01*
X1367927Y1257701D01*
X1368056Y1257603D01*
X1368183Y1257501D01*
X1368307Y1257397D01*
X1368429Y1257289D01*
X1368548Y1257178D01*
X1368665Y1257065D01*
X1368778Y1256948D01*
X1368889Y1256829D01*
X1368997Y1256707D01*
X1369101Y1256583D01*
X1369203Y1256456D01*
X1369301Y1256327D01*
X1369396Y1256195D01*
X1369488Y1256061D01*
X1369577Y1255924D01*
X1369662Y1255786D01*
X1369744Y1255645D01*
X1369823Y1255503D01*
X1369898Y1255359D01*
X1369969Y1255213D01*
X1370037Y1255065D01*
X1370101Y1254915D01*
X1370161Y1254764D01*
X1370218Y1254612D01*
X1370271Y1254458D01*
X1370320Y1254303D01*
X1370365Y1254147D01*
X1370406Y1253990D01*
X1370444Y1253832D01*
X1370478Y1253672D01*
X1370507Y1253513D01*
X1370533Y1253352D01*
X1370555Y1253191D01*
X1370573Y1253029D01*
X1370587Y1252867D01*
X1370597Y1252705D01*
X1370603Y1252543D01*
X1370605Y1252380D01*
X1370603Y1252217D01*
X1370597Y1252055D01*
X1370587Y1251893D01*
X1370573Y1251731D01*
X1370555Y1251569D01*
X1370533Y1251408D01*
X1370507Y1251247D01*
X1370478Y1251088D01*
X1370444Y1250928D01*
X1370406Y1250770D01*
X1370365Y1250613D01*
X1370320Y1250457D01*
X1370271Y1250302D01*
X1370218Y1250148D01*
X1370161Y1249996D01*
X1370101Y1249845D01*
X1370037Y1249695D01*
X1369969Y1249547D01*
X1369898Y1249401D01*
X1369823Y1249257D01*
X1369744Y1249115D01*
X1369662Y1248974D01*
X1369577Y1248836D01*
X1369488Y1248699D01*
X1369396Y1248565D01*
X1369301Y1248433D01*
X1369203Y1248304D01*
X1369101Y1248177D01*
X1368997Y1248053D01*
X1368889Y1247931D01*
X1368778Y1247812D01*
X1368665Y1247695D01*
X1368548Y1247582D01*
X1368429Y1247471D01*
X1368307Y1247363D01*
X1368183Y1247259D01*
X1368056Y1247157D01*
X1367927Y1247059D01*
X1367795Y1246964D01*
X1367661Y1246872D01*
X1367524Y1246783D01*
X1367386Y1246698D01*
X1367245Y1246616D01*
X1367103Y1246537D01*
X1366959Y1246462D01*
X1366813Y1246391D01*
X1366665Y1246323D01*
X1366515Y1246259D01*
X1366364Y1246199D01*
X1366212Y1246142D01*
X1366058Y1246089D01*
X1365903Y1246040D01*
X1365747Y1245995D01*
X1365590Y1245954D01*
X1365432Y1245916D01*
X1365272Y1245882D01*
X1365113Y1245853D01*
X1364952Y1245827D01*
X1364791Y1245805D01*
X1364629Y1245787D01*
X1364467Y1245773D01*
X1364305Y1245763D01*
X1364143Y1245757D01*
X1363980Y1245755D01*
X1363817Y1245757D01*
X1363655Y1245763D01*
X1363493Y1245773D01*
X1363331Y1245787D01*
X1363169Y1245805D01*
X1363008Y1245827D01*
X1362847Y1245853D01*
X1362688Y1245882D01*
X1362528Y1245916D01*
X1362370Y1245954D01*
X1362213Y1245995D01*
X1362057Y1246040D01*
X1361902Y1246089D01*
X1361748Y1246142D01*
X1361596Y1246199D01*
X1361445Y1246259D01*
X1361295Y1246323D01*
X1361147Y1246391D01*
X1361001Y1246462D01*
X1360857Y1246537D01*
X1360715Y1246616D01*
X1360574Y1246698D01*
X1360436Y1246783D01*
X1360299Y1246872D01*
X1360165Y1246964D01*
X1360033Y1247059D01*
X1359904Y1247157D01*
X1359777Y1247259D01*
X1359653Y1247363D01*
X1359531Y1247471D01*
X1359412Y1247582D01*
X1359295Y1247695D01*
X1359182Y1247812D01*
X1359071Y1247931D01*
X1358963Y1248053D01*
X1358859Y1248177D01*
X1358757Y1248304D01*
X1358659Y1248433D01*
X1358564Y1248565D01*
X1358472Y1248699D01*
X1358383Y1248836D01*
X1358298Y1248974D01*
X1358216Y1249115D01*
X1358137Y1249257D01*
X1358062Y1249401D01*
X1357991Y1249547D01*
X1357923Y1249695D01*
X1357859Y1249845D01*
X1357799Y1249996D01*
X1357742Y1250148D01*
X1357689Y1250302D01*
X1357640Y1250457D01*
X1357595Y1250613D01*
X1357554Y1250770D01*
X1357516Y1250928D01*
X1357482Y1251088D01*
X1357453Y1251247D01*
X1357427Y1251408D01*
X1357405Y1251569D01*
X1357387Y1251731D01*
X1357373Y1251893D01*
X1357363Y1252055D01*
X1357357Y1252217D01*
X1357355Y1252380D01*
D21*
X1363980Y1245880D03*
D22*
X1357480Y1252380D03*
X1370480Y1252380D03*
D21*
X1363980Y1258880D03*
D16*
X1332230Y1270880D03*
X1332230Y1253880D03*
D23*
X1503680Y1605280D03*
X792480Y1605280D03*
X1503680Y894080D03*
X792480Y894080D03*
D16*
X1236980Y966080D03*
X1236980Y949080D03*
D24*
X1077680Y912780D03*
D25*
X1057980Y962660D03*
X1034980Y962660D03*
D13*
X1037980Y944880D03*
X1054980Y944880D03*
X1435980Y1325880D03*
X1418980Y1325880D03*
X1435980Y1300480D03*
X1418980Y1300480D03*
D26*
X786130Y1107440D03*
X786130Y1163320D03*
X824230Y1107440D03*
X824230Y1163320D03*
D16*
X904240Y961780D03*
X904240Y978780D03*
D27*
X881380Y891780D03*
X881380Y921780D03*
D28*
X881380Y971580D03*
X881380Y943580D03*
D13*
X919090Y1017270D03*
X902090Y1017270D03*
X902090Y1002030D03*
X919090Y1002030D03*
D29*
X990600Y1012190D03*
X1016000Y1012190D03*
D30*
X1084580Y1052830D03*
X1071880Y1052830D03*
X1059180Y1052830D03*
X1046480Y1052830D03*
X1097280Y1052830D03*
X1084580Y1040130D03*
X1071880Y1040130D03*
X1059180Y1040130D03*
X1046480Y1040130D03*
X1097280Y1040130D03*
D26*
X849630Y1107440D03*
X849630Y1163320D03*
X887730Y1107440D03*
X887730Y1163320D03*
D29*
X779780Y1300480D03*
X779780Y1275080D03*
X779780Y1249680D03*
X779780Y1224280D03*
X779780Y1198880D03*
X1490980Y1148080D03*
X1490980Y1173480D03*
X1490980Y1198880D03*
X1490980Y1224280D03*
X1490980Y1249680D03*
X1490980Y1275080D03*
X1516380Y1148080D03*
X1516380Y1173480D03*
X1516380Y1198880D03*
X1516380Y1224280D03*
X1516380Y1249680D03*
X1516380Y1275080D03*
D31*
X1346230Y1042480D03*
X1289230Y1042480D03*
D32*
X1273230Y910980D03*
X1404730Y900980D03*
D33*
X1358130Y939480D03*
X1347130Y943480D03*
X1336130Y939480D03*
X1325130Y937480D03*
X1314130Y939480D03*
X1303130Y937480D03*
X1292130Y939480D03*
X1281130Y939480D03*
D29*
X1516380Y1376680D03*
X1516380Y1351280D03*
X1516380Y1325880D03*
X1516380Y1300480D03*
D34*
X1285280Y1145980D03*
D16*
X943610Y1019420D03*
X943610Y1002420D03*
D35*
X961390Y1023690D03*
X961390Y1000690D03*
D13*
X847480Y1344930D03*
X864480Y1344930D03*
D36*
X787200Y1348420D02*
X787200Y1341440D01*
X780220Y1341440D01*
X780220Y1348420D01*
X787200Y1348420D01*
X787200Y1346240D02*
X780220Y1346240D01*
X804740Y1348420D02*
X804740Y1341440D01*
X797760Y1341440D01*
X797760Y1348420D01*
X804740Y1348420D01*
X804740Y1346240D02*
X797760Y1346240D01*
D13*
X990990Y961390D03*
X1007990Y961390D03*
X990990Y976630D03*
X1007990Y976630D03*
X990990Y991870D03*
X1007990Y991870D03*
D37*
X1084580Y1086180D03*
D38*
X1084580Y1286180D03*
D39*
X1031830Y1093680D03*
D40*
X1039580Y1082680D03*
X1039580Y1289680D03*
D39*
X1107330Y1096180D03*
X1031830Y1098680D03*
X1107330Y1101180D03*
X1031830Y1103680D03*
X1107330Y1106180D03*
X1031830Y1108680D03*
X1107330Y1111180D03*
X1031830Y1113680D03*
X1107330Y1116180D03*
X1031830Y1118680D03*
X1107330Y1121180D03*
X1031830Y1123680D03*
X1107330Y1126180D03*
X1031830Y1128680D03*
X1107330Y1131180D03*
X1031830Y1133680D03*
X1107330Y1136180D03*
X1031830Y1138680D03*
X1107330Y1141180D03*
X1031830Y1143680D03*
X1107330Y1146180D03*
X1031830Y1148680D03*
X1107330Y1171180D03*
X1031830Y1173680D03*
X1107330Y1176180D03*
X1031830Y1178680D03*
X1107330Y1181180D03*
X1031830Y1183680D03*
X1107330Y1186180D03*
X1031830Y1188680D03*
X1107330Y1191180D03*
X1031830Y1193680D03*
X1107330Y1196180D03*
X1031830Y1198680D03*
X1107330Y1201180D03*
X1031830Y1203680D03*
X1107330Y1206180D03*
X1031830Y1208680D03*
X1107330Y1211180D03*
X1031830Y1213680D03*
X1107330Y1216180D03*
X1031830Y1218680D03*
X1107330Y1221180D03*
X1031830Y1223680D03*
X1107330Y1226180D03*
X1031830Y1228680D03*
X1107330Y1231180D03*
X1031830Y1233680D03*
X1107330Y1236180D03*
X1031830Y1238680D03*
X1107330Y1241180D03*
X1031830Y1243680D03*
X1107330Y1246180D03*
X1031830Y1248680D03*
X1107330Y1251180D03*
X1031830Y1253680D03*
X1107330Y1256180D03*
X1031830Y1258680D03*
X1107330Y1261180D03*
X1031830Y1263680D03*
X1107330Y1266180D03*
X1031830Y1268680D03*
X1107330Y1271180D03*
X1031830Y1273680D03*
X1107330Y1276180D03*
X1031830Y1278680D03*
D41*
X1055980Y999330D03*
X1036980Y999330D03*
X1046480Y978330D03*
D29*
X779780Y944880D03*
D13*
X847480Y1325880D03*
X864480Y1325880D03*
D36*
X787200Y1329370D02*
X787200Y1322390D01*
X780220Y1322390D01*
X780220Y1329370D01*
X787200Y1329370D01*
X787200Y1327190D02*
X780220Y1327190D01*
X804740Y1329370D02*
X804740Y1322390D01*
X797760Y1322390D01*
X797760Y1329370D01*
X804740Y1329370D01*
X804740Y1327190D02*
X797760Y1327190D01*
D42*
X1515030Y954980D03*
X1515030Y1010980D03*
D43*
X1478280Y967980D03*
X1478280Y977980D03*
X1478280Y987980D03*
X1478280Y997980D03*
D16*
X1433830Y1012580D03*
X1433830Y1029580D03*
X1459230Y1012580D03*
X1459230Y1029580D03*
D29*
X1516380Y1122680D03*
X1516380Y1097280D03*
X1516380Y1071880D03*
X1516380Y1046480D03*
D16*
X849630Y1074030D03*
X849630Y1057030D03*
X868680Y1074030D03*
X868680Y1057030D03*
X887730Y1074030D03*
X887730Y1057030D03*
D33*
X1038080Y1421480D03*
X1049080Y1421480D03*
X1060080Y1421480D03*
X1071080Y1421480D03*
X1082080Y1421480D03*
X1093080Y1421480D03*
X1104080Y1421480D03*
X1115080Y1421480D03*
X1126080Y1421480D03*
X1137080Y1421480D03*
X1148080Y1421480D03*
X1159080Y1421480D03*
X1170080Y1421480D03*
X1181080Y1421480D03*
X1192080Y1421480D03*
X1203080Y1421480D03*
X1214080Y1421480D03*
X1225080Y1421480D03*
X1236080Y1421480D03*
X1247080Y1421480D03*
X1258080Y1421480D03*
D44*
X1267580Y1435980D03*
X1267580Y1446980D03*
X1267580Y1457980D03*
X1267580Y1468980D03*
X1267580Y1479980D03*
X1267580Y1490980D03*
X1267580Y1501980D03*
X1267580Y1512980D03*
X1267580Y1523980D03*
X1267580Y1534980D03*
X1267580Y1545980D03*
D33*
X1258080Y1560480D03*
X1247080Y1560480D03*
X1236080Y1560480D03*
X1225080Y1560480D03*
X1214080Y1560480D03*
X1203080Y1560480D03*
X1192080Y1560480D03*
X1181080Y1560480D03*
X1170080Y1560480D03*
X1159080Y1560480D03*
X1148080Y1560480D03*
X1137080Y1560480D03*
X1126080Y1560480D03*
X1115080Y1560480D03*
X1104080Y1560480D03*
X1093080Y1560480D03*
X1082080Y1560480D03*
X1071080Y1560480D03*
X1060080Y1560480D03*
X1049080Y1560480D03*
X1038080Y1560480D03*
D44*
X1028580Y1545980D03*
X1028580Y1534980D03*
X1028580Y1523980D03*
X1028580Y1512980D03*
X1028580Y1501980D03*
X1028580Y1490980D03*
X1028580Y1479980D03*
X1028580Y1468980D03*
X1028580Y1457980D03*
X1028580Y1446980D03*
X1028580Y1435980D03*
D45*
X1045580Y1438480D03*
X1045580Y1459480D03*
X1045580Y1480480D03*
X1045580Y1501480D03*
X1045580Y1522480D03*
X1045580Y1543480D03*
X1063580Y1438480D03*
X1063580Y1459480D03*
X1063580Y1480480D03*
X1063580Y1501480D03*
X1063580Y1522480D03*
X1063580Y1543480D03*
X1081580Y1438480D03*
X1081580Y1543480D03*
X1117580Y1438480D03*
X1117580Y1543480D03*
X1250580Y1543480D03*
X1250580Y1522480D03*
X1250580Y1501480D03*
X1250580Y1480480D03*
X1250580Y1459480D03*
X1250580Y1438480D03*
X1232580Y1543480D03*
X1232580Y1522480D03*
X1232580Y1501480D03*
X1232580Y1480480D03*
X1232580Y1459480D03*
X1232580Y1438480D03*
X1214580Y1543480D03*
X1214580Y1438480D03*
X1178580Y1543480D03*
X1178580Y1438480D03*
D46*
X1163605Y1239680D03*
D47*
X1163080Y1243680D03*
X1163080Y1247680D03*
X1163080Y1251680D03*
X1163080Y1255680D03*
D46*
X1163605Y1259680D03*
D48*
X1158080Y1265205D03*
D49*
X1154080Y1264680D03*
X1150080Y1264680D03*
X1146080Y1264680D03*
X1142080Y1264680D03*
D48*
X1138080Y1265205D03*
D46*
X1132555Y1259680D03*
D47*
X1133080Y1255680D03*
X1133080Y1251680D03*
X1133080Y1247680D03*
X1133080Y1243680D03*
D46*
X1132555Y1239680D03*
D48*
X1138080Y1234155D03*
D49*
X1142080Y1234680D03*
X1146080Y1234680D03*
X1150080Y1234680D03*
X1154080Y1234680D03*
D48*
X1158080Y1234155D03*
D50*
X1159590Y1239685D03*
D51*
X1158075Y1261190D03*
D50*
X1136570Y1259675D03*
D51*
X1138085Y1238170D03*
X1158075Y1238170D03*
D50*
X1159590Y1259675D03*
D51*
X1138085Y1261190D03*
D50*
X1136570Y1239685D03*
D13*
X1139580Y1291590D03*
X1156580Y1291590D03*
D16*
X1179830Y1258180D03*
X1179830Y1241180D03*
X1198880Y1258180D03*
X1198880Y1241180D03*
D52*
X1224130Y1241430D03*
X1230630Y1241430D03*
X1237130Y1241430D03*
X1237130Y1257930D03*
X1224130Y1257930D03*
D13*
X1222130Y1209040D03*
X1239130Y1209040D03*
D53*
X1196770Y1286430D03*
X1196770Y1276430D03*
X1208270Y1281430D03*
D16*
X1179830Y1274200D03*
X1179830Y1291200D03*
D54*
X890780Y1595680D03*
D55*
X932180Y1549680D03*
D54*
X973580Y1595680D03*
X1322580Y1595680D03*
D55*
X1363980Y1549680D03*
D54*
X1405380Y1595680D03*
D56*
X1135079Y1017880D03*
X1135079Y1008380D03*
X1135079Y998880D03*
X1161081Y998880D03*
X1161081Y1017880D03*
D16*
X1160780Y1054980D03*
X1160780Y1037980D03*
D13*
X1118480Y982980D03*
X1101480Y982980D03*
D36*
X1229560Y897570D02*
X1229560Y890590D01*
X1229560Y897570D02*
X1236540Y897570D01*
X1236540Y890590D01*
X1229560Y890590D01*
X1229560Y895390D02*
X1236540Y895390D01*
X1212020Y897570D02*
X1212020Y890590D01*
X1212020Y897570D02*
X1219000Y897570D01*
X1219000Y890590D01*
X1212020Y890590D01*
X1212020Y895390D02*
X1219000Y895390D01*
D13*
X1215780Y919480D03*
X1232780Y919480D03*
D57*
X1158080Y943780D03*
X1138080Y943780D03*
D58*
X1182080Y891780D03*
X1114080Y891780D03*
D29*
X1135380Y894080D03*
X1160780Y894080D03*
D25*
X1159580Y982980D03*
X1136580Y982980D03*
D59*
X1396730Y1484630D03*
X1396730Y1471930D03*
X1396730Y1459230D03*
X1396730Y1446530D03*
X1396730Y1433830D03*
X1396730Y1421130D03*
D60*
X1460930Y1405980D03*
X1403430Y1405980D03*
X1403430Y1499480D03*
X1460930Y1499480D03*
D61*
X1518130Y1408230D03*
X1518130Y1497530D03*
D62*
X1186180Y1587430D03*
X1195680Y1587430D03*
X1176680Y1587430D03*
X1195680Y1610430D03*
X1186180Y1610430D03*
X1176680Y1610430D03*
D29*
X779780Y1503680D03*
X779780Y1478280D03*
X779780Y1452880D03*
X779780Y1427480D03*
D16*
X1159510Y1587890D03*
X1159510Y1604890D03*
X1228090Y1587890D03*
X1228090Y1604890D03*
X1212850Y1604890D03*
X1212850Y1587890D03*
X1144270Y1604890D03*
X1144270Y1587890D03*
X1129030Y1604890D03*
X1129030Y1587890D03*
D13*
X1222130Y1281430D03*
X1239130Y1281430D03*
D16*
X1064260Y1584080D03*
X1064260Y1601080D03*
X1049020Y1584080D03*
X1049020Y1601080D03*
X1033780Y1584080D03*
X1033780Y1601080D03*
D63*
X965200Y1499362D03*
X965200Y1507998D03*
X995680Y1523492D03*
X995680Y1532128D03*
D64*
X976080Y1524000D03*
X964480Y1524000D03*
X964650Y1457960D03*
X953050Y1457960D03*
D13*
X997830Y1457960D03*
X980830Y1457960D03*
D64*
X964650Y1478280D03*
X953050Y1478280D03*
D65*
X1363370Y1362409D03*
X1372870Y1362409D03*
X1382370Y1362409D03*
X1382370Y1388411D03*
X1363370Y1388411D03*
D13*
X1363590Y1418590D03*
X1346590Y1418590D03*
X1363590Y1433830D03*
X1346590Y1433830D03*
D16*
X1363980Y1502800D03*
X1363980Y1519800D03*
X1363980Y1450730D03*
X1363980Y1467730D03*
D13*
X1363590Y1484630D03*
X1346590Y1484630D03*
X1365640Y1344930D03*
X1382640Y1344930D03*
D66*
X1300480Y1534710D03*
X1300480Y1546310D03*
D67*
X1189170Y1374108D03*
X1182670Y1374108D03*
X1176170Y1374108D03*
X1169670Y1374108D03*
X1163170Y1374108D03*
X1156670Y1374108D03*
X1150170Y1374108D03*
X1150170Y1315752D03*
X1156670Y1315752D03*
X1163170Y1315752D03*
X1169670Y1315752D03*
X1176170Y1315752D03*
X1182670Y1315752D03*
X1189170Y1315752D03*
X1126940Y1374108D03*
X1120440Y1374108D03*
X1113940Y1374108D03*
X1107440Y1374108D03*
X1100940Y1374108D03*
X1094440Y1374108D03*
X1087940Y1374108D03*
X1087940Y1315752D03*
X1094440Y1315752D03*
X1100940Y1315752D03*
X1107440Y1315752D03*
X1113940Y1315752D03*
X1120440Y1315752D03*
X1126940Y1315752D03*
D68*
X1320680Y1455680D03*
X1315680Y1455680D03*
X1310680Y1455680D03*
X1305680Y1455680D03*
X1320680Y1424680D03*
X1315680Y1424680D03*
X1310680Y1424680D03*
X1305680Y1424680D03*
D16*
X1315720Y1404230D03*
X1315720Y1387230D03*
X1215390Y1353430D03*
X1215390Y1336430D03*
D13*
X1061330Y1315720D03*
X1044330Y1315720D03*
D69*
X1224640Y1370180D03*
X1224640Y1383180D03*
X1206140Y1376680D03*
D16*
X1239520Y1336430D03*
X1239520Y1353430D03*
D70*
X1291740Y1335430D03*
X1278740Y1335430D03*
X1291740Y1354430D03*
X1278740Y1354430D03*
X1285240Y1354430D03*
D69*
X1262740Y1370180D03*
X1262740Y1383180D03*
X1244240Y1376680D03*
D16*
X1262380Y1336430D03*
X1262380Y1353430D03*
D53*
X1275510Y1597580D03*
X1275510Y1587580D03*
X1287010Y1592580D03*
D16*
X1256030Y1587890D03*
X1256030Y1604890D03*
D13*
X1291200Y1611630D03*
X1274200Y1611630D03*
D29*
X779780Y1071880D03*
X779780Y1046480D03*
X779780Y1021080D03*
X779780Y995680D03*
X779780Y970280D03*
D41*
X1246480Y1005680D03*
X1227480Y1005680D03*
X1236980Y984680D03*
D67*
X1180280Y1202658D03*
X1173780Y1202658D03*
X1167280Y1202658D03*
X1160780Y1202658D03*
X1154280Y1202658D03*
X1147780Y1202658D03*
X1141280Y1202658D03*
X1141280Y1144302D03*
X1147780Y1144302D03*
X1154280Y1144302D03*
X1160780Y1144302D03*
X1167280Y1144302D03*
X1173780Y1144302D03*
X1180280Y1144302D03*
D13*
X1054490Y1398270D03*
X1071490Y1398270D03*
D69*
X903330Y1348590D03*
X903330Y1361590D03*
X884830Y1355090D03*
D13*
X934330Y1348740D03*
X917330Y1348740D03*
X864480Y1363980D03*
X847480Y1363980D03*
D36*
X797760Y1360490D02*
X797760Y1367470D01*
X804740Y1367470D01*
X804740Y1360490D01*
X797760Y1360490D01*
X797760Y1365290D02*
X804740Y1365290D01*
X780220Y1367470D02*
X780220Y1360490D01*
X780220Y1367470D02*
X787200Y1367470D01*
X787200Y1360490D01*
X780220Y1360490D01*
X780220Y1365290D02*
X787200Y1365290D01*
D69*
X903330Y1376530D03*
X903330Y1389530D03*
X884830Y1383030D03*
D13*
X934330Y1376680D03*
X917330Y1376680D03*
X864480Y1383030D03*
X847480Y1383030D03*
D36*
X797760Y1379540D02*
X797760Y1386520D01*
X804740Y1386520D01*
X804740Y1379540D01*
X797760Y1379540D01*
X797760Y1384340D02*
X804740Y1384340D01*
X780220Y1386520D02*
X780220Y1379540D01*
X780220Y1386520D02*
X787200Y1386520D01*
X787200Y1379540D01*
X780220Y1379540D01*
X780220Y1384340D02*
X787200Y1384340D01*
D13*
X1194680Y1397000D03*
X1177680Y1397000D03*
X1144660Y1397000D03*
X1161660Y1397000D03*
D29*
X779780Y1529080D03*
D13*
X834780Y1529080D03*
X851780Y1529080D03*
X834780Y1554480D03*
X851780Y1554480D03*
D29*
X779780Y1554480D03*
D13*
X1239130Y1224280D03*
X1222130Y1224280D03*
X1228480Y1021080D03*
X1245480Y1021080D03*
X934330Y1421130D03*
X917330Y1421130D03*
X1236590Y1315720D03*
X1219590Y1315720D03*
X1044330Y1330960D03*
X1061330Y1330960D03*
X1061330Y1346200D03*
X1044330Y1346200D03*
D25*
X1385640Y1325880D03*
X1362640Y1325880D03*
D26*
X951230Y1163320D03*
X951230Y1107440D03*
X913130Y1163320D03*
X913130Y1107440D03*
D16*
X1134110Y1054980D03*
X1134110Y1037980D03*
D69*
X903330Y1404470D03*
X903330Y1417470D03*
X884830Y1410970D03*
D13*
X934330Y1404620D03*
X917330Y1404620D03*
X864480Y1402080D03*
X847480Y1402080D03*
D36*
X797760Y1398590D02*
X797760Y1405570D01*
X804740Y1405570D01*
X804740Y1398590D01*
X797760Y1398590D01*
X797760Y1403390D02*
X804740Y1403390D01*
X780220Y1405570D02*
X780220Y1398590D01*
X780220Y1405570D02*
X787200Y1405570D01*
X787200Y1398590D01*
X780220Y1398590D01*
X780220Y1403390D02*
X787200Y1403390D01*
D13*
X917330Y1437640D03*
X934330Y1437640D03*
D30*
X-26238Y1721485D03*
X1555318Y1721485D03*
D71*
X-35293Y170180D02*
X-35290Y170402D01*
X-35282Y170624D01*
X-35268Y170846D01*
X-35249Y171068D01*
X-35225Y171288D01*
X-35195Y171509D01*
X-35160Y171728D01*
X-35119Y171947D01*
X-35073Y172164D01*
X-35022Y172380D01*
X-34965Y172595D01*
X-34903Y172809D01*
X-34836Y173020D01*
X-34764Y173231D01*
X-34686Y173439D01*
X-34604Y173645D01*
X-34516Y173849D01*
X-34424Y174052D01*
X-34326Y174251D01*
X-34224Y174448D01*
X-34117Y174643D01*
X-34005Y174835D01*
X-33888Y175024D01*
X-33767Y175211D01*
X-33641Y175394D01*
X-33511Y175574D01*
X-33376Y175751D01*
X-33238Y175924D01*
X-33095Y176094D01*
X-32947Y176261D01*
X-32796Y176424D01*
X-32641Y176583D01*
X-32482Y176738D01*
X-32319Y176889D01*
X-32152Y177037D01*
X-31982Y177180D01*
X-31809Y177318D01*
X-31632Y177453D01*
X-31452Y177583D01*
X-31269Y177709D01*
X-31082Y177830D01*
X-30893Y177947D01*
X-30701Y178059D01*
X-30506Y178166D01*
X-30309Y178268D01*
X-30110Y178366D01*
X-29907Y178458D01*
X-29703Y178546D01*
X-29497Y178628D01*
X-29289Y178706D01*
X-29078Y178778D01*
X-28867Y178845D01*
X-28653Y178907D01*
X-28438Y178964D01*
X-28222Y179015D01*
X-28005Y179061D01*
X-27786Y179102D01*
X-27567Y179137D01*
X-27346Y179167D01*
X-27126Y179191D01*
X-26904Y179210D01*
X-26682Y179224D01*
X-26460Y179232D01*
X-26238Y179235D01*
X-26016Y179232D01*
X-25794Y179224D01*
X-25572Y179210D01*
X-25350Y179191D01*
X-25130Y179167D01*
X-24909Y179137D01*
X-24690Y179102D01*
X-24471Y179061D01*
X-24254Y179015D01*
X-24038Y178964D01*
X-23823Y178907D01*
X-23609Y178845D01*
X-23398Y178778D01*
X-23187Y178706D01*
X-22979Y178628D01*
X-22773Y178546D01*
X-22569Y178458D01*
X-22366Y178366D01*
X-22167Y178268D01*
X-21970Y178166D01*
X-21775Y178059D01*
X-21583Y177947D01*
X-21394Y177830D01*
X-21207Y177709D01*
X-21024Y177583D01*
X-20844Y177453D01*
X-20667Y177318D01*
X-20494Y177180D01*
X-20324Y177037D01*
X-20157Y176889D01*
X-19994Y176738D01*
X-19835Y176583D01*
X-19680Y176424D01*
X-19529Y176261D01*
X-19381Y176094D01*
X-19238Y175924D01*
X-19100Y175751D01*
X-18965Y175574D01*
X-18835Y175394D01*
X-18709Y175211D01*
X-18588Y175024D01*
X-18471Y174835D01*
X-18359Y174643D01*
X-18252Y174448D01*
X-18150Y174251D01*
X-18052Y174052D01*
X-17960Y173849D01*
X-17872Y173645D01*
X-17790Y173439D01*
X-17712Y173231D01*
X-17640Y173020D01*
X-17573Y172809D01*
X-17511Y172595D01*
X-17454Y172380D01*
X-17403Y172164D01*
X-17357Y171947D01*
X-17316Y171728D01*
X-17281Y171509D01*
X-17251Y171288D01*
X-17227Y171068D01*
X-17208Y170846D01*
X-17194Y170624D01*
X-17186Y170402D01*
X-17183Y170180D01*
X-17186Y169958D01*
X-17194Y169736D01*
X-17208Y169514D01*
X-17227Y169292D01*
X-17251Y169072D01*
X-17281Y168851D01*
X-17316Y168632D01*
X-17357Y168413D01*
X-17403Y168196D01*
X-17454Y167980D01*
X-17511Y167765D01*
X-17573Y167551D01*
X-17640Y167340D01*
X-17712Y167129D01*
X-17790Y166921D01*
X-17872Y166715D01*
X-17960Y166511D01*
X-18052Y166308D01*
X-18150Y166109D01*
X-18252Y165912D01*
X-18359Y165717D01*
X-18471Y165525D01*
X-18588Y165336D01*
X-18709Y165149D01*
X-18835Y164966D01*
X-18965Y164786D01*
X-19100Y164609D01*
X-19238Y164436D01*
X-19381Y164266D01*
X-19529Y164099D01*
X-19680Y163936D01*
X-19835Y163777D01*
X-19994Y163622D01*
X-20157Y163471D01*
X-20324Y163323D01*
X-20494Y163180D01*
X-20667Y163042D01*
X-20844Y162907D01*
X-21024Y162777D01*
X-21207Y162651D01*
X-21394Y162530D01*
X-21583Y162413D01*
X-21775Y162301D01*
X-21970Y162194D01*
X-22167Y162092D01*
X-22366Y161994D01*
X-22569Y161902D01*
X-22773Y161814D01*
X-22979Y161732D01*
X-23187Y161654D01*
X-23398Y161582D01*
X-23609Y161515D01*
X-23823Y161453D01*
X-24038Y161396D01*
X-24254Y161345D01*
X-24471Y161299D01*
X-24690Y161258D01*
X-24909Y161223D01*
X-25130Y161193D01*
X-25350Y161169D01*
X-25572Y161150D01*
X-25794Y161136D01*
X-26016Y161128D01*
X-26238Y161125D01*
X-26460Y161128D01*
X-26682Y161136D01*
X-26904Y161150D01*
X-27126Y161169D01*
X-27346Y161193D01*
X-27567Y161223D01*
X-27786Y161258D01*
X-28005Y161299D01*
X-28222Y161345D01*
X-28438Y161396D01*
X-28653Y161453D01*
X-28867Y161515D01*
X-29078Y161582D01*
X-29289Y161654D01*
X-29497Y161732D01*
X-29703Y161814D01*
X-29907Y161902D01*
X-30110Y161994D01*
X-30309Y162092D01*
X-30506Y162194D01*
X-30701Y162301D01*
X-30893Y162413D01*
X-31082Y162530D01*
X-31269Y162651D01*
X-31452Y162777D01*
X-31632Y162907D01*
X-31809Y163042D01*
X-31982Y163180D01*
X-32152Y163323D01*
X-32319Y163471D01*
X-32482Y163622D01*
X-32641Y163777D01*
X-32796Y163936D01*
X-32947Y164099D01*
X-33095Y164266D01*
X-33238Y164436D01*
X-33376Y164609D01*
X-33511Y164786D01*
X-33641Y164966D01*
X-33767Y165149D01*
X-33888Y165336D01*
X-34005Y165525D01*
X-34117Y165717D01*
X-34224Y165912D01*
X-34326Y166109D01*
X-34424Y166308D01*
X-34516Y166511D01*
X-34604Y166715D01*
X-34686Y166921D01*
X-34764Y167129D01*
X-34836Y167340D01*
X-34903Y167551D01*
X-34965Y167765D01*
X-35022Y167980D01*
X-35073Y168196D01*
X-35119Y168413D01*
X-35160Y168632D01*
X-35195Y168851D01*
X-35225Y169072D01*
X-35249Y169292D01*
X-35268Y169514D01*
X-35282Y169736D01*
X-35290Y169958D01*
X-35293Y170180D01*
D72*
X-26238Y170180D03*
M02*
